<svg width="24" height="25" viewBox="0 0 24 25" fill="none" xmlns="http://www.w3.org/2000/svg">
<g clip-path="url(#clip0_246_2)">
<path d="M2 13.085V11.913C2.01504 11.8578 2.02609 11.8017 2.03302 11.745C2.1195 10.3643 2.50939 9.01974 3.17499 7.80701C3.87984 6.46172 4.88572 5.29721 6.11426 4.4043C7.34279 3.51138 8.76084 2.9141 10.258 2.65894C10.639 2.58594 11.028 2.55298 11.414 2.50098H12.586C12.6355 2.51511 12.686 2.52579 12.737 2.53296C14.1192 2.61276 15.466 3.00158 16.678 3.6709C18.2324 4.47219 19.544 5.67489 20.4769 7.15405C21.4097 8.63322 21.9297 10.3351 21.983 12.083C22.1092 14.0216 21.6229 15.9507 20.593 17.5979C19.7585 19.0398 18.5701 20.2452 17.1403 21.1001C15.7104 21.955 14.0862 22.4313 12.421 22.484C10.6422 22.5945 8.86901 22.1922 7.31201 21.325C5.96511 20.6213 4.79912 19.6157 3.90521 18.3868C3.0113 17.158 2.41367 15.7391 2.159 14.241C2.085 13.859 2.05 13.471 2 13.085ZM14.241 17.3319C13.941 17.3959 13.672 17.4759 13.397 17.5079C12.619 17.5969 12.278 17.2529 12.419 16.4889C12.529 15.8959 12.693 15.3129 12.839 14.7269C13.1016 13.9311 13.2881 13.1121 13.396 12.281C13.4328 11.9458 13.3594 11.6076 13.1869 11.3179C13.0144 11.0281 12.7522 10.8024 12.44 10.6749C12.0073 10.5066 11.5377 10.456 11.079 10.528C10.4518 10.6402 9.8406 10.8286 9.25903 11.089C9.22003 11.104 9.166 11.1329 9.159 11.1659C9.103 11.3729 9.05904 11.5839 9.00104 11.8199L9.37103 11.7009C9.68664 11.5931 10.0253 11.5717 10.352 11.6389C10.615 11.6949 10.773 11.824 10.786 12.094C10.8093 12.4102 10.7898 12.728 10.728 13.0389C10.571 13.7229 10.373 14.3959 10.182 15.0709C9.98583 15.6705 9.86358 16.2917 9.81799 16.9209C9.79668 17.2417 9.8779 17.561 10.0499 17.8326C10.222 18.1042 10.4759 18.3142 10.775 18.432C11.283 18.6473 11.8466 18.6939 12.383 18.5649C12.936 18.4339 13.468 18.2109 14.007 18.0239C14.0274 18.0163 14.046 18.0044 14.0615 17.989C14.077 17.9737 14.0891 17.9553 14.097 17.9349C14.15 17.7359 14.193 17.5339 14.241 17.3319ZM12.907 6.33191C12.7217 6.35861 12.5381 6.39575 12.357 6.44299C12.1505 6.50347 11.9609 6.61123 11.8033 6.75781C11.6458 6.90439 11.5245 7.08572 11.4493 7.28735C11.374 7.48898 11.3469 7.70534 11.3699 7.91931C11.393 8.13328 11.4656 8.33891 11.582 8.5199C11.7495 8.77488 11.9891 8.97419 12.2704 9.09229C12.5516 9.21038 12.8617 9.242 13.161 9.18298C13.5354 9.13141 13.8746 8.93478 14.1054 8.6355C14.3362 8.33621 14.4403 7.95825 14.395 7.58301C14.3334 7.23287 14.1507 6.91547 13.879 6.68628C13.6072 6.45709 13.2635 6.33063 12.908 6.32898L12.907 6.33191Z" fill="#00524C"/>
</g>
<defs>
<clipPath id="clip0_246_2">
<rect width="24" height="24" fill="white" transform="translate(0 0.5)"/>
</clipPath>
</defs>
</svg>
