<svg width="22" height="23" viewBox="0 0 22 23" fill="none" xmlns="http://www.w3.org/2000/svg">
<g clip-path="url(#clip0_246_5)">
<mask id="mask0_246_5" style="mask-type:luminance" maskUnits="userSpaceOnUse" x="0" y="0" width="22" height="23">
<path d="M22 0.5H0V22.5H22V0.5Z" fill="white"/>
</mask>
<g mask="url(#mask0_246_5)">
<path fill-rule="evenodd" clip-rule="evenodd" d="M6.51769 19.327H0.78669C0.681178 19.3233 0.57599 19.3408 0.477402 19.3786C0.378814 19.4163 0.288846 19.4736 0.212872 19.5469C0.136897 19.6202 0.0764696 19.7081 0.0351982 19.8053C-0.0060732 19.9024 -0.0273438 20.0069 -0.0273438 20.1125C-0.0273438 20.2181 -0.0060732 20.3226 0.0351982 20.4198C0.0764696 20.5169 0.136897 20.6048 0.212872 20.6781C0.288846 20.7514 0.378814 20.8087 0.477402 20.8465C0.57599 20.8843 0.681178 20.9018 0.78669 20.898H17.2467C17.4502 20.8908 17.6429 20.8048 17.7843 20.6583C17.9256 20.5118 18.0047 20.3161 18.0047 20.1125C18.0047 19.9089 17.9256 19.7133 17.7843 19.5667C17.6429 19.4202 17.4502 19.3343 17.2467 19.327H9.57969L21.4387 5.84502C21.8278 5.40184 22.0278 4.82381 21.9956 4.23491C21.9635 3.64602 21.7018 3.09319 21.2667 2.69502C21.0469 2.49405 20.7895 2.33857 20.5094 2.23752C20.2293 2.13648 19.9319 2.09187 19.6344 2.10628C19.337 2.12069 19.0453 2.19383 18.7762 2.32147C18.5072 2.44912 18.266 2.62875 18.0667 2.85002L8.07969 13.961L4.14569 10.026C3.91992 9.80025 3.65052 9.62285 3.35394 9.50462C3.05736 9.38638 2.7398 9.32979 2.42063 9.33831C2.10146 9.34682 1.78737 9.42026 1.49751 9.55415C1.20766 9.68803 0.948103 9.87954 0.734688 10.117L0.601688 10.265C0.199862 10.7127 -0.0151607 11.2973 0.000835419 11.8986C0.0168316 12.5 0.262633 13.0723 0.687691 13.498L6.51769 19.327Z" fill="#00BA00"/>
</g>
</g>
<defs>
<clipPath id="clip0_246_5">
<rect width="22" height="22" fill="white" transform="translate(0 0.5)"/>
</clipPath>
</defs>
</svg>
