<svg width="22" height="23" viewBox="0 0 22 23" fill="none" xmlns="http://www.w3.org/2000/svg">
<g clip-path="url(#clip0_246_13)">
<path d="M14.2982 6.84203C14.996 6.81125 15.6901 6.96069 16.3134 7.27595C16.9368 7.59121 17.4684 8.06168 17.8572 8.64203L17.7652 8.70003C17.6962 8.74256 17.6294 8.78862 17.5652 8.83803C17.4985 8.89203 17.4122 8.96303 17.3062 9.05103C17.1989 9.143 17.097 9.24117 17.0012 9.34503C16.9012 9.45236 16.7975 9.57336 16.6902 9.70803C16.5777 9.84987 16.4793 10.0022 16.3962 10.163C16.3049 10.3384 16.2241 10.5191 16.1542 10.704C16.077 10.9113 16.0191 11.1252 15.9812 11.343C15.9388 11.5807 15.9177 11.8216 15.9182 12.063C15.9144 12.5409 15.9984 13.0155 16.1662 13.463C16.2983 13.8331 16.4913 14.1785 16.7372 14.485C16.949 14.7353 17.1863 14.9628 17.4452 15.164C17.6295 15.3133 17.8258 15.4471 18.0322 15.564C18.1226 15.614 18.2169 15.6565 18.3142 15.691C18.2845 15.8273 18.244 15.9611 18.1932 16.091C18.1205 16.2984 17.9822 16.615 17.7782 17.041C17.5775 17.4592 17.3434 17.8605 17.0782 18.241C16.8402 18.5864 16.6402 18.8627 16.4782 19.07C16.2889 19.3086 16.0852 19.5354 15.8682 19.749C15.6519 19.9738 15.3964 20.1571 15.1142 20.29C14.8553 20.4056 14.5747 20.4646 14.2912 20.463C13.8027 20.4436 13.3233 20.3248 12.8822 20.114C12.4025 19.8876 11.8805 19.7642 11.3502 19.752C10.797 19.7666 10.2526 19.8939 9.75019 20.126C9.31196 20.3397 8.83658 20.4667 8.35018 20.5C8.08836 20.5003 7.82941 20.4454 7.59018 20.339C7.31622 20.2084 7.06847 20.0288 6.85918 19.809C6.63644 19.5881 6.42675 19.3544 6.23118 19.109C6.05852 18.8904 5.83385 18.5904 5.55719 18.209C4.97603 17.3517 4.5223 16.4146 4.21018 15.427C3.86436 14.4009 3.68542 13.3259 3.68019 12.243C3.67046 11.4589 3.80329 10.6796 4.07218 9.94303C4.2954 9.31362 4.64642 8.73721 5.10319 8.25003C5.51107 7.82318 5.99812 7.4798 6.53718 7.23903C7.05859 7.00615 7.62314 6.88554 8.19418 6.88503C8.75497 6.91505 9.30546 7.04792 9.81818 7.27703C10.2299 7.47091 10.6679 7.603 11.1182 7.66903C11.3914 7.64725 11.6585 7.57716 11.9072 7.46203C12.2485 7.32403 12.6342 7.1857 13.0642 7.04703C13.4623 6.9148 13.8787 6.84564 14.2982 6.84203ZM13.6532 5.36803C13.3399 5.74814 12.9519 6.05991 12.5132 6.28403C12.1157 6.5087 11.6695 6.63328 11.2132 6.64703C11.132 6.64737 11.0509 6.63966 10.9712 6.62403C10.9468 6.51814 10.9354 6.40968 10.9372 6.30103C10.9393 5.8507 11.0346 5.40569 11.2172 4.99403C11.3922 4.58121 11.6311 4.19852 11.9252 3.86003C12.2654 3.46211 12.6824 3.13695 13.1512 2.90403C13.5899 2.66751 14.0755 2.53092 14.5732 2.50403C14.5974 2.62147 14.6091 2.74113 14.6082 2.86103C14.6008 3.78418 14.2619 4.67393 13.6532 5.36803Z" fill="black"/>
</g>
<defs>
<clipPath id="clip0_246_13">
<rect width="22" height="22" fill="white" transform="translate(0 0.5)"/>
</clipPath>
</defs>
</svg>
