<svg width="24" height="25" viewBox="0 0 24 25" fill="none" xmlns="http://www.w3.org/2000/svg">
<path d="M13.1978 19.255L12.4038 20.045C12.3244 20.1248 12.2301 20.1881 12.1261 20.2313C12.0222 20.2745 11.9108 20.2968 11.7983 20.2968C11.6857 20.2968 11.5743 20.2745 11.4704 20.2313C11.3665 20.1881 11.2721 20.1248 11.1928 20.045L4.25177 13.107C4.17198 13.0276 4.10866 12.9333 4.06545 12.8294C4.02224 12.7255 4 12.614 4 12.5015C4 12.389 4.02224 12.2775 4.06545 12.1736C4.10866 12.0697 4.17198 11.9754 4.25177 11.896L11.1938 4.955C11.2731 4.87536 11.3674 4.81217 11.4712 4.76905C11.575 4.72593 11.6863 4.70374 11.7988 4.70374C11.9112 4.70374 12.0225 4.72593 12.1263 4.76905C12.2301 4.81217 12.3244 4.87536 12.4038 4.955L13.1968 5.748C13.2773 5.8288 13.3409 5.92485 13.3838 6.03052C13.4268 6.1362 13.4483 6.24937 13.447 6.36344C13.4456 6.4775 13.4216 6.59016 13.3763 6.69483C13.3309 6.79949 13.2651 6.89406 13.1828 6.973L8.88277 11.073H19.1428C19.2556 11.0722 19.3674 11.0937 19.4718 11.1364C19.5762 11.179 19.6712 11.2418 19.7512 11.3213C19.8313 11.4008 19.8948 11.4953 19.9381 11.5994C19.9815 11.7035 20.0038 11.8152 20.0038 11.928V13.071C20.004 13.1836 19.982 13.2952 19.9391 13.3993C19.8961 13.5034 19.833 13.5979 19.7533 13.6776C19.6737 13.7572 19.5791 13.8203 19.475 13.8633C19.3709 13.9063 19.2594 13.9283 19.1468 13.928H8.87977L13.1798 18.028C13.2634 18.1063 13.3304 18.2006 13.3768 18.3053C13.4232 18.4101 13.4479 18.5231 13.4496 18.6377C13.4513 18.7522 13.4298 18.8659 13.3866 18.972C13.3433 19.0781 13.2791 19.1743 13.1978 19.255Z" fill="#00524C"/>
</svg>
