<svg width="9" height="16" viewBox="0 0 9 16" fill="none" xmlns="http://www.w3.org/2000/svg">
<g clip-path="url(#clip0_246_18)">
<path d="M2.07244 0.853858C1.85245 0.633281 1.55609 0.505714 1.24466 0.497556C0.933243 0.489397 0.630602 0.60127 0.399364 0.810026C0.168127 1.01878 0.0259914 1.30844 0.00236607 1.61907C-0.0212593 1.92971 0.0754356 2.23753 0.272443 2.47886L0.355442 2.57086L5.79344 8.00886L0.355442 13.4469C0.14275 13.6593 0.0164185 13.943 0.000901222 14.2432C-0.014616 14.5434 0.0817842 14.8387 0.271442 15.0719L0.355442 15.1639C0.567843 15.3766 0.8516 15.5029 1.15179 15.5184C1.45197 15.5339 1.74724 15.4375 1.98044 15.2479L2.07244 15.1639L8.37244 8.86386C8.58346 8.65116 8.70836 8.36794 8.72313 8.06869C8.7379 7.76944 8.64149 7.4753 8.45244 7.24286L8.36944 7.15086L2.07244 0.853858Z" fill="#4D5454"/>
</g>
<defs>
<clipPath id="clip0_246_18">
<rect width="8.725" height="15.021" fill="white" transform="translate(0 0.5)"/>
</clipPath>
</defs>
</svg>
