<svg width="24" height="25" viewBox="0 0 24 25" fill="none" xmlns="http://www.w3.org/2000/svg">
<g clip-path="url(#clip0_246_20)">
<path d="M21.9731 12.5019V20.084C21.9968 20.403 21.9516 20.7235 21.8406 21.0235C21.7295 21.3236 21.5552 21.5963 21.3294 21.823C21.1036 22.0497 20.8317 22.2252 20.5321 22.3375C20.2325 22.4498 19.9123 22.4963 19.5931 22.4739H4.40209C4.08527 22.4955 3.76748 22.4492 3.47002 22.338C3.17257 22.2268 2.9023 22.0533 2.67733 21.8292C2.45236 21.6051 2.2779 21.3355 2.16558 21.0385C2.05326 20.7415 2.00569 20.4238 2.02609 20.1069V4.88994C2.00595 4.57517 2.05297 4.25973 2.16402 3.96452C2.27508 3.66931 2.44765 3.40111 2.67025 3.17766C2.89285 2.9542 3.16041 2.78062 3.45519 2.66844C3.74998 2.55626 4.06525 2.50803 4.38009 2.52696H19.6221C19.9347 2.5086 20.2477 2.5565 20.5406 2.66752C20.8334 2.77855 21.0994 2.95016 21.3213 3.17119C21.5432 3.39221 21.7158 3.65765 21.828 3.95006C21.9401 4.24246 21.9893 4.55526 21.9721 4.86796C21.9741 7.41263 21.9744 9.95727 21.9731 12.5019ZM6.4681 9.15996H17.5221V6.97893H6.4681V9.15996ZM6.4681 13.5859H17.5261V11.4109H6.47009L6.4681 13.5859ZM6.4681 18.0279H14.2031V15.8459H6.4681V18.0279Z" fill="#FF6902"/>
</g>
<defs>
<clipPath id="clip0_246_20">
<rect width="24" height="24" fill="white" transform="translate(0 0.5)"/>
</clipPath>
</defs>
</svg>
