<svg width="24" height="25" viewBox="0 0 24 25" fill="none" xmlns="http://www.w3.org/2000/svg">
<g clip-path="url(#clip0_246_25)">
<mask id="mask0_246_25" style="mask-type:luminance" maskUnits="userSpaceOnUse" x="0" y="0" width="24" height="25">
<path d="M24 0.5H0V24.5H24V0.5Z" fill="white"/>
</mask>
<g mask="url(#mask0_246_25)">
<path d="M15.0101 5.53605C14.79 5.53598 14.5772 5.61473 14.4101 5.75805L14.4011 5.75005L7.11612 13.0141C6.73104 13.366 6.42705 13.7974 6.2252 14.2785C6.02336 14.7595 5.92847 15.2787 5.94711 15.8001C5.93825 16.2238 6.01678 16.6449 6.17782 17.037C6.33886 17.4291 6.57895 17.7838 6.88311 18.0791C7.56896 18.6906 8.46483 19.0131 9.38311 18.9791H9.40411C9.92344 18.9779 10.4373 18.873 10.9156 18.6705C11.3938 18.468 11.8268 18.1721 12.1891 17.8001L20.6471 9.34405C21.1532 8.88852 21.5603 8.33381 21.843 7.71437C22.1258 7.09492 22.2782 6.42396 22.2907 5.74315C22.3033 5.06234 22.1758 4.38622 21.9161 3.75676C21.6564 3.1273 21.2701 2.55795 20.7811 2.08405C19.7625 1.06713 18.382 0.495972 16.9426 0.495972C15.5033 0.495972 14.1227 1.06713 13.1041 2.08405L2.51012 12.6801C1.21055 13.9796 0.480469 15.7422 0.480469 17.5801C0.480469 19.4179 1.21055 21.1805 2.51012 22.4801C3.80968 23.7796 5.57226 24.5097 7.41012 24.5097C9.24797 24.5097 11.0106 23.7796 12.3101 22.4801L23.2721 11.4701C23.4293 11.2949 23.5156 11.0674 23.5141 10.8321C23.5147 10.6511 23.4622 10.474 23.3633 10.3225C23.2644 10.171 23.1234 10.0518 22.9575 9.9795C22.7917 9.90721 22.6083 9.88503 22.43 9.91569C22.2517 9.94635 22.0863 10.0285 21.9541 10.1521L10.9841 21.1541C10.0354 22.1026 8.7488 22.6354 7.40726 22.6353C6.06572 22.6352 4.77916 22.1022 3.83062 21.1536C2.88207 20.2049 2.34923 18.9182 2.34933 17.5767C2.34942 16.2352 2.88244 14.9486 3.83112 14.0001L14.4241 3.40905C15.0925 2.74277 15.9978 2.36863 16.9416 2.36863C17.8854 2.36863 18.7907 2.74277 19.4591 3.40905C19.7743 3.70221 20.024 4.05864 20.1918 4.455C20.3597 4.85136 20.4419 5.27871 20.4331 5.70905C20.372 6.59392 19.9757 7.42218 19.3251 8.02505L10.8501 16.5001C10.6599 16.6907 10.4338 16.8418 10.185 16.9447C9.93615 17.0477 9.66942 17.1005 9.40012 17.1001C9.20974 17.1243 9.01642 17.1095 8.83198 17.0565C8.64754 17.0034 8.47587 16.9133 8.32748 16.7916C8.1791 16.6699 8.05712 16.5192 7.96901 16.3487C7.88091 16.1782 7.82854 15.9915 7.81511 15.8001C7.815 15.2563 8.03081 14.7347 8.41512 14.3501L15.7221 7.06805L15.7141 7.06005C15.8295 6.92543 15.9038 6.76049 15.9281 6.58485C15.9524 6.40922 15.9257 6.2303 15.8512 6.0694C15.7767 5.9085 15.6576 5.7724 15.5079 5.67731C15.3583 5.58222 15.1844 5.53215 15.0071 5.53305L15.0101 5.53605Z" fill="black"/>
</g>
</g>
<defs>
<clipPath id="clip0_246_25">
<rect width="24" height="24" fill="white" transform="translate(0 0.5)"/>
</clipPath>
</defs>
</svg>
