<svg width="24" height="25" viewBox="0 0 24 25" fill="none" xmlns="http://www.w3.org/2000/svg">
<g clip-path="url(#clip0_246_34)">
<mask id="mask0_246_34" style="mask-type:luminance" maskUnits="userSpaceOnUse" x="0" y="0" width="24" height="25">
<path d="M0 0.5H24V24.5H0V0.5Z" fill="white"/>
</mask>
<g mask="url(#mask0_246_34)">
<path d="M17.5382 12.808C16.382 12.808 15.2517 13.1508 14.2904 13.7932C13.329 14.4356 12.5797 15.3486 12.1372 16.4168C11.6948 17.485 11.579 18.6605 11.8046 19.7945C12.0301 20.9285 12.5869 21.9701 13.4045 22.7877C14.2221 23.6053 15.2637 24.1621 16.3977 24.3877C17.5318 24.6132 18.7072 24.4974 19.7754 24.055C20.8436 23.6125 21.7566 22.8632 22.399 21.9018C23.0414 20.9405 23.3842 19.8102 23.3842 18.654C23.3824 17.1041 22.7659 15.6182 21.6699 14.5223C20.574 13.4263 19.0881 12.8098 17.5382 12.808ZM13.5382 18.654C13.5382 17.5931 13.9597 16.5757 14.7098 15.8256C15.46 15.0754 16.4774 14.654 17.5382 14.654C18.2779 14.6566 19.0019 14.8665 19.6282 15.26L14.1442 20.744C13.7513 20.1174 13.5414 19.3935 13.5382 18.654ZM17.5382 22.654C16.7986 22.6514 16.0745 22.4414 15.4482 22.048L20.9322 16.564C21.3098 17.1678 21.5184 17.8619 21.5363 18.5738C21.5543 19.2858 21.3809 19.9895 21.0342 20.6115C20.6875 21.2336 20.1802 21.7513 19.5653 22.1105C18.9504 22.4698 18.2504 22.6574 17.5382 22.654ZM11.3842 12.193C10.228 12.193 9.09774 11.8501 8.13637 11.2078C7.175 10.5654 6.42571 9.65236 5.98324 8.58415C5.54077 7.51593 5.425 6.34049 5.65057 5.20648C5.87613 4.07247 6.43291 3.03081 7.25049 2.21323C8.06807 1.39565 9.10973 0.838878 10.2437 0.613308C11.3778 0.387739 12.5532 0.503509 13.6214 0.945979C14.6896 1.38845 15.6026 2.13775 16.245 3.09912C16.8874 4.06049 17.2302 5.19075 17.2302 6.34698C17.2284 7.89687 16.6119 9.38274 15.5159 10.4787C14.42 11.5746 12.9341 12.1911 11.3842 12.193ZM9.84624 18.655C9.84264 20.1079 10.2571 21.5312 11.0402 22.755V23.58C11.0384 23.8242 10.9406 24.0579 10.7679 24.2306C10.5952 24.4033 10.3615 24.5011 10.1172 24.503H4.00024C3.55547 24.5032 3.11502 24.4158 2.70408 24.2457C2.29314 24.0755 1.91979 23.826 1.60539 23.5114C1.29098 23.1968 1.0417 22.8233 0.871794 22.4123C0.701893 22.0013 0.614711 21.5607 0.615237 21.116C0.617618 19.2398 1.36399 17.4411 2.69067 16.1144C4.01735 14.7877 5.81603 14.0414 7.69224 14.039H10.1542C10.3359 14.0387 10.5135 14.0924 10.6646 14.1932C10.8157 14.2939 10.9336 14.4372 11.0032 14.605C10.2448 15.8191 9.84385 17.2234 9.84624 18.655Z" fill="black"/>
</g>
</g>
<defs>
<clipPath id="clip0_246_34">
<rect width="24" height="24" fill="white" transform="translate(0 0.5)"/>
</clipPath>
</defs>
</svg>
