<svg width="20" height="21" viewBox="0 0 20 21" fill="none" xmlns="http://www.w3.org/2000/svg">
<g clip-path="url(#clip0_246_40)">
<path d="M14.9932 20.5C14.0957 20.4154 13.2138 20.2102 12.3712 19.89C10.4543 19.1545 8.67403 18.1033 7.10417 16.78C4.86725 14.9828 2.99202 12.777 1.57817 10.28C0.830473 8.98619 0.308985 7.57422 0.0361627 6.10498C-0.0617466 5.67653 0.0129839 5.22681 0.24417 4.85303C1.13543 3.38373 2.25166 2.06339 3.55217 0.940066C3.63717 0.869065 3.73217 0.809997 3.82217 0.744997C4.04062 0.572483 4.31572 0.488007 4.59334 0.508181C4.87095 0.528354 5.13097 0.651724 5.32217 0.854006C5.41534 0.926975 5.49692 1.01358 5.56416 1.11096C6.45814 2.32363 7.24827 3.60951 7.92616 4.95496C8.05227 5.2323 8.1592 5.51807 8.24617 5.81006C8.30399 5.97565 8.31593 6.15374 8.28071 6.32556C8.2455 6.49739 8.16447 6.65651 8.04617 6.78601C7.79627 7.05545 7.53294 7.31216 7.25717 7.55506C7.07988 7.72155 6.89465 7.8793 6.70216 8.02796C6.646 8.06009 6.60469 8.11302 6.58711 8.17529C6.56953 8.23757 6.5771 8.30421 6.60817 8.36096C7.06288 9.62643 7.79173 10.7757 8.74257 11.7266C9.6934 12.6774 10.8427 13.4063 12.1082 13.861C12.1684 13.893 12.2387 13.9005 12.3043 13.8818C12.3699 13.8632 12.4258 13.8199 12.4602 13.761C12.7602 13.391 13.0832 13.0321 13.4032 12.6751C13.5807 12.4379 13.8368 12.2716 14.1257 12.2058C14.4146 12.1401 14.7174 12.1791 14.9802 12.316C15.6202 12.616 16.2662 12.916 16.8732 13.272C17.6962 13.761 18.4862 14.306 19.2872 14.832C19.6185 15.0442 19.8578 15.3734 19.9572 15.754C19.9921 15.8635 20.003 15.9792 19.9892 16.0933C19.9754 16.2073 19.9372 16.3171 19.8772 16.415C19.7498 16.6376 19.6043 16.8493 19.4422 17.048C18.3052 18.3375 16.9661 19.4335 15.4772 20.293C15.3219 20.3753 15.16 20.4446 14.9932 20.5ZM4.48016 1.86707C4.42216 1.91307 4.40017 1.929 4.38017 1.948C3.29847 2.93932 2.33658 4.05396 1.51416 5.26904C1.43834 5.37362 1.38612 5.4934 1.36108 5.62012C1.33605 5.74684 1.33882 5.8775 1.36917 6.00305C1.60616 7.20298 2.03212 8.35758 2.63116 9.42395C4.48131 12.7844 7.20134 15.5852 10.5062 17.533C11.7915 18.3408 13.2258 18.8828 14.7242 19.127C14.837 19.1396 14.9509 19.1147 15.0482 19.056C16.1941 18.318 17.2507 17.4498 18.1972 16.469C18.3392 16.323 18.4762 16.169 18.6202 16.015C18.5562 15.961 18.5202 15.922 18.4712 15.89C17.2474 14.998 15.9415 14.2245 14.5712 13.58C14.5529 13.5678 14.5325 13.5594 14.5109 13.5553C14.4894 13.5512 14.4673 13.5513 14.4458 13.5559C14.4244 13.5605 14.4041 13.5694 14.3861 13.5819C14.3681 13.5945 14.3528 13.6105 14.3412 13.629C14.1412 13.864 13.9552 14.104 13.7462 14.329C13.4462 14.652 13.1302 14.968 12.8072 15.271C12.7645 15.3024 12.7159 15.3249 12.6644 15.3369C12.6128 15.349 12.5593 15.3504 12.5072 15.3411C11.4579 15.1192 10.4624 14.6934 9.57716 14.088C7.52353 12.8061 5.99619 10.8318 5.27116 8.52197C5.01516 7.71597 4.97116 7.88095 5.59616 7.24695C5.97016 6.86695 6.39617 6.53399 6.79617 6.18799C6.82409 6.17239 6.8483 6.15095 6.86716 6.12512C6.88601 6.0993 6.89906 6.06967 6.90543 6.03833C6.91179 6.007 6.9113 5.97474 6.90401 5.94361C6.89671 5.91247 6.88279 5.88328 6.86317 5.85803C6.31717 4.90003 5.79016 3.93198 5.23616 2.97998C5.02116 2.59498 4.74416 2.24507 4.48216 1.86707H4.48016Z" fill="white"/>
</g>
<defs>
<clipPath id="clip0_246_40">
<rect width="20" height="20" fill="white" transform="translate(0 0.5)"/>
</clipPath>
</defs>
</svg>
