<svg width="24" height="25" viewBox="0 0 24 25" fill="none" xmlns="http://www.w3.org/2000/svg">
<g clip-path="url(#clip0_246_42)">
<mask id="mask0_246_42" style="mask-type:luminance" maskUnits="userSpaceOnUse" x="0" y="0" width="24" height="25">
<path d="M24 0.5H0V24.5H24V0.5Z" fill="white"/>
</mask>
<g mask="url(#mask0_246_42)">
<path d="M19 4.5H18.492L16.308 1.668C16.0265 1.30581 15.6663 1.01242 15.2547 0.810054C14.843 0.607691 14.3907 0.501663 13.932 0.5L10.068 0.5C9.6093 0.501663 9.15699 0.607691 8.74533 0.810054C8.33368 1.01242 7.97347 1.30581 7.692 1.668L5.508 4.5H5C3.6744 4.50159 2.40356 5.02888 1.46622 5.96622C0.528882 6.90356 0.00158786 8.1744 0 9.5L0 19.5C0.00158786 20.8256 0.528882 22.0964 1.46622 23.0338C2.40356 23.9711 3.6744 24.4984 5 24.5H19C20.3256 24.4984 21.5964 23.9711 22.5338 23.0338C23.4711 22.0964 23.9984 20.8256 24 19.5V9.5C23.9984 8.1744 23.4711 6.90356 22.5338 5.96622C21.5964 5.02888 20.3256 4.50159 19 4.5ZM9.276 2.89C9.36967 2.76905 9.48969 2.67106 9.62693 2.60348C9.76418 2.5359 9.91502 2.50051 10.068 2.5H13.932C14.085 2.50066 14.2357 2.53611 14.373 2.60368C14.5102 2.67125 14.6302 2.76916 14.724 2.89L15.966 4.5H8.034L9.276 2.89ZM22 19.5C22 20.2956 21.6839 21.0587 21.1213 21.6213C20.5587 22.1839 19.7956 22.5 19 22.5H5C4.20435 22.5 3.44129 22.1839 2.87868 21.6213C2.31607 21.0587 2 20.2956 2 19.5V9.5C2 8.70435 2.31607 7.94129 2.87868 7.37868C3.44129 6.81607 4.20435 6.5 5 6.5H19C19.7956 6.5 20.5587 6.81607 21.1213 7.37868C21.6839 7.94129 22 8.70435 22 9.5V19.5Z" fill="white"/>
<path d="M12 8.5C10.8133 8.5 9.65328 8.85189 8.66658 9.51118C7.67989 10.1705 6.91085 11.1075 6.45673 12.2039C6.0026 13.3003 5.88378 14.5067 6.11529 15.6705C6.3468 16.8344 6.91825 17.9035 7.75736 18.7426C8.59648 19.5818 9.66558 20.1532 10.8295 20.3847C11.9933 20.6162 13.1997 20.4974 14.2961 20.0433C15.3925 19.5892 16.3295 18.8201 16.9888 17.8334C17.6481 16.8467 18 15.6867 18 14.5C18 12.9087 17.3679 11.3826 16.2426 10.2574C15.1174 9.13214 13.5913 8.5 12 8.5ZM12 18.5C11.2089 18.5 10.4355 18.2654 9.77772 17.8259C9.11993 17.3864 8.60723 16.7616 8.30448 16.0307C8.00173 15.2998 7.92252 14.4956 8.07686 13.7196C8.2312 12.9437 8.61217 12.231 9.17158 11.6716C9.73099 11.1122 10.4437 10.7312 11.2196 10.5769C11.9956 10.4225 12.7998 10.5017 13.5307 10.8045C14.2616 11.1072 14.8864 11.6199 15.3259 12.2777C15.7654 12.9355 16 13.7089 16 14.5C16 15.5609 15.5786 16.5783 14.8284 17.3284C14.0783 18.0786 13.0609 18.5 12 18.5Z" fill="white"/>
</g>
</g>
<defs>
<clipPath id="clip0_246_42">
<rect width="24" height="24" fill="white" transform="translate(0 0.5)"/>
</clipPath>
</defs>
</svg>
