<svg width="20" height="21" viewBox="0 0 20 21" fill="none" xmlns="http://www.w3.org/2000/svg">
<g clip-path="url(#clip0_246_56)">
<mask id="mask0_246_56" style="mask-type:luminance" maskUnits="userSpaceOnUse" x="0" y="0" width="20" height="21">
<path d="M20 0.5H0V20.5H20V0.5Z" fill="white"/>
</mask>
<g mask="url(#mask0_246_56)">
<path d="M7.5 8H1.667C1.22497 7.99974 0.801111 7.82402 0.488546 7.51145C0.17598 7.19889 0.000264929 6.77503 0 6.333L0 4.667C0.00105903 3.56217 0.440421 2.50289 1.22166 1.72166C2.00289 0.940421 3.06217 0.501059 4.167 0.5L7.5 0.5C7.94203 0.500265 8.36589 0.67598 8.67845 0.988546C8.99102 1.30111 9.16673 1.72497 9.167 2.167V6.333C9.16673 6.77503 8.99102 7.19889 8.67845 7.51145C8.36589 7.82402 7.94203 7.99974 7.5 8ZM15.833 20.5H12.5C12.058 20.4997 11.6341 20.324 11.3215 20.0115C11.009 19.6989 10.8333 19.275 10.833 18.833V14.667C10.8333 14.225 11.009 13.8011 11.3215 13.4885C11.6341 13.176 12.058 13.0003 12.5 13H18.333C18.775 13.0003 19.1989 13.176 19.5115 13.4885C19.824 13.8011 19.9997 14.225 20 14.667V16.334C19.9987 17.4387 19.5592 18.4977 18.778 19.2787C17.9968 20.0597 16.9377 20.4989 15.833 20.5ZM18.333 11.333H12.5C12.058 11.3327 11.6341 11.157 11.3215 10.8445C11.009 10.5319 10.8333 10.108 10.833 9.666V2.166C10.8335 1.72414 11.0094 1.30054 11.3219 0.988192C11.6344 0.675842 12.0581 0.500265 12.5 0.5H15.833C16.9378 0.501059 17.9971 0.940421 18.7783 1.72166C19.5596 2.50289 19.9989 3.56217 20 4.667V9.667C19.9995 10.1089 19.8236 10.5325 19.5111 10.8448C19.1986 11.1572 18.7749 11.3327 18.333 11.333ZM7.5 20.5H4.167C3.06217 20.4989 2.00289 20.0596 1.22166 19.2783C0.440421 18.4971 0.00105903 17.4378 0 16.333L0 11.333C0.000529731 10.8911 0.176362 10.4675 0.488899 10.1552C0.801436 9.84284 1.22514 9.66726 1.667 9.667H7.5C7.94203 9.66726 8.36589 9.84298 8.67845 10.1555C8.99102 10.4681 9.16673 10.892 9.167 11.334V18.834C9.16647 19.2759 8.99064 19.6995 8.6781 20.0118C8.36556 20.3242 7.94186 20.4997 7.5 20.5Z" fill="black"/>
</g>
</g>
<defs>
<clipPath id="clip0_246_56">
<rect width="20" height="20" fill="white" transform="translate(0 0.5)"/>
</clipPath>
</defs>
</svg>
