<svg width="24" height="25" viewBox="0 0 24 25" fill="none" xmlns="http://www.w3.org/2000/svg">
<g clip-path="url(#clip0_246_51)">
<path d="M6.08739 9.12296C6.29739 9.72296 6.47838 10.3231 6.72338 10.9101C7.49095 12.7843 8.57321 14.5134 9.92339 16.023C10.0924 16.209 10.2664 16.476 10.4744 16.515C10.6654 16.551 10.9074 16.332 11.1234 16.215C11.4894 16.021 11.8514 15.8151 12.2164 15.6241C12.3481 15.5401 12.4959 15.4845 12.6503 15.4611C12.8046 15.4376 12.9622 15.4468 13.1129 15.4878C13.2636 15.5289 13.404 15.601 13.5251 15.6995C13.6463 15.798 13.7455 15.9208 13.8164 16.06C14.3304 16.9333 14.8404 17.8094 15.3464 18.688C15.4343 18.8238 15.4911 18.9773 15.5129 19.1376C15.5346 19.2979 15.5207 19.4611 15.4722 19.6154C15.4237 19.7697 15.3417 19.9114 15.2322 20.0304C15.1226 20.1495 14.9882 20.2429 14.8384 20.304C13.8438 20.78 12.8457 21.2487 11.8444 21.71C11.729 21.7494 11.6038 21.7494 11.4884 21.71C10.6268 21.4212 9.82872 20.9697 9.13738 20.38C7.7234 19.2032 6.49642 17.8184 5.4984 16.273C4.13892 14.3026 3.10504 12.1266 2.43639 9.82804C2.09167 8.7117 1.95209 7.54212 2.0244 6.37601C2.0374 6.22301 2.06438 6.07598 2.07738 5.91898C2.08834 5.76407 2.13794 5.61439 2.22161 5.48355C2.30528 5.35272 2.42035 5.24488 2.55638 5.16995C3.37638 4.64195 4.17342 4.07701 4.97942 3.52701C5.11321 3.41327 5.27165 3.3322 5.44219 3.29032C5.61272 3.24843 5.79064 3.24686 5.9619 3.28568C6.13316 3.32449 6.29306 3.40264 6.42888 3.51395C6.5647 3.62526 6.67274 3.76673 6.74443 3.92703C7.23443 4.76637 7.7231 5.60596 8.21044 6.44596C8.30443 6.57802 8.36845 6.72909 8.39806 6.88846C8.42767 7.04783 8.4221 7.21179 8.38182 7.36881C8.34155 7.52582 8.26751 7.67208 8.16484 7.79752C8.06217 7.92296 7.93336 8.02449 7.7874 8.095C7.2484 8.425 6.70643 8.75004 6.16643 9.07804C6.15617 9.08682 6.14705 9.09694 6.13939 9.10807L6.08739 9.12296Z" fill="#FF6902"/>
<path d="M10.4869 15.2941C8.99382 13.6345 7.85157 11.6902 7.12891 9.578L8.56494 8.69897L12.0009 11.016L13.569 12.073C13.6743 12.1756 13.8154 12.2329 13.9624 12.2329C14.1094 12.2329 14.2506 12.1756 14.356 12.073L21.7429 7.09106C21.8099 7.04606 21.879 7.00196 21.976 6.93896C21.985 7.06196 21.9979 7.14901 21.9979 7.23901V16.239C22.0109 16.3619 21.9963 16.4862 21.9552 16.6028C21.9141 16.7193 21.8473 16.8252 21.76 16.9127C21.6727 17.0002 21.567 17.0671 21.4506 17.1085C21.3341 17.1499 21.2099 17.1647 21.0869 17.152H15.6339C15.5793 17.156 15.5247 17.1429 15.4778 17.1146C15.4309 17.0863 15.3939 17.0442 15.3719 16.994C15.0949 16.512 14.8129 16.033 14.5289 15.554C14.3911 15.2959 14.202 15.0687 13.9733 14.8862C13.7445 14.7038 13.4809 14.5701 13.1986 14.4932C12.9163 14.4162 12.6212 14.3976 12.3315 14.4387C12.0419 14.4798 11.7637 14.5796 11.5139 14.7321L10.4869 15.2941Z" fill="#FF6902"/>
<path d="M9.11182 7.83099C9.29142 7.33005 9.2843 6.78111 9.0918 6.28497H21.0579C20.9919 6.33697 20.9468 6.376 20.8988 6.409C18.6468 7.95366 16.3959 9.49898 14.1459 11.045C14.0963 11.0911 14.0311 11.1168 13.9634 11.1168C13.8957 11.1168 13.8305 11.0911 13.7809 11.045C12.2762 10.0043 10.7682 8.96797 9.25684 7.93597C9.21184 7.90497 9.16982 7.87099 9.11182 7.83099Z" fill="#FF6902"/>
</g>
<defs>
<clipPath id="clip0_246_51">
<rect width="24" height="24" fill="white" transform="translate(0 0.5)"/>
</clipPath>
</defs>
</svg>
