<svg width="24" height="25" viewBox="0 0 24 25" fill="none" xmlns="http://www.w3.org/2000/svg">
<g clip-path="url(#clip0_246_63)">
<path d="M12.1346 2.47803C12.2849 2.5414 12.4095 2.65346 12.4884 2.7962C12.5673 2.93894 12.5959 3.10405 12.5697 3.26501C12.5497 3.60301 12.5697 3.94201 12.5647 4.28101C12.5704 4.36155 12.5595 4.44246 12.5327 4.51862C12.5058 4.59477 12.4636 4.66459 12.4085 4.72369C12.3535 4.7828 12.2869 4.82989 12.2129 4.86212C12.1388 4.89435 12.0589 4.91101 11.9781 4.91101C11.8974 4.91101 11.8174 4.89435 11.7434 4.86212C11.6693 4.82989 11.6027 4.7828 11.5477 4.72369C11.4927 4.66459 11.4504 4.59477 11.4235 4.51862C11.3967 4.44246 11.3858 4.36155 11.3916 4.28101C11.3916 3.94201 11.4066 3.60301 11.3866 3.26501C11.3601 3.10404 11.3887 2.93886 11.4676 2.79608C11.5465 2.6533 11.6712 2.54126 11.8216 2.47803H12.1346Z" fill="#00524C"/>
<path d="M1.97852 12.322C2.04175 12.1717 2.15373 12.047 2.29651 11.968C2.43929 11.8891 2.60453 11.8605 2.7655 11.887C3.1025 11.907 3.44249 11.887 3.78149 11.892C3.86204 11.8862 3.94289 11.8971 4.01904 11.924C4.0952 11.9508 4.16502 11.9931 4.22412 12.0481C4.28323 12.1031 4.33044 12.1698 4.36267 12.2438C4.3949 12.3178 4.4115 12.3978 4.4115 12.4785C4.4115 12.5593 4.3949 12.6391 4.36267 12.7132C4.33044 12.7872 4.28323 12.8538 4.22412 12.9088C4.16502 12.9639 4.0952 13.0061 4.01904 13.033C3.94289 13.0598 3.86204 13.0707 3.78149 13.065C3.44249 13.065 3.1035 13.05 2.7655 13.07C2.60454 13.0962 2.43949 13.0677 2.29675 12.9888C2.15401 12.9099 2.04189 12.7853 1.97852 12.635V12.322Z" fill="#00524C"/>
<path d="M21.9779 12.635C21.9147 12.7854 21.8027 12.9101 21.6599 12.989C21.5171 13.0679 21.3519 13.0965 21.1909 13.07C20.8539 13.05 20.5139 13.07 20.1749 13.065C20.0944 13.0708 20.0135 13.0599 19.9374 13.0331C19.8612 13.0062 19.7914 12.9639 19.7323 12.9089C19.6732 12.8539 19.6261 12.7873 19.5939 12.7132C19.5616 12.6392 19.5449 12.5592 19.5449 12.4785C19.5449 12.3977 19.5616 12.3179 19.5939 12.2439C19.6261 12.1698 19.6732 12.1032 19.7323 12.0482C19.7914 11.9932 19.8612 11.9509 19.9374 11.924C20.0135 11.8972 20.0944 11.8863 20.1749 11.8921C20.5139 11.8921 20.8529 11.9071 21.1909 11.8871C21.3519 11.8604 21.5172 11.8888 21.66 11.9677C21.8029 12.0467 21.9148 12.1715 21.9779 12.322V12.635Z" fill="#00524C"/>
<path d="M11.8216 22.478C11.6712 22.4148 11.5465 22.3028 11.4676 22.16C11.3887 22.0173 11.3601 21.852 11.3866 21.691C11.4066 21.353 11.3866 21.014 11.3916 20.675C11.3858 20.5945 11.3967 20.5137 11.4235 20.4375C11.4504 20.3613 11.4927 20.2915 11.5477 20.2324C11.6027 20.1733 11.6693 20.1261 11.7434 20.0939C11.8174 20.0616 11.8974 20.045 11.9781 20.045C12.0589 20.045 12.1388 20.0616 12.2129 20.0939C12.2869 20.1261 12.3535 20.1733 12.4085 20.2324C12.4636 20.2915 12.5058 20.3613 12.5327 20.4375C12.5595 20.5137 12.5704 20.5945 12.5647 20.675C12.5647 21.014 12.5497 21.353 12.5697 21.691C12.5958 21.852 12.567 22.0171 12.4881 22.1598C12.4092 22.3025 12.2848 22.4145 12.1346 22.478H11.8216Z" fill="#00524C"/>
<path d="M5.77734 12.474C5.77873 11.2481 6.14346 10.0501 6.82556 9.03142C7.50767 8.01276 8.47647 7.21909 9.6095 6.7509C10.7425 6.28271 11.9889 6.16091 13.1912 6.40093C14.3934 6.64095 15.4974 7.23205 16.3638 8.09941C17.2302 8.96678 17.8201 10.0715 18.0587 11.274C18.2974 12.4765 18.1742 13.7228 17.7047 14.8553C17.2352 15.9878 16.4406 16.9557 15.4211 17.6366C14.4017 18.3176 13.2032 18.681 11.9773 18.681C10.3328 18.6775 8.75679 18.0223 7.5946 16.8588C6.43242 15.6953 5.77893 14.1185 5.77734 12.474ZM12.5773 7.49297V17.466C13.7987 17.3221 14.9249 16.7349 15.7421 15.8157C16.5593 14.8966 17.0107 13.7094 17.0107 12.4795C17.0107 11.2496 16.5593 10.0625 15.7421 9.14336C14.9249 8.22421 13.7987 7.6369 12.5773 7.49297Z" fill="#00524C"/>
<path d="M6.83347 6.68904C6.83665 6.80705 6.80667 6.92364 6.74692 7.02546C6.68717 7.12729 6.60004 7.21031 6.49545 7.26509C6.39517 7.32214 6.27911 7.34518 6.16464 7.33076C6.05017 7.31634 5.94344 7.26515 5.86044 7.18501C5.53172 6.87928 5.21415 6.56183 4.90842 6.2331C4.81309 6.12248 4.76295 5.98 4.76791 5.83406C4.77288 5.68811 4.83265 5.54939 4.93527 5.44551C5.0379 5.34162 5.17587 5.28013 5.32175 5.27339C5.46762 5.26664 5.61073 5.31504 5.7225 5.40901C6.0565 5.71801 6.37649 6.04305 6.68649 6.37605C6.7533 6.47105 6.80301 6.57696 6.83347 6.68904Z" fill="#00524C"/>
<path d="M19.187 5.94489C19.136 6.06801 19.0688 6.18383 18.987 6.28901C18.72 6.58201 18.433 6.85698 18.148 7.13398C18.094 7.19161 18.0288 7.23774 17.9565 7.2696C17.8842 7.30147 17.8062 7.3184 17.7272 7.31941C17.6483 7.32042 17.5699 7.30547 17.4968 7.27546C17.4237 7.24545 17.3574 7.20096 17.302 7.14472C17.2465 7.08849 17.2029 7.02166 17.1739 6.94819C17.1449 6.87472 17.131 6.79609 17.133 6.71711C17.1351 6.63813 17.153 6.56046 17.1859 6.4886C17.2187 6.41673 17.2656 6.35217 17.3239 6.2989C17.6059 6.0109 17.891 5.72392 18.181 5.44392C18.2624 5.35797 18.3688 5.29979 18.4851 5.27754C18.6013 5.25529 18.7215 5.27007 18.8289 5.31989C18.9459 5.3743 19.0431 5.46371 19.1073 5.57563C19.1714 5.68756 19.1992 5.81649 19.187 5.94489Z" fill="#00524C"/>
<path d="M5.41681 19.6931C5.30027 19.6995 5.18429 19.6728 5.08234 19.6159C4.98038 19.5591 4.89658 19.4746 4.84076 19.372C4.78072 19.2731 4.75469 19.1573 4.76642 19.0422C4.77815 18.9271 4.82707 18.8189 4.90582 18.7341C5.21449 18.4008 5.53612 18.0784 5.87079 17.7671C5.9806 17.676 6.1201 17.6287 6.26263 17.634C6.40517 17.6393 6.54079 17.697 6.64349 17.796C6.74619 17.895 6.80882 18.0284 6.8194 18.1706C6.82997 18.3129 6.78767 18.454 6.70074 18.5671C6.38574 18.9121 6.04785 19.2391 5.70685 19.5591C5.61926 19.6212 5.5209 19.6667 5.41681 19.6931Z" fill="#00524C"/>
<path d="M17.7395 17.5941C17.8754 17.6467 18.0041 17.7162 18.1226 17.8011C18.4286 18.0831 18.7226 18.3811 19.0086 18.6811C19.0667 18.7346 19.1133 18.7993 19.1458 18.8714C19.1782 18.9435 19.1957 19.0214 19.1973 19.1004C19.1988 19.1794 19.1845 19.2578 19.1549 19.3311C19.1254 19.4044 19.0812 19.471 19.0253 19.5268C18.9693 19.5826 18.9027 19.6266 18.8294 19.6559C18.756 19.6853 18.6774 19.6996 18.5984 19.6978C18.5194 19.6961 18.4416 19.6783 18.3696 19.6457C18.2977 19.6131 18.233 19.5662 18.1796 19.508C17.8796 19.2193 17.5852 18.9248 17.2965 18.6241C17.2108 18.5422 17.1533 18.4353 17.1321 18.3187C17.1109 18.2021 17.1272 18.0818 17.1786 17.975C17.2307 17.8681 17.3099 17.7766 17.4083 17.7098C17.5068 17.6429 17.6209 17.603 17.7395 17.5941Z" fill="#00524C"/>
</g>
<defs>
<clipPath id="clip0_246_63">
<rect width="24" height="24" fill="white" transform="translate(0 0.5)"/>
</clipPath>
</defs>
</svg>
