<svg width="40" height="41" viewBox="0 0 40 41" fill="none" xmlns="http://www.w3.org/2000/svg">
<g clip-path="url(#clip0_246_83)">
<path fill-rule="evenodd" clip-rule="evenodd" d="M20 4.711C18.0951 4.76102 16.2879 5.56508 14.9754 6.94658C13.6629 8.32807 12.9524 10.174 13 12.079C12.9524 13.984 13.6629 15.8299 14.9754 17.2114C16.2879 18.5929 18.0951 19.397 20 19.447C21.9049 19.397 23.7121 18.5929 25.0246 17.2114C26.3371 15.8299 27.0476 13.984 27 12.079C27.0476 10.174 26.3371 8.32807 25.0246 6.94658C23.7121 5.56508 21.9049 4.76102 20 4.711ZM9 12.079C9 5.684 13.925 0.5 20 0.5C26.075 0.5 31 5.684 31 12.079C31 18.474 26.075 23.658 20 23.658C13.925 23.658 9 18.474 9 12.079ZM20 32.079C16.8494 32.1236 13.7443 32.8387 10.8916 34.1768C8.03882 35.5148 5.50373 37.445 3.455 39.839C3.2805 40.039 3.0666 40.2009 2.82669 40.3145C2.58678 40.4282 2.32601 40.4911 2.06069 40.4993C1.79536 40.5076 1.53118 40.461 1.28467 40.3625C1.03816 40.2641 0.81461 40.1158 0.628001 39.927C0.240349 39.5334 0.016251 39.0076 0.000849725 38.4553C-0.0145515 37.9031 0.179888 37.3656 0.545001 36.951C2.95824 34.1439 5.941 31.8823 9.29525 30.3163C12.6495 28.7503 16.2985 27.9157 20 27.868C23.7014 27.9156 27.3504 28.75 30.7046 30.3159C34.0589 31.8817 37.0417 34.1431 39.455 36.95C39.8201 37.3646 40.0146 37.9021 39.9992 38.4543C39.9838 39.0066 39.7597 39.5324 39.372 39.926C39.1854 40.1148 38.9618 40.2631 38.7153 40.3615C38.4688 40.46 38.2046 40.5066 37.9393 40.4983C37.674 40.4901 37.4132 40.4272 37.1733 40.3135C36.9334 40.1999 36.7195 40.038 36.545 39.838C34.4962 37.4442 31.961 35.5141 29.1083 34.1763C26.2555 32.8385 23.1506 32.1235 20 32.079Z" fill="#435EBE"/>
</g>
<defs>
<clipPath id="clip0_246_83">
<rect width="40" height="40" fill="white" transform="translate(0 0.5)"/>
</clipPath>
</defs>
</svg>
