<svg width="24" height="25" viewBox="0 0 24 25" fill="none" xmlns="http://www.w3.org/2000/svg">
<g clip-path="url(#clip0_246_85)">
<path d="M20.3339 14.996V22.726C20.3339 23.652 19.9339 24.059 19.0139 24.059H5.99182C5.07782 24.059 4.67383 23.6489 4.67383 22.7239V7.263C4.67383 6.334 5.06884 5.94003 5.99384 5.93903H19.0158C19.9388 5.93903 20.3339 6.33895 20.3339 7.26495V14.996ZM13.0479 14.972V11.2869C13.0528 11.1702 13.0457 11.0532 13.0269 10.9379C13.0112 10.8146 12.9503 10.7016 12.8558 10.6208C12.7613 10.54 12.6401 10.4973 12.5158 10.501C12.3855 10.4917 12.2566 10.5333 12.1563 10.617C12.056 10.7007 11.992 10.8201 11.9778 10.95C11.9638 11.0305 11.9584 11.1124 11.9619 11.194V18.81C11.9596 18.8684 11.9616 18.9268 11.9678 18.9849C11.9734 19.1214 12.031 19.2506 12.1288 19.346C12.2266 19.4414 12.3572 19.4958 12.4938 19.498C12.636 19.4999 12.7731 19.4458 12.8757 19.3474C12.9782 19.2489 13.0379 19.1141 13.0418 18.972C13.0501 18.8672 13.0525 18.762 13.0488 18.6569L13.0468 14.972H13.0479ZM17.4698 15.034V12.753C17.4698 12.192 17.4778 11.63 17.4698 11.069C17.4759 10.9957 17.4664 10.9218 17.4421 10.8524C17.4178 10.7829 17.3792 10.7192 17.3288 10.6656C17.2784 10.612 17.2173 10.5695 17.1494 10.541C17.0815 10.5124 17.0084 10.4984 16.9348 10.4999C16.6198 10.4999 16.4219 10.7 16.3969 11.064C16.3899 11.164 16.3969 11.2739 16.3969 11.3799V18.893C16.4159 19.267 16.6248 19.5049 16.9318 19.5049C17.0083 19.504 17.0837 19.4871 17.1533 19.4554C17.2229 19.4236 17.2851 19.3777 17.336 19.3206C17.3869 19.2635 17.4254 19.1965 17.4489 19.1237C17.4725 19.051 17.4806 18.9741 17.4728 18.898C17.4728 17.607 17.4688 16.317 17.4688 15.033L17.4698 15.034ZM7.53882 14.982V18.8069C7.53882 19.2389 7.73884 19.491 8.06384 19.502C8.38884 19.513 8.60782 19.2519 8.61682 18.8019V11.326C8.62255 11.1858 8.61352 11.0453 8.58984 10.9069C8.57711 10.8258 8.54418 10.7492 8.49414 10.684C8.4441 10.6189 8.37853 10.5674 8.30341 10.5341C8.22828 10.5009 8.14601 10.487 8.06415 10.4938C7.98228 10.5006 7.90346 10.5278 7.83484 10.5729C7.66758 10.7231 7.56565 10.9326 7.55084 11.1569C7.52584 12.4309 7.53784 13.706 7.53784 14.981L7.53882 14.982Z" fill="#FF6902"/>
<path d="M8.56205 3.16094V1.89996C8.54076 1.71233 8.56179 1.52236 8.62358 1.34393C8.68536 1.16549 8.78635 1.00312 8.91911 0.868829C9.05186 0.734539 9.21301 0.631757 9.39073 0.567925C9.56844 0.504093 9.75822 0.480801 9.94609 0.499932H15.0551C15.2428 0.480157 15.4325 0.502712 15.6104 0.56585C15.7883 0.628988 15.9497 0.731106 16.0829 0.8648C16.2161 0.998494 16.3177 1.16035 16.3802 1.33843C16.4427 1.51652 16.4645 1.70635 16.4441 1.89398V3.15997H21.2261C21.3308 3.15465 21.4358 3.15769 21.5401 3.169C21.671 3.17949 21.7925 3.24103 21.8784 3.34039C21.9643 3.43974 22.0076 3.56895 21.9991 3.70001C22.0051 3.83068 21.9597 3.9585 21.8726 4.05608C21.7855 4.15367 21.6636 4.21322 21.5331 4.22198C21.4283 4.23111 21.3231 4.23341 21.2181 4.22894H3.79106C3.25606 4.22894 3.0061 4.06203 3.0001 3.70403C2.9941 3.34603 3.2541 3.16094 3.7761 3.16094H8.56205ZM15.3751 3.14495C15.3751 2.73395 15.3591 2.34497 15.3751 1.96697C15.3911 1.66697 15.2751 1.58102 14.9881 1.58502C14.1381 1.59702 13.2881 1.58502 12.4371 1.58502H9.99107C9.83007 1.58502 9.63608 1.55903 9.63108 1.80303C9.62208 2.24303 9.63108 2.68397 9.63108 3.13897L15.3751 3.14495Z" fill="#FF6902"/>
</g>
<defs>
<clipPath id="clip0_246_85">
<rect width="24" height="24" fill="white" transform="translate(0 0.5)"/>
</clipPath>
</defs>
</svg>
