<svg width="20" height="21" viewBox="0 0 20 21" fill="none" xmlns="http://www.w3.org/2000/svg">
<g clip-path="url(#clip0_246_96)">
<path d="M9.99955 14.628C9.89112 14.6283 9.7837 14.6072 9.68347 14.5659C9.58324 14.5245 9.49219 14.4637 9.41555 14.387L2.81555 7.78702C2.69957 7.67169 2.62048 7.52449 2.58835 7.36411C2.55621 7.20374 2.57247 7.03743 2.63506 6.88632C2.69765 6.73521 2.80374 6.60611 2.93986 6.51542C3.07598 6.42474 3.23599 6.37656 3.39955 6.37702H16.6025C16.7661 6.37656 16.9261 6.42474 17.0622 6.51542C17.1984 6.60611 17.3044 6.73521 17.367 6.88632C17.4296 7.03743 17.4459 7.20374 17.4137 7.36411C17.3816 7.52449 17.3025 7.67169 17.1865 7.78702L10.5865 14.387C10.5096 14.4641 10.418 14.5251 10.3172 14.5664C10.2165 14.6078 10.1085 14.6287 9.99955 14.628Z" fill="black"/>
</g>
<defs>
<clipPath id="clip0_246_96">
<rect width="20" height="20" fill="white" transform="translate(0 0.5)"/>
</clipPath>
</defs>
</svg>
