<svg width="24" height="25" viewBox="0 0 24 25" fill="none" xmlns="http://www.w3.org/2000/svg">
<g clip-path="url(#clip0_246_103)">
<path d="M21.0006 20.825C20.9982 21.0062 20.924 21.1791 20.7942 21.3057C20.6645 21.4323 20.4898 21.5021 20.3086 21.5H3.69258C3.51356 21.5 3.34187 21.4289 3.21528 21.3023C3.08869 21.1757 3.01758 21.004 3.01758 20.825C3.01758 20.646 3.08869 20.4743 3.21528 20.3477C3.34187 20.2211 3.51356 20.15 3.69258 20.15H20.3086C20.4898 20.1479 20.6645 20.2178 20.7942 20.3443C20.924 20.4709 20.9982 20.6438 21.0006 20.825Z" fill="white"/>
<path d="M16.8775 11.257C16.9134 11.2666 16.9504 11.2713 16.9875 11.271C17.0358 11.271 17.0837 11.2615 17.1283 11.2429C17.1729 11.2244 17.2134 11.1972 17.2475 11.163L18.3275 10.072C18.7121 9.74987 19.0279 9.35369 19.2562 8.90702C19.4845 8.46036 19.6206 7.97235 19.6565 7.47201C19.6243 6.96503 19.4902 6.46976 19.2622 6.01581C19.0342 5.56186 18.717 5.15855 18.3295 4.83001C16.5795 3.08001 14.8775 3.03801 13.0825 4.83001L11.9825 5.92001C11.9363 5.96625 11.9036 6.02416 11.8877 6.08756C11.8719 6.15096 11.8735 6.21747 11.8925 6.28001C12.2369 7.46184 12.8739 8.53767 13.7446 9.40784C14.6153 10.278 15.6915 10.9144 16.8735 11.258" fill="white"/>
<path d="M6.0824 18.8C6.19051 18.8 6.29847 18.792 6.4054 18.776L9.8574 18.288C10.0437 18.2524 10.2167 18.1663 10.3574 18.039L16.0104 12.384C15.7654 12.294 15.5104 12.198 15.2484 12.074C14.9864 11.95 14.7364 11.818 14.4964 11.674C14.2976 11.5573 14.1053 11.4298 13.9204 11.292C13.7447 11.172 13.5751 11.0431 13.4124 10.906C13.3562 10.865 13.3037 10.8192 13.2554 10.769C12.9208 10.4843 12.6104 10.1722 12.3274 9.83603C12.2781 9.78822 12.2354 9.73408 12.2004 9.67503C12.0664 9.51797 11.9416 9.35336 11.8264 9.18203C11.7002 9.01104 11.5837 8.83309 11.4774 8.64903C11.3354 8.41003 11.2074 8.15903 11.0854 7.90703C10.9594 7.63703 10.8594 7.38103 10.7704 7.13403L5.1114 12.792C4.98375 12.9325 4.89756 13.1055 4.8624 13.292L4.3744 16.741C4.32215 17.021 4.33686 17.3094 4.41733 17.5826C4.4978 17.8558 4.64174 18.1061 4.8374 18.313C5.00268 18.4724 5.19787 18.5975 5.41172 18.6811C5.62557 18.7646 5.85285 18.8051 6.0824 18.8Z" fill="white"/>
</g>
<defs>
<clipPath id="clip0_246_103">
<rect width="24" height="24" fill="white" transform="translate(0 0.5)"/>
</clipPath>
</defs>
</svg>
