<svg width="11" height="12" viewBox="0 0 11 12" fill="none" xmlns="http://www.w3.org/2000/svg">
<g clip-path="url(#clip0_246_99)">
<path d="M0 3.57906C0.0517497 3.40229 0.118677 3.23028 0.200012 3.06502C0.313733 2.85666 0.482307 2.68345 0.6875 2.5641C0.892693 2.44476 1.12667 2.38384 1.36401 2.38802C2.57701 2.38002 3.78999 2.38802 5.00299 2.38802C5.06555 2.38388 5.12828 2.39262 5.18732 2.41371C5.24636 2.4348 5.30048 2.46779 5.34625 2.51064C5.39202 2.55348 5.42848 2.60528 5.45343 2.6628C5.47838 2.72031 5.49127 2.78235 5.49127 2.84505C5.49127 2.90774 5.47838 2.96978 5.45343 3.0273C5.42848 3.08482 5.39202 3.13656 5.34625 3.1794C5.30048 3.22224 5.24636 3.25523 5.18732 3.27632C5.12828 3.29741 5.06555 3.30616 5.00299 3.30202H1.43903C1.36939 3.29279 1.29851 3.29965 1.23193 3.32204C1.16535 3.34443 1.10478 3.3818 1.05487 3.43123C1.00496 3.48066 0.967067 3.54083 0.944031 3.60719C0.920994 3.67355 0.913448 3.74432 0.921997 3.81404V10.0971C0.913287 10.1658 0.920396 10.2357 0.942749 10.3013C0.965102 10.367 1.00214 10.4266 1.05103 10.4758C1.09991 10.525 1.15935 10.5624 1.22485 10.5851C1.29036 10.6078 1.36018 10.6153 1.42902 10.607H7.72198C7.79088 10.6143 7.86057 10.606 7.92578 10.5826C7.991 10.5592 8.05008 10.5214 8.09863 10.472C8.14719 10.4226 8.18395 10.3628 8.20618 10.2972C8.22841 10.2316 8.23551 10.1618 8.22699 10.093V6.51802C8.22383 6.44417 8.2387 6.37069 8.27026 6.30385C8.30183 6.23701 8.34916 6.17883 8.4082 6.13435C8.46724 6.08988 8.53624 6.06044 8.60919 6.04854C8.68215 6.03664 8.75691 6.04264 8.82703 6.06606C8.9223 6.09921 9.0041 6.16254 9.06006 6.24648C9.11602 6.33041 9.14306 6.43032 9.13702 6.53102V10.042C9.16221 10.3715 9.06808 10.699 8.87183 10.9649C8.67558 11.2307 8.39026 11.4171 8.06799 11.49C8.06174 11.4931 8.05604 11.4972 8.05103 11.502H1.07001C1.04522 11.4904 1.01987 11.4801 0.994019 11.471C0.819685 11.4234 0.657006 11.3404 0.516113 11.2272C0.37522 11.114 0.259093 10.973 0.174988 10.8131C0.104816 10.6549 0.046338 10.4917 0 10.325V3.57906Z" fill="white"/>
<path d="M11.0004 1.79095C10.9273 2.13559 10.7364 2.44397 10.4604 2.66296C10.3164 2.79496 10.1834 2.93898 10.0554 3.06798L8.44141 1.45397C8.4638 1.42971 8.48646 1.40569 8.5094 1.38195C8.6834 1.20795 8.85637 1.03298 9.03137 0.859977C9.17762 0.707746 9.36323 0.598991 9.5675 0.545768C9.77178 0.492544 9.98678 0.49695 10.1887 0.558463C10.3907 0.619976 10.5716 0.736208 10.7115 0.894278C10.8515 1.05235 10.9449 1.24606 10.9814 1.45397C10.9858 1.46703 10.9918 1.47945 10.9994 1.49096L11.0004 1.79095Z" fill="white"/>
<path d="M7.92599 1.96796L9.53695 3.57898C9.51895 3.59798 9.49597 3.62395 9.47097 3.64795C8.31297 4.80595 7.15429 5.96333 5.99496 7.12C5.92443 7.18846 5.83668 7.23648 5.74099 7.25897C5.24099 7.36697 4.74099 7.45896 4.24099 7.55896C4.20002 7.57357 4.15574 7.57643 4.11324 7.5672C4.07074 7.55797 4.03173 7.53706 4.00051 7.50677C3.96929 7.47649 3.94712 7.43807 3.93661 7.39587C3.92609 7.35368 3.92759 7.30939 3.94094 7.26801C4.04427 6.74734 4.14965 6.22697 4.25698 5.70697C4.26957 5.64846 4.2979 5.59451 4.33895 5.55096C5.52762 4.3583 6.71793 3.1673 7.90993 1.97797C7.915 1.97422 7.9204 1.97087 7.92599 1.96796Z" fill="white"/>
</g>
<defs>
<clipPath id="clip0_246_99">
<rect width="11" height="11" fill="white" transform="translate(0 0.5)"/>
</clipPath>
</defs>
</svg>
