<svg width="22" height="23" viewBox="0 0 22 23" fill="none" xmlns="http://www.w3.org/2000/svg">
<g clip-path="url(#clip0_246_109)">
<mask id="mask0_246_109" style="mask-type:luminance" maskUnits="userSpaceOnUse" x="0" y="0" width="22" height="23">
<path d="M22 0.5H0V22.5H22V0.5Z" fill="white"/>
</mask>
<g mask="url(#mask0_246_109)">
<path d="M11.4534 8.26302C11.2243 8.65984 11.1312 9.12071 11.1885 9.57532C11.2457 10.0299 11.4501 10.4534 11.7704 10.781C12.0893 11.153 12.5275 11.4028 13.0101 11.4876C13.4927 11.5724 13.9897 11.487 14.4164 11.246C14.4837 11.8362 14.3827 12.4335 14.1251 12.9687C13.8675 13.504 13.4637 13.9555 12.9604 14.271C12.3465 14.6638 11.6194 14.8415 10.8936 14.7761C10.1677 14.7108 9.48409 14.4061 8.9502 13.91C8.41631 13.4139 8.06238 12.7544 7.94404 12.0353C7.82569 11.3161 7.94962 10.5781 8.29637 9.93702C8.59628 9.37546 9.05688 8.91612 9.61925 8.61774C10.1816 8.31936 10.8202 8.19651 11.4534 8.26302Z" fill="black"/>
<path d="M11 19.032C5.034 19.032 0 14.406 0 11.501C0 10.101 1.292 8.20903 3.291 6.68103C5.50024 4.96814 8.20491 4.017 11 3.97003C13.8344 4.04737 16.558 5.08703 18.723 6.91803C20.653 8.47003 22 10.356 22 11.501C22 12.761 20.681 14.645 18.717 16.19C16.5269 17.9597 13.8148 18.9586 11 19.032ZM11 5.34803C8.50709 5.39398 6.09598 6.24539 4.127 7.77503C2.322 9.15503 1.377 10.694 1.377 11.501C1.377 12.308 2.236 13.859 4.123 15.282C6.10202 16.7892 8.51268 17.621 11 17.655C13.5092 17.5999 15.927 16.7028 17.865 15.108C19.765 13.608 20.622 12.098 20.622 11.502C20.622 11.068 19.788 9.54403 17.859 7.99203C15.9294 6.37408 13.5164 5.44393 11 5.34803Z" fill="black"/>
</g>
</g>
<defs>
<clipPath id="clip0_246_109">
<rect width="22" height="22" fill="white" transform="translate(0 0.5)"/>
</clipPath>
</defs>
</svg>
