<svg width="800" height="801" viewBox="0 0 800 801" fill="none" xmlns="http://www.w3.org/2000/svg">
<path d="M399.999 733.833C465.926 733.833 530.373 714.284 585.189 677.656C640.006 641.029 682.73 588.97 707.959 528.061C733.188 467.152 739.79 400.13 726.928 335.47C714.066 270.81 682.319 211.415 635.702 164.798C589.084 118.18 529.69 86.4333 465.029 73.5716C400.369 60.7098 333.347 67.3109 272.438 92.5401C211.529 117.769 159.47 160.494 122.843 215.31C86.2157 270.126 66.666 334.573 66.666 400.5C66.666 488.905 101.785 573.69 164.297 636.202C195.25 667.155 231.996 691.708 272.438 708.46C312.88 725.211 356.225 733.833 399.999 733.833ZM399.999 667.167C390.11 667.167 380.443 664.234 372.221 658.74C363.998 653.246 357.59 645.437 353.805 636.301C350.021 627.164 349.031 617.111 350.96 607.412C352.889 597.713 357.651 588.804 364.644 581.811C371.637 574.819 380.546 570.057 390.245 568.127C399.944 566.198 409.997 567.188 419.134 570.973C428.27 574.757 436.079 581.166 441.573 589.388C447.067 597.611 449.999 607.278 449.999 617.167C449.999 630.427 444.731 643.145 435.355 652.522C425.978 661.899 413.26 667.167 399.999 667.167ZM266.666 300.3C266.175 274.691 273.246 249.505 286.995 227.894C300.744 206.283 320.561 189.206 343.966 178.8C364.72 169.531 387.475 165.637 410.131 167.478C432.786 169.319 454.614 176.835 473.599 189.333C491.106 200.924 505.628 216.486 515.983 234.751C526.338 253.016 532.233 273.468 533.188 294.443C534.144 315.417 530.132 336.321 521.48 355.452C512.828 374.582 499.78 391.399 483.399 404.533C460.427 422.237 443.903 446.994 436.366 475C434.288 483.593 428.882 491.009 421.337 495.616C413.792 500.223 404.726 501.644 396.133 499.567C387.54 497.489 380.124 492.083 375.517 484.538C370.91 476.993 369.488 467.926 371.566 459.333C382.416 416.995 407.043 379.469 441.566 352.667C449.771 346.103 456.309 337.693 460.646 328.123C464.983 318.552 466.997 308.092 466.522 297.595C466.048 287.099 463.099 276.863 457.916 267.722C452.733 258.582 445.463 250.796 436.699 245C426.881 238.574 415.58 234.77 403.874 233.953C392.168 233.136 380.448 235.333 369.833 240.333C358.576 245.721 349.122 254.256 342.615 264.904C336.108 275.552 332.826 287.859 333.166 300.333C332.592 308.747 328.849 316.63 322.694 322.394C316.538 328.158 308.427 331.375 299.994 331.396C291.561 331.417 283.433 328.241 277.249 322.508C271.064 316.775 267.283 308.91 266.666 300.5V300.3Z" fill="black"/>
</svg>
