<svg width="125" height="87" viewBox="0 0 125 87" fill="none" xmlns="http://www.w3.org/2000/svg">
<g clip-path="url(#clip0_246_120)">
<path d="M0 86.047C17.0472 70.5555 39.2553 61.972 62.29 61.972C85.3247 61.972 107.533 70.5555 124.58 86.047C116.872 77.0719 107.315 69.8686 96.5634 64.9303C85.8123 59.992 74.121 57.4353 62.29 57.4353C50.459 57.4353 38.7677 59.992 28.0166 64.9303C17.2655 69.8686 7.70848 77.0719 0 86.047Z" fill="url(#paint0_linear_246_120)"/>
<path d="M9.01172 40.95C9.01172 40.95 14.1197 48.923 22.5497 64.081C34.8068 57.6173 48.4548 54.2392 62.3117 54.2392C76.1687 54.2392 89.8167 57.6173 102.074 64.081C110.462 48.92 115.611 40.95 115.611 40.95C97.0487 58.516 63.6607 41.116 62.2907 15.038C60.9617 41.112 27.5737 58.512 9.01172 40.95Z" fill="url(#paint1_linear_246_120)"/>
<path d="M28.4863 44.768C33.9946 44.3857 39.313 42.5986 43.9343 39.577C37.4973 36.546 32.3073 28.946 29.9813 23.423C31.4353 29.237 31.8503 38.456 28.4863 44.768Z" fill="url(#paint2_linear_246_120)"/>
<path d="M0.125023 31.523C0.12919 32.0609 0.292755 32.5855 0.595038 33.0304C0.897321 33.4754 1.32475 33.8207 1.82327 34.0228C2.3218 34.2248 2.86905 34.2745 3.39582 34.1656C3.92258 34.0566 4.40522 33.7939 4.78271 33.4107C5.1602 33.0275 5.41558 32.5409 5.51657 32.0126C5.61756 31.4842 5.55963 30.9378 5.35009 30.4424C5.14055 29.947 4.78882 29.5248 4.33937 29.2292C3.88992 28.9337 3.36292 28.7781 2.82502 28.782C2.10428 28.7899 1.41592 29.0825 0.910107 29.596C0.404293 30.1095 0.122075 30.8022 0.125023 31.523Z" fill="url(#paint3_linear_246_120)"/>
<path d="M23.3379 13.83C23.3379 14.3721 23.4986 14.9021 23.7998 15.3528C24.101 15.8036 24.5291 16.1549 25.03 16.3623C25.5308 16.5698 26.0819 16.6241 26.6136 16.5183C27.1453 16.4126 27.6337 16.1515 28.0171 15.7682C28.4004 15.3848 28.6615 14.8964 28.7672 14.3647C28.873 13.833 28.8187 13.2819 28.6112 12.7811C28.4038 12.2802 28.0525 11.8521 27.6017 11.5509C27.151 11.2497 26.621 11.089 26.0789 11.089C25.7188 11.0886 25.3622 11.1592 25.0295 11.2968C24.6968 11.4344 24.3944 11.6363 24.1398 11.8909C23.8852 12.1455 23.6833 12.4479 23.5457 12.7806C23.4081 13.1133 23.3375 13.4699 23.3379 13.83Z" fill="url(#paint4_linear_246_120)"/>
<path d="M62.2918 5.982C63.8056 5.982 65.0328 4.75481 65.0328 3.241C65.0328 1.72719 63.8056 0.5 62.2918 0.5C60.778 0.5 59.5508 1.72719 59.5508 3.241C59.5508 4.75481 60.778 5.982 62.2918 5.982Z" fill="url(#paint5_linear_246_120)"/>
<path d="M80.6836 39.58C85.3021 42.6075 90.6221 44.3951 96.1316 44.771C92.7676 38.459 93.1826 29.24 94.6366 23.426C92.3116 28.949 87.1206 36.549 80.6836 39.58Z" fill="url(#paint6_linear_246_120)"/>
<path d="M119.016 31.523C119.016 32.0651 119.176 32.595 119.478 33.0458C119.779 33.4966 120.207 33.8479 120.708 34.0553C121.209 34.2628 121.76 34.3171 122.291 34.2113C122.823 34.1056 123.311 33.8445 123.695 33.4612C124.078 33.0778 124.339 32.5894 124.445 32.0577C124.551 31.526 124.496 30.9749 124.289 30.474C124.082 29.9732 123.73 29.5451 123.279 29.2439C122.829 28.9427 122.299 28.782 121.757 28.782C121.032 28.7882 120.338 29.079 119.825 29.5917C119.313 30.1044 119.022 30.798 119.016 31.523Z" fill="url(#paint7_linear_246_120)"/>
<path d="M95.8027 13.83C95.8027 14.3721 95.9635 14.9021 96.2647 15.3528C96.5659 15.8036 96.9939 16.1549 97.4948 16.3623C97.9956 16.5698 98.5468 16.6241 99.0785 16.5183C99.6102 16.4126 100.099 16.1515 100.482 15.7682C100.865 15.3848 101.126 14.8964 101.232 14.3647C101.338 13.833 101.284 13.2819 101.076 12.7811C100.869 12.2802 100.517 11.8521 100.067 11.5509C99.6158 11.2497 99.0859 11.089 98.5437 11.089C97.8187 11.0953 97.1251 11.386 96.6125 11.8987C96.0998 12.4114 95.809 13.105 95.8027 13.83Z" fill="url(#paint8_linear_246_120)"/>
</g>
<defs>
<linearGradient id="paint0_linear_246_120" x1="-822.726" y1="-35.1236" x2="-819.852" y2="376.501" gradientUnits="userSpaceOnUse">
<stop stop-color="#FFF9B7"/>
<stop offset="0.253" stop-color="#F3C459"/>
<stop offset="0.511" stop-color="#CC9924"/>
<stop offset="0.769" stop-color="#B56400"/>
<stop offset="1" stop-color="#873F00"/>
</linearGradient>
<linearGradient id="paint1_linear_246_120" x1="-694.968" y1="-143.616" x2="-685.101" y2="561.842" gradientUnits="userSpaceOnUse">
<stop stop-color="#FFF9B7"/>
<stop offset="0.253" stop-color="#F3C459"/>
<stop offset="0.511" stop-color="#CC9924"/>
<stop offset="0.769" stop-color="#B56400"/>
<stop offset="1" stop-color="#873F00"/>
</linearGradient>
<linearGradient id="paint2_linear_246_120" x1="-73.5323" y1="-45.6281" x2="-60.6546" y2="260.928" gradientUnits="userSpaceOnUse">
<stop stop-color="#FFF9B7"/>
<stop offset="0.253" stop-color="#F3C459"/>
<stop offset="0.511" stop-color="#CC9924"/>
<stop offset="0.769" stop-color="#B56400"/>
<stop offset="1" stop-color="#873F00"/>
</linearGradient>
<linearGradient id="paint3_linear_246_120" x1="-35.8004" y1="11.1835" x2="-33.4231" y2="89.3781" gradientUnits="userSpaceOnUse">
<stop stop-color="#FFF9B7"/>
<stop offset="0.253" stop-color="#F3C459"/>
<stop offset="0.511" stop-color="#CC9924"/>
<stop offset="0.769" stop-color="#B56400"/>
<stop offset="1" stop-color="#873F00"/>
</linearGradient>
<linearGradient id="paint4_linear_246_120" x1="-12.8652" y1="-6.64529" x2="-10.4696" y2="72.153" gradientUnits="userSpaceOnUse">
<stop stop-color="#FFF9B7"/>
<stop offset="0.253" stop-color="#F3C459"/>
<stop offset="0.511" stop-color="#CC9924"/>
<stop offset="0.769" stop-color="#B56400"/>
<stop offset="1" stop-color="#873F00"/>
</linearGradient>
<linearGradient id="paint5_linear_246_120" x1="23.3477" y1="-17.2343" x2="25.7433" y2="61.564" gradientUnits="userSpaceOnUse">
<stop stop-color="#FFF9B7"/>
<stop offset="0.253" stop-color="#F3C459"/>
<stop offset="0.511" stop-color="#CC9924"/>
<stop offset="0.769" stop-color="#B56400"/>
<stop offset="1" stop-color="#873F00"/>
</linearGradient>
<linearGradient id="paint6_linear_246_120" x1="-21.335" y1="-45.6251" x2="-8.45732" y2="260.931" gradientUnits="userSpaceOnUse">
<stop stop-color="#FFF9B7"/>
<stop offset="0.253" stop-color="#F3C459"/>
<stop offset="0.511" stop-color="#CC9924"/>
<stop offset="0.769" stop-color="#B56400"/>
<stop offset="1" stop-color="#873F00"/>
</linearGradient>
<linearGradient id="paint7_linear_246_120" x1="82.8124" y1="11.0477" x2="85.208" y2="89.846" gradientUnits="userSpaceOnUse">
<stop stop-color="#FFF9B7"/>
<stop offset="0.253" stop-color="#F3C459"/>
<stop offset="0.511" stop-color="#CC9924"/>
<stop offset="0.769" stop-color="#B56400"/>
<stop offset="1" stop-color="#873F00"/>
</linearGradient>
<linearGradient id="paint8_linear_246_120" x1="59.5997" y1="-6.64529" x2="61.9953" y2="72.153" gradientUnits="userSpaceOnUse">
<stop stop-color="#FFF9B7"/>
<stop offset="0.253" stop-color="#F3C459"/>
<stop offset="0.511" stop-color="#CC9924"/>
<stop offset="0.769" stop-color="#B56400"/>
<stop offset="1" stop-color="#873F00"/>
</linearGradient>
<clipPath id="clip0_246_120">
<rect width="124.58" height="85.546" fill="white" transform="translate(0 0.5)"/>
</clipPath>
</defs>
</svg>
