<svg width="24" height="25" viewBox="0 0 24 25" fill="none" xmlns="http://www.w3.org/2000/svg">
<g clip-path="url(#clip0_246_130)">
<path d="M10.0123 22.5C9.86473 22.4176 9.72453 22.3226 9.59332 22.2161C9.51049 22.1209 9.44843 22.0094 9.41107 21.8889C9.3737 21.7684 9.36182 21.6413 9.37628 21.516C9.37628 19.14 9.37028 16.7631 9.38128 14.3871C9.39006 13.8536 9.22743 13.3312 8.91729 12.897C6.85063 9.91963 4.78729 6.93864 2.72729 3.95397C2.59469 3.80457 2.51598 3.61514 2.50366 3.41576C2.49133 3.21639 2.54611 3.01859 2.6593 2.854C2.72881 2.75403 2.82009 2.67115 2.92627 2.61157C3.03244 2.55198 3.15073 2.51725 3.27227 2.51C3.33527 2.504 3.39928 2.51 3.46228 2.51H20.5483C20.7541 2.48295 20.9627 2.5334 21.1334 2.65148C21.3042 2.76957 21.4249 2.9469 21.4723 3.14904C21.5033 3.28841 21.5019 3.43305 21.4681 3.57177C21.4343 3.71049 21.369 3.8395 21.2773 3.94897C20.3299 5.31697 19.3833 6.68602 18.4373 8.05602C17.3113 9.68502 16.1883 11.317 15.0553 12.941C14.7606 13.3555 14.6064 13.8535 14.6153 14.3621C14.6233 16.2831 14.6153 18.203 14.6153 20.124C14.6528 20.3377 14.6064 20.5576 14.4857 20.7378C14.3649 20.918 14.1792 21.0446 13.9673 21.0911L10.3793 22.485C10.3683 22.485 10.3603 22.501 10.3503 22.51L10.0123 22.5ZM3.65332 3.52404C3.70432 3.60204 3.73829 3.656 3.77429 3.708C5.75562 6.57467 7.7376 9.4384 9.72027 12.2991C10.1523 12.9038 10.3798 13.6308 10.3693 14.374C10.3563 16.632 10.3693 18.891 10.3693 21.149V21.3931C10.4593 21.3631 10.5193 21.347 10.5773 21.324C11.5353 20.949 12.4923 20.57 13.4533 20.203C13.5138 20.1886 13.5667 20.1519 13.6012 20.1001C13.6357 20.0483 13.6493 19.9855 13.6393 19.9241C13.6333 18.0691 13.6393 16.214 13.6333 14.359C13.6226 13.635 13.8422 12.9263 14.2603 12.3351C16.2543 9.46441 18.2437 6.59003 20.2283 3.71203C20.2673 3.65603 20.3023 3.59706 20.3493 3.52306L3.65332 3.52404Z" fill="#00524C"/>
</g>
<defs>
<clipPath id="clip0_246_130">
<rect width="24" height="24" fill="white" transform="translate(0 0.5)"/>
</clipPath>
</defs>
</svg>
