<svg width="23" height="23" viewBox="0 0 23 23" fill="none" xmlns="http://www.w3.org/2000/svg">
<g clip-path="url(#clip0_246_135)">
<path d="M21.2518 1.551C21.0348 1.4913 20.8097 1.46599 20.5848 1.476H1.1788C0.991324 1.47568 0.806381 1.5193 0.6388 1.60335C0.471219 1.6874 0.325663 1.80955 0.213801 1.96C0.109685 2.10203 0.0410236 2.26689 0.0135398 2.44084C-0.0139441 2.61479 0.000545651 2.79279 0.0558013 2.96C0.141975 3.17072 0.262998 3.36544 0.413801 3.536C3.10313 6.91933 5.7908 10.2993 8.4768 13.676C8.4768 15.85 8.4768 18.066 8.4768 20.263C8.46075 20.5304 8.52857 20.796 8.6708 21.023C8.75802 21.149 8.86924 21.2565 8.99809 21.3393C9.12694 21.4222 9.27089 21.4788 9.42167 21.506C9.57246 21.5331 9.72712 21.5302 9.87678 21.4974C10.0264 21.4647 10.1682 21.4027 10.2938 21.315C11.0618 20.784 11.8328 20.249 12.5868 19.723C12.8118 19.5791 13.0166 19.4059 13.1958 19.208C13.432 18.9108 13.5575 18.5406 13.5508 18.161C13.5508 16.661 13.5508 15.144 13.5508 13.651L21.6738 3.429C21.8511 3.23128 21.9632 2.98371 21.9948 2.72C22.0208 2.46979 21.9615 2.21812 21.8264 2.00589C21.6914 1.79367 21.4895 1.63335 21.2518 1.551ZM12.3468 13.008C12.2445 13.1601 12.1959 13.3421 12.2088 13.525C12.2088 15.063 12.2088 16.625 12.2088 18.162C12.2088 18.309 12.1658 18.375 11.9908 18.497L9.8218 20.002C9.8218 17.802 9.8218 15.6053 9.8218 13.412C9.82251 13.3176 9.80297 13.2241 9.7645 13.1378C9.72603 13.0516 9.66953 12.9746 9.5988 12.912C9.5718 12.883 9.5458 12.856 9.5228 12.826L4.5438 6.576H11.2948C11.4497 6.57888 11.6019 6.53535 11.7318 6.451C11.8538 6.3695 11.9445 6.24888 11.9888 6.109C12.0413 5.94821 12.0304 5.77343 11.9583 5.62044C11.8861 5.46744 11.7583 5.3478 11.6008 5.286C11.4667 5.24398 11.3262 5.22604 11.1858 5.233H3.4938L1.5638 2.82H20.4418L12.3468 13.008Z" fill="black"/>
<path d="M15.2633 5.882V5.933C15.2628 6.10248 15.1951 6.26486 15.0752 6.38461C14.9552 6.50436 14.7928 6.57174 14.6233 6.572H13.8773C13.7075 6.57147 13.5448 6.50357 13.425 6.3832C13.3052 6.26283 13.238 6.09983 13.2383 5.93V5.876C13.2385 5.70643 13.3061 5.5439 13.4261 5.4241C13.5461 5.30429 13.7087 5.237 13.8783 5.237H14.6243C14.7941 5.23753 14.9568 5.30543 15.0766 5.4258C15.1964 5.54617 15.2635 5.70917 15.2633 5.879V5.882Z" fill="black"/>
</g>
<defs>
<clipPath id="clip0_246_135">
<rect width="22.016" height="22" fill="white" transform="translate(0 0.5)"/>
</clipPath>
</defs>
</svg>
