<svg width="24" height="25" viewBox="0 0 24 25" fill="none" xmlns="http://www.w3.org/2000/svg">
<g clip-path="url(#clip0_246_139)">
<mask id="mask0_246_139" style="mask-type:luminance" maskUnits="userSpaceOnUse" x="0" y="0" width="24" height="25">
<path d="M24 0.5H0V24.5H24V0.5Z" fill="white"/>
</mask>
<g mask="url(#mask0_246_139)">
<path d="M18.545 0.499993H5.454C4.00759 0.500258 2.6205 1.07496 1.59773 2.09773C0.574966 3.12049 0.000265129 4.50758 0 5.95399V19.045C0 19.7614 0.141098 20.4707 0.415237 21.1325C0.689377 21.7944 1.09119 22.3957 1.59773 22.9023C2.62074 23.9253 4.00824 24.5 5.455 24.5H18.545C19.2614 24.5 19.9707 24.3589 20.6325 24.0848C21.2944 23.8106 21.8957 23.4088 22.4023 22.9023C22.9088 22.3957 23.3106 21.7944 23.5848 21.1325C23.8589 20.4707 24 19.7614 24 19.045V5.95399C24 4.50724 23.4253 3.11974 22.4023 2.09673C21.3793 1.07371 19.9918 0.499993 18.545 0.499993ZM5.454 2.68199H18.545C19.4131 2.68199 20.2456 3.02683 20.8594 3.64063C21.4732 4.25444 21.818 5.08694 21.818 5.95499V14.06L20.171 12.409C19.7622 12.0028 19.2093 11.7748 18.633 11.7748C18.0567 11.7748 17.5038 12.0028 17.095 12.409L14.269 15.238L9.262 10.231C8.8532 9.82478 8.3003 9.59679 7.724 9.59679C7.1477 9.59679 6.5948 9.82478 6.186 10.231L2.186 14.231V5.95399C2.18626 5.08698 2.53053 4.25549 3.14322 3.64204C3.75592 3.0286 4.58699 2.68332 5.454 2.68199ZM18.545 22.318H5.454C4.58595 22.318 3.75345 21.9732 3.13964 21.3594C2.52583 20.7455 2.181 19.913 2.181 19.045V17.309L7.724 11.769L12.731 16.776C13.1398 17.1822 13.6927 17.4102 14.269 17.4102C14.8453 17.4102 15.3982 17.1822 15.807 16.776L18.632 13.951L21.817 17.136V19.045C21.817 19.9129 21.4723 20.7452 20.8587 21.359C20.2451 21.9728 19.4129 22.3177 18.545 22.318Z" fill="white"/>
<path d="M17.4544 9.22599C18.3579 9.22599 19.0904 8.49353 19.0904 7.58999C19.0904 6.68646 18.3579 5.95399 17.4544 5.95399C16.5508 5.95399 15.8184 6.68646 15.8184 7.58999C15.8184 8.49353 16.5508 9.22599 17.4544 9.22599Z" fill="white"/>
</g>
</g>
<defs>
<clipPath id="clip0_246_139">
<rect width="24" height="24" fill="white" transform="translate(0 0.5)"/>
</clipPath>
</defs>
</svg>
