<svg width="22" height="23" viewBox="0 0 22 23" fill="none" xmlns="http://www.w3.org/2000/svg">
<g clip-path="url(#clip0_246_148)">
<path d="M19.8199 11.7C19.8193 11.0865 19.7681 10.4741 19.6669 9.86899H11.1719V13.335H16.0319C15.9318 13.8886 15.7208 14.4162 15.4114 14.886C15.1021 15.3559 14.7008 15.7583 14.2319 16.069V18.32H17.1319C18.0186 17.4663 18.7158 16.4357 19.1784 15.295C19.6409 14.1544 19.8585 12.9292 19.8169 11.699L19.8199 11.7Z" fill="#4285F4"/>
<path d="M11.1719 20.499C13.3643 20.5617 15.4977 19.7843 17.1359 18.326L14.2359 16.076C13.5376 16.5237 12.7466 16.8064 11.9227 16.9027C11.0988 16.9989 10.2639 16.9061 9.48123 16.6314C8.69859 16.3567 7.98885 15.9072 7.4059 15.3171C6.82295 14.7271 6.38213 14.0119 6.11691 13.226H3.12891V15.546C3.87983 17.035 5.0293 18.2865 6.44933 19.161C7.86935 20.0355 9.50422 20.4986 11.1719 20.499Z" fill="#34A853"/>
<path d="M6.11839 13.218C5.74103 12.1024 5.74103 10.8936 6.11839 9.77802V7.45499H3.1304C2.50137 8.70953 2.17383 10.0936 2.17383 11.497C2.17383 12.9004 2.50137 14.2845 3.1304 15.539L6.11839 13.218Z" fill="#FBBC04"/>
<path d="M11.1729 6.06C12.457 6.0399 13.6976 6.5255 14.6268 7.41201L17.1958 4.84301C15.5658 3.31389 13.4077 2.47404 11.1729 2.49901C9.50457 2.49888 7.86908 2.96243 6.44899 3.83794C5.0289 4.71345 3.8801 5.96643 3.13086 7.457L6.11786 9.77901C6.46554 8.70836 7.14011 7.77365 8.04669 7.10636C8.95328 6.43907 10.0463 6.07277 11.1719 6.05901L11.1729 6.06Z" fill="#EA4335"/>
</g>
<defs>
<clipPath id="clip0_246_148">
<rect width="22" height="22" fill="white" transform="translate(0 0.5)"/>
</clipPath>
</defs>
</svg>
