<svg width="24" height="25" viewBox="0 0 24 25" fill="none" xmlns="http://www.w3.org/2000/svg">
<g clip-path="url(#clip0_246_155)">
<path d="M6.27581 3.5057L4.64581 3.50286C3.74117 3.50128 3.00653 4.23336 3.00495 5.138L3.00211 6.76799C3.00053 7.67264 3.73261 8.40727 4.63725 8.40885L6.26724 8.4117C7.17189 8.41328 7.90652 7.6812 7.9081 6.77656L7.91095 5.14656C7.91253 4.24192 7.18045 3.50728 6.27581 3.5057Z" fill="black"/>
<path d="M12.8188 3.5057L11.1888 3.50286C10.2841 3.50128 9.5495 4.23336 9.54792 5.138L9.54508 6.76799C9.5435 7.67264 10.2756 8.40727 11.1802 8.40885L12.8102 8.4117C13.7149 8.41328 14.4495 7.6812 14.4511 6.77656L14.4539 5.14656C14.4555 4.24192 13.7234 3.50728 12.8188 3.5057Z" fill="black"/>
<path d="M19.3598 3.5057L17.7298 3.50286C16.8252 3.50128 16.0905 4.23336 16.0889 5.138L16.0861 6.76799C16.0845 7.67264 16.8166 8.40727 17.7212 8.40885L19.3512 8.4117C20.2559 8.41328 20.9905 7.6812 20.9921 6.77656L20.9949 5.14656C20.9965 4.24192 20.2644 3.50728 19.3598 3.5057Z" fill="black"/>
<path d="M6.27581 10.0477L4.64581 10.0449C3.74117 10.0433 3.00653 10.7754 3.00495 11.68L3.00211 13.31C3.00053 14.2146 3.73261 14.9493 4.63725 14.9509L6.26724 14.9537C7.17189 14.9553 7.90652 14.2232 7.9081 13.3186L7.91095 11.6886C7.91253 10.7839 7.18045 10.0493 6.27581 10.0477Z" fill="black"/>
<path d="M12.8188 10.0477L11.1888 10.0449C10.2841 10.0433 9.5495 10.7754 9.54792 11.68L9.54508 13.31C9.5435 14.2146 10.2756 14.9493 11.1802 14.9509L12.8102 14.9537C13.7149 14.9553 14.4495 14.2232 14.4511 13.3186L14.4539 11.6886C14.4555 10.7839 13.7234 10.0493 12.8188 10.0477Z" fill="black"/>
<path d="M17.7269 10.047H19.3569C19.5722 10.047 19.7854 10.0894 19.9842 10.1719C20.1831 10.2543 20.3638 10.3752 20.5159 10.5275C20.668 10.6798 20.7886 10.8606 20.8708 11.0595C20.953 11.2585 20.9952 11.4717 20.9949 11.687V13.317C20.9949 13.7514 20.8224 14.1681 20.5152 14.4752C20.208 14.7824 19.7914 14.955 19.3569 14.955H17.7269C17.5114 14.9554 17.2979 14.9133 17.0987 14.831C16.8995 14.7487 16.7185 14.6279 16.566 14.4756C16.4136 14.3232 16.2927 14.1423 16.2103 13.9431C16.1279 13.744 16.0857 13.5305 16.0859 13.315V11.687C16.0857 11.4715 16.1279 11.258 16.2103 11.0589C16.2927 10.8597 16.4136 10.6788 16.566 10.5264C16.7185 10.374 16.8995 10.2533 17.0987 10.171C17.2979 10.0887 17.5114 10.0466 17.7269 10.047Z" fill="black"/>
<path d="M6.27581 16.5907L4.64581 16.5879C3.74117 16.5863 3.00653 17.3184 3.00495 18.223L3.00211 19.853C3.00053 20.7576 3.73261 21.4923 4.63725 21.4939L6.26724 21.4967C7.17189 21.4983 7.90652 20.7662 7.9081 19.8616L7.91095 18.2316C7.91253 17.3269 7.18045 16.5923 6.27581 16.5907Z" fill="black"/>
<path d="M12.8188 16.5907L11.1888 16.5879C10.2841 16.5863 9.5495 17.3184 9.54792 18.223L9.54508 19.853C9.5435 20.7576 10.2756 21.4923 11.1802 21.4939L12.8102 21.4967C13.7149 21.4983 14.4495 20.7662 14.4511 19.8616L14.4539 18.2316C14.4555 17.3269 13.7234 16.5923 12.8188 16.5907Z" fill="black"/>
<path d="M16.0859 19.857V18.228C16.0857 18.0124 16.1279 17.7989 16.2103 17.5997C16.2927 17.4005 16.4136 17.2195 16.566 17.0671C16.7184 16.9146 16.8994 16.7938 17.0986 16.7114C17.2979 16.629 17.5114 16.5867 17.7269 16.587H19.3559C19.7906 16.587 20.2075 16.7597 20.5149 17.0671C20.8223 17.3744 20.9949 17.7913 20.9949 18.226V19.857C20.9949 20.2917 20.8223 20.7086 20.5149 21.0159C20.2075 21.3233 19.7906 21.496 19.3559 21.496H17.7269C17.5115 21.4963 17.2982 21.4541 17.0991 21.3718C16.9 21.2896 16.7191 21.1689 16.5667 21.0167C16.4143 20.8644 16.2934 20.6837 16.2109 20.4847C16.1284 20.2857 16.0859 20.0724 16.0859 19.857Z" fill="black"/>
</g>
<defs>
<clipPath id="clip0_246_155">
<rect width="24" height="24" fill="white" transform="translate(0 0.5)"/>
</clipPath>
</defs>
</svg>
