<svg width="22" height="23" viewBox="0 0 22 23" fill="none" xmlns="http://www.w3.org/2000/svg">
<g clip-path="url(#clip0_246_167)">
<mask id="mask0_246_167" style="mask-type:luminance" maskUnits="userSpaceOnUse" x="0" y="0" width="22" height="23">
<path d="M22 0.5H0V22.5H22V0.5Z" fill="white"/>
</mask>
<g mask="url(#mask0_246_167)">
<path d="M6.05612 2.95898C6.65307 2.96442 7.24273 3.09064 7.78959 3.33005C8.33645 3.56945 8.82919 3.91708 9.23812 4.35198C9.52742 4.66877 9.88468 4.91595 10.2831 5.07498C10.5201 5.16242 10.7706 5.20744 11.0231 5.20798C11.3517 5.20048 11.6749 5.12312 11.9713 4.98105C12.2677 4.83897 12.5305 4.63544 12.7421 4.38398C13.3341 3.73163 14.1104 3.27474 14.9681 3.07398C15.2924 2.99639 15.6247 2.95712 15.9581 2.95698C16.6534 2.96034 17.3375 3.13189 17.9521 3.45698C18.6028 3.80422 19.1639 4.29786 19.5911 4.89898C20.2898 5.882 20.6524 7.06429 20.6251 8.26998C20.6165 9.6282 20.0996 10.9339 19.1761 11.93C18.3041 12.893 17.4191 13.874 16.5631 14.822C15.2391 16.288 13.8711 17.805 12.5211 19.291C12.3358 19.5172 12.1044 19.7013 11.8423 19.831C11.5802 19.9607 11.2934 20.0329 11.0011 20.043C10.7077 20.0314 10.4201 19.9578 10.1573 19.8269C9.89442 19.6961 9.66227 19.5111 9.47612 19.284C7.07612 16.641 4.91612 14.256 2.74212 11.829C1.82431 10.7682 1.33805 9.40151 1.37953 7.99936C1.42101 6.59722 1.98721 5.2617 2.96612 4.25698C3.78582 3.43525 4.89551 2.9684 6.05612 2.95698M6.05612 1.58398C4.5368 1.59278 3.08196 2.19914 2.00612 3.27198C0.772218 4.52393 0.0568339 6.19581 0.00324342 7.9528C-0.0503471 9.70979 0.561812 11.4222 1.71712 12.747C3.95312 15.2437 6.19979 17.731 8.45712 20.209C8.7719 20.5785 9.16133 20.8771 9.5998 21.0853C10.0383 21.2935 10.5158 21.4066 11.0011 21.417C11.4845 21.4076 11.9604 21.2958 12.3974 21.089C12.8344 20.8821 13.2225 20.5849 13.5361 20.217C15.7608 17.7677 17.9798 15.3133 20.1931 12.854C21.3458 11.6062 21.9906 9.97268 22.0011 8.27398C22.0283 6.77961 21.5755 5.31591 20.7091 4.09798C20.1754 3.3301 19.4656 2.70116 18.639 2.26379C17.8125 1.82642 16.8932 1.59332 15.9581 1.58398C15.5169 1.58406 15.0772 1.63608 14.6481 1.73898C13.5282 2.00405 12.5139 2.59987 11.7371 3.44898C11.6515 3.55899 11.5439 3.64988 11.4211 3.71584C11.2983 3.7818 11.1631 3.82136 11.0241 3.83198C10.9325 3.83131 10.8418 3.81438 10.7561 3.78198C10.5535 3.69249 10.3727 3.56011 10.2261 3.39398C9.68915 2.82652 9.04287 2.37361 8.32622 2.06254C7.60956 1.75148 6.83736 1.58869 6.05612 1.58398Z" fill="black"/>
</g>
</g>
<defs>
<clipPath id="clip0_246_167">
<rect width="22" height="22" fill="white" transform="translate(0 0.5)"/>
</clipPath>
</defs>
</svg>
