<svg width="20" height="21" viewBox="0 0 20 21" fill="none" xmlns="http://www.w3.org/2000/svg">
<g clip-path="url(#clip0_246_184)">
<mask id="mask0_246_184" style="mask-type:luminance" maskUnits="userSpaceOnUse" x="2" y="2" width="16" height="17">
<path d="M18 2.5H2V18.5H18V2.5Z" fill="white"/>
</mask>
<g mask="url(#mask0_246_184)">
<path d="M8.57797 13.493C8.45823 13.7472 8.39706 14.025 8.39897 14.306C8.39897 15.1627 8.39897 16.019 8.39897 16.875C8.40413 17.2349 8.28781 17.586 8.0688 17.8716C7.84978 18.1572 7.54087 18.3606 7.19197 18.449C7.02094 18.4866 6.84601 18.5034 6.67097 18.499H5.55497C5.30499 18.5043 5.05491 18.4953 4.80597 18.472C4.07894 18.3858 3.40764 18.0395 2.91597 17.497C2.31739 16.8594 1.99126 16.0134 2.00697 15.139C2.00163 13.3557 1.99897 11.5717 1.99897 9.787C1.99416 9.5373 2.0082 9.28759 2.04097 9.04C2.1388 8.41059 2.41189 7.82144 2.82897 7.34C2.9985 7.15509 3.18241 6.98389 3.37897 6.828C5.5723 5.01267 6.95763 3.86733 7.53497 3.392C8.16312 2.86936 8.94113 2.5599 9.75664 2.50832C10.5722 2.45673 11.383 2.66568 12.072 3.105C12.2804 3.24449 12.4807 3.39574 12.672 3.558L16.365 6.61C16.689 6.87667 16.8796 7.038 16.937 7.094C17.481 7.60526 17.8398 8.28272 17.957 9.02C17.9919 9.2674 18.0073 9.51718 18.003 9.767C18.003 11.489 18.003 13.2113 18.003 14.934C18.007 15.1837 17.9933 15.4333 17.962 15.681C17.8588 16.4475 17.4858 17.1521 16.9099 17.6683C16.3341 18.1846 15.5931 18.4788 14.82 18.498H13.076C12.9699 18.4932 12.8649 18.474 12.764 18.441C12.4942 18.3639 12.2495 18.2173 12.0544 18.0158C11.8592 17.8143 11.7204 17.565 11.652 17.293C11.6145 17.1226 11.5977 16.9484 11.602 16.774C11.602 15.9547 11.602 15.1357 11.602 14.317C11.6108 13.9979 11.5331 13.6824 11.3771 13.4039C11.2211 13.1253 10.9926 12.8942 10.716 12.735C10.5275 12.6355 10.3204 12.5761 10.1078 12.5607C9.89518 12.5452 9.68169 12.574 9.48078 12.6453C9.27988 12.7165 9.09592 12.8286 8.94053 12.9745C8.78514 13.1204 8.66169 13.297 8.57797 13.493Z" fill="black"/>
</g>
</g>
<defs>
<clipPath id="clip0_246_184">
<rect width="20" height="20" fill="white" transform="translate(0 0.5)"/>
</clipPath>
</defs>
</svg>
