<svg width="24" height="25" viewBox="0 0 24 25" fill="none" xmlns="http://www.w3.org/2000/svg">
<g clip-path="url(#clip0_246_175)">
<path d="M22.0007 7.68101V20.939C21.9879 20.9684 21.9775 20.9989 21.9697 21.03C21.9012 21.4496 21.6814 21.8295 21.3517 22.098C21.0849 22.303 20.7723 22.4403 20.4407 22.498H11.5117C11.5347 22.467 11.5557 22.434 11.5807 22.405C12.3841 21.4857 13.1881 20.5667 13.9927 19.648C14.1813 19.4453 14.3227 19.2033 14.4067 18.9395C14.4908 18.6757 14.5154 18.3965 14.4788 18.122L13.8787 13.252L13.0787 6.83799C13.0477 6.59099 13.0207 6.34304 12.9927 6.09404C13.0198 6.08812 13.0471 6.08378 13.0747 6.08104H20.2448C20.5092 6.07979 20.7702 6.14026 21.0072 6.25761C21.2442 6.37496 21.4505 6.54593 21.6097 6.757C21.8097 7.03066 21.9435 7.34694 22.0007 7.68101ZM17.0267 15.136C17.0027 15.158 16.9717 15.19 16.9367 15.219C16.5457 15.541 16.1518 15.859 15.7628 16.184C15.7023 16.2311 15.6518 16.2896 15.614 16.3562C15.5762 16.4229 15.5519 16.4962 15.5425 16.5722C15.5331 16.6483 15.5387 16.7253 15.5591 16.7992C15.5795 16.873 15.6142 16.9421 15.6613 17.0025C15.7083 17.063 15.7668 17.1135 15.8334 17.1513C15.9 17.1891 15.9734 17.2133 16.0494 17.2228C16.1254 17.2322 16.2026 17.2266 16.2764 17.2062C16.3503 17.1858 16.4193 17.1511 16.4797 17.104C16.5747 17.036 16.6648 16.961 16.7548 16.887L17.8597 15.979C18.3377 16.355 18.8037 16.728 19.2767 17.091C19.3365 17.1444 19.4068 17.1846 19.4831 17.2093C19.5594 17.2339 19.6399 17.2424 19.7197 17.2341C19.7994 17.2258 19.8765 17.201 19.9461 17.1612C20.0157 17.1214 20.0762 17.0675 20.1237 17.003C20.1722 16.9395 20.2072 16.8667 20.2264 16.7891C20.2457 16.7115 20.2488 16.6308 20.2356 16.5519C20.2224 16.4731 20.1931 16.3978 20.1496 16.3307C20.1061 16.2637 20.0493 16.2063 19.9827 16.162C19.7587 15.984 19.5277 15.816 19.3047 15.638C19.0817 15.46 18.8887 15.295 18.6757 15.119C19.2884 14.3896 19.7589 13.5518 20.0627 12.649C20.0767 12.605 20.1628 12.565 20.2238 12.561C20.303 12.5617 20.3815 12.5466 20.4549 12.5168C20.5283 12.4869 20.595 12.4428 20.6512 12.3871C20.7075 12.3313 20.7521 12.2649 20.7826 12.1918C20.8131 12.1187 20.8287 12.0403 20.8287 11.961C20.8259 11.8812 20.8069 11.8027 20.7728 11.7304C20.7388 11.6581 20.6905 11.5934 20.6307 11.5403C20.571 11.4872 20.5012 11.4468 20.4254 11.4215C20.3496 11.3962 20.2694 11.3865 20.1898 11.393H18.6508C18.5888 11.393 18.5257 11.387 18.4507 11.384V10.864C18.4578 10.7827 18.4479 10.7008 18.4215 10.6235C18.3952 10.5462 18.353 10.4753 18.2977 10.4153C18.2424 10.3552 18.1751 10.3073 18.1003 10.2748C18.0254 10.2422 17.9446 10.2256 17.8629 10.226C17.7813 10.2264 17.7006 10.2438 17.6261 10.2772C17.5516 10.3106 17.4849 10.3591 17.4302 10.4197C17.3755 10.4803 17.334 10.5517 17.3085 10.6292C17.2829 10.7067 17.2738 10.7888 17.2817 10.87V11.393H15.5377C15.4612 11.3917 15.3851 11.4055 15.3138 11.4336C15.2426 11.4617 15.1776 11.5035 15.1226 11.5567C15.0675 11.6099 15.0234 11.6735 14.9929 11.7437C14.9624 11.8139 14.946 11.8895 14.9447 11.966C14.9434 12.0426 14.9572 12.1186 14.9853 12.1899C15.0134 12.2611 15.0552 12.3261 15.1084 12.3812C15.1616 12.4363 15.2252 12.4803 15.2954 12.5108C15.3656 12.5413 15.4412 12.5577 15.5178 12.559L15.6517 12.565C15.8517 13.016 16.0198 13.465 16.2448 13.888C16.4698 14.311 16.7567 14.709 17.0267 15.136Z" fill="#00524C"/>
<path d="M20.4395 22.5C20.7709 22.4421 21.0835 22.3048 21.3505 22.1C21.6799 21.8313 21.8997 21.4515 21.9684 21.032C21.9762 21.0008 21.9865 20.9704 21.9994 20.941V22.501L20.4395 22.5Z" fill="#00524C"/>
<path d="M1.99999 10.731V4.35597C1.97648 4.00937 2.05973 3.66391 2.23852 3.36605C2.41731 3.06818 2.68305 2.83221 2.99999 2.68996C3.25311 2.57435 3.5277 2.5134 3.80596 2.511C5.78096 2.496 7.75601 2.49796 9.73101 2.50496C10.2019 2.49769 10.6567 2.67646 10.9967 3.0024C11.3367 3.32834 11.5344 3.77518 11.547 4.24599C11.786 6.22499 12.036 8.20199 12.281 10.181L12.959 15.691C13.065 16.548 13.159 17.406 13.281 18.261C13.2919 18.3868 13.2715 18.5134 13.2216 18.6295C13.1717 18.7455 13.0939 18.8474 12.995 18.926C12.9519 18.9523 12.9011 18.9632 12.851 18.957C9.82301 18.957 6.796 18.965 3.768 18.957C3.5295 18.9608 3.29272 18.9157 3.07238 18.8244C2.85204 18.733 2.65282 18.5974 2.48699 18.426C2.32117 18.2545 2.19227 18.0509 2.10833 17.8276C2.02439 17.6043 1.98715 17.3662 1.99895 17.128C1.99695 14.9947 1.99733 12.8623 1.99999 10.731ZM8.09997 11.36C8.10897 11.393 8.11601 11.411 8.11901 11.43C8.23601 12.015 8.351 12.601 8.471 13.185C8.48242 13.2637 8.50971 13.3392 8.55126 13.407C8.59281 13.4748 8.64771 13.5335 8.71264 13.5794C8.77757 13.6253 8.85117 13.6574 8.92895 13.674C9.00672 13.6905 9.08704 13.691 9.16503 13.6756C9.24302 13.6601 9.31707 13.6289 9.38262 13.5839C9.44817 13.5389 9.50385 13.481 9.54632 13.4138C9.58878 13.3466 9.61714 13.2714 9.62963 13.1928C9.64212 13.1143 9.63853 13.0341 9.61901 12.957C9.23768 11.049 8.85531 9.14099 8.47198 7.23299C8.46552 7.15138 8.44272 7.07189 8.4049 6.99929C8.36708 6.92668 8.31506 6.86245 8.25188 6.81038C8.18871 6.75831 8.11565 6.7195 8.03716 6.69625C7.95867 6.67299 7.87632 6.66576 7.79498 6.67501H6.76196C6.68054 6.66576 6.59814 6.67299 6.51958 6.69631C6.44103 6.71963 6.36799 6.75857 6.3048 6.81075C6.24162 6.86292 6.18955 6.92723 6.15179 6.99996C6.11402 7.07268 6.09128 7.15227 6.08495 7.23397C5.70095 9.14197 5.31865 11.05 4.93798 12.958C4.9171 13.0347 4.91208 13.115 4.92321 13.1937C4.93434 13.2725 4.9614 13.3482 5.00274 13.4162C5.04407 13.4842 5.09881 13.5431 5.16363 13.5892C5.22845 13.6353 5.30198 13.6678 5.37975 13.6846C5.45752 13.7014 5.53794 13.7021 5.61602 13.6868C5.6941 13.6716 5.76821 13.6405 5.83392 13.5957C5.89962 13.5508 5.95552 13.493 5.99816 13.4259C6.04081 13.3587 6.06931 13.2835 6.08196 13.205C6.11596 13.06 6.139 12.912 6.169 12.766L6.45196 11.36H8.09997Z" fill="#00524C"/>
<path d="M11.9138 20.169C11.2688 20.879 10.6518 21.562 10.0278 22.239C10.0022 22.2562 9.97271 22.2669 9.94202 22.27C9.91132 22.2732 9.88031 22.2686 9.85175 22.257C9.63151 22.1438 9.43935 21.983 9.28918 21.7861C9.13902 21.5893 9.03466 21.3613 8.98376 21.119C8.91676 20.811 8.89075 20.494 8.84375 20.169H11.9138Z" fill="#00524C"/>
<path d="M17.8647 14.227C17.4556 13.7301 17.1377 13.1647 16.9258 12.557H18.8418C18.6111 13.164 18.2809 13.7284 17.8647 14.227Z" fill="#00524C"/>
<path d="M6.70117 10.184L7.16321 7.86801H7.41919L7.8822 10.184H6.70117Z" fill="#00524C"/>
</g>
<defs>
<clipPath id="clip0_246_175">
<rect width="24" height="24" fill="white" transform="translate(0 0.5)"/>
</clipPath>
</defs>
</svg>
