<svg width="24" height="25" viewBox="0 0 24 25" fill="none" xmlns="http://www.w3.org/2000/svg">
<g clip-path="url(#clip0_246_195)">
<path d="M5.1555 6.741C5.57358 6.22096 6.09955 5.79785 6.69709 5.50089C7.29464 5.20393 7.94951 5.0402 8.6165 5.021C8.71516 5.021 8.81516 5.023 8.9165 5.027C9.42854 5.05694 9.93143 5.17607 10.4025 5.379C10.6461 5.48313 10.8802 5.60791 11.1025 5.752C11.1385 5.776 11.1742 5.80067 11.2095 5.826C11.3395 5.918 11.4625 6.021 11.5885 6.119C11.6345 6.155 11.6815 6.198 11.7315 6.239C11.791 6.29491 11.8635 6.33512 11.9425 6.356C11.965 6.35928 11.988 6.35928 12.0105 6.356C12.1328 6.32113 12.2447 6.25694 12.3365 6.169C12.4625 6.077 12.5865 5.976 12.7075 5.886L12.8075 5.812C12.8385 5.789 12.8925 5.754 12.9355 5.726C13.1181 5.60906 13.3093 5.5061 13.5075 5.418C14.0719 5.16722 14.6829 5.03809 15.3005 5.039H15.3725C15.9846 5.05035 16.5879 5.18646 17.1455 5.439C17.4637 5.58282 17.7654 5.76051 18.0455 5.969C18.5652 6.35774 18.9979 6.85099 19.3155 7.417C19.6311 8.00264 19.8461 8.63713 19.9515 9.294L19.9655 9.37L19.9775 9.442C19.9875 9.58067 19.9948 9.72 19.9995 9.86C20.0042 10 20.0042 10.1307 19.9995 10.252C19.9509 10.9247 19.7879 11.5842 19.5175 12.202C19.1856 12.8617 18.7463 13.4615 18.2175 13.977L18.1735 14.021C17.6155 14.609 17.0645 15.204 16.5095 15.796L15.8015 16.548C14.9735 17.4287 14.1448 18.309 13.3155 19.189C13.0626 19.4599 12.7649 19.6852 12.4355 19.855C12.198 19.9719 11.9279 20.0049 11.6692 19.9488C11.4104 19.8927 11.1783 19.7507 11.0105 19.546C9.92983 18.4033 8.85216 17.2577 7.7775 16.109C7.2835 15.583 6.7775 15.068 6.2885 14.539C5.80043 14.0331 5.34739 13.4945 4.9325 12.927C4.43809 12.2282 4.12849 11.4156 4.0325 10.565C4.00203 10.2978 3.99434 10.0285 4.0095 9.76C4.06338 8.76103 4.39784 7.7975 4.9745 6.98C5.03183 6.898 5.09216 6.81833 5.1555 6.741Z" fill="#00524C" stroke="#00524C" stroke-miterlimit="10" stroke-linecap="round" stroke-linejoin="bevel"/>
</g>
<defs>
<clipPath id="clip0_246_195">
<rect width="24" height="24" fill="white" transform="translate(0 0.5)"/>
</clipPath>
</defs>
</svg>
