<svg width="24" height="25" viewBox="0 0 24 25" fill="none" xmlns="http://www.w3.org/2000/svg">
<g clip-path="url(#clip0_246_198)">
<path d="M4.65476 3.5H6.28676C6.502 3.49999 6.71512 3.54257 6.91385 3.62527C7.11257 3.70797 7.29297 3.82917 7.44466 3.98188C7.59635 4.1346 7.71633 4.31581 7.7977 4.51508C7.87907 4.71436 7.92021 4.92776 7.91876 5.143V6.775C7.91876 6.99025 7.87619 7.20337 7.79348 7.40209C7.71078 7.60081 7.58958 7.78121 7.43687 7.9329C7.28416 8.08459 7.10295 8.20458 6.90367 8.28594C6.7044 8.36731 6.491 8.40845 6.27576 8.407H4.64376C4.42851 8.407 4.21539 8.36443 4.01667 8.28173C3.81794 8.19902 3.63754 8.07783 3.48585 7.92511C3.33416 7.7724 3.21418 7.59119 3.13281 7.39192C3.05145 7.19264 3.01031 6.97924 3.01176 6.764V5.132C3.01175 4.91675 3.05433 4.70363 3.13703 4.50491C3.21973 4.30618 3.34093 4.12578 3.49364 3.97409C3.64635 3.8224 3.82756 3.70242 4.02684 3.62106C4.22611 3.53969 4.43951 3.49855 4.65476 3.5Z" fill="black"/>
<path d="M20.9959 5.143V6.775C20.9959 6.98991 20.9535 7.2027 20.871 7.40116C20.7886 7.59962 20.6677 7.77984 20.5154 7.93148C20.3632 8.08312 20.1824 8.20318 19.9836 8.28479C19.7848 8.36639 19.5718 8.40792 19.3569 8.407H12.9139C12.8806 8.40917 12.8472 8.40917 12.8139 8.407H11.1819C10.9664 8.4074 10.753 8.36512 10.5539 8.28259C10.3548 8.20007 10.1741 8.07893 10.0221 7.92618C9.87006 7.77343 9.74981 7.59208 9.66825 7.39261C9.5867 7.19314 9.54546 6.97949 9.54691 6.764V5.132C9.54691 4.91675 9.58948 4.70363 9.67218 4.50491C9.75489 4.30618 9.87608 4.12578 10.0288 3.97409C10.1815 3.8224 10.3627 3.70242 10.562 3.62106C10.7613 3.53969 10.9747 3.49855 11.1899 3.5H12.0249H19.3609C19.5764 3.4996 19.7899 3.54188 19.9889 3.62441C20.188 3.70693 20.3688 3.82807 20.5208 3.98082C20.6728 4.13357 20.793 4.31491 20.8746 4.51439C20.9561 4.71386 20.9974 4.92751 20.9959 5.143Z" fill="black"/>
<path d="M20.9968 11.678V13.31C20.9968 13.5249 20.9544 13.7377 20.8719 13.9362C20.7894 14.1346 20.6686 14.3148 20.5163 14.4665C20.364 14.6181 20.1833 14.7382 19.9845 14.8198C19.7857 14.9014 19.5727 14.9429 19.3578 14.942H12.9148C12.8815 14.9442 12.8481 14.9442 12.8148 14.942H11.1828C10.9679 14.942 10.7551 14.8996 10.5566 14.8171C10.3582 14.7347 10.178 14.6138 10.0263 14.4615C9.87468 14.3092 9.75461 14.1285 9.67301 13.9297C9.59141 13.7309 9.54987 13.5179 9.5508 13.303V11.671C9.55027 11.4557 9.59235 11.2424 9.67463 11.0434C9.75691 10.8444 9.87776 10.6636 10.0302 10.5116C10.1826 10.3595 10.3637 10.2391 10.5629 10.1573C10.7621 10.0755 10.9755 10.0339 11.1908 10.035H12.0258H19.3618C19.5773 10.0346 19.7907 10.0769 19.9898 10.1594C20.1889 10.2419 20.3696 10.3631 20.5216 10.5158C20.6737 10.6686 20.7939 10.8499 20.8755 11.0494C20.957 11.2489 20.9982 11.4625 20.9968 11.678Z" fill="black"/>
<path d="M20.9968 18.236V19.868C20.9968 20.0829 20.9544 20.2957 20.8719 20.4942C20.7894 20.6926 20.6686 20.8728 20.5163 21.0245C20.364 21.1761 20.1833 21.2962 19.9845 21.3778C19.7857 21.4594 19.5727 21.5009 19.3578 21.5H12.9148C12.8815 21.5022 12.8481 21.5022 12.8148 21.5H11.1828C10.9679 21.5 10.7551 21.4576 10.5566 21.3751C10.3582 21.2927 10.178 21.1718 10.0263 21.0195C9.87468 20.8672 9.75461 20.6865 9.67301 20.4877C9.59141 20.2889 9.54987 20.0759 9.5508 19.861V18.229C9.55079 18.0141 9.59324 17.8013 9.67569 17.6028C9.75814 17.4044 9.87898 17.2242 10.0313 17.0725C10.1836 16.9209 10.3643 16.8008 10.5631 16.7192C10.7619 16.6376 10.9749 16.5961 11.1898 16.597H12.0248H19.3608C19.5759 16.5969 19.789 16.6392 19.9877 16.7216C20.1865 16.8039 20.367 16.9247 20.519 17.0769C20.671 17.2292 20.7914 17.41 20.8734 17.6089C20.9554 17.8077 20.9973 18.0209 20.9968 18.236Z" fill="black"/>
<path d="M4.65482 10.039H6.28282C6.49835 10.0393 6.71171 10.0821 6.91067 10.1649C7.10962 10.2478 7.29027 10.3691 7.44225 10.5219C7.59423 10.6748 7.71456 10.8561 7.79634 11.0555C7.87812 11.2549 7.91974 11.4685 7.91882 11.684V13.312C7.9183 13.5272 7.87538 13.7402 7.79251 13.9388C7.70965 14.1374 7.58846 14.3177 7.43588 14.4694C7.2833 14.6212 7.10232 14.7414 6.90327 14.8231C6.70422 14.9049 6.49101 14.9467 6.27582 14.946H4.64382C4.42838 14.9457 4.21511 14.903 4.01621 14.8202C3.81732 14.7374 3.63672 14.6161 3.48475 14.4634C3.33278 14.3107 3.21243 14.1295 3.13059 13.9302C3.04875 13.7309 3.00703 13.5174 3.00782 13.302V11.674C3.00835 11.4584 3.05139 11.2451 3.1345 11.0462C3.2176 10.8472 3.33912 10.6667 3.49212 10.5148C3.64511 10.3629 3.82656 10.2427 4.02607 10.1611C4.22559 10.0794 4.43925 10.0379 4.65482 10.039Z" fill="black"/>
<path d="M4.65474 16.574H6.28274C6.71699 16.5745 7.13326 16.7475 7.44005 17.0548C7.74683 17.3622 7.91901 17.7787 7.91874 18.213V19.841C7.9194 20.0569 7.87736 20.2709 7.79502 20.4705C7.71269 20.6702 7.59169 20.8515 7.43899 21.0042C7.28629 21.1569 7.10491 21.2779 6.90527 21.3603C6.70564 21.4426 6.49169 21.4847 6.27574 21.484H4.64774C4.43205 21.4837 4.21853 21.4409 4.01944 21.3579C3.82035 21.2749 3.63961 21.1534 3.4876 21.0004C3.3356 20.8473 3.21531 20.6658 3.13365 20.4661C3.05199 20.2665 3.01056 20.0527 3.01174 19.837V18.209C3.01214 17.9937 3.05496 17.7806 3.13777 17.5819C3.22057 17.3832 3.34174 17.2028 3.49433 17.0509C3.64692 16.8991 3.82795 16.7788 4.02707 16.697C4.22618 16.6151 4.43947 16.5733 4.65474 16.574Z" fill="black"/>
</g>
<defs>
<clipPath id="clip0_246_198">
<rect width="24" height="24" fill="white" transform="translate(0 0.5)"/>
</clipPath>
</defs>
</svg>
