<svg width="20" height="21" viewBox="0 0 20 21" fill="none" xmlns="http://www.w3.org/2000/svg">
<g clip-path="url(#clip0_246_212)">
<mask id="mask0_246_212" style="mask-type:luminance" maskUnits="userSpaceOnUse" x="0" y="0" width="20" height="21">
<path d="M20 0.5H0V20.5H20V0.5Z" fill="white"/>
</mask>
<g mask="url(#mask0_246_212)">
<path d="M9.99834 0.5C8.08387 0.502117 6.24841 1.26358 4.89466 2.61732C3.54092 3.97106 2.77946 5.80652 2.77734 7.721C2.77734 13.249 9.19734 19.991 9.47034 20.276C9.53864 20.347 9.62056 20.4035 9.7112 20.442C9.80184 20.4806 9.89934 20.5005 9.99784 20.5005C10.0964 20.5005 10.1938 20.4806 10.2845 20.442C10.3751 20.4035 10.457 20.347 10.5253 20.276C10.7983 19.992 17.2183 13.249 17.2183 7.721C17.2162 5.80669 16.4549 3.97139 15.1014 2.61767C13.7479 1.26396 11.9126 0.502382 9.99834 0.5ZM9.99834 11.047C9.34052 11.047 8.69747 10.8519 8.15052 10.4865C7.60356 10.121 7.17726 9.60155 6.92552 8.9938C6.67378 8.38606 6.60792 7.71731 6.73625 7.07213C6.86459 6.42695 7.18136 5.83431 7.64651 5.36916C8.11166 4.90401 8.70429 4.58724 9.34947 4.45891C9.99465 4.33057 10.6634 4.39644 11.2711 4.64818C11.8789 4.89991 12.3983 5.32622 12.7638 5.87317C13.1293 6.42013 13.3243 7.06318 13.3243 7.721C13.3233 8.60279 12.9725 9.44815 12.349 10.0717C11.7255 10.6952 10.8801 11.0459 9.99834 11.047Z" fill="black"/>
<path d="M4.71929 16.161H2.56729C2.37605 16.1589 2.19132 16.2303 2.05133 16.3606C1.91134 16.4909 1.82683 16.6701 1.81529 16.861C1.81055 16.9599 1.82595 17.0588 1.86055 17.1516C1.89514 17.2445 1.94822 17.3293 2.01657 17.401C2.08491 17.4727 2.1671 17.5298 2.25815 17.5688C2.3492 17.6079 2.44723 17.628 2.54629 17.628H5.05329C5.14228 17.6278 5.22952 17.6033 5.30557 17.5571C5.38163 17.5109 5.4436 17.4448 5.48479 17.3659C5.52598 17.287 5.54482 17.1984 5.53927 17.1096C5.53371 17.0207 5.50398 16.9351 5.45329 16.862C5.12129 16.382 5.04329 16.161 4.71929 16.161Z" fill="black"/>
<path d="M17.4319 16.161H15.2799C14.9569 16.161 14.8799 16.381 14.5459 16.861C14.4952 16.9341 14.4655 17.0197 14.4599 17.1086C14.4544 17.1974 14.4732 17.286 14.5144 17.3649C14.5556 17.4438 14.6176 17.5099 14.6936 17.5561C14.7697 17.6023 14.8569 17.6268 14.9459 17.627H17.4529C17.552 17.627 17.65 17.6068 17.7411 17.5678C17.8321 17.5288 17.9143 17.4717 17.9826 17.4C18.051 17.3283 18.1041 17.2435 18.1387 17.1507C18.1733 17.0578 18.1886 16.9589 18.1839 16.86C18.1721 16.6693 18.0875 16.4904 17.9475 16.3603C17.8076 16.2302 17.623 16.1588 17.4319 16.161Z" fill="black"/>
</g>
</g>
<defs>
<clipPath id="clip0_246_212">
<rect width="20" height="20" fill="white" transform="translate(0 0.5)"/>
</clipPath>
</defs>
</svg>
