<svg width="18" height="19" viewBox="0 0 18 19" fill="none" xmlns="http://www.w3.org/2000/svg">
<g clip-path="url(#clip0_246_207)">
<path d="M9.37793 17.5C9.25061 17.3938 9.13347 17.2759 9.02796 17.148C8.10496 15.802 7.17498 14.46 6.27698 13.096C5.51677 11.9774 4.8996 10.768 4.43994 9.49603C4.14817 8.69831 3.99928 7.85538 4 7.00598C4.01903 5.82639 4.40859 4.68265 5.11353 3.73669C5.81847 2.79072 6.80306 2.09045 7.92798 1.73498C8.64312 1.52246 9.39412 1.45803 10.135 1.54565C10.8759 1.63327 11.5911 1.8711 12.2369 2.24456C12.8828 2.61803 13.4456 3.11934 13.8911 3.71777C14.3366 4.3162 14.6555 4.99914 14.828 5.72497C15.1031 6.88084 15.0427 8.09122 14.6539 9.21398C14.2505 10.4517 13.6813 11.629 12.9619 12.714C12.1429 13.981 11.281 15.219 10.437 16.47C10.284 16.697 10.137 16.931 9.97498 17.149C9.86659 17.2743 9.74967 17.3919 9.625 17.501L9.37793 17.5ZM9.49597 16.19C9.52297 16.159 9.53698 16.144 9.54798 16.128C10.392 14.883 11.248 13.65 12.075 12.391C12.7884 11.3331 13.3564 10.1841 13.7639 8.97497C14.0918 8.06393 14.1662 7.08095 13.979 6.13098C13.8462 5.45102 13.5601 4.81028 13.1427 4.25732C12.7253 3.70436 12.1875 3.25374 11.5699 2.93963C10.9524 2.62552 10.2715 2.45617 9.57874 2.44445C8.88602 2.43274 8.19981 2.57895 7.57202 2.872C6.66779 3.31255 5.92751 4.02992 5.45886 4.91992C4.99022 5.80991 4.81754 6.82614 4.96594 7.82098C5.109 8.67664 5.3748 9.5072 5.75501 10.287C6.3851 11.5689 7.11917 12.797 7.94995 13.959C8.45895 14.7 8.97397 15.436 9.49597 16.19Z" fill="#4D5454" fill-opacity="0.5"/>
<path d="M9.51464 4.20002C10.1174 4.17727 10.713 4.33548 11.2251 4.65424C11.7371 4.973 12.1421 5.43772 12.3877 5.98859C12.6333 6.53946 12.7085 7.15125 12.6034 7.74518C12.4983 8.33911 12.2178 8.88802 11.7981 9.32117C11.3784 9.75433 10.8386 10.0519 10.2483 10.1756C9.65796 10.2993 9.04404 10.2436 8.48571 10.0154C7.92738 9.78722 7.45019 9.39714 7.11547 8.89539C6.78075 8.39364 6.6039 7.80316 6.60766 7.20002C6.59775 6.4174 6.89784 5.66267 7.4425 5.10059C7.98715 4.53851 8.7321 4.21475 9.51464 4.20002ZM9.5006 5.206C9.09914 5.18884 8.70176 5.29217 8.35949 5.50269C8.01722 5.71321 7.74571 6.02134 7.57995 6.38739C7.41419 6.75344 7.36175 7.16072 7.42932 7.55683C7.49688 7.95294 7.68137 8.31977 7.9591 8.61017C8.23683 8.90058 8.59508 9.10124 8.98779 9.18641C9.38049 9.27157 9.78976 9.23735 10.1628 9.08808C10.5359 8.93881 10.8557 8.68136 11.0813 8.34882C11.3069 8.01628 11.4278 7.62382 11.4286 7.22199C11.4385 6.69947 11.2414 6.19429 10.8802 5.81659C10.519 5.4389 10.023 5.21937 9.5006 5.206Z" fill="#4D5454" fill-opacity="0.5"/>
</g>
<defs>
<clipPath id="clip0_246_207">
<rect width="18" height="18" fill="white" transform="translate(0 0.5)"/>
</clipPath>
</defs>
</svg>
