<svg width="16" height="17" viewBox="0 0 16 17" fill="none" xmlns="http://www.w3.org/2000/svg">
<g clip-path="url(#clip0_246_223)">
<path d="M8.66672 2.5H7.33272V9.167H8.66672V2.5ZM11.8867 3.947L10.9397 4.894C11.4797 5.327 11.9152 5.87595 12.2142 6.50017C12.5131 7.12439 12.6678 7.80788 12.6667 8.5C12.6677 9.28788 12.4692 10.0632 12.0897 10.7537C11.7103 11.4441 11.1622 12.0273 10.4965 12.4488C9.83088 12.8703 9.06935 13.1164 8.28293 13.1642C7.4965 13.2121 6.71077 13.06 5.99896 12.7222C5.28716 12.3845 4.67245 11.872 4.21213 11.2326C3.7518 10.5932 3.46085 9.8476 3.36639 9.06541C3.27192 8.28321 3.37702 7.48983 3.67189 6.75921C3.96675 6.02859 4.44179 5.38451 5.05272 4.887L4.11272 3.947C3.34791 4.60027 2.7598 5.43549 2.40255 6.37573C2.04529 7.31598 1.9304 8.33101 2.06844 9.32731C2.20648 10.3236 2.59302 11.2692 3.19245 12.0769C3.79188 12.8846 4.58492 13.5284 5.49853 13.9491C6.41214 14.3699 7.41693 14.5539 8.42035 14.4843C9.42376 14.4148 10.3935 14.0938 11.2403 13.551C12.0871 13.0082 12.7837 12.2611 13.2659 11.3784C13.7482 10.4957 14.0005 9.50583 13.9997 8.5C14.0002 7.63303 13.8113 6.77641 13.4464 5.99C13.0814 5.20358 12.5491 4.50635 11.8867 3.947Z" fill="#FF6902"/>
</g>
<defs>
<clipPath id="clip0_246_223">
<rect width="16" height="16" fill="white" transform="translate(0 0.5)"/>
</clipPath>
</defs>
</svg>
