<svg width="23" height="21" viewBox="0 0 23 21" fill="none" xmlns="http://www.w3.org/2000/svg">
<g clip-path="url(#clip0_246_227)">
<path d="M4.4453 16.2129C3.6983 16.2129 2.97533 16.2129 2.25133 16.2129C1.70124 16.2224 1.16703 16.0284 0.751335 15.668C0.509306 15.465 0.316125 15.2101 0.186271 14.9221C0.0564175 14.6342 -0.00676449 14.3207 0.00133496 14.0049C0.00133496 11.8922 0.00133496 9.77956 0.00133496 7.66689C0.00133496 6.03023 0.00133496 4.39396 0.00133496 2.75796C-0.00937225 2.45172 0.0444263 2.14668 0.159233 1.86257C0.27404 1.57847 0.447258 1.32161 0.667717 1.10879C0.888176 0.895968 1.15092 0.731944 1.4389 0.627222C1.72687 0.5225 2.03362 0.479507 2.33929 0.501001H19.8823C20.188 0.478929 20.4948 0.521338 20.783 0.625635C21.0711 0.729932 21.334 0.893758 21.5547 1.10635C21.7754 1.31894 21.9489 1.57561 22.064 1.85964C22.179 2.14368 22.2329 2.44865 22.2223 2.75491C22.2223 6.48824 22.2223 10.2216 22.2223 13.955C22.2329 14.2613 22.179 14.5663 22.064 14.8504C21.949 15.1344 21.7755 15.3912 21.5548 15.6039C21.3341 15.8166 21.0712 15.9804 20.783 16.0849C20.4949 16.1893 20.188 16.2319 19.8823 16.21C16.997 16.21 14.112 16.212 11.2273 16.216C11.0864 16.2192 10.9498 16.2648 10.8353 16.3469C9.17999 17.6136 7.52861 18.8846 5.88128 20.1599C5.80928 20.2159 5.73732 20.273 5.66332 20.326C5.55317 20.4171 5.41889 20.4742 5.27685 20.4904C5.1348 20.5065 4.99114 20.481 4.86333 20.4169C4.73454 20.3605 4.62586 20.2665 4.55175 20.147C4.47764 20.0275 4.44157 19.8884 4.4483 19.7479C4.4483 18.6693 4.4483 17.5907 4.4483 16.512L4.4453 16.2129ZM5.92632 18.293C6.02632 18.219 6.08033 18.1779 6.13433 18.1359C7.45933 17.1149 8.78632 16.0959 10.1063 15.0669C10.3446 14.8733 10.6443 14.7712 10.9513 14.779C13.9286 14.787 16.906 14.787 19.8833 14.779C19.9968 14.7968 20.1128 14.7882 20.2224 14.7538C20.332 14.7194 20.4322 14.6602 20.5151 14.5807C20.5981 14.5013 20.6616 14.4037 20.7006 14.2957C20.7397 14.1877 20.7532 14.072 20.7403 13.9579C20.7403 10.2166 20.7403 6.47524 20.7403 2.73391C20.7519 2.62164 20.7378 2.50824 20.699 2.40225C20.6602 2.29626 20.5978 2.20054 20.5164 2.12234C20.435 2.04414 20.3368 1.9855 20.2294 1.95095C20.1219 1.9164 20.008 1.90688 19.8963 1.923H2.33233C2.21888 1.90601 2.10303 1.91534 1.99383 1.95046C1.88463 1.98559 1.78502 2.04545 1.70275 2.12539C1.62049 2.20533 1.55776 2.30325 1.51952 2.4114C1.48129 2.51955 1.46855 2.63504 1.48229 2.74893C1.48229 6.48226 1.48229 10.2157 1.48229 13.949C1.46783 14.063 1.48005 14.1787 1.51794 14.2873C1.55582 14.3958 1.61833 14.4941 1.70061 14.5744C1.7829 14.6546 1.88269 14.7146 1.99212 14.7498C2.10155 14.7849 2.21766 14.7943 2.33129 14.777C3.26429 14.777 4.19828 14.777 5.13128 14.777C5.23574 14.7673 5.34108 14.7803 5.44006 14.8151C5.53903 14.8499 5.6293 14.9056 5.7047 14.9785C5.78011 15.0515 5.83887 15.1398 5.87695 15.2376C5.91502 15.3353 5.9315 15.4402 5.92529 15.5449C5.92529 16.3699 5.92529 17.196 5.92529 18.022L5.92632 18.293Z" fill="white"/>
<path d="M11 7.659C9.08195 7.659 7.16399 7.659 5.24599 7.659C5.12081 7.66219 4.99679 7.63429 4.88508 7.57771C4.77338 7.52112 4.67751 7.4376 4.60603 7.33479C4.53455 7.23198 4.48968 7.11301 4.47554 6.98859C4.4614 6.86418 4.47839 6.73825 4.52498 6.62202C4.56838 6.48889 4.65022 6.37165 4.76021 6.28498C4.87019 6.19831 5.00337 6.14615 5.14296 6.13508C5.20957 6.13131 5.27636 6.13131 5.34297 6.13508H16.643C16.7409 6.13023 16.8391 6.13558 16.936 6.15107C17.1119 6.19378 17.2668 6.29779 17.3729 6.44441C17.479 6.59102 17.5294 6.77058 17.515 6.951C17.5077 7.13509 17.4319 7.30985 17.3024 7.44087C17.1729 7.57188 16.999 7.64966 16.815 7.659C16.315 7.67 15.815 7.659 15.315 7.659H11Z" fill="white"/>
<path d="M8.09591 8.97106H11.0329C11.1412 8.95656 11.2512 8.96515 11.3559 8.99645C11.4605 9.02775 11.5572 9.0809 11.6397 9.15245C11.7222 9.22401 11.7886 9.31234 11.8343 9.41149C11.8801 9.51064 11.9042 9.61845 11.9051 9.72765C11.906 9.83684 11.8837 9.94487 11.8397 10.0448C11.7956 10.1447 11.7308 10.2343 11.6496 10.3072C11.5683 10.3802 11.4724 10.4351 11.3684 10.4681C11.2643 10.5012 11.1544 10.5115 11.0459 10.4989H5.12392C5.01547 10.5117 4.90553 10.5013 4.80141 10.4684C4.69729 10.4354 4.6014 10.3808 4.52004 10.308C4.43868 10.2351 4.37375 10.1459 4.32955 10.046C4.28535 9.94615 4.26291 9.83807 4.26369 9.72887C4.26448 9.61967 4.28843 9.51168 4.33407 9.41246C4.3797 9.31325 4.44594 9.2251 4.52834 9.15343C4.61074 9.08176 4.70745 9.02837 4.81203 8.99694C4.91661 8.9655 5.02665 8.95669 5.13491 8.97106H8.09591Z" fill="white"/>
</g>
<defs>
<clipPath id="clip0_246_227">
<rect width="22.222" height="20" fill="white" transform="translate(0 0.5)"/>
</clipPath>
</defs>
</svg>
