<svg width="24" height="25" viewBox="0 0 24 25" fill="none" xmlns="http://www.w3.org/2000/svg">
<g clip-path="url(#clip0_246_252)">
<path d="M12.2708 1.128C12.5899 1.23597 12.8982 1.37358 13.1917 1.53901C13.4415 1.71083 13.6455 1.941 13.7861 2.20954C13.9268 2.47808 13.9998 2.77689 13.9988 3.08002C14.0118 3.41402 13.9988 3.74997 13.9988 4.08497C14.3138 4.21497 14.6288 4.32102 14.9218 4.47102C16.1043 5.01935 17.1055 5.89432 17.8073 6.99281C18.5091 8.09129 18.8822 9.36751 18.8828 10.671C18.9148 11.46 18.8827 12.252 18.9307 13.038C19.0569 14.9879 19.7414 16.8605 20.9027 18.432C21.1637 18.792 21.4597 19.132 21.7537 19.462C21.8633 19.5589 21.94 19.6875 21.9733 19.8299C22.0067 19.9723 21.9949 20.1216 21.9397 20.257C21.8793 20.3937 21.7767 20.5073 21.6469 20.5814C21.5172 20.6556 21.3672 20.6863 21.2188 20.669H2.78275C2.63433 20.6863 2.48429 20.6556 2.35456 20.5814C2.22483 20.5073 2.12221 20.3937 2.06174 20.257C2.00493 20.1219 1.99263 19.9722 2.02661 19.8296C2.0606 19.687 2.13909 19.559 2.25074 19.464C3.61889 18.0275 4.54024 16.2244 4.90274 14.274C5.01626 13.5542 5.08573 12.8282 5.11075 12.1C5.10309 11.2968 5.13644 10.4938 5.21073 9.69398C5.38153 8.43754 5.90165 7.2543 6.71189 6.27894C7.52212 5.30358 8.58993 4.57532 9.79374 4.17701C9.85574 4.15401 9.91975 4.13398 9.99375 4.10798V3.23902C9.96809 2.75105 10.1219 2.27054 10.4263 1.88825C10.7307 1.50597 11.1644 1.24836 11.6458 1.16401C11.6737 1.15507 11.7008 1.1437 11.7267 1.13001L12.2708 1.128ZM12.6707 3.82801C12.6707 3.57201 12.6837 3.32799 12.6707 3.08399C12.6579 2.92361 12.5872 2.77334 12.4719 2.66114C12.3566 2.54894 12.2044 2.48246 12.0437 2.47401C11.8828 2.46396 11.724 2.51404 11.5979 2.61457C11.4719 2.7151 11.3877 2.85891 11.3617 3.01801C11.3426 3.28761 11.3403 3.55813 11.3547 3.82801H12.6707Z" fill="#00524C"/>
<path d="M2.01016 10.0171C2.08071 7.58755 3.07657 5.27673 4.79416 3.55703C4.85325 3.49689 4.92361 3.44893 5.00122 3.41598C5.07883 3.38303 5.16217 3.3657 5.24649 3.36495C5.3308 3.36421 5.41443 3.38013 5.49261 3.41171C5.57079 3.44329 5.642 3.48994 5.70215 3.54904C5.76229 3.60813 5.81022 3.67845 5.84317 3.75607C5.87612 3.83368 5.89345 3.91705 5.89419 4.00137C5.89494 4.08568 5.87908 4.16934 5.8475 4.24752C5.81592 4.3257 5.76924 4.39685 5.71014 4.457C4.1646 6.01126 3.29555 8.11312 3.29214 10.305C3.29826 10.4344 3.26427 10.5626 3.19482 10.672C3.12538 10.7813 3.02386 10.8665 2.90414 10.916C2.79908 10.9727 2.67841 10.9936 2.56039 10.9755C2.44238 10.9575 2.33346 10.9015 2.25015 10.816C2.14265 10.6802 2.0628 10.5245 2.01513 10.358C1.99678 10.2452 1.99512 10.1304 2.01016 10.0171Z" fill="#00524C"/>
<path d="M21.9908 10.09C21.9999 10.2035 21.9999 10.3174 21.9908 10.4309C21.9655 10.5896 21.8813 10.7329 21.7551 10.8323C21.6288 10.9317 21.4698 10.9798 21.3096 10.9672C21.1495 10.9546 20.9999 10.8821 20.8908 10.7642C20.7817 10.6463 20.721 10.4916 20.7208 10.331C20.7171 9.56096 20.6108 8.79494 20.4048 8.053C20.0296 6.71652 19.322 5.49686 18.3478 4.50796C18.2696 4.44032 18.2065 4.35709 18.1624 4.26357C18.1183 4.17006 18.0942 4.06835 18.0918 3.96499C18.0911 3.83912 18.1291 3.71602 18.2006 3.61245C18.2722 3.50889 18.3738 3.42982 18.4918 3.38595C18.6096 3.33299 18.7414 3.31951 18.8675 3.34744C18.9936 3.37536 19.1073 3.44324 19.1918 3.54098C19.605 3.99247 19.9932 4.46618 20.3548 4.95999C21.3921 6.4722 21.9611 8.25643 21.9908 10.09Z" fill="#00524C"/>
<path d="M9.10547 21.957H14.9055C14.6626 22.525 14.2583 23.0091 13.7428 23.3493C13.2273 23.6896 12.6232 23.871 12.0055 23.871C11.3878 23.871 10.7837 23.6896 10.2682 23.3493C9.75262 23.0091 9.34832 22.525 9.10547 21.957Z" fill="#00524C"/>
</g>
<defs>
<clipPath id="clip0_246_252">
<rect width="24" height="24" fill="white" transform="translate(0 0.5)"/>
</clipPath>
</defs>
</svg>
