<svg width="40" height="41" viewBox="0 0 40 41" fill="none" xmlns="http://www.w3.org/2000/svg">
<path d="M12.5461 26.0232C12.7602 25.8068 12.8659 25.4752 12.8659 25.0307V24.9084C12.8659 24.4639 12.7601 24.1347 12.5461 23.923C12.3345 23.7089 12.0404 23.6055 11.6618 23.6055H10.4082V26.3455H11.6618C12.0404 26.3455 12.3344 26.2373 12.5461 26.0232Z" fill="black"/>
<path d="M18.0088 28.7774C18.2205 28.5658 18.3263 28.2365 18.3263 27.792V24.9084C18.3263 24.4639 18.2205 24.1347 18.0088 23.923C17.7948 23.7089 17.5008 23.6055 17.1221 23.6055H15.9297V29.0949H17.1221C17.5008 29.0949 17.7948 28.9915 18.0088 28.7774Z" fill="black"/>
<path d="M38.1045 13.3219L27.1468 1.66563C27.0104 1.51977 26.8198 1.4375 26.62 1.4375H11.6875C9.29672 1.4375 7.35289 3.38258 7.35289 5.77211V18.6443H3.12172C2.34086 18.6443 1.70703 19.2793 1.70703 20.0602V32.7159C1.70703 33.4945 2.34086 34.1295 3.12172 34.1295H7.35289V35.2278C7.35289 37.6174 9.2968 39.5624 11.6875 39.5624H33.9651C36.3559 39.5624 38.2997 37.6173 38.2997 35.2278V13.8158C38.2997 13.6323 38.2303 13.4559 38.1045 13.3219ZM36.8556 35.2279C36.8556 36.8225 35.5585 38.1184 33.9651 38.1184H11.6875C10.0941 38.1184 8.79695 36.8225 8.79695 35.2279V34.1295H31.0487C31.8284 34.1295 32.4622 33.4945 32.4622 32.716V20.0602C32.4622 19.2793 31.8284 18.6443 31.0487 18.6443H8.79695V5.77211C8.79695 4.1775 10.0941 2.88156 11.6875 2.88156H25.8862V11.4027C25.8862 13.129 27.2903 14.5331 29.0166 14.5331H36.8557L36.8556 35.2279ZM9.33437 29.6937V23.0002C9.33437 22.9038 9.37203 22.8238 9.44961 22.7555C9.52719 22.6897 9.62836 22.6544 9.74828 22.6544H11.7216C12.1331 22.6544 12.5071 22.7273 12.8434 22.8731C13.1821 23.0189 13.4479 23.2541 13.6431 23.5787C13.8384 23.908 13.9371 24.3407 13.9371 24.8816V24.9616C13.9371 25.5002 13.8359 25.9353 13.6337 26.2599C13.4314 26.5892 13.1586 26.8244 12.8128 26.9749C12.4695 27.1207 12.0861 27.196 11.6604 27.196H10.4068V29.6937C10.4068 29.816 10.3503 29.9054 10.2398 29.9619C10.127 30.0207 10.0047 30.0489 9.87063 30.0489C9.73422 30.0489 9.61187 30.0207 9.50141 29.9619C9.39078 29.9054 9.33437 29.816 9.33437 29.6937ZM14.8567 29.7055V23.0001C14.8567 22.9037 14.8991 22.8237 14.9884 22.7555C15.0755 22.6896 15.1907 22.6543 15.3318 22.6543H17.1216C17.5473 22.6543 17.933 22.7272 18.2812 22.8777C18.6269 23.0259 18.8998 23.2634 19.0997 23.5951C19.2996 23.9267 19.3984 24.3641 19.3984 24.9098V27.7934C19.3984 28.339 19.2996 28.7765 19.0997 29.1081C18.8998 29.4398 18.627 29.6796 18.2812 29.8255C17.933 29.976 17.5473 30.0489 17.1216 30.0489H15.3318C15.1907 30.0489 15.0755 30.0136 14.9884 29.9477C14.8991 29.8819 14.8567 29.7996 14.8567 29.7055ZM23.2931 25.9212C23.4084 25.9212 23.4954 25.9659 23.5519 26.053C23.6084 26.1423 23.6389 26.2411 23.6389 26.3564C23.6389 26.4528 23.6107 26.5445 23.5566 26.6363C23.5025 26.7256 23.4155 26.7727 23.2931 26.7727H21.7267V29.6937C21.7267 29.816 21.6702 29.9054 21.5598 29.9619C21.4469 30.0207 21.3246 30.0489 21.1905 30.0489C21.0541 30.0489 20.9318 30.0207 20.8213 29.9619C20.7108 29.9054 20.6544 29.816 20.6544 29.6937V23.0095C20.6544 22.8943 20.7038 22.8073 20.8049 22.7461C20.906 22.6849 21.0142 22.6544 21.1295 22.6544H24.6809C24.8008 22.6544 24.8878 22.7037 24.942 22.8073C24.996 22.906 25.0243 23.0119 25.0243 23.1201C25.0243 23.2495 24.9961 23.3623 24.9373 23.4588C24.8808 23.5552 24.7938 23.607 24.6809 23.607H21.7269V25.9212H23.2931Z" fill="black"/>
</svg>
