<svg width="55" height="61" viewBox="0 0 55 61" fill="none" xmlns="http://www.w3.org/2000/svg">
<g clip-path="url(#clip0_246_263)">
<g filter="url(#filter0_d_246_263)">
<path d="M49.7968 12.7912C51.0031 13.4817 52.0068 14.477 52.7074 15.6774C53.408 16.8779 53.7809 18.2413 53.7888 19.6312L53.8848 40.6572C53.8897 42.0653 53.5197 43.4493 52.8126 44.6671C52.1056 45.8848 51.0871 46.8924 49.8618 47.5862L31.5048 58.0162C30.292 58.7043 28.9208 59.0646 27.5264 59.0614C26.132 59.0583 24.7625 58.6918 23.5528 57.9982L4.97081 47.3302C3.76543 46.6392 2.76276 45.6436 2.0632 44.4432C1.36365 43.2428 0.991773 41.8796 0.984814 40.4902L0.884814 19.4682C0.879905 18.0601 1.24997 16.6761 1.957 15.4583C2.66402 14.2406 3.68251 13.2331 4.90781 12.5392L23.2658 2.10922C24.4784 1.42016 25.8496 1.05914 27.2443 1.06177C28.639 1.0644 30.0089 1.43059 31.2188 2.12422L49.7968 12.7912Z" fill="#00524C"/>
</g>
<path d="M27.6888 40.0622C27.502 40.0151 27.3321 39.9168 27.198 39.7785C27.064 39.6402 26.9711 39.4673 26.9298 39.2792C26.9125 39.1768 26.9051 39.073 26.9078 38.9692C26.9078 36.4119 26.9078 33.8545 26.9078 31.2972V31.0392H26.6698C24.1518 31.0392 21.6328 31.0292 19.1148 31.0462C18.8493 31.084 18.5792 31.0252 18.3534 30.8806C18.1277 30.736 17.9614 30.5151 17.8848 30.2582V29.8672C17.9317 29.6804 18.0298 29.5105 18.1682 29.3766C18.3065 29.2426 18.4796 29.15 18.6678 29.1092C18.7701 29.0917 18.8739 29.0844 18.9778 29.0872H26.9078V28.8492C26.9078 26.2659 26.9078 23.6822 26.9078 21.0982C26.8994 20.9675 26.9174 20.8364 26.9608 20.7129C27.0041 20.5893 27.0719 20.4757 27.1601 20.3788C27.2483 20.282 27.355 20.2039 27.474 20.1492C27.593 20.0945 27.7218 20.0643 27.8528 20.0604C27.9837 20.0565 28.114 20.0789 28.2361 20.1265C28.3581 20.174 28.4693 20.2457 28.5631 20.3371C28.6569 20.4285 28.7313 20.5379 28.7819 20.6587C28.8325 20.7795 28.8583 20.9092 28.8578 21.0402C28.8648 21.8082 28.8578 22.5762 28.8578 23.3402C28.8578 25.1689 28.8578 26.9975 28.8578 28.8262V29.0832H29.0958C31.6858 29.0832 34.2758 29.0832 36.8658 29.0832C37.0292 29.076 37.1918 29.1102 37.3384 29.1827C37.485 29.2552 37.611 29.3636 37.7045 29.4978C37.798 29.632 37.856 29.7877 37.8732 29.9504C37.8904 30.1131 37.8662 30.2775 37.8028 30.4283C37.7334 30.6131 37.6073 30.7711 37.4426 30.88C37.2779 30.9888 37.083 31.0428 36.8858 31.0342C36.1768 31.0402 35.4668 31.0342 34.7578 31.0342H28.8578V31.2712C28.8578 33.7892 28.8478 36.3082 28.8648 38.8272C28.9025 39.0925 28.8437 39.3625 28.6991 39.5881C28.5544 39.8137 28.3336 39.9798 28.0768 40.0562L27.6888 40.0622Z" fill="white"/>
</g>
<defs>
<filter id="filter0_d_246_263" x="-9.11523" y="-3.93824" width="73" height="77.9997" filterUnits="userSpaceOnUse" color-interpolation-filters="sRGB">
<feFlood flood-opacity="0" result="BackgroundImageFix"/>
<feColorMatrix in="SourceAlpha" type="matrix" values="0 0 0 0 0 0 0 0 0 0 0 0 0 0 0 0 0 0 127 0" result="hardAlpha"/>
<feOffset dy="5"/>
<feGaussianBlur stdDeviation="5"/>
<feColorMatrix type="matrix" values="0 0 0 0 0.0313726 0 0 0 0 0.486275 0 0 0 0 0.486275 0 0 0 0.102 0"/>
<feBlend mode="normal" in2="BackgroundImageFix" result="effect1_dropShadow_246_263"/>
<feBlend mode="normal" in="SourceGraphic" in2="effect1_dropShadow_246_263" result="shape"/>
</filter>
<clipPath id="clip0_246_263">
<rect width="55" height="60" fill="white" transform="translate(0 0.5)"/>
</clipPath>
</defs>
</svg>
