<svg width="24" height="25" viewBox="0 0 24 25" fill="none" xmlns="http://www.w3.org/2000/svg">
<g clip-path="url(#clip0_246_269)">
<path d="M11.7659 0.798004H12.2659C12.2769 0.808004 12.2858 0.823057 12.2988 0.827057L19.0189 3.23904C19.5189 3.41904 20.019 3.60905 20.508 3.81705C20.7478 3.88611 20.9645 4.01846 21.1355 4.20023C21.3065 4.38199 21.4255 4.60642 21.4799 4.85001C21.6339 5.91901 21.7649 6.99398 21.8599 8.06998C22.0253 9.86157 22.0404 11.6639 21.9049 13.458C21.8683 14.1571 21.7678 14.8513 21.6049 15.532C21.2321 16.7225 20.5827 17.8078 19.7099 18.699C17.7184 20.8501 15.3703 22.6407 12.7689 23.992C12.5403 24.1316 12.2771 24.2044 12.0092 24.2023C11.7413 24.2002 11.4794 24.1232 11.2529 23.98C10.5319 23.555 9.79787 23.1511 9.09487 22.6971C7.33763 21.5937 5.73949 20.2553 4.34487 18.719C3.50434 17.8296 2.8601 16.7734 2.45388 15.619C2.21061 14.7688 2.07618 13.8911 2.05385 13.007C1.89748 10.427 2.03876 7.83759 2.47487 5.28995C2.4923 4.96205 2.60396 4.64621 2.79641 4.38016C2.98885 4.1141 3.25399 3.90913 3.55996 3.78995C5.59862 3.03195 7.63757 2.27464 9.6769 1.51797C10.3729 1.27197 11.0729 1.04 11.7659 0.798004ZM10.9409 14.307C10.9409 14.627 10.9229 14.948 10.9479 15.266C10.9614 15.4619 11.0151 15.6529 11.1059 15.8271C11.224 16.0238 11.4021 16.1776 11.6139 16.2658C11.8258 16.354 12.0602 16.372 12.2831 16.3172C12.506 16.2624 12.7054 16.1376 12.8522 15.9612C12.999 15.7848 13.0855 15.566 13.0989 15.3369C13.1169 14.6899 13.1119 14.043 13.1039 13.396C13.0954 13.3191 13.1099 13.2414 13.1455 13.1728C13.1811 13.1041 13.2361 13.0475 13.3039 13.01C13.7726 12.7002 14.116 12.2338 14.2726 11.6941C14.4292 11.1545 14.389 10.5767 14.159 10.064C13.9289 9.55131 13.5241 9.13709 13.0169 8.89529C12.5096 8.6535 11.933 8.59992 11.3899 8.74405C10.9416 8.8628 10.5378 9.11045 10.2288 9.45633C9.91976 9.80221 9.71908 10.2311 9.65139 10.69C9.58369 11.1488 9.65207 11.6174 9.84804 12.0378C10.044 12.4581 10.359 12.8118 10.7539 13.055C10.8169 13.085 10.8689 13.1338 10.903 13.1947C10.937 13.2556 10.9513 13.3257 10.9439 13.3951C10.9299 13.6971 10.9399 14.002 10.9409 14.307Z" fill="#00524C"/>
</g>
<defs>
<clipPath id="clip0_246_269">
<rect width="24" height="24" fill="white" transform="translate(0 0.5)"/>
</clipPath>
</defs>
</svg>
