<svg width="24" height="25" viewBox="0 0 24 25" fill="none" xmlns="http://www.w3.org/2000/svg">
<g clip-path="url(#clip0_246_272)">
<path d="M12.508 22.496H4.78796C4.24496 22.496 4.00195 22.2569 4.00195 21.7259V18.6909C4.00184 17.4336 4.4579 16.219 5.28546 15.2724C6.11303 14.3259 7.25589 13.7117 8.50195 13.5439C8.77165 13.5067 9.04374 13.4894 9.31598 13.4919C11.44 13.4879 13.564 13.4879 15.688 13.4919C16.3814 13.4737 17.0714 13.5951 17.7169 13.849C18.3625 14.1028 18.9504 14.484 19.4456 14.9697C19.9408 15.4554 20.3333 16.0358 20.5996 16.6762C20.866 17.3167 21.0008 18.0043 20.996 18.698C21.002 19.716 20.996 20.7339 20.996 21.7529C21.0097 21.8545 20.9997 21.9579 20.9667 22.0549C20.9337 22.1519 20.8787 22.24 20.8059 22.3121C20.7331 22.3842 20.6445 22.4385 20.5472 22.4706C20.4498 22.5026 20.3464 22.5116 20.245 22.4969L12.508 22.496ZM19.677 21.202V18.3149C19.6685 18.1342 19.6397 17.9552 19.591 17.781C19.3834 16.9195 18.8898 16.1537 18.1909 15.6089C17.4921 15.064 16.6291 14.7722 15.743 14.781C13.633 14.7757 11.523 14.7757 9.41296 14.781C9.18179 14.7814 8.95081 14.794 8.72098 14.8189C7.87301 14.9211 7.08307 15.3024 6.47552 15.9027C5.86798 16.503 5.47729 17.2883 5.36496 18.135C5.28096 19.135 5.32896 20.155 5.31796 21.166C5.31796 21.177 5.33098 21.1879 5.34198 21.2049L19.677 21.202Z" fill="#D8D8D8"/>
<path d="M12.4964 2.49996C13.3824 2.52555 14.2412 2.81195 14.9653 3.32332C15.6893 3.83469 16.2464 4.54835 16.5668 5.37483C16.8872 6.20132 16.9566 7.10392 16.7664 7.96968C16.5762 8.83545 16.1348 9.62591 15.4976 10.242C14.8603 10.8581 14.0554 11.2725 13.1837 11.4333C12.312 11.5941 11.4122 11.4943 10.597 11.1462C9.78185 10.7981 9.0875 10.2172 8.60088 9.47627C8.11426 8.73538 7.85703 7.86743 7.86138 6.98104C7.88478 5.77315 8.38551 4.6236 9.25408 3.78389C10.1227 2.94418 11.2884 2.48255 12.4964 2.49996ZM12.4864 3.78694C11.855 3.80854 11.244 4.01558 10.7295 4.38216C10.2151 4.74874 9.81993 5.25866 9.59338 5.84835C9.36682 6.43803 9.31888 7.08145 9.45556 7.6982C9.59224 8.31495 9.90746 8.87772 10.3619 9.31648C10.8164 9.75525 11.3901 10.0506 12.0112 10.1655C12.6324 10.2804 13.2736 10.2099 13.855 9.96272C14.4363 9.71558 14.9321 9.30263 15.2803 8.77559C15.6286 8.24855 15.814 7.63069 15.8133 6.99898C15.7973 6.13211 15.438 5.30699 14.8143 4.70479C14.1905 4.10259 13.3533 3.77249 12.4864 3.78694Z" fill="#D8D8D8"/>
</g>
<defs>
<clipPath id="clip0_246_272">
<rect width="24" height="24" fill="white" transform="translate(0 0.5)"/>
</clipPath>
</defs>
</svg>
