<svg width="24" height="25" viewBox="0 0 24 25" fill="none" xmlns="http://www.w3.org/2000/svg">
<g clip-path="url(#clip0_246_276)">
<path d="M11.9829 15.705H3.80585C3.60585 15.705 3.51985 15.666 3.48785 15.449C3.22385 13.674 2.94585 11.896 2.67285 10.118L2.37285 8.174C2.33554 8.03705 2.34331 7.89174 2.395 7.75955C2.44668 7.62736 2.53955 7.51531 2.65985 7.44C2.78186 7.36792 2.92388 7.33717 3.06478 7.3523C3.20568 7.36744 3.33793 7.42765 3.44185 7.524L6.91285 10.124C7.01443 10.2256 7.13886 10.3014 7.27573 10.3451C7.4126 10.3888 7.55795 10.3991 7.69961 10.3751C7.84127 10.3511 7.97512 10.2935 8.08999 10.2072C8.20485 10.1209 8.29739 10.0084 8.35985 9.879L11.2749 5.502C11.3614 5.32888 11.5093 5.19424 11.6898 5.12434C11.8703 5.05445 12.0703 5.05432 12.2509 5.124C12.442 5.21257 12.606 5.35068 12.7259 5.524C13.7209 6.992 14.6989 8.471 15.6859 9.945C15.7494 10.0562 15.8366 10.152 15.9414 10.2256C16.0462 10.2992 16.1659 10.3488 16.2921 10.3709C16.4182 10.3929 16.5477 10.3869 16.6712 10.3532C16.7948 10.3195 16.9094 10.259 17.0069 10.176L17.1199 10.093C18.2532 9.24166 19.3892 8.391 20.5279 7.541C20.6365 7.45335 20.7632 7.39085 20.8989 7.358C20.9981 7.338 21.1007 7.34256 21.1978 7.37129C21.2948 7.40002 21.3834 7.45204 21.4558 7.52283C21.5281 7.59362 21.5821 7.68103 21.613 7.77744C21.6438 7.87385 21.6507 7.97634 21.6329 8.076C21.4069 9.576 21.1719 11.076 20.9409 12.576C20.7909 13.548 20.6349 14.519 20.4949 15.492C20.4699 15.668 20.4029 15.703 20.2409 15.703C17.4882 15.6983 14.7355 15.6983 11.9829 15.703" fill="white"/>
<path d="M3.53906 17.126H20.4501C20.4501 17.19 20.4621 17.248 20.4621 17.306V18.953C20.4752 19.0856 20.4587 19.2195 20.4137 19.345C20.3688 19.4705 20.2965 19.5844 20.2022 19.6786C20.1078 19.7727 19.9938 19.8448 19.8682 19.8895C19.7426 19.9341 19.6087 19.9504 19.4761 19.937H4.51006C4.379 19.9507 4.24652 19.9352 4.12217 19.8916C3.99782 19.8479 3.88467 19.7773 3.79087 19.6848C3.69707 19.5922 3.62494 19.48 3.57967 19.3562C3.5344 19.2325 3.51712 19.1002 3.52906 18.969V17.302C3.52906 17.25 3.53506 17.202 3.53906 17.126Z" fill="white"/>
</g>
<defs>
<clipPath id="clip0_246_276">
<rect width="24" height="24" fill="white" transform="translate(0 0.5)"/>
</clipPath>
</defs>
</svg>
