<svg width="24" height="25" viewBox="0 0 24 25" fill="none" xmlns="http://www.w3.org/2000/svg">
<g clip-path="url(#clip0_246_280)">
<path d="M22.0005 10.7161C21.8816 11.0349 21.6733 11.3127 21.4005 11.5161C20.0745 12.6511 18.7565 13.7971 17.4315 14.9341C17.3776 14.971 17.3372 15.0244 17.3164 15.0863C17.2957 15.1482 17.2957 15.2152 17.3165 15.2771C17.7295 17.0411 18.1345 18.81 18.5435 20.577C18.6099 20.7843 18.6086 21.0075 18.5395 21.214C18.4704 21.4205 18.3373 21.5995 18.1595 21.7251C17.9822 21.8609 17.7665 21.9369 17.5434 21.9423C17.3202 21.9476 17.101 21.8821 16.9175 21.755C15.3435 20.826 13.7685 19.9021 12.1995 18.9661C12.1409 18.9242 12.0703 18.9023 11.9983 18.9036C11.9263 18.9048 11.8566 18.9291 11.7995 18.973C10.2341 19.9017 8.66746 20.827 7.09946 21.749C6.87487 21.9032 6.60025 21.9669 6.33074 21.927C6.06123 21.8871 5.81677 21.7467 5.64646 21.5341C5.54406 21.4054 5.47342 21.2544 5.44024 21.0934C5.40705 20.9323 5.41227 20.7657 5.45546 20.6071C5.86346 18.8384 6.27314 17.0717 6.68447 15.307C6.70899 15.237 6.70993 15.1609 6.68718 15.0903C6.66444 15.0197 6.61923 14.9585 6.55846 14.916C5.17346 13.731 3.79546 12.533 2.41546 11.342C2.24781 11.2115 2.12386 11.0331 2.06005 10.8304C1.99624 10.6278 1.9956 10.4104 2.05822 10.2074C2.12083 10.0044 2.24373 9.82525 2.4106 9.69372C2.57748 9.5622 2.78042 9.48451 2.99247 9.47107L6.29247 9.17102C7.05747 9.10202 7.82146 9.03207 8.58646 8.97107C8.63689 8.97026 8.68576 8.95347 8.72602 8.92309C8.76628 8.89272 8.79585 8.85039 8.81046 8.80212C9.53146 7.12912 10.2605 5.4561 10.9815 3.7821C11.0507 3.58199 11.1771 3.40659 11.3451 3.27771C11.5131 3.14882 11.7152 3.07202 11.9265 3.057C12.1613 3.03795 12.3957 3.09765 12.5929 3.22656C12.7901 3.35547 12.9387 3.54631 13.0155 3.76904C13.6795 5.29904 14.3635 6.82202 14.9935 8.36902C15.0466 8.56328 15.1641 8.73383 15.3266 8.85278C15.4892 8.97173 15.6872 9.0321 15.8885 9.02404C17.5305 9.13504 19.1675 9.31304 20.8075 9.44104C21.0775 9.4321 21.3425 9.51507 21.5593 9.67639C21.776 9.8377 21.9315 10.0679 22.0005 10.3291V10.7161Z" fill="#00524C"/>
</g>
<defs>
<clipPath id="clip0_246_280">
<rect width="24" height="24" fill="white" transform="translate(0 0.5)"/>
</clipPath>
</defs>
</svg>
