<svg width="50" height="51" viewBox="0 0 50 51" fill="none" xmlns="http://www.w3.org/2000/svg">
<path d="M25.0033 19.2513C25.5559 19.2513 26.0858 19.4708 26.4765 19.8615C26.8672 20.2522 27.0867 20.7821 27.0867 21.3346V27.5846C27.0867 28.1372 26.8672 28.6671 26.4765 29.0578C26.0858 29.4485 25.5559 29.668 25.0033 29.668C24.4508 29.668 23.9209 29.4485 23.5302 29.0578C23.1395 28.6671 22.92 28.1372 22.92 27.5846V21.3346C22.92 20.7821 23.1395 20.2522 23.5302 19.8615C23.9209 19.4708 24.4508 19.2513 25.0033 19.2513ZM10.42 4.66797H39.5867C41.2442 4.66797 42.834 5.32645 44.0061 6.49855C45.1782 7.67065 45.8366 9.26036 45.8366 10.918V31.7513C45.8366 33.4089 45.1782 34.9986 44.0061 36.1707C42.834 37.3428 41.2442 38.0013 39.5867 38.0013H15.4408L7.73242 45.7305C7.53772 45.9235 7.30692 46.0763 7.05302 46.18C6.79922 46.2837 6.52742 46.3362 6.25322 46.3346C5.98002 46.3417 5.70882 46.2846 5.46162 46.168C5.08112 46.0117 4.75542 45.7463 4.52562 45.4052C4.29572 45.0641 4.17202 44.6626 4.16992 44.2513V10.918C4.16992 9.26036 4.82842 7.67065 6.00052 6.49855C7.17262 5.32645 8.76232 4.66797 10.42 4.66797ZM8.33662 39.2305L13.1075 34.4388C13.3022 34.2457 13.533 34.0929 13.7869 33.9893C14.0407 33.8856 14.3125 33.833 14.5867 33.8346H39.5867C40.1392 33.8346 40.6691 33.6151 41.0598 33.2244C41.4505 32.8337 41.67 32.3038 41.67 31.7513V10.918C41.67 10.3654 41.4505 9.83553 41.0598 9.44483C40.6691 9.05413 40.1392 8.83463 39.5867 8.83463H10.42C9.86742 8.83463 9.33752 9.05413 8.94682 9.44483C8.55612 9.83553 8.33662 10.3654 8.33662 10.918V39.2305ZM25.0033 13.0013C25.4154 13.0013 25.8182 13.1235 26.1608 13.3524C26.5034 13.5813 26.7704 13.9067 26.9281 14.2874C27.0858 14.668 27.127 15.0869 27.0466 15.4911C26.9663 15.8952 26.7678 16.2664 26.4765 16.5578C26.1851 16.8491 25.8139 17.0475 25.4098 17.1279C25.0057 17.2083 24.5868 17.1671 24.2061 17.0094C23.8254 16.8517 23.5 16.5847 23.2711 16.2421C23.0422 15.8995 22.92 15.4967 22.92 15.0846C22.92 14.5321 23.1395 14.0022 23.5302 13.6115C23.9209 13.2208 24.4508 13.0013 25.0033 13.0013Z" fill="black"/>
</svg>
