<svg width="24" height="25" viewBox="0 0 24 25" fill="none" xmlns="http://www.w3.org/2000/svg">
<g clip-path="url(#clip0_246_285)">
<path d="M21.2141 22.5C21.0539 22.4053 20.9017 22.2976 20.7591 22.178C19.1171 20.5713 17.4784 18.961 15.843 17.347C15.802 17.307 15.759 17.268 15.708 17.221C15.652 17.26 15.597 17.293 15.547 17.332C14.4801 18.1458 13.235 18.6943 11.9143 18.932C10.5936 19.1697 9.23536 19.0899 7.95163 18.6991C6.6679 18.3084 5.49553 17.6179 4.53128 16.6846C3.56704 15.7514 2.83859 14.6022 2.40607 13.332C2.20384 12.7339 2.07815 12.1126 2.03204 11.483C2.02448 11.4325 2.01312 11.3827 1.99805 11.334V10.241C2.04805 9.90798 2.08906 9.57298 2.15106 9.24098C2.36946 8.05385 2.85882 6.93309 3.58105 5.96596C4.26247 5.04177 5.12436 4.26548 6.11453 3.6841C7.10471 3.10271 8.20259 2.72835 9.34167 2.58363C10.4808 2.43891 11.6374 2.52687 12.7415 2.84218C13.8456 3.15748 14.8742 3.69356 15.765 4.41798C17.369 5.70143 18.4281 7.544 18.7299 9.57594C19.0317 11.6079 18.5538 13.6788 17.3921 15.373C17.1661 15.704 16.909 16.015 16.632 16.38C16.6916 16.4128 16.7479 16.4514 16.8001 16.495C18.4434 18.109 20.0854 19.724 21.726 21.34C22.014 21.623 22.0871 21.927 21.8911 22.19C21.7726 22.3123 21.638 22.4179 21.4911 22.504L21.2141 22.5ZM3.29306 10.536C3.27036 11.5625 3.46529 12.5822 3.86505 13.528C4.35525 14.6787 5.14649 15.676 6.15552 16.4151C7.16455 17.1542 8.3541 17.6077 9.59906 17.728C10.6628 17.8576 11.7421 17.7431 12.755 17.3931C13.7678 17.0431 14.6876 16.4669 15.4444 15.7082C16.2013 14.9495 16.7752 14.0284 17.1228 13.0147C17.4703 12.001 17.5822 10.9214 17.45 9.85798C17.331 8.74983 16.9334 7.68982 16.2941 6.77687C15.6548 5.86392 14.7947 5.12775 13.7941 4.63698C12.7065 4.02222 11.4721 3.71514 10.2232 3.74861C8.97435 3.78208 7.75814 4.15485 6.70505 4.82698C5.68975 5.4007 4.84123 6.22874 4.24283 7.22969C3.64443 8.23064 3.31676 9.37004 3.29205 10.536H3.29306Z" fill="#FF6902"/>
</g>
<defs>
<clipPath id="clip0_246_285">
<rect width="24" height="24" fill="white" transform="translate(0 0.5)"/>
</clipPath>
</defs>
</svg>
