<svg width="24" height="25" viewBox="0 0 24 25" fill="none" xmlns="http://www.w3.org/2000/svg">
<g clip-path="url(#clip0_246_289)">
<path d="M18.6239 1.94495C19.0595 2.04921 19.4874 2.18287 19.9049 2.34497C20.5783 2.66609 21.1381 3.18466 21.5097 3.83167C21.8812 4.47867 22.047 5.22352 21.9849 5.96704C21.919 6.72544 21.6217 7.44525 21.133 8.02893C20.6443 8.61261 19.9879 9.03186 19.2529 9.22998C18.602 9.4188 17.9115 9.42324 17.2582 9.2428C16.6049 9.06236 16.0146 8.70414 15.5529 8.20801C15.5059 8.15569 15.4622 8.10055 15.4219 8.04297L14.8799 8.36597C13.0612 9.4493 11.2419 10.5317 9.4219 11.613C9.2739 11.701 9.22189 11.771 9.28689 11.948C9.55396 12.6588 9.57054 13.4395 9.33389 14.161L15.2079 17.139C15.444 16.8912 15.6944 16.6574 15.9579 16.439C16.5172 15.9782 17.2032 15.6982 17.9251 15.6359C18.6471 15.5735 19.3709 15.7319 20.0009 16.09C20.6437 16.4011 21.1771 16.8999 21.5304 17.5205C21.8838 18.1411 22.0405 18.8544 21.9799 19.566C21.9175 20.4897 21.5155 21.3574 20.8513 22.0023C20.1871 22.6472 19.3078 23.0234 18.3827 23.0586C17.4576 23.0937 16.5523 22.7854 15.8411 22.1927C15.1299 21.6001 14.6632 20.7652 14.5309 19.849C14.4643 19.3714 14.5011 18.8851 14.6389 18.423C14.6709 18.315 14.6629 18.2519 14.5489 18.1949C12.6463 17.2349 10.7462 16.273 8.8489 15.309C8.82967 15.3019 8.80993 15.2962 8.78988 15.292C8.41532 15.8094 7.91415 16.2219 7.33438 16.49C6.75461 16.7581 6.11572 16.8727 5.47891 16.823C4.55319 16.7773 3.68196 16.3718 3.05093 15.693C2.37282 15.0051 1.99433 14.0768 1.99807 13.1108C2.00182 12.1449 2.38746 11.2196 3.07089 10.537C3.43328 10.1699 3.86723 9.88112 4.34579 9.6886C4.82436 9.49608 5.33734 9.40397 5.85299 9.41785C6.36864 9.43172 6.87595 9.55131 7.34347 9.76929C7.81099 9.98726 8.22876 10.2989 8.57089 10.6849L14.7589 6.99805C14.5757 6.5198 14.4894 6.00993 14.5049 5.49805C14.5512 4.63281 14.8968 3.81048 15.4826 3.172C16.0683 2.53351 16.8579 2.11857 17.7159 1.99805C17.7697 1.98748 17.8227 1.97378 17.8749 1.95703L18.6239 1.94495Z" fill="#00524C"/>
</g>
<defs>
<clipPath id="clip0_246_289">
<rect width="24" height="24" fill="white" transform="translate(0 0.5)"/>
</clipPath>
</defs>
</svg>
