<svg width="20" height="21" viewBox="0 0 20 21" fill="none" xmlns="http://www.w3.org/2000/svg">
<g clip-path="url(#clip0_246_293)">
<mask id="mask0_246_293" style="mask-type:luminance" maskUnits="userSpaceOnUse" x="0" y="0" width="20" height="21">
<path d="M20 0.5H0V20.5H20V0.5Z" fill="white"/>
</mask>
<g mask="url(#mask0_246_293)">
<path d="M4 13V12C4 11.8674 4.05268 11.7402 4.14645 11.6464C4.24021 11.5527 4.36739 11.5 4.5 11.5H5.5C5.63261 11.5 5.75979 11.5527 5.85355 11.6464C5.94732 11.7402 6 11.8674 6 12V13C6 13.1326 5.94732 13.2598 5.85355 13.3536C5.75979 13.4473 5.63261 13.5 5.5 13.5H4.5C4.36739 13.5 4.24021 13.4473 4.14645 13.3536C4.05268 13.2598 4 13.1326 4 13ZM0 16.5V6.5C0 5.43913 0.421427 4.42172 1.17157 3.67157C1.92172 2.92143 2.93913 2.5 4 2.5H5V1.5C5 1.23478 5.10536 0.98043 5.29289 0.792893C5.48043 0.605357 5.73478 0.5 6 0.5C6.26522 0.5 6.51957 0.605357 6.70711 0.792893C6.89464 0.98043 7 1.23478 7 1.5V2.5H13V1.5C13 1.23478 13.1054 0.98043 13.2929 0.792893C13.4804 0.605357 13.7348 0.5 14 0.5C14.2652 0.5 14.5196 0.605357 14.7071 0.792893C14.8946 0.98043 15 1.23478 15 1.5V2.5H16C17.0609 2.5 18.0783 2.92143 18.8284 3.67157C19.5786 4.42172 20 5.43913 20 6.5V16.5C20 17.5609 19.5786 18.5783 18.8284 19.3284C18.0783 20.0786 17.0609 20.5 16 20.5H4C2.93913 20.5 1.92172 20.0786 1.17157 19.3284C0.421427 18.5783 0 17.5609 0 16.5ZM2 16.5C2 17.0304 2.21071 17.5391 2.58579 17.9142C2.96086 18.2893 3.46957 18.5 4 18.5H16C16.5304 18.5 17.0391 18.2893 17.4142 17.9142C17.7893 17.5391 18 17.0304 18 16.5V9.5H2V16.5Z" fill="black"/>
</g>
</g>
<defs>
<clipPath id="clip0_246_293">
<rect width="20" height="20" fill="white" transform="translate(0 0.5)"/>
</clipPath>
</defs>
</svg>
