<svg width="22" height="23" viewBox="0 0 22 23" fill="none" xmlns="http://www.w3.org/2000/svg">
<g clip-path="url(#clip0_246_300)">
<path d="M8.25225 5.695C8.18519 5.75541 8.10617 5.80104 8.02033 5.82894C7.9345 5.85684 7.84375 5.86638 7.75399 5.85695C7.66422 5.84753 7.57744 5.81933 7.49928 5.77421C7.42111 5.72908 7.3533 5.66802 7.30025 5.595C6.71725 4.872 6.13425 4.15 5.56825 3.445C5.55501 3.42044 5.53343 3.40142 5.5074 3.39137C5.48137 3.38132 5.45261 3.38091 5.4263 3.3902C5.39999 3.39949 5.37786 3.41788 5.36392 3.44205C5.34998 3.46622 5.34513 3.49458 5.35025 3.522V14.669C5.3495 14.8324 5.29115 14.9902 5.18547 15.1148C5.07978 15.2394 4.93354 15.3227 4.77249 15.35C4.61144 15.3774 4.4459 15.347 4.30501 15.2644C4.16411 15.1817 4.05691 15.0519 4.00225 14.898C3.97088 14.7766 3.95807 14.6512 3.96425 14.526V3.487C3.96439 3.47252 3.96163 3.45816 3.95615 3.44475C3.95067 3.43134 3.94257 3.41917 3.93233 3.40892C3.92209 3.39868 3.90991 3.39059 3.8965 3.3851C3.8831 3.37962 3.86873 3.37687 3.85425 3.377H3.84125C3.81849 3.37726 3.79643 3.38491 3.77839 3.3988C3.76035 3.41269 3.74732 3.43206 3.74125 3.454L2.01825 5.6C1.93539 5.70476 1.8226 5.78183 1.69488 5.82094C1.56717 5.86006 1.43057 5.85939 1.30325 5.819C1.16905 5.78122 1.04944 5.70366 0.960188 5.59656C0.870933 5.48945 0.816218 5.35782 0.803251 5.219C0.794021 5.10524 0.810735 4.99088 0.852136 4.88452C0.893536 4.77816 0.958541 4.68258 1.04225 4.605L3.98525 0.928003C4.06386 0.815528 4.15777 0.714557 4.26425 0.628003C4.378 0.557456 4.50876 0.519082 4.64259 0.516968C4.77643 0.514855 4.90833 0.549082 5.02425 0.616003C5.1312 0.69093 5.22455 0.7836 5.30025 0.890003L8.36925 4.726C8.4289 4.79568 8.47344 4.87698 8.50006 4.96476C8.52667 5.05254 8.53479 5.14488 8.52389 5.23596C8.51298 5.32703 8.4833 5.41485 8.43672 5.49387C8.39013 5.57288 8.32666 5.64137 8.25225 5.695Z" fill="black"/>
<path d="M18.9257 13.187L14.1837 13.179C13.5789 13.1798 12.999 13.4201 12.571 13.8474C12.1429 14.2747 11.9016 14.8542 11.8997 15.459L11.8867 20.2C11.8865 20.8055 12.1263 21.3864 12.5537 21.8153C12.9811 22.2442 13.5612 22.4861 14.1667 22.488L18.9087 22.5C19.5135 22.4992 20.0934 22.2589 20.5215 21.8316C20.9495 21.4043 21.1909 20.8248 21.1927 20.22L21.2007 15.478C21.2018 14.8728 20.963 14.2919 20.5365 13.8625C20.1101 13.4331 19.5309 13.1902 18.9257 13.187ZM19.8167 20.21C19.8167 20.4487 19.7219 20.6776 19.5531 20.8464C19.3843 21.0152 19.1554 21.11 18.9167 21.11H14.1737C13.935 21.11 13.7061 21.0152 13.5373 20.8464C13.3685 20.6776 13.2737 20.4487 13.2737 20.21V15.466C13.2737 15.2273 13.3685 14.9984 13.5373 14.8296C13.7061 14.6608 13.935 14.566 14.1737 14.566H18.9177C19.1564 14.566 19.3853 14.6608 19.5541 14.8296C19.7229 14.9984 19.8177 15.2273 19.8177 15.466L19.8167 20.21Z" fill="black"/>
<path d="M18.9257 0.508L14.1827 0.5C13.5772 0.499733 12.9963 0.739606 12.5674 1.16702C12.1385 1.59443 11.8966 2.17449 11.8947 2.78L11.8867 7.522C11.8865 8.12751 12.1263 8.70842 12.5537 9.13733C12.9811 9.56624 13.5612 9.80815 14.1667 9.81L18.9087 9.818C19.5137 9.81774 20.094 9.57777 20.5224 9.15063C20.9509 8.72349 21.1926 8.14399 21.1947 7.539L21.2057 2.8C21.207 2.1938 20.9676 1.61186 20.5401 1.18209C20.1126 0.75231 19.5319 0.509854 18.9257 0.508ZM19.8167 7.531C19.8167 7.64919 19.7934 7.76622 19.7482 7.87542C19.703 7.98461 19.6367 8.08382 19.5531 8.1674C19.4695 8.25097 19.3703 8.31726 19.2611 8.36249C19.1519 8.40772 19.0349 8.431 18.9167 8.431H14.1737C14.0555 8.431 13.9385 8.40772 13.8293 8.36249C13.7201 8.31726 13.6209 8.25097 13.5373 8.1674C13.4538 8.08382 13.3875 7.98461 13.3422 7.87542C13.297 7.76622 13.2737 7.64919 13.2737 7.531V2.787C13.2737 2.54831 13.3685 2.31939 13.5373 2.1506C13.7061 1.98182 13.935 1.887 14.1737 1.887H18.9177C19.1564 1.887 19.3853 1.98182 19.5541 2.1506C19.7229 2.31939 19.8177 2.54831 19.8177 2.787V7.532L19.8167 7.531Z" fill="black"/>
<path d="M8.4945 18.024C8.4136 18.209 8.30316 18.3795 8.1675 18.529C7.21284 19.7177 6.26017 20.908 5.3095 22.1C5.22808 22.215 5.12883 22.3163 5.0155 22.4C4.85117 22.4902 4.65844 22.5139 4.47717 22.4661C4.29589 22.4182 4.13993 22.3026 4.0415 22.143C3.06884 20.923 2.0955 19.705 1.1215 18.489C0.992941 18.3476 0.891274 18.1839 0.821504 18.006C0.784247 17.8799 0.786195 17.7454 0.82709 17.6204C0.867986 17.4954 0.945898 17.3857 1.0505 17.306C1.17562 17.2063 1.33053 17.1514 1.4905 17.15C1.60505 17.1503 1.71761 17.1799 1.8175 17.236C1.93414 17.3102 2.03589 17.4055 2.1175 17.517C2.66817 18.2037 3.21317 18.8853 3.7525 19.562C3.76565 19.5858 3.78679 19.6041 3.81217 19.6138C3.83755 19.6235 3.86554 19.6239 3.89118 19.6149C3.91682 19.6059 3.93845 19.5881 3.95223 19.5647C3.96602 19.5413 3.97108 19.5138 3.9665 19.487C3.9665 18.9903 3.9665 18.4933 3.9665 17.996C3.95944 17.8486 3.97943 17.7012 4.0255 17.561C4.08182 17.4139 4.18961 17.2923 4.32884 17.2188C4.46807 17.1452 4.62928 17.1247 4.7825 17.161C4.94767 17.1906 5.09653 17.279 5.20151 17.4099C5.30649 17.5408 5.36049 17.7054 5.3535 17.873C5.3485 18.417 5.3535 18.966 5.3535 19.502C5.3522 19.5259 5.35872 19.5495 5.37206 19.5694C5.38541 19.5892 5.40486 19.6042 5.42747 19.612C5.45007 19.6198 5.47461 19.62 5.49735 19.6126C5.52009 19.6052 5.5398 19.5906 5.5535 19.571C6.12817 18.857 6.70484 18.1377 7.2835 17.413C7.3849 17.283 7.52969 17.1937 7.69144 17.1616C7.85319 17.1295 8.0211 17.1566 8.1645 17.238C8.3052 17.307 8.41604 17.4247 8.47638 17.5693C8.53672 17.7139 8.54245 17.8755 8.4925 18.024H8.4945Z" fill="black"/>
</g>
<defs>
<clipPath id="clip0_246_300">
<rect width="22" height="22" fill="white" transform="translate(0 0.5)"/>
</clipPath>
</defs>
</svg>
