<svg width="24" height="25" viewBox="0 0 24 25" fill="none" xmlns="http://www.w3.org/2000/svg">
<g clip-path="url(#clip0_246_306)">
<path d="M12.0012 22.5H4.28124C3.97752 22.5194 3.67313 22.474 3.3883 22.3668C3.10346 22.2596 2.84468 22.093 2.62914 21.8782C2.41361 21.6633 2.24626 21.405 2.13818 21.1205C2.03009 20.836 1.9837 20.5318 2.00219 20.228V10.518C1.98328 10.2143 2.02923 9.91003 2.13696 9.62543C2.24468 9.34083 2.41174 9.08239 2.62701 8.86731C2.84228 8.65223 3.10086 8.48546 3.38555 8.37799C3.67024 8.27052 3.97449 8.22485 4.27819 8.24402H19.7172C20.021 8.22427 20.3255 8.26943 20.6105 8.37653C20.8955 8.48362 21.1544 8.65017 21.37 8.86511C21.5856 9.08006 21.753 9.33846 21.861 9.62311C21.9689 9.90776 22.015 10.2121 21.9962 10.516V20.226C22.0151 20.5297 21.9692 20.834 21.8614 21.1186C21.7537 21.4032 21.5867 21.6616 21.3715 21.8767C21.1562 22.0918 20.8976 22.2586 20.6129 22.366C20.3282 22.4735 20.0239 22.5192 19.7202 22.5H12.0012ZM8.42919 15.349V18.134C8.41192 18.2705 8.43435 18.4089 8.49371 18.533C8.55306 18.657 8.64684 18.7614 8.76391 18.8335C8.88098 18.9056 9.01638 18.9426 9.15386 18.9398C9.29135 18.9371 9.42514 18.8948 9.53924 18.818C11.3806 17.9027 13.2212 16.986 15.0612 16.068C15.2077 16.0199 15.3353 15.9268 15.4258 15.8019C15.5162 15.677 15.5649 15.5267 15.5649 15.3725C15.5649 15.2183 15.5162 15.068 15.4258 14.9431C15.3353 14.8182 15.2077 14.7251 15.0612 14.677C13.2192 13.763 11.3786 12.8463 9.53924 11.927C9.42504 11.8506 9.29129 11.8086 9.15392 11.806C9.01656 11.8033 8.88129 11.8401 8.76421 11.912C8.64714 11.9839 8.5532 12.0879 8.49346 12.2116C8.43372 12.3353 8.41074 12.4736 8.42724 12.61L8.4262 15.349H8.42919Z" fill="#00524C"/>
<path d="M12.0102 5.37298H19.7021C19.7984 5.36879 19.8949 5.37414 19.9902 5.38897C20.1596 5.42468 20.3104 5.52051 20.4147 5.65875C20.519 5.79699 20.5697 5.96831 20.5576 6.14105C20.5454 6.31379 20.4711 6.47628 20.3484 6.59851C20.2257 6.72073 20.063 6.79442 19.8902 6.80597H4.26116C4.10463 6.82302 3.9467 6.79042 3.80975 6.7127C3.6728 6.63499 3.56379 6.51612 3.49816 6.37298C3.45208 6.26843 3.43175 6.15432 3.4389 6.04028C3.44605 5.92624 3.48045 5.81563 3.53924 5.71765C3.59803 5.61967 3.67947 5.5372 3.77673 5.47723C3.87398 5.41726 3.98426 5.38152 4.0982 5.37298C4.1722 5.36698 4.24716 5.37298 4.32116 5.37298H12.0102Z" fill="#00524C"/>
<path d="M12.0105 2.50203H18.3575C18.477 2.49319 18.5968 2.51451 18.7059 2.56404C18.815 2.61357 18.9099 2.6897 18.9819 2.78548C19.0538 2.88125 19.1006 2.99358 19.1178 3.11214C19.1351 3.23069 19.1223 3.35169 19.0806 3.464C19.0359 3.59562 18.9527 3.71077 18.8418 3.79457C18.7309 3.87837 18.5974 3.92693 18.4585 3.93397C18.3925 3.94097 18.3245 3.93397 18.2585 3.93397H5.74254C5.63882 3.9388 5.53489 3.93245 5.43254 3.91499C5.26366 3.87677 5.1143 3.77883 5.01195 3.63917C4.90959 3.49952 4.86113 3.32753 4.87553 3.15498C4.88907 2.97819 4.96854 2.81298 5.09819 2.69203C5.22785 2.57108 5.39824 2.50327 5.57555 2.50203C6.34755 2.49503 7.11953 2.50203 7.89153 2.50203H12.0105Z" fill="#00524C"/>
<path d="M9.85938 13.651L13.2593 15.351L9.85938 17.051V13.651Z" fill="#00524C"/>
</g>
<defs>
<clipPath id="clip0_246_306">
<rect width="24" height="24" fill="white" transform="translate(0 0.5)"/>
</clipPath>
</defs>
</svg>
