<svg width="24" height="25" viewBox="0 0 24 25" fill="none" xmlns="http://www.w3.org/2000/svg">
<g clip-path="url(#clip0_246_313)">
<path d="M2 13.2021V10.937C2.01 10.874 2.02302 10.811 2.02902 10.747C2.13702 9.58198 2.214 8.41299 2.358 7.25199C2.5155 6.21643 2.97911 5.2516 3.68924 4.4816C4.39937 3.7116 5.32357 3.17157 6.34302 2.93094C7.83459 2.65194 9.34855 2.51007 10.866 2.50699C12.5519 2.47151 14.2382 2.56073 15.911 2.77396C16.8405 2.8521 17.735 3.16457 18.511 3.68204C19.1028 4.07191 19.6083 4.57893 19.9965 5.17179C20.3847 5.76465 20.6473 6.43066 20.768 7.12894C21.0903 9.1943 21.2062 11.2867 21.114 13.375C21.101 13.723 21.081 14.075 21.063 14.434C20.0806 13.7104 18.8713 13.3631 17.6546 13.455C16.4379 13.5469 15.2945 14.0718 14.4319 14.9347C13.5692 15.7976 13.0446 16.9412 12.953 18.1579C12.8615 19.3746 13.2092 20.5837 13.933 21.566C13.438 21.588 12.96 21.6179 12.481 21.6289C10.5611 21.674 8.64062 21.5617 6.73901 21.293C5.71034 21.1236 4.75422 20.6553 3.98965 19.9466C3.22509 19.2378 2.68581 18.3199 2.439 17.307C2.253 16.346 2.18802 15.361 2.08002 14.385C2.03302 13.99 2.025 13.5971 2 13.2021ZM11.573 9.33805H16.318C16.5475 9.33716 16.7709 9.26374 16.9563 9.12833C17.1416 8.99292 17.2794 8.80242 17.35 8.58402C17.4203 8.36913 17.4236 8.13787 17.3595 7.92106C17.2954 7.70424 17.1669 7.51212 16.991 7.37003C16.7542 7.1935 16.4628 7.10597 16.168 7.12296H6.96802C6.87036 7.12339 6.7728 7.13009 6.67599 7.14298C6.53966 7.15873 6.40791 7.20176 6.28851 7.26944C6.16912 7.33713 6.06455 7.42813 5.98102 7.53702C5.84957 7.6995 5.76689 7.89585 5.74258 8.10343C5.71828 8.311 5.75331 8.5213 5.84366 8.70975C5.93401 8.89821 6.07596 9.0571 6.25302 9.16813C6.43008 9.27916 6.635 9.33769 6.84399 9.33695C8.42133 9.34028 9.99766 9.34071 11.573 9.33805ZM9.63699 11.755H6.82501C6.54176 11.7557 6.26993 11.8668 6.06732 12.0647C5.86471 12.2627 5.74731 12.5318 5.74002 12.815C5.73284 12.9718 5.75911 13.1284 5.81714 13.2743C5.87517 13.4202 5.96362 13.5521 6.07657 13.6612C6.18952 13.7702 6.32442 13.854 6.47226 13.9069C6.6201 13.9598 6.77751 13.9807 6.93402 13.9681C8.72402 13.9721 10.514 13.9721 12.304 13.9681C12.4341 13.9695 12.5639 13.954 12.69 13.922C12.9505 13.8557 13.1777 13.6963 13.3288 13.4739C13.4798 13.2515 13.5442 12.9816 13.5097 12.715C13.4752 12.4484 13.3443 12.2036 13.1417 12.0269C12.9391 11.8502 12.6788 11.7539 12.41 11.756C11.486 11.75 10.561 11.7539 9.633 11.7539L9.63699 11.755Z" fill="#FF6902"/>
<path d="M17.6147 22.5C17.3997 22.454 17.1807 22.417 16.9687 22.36C16.0113 22.1019 15.1841 21.4968 14.6484 20.6624C14.1127 19.8279 13.9067 18.8239 14.0705 17.8459C14.2344 16.868 14.7563 15.986 15.5348 15.3717C16.3133 14.7575 17.2925 14.455 18.2818 14.5231C19.271 14.5912 20.1995 15.025 20.8865 15.7401C21.5735 16.4552 21.9697 17.4004 21.998 18.3916C22.0263 19.3828 21.6847 20.3491 21.0397 21.1023C20.3947 21.8555 19.4925 22.3416 18.5087 22.4661C18.4711 22.4743 18.4343 22.4856 18.3987 22.5H17.6147ZM18.7527 19.5V18.542C18.7527 18.3447 18.6743 18.1555 18.5347 18.016C18.3952 17.8765 18.206 17.798 18.0087 17.798C17.8114 17.798 17.6222 17.8765 17.4826 18.016C17.3431 18.1555 17.2647 18.3447 17.2647 18.542C17.2607 19.1807 17.2607 19.8193 17.2647 20.458C17.261 20.5579 17.2775 20.6576 17.3133 20.751C17.349 20.8444 17.4032 20.9297 17.4726 21.0017C17.542 21.0737 17.6251 21.1309 17.7172 21.17C17.8092 21.2092 17.9082 21.2292 18.0082 21.2292C18.1082 21.2292 18.2072 21.2092 18.2992 21.17C18.3912 21.1309 18.4744 21.0737 18.5438 21.0017C18.6132 20.9297 18.6674 20.8444 18.7031 20.751C18.7389 20.6576 18.7553 20.5579 18.7517 20.458C18.7557 20.143 18.7527 19.823 18.7527 19.504V19.5ZM17.2527 16.5181C17.2527 17.1491 17.3797 17.282 17.9997 17.282C18.6197 17.282 18.7487 17.151 18.7507 16.54C18.7507 15.902 18.6217 15.773 17.9817 15.78C17.3717 15.791 17.2567 15.909 17.2547 16.522L17.2527 16.5181Z" fill="#FF6902"/>
</g>
<defs>
<clipPath id="clip0_246_313">
<rect width="24" height="24" fill="white" transform="translate(0 0.5)"/>
</clipPath>
</defs>
</svg>
