<svg width="24" height="25" viewBox="0 0 24 25" fill="none" xmlns="http://www.w3.org/2000/svg">
<g clip-path="url(#clip0_246_317)">
<path fill-rule="evenodd" clip-rule="evenodd" d="M5.03945 0.5H13.6795V2.9C13.6795 4.04574 14.1346 5.14454 14.9448 5.9547C15.7549 6.76486 16.8537 7.22 17.9995 7.22H19.6795V12.277C18.7165 11.7954 17.6551 11.5432 16.5784 11.5403C15.5018 11.5373 14.439 11.7837 13.4735 12.26H5.99945C5.93642 12.26 5.874 12.2724 5.81576 12.2965C5.75753 12.3207 5.70461 12.356 5.66004 12.4006C5.61547 12.4452 5.58011 12.4981 5.55599 12.5563C5.53187 12.6145 5.51945 12.677 5.51945 12.74C5.51945 12.803 5.53187 12.8655 5.55599 12.9237C5.58011 12.9819 5.61547 13.0348 5.66004 13.0794C5.70461 13.124 5.75753 13.1593 5.81576 13.1835C5.874 13.2076 5.93642 13.22 5.99945 13.22H12.0245C11.1894 13.9372 10.536 14.8419 10.1175 15.86H5.99945C5.87215 15.86 5.75006 15.9106 5.66004 16.0006C5.57002 16.0906 5.51945 16.2127 5.51945 16.34C5.51945 16.4673 5.57002 16.5894 5.66004 16.6794C5.75006 16.7694 5.87215 16.82 5.99945 16.82H9.79945C9.58687 17.6833 9.54004 18.5792 9.66145 19.46H5.99945C5.87215 19.46 5.75006 19.5106 5.66004 19.6006C5.57002 19.6906 5.51945 19.8127 5.51945 19.94C5.51945 20.0673 5.57002 20.1894 5.66004 20.2794C5.75006 20.3694 5.87215 20.42 5.99945 20.42H9.86745C10.3611 22.1342 11.4926 23.5942 13.0295 24.5H5.03945C4.08467 24.5 3.169 24.1207 2.49387 23.4456C1.81874 22.7705 1.43945 21.8548 1.43945 20.9V4.1C1.43945 3.14522 1.81874 2.22955 2.49387 1.55442C3.169 0.879285 4.08467 0.5 5.03945 0.5ZM7.35245 4.34C7.11087 4.34079 6.8718 4.38917 6.64892 4.48237C6.42604 4.57558 6.22371 4.71179 6.05348 4.88322C5.88326 5.05465 5.74848 5.25794 5.65685 5.48148C5.56522 5.70502 5.51853 5.94442 5.51945 6.186V8.494C5.51853 8.73559 5.56522 8.97499 5.65685 9.19852C5.74848 9.42206 5.88326 9.62535 6.05348 9.79678C6.22371 9.96821 6.42604 10.1044 6.64892 10.1976C6.8718 10.2908 7.11087 10.3392 7.35245 10.34H8.72745C8.96895 10.3391 9.20791 10.2906 9.43068 10.1973C9.65344 10.1041 9.85566 9.96784 10.0258 9.79642C10.1959 9.62501 10.3306 9.42176 10.4221 9.19829C10.5137 8.97482 10.5604 8.7355 10.5595 8.494V6.186C10.5604 5.94442 10.5137 5.70502 10.4221 5.48148C10.3304 5.25794 10.1956 5.05465 10.0254 4.88322C9.8552 4.71179 9.65287 4.57558 9.42998 4.48237C9.2071 4.38917 8.96804 4.34079 8.72645 4.34H7.35245ZM12.2395 8.78C12.1121 8.78 11.9901 8.83057 11.9 8.92059C11.81 9.01061 11.7595 9.1327 11.7595 9.26C11.7595 9.3873 11.81 9.50939 11.9 9.59941C11.9901 9.68943 12.1121 9.74 12.2395 9.74H15.5995C15.7268 9.74 15.8488 9.68943 15.9389 9.59941C16.0289 9.50939 16.0795 9.3873 16.0795 9.26C16.0795 9.1327 16.0289 9.01061 15.9389 8.92059C15.8488 8.83057 15.7268 8.78 15.5995 8.78H12.2395Z" fill="#FF6902"/>
<path d="M19.6676 6.25999H18.0006C17.1095 6.25999 16.2549 5.906 15.6247 5.27587C14.9946 4.64575 14.6406 3.79112 14.6406 2.89999V0.509995C15.1495 0.562226 15.6169 0.813923 15.9406 1.20999C16.3093 1.66199 16.679 2.11366 17.0496 2.56499C17.7906 3.46499 18.5326 4.37399 19.2636 5.28699C19.4882 5.56742 19.6295 5.90522 19.6716 6.26199L19.6676 6.25999Z" fill="#FF6902"/>
<path fill-rule="evenodd" clip-rule="evenodd" d="M22.5605 18.5C22.5605 19.6867 22.2087 20.8467 21.5494 21.8334C20.8901 22.8201 19.953 23.5892 18.8566 24.0433C17.7603 24.4974 16.5539 24.6162 15.39 24.3847C14.2261 24.1532 13.157 23.5818 12.3179 22.7426C11.4788 21.9035 10.9073 20.8344 10.6758 19.6705C10.4443 18.5067 10.5631 17.3003 11.0173 16.2039C11.4714 15.1075 12.2404 14.1705 13.2271 13.5112C14.2138 12.8519 15.3739 12.5 16.5605 12.5C18.1518 12.5 19.678 13.1321 20.8032 14.2574C21.9284 15.3826 22.5605 16.9087 22.5605 18.5ZM17.0405 15.38C17.0405 15.2527 16.99 15.1306 16.9 15.0406C16.8099 14.9506 16.6879 14.9 16.5605 14.9C16.4332 14.9 16.3112 14.9506 16.2211 15.0406C16.1311 15.1306 16.0805 15.2527 16.0805 15.38V18.14H13.5605C13.4332 18.14 13.3112 18.1906 13.2211 18.2806C13.1311 18.3706 13.0805 18.4927 13.0805 18.62C13.0805 18.7473 13.1311 18.8694 13.2211 18.9594C13.3112 19.0494 13.4332 19.1 13.5605 19.1H16.3205C16.5115 19.1 16.6946 19.0241 16.8297 18.8891C16.9647 18.7541 17.0405 18.571 17.0405 18.38V15.38Z" fill="#FF6902"/>
</g>
<defs>
<clipPath id="clip0_246_317">
<rect width="24" height="24" fill="white" transform="translate(0 0.5)"/>
</clipPath>
</defs>
</svg>
