<svg width="24" height="25" viewBox="0 0 24 25" fill="none" xmlns="http://www.w3.org/2000/svg">
<g clip-path="url(#clip0_246_323)">
<path d="M21.749 11.757V12.991C21.7349 13.0399 21.7242 13.0897 21.717 13.14C21.602 14.8144 21.0462 16.4287 20.106 17.819C19.3738 18.9425 18.4175 19.9027 17.2969 20.6393C16.1764 21.376 14.9157 21.8733 13.594 22.1C13.23 22.168 12.859 22.2 12.494 22.253H11.257C11.016 22.223 10.774 22.198 10.534 22.163C8.46501 21.8751 6.54011 20.9401 5.03474 19.4919C3.52937 18.0436 2.52068 16.1563 2.153 14.1C2.087 13.735 2.053 13.364 2 13V11.757C2.028 11.522 2.053 11.286 2.086 11.057C2.34346 9.08746 3.19935 7.24444 4.538 5.777C6.00861 4.1168 8.00512 3.01246 10.193 2.649C10.546 2.588 10.9 2.549 11.257 2.5H12.491C12.5395 2.51409 12.589 2.52478 12.639 2.532C14.1125 2.63121 15.5419 3.0766 16.811 3.832C18.0662 4.54633 19.1469 5.53062 19.9751 6.71372C20.8034 7.89682 21.3584 9.24917 21.6 10.673C21.667 11.031 21.7 11.396 21.752 11.757M8.882 9.95C8.931 9.885 8.967 9.834 9.008 9.786C9.35233 9.38816 9.77177 9.06217 10.2423 8.82669C10.7128 8.59121 11.2252 8.45087 11.75 8.41371C12.2748 8.37656 12.8019 8.44331 13.3009 8.61015C13.7999 8.77699 14.2611 9.04064 14.658 9.386C15.3353 9.97968 15.7958 10.7818 15.967 11.666C15.9834 11.7516 16.0168 11.8331 16.0653 11.9055C16.1139 11.978 16.1765 12.0399 16.2495 12.0876C16.3225 12.1353 16.4043 12.1678 16.4901 12.1831C16.576 12.1985 16.664 12.1964 16.749 12.177C16.9207 12.1405 17.0709 12.0373 17.1666 11.8901C17.2622 11.7429 17.2955 11.5637 17.259 11.392C17.0859 10.4993 16.6871 9.6659 16.1004 8.97119C15.5137 8.27648 14.7589 7.74367 13.9078 7.42357C13.0567 7.10348 12.1378 7.00678 11.2387 7.1427C10.3397 7.27862 9.49042 7.64263 8.772 8.2C8.472 8.435 8.204 8.714 7.901 8.991C7.763 8.845 7.617 8.691 7.472 8.538C7.43014 8.47622 7.36959 8.42948 7.29922 8.40464C7.22884 8.3798 7.15236 8.37818 7.081 8.4C6.916 8.458 6.881 8.6 6.858 8.75C6.73933 9.56867 6.618 10.3877 6.494 11.207C6.438 11.576 6.582 11.729 6.952 11.674C7.777 11.55 8.602 11.422 9.427 11.299C9.49785 11.299 9.56712 11.2781 9.62604 11.2387C9.68496 11.1994 9.73089 11.1435 9.758 11.078C9.78039 11.0071 9.77945 10.9308 9.75534 10.8605C9.73122 10.7901 9.68519 10.7293 9.624 10.687C9.378 10.445 9.133 10.2 8.882 9.95ZM14.729 15.35C14.0486 15.961 13.1758 16.3148 12.262 16.35C11.3556 16.3946 10.4609 16.1297 9.72497 15.5987C8.98901 15.0677 8.45548 14.3022 8.212 13.428C8.1948 13.338 8.15898 13.2526 8.10686 13.1772C8.05473 13.1019 7.98744 13.0382 7.90929 12.9904C7.83115 12.9425 7.74387 12.9115 7.65305 12.8994C7.56223 12.8872 7.46987 12.8941 7.38189 12.9197C7.2939 12.9453 7.21224 12.989 7.14212 13.048C7.072 13.107 7.01497 13.18 6.97469 13.2623C6.93441 13.3446 6.91176 13.4344 6.9082 13.526C6.90464 13.6175 6.92024 13.7088 6.954 13.794C7.18776 14.6275 7.62151 15.3912 8.21756 16.0189C8.81361 16.6466 9.55393 17.1193 10.3742 17.3958C11.1944 17.6724 12.0698 17.7444 12.9243 17.6057C13.7787 17.467 14.5863 17.1218 15.277 16.6C15.409 16.5 15.536 16.4 15.677 16.282C15.825 16.437 15.964 16.582 16.099 16.725C16.1418 16.79 16.2044 16.8396 16.2775 16.8662C16.3506 16.8929 16.4304 16.8953 16.505 16.873C16.677 16.812 16.705 16.66 16.731 16.502C16.8523 15.6827 16.9757 14.864 17.101 14.046C17.151 13.72 17.011 13.559 16.688 13.605C15.843 13.724 14.999 13.852 14.154 13.974C13.998 13.997 13.865 14.044 13.815 14.212C13.7988 14.2812 13.8037 14.3537 13.829 14.4202C13.8543 14.4867 13.8989 14.544 13.957 14.585C14.208 14.831 14.457 15.08 14.725 15.345" fill="#FF6902"/>
</g>
<defs>
<clipPath id="clip0_246_323">
<rect width="24" height="24" fill="white" transform="translate(0 0.5)"/>
</clipPath>
</defs>
</svg>
