<svg width="11" height="15" viewBox="0 0 11 15" fill="none" xmlns="http://www.w3.org/2000/svg">
<g clip-path="url(#clip0_246_328)">
<mask id="mask0_246_328" style="mask-type:luminance" maskUnits="userSpaceOnUse" x="0" y="0" width="11" height="15">
<path d="M11 0.5H0V14.5H11V0.5Z" fill="white"/>
</mask>
<g mask="url(#mask0_246_328)">
<path d="M9.16933 1.68301H1.82933C1.43999 1.68301 1.0666 1.83768 0.791295 2.11298C0.515992 2.38828 0.361328 2.76168 0.361328 3.15101V9.63901C0.361464 9.89774 0.429978 10.1518 0.559929 10.3756C0.689881 10.5993 0.876654 10.7847 1.10133 10.913L5.13533 13.219C5.24613 13.2825 5.37162 13.3159 5.49933 13.3159C5.62704 13.3159 5.75253 13.2825 5.86333 13.219L9.89733 10.913C10.1221 10.7848 10.3089 10.5994 10.4389 10.3756C10.5688 10.1519 10.6373 9.89776 10.6373 9.63901V3.15101C10.6373 2.76168 10.4827 2.38828 10.2074 2.11298C9.93206 1.83768 9.55867 1.68301 9.16933 1.68301ZM8.37833 6.33401L5.23433 9.48301L3.08933 7.33401C2.95348 7.19599 2.87769 7.00988 2.87846 6.81622C2.87923 6.62256 2.9565 6.43706 3.09343 6.30012C3.23037 6.16318 3.41588 6.08591 3.60954 6.08514C3.80319 6.08437 3.98931 6.16017 4.12733 6.29601L5.23433 7.40201L7.34533 5.29601C7.48335 5.16017 7.66946 5.08437 7.86312 5.08514C8.05678 5.08591 8.24228 5.16318 8.37922 5.30012C8.51616 5.43706 8.59343 5.62256 8.5942 5.81622C8.59497 6.00988 8.51917 6.19599 8.38333 6.33401H8.37833Z" fill="white"/>
</g>
</g>
<defs>
<clipPath id="clip0_246_328">
<rect width="11" height="14" fill="white" transform="translate(0 0.5)"/>
</clipPath>
</defs>
</svg>
