<svg width="62" height="75" viewBox="0 0 62 75" fill="none" xmlns="http://www.w3.org/2000/svg">
<g clip-path="url(#clip0_246_334)">
<path d="M1.61523 5.63699H60.4542V15.174H1.61523V5.63699Z" fill="#00524C"/>
<path d="M4.24805 15.175H57.828V51.603H4.24805V15.175Z" fill="#00B2CA" fill-opacity="0.2"/>
<path d="M28.418 51.606H35.818V72.956H28.418V51.606Z" fill="#B3B0B5"/>
<path d="M26.2539 1.47H35.8139V9.241H26.2539V1.47Z" fill="#F9F9F9"/>
<path d="M9.49023 1.47H19.0512V9.241H9.49023V1.47Z" fill="#F9F9F9"/>
<path d="M43.1289 1.47H52.6899V9.241H43.1289V1.47Z" fill="#F9F9F9"/>
<path d="M14.2695 24.804V21.026H47.9095V44.251H14.2695V36.634" fill="#FF6902"/>
<path d="M43.102 74.424C43.4819 74.41 43.8416 74.2492 44.1055 73.9754C44.3693 73.7016 44.5168 73.3362 44.5168 72.956C44.5168 72.5758 44.3693 72.2104 44.1055 71.9366C43.8416 71.6628 43.4819 71.502 43.102 71.488H37.137V60.549H51.78C52.1599 60.535 52.5196 60.3742 52.7835 60.1004C53.0473 59.8266 53.1948 59.4612 53.1948 59.081C53.1948 58.7008 53.0473 58.3354 52.7835 58.0616C52.5196 57.7878 52.1599 57.627 51.78 57.613H46.502V53.07H57.679C57.8719 53.07 58.063 53.032 58.2412 52.9581C58.4194 52.8842 58.5814 52.7759 58.7177 52.6393C58.854 52.5028 58.9621 52.3407 59.0358 52.1624C59.1094 51.9841 59.1472 51.793 59.147 51.6V16.642H60.308C60.6973 16.642 61.0707 16.4873 61.346 16.212C61.6213 15.9367 61.776 15.5633 61.776 15.174V5.637C61.7757 5.24775 61.6209 4.87451 61.3457 4.59926C61.0704 4.32402 60.6972 4.16927 60.308 4.169H54.008V1.469C54.0082 1.08036 53.8544 0.707464 53.5801 0.432088C53.3059 0.156712 52.9336 0.0013267 52.545 3.06567e-06H42.985C42.5956 3.06567e-06 42.2222 0.154667 41.9469 0.42997C41.6716 0.705274 41.517 1.07867 41.517 1.468V4.168H37.137V1.468C37.137 1.07867 36.9823 0.705274 36.707 0.42997C36.4317 0.154667 36.0583 3.06567e-06 35.669 3.06567e-06H26.108C25.7186 3.06567e-06 25.3452 0.154667 25.0699 0.42997C24.7946 0.705274 24.64 1.07867 24.64 1.468V4.168H20.373V1.468C20.373 1.27497 20.3349 1.08383 20.2609 0.90553C20.187 0.727228 20.0786 0.565264 19.9419 0.428908C19.8053 0.292553 19.6431 0.184483 19.4647 0.110886C19.2862 0.0372884 19.095 -0.000391416 18.902 3.06567e-06H9.34495C9.15209 -0.000128314 8.96109 0.0377457 8.78287 0.111461C8.60465 0.185176 8.4427 0.293287 8.30627 0.429617C8.16985 0.565946 8.06163 0.727822 7.98779 0.905993C7.91396 1.08416 7.87595 1.27514 7.87595 1.468V4.168H1.46895C1.27617 4.16813 1.08531 4.20624 0.90725 4.28013C0.729195 4.35403 0.567437 4.46227 0.431213 4.59868C0.29499 4.73509 0.186968 4.89699 0.113316 5.07515C0.039663 5.2533 0.0018221 5.44422 0.00195347 5.637V15.174C0.00195347 15.5633 0.156617 15.9367 0.431921 16.212C0.707224 16.4873 1.08062 16.642 1.46995 16.642H2.62995V51.6C2.62969 51.7933 2.6676 51.9847 2.7415 52.1633C2.81541 52.3419 2.92386 52.5042 3.06063 52.6407C3.19739 52.7773 3.35978 52.8856 3.53848 52.9592C3.71718 53.0329 3.90867 53.0705 4.10195 53.07H17.437V57.613H4.10195C3.72199 57.627 3.36227 57.7878 3.09842 58.0616C2.83457 58.3354 2.68715 58.7008 2.68715 59.081C2.68715 59.4612 2.83457 59.8266 3.09842 60.1004C3.36227 60.3742 3.72199 60.535 4.10195 60.549H26.802V71.488H20.835C20.455 71.502 20.0953 71.6628 19.8314 71.9366C19.5676 72.2104 19.4201 72.5758 19.4201 72.956C19.4201 73.3362 19.5676 73.7016 19.8314 73.9754C20.0953 74.2492 20.455 74.41 20.835 74.424H43.102ZM44.452 2.935H51.077V7.77H44.452V2.935ZM27.576 2.935H34.202V7.77H27.576V2.935ZM10.812 2.935H17.437V7.77H10.813L10.812 2.935ZM2.93695 13.706V7.1H7.87695V9.238C7.87695 9.43078 7.91492 9.62168 7.9887 9.79978C8.06247 9.97789 8.1706 10.1397 8.30692 10.276C8.44324 10.4124 8.60507 10.5205 8.78317 10.5943C8.96128 10.668 9.15217 10.706 9.34495 10.706H18.902C19.2913 10.706 19.6647 10.5513 19.94 10.276C20.2153 10.0007 20.37 9.62734 20.37 9.238V7.1H24.638V9.238C24.638 9.62734 24.7926 10.0007 25.0679 10.276C25.3432 10.5513 25.7166 10.706 26.106 10.706H35.666C35.8587 10.706 36.0496 10.668 36.2277 10.5943C36.4058 10.5205 36.5677 10.4124 36.704 10.276C36.8403 10.1397 36.9484 9.97789 37.0222 9.79978C37.096 9.62168 37.134 9.43078 37.134 9.238V7.1H41.513V9.238C41.513 9.62734 41.6676 10.0007 41.9429 10.276C42.2182 10.5513 42.5916 10.706 42.981 10.706H52.542C52.9313 10.706 53.3047 10.5513 53.58 10.276C53.8553 10.0007 54.01 9.62734 54.01 9.238V7.1H58.838V13.7L2.93695 13.706ZM20.373 57.613V53.07H26.802V57.613H20.373ZM34.202 71.489H29.742V53.07H34.202V71.489ZM43.566 57.613H37.137V53.07H43.565L43.566 57.613ZM5.56595 50.134V16.642H56.211V50.134H5.56595Z" fill="black"/>
<path d="M14.1223 26.273C14.5115 26.2735 14.8849 26.1195 15.1606 25.8448C15.4362 25.5701 15.5915 25.1972 15.5923 24.808V22.498H46.2923V42.787H15.5923V36.638C15.5783 36.2581 15.4175 35.8983 15.1437 35.6345C14.8699 35.3706 14.5045 35.2232 14.1243 35.2232C13.7441 35.2232 13.3787 35.3706 13.1049 35.6345C12.8311 35.8983 12.6703 36.2581 12.6563 36.638V44.255C12.6563 44.6443 12.811 45.0177 13.0863 45.293C13.3616 45.5683 13.735 45.723 14.1243 45.723H47.7643C48.1536 45.723 48.527 45.5683 48.8023 45.293C49.0776 45.0177 49.2323 44.6443 49.2323 44.255V21.026C49.2323 20.6367 49.0776 20.2633 48.8023 19.988C48.527 19.7127 48.1536 19.558 47.7643 19.558H14.1223C13.733 19.558 13.3596 19.7127 13.0843 19.988C12.809 20.2633 12.6543 20.6367 12.6543 21.026V24.808C12.6543 25.1974 12.809 25.5707 13.0843 25.846C13.3596 26.1213 13.733 26.276 14.1223 26.276V26.273Z" fill="black"/>
<path d="M23.2131 38.109C23.3903 38.0904 23.5599 38.027 23.706 37.9248C23.852 37.8227 23.9697 37.6851 24.048 37.525C24.137 37.365 24.5141 35.725 24.5321 35.725H27.8L28.327 37.675C28.6 38.675 30.88 37.95 30.635 36.957L27.7351 27.443C27.3761 26.316 24.9351 26.316 24.5751 27.443C23.7084 30.303 22.8417 33.163 21.975 36.023C21.757 36.743 21.375 37.461 22.288 37.905C22.572 38.0561 22.8919 38.1267 23.2131 38.109ZM26.158 29.673L27.2891 33.853H25.027L26.158 29.673Z" fill="black"/>
<path d="M33.3909 38.126H36.1329C37.1347 38.1773 38.1207 37.8612 38.9059 37.237C39.3005 36.814 39.5979 36.3098 39.7772 35.7598C39.9565 35.2098 40.0134 34.6273 39.9439 34.053C39.9666 33.0036 39.9696 31.954 39.9529 30.904C40.012 30.0918 39.8727 29.2773 39.5469 28.531C39.1986 27.9454 38.6958 27.4671 38.0935 27.1485C37.4913 26.83 36.8129 26.6834 36.1329 26.725H33.3909C32.9689 26.725 32.3379 26.933 32.3379 27.458V37.393C32.3379 37.918 32.9689 38.126 33.3909 38.126ZM34.7539 28.846C36.0239 28.846 37.5269 28.67 37.5269 30.406V34.445C37.5269 36.177 36.0269 36.005 34.7539 36.005V28.846Z" fill="black"/>
<path d="M12.7649 31.247C12.8755 31.5151 13.063 31.7444 13.3039 31.9059C13.5447 32.0674 13.828 32.1539 14.118 32.1545C14.408 32.1551 14.6917 32.0697 14.9332 31.9092C15.1747 31.7486 15.3632 31.5201 15.4748 31.2525C15.5865 30.9849 15.6164 30.6902 15.5607 30.4056C15.5049 30.121 15.3661 29.8593 15.1617 29.6536C14.9573 29.4479 14.6966 29.3073 14.4123 29.2497C14.1281 29.1921 13.8332 29.2201 13.5649 29.33C13.2067 29.4807 12.9221 29.7661 12.7724 30.1247C12.6228 30.4834 12.6201 30.8864 12.7649 31.247Z" fill="black"/>
<path d="M57.3916 57.643C57.0908 57.7025 56.8161 57.8547 56.6063 58.0782C56.3965 58.3018 56.262 58.5855 56.2217 58.8894C56.1814 59.1934 56.2374 59.5023 56.3818 59.7728C56.5261 60.0433 56.7516 60.2618 57.0265 60.3976C57.3014 60.5333 57.612 60.5795 57.9145 60.5296C58.217 60.4798 58.4963 60.3364 58.7132 60.1196C58.93 59.9028 59.0735 59.6236 59.1234 59.3211C59.1733 59.0185 59.1272 58.708 58.9915 58.433C58.8468 58.1454 58.6125 57.9127 58.3238 57.7702C58.0351 57.6277 57.7079 57.583 57.3916 57.643Z" fill="black"/>
</g>
<defs>
<clipPath id="clip0_246_334">
<rect width="61.775" height="74.424" fill="white"/>
</clipPath>
</defs>
</svg>
