<svg width="339" height="248" viewBox="0 0 339 248" fill="none" xmlns="http://www.w3.org/2000/svg">
<g clip-path="url(#clip0_246_669)">
<path d="M270.711 56.585H238.209V119.164H270.711V56.585Z" fill="white"/>
<path d="M108.754 113.917V17.517L230.383 49.266L108.754 113.917Z" fill="white"/>
<path d="M104.029 0.00598145L56.7402 49.606V121.02H104.029V0.00598145Z" fill="white"/>
<path d="M100.986 202.976L70.5078 180.876V130.885H100.986V202.976Z" fill="white"/>
<path d="M109.654 130.483V226.883L231.283 244.004V130.483H109.654Z" fill="white"/>
<path d="M121.918 222.661L117.826 222.74C117.656 222.419 117.587 222.055 117.626 221.694C117.626 221.061 117.826 220.548 118.081 220.548H121.775C122.026 220.548 122.306 220.948 122.306 221.581C122.335 221.779 122.315 221.982 122.247 222.17C122.179 222.359 122.066 222.528 121.917 222.662" fill="#F4CABA"/>
<path d="M230.385 121.022H108.756L230.385 56.68V121.022Z" fill="white"/>
<path d="M117.539 221.529L122.489 221.887C122.489 221.887 135.608 180.087 137.68 145.865C137.68 145.865 135.92 186.974 141.405 221.345L147.38 221.337C152.318 190.289 154.79 158.898 154.772 127.46H121.327C118.652 154.344 115.662 189.689 117.539 221.529Z" fill="#05293C"/>
<path d="M137.673 145.817C137.673 145.817 135.922 186.934 141.407 221.305L147.199 221.329C152.25 190.279 154.781 158.871 154.765 127.412C154.765 127.412 118.821 133.589 117.541 221.529L121.784 221.429C121.784 221.429 135.601 180.041 137.674 145.82" fill="#011721"/>
<path d="M117.691 222.531L110.722 225.888C110.652 226.039 110.622 226.205 110.633 226.37C110.645 226.536 110.698 226.696 110.788 226.835C110.877 226.975 111.001 227.09 111.147 227.169C111.293 227.248 111.456 227.289 111.622 227.288H122.022C122.172 227.288 122.32 227.254 122.455 227.188C122.59 227.122 122.708 227.026 122.801 226.907C122.893 226.789 122.957 226.651 122.988 226.504C123.018 226.357 123.015 226.205 122.978 226.059L122.078 222.535L117.691 222.531Z" fill="#FF6902"/>
<path d="M141.992 222.531L140.456 225.888C140.387 226.039 140.356 226.205 140.368 226.37C140.379 226.536 140.432 226.696 140.522 226.835C140.612 226.975 140.735 227.09 140.881 227.169C141.027 227.248 141.19 227.289 141.356 227.288H147.88C148.03 227.288 148.179 227.254 148.314 227.188C148.448 227.121 148.566 227.025 148.658 226.907C148.751 226.788 148.815 226.651 148.845 226.504C148.876 226.357 148.873 226.205 148.836 226.059L146.383 222.535L141.992 222.531Z" fill="#FF6902"/>
<path d="M146.419 222.586L141.974 222.534C141.92 222.13 141.838 221.731 141.729 221.339L146.834 221.331H147.073C146.988 222.199 146.478 222.367 146.419 222.588" fill="#F4CABA"/>
<path d="M230.386 163.176C230.386 156.25 228.761 149.422 225.64 143.239C222.519 137.057 217.989 131.694 212.416 127.583C206.843 123.471 200.383 120.726 193.555 119.568C186.727 118.41 179.722 118.872 173.105 120.916C166.488 122.961 160.444 126.531 155.459 131.338C150.475 136.146 146.689 142.057 144.406 148.596C142.124 155.134 141.409 162.118 142.319 168.983C143.229 175.848 145.739 182.404 149.647 188.122C151.922 191.442 168.005 211.203 178.022 223.458C178.997 224.652 180.225 225.614 181.617 226.275C183.009 226.937 184.531 227.282 186.072 227.284C187.614 227.286 189.136 226.947 190.53 226.289C191.925 225.632 193.156 224.674 194.135 223.483C204.224 211.217 220.456 191.383 222.771 187.983C227.746 180.668 230.4 172.022 230.386 163.176Z" fill="#011721"/>
<path opacity="0.88" d="M230.386 163.176C230.386 156.25 228.761 149.422 225.64 143.239C222.519 137.057 217.989 131.694 212.416 127.583C206.843 123.471 200.383 120.726 193.555 119.568C186.727 118.41 179.722 118.872 173.105 120.916C166.488 122.961 160.444 126.531 155.459 131.338C150.475 136.146 146.689 142.057 144.406 148.596C142.124 155.134 141.409 162.118 142.319 168.983C143.229 175.848 145.739 182.404 149.647 188.122C151.922 191.442 168.005 211.203 178.022 223.458C178.997 224.652 180.225 225.614 181.617 226.275C183.009 226.937 184.531 227.282 186.072 227.284C187.614 227.286 189.136 226.947 190.53 226.289C191.925 225.632 193.156 224.674 194.135 223.483C204.224 211.217 220.456 191.383 222.771 187.983C227.746 180.668 230.4 172.022 230.386 163.176Z" fill="#FF6902"/>
<path d="M92.0141 61.903C91.8353 61.9032 91.6588 61.8634 91.4974 61.7866C91.3359 61.7097 91.1937 61.5978 91.0811 61.459C89.9161 60.035 89.2621 59.219 89.1351 59.034C88.7765 58.5095 88.5677 57.8972 88.5312 57.2629C88.4946 56.6286 88.6317 55.9963 88.9277 55.4341C89.2238 54.872 89.6674 54.4011 90.2111 54.0723C90.7547 53.7435 91.3777 53.5691 92.0131 53.568H92.0201C92.6548 53.568 93.2776 53.7409 93.8215 54.0681C94.3655 54.3954 94.81 54.8646 95.1073 55.4254C95.4046 55.9862 95.5435 56.6174 95.5091 57.2513C95.4747 57.8851 95.2684 58.4976 94.9121 59.023C94.7491 59.262 93.7531 60.482 92.9461 61.462C92.8332 61.5999 92.6909 61.7111 92.5297 61.7872C92.3685 61.8633 92.1924 61.9025 92.0141 61.902M92.0141 54.57C91.5605 54.5702 91.1156 54.6943 90.7274 54.9288C90.3392 55.1633 90.0223 55.4993 89.811 55.9006C89.5998 56.302 89.5021 56.7534 89.5285 57.2062C89.555 57.659 89.7045 58.0959 89.9611 58.47C90.0611 58.623 90.7741 59.504 91.8611 60.827C91.8798 60.8507 91.9036 60.8699 91.9308 60.8831C91.958 60.8962 91.9879 60.9031 92.0181 60.9031C92.0483 60.9031 92.0781 60.8962 92.1053 60.8831C92.1325 60.8699 92.1564 60.8507 92.1751 60.827C93.2651 59.503 93.9751 58.618 94.0861 58.461C94.3397 58.0863 94.4866 57.6496 94.5109 57.1978C94.5352 56.7459 94.436 56.2959 94.2239 55.8962C94.0119 55.4964 93.695 55.162 93.3072 54.9287C92.9195 54.6954 92.4756 54.5721 92.0231 54.572" fill="white"/>
<path d="M152.673 73.9659L129.278 75.158C128.656 75.2137 128.071 75.4763 127.616 75.9038C127.161 76.3313 126.863 76.8989 126.768 77.516C125.396 84.599 121.414 106.884 122.333 122.669C122.333 122.669 122.466 127.461 126.122 127.461L156.837 125.921C156.837 125.921 158.543 125.921 158.543 122.841L155.971 77.252C155.967 76.3793 155.617 75.5439 154.999 74.9282C154.38 74.3126 153.543 73.967 152.671 73.967" fill="#011721"/>
<path d="M147.545 74.201L146.815 73.132H136.272L134.809 74.9319L147.973 75.444L147.545 74.201Z" fill="#011721"/>
<path d="M90.1602 64.856L88.2602 64.696L88.1191 64.842L92.1012 73.121L93.8082 72.508L90.1602 64.856Z" fill="#011721"/>
<path d="M92.1279 72.907L88.2949 64.847L90.1129 65L93.5879 72.382L92.1279 72.907Z" fill="white"/>
<path d="M141.401 73.941V73.96C141.393 73.9999 141.382 74.039 141.368 74.077C141.358 74.1021 141.346 74.1261 141.332 74.149C141.311 74.185 141.296 74.223 141.275 74.259C141.222 74.3337 141.176 74.413 141.137 74.496C141.113 74.5487 141.082 74.5973 141.043 74.64C140.983 74.712 140.913 74.774 140.85 74.84C140.811 74.8944 140.763 74.9422 140.709 74.982C140.669 75.006 140.627 75.025 140.587 75.05C140.508 75.0966 140.426 75.1368 140.341 75.17C140.301 75.186 140.265 75.209 140.225 75.225C140.204 75.233 140.182 75.236 140.16 75.246C140.065 75.2867 139.967 75.3201 139.867 75.346C139.777 75.369 139.692 75.406 139.601 75.425C139.51 75.444 139.401 75.471 139.295 75.485C139.144 75.505 138.995 75.517 138.839 75.536C138.765 75.546 138.692 75.559 138.618 75.565C138.544 75.571 138.489 75.565 138.425 75.565C138.34 75.5722 138.256 75.5722 138.171 75.565C138.124 75.557 138.071 75.555 138.029 75.547C137.959 75.535 137.885 75.528 137.814 75.521C137.757 75.5166 137.701 75.5079 137.646 75.495C137.593 75.4802 137.539 75.4682 137.484 75.459C137.462 75.4574 137.441 75.4538 137.42 75.448C137.402 75.442 137.384 75.433 137.366 75.426C137.316 75.407 137.266 75.393 137.212 75.376C137.131 75.3503 137.056 75.3099 136.99 75.257C136.956 75.2299 136.92 75.2055 136.883 75.184C136.87 75.1762 136.857 75.1664 136.847 75.155C136.833 75.141 136.817 75.132 136.804 75.118C136.773 75.0863 136.743 75.0529 136.715 75.018C136.789 74.8899 136.827 74.7447 136.827 74.597C136.827 74.3681 136.736 74.1486 136.574 73.9868C136.412 73.8249 136.193 73.734 135.964 73.734L134.374 74.234C134.102 74.3191 133.808 74.3008 133.549 74.1827C133.289 74.0647 133.083 73.855 132.968 73.594L131.868 71.094C131.782 70.8985 131.751 70.6835 131.776 70.4716C131.802 70.2596 131.884 70.0585 132.014 69.889L134.205 67.036L139.141 67.645L140.572 72.481C140.732 73.0251 141.017 73.5245 141.403 73.94" fill="#EDB29F"/>
<path d="M192.834 117.221L189.36 119.781C178.806 107.926 162.422 96.7569 156.027 92.6019C155.78 92.4409 155.492 92.3524 155.197 92.3463C154.902 92.3403 154.611 92.417 154.357 92.5677C154.103 92.7185 153.896 92.9373 153.76 93.1995C153.624 93.4616 153.565 93.7566 153.587 94.051C154.422 105.396 154.742 127.46 154.742 127.46C138.042 135.168 121.342 127.466 121.329 127.46C121.402 126.832 125.42 92.377 125.422 92.328C120.372 97.5931 114.179 101.627 107.322 104.12C97.6894 98.635 91.3555 77.698 91.3555 77.698L95.0115 75.504L108.479 93.241C108.479 93.241 115.369 87.1869 121.943 81.8979C126.052 78.6003 130.92 76.3828 136.104 75.447C136.304 75.4113 136.485 75.3077 136.616 75.1539C136.651 75.1136 136.681 75.0701 136.706 75.0239C136.734 75.0588 136.764 75.0923 136.795 75.124C136.809 75.137 136.826 75.147 136.839 75.161C136.849 75.1724 136.861 75.1821 136.874 75.1899C136.912 75.2114 136.948 75.2358 136.981 75.2629C137.048 75.3159 137.123 75.3562 137.203 75.382C137.254 75.398 137.303 75.413 137.357 75.432L137.411 75.454C137.432 75.4597 137.454 75.4634 137.475 75.465C137.53 75.4741 137.584 75.4861 137.637 75.501C137.693 75.5138 137.749 75.5225 137.805 75.527C137.876 75.533 137.949 75.54 138.02 75.553C138.067 75.561 138.12 75.5619 138.162 75.5709C138.247 75.578 138.332 75.578 138.417 75.5709C138.481 75.5709 138.545 75.5759 138.609 75.5709C138.673 75.5659 138.757 75.552 138.831 75.542C138.983 75.523 139.131 75.511 139.286 75.491C139.386 75.478 139.486 75.451 139.592 75.431C139.698 75.411 139.769 75.3749 139.858 75.3519C139.959 75.3261 140.056 75.2926 140.151 75.252C140.172 75.243 140.194 75.24 140.216 75.231C140.256 75.215 140.292 75.193 140.332 75.176C140.418 75.1428 140.501 75.1027 140.579 75.056C140.618 75.032 140.661 75.013 140.701 74.988C140.756 74.9483 140.803 74.9003 140.842 74.8459C140.905 74.7769 140.974 74.715 141.035 74.646C141.074 74.6033 141.106 74.5547 141.129 74.502C141.168 74.419 141.215 74.3398 141.267 74.265C141.288 74.229 141.304 74.19 141.326 74.155C141.34 74.1322 141.352 74.108 141.361 74.083C141.376 74.045 141.387 74.0058 141.394 73.9659V73.947C141.999 74.5951 142.807 75.016 143.684 75.139C144.84 75.303 145.974 75.5886 147.069 75.991C170.922 84.797 192.832 117.228 192.832 117.228" fill="#FF6902"/>
<path d="M133.223 63.32C133.223 63.32 130.542 66.428 134.442 68.256C134.442 68.256 134.142 70.756 137.428 69.902C137.428 69.902 139.317 69.11 139.195 70.694C139.195 70.694 139.806 73.775 141.295 73.823C141.965 73.4159 142.481 72.7986 142.764 72.0673C143.046 71.3359 143.078 70.5317 142.856 69.78C142.856 69.78 144.989 66.062 141.756 65.087C141.756 65.087 141.695 62.162 137.556 63.32C137.556 63.32 135.91 60.52 133.229 63.32" fill="#011721"/>
<path d="M91.3562 77.7L88.8402 74.51C88.5639 74.1597 88.3774 73.7471 88.2969 73.3083C88.2164 72.8695 88.2443 72.4176 88.3782 71.992L89.6502 67.949L91.9662 71.728L92.3102 71.117C92.3753 71.0017 92.4724 70.9077 92.5897 70.8463C92.707 70.7848 92.8395 70.7586 92.9714 70.7708C93.1033 70.7829 93.2288 70.8329 93.3329 70.9147C93.437 70.9966 93.5152 71.1067 93.5582 71.232L95.0132 75.506L91.3562 77.7Z" fill="#EDB29F"/>
<path d="M121.33 127.461C121.342 127.466 138.044 135.169 154.743 127.461C154.743 127.461 154.559 114.791 154.107 103.716C135.195 106.267 121.33 127.461 121.33 127.461Z" fill="#011721"/>
<path opacity="0.88" d="M121.33 127.461C121.342 127.466 138.044 135.169 154.743 127.461C154.743 127.461 154.559 114.791 154.107 103.716C135.195 106.267 121.33 127.461 121.33 127.461Z" fill="#FF6902"/>
<path d="M123.545 108.451C123.545 108.451 122.502 109.576 122.436 106.536C122.336 101.76 123.782 90.249 128.921 75.055L131.521 74.936C131.521 74.936 125.421 92.368 123.542 108.451" fill="#05293C"/>
<path d="M148.322 74.1651L148.68 74.1491C148.561 74.14 148.441 74.1453 148.322 74.1651Z" fill="#05293C"/>
<path d="M157.938 112.074C151.582 99.1 152.892 78.708 152.28 75.585C152.261 75.2519 152.151 74.9305 151.961 74.6564C151.771 74.3824 151.508 74.1665 151.203 74.033L148.682 74.149C149.145 74.179 149.911 74.422 150.082 75.665C150.082 75.665 149.059 107.272 158.158 115.943L157.938 112.074Z" fill="#05293C"/>
<path d="M156.908 96.955L158.333 97.055L159.061 108.655H157.222L156.908 96.955Z" fill="#011721"/>
<path d="M155.56 109.759C155.56 109.759 130.338 128.537 123.523 110.114L122.538 107.814L122.391 110.957C122.391 110.957 127.133 130.929 156.353 112.422L155.56 109.759Z" fill="#05293C"/>
<path d="M132.366 118.261C132.366 118.261 132.327 117.645 132.497 117.473C132.863 117.103 134.312 117.422 134.312 117.422C134.496 117.434 134.669 117.514 134.798 117.645C134.928 117.777 135.004 117.952 135.012 118.136L135.092 119.818C135.098 119.924 135.08 120.03 135.041 120.129C135.002 120.228 134.942 120.318 134.866 120.392C134.79 120.466 134.699 120.523 134.599 120.56C134.499 120.596 134.392 120.611 134.286 120.603L133.059 120.512C132.87 120.499 132.692 120.415 132.562 120.275C132.432 120.136 132.359 119.953 132.359 119.763L132.366 118.261Z" fill="#05293C"/>
<path d="M160.793 202.29C160.804 194.052 162.731 185.929 166.42 178.563C170.109 171.196 175.46 164.789 182.05 159.845C188.641 154.902 196.29 151.558 204.394 150.078C212.498 148.597 220.836 149.021 228.748 151.316C227.028 145.132 223.982 139.397 219.822 134.508C215.662 129.62 210.488 125.695 204.658 123.008C198.829 120.32 192.485 118.934 186.066 118.945C179.647 118.956 173.308 120.364 167.488 123.072C161.668 125.779 156.507 129.721 152.364 134.624C148.221 139.527 145.195 145.272 143.496 151.462C141.796 157.652 141.465 164.138 142.525 170.468C143.584 176.799 146.009 182.824 149.631 188.123C151.531 190.901 163.101 205.185 172.696 216.954C168.796 212.167 164.566 206.966 160.796 202.29" fill="#FF6902"/>
<path d="M210.793 163.176C210.793 168.048 209.349 172.81 206.642 176.861C203.935 180.912 200.088 184.07 195.587 185.934C191.086 187.798 186.133 188.286 181.355 187.336C176.576 186.385 172.187 184.039 168.742 180.594C165.297 177.149 162.951 172.76 162.001 167.982C161.05 163.203 161.538 158.25 163.402 153.749C165.267 149.248 168.424 145.401 172.475 142.694C176.526 139.988 181.288 138.543 186.16 138.543C192.693 138.543 198.959 141.138 203.578 145.758C208.198 150.377 210.793 156.643 210.793 163.176Z" fill="#FF6902"/>
<path d="M166.633 178.185C170.513 183.236 176.199 186.588 182.498 187.536C188.796 188.484 195.217 186.955 200.413 183.27C205.608 179.585 209.174 174.031 210.361 167.773C211.549 161.516 210.266 155.041 206.782 149.709C198.29 150.869 190.205 154.064 183.214 159.022C176.224 163.981 170.535 170.555 166.633 178.185Z" fill="#011721"/>
<path opacity="0.88" d="M166.633 178.185C170.513 183.236 176.199 186.588 182.498 187.536C188.796 188.484 195.217 186.955 200.413 183.27C205.608 179.585 209.174 174.031 210.361 167.773C211.549 161.516 210.266 155.041 206.782 149.709C198.29 150.869 190.205 154.064 183.214 159.022C176.224 163.981 170.535 170.555 166.633 178.185Z" fill="#FF6902"/>
<path d="M247.841 108.146C243.536 108.124 239.298 107.078 235.476 105.096C229.169 101.803 224.091 96.5649 220.996 90.158C213.096 90.7 205.221 90.866 197.496 91.03C190.887 91.17 184.054 91.314 177.301 91.689C177.279 91.6919 177.256 91.6899 177.234 91.6831C177.212 91.6764 177.192 91.665 177.175 91.6498C177.158 91.6347 177.145 91.616 177.136 91.5952C177.126 91.5743 177.122 91.5518 177.122 91.529C177.12 91.4842 177.136 91.4404 177.166 91.4071C177.196 91.3738 177.237 91.3536 177.282 91.351C184.041 90.976 190.882 90.831 197.489 90.691C205.171 90.528 212.995 90.363 220.844 89.829C220.143 88.3414 219.558 86.8014 219.095 85.223C216.057 74.829 220.538 61.514 229.295 54.91C235.995 49.86 243.795 49.676 251.271 54.393C254.01 56.1778 256.227 58.6571 257.695 61.578C259.163 64.499 259.831 67.757 259.629 71.02C259.45 73.5114 258.728 75.9333 257.514 78.1164C256.3 80.2994 254.624 82.1908 252.602 83.658C249.05 86.158 244.661 87.104 240.47 87.858C234.146 88.9588 227.768 89.7189 221.362 90.135C224.43 96.4217 229.431 101.56 235.632 104.797C238.777 106.461 242.23 107.458 245.778 107.727C249.325 107.995 252.889 107.529 256.248 106.358C266.228 102.804 274.999 95.007 280.311 84.965C286.117 73.99 286.145 63.575 280.398 52.188C269.427 30.448 249.592 18.398 221.447 16.373C192.53 14.294 163.996 23.44 149.562 29.079C142.343 31.899 132.036 34.924 125.904 28.673C123.404 26.125 122.057 22.139 122.204 17.736C122.339 13.758 123.543 9.89602 124.704 6.16102L124.966 5.31901C124.979 5.27618 125.009 5.24037 125.049 5.21946C125.069 5.20911 125.09 5.20272 125.112 5.20067C125.134 5.19862 125.157 5.20095 125.178 5.20752C125.199 5.21408 125.219 5.22476 125.236 5.23894C125.253 5.25312 125.267 5.27053 125.277 5.29017C125.288 5.30981 125.294 5.3313 125.296 5.35341C125.298 5.37551 125.296 5.39781 125.289 5.41902L125.027 6.26101C123.872 9.97501 122.672 13.815 122.542 17.746C122.396 22.057 123.709 25.953 126.142 28.434C132.133 34.542 142.305 31.547 149.436 28.762C163.896 23.113 192.479 13.948 221.469 16.033C234.594 16.978 246.102 20.184 255.674 25.565C266.498 31.6571 275.222 40.885 280.698 52.033C286.498 63.527 286.47 74.04 280.609 85.121C275.257 95.237 266.418 103.093 256.36 106.675C253.625 107.65 250.743 108.147 247.84 108.146M240.391 51.327C236.432 51.3722 232.599 52.7274 229.491 55.181C220.836 61.706 216.408 74.86 219.409 85.128C219.88 86.7317 220.477 88.2954 221.196 89.804C227.635 89.3895 234.046 88.6278 240.402 87.522C244.556 86.778 248.902 85.845 252.402 83.381C254.383 81.9427 256.026 80.0888 257.215 77.9492C258.405 75.8095 259.112 73.4357 259.288 70.994C259.486 67.7924 258.831 64.5956 257.391 61.7295C255.95 58.8635 253.775 56.4306 251.088 54.679C247.914 52.5644 244.202 51.4011 240.388 51.326" fill="#432D29"/>
<path d="M72.3839 217.644C71.1413 217.624 69.912 217.384 68.7529 216.935C65.2149 215.63 62.4989 212.841 60.5279 210.556C57.5351 207.271 55.2133 203.432 53.6929 199.256C52.1596 195.035 52.1543 190.41 53.6779 186.186C55.4086 182.048 58.5875 178.682 62.6199 176.718C67.5662 174.33 73.0351 173.23 78.5199 173.518C78.5459 167.375 79.2501 161.253 80.6199 155.265C84.0732 140.322 92.5155 127.002 104.555 117.501C107.951 114.844 111.499 112.387 115.181 110.144C115.219 110.121 115.265 110.114 115.309 110.124C115.352 110.135 115.39 110.162 115.413 110.201C115.437 110.239 115.444 110.285 115.433 110.328C115.423 110.372 115.395 110.41 115.357 110.433C111.686 112.669 108.148 115.119 104.763 117.768C92.7837 127.222 84.3837 140.476 80.9479 155.345C79.5848 161.311 78.8845 167.409 78.8599 173.528C92.5749 173.984 107.66 180.408 118.766 185.128L119.817 185.576C124.769 187.676 129.832 190.132 134.728 192.503C153.167 201.432 172.236 210.667 193.042 205.861C205.752 202.927 218.542 194.549 224.142 185.487C224.166 185.451 224.204 185.426 224.247 185.417C224.289 185.408 224.334 185.415 224.371 185.438C224.408 185.461 224.435 185.498 224.446 185.54C224.456 185.582 224.45 185.627 224.429 185.665C218.783 194.799 205.907 203.239 193.117 206.192C172.195 211.021 153.071 201.763 134.579 192.808C129.686 190.439 124.627 187.989 119.679 185.887L118.628 185.44C107.555 180.728 92.4979 174.32 78.8499 173.863C78.7659 179.996 79.1249 186.143 79.4779 192.188C79.7609 197.032 80.0529 202.039 80.1099 206.93C80.1589 211.172 78.7349 214.73 76.3019 216.445C75.1516 217.245 73.7788 217.663 72.3779 217.639M77.3209 173.839C72.2859 173.722 67.296 174.813 62.7689 177.02C58.8239 178.966 55.708 182.262 53.9879 186.311C52.4939 190.461 52.5013 195.004 54.0089 199.149C55.516 203.282 57.8157 207.081 60.7789 210.333C62.7229 212.586 65.3989 215.333 68.8649 216.615C71.7059 217.663 74.2099 217.509 76.1069 216.17C78.4489 214.518 79.8189 211.07 79.7719 206.936C79.7159 202.053 79.4229 197.049 79.1409 192.21C78.7869 186.157 78.4279 180.002 78.5119 173.855C78.1119 173.844 77.7143 173.839 77.3209 173.839Z" fill="#432D29"/>
<path d="M124.992 5.951C124.992 5.951 125.757 6.074 125.919 5.912C126.119 5.712 125.862 5.052 125.67 4.636C125.625 4.53735 125.543 4.46028 125.442 4.42123C125.341 4.38218 125.228 4.38425 125.128 4.427C124.673 4.619 123.96 4.971 123.993 5.277C124.023 5.554 124.992 5.951 124.992 5.951Z" fill="white"/>
<path d="M108.671 181.015L108.329 182.029C108.305 182.1 108.263 182.164 108.207 182.213C108.15 182.263 108.082 182.297 108.009 182.311C107.935 182.326 107.859 182.321 107.788 182.297C107.717 182.274 107.653 182.231 107.604 182.175L106.897 181.375L106.19 180.575C106.141 180.519 106.107 180.451 106.092 180.377C106.078 180.304 106.082 180.228 106.106 180.157C106.13 180.086 106.172 180.023 106.228 179.974C106.285 179.924 106.353 179.89 106.426 179.875L107.475 179.664L108.524 179.453C108.597 179.438 108.674 179.443 108.745 179.467C108.816 179.491 108.879 179.533 108.929 179.589C108.978 179.646 109.012 179.714 109.027 179.787C109.042 179.861 109.037 179.937 109.013 180.008L108.671 181.015Z" fill="#011721"/>
<path d="M79.6285 213.325L79.6695 214.395C79.6724 214.47 79.6555 214.544 79.6205 214.611C79.5855 214.677 79.5337 214.733 79.4702 214.773C79.4068 214.813 79.3339 214.835 79.259 214.838C79.1841 214.841 79.1098 214.824 79.0435 214.789L78.0965 214.289L77.1495 213.789C77.0832 213.754 77.0273 213.702 76.9874 213.639C76.9475 213.575 76.925 213.502 76.9222 213.428C76.9193 213.353 76.9363 213.279 76.9713 213.212C77.0062 213.146 77.0581 213.09 77.1215 213.05L78.0275 212.48L78.9335 211.91C78.9969 211.87 79.0699 211.847 79.1449 211.844C79.2199 211.841 79.2944 211.858 79.3608 211.893C79.4272 211.928 79.4832 211.98 79.5232 212.044C79.5632 212.107 79.5857 212.18 79.5885 212.255L79.6285 213.325Z" fill="#011721"/>
<path d="M102.2 120.727L101.976 121.774C101.96 121.847 101.926 121.914 101.876 121.969C101.826 122.024 101.762 122.065 101.692 122.088C101.621 122.111 101.545 122.115 101.472 122.1C101.4 122.085 101.332 122.051 101.276 122.002L100.481 121.285L99.6863 120.568C99.6305 120.518 99.5889 120.454 99.5657 120.382C99.5426 120.311 99.5387 120.235 99.5544 120.161C99.5701 120.088 99.6049 120.02 99.6553 119.964C99.7057 119.908 99.7698 119.867 99.8413 119.844L100.859 119.514L101.877 119.184C101.949 119.161 102.026 119.157 102.099 119.172C102.173 119.188 102.242 119.223 102.297 119.274C102.353 119.325 102.394 119.39 102.417 119.462C102.44 119.534 102.443 119.61 102.426 119.684L102.2 120.727Z" fill="#011721"/>
<path d="M253.331 83.899L252.881 84.87C252.849 84.938 252.8 84.9966 252.739 85.0398C252.677 85.0829 252.606 85.1092 252.531 85.1159C252.457 85.1226 252.381 85.1096 252.313 85.078C252.245 85.0464 252.187 84.9974 252.144 84.936L251.528 84.061L250.912 83.186C250.868 83.1246 250.842 83.053 250.836 82.9782C250.829 82.9035 250.842 82.8284 250.874 82.7603C250.905 82.6923 250.954 82.6337 251.016 82.5907C251.077 82.5476 251.149 82.5215 251.224 82.515L252.29 82.415L253.356 82.3149C253.43 82.3086 253.504 82.3217 253.572 82.353C253.639 82.3842 253.697 82.4326 253.74 82.4932C253.783 82.5538 253.81 82.6246 253.817 82.6986C253.824 82.7725 253.812 82.8472 253.782 82.915L253.331 83.899Z" fill="#011721"/>
<path d="M285.738 66.75L286.377 67.609C286.422 67.6691 286.45 67.74 286.458 67.8144C286.467 67.8889 286.456 67.9642 286.426 68.033C286.396 68.1019 286.349 68.1616 286.289 68.2064C286.229 68.2511 286.158 68.2793 286.084 68.288L285.021 68.412L283.958 68.536C283.883 68.5448 283.808 68.5339 283.739 68.5042C283.67 68.4745 283.61 68.4271 283.565 68.3668C283.52 68.3066 283.492 68.2356 283.483 68.161C283.475 68.0864 283.486 68.0109 283.516 67.942L283.94 66.959L284.364 65.976C284.394 65.9071 284.441 65.8472 284.501 65.8023C284.561 65.7575 284.632 65.7293 284.706 65.7205C284.781 65.7118 284.857 65.7229 284.925 65.7526C284.994 65.7824 285.054 65.8298 285.099 65.89L285.738 66.75Z" fill="#011721"/>
<path d="M208.282 16.057L208.268 17.127C208.267 17.202 208.246 17.2754 208.208 17.3399C208.17 17.4044 208.115 17.4576 208.049 17.4942C207.984 17.5308 207.91 17.5495 207.835 17.5484C207.76 17.5473 207.687 17.5265 207.622 17.488L206.703 16.94L205.783 16.393C205.718 16.3547 205.665 16.3 205.629 16.2345C205.592 16.1691 205.573 16.0951 205.574 16.0201C205.575 15.9451 205.596 15.8716 205.634 15.8072C205.673 15.7427 205.727 15.6895 205.793 15.653L206.727 15.13L207.661 14.607C207.727 14.5702 207.801 14.5514 207.876 14.5523C207.951 14.5533 208.024 14.5741 208.089 14.6125C208.153 14.6509 208.206 14.7057 208.243 14.7713C208.28 14.8368 208.298 14.9109 208.297 14.986L208.282 16.057Z" fill="#011721"/>
<path d="M279.854 164.931L238.209 173.117V130.887H270.709L279.854 164.931Z" fill="white"/>
<path d="M189.359 119.782L189.883 121.207L191.138 124.619C191.222 124.847 191.357 125.053 191.532 125.222C191.707 125.39 191.919 125.516 192.15 125.591C192.381 125.665 192.626 125.686 192.867 125.652C193.108 125.617 193.337 125.528 193.538 125.392L194.562 124.698C194.905 124.466 195.196 124.166 195.418 123.816C195.64 123.467 195.788 123.076 195.853 122.667C195.918 122.258 195.898 121.841 195.794 121.44C195.691 121.039 195.507 120.664 195.252 120.337L192.829 117.223L189.359 119.782Z" fill="#EDB29F"/>
<path d="M238.211 227.462H92.5057C92.4813 227.464 92.4568 227.461 92.4337 227.453C92.4105 227.444 92.3894 227.432 92.3714 227.415C92.3534 227.398 92.3391 227.378 92.3293 227.356C92.3195 227.333 92.3145 227.309 92.3145 227.285C92.3145 227.26 92.3195 227.236 92.3293 227.213C92.3391 227.191 92.3534 227.171 92.3714 227.154C92.3894 227.137 92.4105 227.125 92.4337 227.117C92.4568 227.108 92.4813 227.105 92.5057 227.107H238.211C238.235 227.105 238.26 227.108 238.283 227.117C238.306 227.125 238.327 227.137 238.345 227.154C238.363 227.171 238.377 227.191 238.387 227.213C238.397 227.236 238.402 227.26 238.402 227.285C238.402 227.309 238.397 227.333 238.387 227.356C238.377 227.378 238.363 227.398 238.345 227.415C238.327 227.432 238.306 227.444 238.283 227.453C238.26 227.461 238.235 227.464 238.211 227.462Z" fill="#011721"/>
</g>
<defs>
<clipPath id="clip0_246_669">
<rect width="339" height="248" fill="white"/>
</clipPath>
</defs>
</svg>
