<svg width="186" height="186" viewBox="0 0 186 186" fill="none" xmlns="http://www.w3.org/2000/svg">
<g clip-path="url(#clip0_246_720)">
<mask id="mask0_246_720" style="mask-type:luminance" maskUnits="userSpaceOnUse" x="0" y="0" width="186" height="186">
<path d="M186 0H0V186H186V0Z" fill="white"/>
</mask>
<g mask="url(#mask0_246_720)">
<path d="M185.837 92.873C185.848 103.404 184.066 113.859 180.566 123.791C180.273 124.62 179.97 125.443 179.655 126.261C178.936 128.128 178.159 129.964 177.324 131.769C176.385 133.803 175.376 135.796 174.295 137.749C172.656 140.714 170.855 143.586 168.902 146.354L168.825 146.464L168.72 146.612L168.715 146.619L168.643 146.719C168.51 146.906 168.376 147.093 168.243 147.279C165.278 151.372 161.985 155.218 158.398 158.779C158.209 158.966 158.02 159.153 157.829 159.339L157.802 159.365C140.476 176.304 117.198 185.773 92.968 185.741C70.8269 185.777 49.4074 177.87 32.6 163.457C31.0666 162.144 29.5763 160.782 28.129 159.372L28.102 159.346C27.9113 159.16 27.7216 158.973 27.533 158.786C23.9455 155.225 20.6531 151.379 17.688 147.286C17.5786 147.136 17.47 146.985 17.362 146.834L17.285 146.726C6.07081 131.011 0.0579262 112.18 0.0899712 92.874C0.0899712 68.2425 9.87474 44.6197 27.2918 27.2025C44.7088 9.78529 68.3314 0.000265215 92.963 0C117.595 -1.42782e-09 141.217 9.78477 158.634 27.2018C176.052 44.6189 185.837 68.2415 185.837 92.873Z" fill="url(#paint0_linear_246_720)"/>
<path d="M168.694 146.644L168.589 146.793L168.584 146.8C160.007 158.904 148.652 168.774 135.471 175.582C122.291 182.39 107.669 185.938 92.8344 185.927C78.0429 185.938 63.4634 182.411 50.3122 175.641C37.161 168.871 25.8196 159.054 17.2344 147.009L168.696 146.644H168.694Z" fill="url(#paint1_linear_246_720)"/>
<path d="M19.7957 145.911L166.24 145.898C166.24 145.898 169.286 146.998 165.062 148.898C160.838 150.798 124.445 144.721 115.509 149.628C106.573 154.535 128.344 165.583 106.086 161.684C83.8277 157.785 63.1857 150.975 57.4787 156.012C51.7717 161.049 38.6227 159.262 31.5657 154.202C25.1857 149.627 19.8847 148.645 19.4297 146.585C19.432 146.58 19.4347 146.575 19.4377 146.57C19.4377 146.57 19.6567 146.17 19.7947 145.915L19.7957 145.911Z" fill="url(#paint2_linear_246_720)"/>
<path d="M174.88 66.829C177.908 64.833 180.083 61.7792 180.979 58.2647C181.876 54.7502 181.429 51.0278 179.726 47.8254C178.024 44.6229 175.188 42.1707 171.773 40.9482C168.358 39.7257 164.61 39.8208 161.262 41.215C161.102 36.4642 159.226 31.9325 155.98 28.4593C152.735 24.9861 148.341 22.807 143.612 22.3258C138.883 21.8445 134.14 23.0936 130.261 25.8418C126.383 28.59 123.632 32.6508 122.518 37.272C119.082 36.4693 115.469 37.0475 112.455 38.882C109.441 40.7166 107.268 43.6609 106.403 47.0814C105.538 50.502 106.05 54.1254 107.83 57.1721C109.609 60.2187 112.514 62.445 115.918 63.372C115.002 68.889 115.792 74.5543 118.182 79.6103C120.572 84.6663 124.449 88.8721 129.295 91.6652C134.14 94.4583 139.722 95.7057 145.295 95.2405C150.869 94.7753 156.167 92.6197 160.482 89.062C163.394 90.2991 166.65 90.4693 169.675 89.5427C172.701 88.6162 175.303 86.6521 177.023 83.9963C178.743 81.3405 179.472 78.163 179.08 75.0231C178.688 71.8832 177.202 68.9819 174.882 66.83L174.88 66.829Z" fill="#E3F0F0"/>
<path d="M139.763 143.836H149.415V80.813L161.815 72.592H168.763V71.879L163.154 71.167L167.873 62.798L167.294 62.352L160.126 70.499L145.97 77.889L136.577 73.171L135.82 74.106L142.898 81.585L139.763 143.836Z" fill="url(#paint3_linear_246_720)"/>
<path d="M156.343 37.869C157.233 40.006 155.675 44.057 154.117 44.903C154.117 44.903 157.1 46.503 158.301 42.766C159.502 39.029 156.343 37.866 156.343 37.866V37.869Z" fill="#E3F0F0"/>
<path d="M174.586 48.217C175.225 49.749 174.107 52.654 172.986 53.26C172.986 53.26 175.125 54.409 175.986 51.728C176.131 51.4064 176.21 51.0589 176.217 50.7063C176.225 50.3537 176.161 50.0032 176.031 49.6756C175.9 49.348 175.705 49.0501 175.457 48.7995C175.209 48.5489 174.913 48.3508 174.586 48.217Z" fill="#E3F0F0"/>
<path d="M176.814 55.829C176.295 57.545 173.37 59.202 172.021 58.941C172.021 58.941 173.021 61.367 175.576 59.722C175.918 59.5527 176.222 59.3163 176.471 59.0269C176.719 58.7376 176.906 58.4012 177.022 58.0378C177.138 57.6744 177.179 57.2914 177.143 56.9118C177.107 56.5321 176.996 56.1645 176.814 55.829Z" fill="#E3F0F0"/>
<path d="M168.763 54.156C167.194 55.593 163.204 55.51 161.987 54.427C161.987 54.427 161.532 57.506 165.141 57.378C168.75 57.25 168.763 54.156 168.763 54.156Z" fill="#E3F0F0"/>
<path d="M138.078 146.423C138.352 146.102 138.688 145.839 139.066 145.653C139.444 145.466 139.857 145.358 140.278 145.336C140.366 144.162 140.912 143.069 141.798 142.294C142.685 141.519 143.841 141.125 145.016 141.195C149.439 141.295 149.445 143.94 149.445 143.94C149.445 143.94 151.623 137.053 156.565 137.409C157.901 137.452 159.18 137.962 160.179 138.851C161.178 139.739 161.833 140.951 162.03 142.273C162.03 142.273 168.245 142.153 168.84 146.394L138.079 146.424L138.078 146.423Z" fill="#E3F0F0"/>
<path d="M111.395 146.423C111.771 145.788 112.302 145.259 112.939 144.886C113.576 144.513 114.297 144.308 115.035 144.29C115.035 144.29 115.564 138.115 122.006 138.335C128.448 138.555 128.414 142.406 128.414 142.406C128.414 142.406 131.699 132.406 138.893 133.006C140.838 133.09 142.693 133.855 144.133 135.166C145.574 136.477 146.508 138.252 146.774 140.182C146.774 140.182 156.084 140.15 156.809 146.421L111.395 146.423Z" fill="#E3F0F0"/>
<path d="M165.799 121.286C166.955 120.524 167.785 119.358 168.127 118.016C168.468 116.674 168.298 115.253 167.648 114.031C166.998 112.808 165.915 111.872 164.612 111.405C163.308 110.938 161.877 110.974 160.599 111.506C160.549 109.684 159.838 107.942 158.598 106.606C157.358 105.27 155.674 104.432 153.861 104.247C152.047 104.063 150.229 104.545 148.745 105.604C147.261 106.662 146.214 108.225 145.799 110C144.489 109.698 143.112 109.922 141.965 110.623C140.818 111.324 139.99 112.446 139.661 113.75C139.331 115.053 139.525 116.434 140.202 117.596C140.878 118.758 141.983 119.609 143.279 119.966C142.93 122.073 143.232 124.236 144.145 126.166C145.059 128.097 146.54 129.702 148.39 130.768C150.241 131.834 152.372 132.31 154.501 132.131C156.629 131.953 158.652 131.129 160.299 129.77C161.411 130.243 162.654 130.308 163.81 129.955C164.965 129.601 165.959 128.851 166.616 127.837C167.274 126.823 167.552 125.609 167.402 124.41C167.253 123.211 166.685 122.103 165.799 121.281V121.286Z" fill="#ACD3D3"/>
<path d="M152.387 146.904H156.069V126.324L160.803 123.185H163.455V122.913L161.313 122.641L163.113 119.441L162.892 119.271L160.155 122.382L154.749 125.204L151.162 123.404L150.873 123.761L153.573 126.617L152.387 146.904Z" fill="url(#paint4_linear_246_720)"/>
<path d="M158.717 110.227C158.833 110.71 158.815 111.215 158.665 111.688C158.515 112.161 158.239 112.585 157.867 112.913C157.867 112.913 159.006 113.525 159.467 112.097C159.544 111.925 159.586 111.74 159.59 111.552C159.593 111.364 159.559 111.177 159.489 111.003C159.419 110.828 159.315 110.67 159.182 110.536C159.05 110.403 158.891 110.298 158.717 110.227Z" fill="#E3F0F0"/>
<path d="M165.683 114.182C165.766 114.528 165.753 114.89 165.646 115.23C165.539 115.569 165.341 115.873 165.074 116.108C165.074 116.108 165.891 116.547 166.22 115.523C166.276 115.4 166.306 115.267 166.31 115.132C166.313 114.998 166.288 114.863 166.238 114.738C166.188 114.613 166.113 114.499 166.018 114.403C165.923 114.308 165.809 114.233 165.684 114.182H165.683Z" fill="#E3F0F0"/>
<path d="M166.533 117.085C166.365 117.431 166.105 117.724 165.783 117.933C165.461 118.142 165.087 118.26 164.703 118.273C164.754 118.4 164.836 118.513 164.94 118.601C165.044 118.69 165.169 118.751 165.303 118.781C165.436 118.81 165.575 118.807 165.707 118.771C165.839 118.734 165.96 118.667 166.06 118.573C166.191 118.508 166.307 118.418 166.402 118.308C166.497 118.197 166.568 118.069 166.612 117.93C166.657 117.791 166.672 117.645 166.659 117.5C166.645 117.355 166.602 117.214 166.533 117.086V117.085Z" fill="#E3F0F0"/>
<path d="M163.459 116.446C163.078 116.696 162.636 116.837 162.18 116.855C161.724 116.873 161.272 116.766 160.872 116.546C160.872 116.546 160.698 117.722 162.072 117.673C162.245 117.687 162.418 117.666 162.582 117.611C162.746 117.556 162.897 117.469 163.027 117.354C163.156 117.24 163.261 117.1 163.335 116.944C163.41 116.788 163.452 116.619 163.459 116.446Z" fill="#E3F0F0"/>
<path d="M17.0243 107.432C15.4498 106.395 14.3188 104.809 13.8525 102.982C13.3861 101.156 13.6181 99.2213 14.503 97.5569C15.3878 95.8925 16.8619 94.6182 18.6367 93.9833C20.4116 93.3483 22.3595 93.3985 24.0993 94.124C24.1814 91.6553 25.1558 89.3 26.8419 87.4949C28.528 85.6898 30.8114 84.5572 33.2687 84.307C35.7261 84.0569 38.1909 84.7062 40.2061 86.1345C42.2213 87.5629 43.6503 89.6734 44.2283 92.075C46.0104 91.6661 47.8818 91.9712 49.4417 92.9251C51.0017 93.879 52.1261 95.4057 52.5742 97.1784C53.0224 98.9511 52.7586 100.829 51.8394 102.409C50.9202 103.99 49.4186 105.148 47.6563 105.635C48.1322 108.501 47.7217 111.445 46.4797 114.071C45.2378 116.698 43.2235 118.883 40.7063 120.334C38.1891 121.785 35.2888 122.433 32.3933 122.192C29.4979 121.95 26.7452 120.83 24.5033 118.982C22.9903 119.624 21.2993 119.712 19.7279 119.23C18.1565 118.749 16.8052 117.728 15.9118 116.349C15.0184 114.969 14.64 113.319 14.8433 111.688C15.0466 110.057 15.8195 108.55 17.0243 107.432Z" fill="#ACD3D3"/>
<path d="M35.2691 142.698H30.2551V114.698L23.8171 110.426H20.2051V110.056L23.1191 109.686L20.6671 105.338L20.9671 105.107L24.6901 109.339L32.0451 113.179L36.9251 110.728L37.3181 111.213L33.6411 115.099L35.2691 142.698Z" fill="url(#paint5_linear_246_720)"/>
<path d="M26.6556 92.386C26.4984 93.0426 26.523 93.7296 26.7266 94.3734C26.9303 95.0171 27.3053 95.5932 27.8116 96.04C27.8116 96.04 26.2616 96.873 25.6376 94.93C25.5321 94.6968 25.4749 94.4448 25.4692 94.1889C25.4636 93.9331 25.5097 93.6788 25.6047 93.4412C25.6998 93.2036 25.8419 92.9877 26.0225 92.8063C26.203 92.625 26.4184 92.482 26.6556 92.386Z" fill="#E3F0F0"/>
<path d="M17.1783 97.763C17.0656 98.2338 17.0832 98.7265 17.2292 99.188C17.3753 99.6496 17.6443 100.063 18.0073 100.383C18.0073 100.383 16.8963 100.983 16.4483 99.583C16.3739 99.416 16.3338 99.2357 16.3303 99.0528C16.3269 98.87 16.3602 98.6883 16.4283 98.5186C16.4963 98.3488 16.5978 98.1945 16.7267 98.0647C16.8555 97.9349 17.0091 97.8323 17.1783 97.763Z" fill="#E3F0F0"/>
<path d="M16.0211 101.716C16.2502 102.186 16.603 102.585 17.0417 102.87C17.4804 103.155 17.9883 103.315 18.5111 103.333C18.4415 103.506 18.3308 103.659 18.1885 103.779C18.0463 103.9 17.8768 103.984 17.6948 104.024C17.5128 104.064 17.3238 104.059 17.1442 104.009C16.9646 103.959 16.7998 103.867 16.6641 103.739C16.4866 103.651 16.3286 103.528 16.1995 103.378C16.0705 103.228 15.9731 103.053 15.913 102.864C15.853 102.675 15.8317 102.476 15.8502 102.279C15.8688 102.082 15.9269 101.89 16.0211 101.716Z" fill="#E3F0F0"/>
<path d="M20.2041 100.848C20.7228 101.189 21.3244 101.382 21.9446 101.407C22.5647 101.432 23.1799 101.287 23.7241 100.989C23.7241 100.989 23.9601 102.589 22.0851 102.522C21.8508 102.54 21.6152 102.51 21.3925 102.435C21.1698 102.36 20.9645 102.241 20.7889 102.084C20.6133 101.928 20.4709 101.738 20.3703 101.526C20.2696 101.313 20.2138 101.083 20.2041 100.848Z" fill="#E3F0F0"/>
<path d="M45.5807 146.582H19.4297C19.5989 146.118 19.9039 145.716 20.3048 145.428C20.7058 145.141 21.1842 144.98 21.6777 144.968C21.7508 143.983 22.2089 143.065 22.953 142.415C23.6971 141.765 24.6673 141.434 25.6537 141.493C29.3647 141.577 29.3707 143.793 29.3707 143.793C29.3707 143.793 31.1977 138.015 35.3437 138.312C36.4648 138.348 37.5379 138.776 38.3758 139.522C39.2136 140.267 39.7632 141.284 39.9287 142.393C39.9287 142.393 45.9527 142.306 45.7707 146.618C45.709 146.597 45.6447 146.584 45.5797 146.58L45.5807 146.582Z" fill="#E3F0F0"/>
<path d="M147.186 146.423H146.086V102.947C146.088 100.673 146.993 98.4933 148.6 96.8855C150.208 95.2777 152.388 94.3734 154.662 94.371H170.449V95.466H154.666C152.683 95.4682 150.781 96.257 149.378 97.6595C147.976 99.062 147.187 100.964 147.185 102.947V146.423H147.186Z" fill="white"/>
<path d="M154.359 94.021H154.055V96.84H154.359V94.021Z" fill="white"/>
<path d="M169.991 94.021H169.688V96.84H169.991V94.021Z" fill="white"/>
<path d="M170.448 96.341H153.209V112.279H170.448V96.341Z" fill="white"/>
<path d="M105.656 83.404H39.291V144.953H105.656V83.404Z" fill="#F4F5F9"/>
<path d="M143.321 144.963L87.5215 144.955L87.5365 44.532L143.336 61.721L143.321 144.963Z" fill="#F4F5F9"/>
<path d="M140.238 60.768V144.968H143.321L143.333 61.725L140.238 60.768Z" fill="url(#paint6_linear_246_720)"/>
<path d="M143.333 61.719V70.331L87.5273 53.144V44.532L143.333 61.719Z" fill="url(#paint7_linear_246_720)"/>
<path d="M152.779 144.965L38.333 144.952C36.194 144.952 34.46 144.752 34.459 146.888L156.652 146.906C156.653 144.763 154.919 144.965 152.779 144.965Z" fill="white"/>
<path d="M117.798 110.946L117.795 126.735L144.673 126.74L144.676 110.951L117.798 110.946Z" fill="white"/>
<path d="M143.908 111.982V125.702H118.559V111.983L143.908 111.982Z" fill="url(#paint8_linear_246_720)"/>
<path d="M133.494 112.037L143.721 126.037L140.576 125.954L135.385 119.629L137.38 125.869L129.353 125.656L118.744 111.65L125.669 111.833L130.343 118.819L127.827 111.89L133.494 112.037Z" fill="url(#paint9_linear_246_720)"/>
<path d="M131.583 111.215V126.464H130.883V111.215H131.583Z" fill="white"/>
<path d="M79.5251 140.28H48.3301L48.3361 98.259H79.5311L79.5251 140.28Z" fill="white"/>
<path d="M78.2728 99.401H49.5918V139.112H78.2728V99.401Z" fill="url(#paint10_linear_246_720)"/>
<path d="M64.3364 139.113H63.5234V98.549H64.3414L64.3364 139.113Z" fill="white"/>
<path d="M62.8906 94.453H66.6646V95.962H62.8906V94.453Z" fill="white"/>
<path d="M59.0961 92.9334L62.8691 92.934L62.8694 91.425L59.0964 91.4244L59.0961 92.9334Z" fill="white"/>
<path d="M62.8906 91.432H66.6646V92.942H62.8906V91.432Z" fill="#F6F6F6"/>
<path d="M134.238 137.293H130.465V138.802H134.238V137.293Z" fill="white"/>
<path d="M132.468 135.772H128.695V137.281H132.468V135.772Z" fill="white"/>
<path d="M132.486 135.782H136.259V137.291H132.486V135.782Z" fill="white"/>
<path d="M125.531 98.852H121.758V100.361H125.531V98.852Z" fill="white"/>
<path d="M127.298 100.373H123.525V101.882H127.298V100.373Z" fill="white"/>
<path d="M123.509 100.362H119.736V101.872H123.509V100.362Z" fill="white"/>
<path d="M143.723 89.903H86.5566V91.591H143.723V89.903Z" fill="url(#paint11_linear_246_720)"/>
<path d="M47.6806 83.409H46.5586V74.809H47.6796L47.6806 83.409Z" fill="#E3F0F0"/>
<path d="M55.4569 74.807H54.3359V83.406H55.4569V74.807Z" fill="#E3F0F0"/>
<path d="M63.2323 74.809H62.1113V83.408H63.2323V74.809Z" fill="#E3F0F0"/>
<path d="M71.0077 74.809H69.8867V83.408H71.0077V74.809Z" fill="#E3F0F0"/>
<path d="M78.7831 74.811H77.6621V83.41H78.7831V74.811Z" fill="#E3F0F0"/>
<path d="M86.5585 74.811H85.4375V83.41H86.5585V74.811Z" fill="#E1D7DB"/>
<path d="M86.5585 79.407L85.4375 76.122V74.807H86.5585V79.407Z" fill="#E3F0F0"/>
<path d="M87.8117 75.307L45.5117 75.301V74.311L87.8117 74.317V75.307Z" fill="#E3F0F0"/>
<path d="M149.649 67.542L80.0566 46.082L81.5666 41.182L151.16 62.642L149.649 67.542Z" fill="white"/>
<path d="M122.39 73.094C122.39 74.5338 121.962 75.9411 121.162 77.138C120.362 78.3349 119.225 79.2677 117.895 79.8184C116.564 80.3691 115.101 80.513 113.689 80.2319C112.277 79.9508 110.98 79.2572 109.962 78.239C108.944 77.2208 108.251 75.9237 107.97 74.5115C107.689 73.0994 107.833 71.6357 108.384 70.3056C108.935 68.9755 109.869 67.8386 111.066 67.0388C112.263 66.2389 113.67 65.812 115.11 65.812C116.066 65.812 117.013 66.0004 117.896 66.3664C118.78 66.7323 119.582 67.2688 120.259 67.945C120.935 68.6212 121.471 69.424 121.837 70.3075C122.202 71.1909 122.39 72.1378 122.39 73.094Z" fill="white"/>
<path d="M121.382 73.094C121.382 74.3343 121.014 75.5468 120.325 76.5781C119.636 77.6094 118.656 78.4131 117.51 78.8877C116.364 79.3623 115.104 79.4865 113.887 79.2444C112.671 79.0024 111.553 78.405 110.676 77.5279C109.799 76.6508 109.202 75.5333 108.96 74.3168C108.718 73.1003 108.843 71.8394 109.317 70.6935C109.792 69.5476 110.596 68.5683 111.628 67.8794C112.659 67.1904 113.872 66.8228 115.112 66.823C115.935 66.823 116.751 66.9852 117.512 67.3004C118.272 67.6155 118.964 68.0775 119.546 68.6598C120.128 69.2421 120.59 69.9334 120.905 70.6943C121.22 71.4551 121.382 72.2705 121.382 73.094Z" fill="url(#paint12_linear_246_720)"/>
<path d="M115.528 65.813H114.691V80.374H115.528V65.813Z" fill="white"/>
<path d="M122.389 72.675V73.512H107.828V72.675H122.389Z" fill="white"/>
<path d="M114.741 107.33H93.1582V145.056H114.741V107.33Z" fill="white"/>
<path d="M113.579 108.389H94.3184V145.057H113.579V108.389Z" fill="url(#paint13_linear_246_720)"/>
<path d="M98.8202 126.719H95.5352V126.19H98.8192L98.8202 126.719Z" fill="white"/>
<path d="M104.416 67.6751C104.416 67.5921 104.051 67.5241 103.573 67.5101C103.56 67.0321 103.491 66.6671 103.408 66.6671C103.325 66.6671 103.256 67.0321 103.243 67.5101C102.765 67.5231 102.4 67.5921 102.4 67.6751C102.4 67.7581 102.765 67.8271 103.243 67.8401C103.256 68.3181 103.325 68.6831 103.408 68.6831C103.491 68.6831 103.559 68.3181 103.573 67.8401C104.051 67.8271 104.416 67.7581 104.416 67.6751Z" fill="#E3F0F0"/>
<path d="M102.063 59.1C102.063 58.985 101.557 58.89 100.895 58.872C100.877 58.21 100.782 57.704 100.667 57.704C100.552 57.704 100.457 58.21 100.439 58.872C99.7775 58.89 99.2715 58.985 99.2715 59.1C99.2715 59.215 99.7775 59.31 100.439 59.328C100.457 59.99 100.552 60.496 100.667 60.496C100.782 60.496 100.877 59.99 100.895 59.328C101.557 59.31 102.063 59.215 102.063 59.1Z" fill="#E3F0F0"/>
<path d="M108.65 62.3181C108.65 62.2181 108.204 62.133 107.621 62.118C107.605 61.535 107.521 61.0891 107.421 61.0891C107.321 61.0891 107.236 61.535 107.221 62.118C106.638 62.134 106.191 62.2181 106.191 62.3181C106.191 62.4181 106.637 62.5031 107.221 62.5181C107.237 63.1011 107.321 63.5471 107.421 63.5471C107.521 63.5471 107.606 63.1011 107.621 62.5181C108.204 62.5061 108.65 62.4191 108.65 62.3181Z" fill="url(#paint14_linear_246_720)"/>
<path d="M38.7988 34.9261H73.3138C73.3138 34.9261 74.5208 24.5421 66.8228 24.5421C59.1248 24.5421 59.9668 31.8051 59.9668 31.8051C59.9668 31.8051 59.3188 27.3371 53.6578 27.6101C49.0278 27.8331 48.6928 31.1491 48.6928 31.1491C48.6928 31.1491 39.9498 30.4171 38.7988 34.9261Z" fill="#FF6902"/>
<path d="M118.972 24.374H96.7317C96.7317 24.374 95.9547 17.683 100.915 17.683C101.532 17.6284 102.153 17.7143 102.732 17.9341C103.311 18.154 103.833 18.5022 104.258 18.9526C104.683 19.4029 105 19.9437 105.187 20.5344C105.373 21.1251 105.423 21.7503 105.333 22.363C105.333 22.363 105.75 19.484 109.398 19.663C112.381 19.807 112.598 21.943 112.598 21.943C112.598 21.943 118.232 21.471 118.973 24.377L118.972 24.374Z" fill="#FF6902"/>
<path d="M93.5449 144.648C93.5849 144.822 94.1539 147.835 94.5529 148.11C94.9519 148.385 96.7529 148.001 96.8439 147.585C96.7935 146.375 96.6797 145.168 96.5029 143.97L93.5449 144.648Z" fill="#FFD2B3"/>
<path d="M93.9605 147.386C93.6255 147.138 93.6835 151.102 93.9605 151.207C94.2375 151.312 101.318 151.498 101.973 151.207C102.145 151.097 102.279 150.937 102.358 150.748C102.436 150.559 102.454 150.351 102.411 150.152C102.367 149.952 102.264 149.771 102.114 149.632C101.964 149.493 101.776 149.404 101.573 149.375C100.482 149.152 98.1955 148.754 97.5015 147.882C97.3437 147.327 97.1261 146.79 96.8525 146.282C96.6745 146.173 96.6055 147.382 96.6055 147.382C96.6055 147.382 94.7615 147.977 93.9575 147.382L93.9605 147.386Z" fill="#D1553D"/>
<path d="M93.7309 150.56C93.7229 150.699 93.7209 151.315 93.9709 151.36C94.2209 151.405 102.219 151.47 102.271 151.36C102.315 151.162 102.348 150.962 102.371 150.76C102.397 150.682 93.7339 150.552 93.7339 150.552L93.7309 150.56Z" fill="#AE3B2A"/>
<path d="M98.0565 149.067C97.8655 148.851 98.2895 148.348 98.4135 148.383C98.5375 148.418 98.2455 149.278 98.0565 149.067Z" fill="white"/>
<path d="M98.746 149.295C98.555 149.079 98.979 148.576 99.103 148.611C99.227 148.646 98.934 149.503 98.746 149.295Z" fill="white"/>
<path d="M99.5839 149.469C99.3929 149.253 99.8169 148.75 99.9409 148.785C100.065 148.82 99.7729 149.682 99.5839 149.469Z" fill="white"/>
<path d="M96.4793 149.319C96.4793 149.454 96.4392 149.587 96.3641 149.699C96.2889 149.812 96.1821 149.899 96.0571 149.951C95.9321 150.003 95.7946 150.016 95.6619 149.99C95.5292 149.964 95.4073 149.898 95.3117 149.803C95.216 149.707 95.1509 149.585 95.1245 149.452C95.0981 149.32 95.1116 149.182 95.1634 149.057C95.2152 148.932 95.3028 148.825 95.4153 148.75C95.5278 148.675 95.6601 148.635 95.7953 148.635C95.9767 148.635 96.1507 148.707 96.279 148.835C96.4073 148.964 96.4793 149.138 96.4793 149.319Z" fill="#AE3B2A"/>
<path d="M94.1929 99.599C94.9399 108.72 97.5519 140.525 98.0069 144.459C97.2659 144.788 93.8379 145.737 93.0139 144.913C92.2139 144.113 83.0409 102.413 82.4219 99.598H94.1939L94.1929 99.599Z" fill="#2A454D"/>
<path d="M88.3998 100.056L88.0578 110.256L88.4878 118.564C88.4878 118.564 93.4478 146.494 93.0148 144.914C90.7078 136.526 82.5148 101.564 82.0508 99.599L88.4008 100.053L88.3998 100.056Z" fill="#1B2E36"/>
<path d="M79.9008 147.121C78.9188 147.121 78.0378 147.076 77.9818 147.556C77.9258 148.036 77.9258 151.371 78.2268 151.504C78.5278 151.637 84.9858 151.504 85.6218 151.504C86.2578 151.504 86.0118 149.217 84.0488 149.173L81.6288 147.221L79.9008 147.121Z" fill="#D1553D"/>
<path d="M78.0583 150.924C78.0583 150.919 80.9073 151.055 82.5013 151.047C83.0688 150.677 83.7437 150.508 84.4183 150.567C84.9512 150.483 85.4959 150.611 85.9353 150.924C86.0073 150.996 86.1473 151.684 85.8353 151.739C85.5233 151.794 78.3493 151.862 78.2283 151.739C77.9883 151.496 78.0583 150.924 78.0583 150.924Z" fill="#AE3B2A"/>
<path d="M78.1445 143.654C78.1445 143.854 78.3225 146.882 78.3785 147.703C78.7465 148.103 81.0375 148.235 81.2385 147.803C81.2385 147.123 81.5575 143.657 81.5575 143.657H78.1445V143.654Z" fill="#FFD2B3"/>
<path d="M79.2363 148.17C79.0853 147.929 78.9573 146.541 79.5703 146.129C80.1833 145.717 81.1413 145.761 81.3703 146.129C81.623 146.768 81.7988 147.435 81.8943 148.116C81.9273 148.393 79.6523 148.828 79.2393 148.17H79.2363Z" fill="#D1553D"/>
<path d="M80.9597 150.188C81.3762 149.814 81.866 149.53 82.398 149.356C82.9299 149.181 83.4924 149.119 84.0497 149.173C83.735 148.957 83.367 148.831 82.9858 148.808C82.6045 148.786 82.2244 148.869 81.8867 149.047C80.7977 149.441 80.9597 150.188 80.9597 150.188Z" fill="#AE3B2A"/>
<path d="M78.8163 149.827C79.0891 149.827 79.3103 149.533 79.3103 149.171C79.3103 148.809 79.0891 148.515 78.8163 148.515C78.5434 148.515 78.3223 148.809 78.3223 149.171C78.3223 149.533 78.5434 149.827 78.8163 149.827Z" fill="#AE3B2A"/>
<path d="M81.3283 148.84C81.6073 148.683 83.0123 148.594 82.7003 148.404C82.3883 148.214 81.3393 148.438 81.2613 148.683C81.1833 148.928 81.3283 148.84 81.3283 148.84Z" fill="white"/>
<path d="M80.8947 148.362C81.1737 148.205 82.5787 148.116 82.2667 147.926C81.9547 147.736 80.9057 147.959 80.8277 148.205C80.7497 148.451 80.8947 148.362 80.8947 148.362Z" fill="white"/>
<path d="M80.4592 147.883C80.7382 147.726 82.1432 147.636 81.8312 147.447C81.5192 147.258 80.4702 147.481 80.3922 147.726C80.3142 147.971 80.4592 147.883 80.4592 147.883Z" fill="white"/>
<path d="M88.2253 100.762C87.7773 102.155 86.6943 107.262 86.6943 107.262C86.6943 107.262 82.8943 144.342 82.5943 144.701C82.1823 145.195 79.6853 145.452 77.9533 144.649C77.3283 143.242 76.8343 104.06 76.7773 100.049L88.2263 100.755L88.2253 100.762Z" fill="#2A454D"/>
<path d="M78.5245 105.034C78.5195 104.781 79.6065 104.593 80.7625 103.959C81.9355 103.35 82.7675 102.612 82.9515 102.759C83.0435 102.831 82.9415 103.136 82.6365 103.519C82.2311 104.014 81.7284 104.42 81.1595 104.713C80.5937 105.022 79.9654 105.2 79.3215 105.232C78.8285 105.249 78.5275 105.142 78.5215 105.032L78.5245 105.034Z" fill="#1B2E36"/>
<path d="M103.826 82.717C104.288 82.2525 104.83 81.8751 105.426 81.603C105.826 81.596 107.526 81.044 107.665 81.142C107.804 81.24 107.794 81.625 107.232 81.877C106.67 82.129 106.061 82.058 106.268 82.337C106.475 82.616 107.368 82.805 107.368 82.805C107.943 82.5689 108.547 82.4102 109.163 82.333C109.203 82.3586 109.234 82.3954 109.253 82.4386C109.272 82.4818 109.277 82.5296 109.269 82.576C109.588 82.425 109.914 82.346 110.005 82.57C110.043 82.664 109.505 83.062 109.054 83.47C108.714 83.7974 108.289 84.0226 107.827 84.12C107.582 84.1295 107.336 84.1161 107.093 84.08L106.707 84.474C106.707 84.474 106.12 84.474 105.517 84.449C105.494 84.484 104.529 85.249 104.529 85.249L103.16 83.249L103.825 82.714L103.826 82.717Z" fill="#FFD2B3"/>
<path d="M105.091 83.149C105.091 83.149 105.129 83.129 105.204 83.114C105.313 83.0968 105.425 83.1013 105.533 83.127C105.7 83.1637 105.864 83.2163 106.022 83.284C106.114 83.322 106.21 83.365 106.309 83.414C106.358 83.438 106.409 83.464 106.46 83.491L106.537 83.533L106.632 83.587L106.892 83.424L107.151 83.268C107.329 83.168 107.515 83.056 107.71 82.956C107.798 82.911 107.886 82.869 107.974 82.835C108.016 82.8176 108.06 82.8033 108.105 82.792C108.125 82.787 108.145 82.7846 108.166 82.785C108.172 82.7836 108.179 82.7836 108.185 82.785C108.191 82.806 108.164 82.855 108.146 82.892C108.126 82.9315 108.104 82.9695 108.079 83.006C108.031 83.0786 107.979 83.1487 107.924 83.216C107.729 83.4494 107.523 83.6724 107.305 83.884C107.12 84.067 106.967 84.211 106.862 84.311C106.805 84.3603 106.751 84.4138 106.702 84.471C106.766 84.4302 106.826 84.3837 106.881 84.332C106.992 84.238 107.151 84.099 107.341 83.92C107.565 83.7122 107.777 83.4911 107.975 83.258C108.032 83.1896 108.086 83.1182 108.136 83.044C108.163 83.0055 108.187 82.965 108.208 82.923C108.238 82.8778 108.254 82.8244 108.253 82.77C108.25 82.7596 108.246 82.7498 108.239 82.7413C108.233 82.7327 108.225 82.7254 108.216 82.72C108.201 82.7122 108.184 82.7077 108.167 82.707C108.14 82.706 108.113 82.7087 108.087 82.715C108.038 82.7265 107.991 82.7415 107.945 82.76C107.853 82.796 107.764 82.839 107.675 82.884C107.475 82.984 107.29 83.093 107.113 83.2L106.854 83.359L106.627 83.504L106.564 83.47L106.485 83.429C106.433 83.402 106.385 83.377 106.331 83.354C106.231 83.307 106.131 83.265 106.039 83.228C105.878 83.1624 105.71 83.1139 105.539 83.083C105.427 83.0583 105.311 83.0583 105.199 83.083C105.169 83.0904 105.141 83.1022 105.115 83.118C105.098 83.129 105.09 83.137 105.09 83.137L105.091 83.149Z" fill="url(#paint15_linear_246_720)"/>
<path d="M105.519 84.453C105.519 84.453 105.492 84.432 105.438 84.408C105.362 84.3777 105.288 84.3416 105.218 84.3L105.148 84.259C105.122 84.2457 105.097 84.2296 105.075 84.211C105.029 84.172 104.975 84.136 104.927 84.088C104.822 83.986 104.735 83.8666 104.67 83.735C104.636 83.667 104.607 83.5965 104.583 83.524C104.563 83.4556 104.547 83.3862 104.535 83.316C104.514 83.1965 104.504 83.0753 104.505 82.954C104.505 82.746 104.532 82.618 104.522 82.616C104.478 82.7225 104.455 82.8367 104.455 82.952C104.442 83.1514 104.463 83.3515 104.516 83.544L104.556 83.655C104.569 83.6935 104.585 83.7307 104.605 83.766C104.673 83.905 104.767 84.0301 104.881 84.135C104.932 84.1789 104.985 84.2199 105.04 84.258C105.064 84.2766 105.09 84.2924 105.118 84.305L105.193 84.343C105.268 84.382 105.346 84.4122 105.428 84.433C105.485 84.45 105.517 84.457 105.518 84.452L105.519 84.453Z" fill="url(#paint16_linear_246_720)"/>
<path d="M107.94 83.302C107.94 83.302 107.986 83.322 108.067 83.302C108.18 83.2623 108.283 83.1974 108.367 83.112C108.426 83.0553 108.482 82.9952 108.535 82.932C108.596 82.8632 108.667 82.8041 108.746 82.757C108.834 82.706 108.931 82.6721 109.032 82.657C109.085 82.6501 109.139 82.6501 109.193 82.657C109.219 82.6596 109.245 82.6653 109.27 82.674C109.284 82.6781 109.297 82.686 109.307 82.697C109.307 82.697 109.307 82.704 109.299 82.711L109.282 82.736C109.27 82.753 109.256 82.77 109.242 82.787C109.214 82.821 109.184 82.855 109.153 82.887C109.092 82.955 109.028 83.023 108.963 83.087C108.752 83.308 108.547 83.514 108.363 83.701L108.096 83.964C108.076 83.9841 108.056 84.0028 108.034 84.02C108.013 84.0344 107.991 84.0458 107.968 84.054C107.92 84.0691 107.87 84.0799 107.82 84.086C107.664 84.1033 107.507 84.109 107.35 84.103C107.292 84.0982 107.234 84.0982 107.176 84.103C107.232 84.1199 107.29 84.1293 107.349 84.131C107.508 84.1477 107.668 84.1493 107.827 84.136C107.881 84.1308 107.934 84.1208 107.987 84.106C108.016 84.0966 108.044 84.0828 108.07 84.065C108.094 84.0472 108.116 84.0278 108.138 84.007C108.225 83.927 108.316 83.839 108.411 83.747C108.601 83.562 108.811 83.357 109.02 83.135C109.085 83.066 109.149 82.998 109.211 82.929C109.242 82.895 109.272 82.86 109.301 82.829C109.316 82.811 109.33 82.793 109.343 82.775L109.363 82.745C109.372 82.7312 109.379 82.7155 109.382 82.699C109.382 82.6859 109.379 82.6729 109.373 82.6612C109.366 82.6495 109.358 82.6395 109.347 82.632C109.332 82.6216 109.316 82.6131 109.299 82.607C109.268 82.5963 109.237 82.5895 109.205 82.587C109.145 82.5816 109.086 82.5839 109.027 82.594C108.918 82.6129 108.814 82.6526 108.721 82.711C108.638 82.7628 108.564 82.8273 108.501 82.902C108.451 82.9657 108.398 83.0268 108.342 83.085C108.265 83.1696 108.172 83.2377 108.068 83.285C108.03 83.2998 107.99 83.3089 107.949 83.312L107.94 83.302Z" fill="url(#paint17_linear_246_720)"/>
<path d="M87.8867 77.706L89.6727 78.152L95.2257 86.195L103.485 82.754L105.218 85.172C105.218 85.172 98.0867 92.272 95.1687 92.911C93.7297 93.228 89.8967 90.478 89.8967 90.478L87.8867 77.706Z" fill="#FF6902"/>
<path d="M95.3141 86.336C95.1021 85.746 94.3081 88.987 94.3641 89.336C94.4201 89.685 95.4541 86.725 95.3141 86.336Z" fill="#FF6902"/>
<path d="M87.888 77.722L81.743 77.76C81.743 77.76 77.085 92.476 75.666 99.992C78.221 102.066 87.486 103.507 94.531 100.481C94.4 97.3 87.888 77.722 87.888 77.722Z" fill="#FF6902"/>
<path d="M83.9505 78.767L86.7625 94.672L83.0415 84.75L83.6125 83.958L81.8125 81.415L83.9505 78.767Z" fill="#FF6902"/>
<path d="M86.6953 78.607L86.8743 94.707L88.4243 84.486L87.5543 83.486L88.9023 81.143L86.6953 78.607Z" fill="#FF6902"/>
<path d="M83.8717 77.787C84.8696 77.6944 85.8739 77.6944 86.8717 77.787C86.8717 77.787 87.2057 93.893 86.8277 94.953C86.8277 94.953 83.2697 80.353 83.8687 77.787H83.8717Z" fill="#E3F0F0"/>
<path d="M82.5378 69.208C82.547 68.763 82.6939 68.3318 82.9582 67.9736C83.2225 67.6155 83.5913 67.348 84.0138 67.208C84.5083 67.1361 85.013 67.1863 85.4836 67.3544C85.9543 67.5224 86.3766 67.8031 86.7138 68.172C86.7013 68.0548 86.7174 67.9363 86.7607 67.8267C86.804 67.717 86.8733 67.6195 86.9626 67.5426C87.0519 67.4656 87.1585 67.4114 87.2733 67.3847C87.3881 67.3579 87.5077 67.3594 87.6218 67.389C88.6018 67.489 88.4328 68.589 88.4328 68.589C88.5201 68.5358 88.6171 68.5007 88.7181 68.4855C88.8192 68.4704 88.9223 68.4756 89.0213 68.5008C89.1203 68.5261 89.2133 68.5708 89.2948 68.6325C89.3763 68.6942 89.4446 68.7716 89.4958 68.86C89.6835 69.2876 89.7234 69.7655 89.6091 70.2183C89.4949 70.671 89.2329 71.0728 88.8648 71.36C89.0117 71.5319 89.1057 71.7426 89.1354 71.9667C89.1651 72.1908 89.1292 72.4188 89.0321 72.6229C88.935 72.8271 88.7808 72.9988 88.5882 73.1171C88.3956 73.2355 88.1728 73.2956 87.9468 73.29C87.9068 73.5897 87.753 73.8625 87.5173 74.0518C87.2816 74.2412 86.982 74.3325 86.6808 74.307C86.6062 74.2995 86.5325 74.2848 86.4608 74.263C86.4188 74.654 86.2881 75.0302 86.0788 75.363C85.5198 76.012 82.5368 75.257 82.8548 74.405C82.8916 74.3084 82.9168 74.2076 82.9298 74.105C82.6192 74.0623 82.337 73.9019 82.1414 73.657C81.9458 73.4121 81.8517 73.1013 81.8788 72.789C81.8827 72.7454 81.8891 72.702 81.8978 72.659C79.1908 69.607 82.5428 69.206 82.5428 69.206L82.5378 69.208Z" fill="#1B2E36"/>
<path d="M83.4201 71.418C82.6951 71.842 83.0891 74.536 84.3471 74.649C84.8112 73.9125 85.1729 73.1162 85.4221 72.282C85.4221 72.282 83.8911 71.143 83.4221 71.418H83.4201Z" fill="#1B2E36"/>
<path d="M83.9466 73.14L86.2636 74.623C86.2403 75.5027 86.3372 76.3815 86.5516 77.235C86.6338 77.3271 86.6911 77.4386 86.7182 77.5591C86.7453 77.6795 86.7412 77.8048 86.7064 77.9232C86.6716 78.0416 86.6071 78.1492 86.5191 78.2358C86.4312 78.3224 86.3226 78.3851 86.2036 78.418C85.1526 78.851 84.2726 78.258 83.5566 77.328C84.1206 77.314 83.9466 73.14 83.9466 73.14Z" fill="#FFD2B3"/>
<path d="M86.6015 77.314C85.0365 76.82 84.8535 74.799 84.8535 74.799L86.2935 75.661C86.281 76.1979 86.3675 76.7324 86.5485 77.238C86.5693 77.261 86.5871 77.2866 86.6015 77.314Z" fill="url(#paint18_linear_246_720)"/>
<path d="M88.5365 70.179C88.6618 70.7126 88.6737 71.2665 88.5715 71.805C88.4025 72.713 87.4355 70.505 87.4355 70.505L88.5355 70.174L88.5365 70.179Z" fill="#1B2E36"/>
<path d="M86.7746 76.056C85.3996 76.269 84.4076 75.209 84.0546 73.594C83.9557 73.5971 83.8572 73.5798 83.7652 73.5433C83.6733 73.5067 83.5898 73.4517 83.5199 73.3816C83.4501 73.3115 83.3954 73.2277 83.3592 73.1356C83.323 73.0435 83.3062 72.9449 83.3096 72.846C83.2906 72.227 83.5376 72.227 83.6666 72.223L83.6736 72.23H84.8666C85.0059 72.2142 85.1399 72.167 85.2583 72.092C85.3768 72.017 85.4767 71.9162 85.5506 71.797C85.8056 71.379 86.1166 71.163 87.3136 71.181C87.5936 71.1812 87.8645 71.0816 88.0776 70.9C88.2317 71.4819 88.4207 72.0539 88.6436 72.613C88.789 72.96 88.8546 73.3351 88.8358 73.7108C88.8169 74.0865 88.714 74.4531 88.5347 74.7838C88.3554 75.1144 88.1041 75.4007 87.7995 75.6214C87.4949 75.8421 87.1447 75.9916 86.7746 76.059V76.056Z" fill="#FFD2B3"/>
<path d="M86.3844 72.3121C86.3942 72.306 86.4019 72.2969 86.4062 72.2862C86.4106 72.2755 86.4113 72.2636 86.4084 72.2524C86.4055 72.2412 86.3991 72.2312 86.3901 72.224C86.381 72.2167 86.3699 72.2125 86.3584 72.2121C86.2305 72.1965 86.101 72.224 85.9904 72.29C85.8798 72.3561 85.7943 72.4571 85.7474 72.5771C85.7443 72.5835 85.7426 72.5905 85.7422 72.5976C85.7419 72.6047 85.743 72.6118 85.7454 72.6185C85.7478 72.6251 85.7515 72.6313 85.7563 72.6365C85.7611 72.6418 85.7669 72.646 85.7734 72.6491C85.7865 72.654 85.801 72.6541 85.8142 72.6493C85.8274 72.6445 85.8384 72.6352 85.8454 72.6231C85.977 72.4702 86.1551 72.3649 86.3524 72.3231C86.3641 72.3238 86.3757 72.3206 86.3854 72.3141L86.3844 72.3121Z" fill="#1B2E36"/>
<path d="M87.4615 74.097C87.4597 74.1094 87.4623 74.122 87.4688 74.1327C87.4753 74.1433 87.4853 74.1514 87.4971 74.1556C87.5089 74.1597 87.5218 74.1596 87.5335 74.1553C87.5452 74.151 87.5551 74.1428 87.5615 74.132C87.6477 74.0362 87.6995 73.9144 87.709 73.7859C87.7184 73.6574 87.6848 73.5293 87.6135 73.422C87.6064 73.4097 87.5947 73.4008 87.5811 73.3971C87.5674 73.3933 87.5528 73.3951 87.5405 73.402C87.5291 73.4099 87.5209 73.4215 87.5172 73.4349C87.5136 73.4482 87.5147 73.4624 87.5205 73.475C87.5714 73.671 87.5563 73.8784 87.4775 74.065C87.4702 74.0741 87.466 74.0853 87.4655 74.097H87.4615Z" fill="#1B2E36"/>
<path d="M83.7466 72.623H83.7526C83.7584 72.622 83.7644 72.6225 83.77 72.6244C83.7756 72.6263 83.7806 72.6296 83.7846 72.634C83.7881 72.6385 83.7906 72.6437 83.7918 72.6492C83.793 72.6548 83.793 72.6605 83.7916 72.666C83.79 72.6739 83.7858 72.6809 83.7796 72.686C83.7015 72.7998 83.6632 72.9362 83.6706 73.074C83.6728 73.0832 83.6717 73.0928 83.6675 73.1012C83.6633 73.1096 83.6562 73.1163 83.6476 73.12C83.6384 73.1229 83.6285 73.1221 83.6199 73.1178C83.6114 73.1135 83.6048 73.1061 83.6016 73.097C83.5805 73.0433 83.5712 72.9856 83.5745 72.9279C83.5778 72.8703 83.5935 72.814 83.6206 72.763C83.593 72.7894 83.5701 72.8201 83.5526 72.854C83.5505 72.8601 83.5464 72.8652 83.5409 72.8685C83.5354 72.8718 83.5289 72.8731 83.5226 72.872C83.5163 72.8704 83.5108 72.8663 83.5075 72.8607C83.5041 72.8551 83.5031 72.8484 83.5046 72.842C83.5151 72.7837 83.5446 72.7306 83.5886 72.691C83.6326 72.6513 83.6885 72.6274 83.7476 72.623H83.7466Z" fill="#1B2E36"/>
<path d="M86.1676 72.971C86.2036 73.094 86.3056 73.171 86.3946 73.146C86.4429 73.1226 86.4802 73.0814 86.4989 73.0311C86.5175 72.9808 86.516 72.9252 86.4946 72.876C86.4586 72.753 86.3566 72.676 86.2676 72.701C86.2193 72.7244 86.182 72.7656 86.1633 72.8159C86.1447 72.8662 86.1462 72.9218 86.1676 72.971Z" fill="#1B2E36"/>
<path d="M88.3685 72.109C88.3752 72.1074 88.3812 72.104 88.3861 72.0993C88.3911 72.0945 88.3946 72.0886 88.3965 72.082C88.4009 72.0692 88.4012 72.0554 88.3972 72.0424C88.3933 72.0295 88.3853 72.0182 88.3745 72.01C88.3345 71.9773 88.2882 71.9532 88.2385 71.9392C88.1888 71.9252 88.1367 71.9215 88.0855 71.9285C88.0343 71.9354 87.985 71.9528 87.9408 71.9796C87.8967 72.0063 87.8584 72.0419 87.8285 72.084C87.8207 72.0949 87.8164 72.1081 87.8164 72.1215C87.8164 72.135 87.8207 72.1481 87.8285 72.159C87.8318 72.1636 87.8359 72.1674 87.8407 72.1703C87.8456 72.1732 87.8509 72.175 87.8565 72.1756C87.862 72.1763 87.8677 72.1758 87.873 72.1741C87.8784 72.1725 87.8833 72.1697 87.8875 72.166C87.9546 72.1247 88.0295 72.0978 88.1075 72.0872C88.1855 72.0765 88.2649 72.0822 88.3405 72.104C88.3444 72.1068 88.3488 72.1088 88.3534 72.1098C88.3581 72.1108 88.3629 72.1109 88.3675 72.11L88.3685 72.109Z" fill="#1B2E36"/>
<path d="M87.8903 72.67C87.8773 72.797 87.9413 72.908 88.0343 72.918C88.1273 72.928 88.2123 72.832 88.2253 72.705C88.2383 72.578 88.1744 72.467 88.0814 72.457C87.9884 72.447 87.9033 72.543 87.8903 72.67Z" fill="#1B2E36"/>
<path d="M86.5586 74.638C87.0892 74.7693 87.644 74.7673 88.1736 74.632C88.1736 74.632 87.4696 76.079 86.5586 74.638Z" fill="white"/>
<path d="M83.1776 77.72C83.1776 77.72 83.6776 76.841 83.6986 76.841C84.6121 77.1219 85.5878 77.1296 86.5056 76.863C86.6658 77.0751 86.8118 77.2976 86.9426 77.529C86.9906 77.665 87.9116 78.929 86.5976 79.348C86.0666 79.516 85.6566 78.728 85.6566 78.728C85.5891 78.9184 85.4684 79.0856 85.3089 79.2096C85.1494 79.3337 84.9578 79.4094 84.7566 79.428C84.5388 79.4254 84.3239 79.3783 84.1249 79.2898C83.926 79.2012 83.7472 79.0729 83.5996 78.9128C83.452 78.7527 83.3386 78.5642 83.2663 78.3587C83.1941 78.1533 83.1646 77.9353 83.1796 77.718L83.1776 77.72Z" fill="#FF6902"/>
<path d="M86.8199 94.909C86.8199 94.909 87.2339 101.895 87.1859 101.779C86.6238 99.5338 86.4996 97.2013 86.8199 94.909Z" fill="#FF6902"/>
<path d="M91.2469 77.519C91.5389 76.9174 91.9722 76.3955 92.5099 75.998C93.3141 75.583 94.1501 75.2329 95.0099 74.951C95.0777 75.068 95.1247 75.1959 95.1489 75.329C95.1439 75.529 94.8829 75.777 94.5319 75.958C94.7959 75.879 95.2929 75.781 95.2929 75.781C95.3335 75.927 95.3484 76.0789 95.3369 76.23C95.2147 76.4364 95.0297 76.5983 94.8089 76.692C95.0019 76.656 95.3239 76.576 95.3239 76.576C95.3526 76.7397 95.3526 76.9072 95.3239 77.071C95.1201 77.3129 94.8538 77.4942 94.5539 77.595C94.7753 77.5459 95.0004 77.5161 95.2269 77.506C95.2199 77.6591 95.1961 77.811 95.1559 77.959C94.9669 78.341 93.7559 78.838 93.7559 78.838C93.807 79.2479 93.7634 79.6642 93.6283 80.0546C93.4933 80.445 93.2704 80.7992 92.9769 81.09C92.2209 80.5336 91.5054 79.9241 90.8359 79.266C90.9079 78.6707 91.0465 78.0854 91.2489 77.521L91.2469 77.519Z" fill="#FFD2B3"/>
<path d="M93.1992 76.547C93.2698 76.5274 93.3371 76.4978 93.3992 76.459C93.5172 76.401 93.6812 76.325 93.8662 76.247C94.0949 76.1645 94.3183 76.0679 94.5352 75.958C94.2924 75.9955 94.0564 76.069 93.8352 76.176C93.675 76.2421 93.5201 76.3206 93.3722 76.411C93.2592 76.482 93.1972 76.539 93.2032 76.546L93.1992 76.547Z" fill="url(#paint19_linear_246_720)"/>
<path d="M93.5273 77.228C93.5949 77.2158 93.6601 77.1929 93.7204 77.16L94.1734 76.975C94.3927 76.9002 94.6052 76.8065 94.8083 76.695C94.5787 76.7347 94.3554 76.805 94.1443 76.904C93.9915 76.9644 93.8423 77.0335 93.6974 77.111C93.5864 77.172 93.5234 77.22 93.5284 77.229L93.5273 77.228Z" fill="url(#paint20_linear_246_720)"/>
<path d="M93.918 77.854C94.1882 77.8052 94.4467 77.7058 94.68 77.561C94.4098 77.6097 94.1512 77.7091 93.918 77.854Z" fill="url(#paint21_linear_246_720)"/>
<path d="M79.1307 78.392C79.1307 78.392 76.4167 82.265 76.0987 83.777C75.5347 86.458 77.0117 93.067 80.7537 93.696C83.3347 94.13 94.0087 80.696 94.0087 80.696L90.7087 78.645L81.1657 86.719L81.7457 77.759L79.1347 78.392H79.1307Z" fill="#FF6902"/>
<path d="M81.1654 86.719C80.9394 87.012 80.0784 88.919 80.5524 89.319C81.0264 89.719 81.1654 86.719 81.1654 86.719Z" fill="#FF6902"/>
<path d="M76.3364 134.67L74.3004 134.648C73.9402 134.644 73.5827 134.711 73.2484 134.846C72.9142 134.98 72.6097 135.179 72.3522 135.431C72.0948 135.683 71.8896 135.983 71.7482 136.315C71.6069 136.646 71.5322 137.002 71.5284 137.362L71.4884 141.143C71.4867 141.262 71.5085 141.38 71.5526 141.49C71.5966 141.6 71.6621 141.701 71.7452 141.786C71.8283 141.871 71.9274 141.938 72.0368 141.985C72.1461 142.031 72.2636 142.055 72.3824 142.056H72.4304L72.4834 137.027C72.4904 136.38 72.7984 135.856 73.1714 135.86L77.4394 135.905C77.8124 135.905 78.1094 136.439 78.1024 137.086L78.0484 142.115H78.0964C78.2151 142.117 78.3331 142.095 78.4434 142.051C78.5537 142.007 78.6542 141.941 78.7391 141.858C78.8239 141.775 78.8915 141.676 78.9379 141.567C78.9843 141.457 79.0086 141.34 79.0094 141.221L79.0494 137.44C79.0532 137.08 78.986 136.722 78.8517 136.388C78.7174 136.054 78.5185 135.749 78.2665 135.492C78.0145 135.235 77.7142 135.029 77.3829 134.888C77.0515 134.747 76.6956 134.672 76.3354 134.668L76.3364 134.67Z" fill="#1B2E36"/>
<path d="M86.2798 139.211L86.2328 143.591L64.2148 143.357L64.2618 138.977C64.2421 138.445 64.434 137.926 64.7957 137.535C65.1574 137.143 65.6594 136.911 66.1918 136.889L84.3918 137.083C84.9236 137.117 85.4204 137.36 85.7736 137.759C86.1269 138.158 86.3078 138.68 86.2768 139.212L86.2798 139.211Z" fill="#395B64"/>
<path d="M86.2108 143.488L86.1428 149.876C86.1546 150.399 85.9586 150.905 85.5978 151.284C85.2369 151.663 84.7407 151.883 84.2178 151.896L66.0548 151.703C65.5324 151.679 65.041 151.448 64.6884 151.062C64.3358 150.676 64.1507 150.165 64.1738 149.643L64.2418 143.255L86.2108 143.488Z" fill="#395B64"/>
<path d="M86.2082 144.619L64.2422 144.133V143.152L86.2082 143.488V144.619Z" fill="#2A454D"/>
<path d="M74.9097 145.04L75.5827 145.047C75.7021 145.048 75.8205 145.026 75.9313 144.982C76.042 144.937 76.1429 144.871 76.2281 144.787C76.3133 144.704 76.3811 144.604 76.4277 144.494C76.4743 144.384 76.4988 144.266 76.4997 144.147L76.5127 142.897C76.5127 142.817 76.4811 142.741 76.4249 142.685C76.3686 142.629 76.2923 142.597 76.2127 142.597H76.1967L76.1787 144.26C76.1787 144.474 76.0787 144.647 75.9507 144.646L74.5397 144.631C74.4167 144.631 74.3187 144.454 74.3207 144.24L74.3387 142.577H74.3267C74.2472 142.577 74.1709 142.609 74.1146 142.665C74.0583 142.721 74.0267 142.797 74.0267 142.877L74.0137 144.127C74.0124 144.246 74.0347 144.365 74.0792 144.476C74.1238 144.586 74.1897 144.687 74.2734 144.772C74.357 144.858 74.4566 144.925 74.5665 144.972C74.6764 145.019 74.7944 145.043 74.9137 145.044L74.9097 145.04Z" fill="#1B2E36"/>
<path d="M157.244 103.284C157.145 103.284 157.049 103.245 156.979 103.174C156.909 103.104 156.869 103.009 156.869 102.909V100.149C156.869 100.05 156.909 99.9542 156.979 99.8839C157.049 99.8136 157.145 99.774 157.244 99.774C157.344 99.774 157.439 99.8136 157.509 99.8839C157.58 99.9542 157.619 100.05 157.619 100.149V102.909C157.619 103.008 157.579 103.104 157.509 103.174C157.439 103.244 157.344 103.284 157.244 103.284Z" fill="url(#paint22_linear_246_720)"/>
<path d="M161.678 101.268V102.928C161.677 103.022 161.64 103.113 161.573 103.179C161.507 103.246 161.416 103.284 161.322 103.284C161.222 103.282 161.127 103.241 161.057 103.17C160.875 103.269 160.671 103.321 160.464 103.322C160.142 103.322 159.833 103.194 159.606 102.966C159.378 102.739 159.25 102.43 159.25 102.108C159.25 101.786 159.378 101.477 159.606 101.25C159.833 101.022 160.142 100.894 160.464 100.894C160.668 100.896 160.868 100.948 161.047 101.046C161.079 101.004 161.121 100.97 161.169 100.947C161.216 100.924 161.269 100.912 161.322 100.913C161.416 100.914 161.507 100.951 161.573 101.018C161.64 101.085 161.677 101.175 161.678 101.269V101.268ZM160.924 102.107C160.924 102.016 160.897 101.927 160.846 101.851C160.796 101.776 160.724 101.717 160.64 101.682C160.556 101.647 160.463 101.638 160.374 101.656C160.285 101.674 160.203 101.717 160.139 101.782C160.074 101.846 160.031 101.928 160.013 102.017C159.995 102.107 160.004 102.199 160.039 102.283C160.074 102.367 160.133 102.439 160.208 102.49C160.284 102.54 160.373 102.567 160.464 102.567C160.524 102.567 160.584 102.556 160.64 102.533C160.696 102.51 160.747 102.476 160.79 102.434C160.833 102.391 160.866 102.34 160.89 102.284C160.913 102.228 160.924 102.167 160.924 102.107Z" fill="url(#paint23_linear_246_720)"/>
<path d="M165.487 101.932V102.904C165.487 103.005 165.447 103.101 165.375 103.172C165.304 103.244 165.208 103.284 165.107 103.284C165.006 103.284 164.91 103.244 164.839 103.172C164.768 103.101 164.728 103.005 164.728 102.904V101.932C164.728 101.855 164.697 101.782 164.643 101.728C164.589 101.673 164.515 101.643 164.439 101.643C164.362 101.643 164.288 101.673 164.234 101.728C164.18 101.782 164.15 101.855 164.15 101.932V102.904C164.15 103.005 164.11 103.101 164.038 103.172C163.967 103.244 163.871 103.284 163.77 103.284C163.669 103.284 163.573 103.244 163.502 103.172C163.431 103.101 163.391 103.005 163.391 102.904V101.932C163.391 101.855 163.36 101.782 163.306 101.728C163.252 101.673 163.178 101.643 163.102 101.643C163.025 101.643 162.951 101.673 162.897 101.728C162.843 101.782 162.813 101.855 162.813 101.932V102.904C162.812 103.004 162.772 103.101 162.701 103.172C162.63 103.243 162.534 103.283 162.434 103.283C162.384 103.283 162.335 103.273 162.289 103.254C162.244 103.235 162.202 103.207 162.167 103.172C162.132 103.136 162.105 103.095 162.086 103.049C162.068 103.003 162.058 102.954 162.059 102.904V101.273C162.058 101.226 162.067 101.179 162.085 101.136C162.102 101.092 162.128 101.052 162.161 101.019C162.195 100.985 162.234 100.959 162.277 100.941C162.321 100.922 162.368 100.913 162.415 100.913C162.498 100.913 162.579 100.943 162.643 100.998C162.785 100.925 162.943 100.888 163.103 100.889C163.29 101.045 163.527 101.131 163.771 101.131C164.015 101.131 164.252 101.045 164.44 100.889C164.717 100.89 164.982 100.999 165.178 101.195C165.375 101.39 165.485 101.655 165.487 101.932Z" fill="url(#paint24_linear_246_720)"/>
<path d="M160.134 108.415C160.194 108.476 160.228 108.559 160.228 108.645C160.228 108.731 160.194 108.814 160.134 108.875C160.103 108.907 160.066 108.933 160.024 108.95C159.983 108.968 159.939 108.977 159.894 108.977C159.85 108.977 159.805 108.968 159.764 108.95C159.723 108.933 159.686 108.907 159.655 108.875L159.517 108.733C159.238 108.915 158.911 109.011 158.578 109.008C158.225 109.008 157.881 108.904 157.588 108.708C157.295 108.512 157.066 108.234 156.931 107.909C156.796 107.583 156.76 107.225 156.829 106.879C156.897 106.533 157.067 106.216 157.315 105.966C157.564 105.716 157.881 105.546 158.227 105.477C158.573 105.408 158.931 105.442 159.257 105.576C159.583 105.711 159.861 105.938 160.058 106.231C160.255 106.523 160.36 106.868 160.361 107.22C160.362 107.605 160.237 107.98 160.005 108.287L160.133 108.415H160.134ZM158.958 108.173L158.863 108.078C158.803 108.017 158.769 107.934 158.769 107.848C158.769 107.762 158.803 107.679 158.863 107.618C158.926 107.555 159.011 107.52 159.1 107.52C159.189 107.52 159.274 107.555 159.337 107.618L159.46 107.737C159.556 107.582 159.605 107.402 159.602 107.22C159.602 107.017 159.541 106.818 159.428 106.65C159.314 106.481 159.154 106.35 158.966 106.272C158.778 106.195 158.571 106.175 158.372 106.215C158.173 106.255 157.99 106.354 157.847 106.498C157.704 106.642 157.606 106.825 157.567 107.024C157.528 107.224 157.549 107.43 157.627 107.618C157.705 107.805 157.837 107.965 158.007 108.078C158.176 108.19 158.375 108.25 158.578 108.249C158.708 108.25 158.838 108.225 158.958 108.173Z" fill="url(#paint25_linear_246_720)"/>
<path d="M161.741 109.012C161.463 109.012 161.197 108.902 161 108.705C160.804 108.509 160.693 108.242 160.693 107.964V106.978C160.694 106.929 160.704 106.88 160.723 106.834C160.742 106.788 160.77 106.747 160.805 106.712C160.84 106.677 160.882 106.65 160.928 106.631C160.974 106.612 161.023 106.603 161.072 106.603C161.122 106.603 161.171 106.612 161.216 106.631C161.262 106.649 161.304 106.677 161.338 106.712C161.373 106.747 161.401 106.788 161.42 106.834C161.438 106.88 161.448 106.929 161.447 106.978V107.964C161.447 108.042 161.478 108.117 161.533 108.172C161.589 108.227 161.663 108.258 161.741 108.258C161.819 108.258 161.894 108.227 161.949 108.172C162.004 108.117 162.035 108.042 162.035 107.964V106.978C162.035 106.878 162.075 106.782 162.146 106.711C162.216 106.641 162.312 106.601 162.412 106.601C162.512 106.601 162.608 106.641 162.679 106.711C162.75 106.782 162.789 106.878 162.789 106.978V107.964C162.789 108.242 162.679 108.509 162.482 108.705C162.286 108.902 162.019 109.012 161.741 109.012Z" fill="url(#paint26_linear_246_720)"/>
<path d="M163.5 108.975C163.4 108.975 163.303 108.935 163.232 108.864C163.161 108.793 163.121 108.696 163.121 108.596V106.955C163.121 106.854 163.161 106.758 163.232 106.687C163.303 106.616 163.4 106.576 163.501 106.576C163.601 106.576 163.698 106.616 163.769 106.687C163.84 106.758 163.88 106.854 163.88 106.955V108.596C163.88 108.697 163.84 108.793 163.768 108.864C163.697 108.935 163.601 108.975 163.5 108.975ZM163.822 106.144C163.822 106.23 163.788 106.312 163.728 106.374C163.668 106.435 163.586 106.47 163.5 106.471C163.414 106.47 163.331 106.435 163.27 106.374C163.209 106.313 163.174 106.23 163.173 106.144C163.173 106.058 163.207 105.975 163.268 105.914C163.329 105.853 163.412 105.819 163.498 105.819C163.584 105.819 163.667 105.853 163.728 105.914C163.789 105.975 163.822 106.058 163.822 106.144Z" fill="url(#paint27_linear_246_720)"/>
<path d="M165.643 108.595C165.643 108.695 165.603 108.792 165.532 108.863C165.461 108.934 165.365 108.974 165.264 108.974H165.193C165.064 108.975 164.937 108.949 164.818 108.899C164.699 108.849 164.592 108.776 164.502 108.683C164.413 108.591 164.343 108.481 164.297 108.36C164.251 108.24 164.23 108.112 164.235 107.983V106.228C164.235 106.127 164.275 106.031 164.346 105.96C164.417 105.889 164.514 105.849 164.615 105.849C164.715 105.849 164.812 105.889 164.883 105.96C164.954 106.031 164.994 106.127 164.994 106.228V106.603H165.34C165.384 106.603 165.427 106.611 165.467 106.628C165.508 106.644 165.545 106.669 165.575 106.7C165.606 106.731 165.631 106.767 165.647 106.808C165.664 106.848 165.672 106.891 165.672 106.935C165.672 106.978 165.664 107.021 165.647 107.062C165.63 107.102 165.606 107.138 165.575 107.168C165.544 107.199 165.507 107.223 165.467 107.239C165.427 107.255 165.383 107.263 165.34 107.262H164.994V107.983C164.99 108.012 164.993 108.041 165.001 108.068C165.01 108.096 165.024 108.122 165.042 108.144C165.061 108.165 165.085 108.183 165.111 108.195C165.137 108.208 165.165 108.214 165.194 108.215H165.265C165.366 108.216 165.462 108.256 165.533 108.327C165.603 108.398 165.643 108.495 165.643 108.595Z" fill="url(#paint28_linear_246_720)"/>
</g>
</g>
<defs>
<linearGradient id="paint0_linear_246_720" x1="90.7345" y1="-2.04315" x2="95.1921" y2="193.357" gradientUnits="userSpaceOnUse">
<stop stop-color="#FAFAFF"/>
<stop offset="0.55" stop-color="#FAFAFF"/>
<stop offset="1" stop-color="#E5F7F9"/>
</linearGradient>
<linearGradient id="paint1_linear_246_720" x1="91.1478" y1="146.212" x2="91.3925" y2="187.558" gradientUnits="userSpaceOnUse">
<stop stop-color="#FFFCFA"/>
<stop offset="0.55" stop-color="#FAFFFF"/>
<stop offset="1" stop-color="#FFF4EC"/>
</linearGradient>
<linearGradient id="paint2_linear_246_720" x1="93.3658" y1="145.5" x2="93.3658" y2="178.939" gradientUnits="userSpaceOnUse">
<stop stop-color="#F0E9E3"/>
<stop offset="1" stop-color="#F0EAE3"/>
</linearGradient>
<linearGradient id="paint3_linear_246_720" x1="152.292" y1="140.821" x2="152.292" y2="79.7896" gradientUnits="userSpaceOnUse">
<stop stop-color="#F4F5F9"/>
<stop offset="1" stop-color="#D2D4E0"/>
</linearGradient>
<linearGradient id="paint4_linear_246_720" x1="156.472" y1="147.097" x2="160.176" y2="120.9" gradientUnits="userSpaceOnUse">
<stop stop-color="#F4F5F9"/>
<stop offset="1" stop-color="#D2D4E0"/>
</linearGradient>
<linearGradient id="paint5_linear_246_720" x1="28.7616" y1="141.495" x2="28.7616" y2="113.866" gradientUnits="userSpaceOnUse">
<stop stop-color="#F4F5F9"/>
<stop offset="1" stop-color="#D2D4E0"/>
</linearGradient>
<linearGradient id="paint6_linear_246_720" x1="141.133" y1="146.989" x2="149.203" y2="146.245" gradientUnits="userSpaceOnUse">
<stop stop-color="#F4F5F9"/>
<stop offset="1" stop-color="#D2D4E0"/>
</linearGradient>
<linearGradient id="paint7_linear_246_720" x1="87.5273" y1="57.4315" x2="143.333" y2="57.4315" gradientUnits="userSpaceOnUse">
<stop stop-color="#F4F5F9"/>
<stop offset="1" stop-color="#D2D4E0"/>
</linearGradient>
<linearGradient id="paint8_linear_246_720" x1="118.559" y1="118.842" x2="143.908" y2="118.842" gradientUnits="userSpaceOnUse">
<stop stop-color="#F4F5F9"/>
<stop offset="1" stop-color="#D2D4E0"/>
</linearGradient>
<linearGradient id="paint9_linear_246_720" x1="130.983" y1="108.413" x2="131.132" y2="127.291" gradientUnits="userSpaceOnUse">
<stop stop-color="#F4F5F9"/>
<stop offset="1" stop-color="#D2D4E0"/>
</linearGradient>
<linearGradient id="paint10_linear_246_720" x1="49.5918" y1="119.257" x2="78.2728" y2="119.257" gradientUnits="userSpaceOnUse">
<stop stop-color="#F4F5F9"/>
<stop offset="1" stop-color="#D2D4E0"/>
</linearGradient>
<linearGradient id="paint11_linear_246_720" x1="86.5566" y1="90.747" x2="143.723" y2="90.747" gradientUnits="userSpaceOnUse">
<stop stop-color="#F4F5F9"/>
<stop offset="1" stop-color="#D2D4E0"/>
</linearGradient>
<linearGradient id="paint12_linear_246_720" x1="113.029" y1="66.5345" x2="118.384" y2="83.4286" gradientUnits="userSpaceOnUse">
<stop stop-color="#F4F5F9"/>
<stop offset="1" stop-color="#D2D4E0"/>
</linearGradient>
<linearGradient id="paint13_linear_246_720" x1="94.3184" y1="126.723" x2="113.579" y2="126.723" gradientUnits="userSpaceOnUse">
<stop stop-color="#F4F5F9"/>
<stop offset="1" stop-color="#D2D4E0"/>
</linearGradient>
<linearGradient id="paint14_linear_246_720" x1="106.191" y1="62.3181" x2="108.65" y2="62.3181" gradientUnits="userSpaceOnUse">
<stop stop-color="#F4F5F9"/>
<stop offset="1" stop-color="#D2D4E0"/>
</linearGradient>
<linearGradient id="paint15_linear_246_720" x1="105.09" y1="83.5871" x2="108.253" y2="83.5871" gradientUnits="userSpaceOnUse">
<stop stop-color="#EDAC80"/>
<stop offset="0.27" stop-color="#E6A579"/>
<stop offset="0.65" stop-color="#D39367"/>
<stop offset="1" stop-color="#BD7E52"/>
</linearGradient>
<linearGradient id="paint16_linear_246_720" x1="104.451" y1="83.5348" x2="105.519" y2="83.5348" gradientUnits="userSpaceOnUse">
<stop stop-color="#EDAC80"/>
<stop offset="0.27" stop-color="#E6A579"/>
<stop offset="0.65" stop-color="#D39367"/>
<stop offset="1" stop-color="#BD7E52"/>
</linearGradient>
<linearGradient id="paint17_linear_246_720" x1="107.176" y1="83.3645" x2="109.382" y2="83.3645" gradientUnits="userSpaceOnUse">
<stop stop-color="#EDAC80"/>
<stop offset="0.27" stop-color="#E6A579"/>
<stop offset="0.65" stop-color="#D39367"/>
<stop offset="1" stop-color="#BD7E52"/>
</linearGradient>
<linearGradient id="paint18_linear_246_720" x1="84.8535" y1="76.0565" x2="86.6015" y2="76.0565" gradientUnits="userSpaceOnUse">
<stop stop-color="#EDAC80"/>
<stop offset="0.27" stop-color="#E6A579"/>
<stop offset="0.65" stop-color="#D39367"/>
<stop offset="1" stop-color="#BD7E52"/>
</linearGradient>
<linearGradient id="paint19_linear_246_720" x1="93.1992" y1="76.2525" x2="94.5352" y2="76.2525" gradientUnits="userSpaceOnUse">
<stop stop-color="#EDAC80"/>
<stop offset="0.27" stop-color="#E6A579"/>
<stop offset="0.65" stop-color="#D39367"/>
<stop offset="1" stop-color="#BD7E52"/>
</linearGradient>
<linearGradient id="paint20_linear_246_720" x1="93.5273" y1="76.962" x2="94.8083" y2="76.962" gradientUnits="userSpaceOnUse">
<stop stop-color="#EDAC80"/>
<stop offset="0.27" stop-color="#E6A579"/>
<stop offset="0.65" stop-color="#D39367"/>
<stop offset="1" stop-color="#BD7E52"/>
</linearGradient>
<linearGradient id="paint21_linear_246_720" x1="93.918" y1="77.7072" x2="94.68" y2="77.7072" gradientUnits="userSpaceOnUse">
<stop stop-color="#EDAC80"/>
<stop offset="0.27" stop-color="#E6A579"/>
<stop offset="0.65" stop-color="#D39367"/>
<stop offset="1" stop-color="#BD7E52"/>
</linearGradient>
<linearGradient id="paint22_linear_246_720" x1="156.796" y1="100.848" x2="164.042" y2="101.35" gradientUnits="userSpaceOnUse">
<stop stop-color="#F4F5F9"/>
<stop offset="1" stop-color="#D2D4E0"/>
</linearGradient>
<linearGradient id="paint23_linear_246_720" x1="158.908" y1="99.4542" x2="165.492" y2="109.445" gradientUnits="userSpaceOnUse">
<stop stop-color="#F4F5F9"/>
<stop offset="1" stop-color="#D2D4E0"/>
</linearGradient>
<linearGradient id="paint24_linear_246_720" x1="160.982" y1="98.0875" x2="164.51" y2="109.061" gradientUnits="userSpaceOnUse">
<stop stop-color="#F4F5F9"/>
<stop offset="1" stop-color="#D2D4E0"/>
</linearGradient>
<linearGradient id="paint25_linear_246_720" x1="155.108" y1="101.962" x2="161.695" y2="111.95" gradientUnits="userSpaceOnUse">
<stop stop-color="#F4F5F9"/>
<stop offset="1" stop-color="#D2D4E0"/>
</linearGradient>
<linearGradient id="paint26_linear_246_720" x1="157.153" y1="100.605" x2="164.946" y2="109.55" gradientUnits="userSpaceOnUse">
<stop stop-color="#F4F5F9"/>
<stop offset="1" stop-color="#D2D4E0"/>
</linearGradient>
<linearGradient id="paint27_linear_246_720" x1="158.447" y1="99.75" x2="165.855" y2="100.4" gradientUnits="userSpaceOnUse">
<stop stop-color="#F4F5F9"/>
<stop offset="1" stop-color="#D2D4E0"/>
</linearGradient>
<linearGradient id="paint28_linear_246_720" x1="159.389" y1="99.1318" x2="168.271" y2="101.981" gradientUnits="userSpaceOnUse">
<stop stop-color="#F4F5F9"/>
<stop offset="1" stop-color="#D2D4E0"/>
</linearGradient>
<clipPath id="clip0_246_720">
<rect width="186" height="186" fill="white"/>
</clipPath>
</defs>
</svg>
