<svg width="339" height="221" viewBox="0 0 339 221" fill="none" xmlns="http://www.w3.org/2000/svg">
<g clip-path="url(#clip0_246_876)">
<path d="M176.116 0.303009L37.1777 89.552L56.1067 220.552H274.587L301.822 107.919L176.116 0.303009Z" fill="#F6F5FA"/>
<path opacity="0.1" d="M176.116 0.303009L37.1777 89.551L56.1077 220.551H274.587L301.822 107.918L176.116 0.303009Z" fill="#00524C"/>
<path fill-rule="evenodd" clip-rule="evenodd" d="M134.678 94.387C134.681 93.8984 134.587 93.4139 134.403 92.9614C134.218 92.5089 133.947 92.0972 133.603 91.7497C133.26 91.4022 132.851 91.1258 132.401 90.9363C131.95 90.7467 131.467 90.6478 130.978 90.645H65.7441C65.2534 90.6433 64.7671 90.7383 64.3131 90.9245C63.859 91.1107 63.4461 91.3845 63.0979 91.7304C62.7496 92.0762 62.4729 92.4872 62.2836 92.9399C62.0942 93.3927 61.9958 93.8783 61.9941 94.369V135.552C61.9971 136.545 62.3933 137.496 63.0962 138.198C63.799 138.899 64.7512 139.293 65.7441 139.294H130.936C131.427 139.295 131.913 139.198 132.366 139.011C132.82 138.824 133.232 138.549 133.579 138.203C133.926 137.856 134.202 137.444 134.39 136.991C134.578 136.538 134.676 136.053 134.676 135.562V94.387H134.678Z" fill="#000045"/>
<path fill-rule="evenodd" clip-rule="evenodd" d="M126.214 63.982C126.214 63.5739 126.133 63.1697 125.977 62.7926C125.821 62.4154 125.593 62.0727 125.304 61.784C125.016 61.4953 124.673 61.2663 124.296 61.11C123.919 60.9537 123.515 60.8731 123.107 60.873H73.8836C73.058 60.8722 72.2658 61.1992 71.6812 61.7822C71.0965 62.3652 70.7672 63.1564 70.7656 63.982V96.825L95.2836 115.314C96.2067 116.012 97.3324 116.39 98.4896 116.39C99.6469 116.39 100.773 116.012 101.696 115.314L126.214 96.825V63.982Z" fill="white"/>
<path fill-rule="evenodd" clip-rule="evenodd" d="M126.668 63.983C126.667 63.0381 126.29 62.1325 125.622 61.465C124.953 60.7975 124.046 60.4227 123.101 60.423H73.8834C73.4158 60.4222 72.9526 60.5135 72.5203 60.6918C72.0879 60.87 71.6949 61.1316 71.3637 61.4618C71.0325 61.7919 70.7695 62.184 70.5898 62.6157C70.4101 63.0475 70.3172 63.5104 70.3164 63.978V96.826C70.3155 96.8959 70.3318 96.965 70.3639 97.0271C70.3959 97.0892 70.4429 97.1424 70.5004 97.182C70.5004 97.182 87.7084 110.175 95.0104 115.671C96.011 116.43 97.2325 116.841 98.4884 116.841C99.7444 116.841 100.966 116.43 101.966 115.671C109.266 110.171 126.484 97.182 126.484 97.182C126.542 97.1424 126.589 97.0892 126.621 97.0271C126.653 96.965 126.669 96.8959 126.668 96.826V63.983ZM125.768 63.983V96.603C123.93 97.985 108.295 109.784 101.434 114.956C100.586 115.593 99.5538 115.937 98.4929 115.937C97.4321 115.937 96.3999 115.593 95.5514 114.956L71.2174 96.603V63.983C71.2193 63.2755 71.5012 62.5974 72.0015 62.0971C72.5018 61.5968 73.1799 61.3149 73.8874 61.313H123.106C123.813 61.3157 124.49 61.5981 124.989 62.0984C125.488 62.5988 125.768 63.2764 125.768 63.983Z" fill="#000045"/>
<path fill-rule="evenodd" clip-rule="evenodd" d="M63.0528 91.581C63.0528 91.581 86.2848 109.103 94.9878 115.656C95.9961 116.417 97.2247 116.828 98.4878 116.828C99.7509 116.828 100.98 116.417 101.988 115.656C110.677 109.103 133.922 91.581 133.922 91.581C134.014 91.5067 134.074 91.3999 134.089 91.2827C134.105 91.1655 134.075 91.0468 134.006 90.951C133.934 90.856 133.827 90.7935 133.709 90.7772C133.591 90.7608 133.471 90.7921 133.376 90.864C133.376 90.864 110.144 108.388 101.452 114.939C100.598 115.584 99.5565 115.933 98.4863 115.933C97.4161 115.933 96.375 115.584 95.5208 114.939C86.8288 108.388 63.5978 90.864 63.5978 90.864C63.5024 90.7974 63.3849 90.7703 63.2699 90.7883C63.1549 90.8063 63.0514 90.868 62.9809 90.9606C62.9104 91.0532 62.8784 91.1694 62.8916 91.2851C62.9048 91.4007 62.9632 91.5067 63.0528 91.581Z" fill="white"/>
<path fill-rule="evenodd" clip-rule="evenodd" d="M79.4344 72.503H99.0894C99.2087 72.503 99.3232 72.4556 99.4076 72.3712C99.492 72.2868 99.5394 72.1724 99.5394 72.053C99.5394 71.9337 99.492 71.8192 99.4076 71.7348C99.3232 71.6504 99.2087 71.603 99.0894 71.603H79.4344C79.315 71.603 79.2006 71.6504 79.1162 71.7348C79.0318 71.8192 78.9844 71.9337 78.9844 72.053C78.9844 72.1724 79.0318 72.2868 79.1162 72.3712C79.2006 72.4556 79.315 72.503 79.4344 72.503Z" fill="#00524C"/>
<path fill-rule="evenodd" clip-rule="evenodd" d="M79.4048 80.403H117.212C117.332 80.403 117.448 80.3551 117.533 80.2699C117.618 80.1847 117.666 80.0691 117.666 79.9485C117.666 79.828 117.618 79.7124 117.533 79.6271C117.448 79.5419 117.332 79.494 117.212 79.494H79.4018C79.2812 79.494 79.1656 79.5419 79.0804 79.6271C78.9952 79.7124 78.9473 79.828 78.9473 79.9485C78.9473 80.0691 78.9952 80.1847 79.0804 80.2699C79.1656 80.3551 79.2812 80.403 79.4018 80.403" fill="#00524C"/>
<path fill-rule="evenodd" clip-rule="evenodd" d="M79.4054 88.314H117.212C117.274 88.3169 117.335 88.3073 117.393 88.2857C117.451 88.2642 117.503 88.2312 117.548 88.1887C117.592 88.1462 117.628 88.0951 117.652 88.0385C117.676 87.982 117.689 87.9211 117.689 87.8595C117.689 87.798 117.676 87.7371 117.652 87.6805C117.628 87.6239 117.592 87.5728 117.548 87.5303C117.503 87.4878 117.451 87.4548 117.393 87.4333C117.335 87.4117 117.274 87.4021 117.212 87.405H79.4024C79.2856 87.4105 79.1753 87.4608 79.0946 87.5454C79.0138 87.63 78.9688 87.7425 78.9688 87.8595C78.9688 87.9765 79.0138 88.089 79.0946 88.1736C79.1753 88.2583 79.2856 88.3085 79.4024 88.314" fill="#00524C"/>
<path fill-rule="evenodd" clip-rule="evenodd" d="M79.4062 96.209H117.213C117.334 96.209 117.449 96.1612 117.534 96.076C117.619 95.9909 117.667 95.8754 117.667 95.755C117.667 95.6346 117.619 95.5191 117.534 95.434C117.449 95.3489 117.334 95.301 117.213 95.301H79.4032C79.2828 95.301 79.1673 95.3489 79.0822 95.434C78.997 95.5191 78.9492 95.6346 78.9492 95.755C78.9492 95.8754 78.997 95.9909 79.0822 96.076C79.1673 96.1612 79.2828 96.209 79.4032 96.209" fill="#00524C"/>
<path fill-rule="evenodd" clip-rule="evenodd" d="M128.791 120.862L130.759 124.405C130.787 124.457 130.826 124.502 130.872 124.539C130.917 124.576 130.97 124.603 131.027 124.62C131.083 124.636 131.142 124.641 131.201 124.635C131.259 124.629 131.316 124.611 131.368 124.583C131.419 124.554 131.465 124.516 131.502 124.47C131.539 124.424 131.566 124.372 131.582 124.315C131.599 124.259 131.604 124.199 131.598 124.141C131.591 124.082 131.573 124.026 131.545 123.974L129.578 120.421C129.52 120.318 129.423 120.241 129.309 120.208C129.195 120.175 129.073 120.187 128.968 120.243C128.864 120.303 128.787 120.401 128.754 120.517C128.721 120.633 128.735 120.757 128.792 120.863" fill="#000045"/>
<path fill-rule="evenodd" clip-rule="evenodd" d="M68.5712 58.233L56.2782 45.945C56.2365 45.9033 56.187 45.8703 56.1326 45.8477C56.0781 45.8251 56.0197 45.8135 55.9607 45.8135C55.9018 45.8135 55.8434 45.8251 55.7889 45.8477C55.7344 45.8703 55.6849 45.9033 55.6432 45.945C55.6015 45.9867 55.5685 46.0362 55.5459 46.0907C55.5233 46.1452 55.5117 46.2036 55.5117 46.2625C55.5117 46.3215 55.5233 46.3799 55.5459 46.4343C55.5685 46.4888 55.6015 46.5383 55.6432 46.58L67.9352 58.868C67.9769 58.9097 68.0264 58.9428 68.0809 58.9654C68.1354 58.9879 68.1938 58.9995 68.2527 58.9995C68.3117 58.9995 68.3701 58.9879 68.4246 58.9654C68.479 58.9428 68.5285 58.9097 68.5702 58.868C68.6119 58.8263 68.645 58.7768 68.6676 58.7224C68.6901 58.6679 68.7017 58.6095 68.7017 58.5505C68.7017 58.4916 68.6901 58.4332 68.6676 58.3787C68.645 58.3242 68.6129 58.2747 68.5712 58.233Z" fill="#00524C"/>
<path fill-rule="evenodd" clip-rule="evenodd" d="M73.877 52.803L71.447 43.733C71.4132 43.6215 71.3373 43.5276 71.2355 43.471C71.1337 43.4144 71.0138 43.3996 70.9013 43.4297C70.7888 43.4598 70.6923 43.5325 70.6324 43.6324C70.5724 43.7323 70.5536 43.8515 70.58 43.965L73.01 53.035C73.0438 53.1465 73.1197 53.2404 73.2215 53.297C73.3233 53.3536 73.4432 53.3684 73.5557 53.3383C73.6682 53.3082 73.7647 53.2355 73.8246 53.1357C73.8846 53.0358 73.9034 52.9165 73.877 52.803Z" fill="#00524C"/>
<path fill-rule="evenodd" clip-rule="evenodd" d="M62.7334 63.303L52.9334 60.677C52.8199 60.6507 52.7006 60.6694 52.6008 60.7294C52.5009 60.7893 52.4282 60.8858 52.3981 60.9983C52.368 61.1108 52.3828 61.2307 52.4394 61.3325C52.496 61.4343 52.5899 61.5102 52.7014 61.544L62.5014 64.17C62.5582 64.1887 62.6182 64.1958 62.6778 64.191C62.7374 64.1861 62.7955 64.1694 62.8485 64.1418C62.9016 64.1143 62.9486 64.0764 62.9868 64.0304C63.0251 63.9844 63.0537 63.9312 63.0711 63.874C63.0885 63.8167 63.0943 63.7566 63.0881 63.6971C63.0819 63.6376 63.0639 63.58 63.0352 63.5275C63.0064 63.4751 62.9675 63.4289 62.9206 63.3918C62.8738 63.3546 62.82 63.3271 62.7624 63.311L62.7334 63.303Z" fill="#00524C"/>
<path fill-rule="evenodd" clip-rule="evenodd" d="M197.778 83.051C198.684 83.167 199.59 83.244 200.488 83.292C200.546 83.2962 200.604 83.289 200.659 83.2708C200.714 83.2526 200.765 83.2237 200.808 83.1858C200.852 83.1479 200.888 83.1018 200.914 83.05C200.94 82.9982 200.956 82.9418 200.96 82.884V82.868C200.965 82.7493 200.923 82.6333 200.844 82.5451C200.764 82.4568 200.653 82.4032 200.535 82.396C199.657 82.357 198.781 82.271 197.884 82.164C197.827 82.1552 197.769 82.1578 197.712 82.1716C197.656 82.1854 197.604 82.2102 197.557 82.2445C197.511 82.2788 197.471 82.3219 197.442 82.3714C197.412 82.421 197.392 82.4759 197.384 82.533V82.55C197.371 82.6693 197.406 82.7888 197.481 82.8825C197.556 82.9762 197.665 83.0364 197.784 83.05M205.939 83.166C206.856 83.066 207.762 82.944 208.639 82.78C208.755 82.7609 208.86 82.6963 208.928 82.6005C208.997 82.5048 209.026 82.3855 209.007 82.269V82.26C208.984 82.1439 208.917 82.0411 208.82 81.973C208.723 81.9049 208.604 81.8766 208.487 81.894C207.62 82.058 206.743 82.1833 205.855 82.27C205.737 82.2826 205.629 82.3413 205.554 82.4332C205.479 82.5252 205.443 82.643 205.455 82.761C205.472 82.8774 205.531 82.9832 205.623 83.0573C205.714 83.1315 205.83 83.1685 205.947 83.161M189.847 81.156C190.714 81.464 191.583 81.734 192.447 81.975C192.562 82.0028 192.683 81.9853 192.785 81.9261C192.887 81.8668 192.962 81.7704 192.995 81.657C193.026 81.5432 193.011 81.4217 192.953 81.3191C192.894 81.2165 192.798 81.1413 192.684 81.11H192.676C191.839 80.879 190.99 80.61 190.142 80.31C190.03 80.2724 189.907 80.2806 189.801 80.3328C189.694 80.385 189.613 80.4771 189.574 80.589C189.554 80.6431 189.544 80.7005 189.546 80.7582C189.548 80.8158 189.562 80.8725 189.586 80.925C189.61 80.9775 189.644 81.0247 189.686 81.064C189.728 81.1033 189.778 81.1339 189.832 81.154H189.843M213.913 81.386C214.78 81.086 215.628 80.75 216.458 80.393C216.512 80.369 216.561 80.3345 216.603 80.2914C216.644 80.2484 216.676 80.1977 216.697 80.1422C216.719 80.0867 216.729 80.0276 216.728 79.9681C216.726 79.9086 216.713 79.8499 216.689 79.7955C216.665 79.7411 216.631 79.6919 216.588 79.6508C216.545 79.6097 216.494 79.5775 216.439 79.556C216.383 79.5345 216.324 79.5242 216.264 79.5255C216.205 79.5269 216.146 79.54 216.092 79.564C215.292 79.921 214.462 80.248 213.623 80.538C213.567 80.5578 213.515 80.5884 213.471 80.6281C213.426 80.6678 213.39 80.7159 213.365 80.7696C213.339 80.8233 213.324 80.8815 213.321 80.9409C213.318 81.0004 213.326 81.0599 213.346 81.116C213.365 81.1709 213.395 81.2215 213.434 81.2648C213.473 81.3081 213.52 81.3434 213.572 81.3686C213.625 81.3937 213.682 81.4083 213.74 81.4115C213.798 81.4146 213.856 81.4063 213.911 81.387M182.438 77.753C183.238 78.216 184.038 78.64 184.838 79.035C184.889 79.0621 184.945 79.079 185.002 79.0846C185.059 79.0902 185.117 79.0844 185.172 79.0676C185.228 79.0508 185.279 79.0232 185.323 78.9866C185.368 78.95 185.405 78.9049 185.432 78.854L185.438 78.842C185.489 78.7346 185.497 78.6114 185.46 78.4982C185.423 78.3851 185.343 78.2907 185.238 78.235C184.455 77.849 183.675 77.425 182.886 76.982C182.836 76.9515 182.781 76.9312 182.723 76.9222C182.665 76.9131 182.606 76.9155 182.549 76.9293C182.492 76.943 182.439 76.9678 182.392 77.0023C182.344 77.0367 182.304 77.0801 182.274 77.13C182.243 77.1799 182.223 77.2353 182.214 77.2931C182.205 77.3509 182.207 77.4098 182.221 77.4667C182.235 77.5235 182.26 77.5771 182.294 77.6243C182.329 77.6715 182.372 77.7115 182.422 77.742L182.442 77.753M221.26 77.811C222.032 77.311 222.773 76.78 223.488 76.23C223.54 76.196 223.584 76.1516 223.617 76.0996C223.651 76.0477 223.673 75.9893 223.683 75.9283C223.693 75.8672 223.69 75.8047 223.675 75.7449C223.659 75.685 223.631 75.6289 223.593 75.5803C223.555 75.5317 223.507 75.4916 223.452 75.4624C223.398 75.4333 223.338 75.4158 223.276 75.4111C223.214 75.4064 223.152 75.4145 223.094 75.435C223.036 75.4554 222.982 75.4878 222.937 75.53C222.243 76.06 221.519 76.571 220.769 77.053C220.667 77.1168 220.595 77.2184 220.568 77.3355C220.541 77.4527 220.562 77.5757 220.625 77.6775C220.689 77.7794 220.791 77.8517 220.908 77.8786C221.025 77.9055 221.148 77.8848 221.25 77.821L221.259 77.815M175.693 73.275C176.319 73.689 176.946 74.133 177.572 74.596C177.678 74.663 177.772 74.74 177.882 74.808C177.929 74.8422 177.983 74.8666 178.04 74.88C178.097 74.8934 178.156 74.8954 178.214 74.886C178.271 74.8766 178.327 74.8559 178.376 74.8251C178.426 74.7943 178.469 74.754 178.503 74.7065C178.538 74.659 178.562 74.6053 178.575 74.5484C178.589 74.4915 178.591 74.4325 178.581 74.3747C178.572 74.317 178.551 74.2617 178.52 74.212C178.49 74.1623 178.449 74.1192 178.402 74.085C178.302 74.008 178.209 73.94 178.112 73.863C177.466 73.3903 176.824 72.947 176.185 72.533C176.087 72.4678 175.966 72.4443 175.851 72.4677C175.735 72.4912 175.633 72.5596 175.568 72.658C175.503 72.7564 175.479 72.8767 175.503 72.9924C175.526 73.1081 175.594 73.2098 175.693 73.275ZM227.515 72.562C228.142 71.8867 228.733 71.1927 229.288 70.48C229.357 70.3849 229.387 70.2666 229.371 70.1499C229.356 70.0332 229.295 69.9272 229.203 69.854C229.157 69.8177 229.104 69.7908 229.047 69.7749C228.991 69.759 228.932 69.7544 228.873 69.7614C228.815 69.7683 228.759 69.7867 228.707 69.8155C228.656 69.8443 228.611 69.8828 228.575 69.929C228.035 70.623 227.467 71.298 226.86 71.953C226.78 72.0416 226.739 72.1578 226.744 72.2767C226.749 72.3956 226.801 72.5077 226.888 72.589C226.931 72.6282 226.981 72.6586 227.036 72.6783C227.091 72.6981 227.149 72.7069 227.207 72.7042C227.265 72.7015 227.322 72.6874 227.375 72.6627C227.427 72.6379 227.475 72.603 227.514 72.56M138.014 72.203C138.748 71.7207 139.511 71.2829 140.298 70.892C140.35 70.8658 140.397 70.8294 140.436 70.785C140.474 70.7405 140.503 70.6888 140.521 70.6329C140.539 70.5771 140.546 70.5181 140.541 70.4596C140.537 70.4011 140.52 70.3441 140.493 70.292V70.287C140.437 70.1815 140.343 70.1017 140.23 70.0644C140.117 70.0271 139.993 70.0352 139.886 70.087C139.066 70.4994 138.271 70.9595 137.505 71.465C137.457 71.4967 137.416 71.5376 137.383 71.5853C137.351 71.633 137.329 71.6866 137.317 71.743C137.306 71.7994 137.306 71.8575 137.317 71.9139C137.328 71.9704 137.35 72.0241 137.382 72.072L137.389 72.082C137.453 72.1798 137.554 72.2481 137.669 72.2717C137.784 72.2953 137.903 72.2724 138.001 72.208L138.016 72.198M168.622 69.557C169.431 69.875 170.241 70.242 171.061 70.637C171.168 70.6901 171.292 70.6983 171.406 70.6598C171.519 70.6214 171.613 70.5394 171.666 70.432C171.719 70.3246 171.727 70.2005 171.689 70.0871C171.65 69.9736 171.568 69.8801 171.461 69.827C170.622 69.427 169.783 69.056 168.961 68.727C168.908 68.7049 168.851 68.6934 168.793 68.6934C168.735 68.6933 168.678 68.7046 168.625 68.7266C168.571 68.7486 168.523 68.7809 168.482 68.8216C168.441 68.8624 168.409 68.9108 168.387 68.964V68.978C168.343 69.0869 168.343 69.2089 168.389 69.3172C168.434 69.4256 168.521 69.5114 168.63 69.556M145.215 68.862C146.015 68.602 146.863 68.351 147.769 68.129C147.885 68.0991 147.985 68.0245 148.046 67.9215C148.107 67.8185 148.126 67.6954 148.097 67.579C148.068 67.4644 147.995 67.3657 147.894 67.3043C147.793 67.2429 147.672 67.2238 147.557 67.251C146.622 67.482 145.757 67.742 144.935 68.003C144.879 68.0214 144.826 68.0507 144.781 68.0892C144.736 68.1278 144.699 68.1748 144.673 68.2277C144.618 68.3344 144.609 68.4582 144.646 68.572C144.683 68.6858 144.764 68.7802 144.871 68.8344C144.977 68.8886 145.101 68.8991 145.215 68.862ZM160.956 67.461C161.814 67.586 162.681 67.75 163.568 67.961C163.684 67.9877 163.806 67.9672 163.907 67.904C164.009 67.8409 164.081 67.7402 164.108 67.624C164.132 67.508 164.111 67.387 164.049 67.2864C163.986 67.1857 163.887 67.1132 163.772 67.084C162.866 66.872 161.972 66.708 161.091 66.573C161.032 66.5598 160.972 66.5585 160.913 66.5692C160.854 66.5798 160.797 66.6022 160.747 66.6351C160.697 66.6679 160.653 66.7105 160.62 66.7603C160.586 66.8101 160.563 66.8661 160.552 66.925C160.54 66.9839 160.541 67.0446 160.553 67.1034C160.565 67.1621 160.589 67.2178 160.623 67.2671C160.658 67.3164 160.702 67.3584 160.752 67.3905C160.803 67.4226 160.86 67.4442 160.919 67.454C160.931 67.4571 160.943 67.4601 160.956 67.461ZM153.007 67.242C153.865 67.165 154.752 67.117 155.667 67.107C155.785 67.102 155.896 67.0523 155.978 66.9682C156.061 66.8841 156.108 66.7718 156.111 66.654C156.109 66.5354 156.06 66.4222 155.976 66.3393C155.891 66.2563 155.777 66.2102 155.658 66.211C154.723 66.221 153.807 66.269 152.93 66.346C152.814 66.3562 152.707 66.4119 152.632 66.5009C152.557 66.5899 152.52 66.705 152.53 66.821V66.837C152.543 66.9532 152.6 67.06 152.69 67.1346C152.78 67.2093 152.895 67.246 153.012 67.237" fill="#000045"/>
<path fill-rule="evenodd" clip-rule="evenodd" d="M141.394 212.403C142.271 212.453 143.177 212.481 144.103 212.49C144.162 212.491 144.22 212.481 144.274 212.46C144.328 212.438 144.378 212.407 144.42 212.366C144.462 212.326 144.496 212.278 144.519 212.224C144.543 212.171 144.555 212.113 144.556 212.055V212.048C144.557 211.929 144.511 211.815 144.428 211.73C144.345 211.645 144.231 211.597 144.112 211.595C143.196 211.584 142.312 211.556 141.442 211.508C141.324 211.502 141.207 211.543 141.119 211.622C141.03 211.701 140.977 211.812 140.969 211.931C140.96 212.047 140.997 212.161 141.072 212.249C141.147 212.338 141.254 212.393 141.369 212.403H141.392M149.518 212.303C150.405 212.236 151.301 212.149 152.218 212.043C152.277 212.037 152.334 212.019 152.386 211.991C152.438 211.963 152.484 211.925 152.522 211.879C152.559 211.833 152.586 211.78 152.603 211.723C152.62 211.666 152.625 211.607 152.618 211.548V211.543C152.605 211.424 152.545 211.315 152.451 211.24C152.357 211.165 152.238 211.13 152.118 211.143C151.222 211.249 150.335 211.336 149.457 211.403C149.339 211.411 149.23 211.466 149.152 211.555C149.074 211.644 149.035 211.76 149.042 211.878V211.886C149.054 212.004 149.11 212.113 149.2 212.19C149.29 212.267 149.406 212.307 149.524 212.3M133.324 211.355C134.192 211.537 135.088 211.702 136.004 211.847C136.122 211.864 136.241 211.834 136.337 211.763C136.433 211.693 136.497 211.587 136.515 211.47C136.533 211.353 136.504 211.234 136.434 211.138C136.364 211.043 136.259 210.979 136.142 210.961C135.236 210.816 134.368 210.661 133.51 210.478C133.394 210.455 133.273 210.478 133.174 210.543C133.075 210.608 133.005 210.709 132.98 210.825C132.968 210.882 132.967 210.941 132.978 210.999C132.988 211.057 133.01 211.112 133.042 211.161C133.073 211.21 133.114 211.253 133.163 211.286C133.211 211.319 133.265 211.343 133.322 211.355M157.584 211.229C158.452 211.066 159.339 210.882 160.235 210.681C160.349 210.657 160.449 210.589 160.513 210.491C160.576 210.394 160.598 210.275 160.574 210.161V210.15C160.549 210.034 160.48 209.933 160.381 209.868C160.281 209.803 160.161 209.78 160.044 209.803C159.157 210.003 158.28 210.178 157.412 210.343C157.355 210.354 157.3 210.376 157.251 210.408C157.202 210.439 157.159 210.481 157.126 210.529C157.093 210.577 157.07 210.632 157.058 210.689C157.045 210.746 157.045 210.805 157.055 210.863C157.077 210.982 157.146 211.087 157.245 211.155C157.344 211.224 157.466 211.25 157.584 211.229ZM125.514 209.029C126.343 209.358 127.192 209.666 128.078 209.955C128.134 209.973 128.193 209.98 128.251 209.976C128.31 209.972 128.367 209.956 128.419 209.929C128.471 209.903 128.518 209.867 128.556 209.822C128.594 209.778 128.624 209.726 128.642 209.67C128.66 209.615 128.667 209.556 128.663 209.498C128.659 209.439 128.643 209.382 128.616 209.33C128.59 209.278 128.553 209.231 128.509 209.193C128.465 209.154 128.413 209.125 128.357 209.107C127.489 208.819 126.651 208.52 125.851 208.192C125.739 208.15 125.614 208.154 125.504 208.202C125.395 208.251 125.308 208.34 125.263 208.452C125.242 208.506 125.231 208.564 125.232 208.622C125.232 208.68 125.245 208.738 125.267 208.791C125.29 208.845 125.324 208.893 125.365 208.934C125.407 208.974 125.456 209.006 125.51 209.028M165.475 209.386L168.075 208.686C168.132 208.671 168.185 208.645 168.231 208.61C168.278 208.575 168.317 208.531 168.347 208.48C168.376 208.43 168.395 208.374 168.403 208.316C168.411 208.258 168.407 208.199 168.392 208.143V208.138C168.362 208.023 168.287 207.925 168.184 207.866C168.081 207.806 167.959 207.789 167.844 207.819C166.966 208.06 166.1 208.291 165.244 208.513C165.129 208.544 165.031 208.62 164.971 208.723C164.912 208.826 164.895 208.949 164.925 209.064C164.957 209.179 165.032 209.278 165.135 209.339C165.238 209.4 165.36 209.419 165.476 209.391M173.276 207.232C174.126 206.991 174.993 206.74 175.86 206.488C175.975 206.455 176.072 206.378 176.13 206.273C176.188 206.168 176.202 206.045 176.169 205.93C176.136 205.815 176.059 205.718 175.954 205.66C175.85 205.602 175.726 205.588 175.611 205.621C174.742 205.872 173.886 206.121 173.027 206.373C172.915 206.403 172.819 206.476 172.761 206.576C172.702 206.677 172.686 206.797 172.715 206.909V206.921C172.747 207.035 172.823 207.133 172.927 207.191C173.03 207.25 173.153 207.265 173.267 207.233H173.272M118.241 205.362C118.983 205.835 119.764 206.288 120.583 206.741C120.688 206.795 120.81 206.807 120.924 206.773C121.037 206.739 121.133 206.662 121.19 206.559C121.219 206.508 121.238 206.452 121.245 206.395C121.252 206.337 121.248 206.278 121.232 206.222C121.217 206.166 121.19 206.113 121.155 206.067C121.119 206.021 121.074 205.983 121.023 205.954H121.017C120.207 205.512 119.446 205.067 118.717 204.606C118.616 204.544 118.495 204.524 118.379 204.551C118.263 204.578 118.163 204.65 118.1 204.751C118.037 204.849 118.016 204.968 118.04 205.082C118.065 205.196 118.134 205.296 118.232 205.359L118.245 205.367M181.036 204.967C181.884 204.716 182.753 204.455 183.609 204.195C183.724 204.163 183.821 204.086 183.88 203.982C183.938 203.878 183.953 203.755 183.92 203.64C183.883 203.528 183.804 203.435 183.7 203.379C183.597 203.323 183.475 203.309 183.361 203.34C182.494 203.6 181.636 203.852 180.777 204.112C180.667 204.142 180.572 204.214 180.515 204.313C180.458 204.412 180.442 204.53 180.471 204.641L180.477 204.66C180.493 204.717 180.52 204.77 180.557 204.817C180.593 204.863 180.639 204.902 180.69 204.931C180.742 204.96 180.799 204.978 180.857 204.985C180.916 204.992 180.975 204.987 181.032 204.971M188.773 202.671C189.631 202.411 190.49 202.159 191.357 201.899C191.414 201.882 191.466 201.854 191.512 201.817C191.557 201.779 191.595 201.733 191.623 201.681C191.65 201.63 191.668 201.573 191.673 201.514C191.679 201.455 191.673 201.396 191.656 201.34C191.639 201.284 191.611 201.231 191.574 201.186C191.537 201.14 191.491 201.102 191.439 201.075C191.387 201.047 191.33 201.03 191.271 201.024C191.213 201.018 191.154 201.024 191.097 201.041C190.239 201.303 189.371 201.553 188.513 201.813C188.4 201.847 188.304 201.926 188.248 202.031C188.192 202.135 188.18 202.258 188.214 202.372C188.249 202.486 188.327 202.581 188.432 202.637C188.537 202.693 188.66 202.705 188.773 202.671ZM111.773 200.397C112.399 200.984 113.073 201.591 113.816 202.197C113.909 202.268 114.025 202.3 114.141 202.287C114.257 202.274 114.363 202.216 114.438 202.127C114.512 202.037 114.549 201.922 114.541 201.806C114.533 201.69 114.481 201.581 114.394 201.503C113.661 200.903 112.994 200.318 112.394 199.749C112.31 199.667 112.196 199.623 112.078 199.625C111.96 199.627 111.848 199.675 111.766 199.76L111.758 199.769C111.718 199.81 111.687 199.858 111.666 199.911C111.644 199.964 111.634 200.02 111.634 200.077C111.635 200.134 111.646 200.191 111.669 200.243C111.691 200.296 111.724 200.343 111.764 200.383L111.777 200.395M196.527 200.384L199.111 199.632C199.226 199.6 199.322 199.524 199.38 199.421C199.439 199.317 199.453 199.195 199.421 199.081C199.389 198.967 199.313 198.87 199.21 198.812C199.107 198.754 198.985 198.739 198.87 198.771H198.86C197.993 199.022 197.135 199.263 196.278 199.515C196.164 199.55 196.068 199.627 196.01 199.732C195.952 199.836 195.937 199.959 195.968 200.074C195.985 200.131 196.012 200.184 196.049 200.23C196.086 200.277 196.132 200.315 196.183 200.344C196.235 200.372 196.292 200.391 196.351 200.397C196.41 200.404 196.469 200.399 196.526 200.382M204.286 198.164C205.153 197.923 206.012 197.691 206.879 197.451C206.994 197.421 207.092 197.348 207.152 197.246C207.212 197.144 207.229 197.022 207.199 196.908C207.167 196.794 207.091 196.697 206.988 196.637C206.885 196.578 206.764 196.561 206.648 196.589L204.048 197.313C203.937 197.341 203.841 197.413 203.781 197.512C203.722 197.611 203.704 197.729 203.732 197.841L203.738 197.861C203.753 197.917 203.779 197.969 203.815 198.015C203.85 198.061 203.894 198.1 203.944 198.129C203.995 198.158 204.05 198.176 204.108 198.184C204.165 198.191 204.223 198.187 204.279 198.172H204.289M106.489 194.162C106.971 194.944 107.502 195.695 108.079 196.41C108.155 196.502 108.265 196.561 108.384 196.574C108.503 196.586 108.622 196.551 108.715 196.477C108.761 196.441 108.799 196.395 108.827 196.344C108.855 196.293 108.873 196.237 108.879 196.179C108.885 196.121 108.88 196.063 108.864 196.007C108.847 195.951 108.82 195.898 108.783 195.853C108.234 195.17 107.725 194.455 107.26 193.711C107.231 193.66 107.191 193.616 107.144 193.581C107.097 193.545 107.044 193.52 106.987 193.505C106.93 193.49 106.871 193.487 106.813 193.495C106.755 193.503 106.699 193.522 106.648 193.552C106.598 193.582 106.553 193.621 106.518 193.668C106.483 193.715 106.457 193.768 106.442 193.825C106.427 193.882 106.424 193.941 106.432 193.999C106.44 194.057 106.46 194.113 106.489 194.164M212.089 196.082L214.689 195.419C214.804 195.391 214.903 195.319 214.965 195.218C215.026 195.118 215.045 194.997 215.017 194.882C214.988 194.766 214.913 194.667 214.811 194.605C214.708 194.544 214.586 194.525 214.469 194.553C213.603 194.766 212.732 194.988 211.857 195.219C211.743 195.248 211.645 195.32 211.585 195.421C211.524 195.521 211.506 195.642 211.534 195.756V195.77C211.567 195.884 211.642 195.98 211.744 196.039C211.846 196.099 211.968 196.116 212.082 196.087M219.897 194.164C220.775 193.964 221.65 193.764 222.52 193.564C222.578 193.553 222.632 193.53 222.681 193.497C222.729 193.465 222.771 193.423 222.803 193.374C222.835 193.326 222.858 193.271 222.869 193.214C222.88 193.156 222.88 193.097 222.868 193.04V193.033C222.841 192.916 222.769 192.815 222.668 192.75C222.568 192.686 222.446 192.663 222.328 192.686C221.461 192.879 220.583 193.086 219.696 193.286C219.639 193.299 219.584 193.323 219.536 193.358C219.488 193.392 219.447 193.435 219.416 193.485C219.385 193.535 219.363 193.591 219.353 193.649C219.344 193.707 219.345 193.766 219.358 193.824C219.371 193.882 219.396 193.936 219.43 193.984C219.464 194.032 219.507 194.073 219.557 194.104C219.607 194.136 219.663 194.157 219.721 194.167C219.779 194.177 219.839 194.175 219.896 194.162M267.534 192.168C268.384 192.448 269.212 192.768 270.023 193.102C270.076 193.127 270.134 193.141 270.192 193.143C270.25 193.146 270.309 193.137 270.364 193.117C270.419 193.097 270.469 193.066 270.512 193.027C270.555 192.987 270.59 192.939 270.615 192.887C270.64 192.834 270.654 192.776 270.656 192.718C270.659 192.659 270.65 192.601 270.63 192.546C270.61 192.491 270.579 192.441 270.539 192.398C270.5 192.355 270.452 192.32 270.399 192.295L270.37 192.283C269.551 191.927 268.692 191.609 267.825 191.32C267.771 191.3 267.713 191.292 267.655 191.294C267.597 191.297 267.54 191.311 267.487 191.336C267.435 191.361 267.388 191.396 267.349 191.439C267.31 191.482 267.28 191.532 267.26 191.587V191.6C267.224 191.713 267.233 191.835 267.286 191.941C267.338 192.046 267.429 192.128 267.54 192.168M227.788 192.476C228.675 192.303 229.55 192.14 230.428 191.984C230.546 191.964 230.651 191.897 230.719 191.8C230.788 191.702 230.815 191.581 230.795 191.464C230.774 191.346 230.708 191.241 230.611 191.172C230.513 191.104 230.392 191.077 230.274 191.097C229.387 191.262 228.509 191.426 227.623 191.597C227.566 191.607 227.512 191.627 227.463 191.658C227.414 191.689 227.372 191.729 227.338 191.776C227.305 191.823 227.281 191.876 227.268 191.932C227.255 191.989 227.254 192.047 227.263 192.104V192.117C227.286 192.233 227.354 192.335 227.452 192.401C227.549 192.468 227.669 192.493 227.785 192.472M235.728 191.113C236.628 190.979 237.512 190.864 238.388 190.747C238.447 190.739 238.503 190.72 238.554 190.691C238.605 190.662 238.649 190.623 238.685 190.576C238.721 190.53 238.747 190.477 238.763 190.42C238.778 190.363 238.782 190.304 238.774 190.246C238.767 190.188 238.748 190.132 238.719 190.081C238.689 190.03 238.65 189.985 238.604 189.949C238.557 189.913 238.504 189.887 238.447 189.872C238.391 189.856 238.332 189.852 238.273 189.86C237.386 189.966 236.498 190.092 235.602 190.226C235.544 190.233 235.488 190.252 235.437 190.281C235.386 190.311 235.341 190.349 235.306 190.396C235.27 190.442 235.243 190.495 235.228 190.552C235.213 190.609 235.209 190.668 235.216 190.726C235.233 190.845 235.297 190.952 235.393 191.025C235.489 191.097 235.609 191.13 235.728 191.113ZM259.749 190.399C260.649 190.525 261.524 190.67 262.391 190.833C262.449 190.844 262.508 190.843 262.565 190.831C262.622 190.819 262.677 190.796 262.725 190.763C262.773 190.73 262.815 190.688 262.847 190.639C262.879 190.59 262.901 190.535 262.911 190.478C262.933 190.36 262.907 190.239 262.84 190.14C262.773 190.041 262.67 189.971 262.553 189.947C261.677 189.784 260.78 189.639 259.874 189.513C259.758 189.498 259.64 189.53 259.546 189.601C259.453 189.673 259.391 189.778 259.374 189.894C259.358 190.011 259.388 190.129 259.458 190.224C259.528 190.318 259.632 190.382 259.748 190.4M243.728 190.188C244.628 190.112 245.521 190.054 246.396 190.006C246.515 190 246.627 189.946 246.707 189.857C246.786 189.769 246.828 189.652 246.821 189.533C246.82 189.475 246.806 189.418 246.783 189.366C246.759 189.313 246.725 189.265 246.683 189.226C246.64 189.186 246.591 189.155 246.537 189.135C246.483 189.115 246.425 189.105 246.367 189.107H246.348C245.461 189.157 244.555 189.213 243.648 189.291C243.53 189.3 243.42 189.356 243.342 189.446C243.265 189.536 243.226 189.653 243.234 189.772C243.246 189.892 243.303 190.002 243.395 190.08C243.488 190.157 243.606 190.195 243.726 190.186M251.755 189.87C252.655 189.87 253.548 189.898 254.426 189.937C254.546 189.942 254.662 189.899 254.75 189.818C254.838 189.737 254.89 189.625 254.895 189.506C254.9 189.386 254.857 189.27 254.776 189.182C254.695 189.094 254.583 189.042 254.463 189.037C253.576 188.998 252.67 188.97 251.756 188.97C251.699 188.969 251.642 188.98 251.588 189.001C251.535 189.022 251.486 189.054 251.445 189.094C251.404 189.134 251.371 189.182 251.348 189.235C251.325 189.288 251.313 189.344 251.312 189.402V189.414C251.312 189.533 251.358 189.647 251.441 189.732C251.524 189.817 251.638 189.865 251.756 189.867" fill="#00524C"/>
<path fill-rule="evenodd" clip-rule="evenodd" d="M135.363 190.65C134.861 190.651 134.371 190.801 133.954 191.081C133.537 191.361 133.213 191.758 133.021 192.222C132.83 192.686 132.781 193.197 132.88 193.689C132.979 194.181 133.221 194.633 133.577 194.988C133.933 195.342 134.385 195.583 134.878 195.68C135.37 195.777 135.881 195.726 136.344 195.533C136.808 195.34 137.204 195.015 137.482 194.597C137.76 194.179 137.909 193.688 137.908 193.186C137.908 192.852 137.842 192.522 137.713 192.214C137.585 191.906 137.398 191.626 137.161 191.39C136.925 191.155 136.644 190.968 136.336 190.841C136.027 190.714 135.697 190.649 135.363 190.65ZM135.363 191.55C135.688 191.549 136.006 191.645 136.277 191.825C136.547 192.005 136.758 192.261 136.883 192.561C137.009 192.86 137.042 193.191 136.979 193.51C136.917 193.828 136.761 194.122 136.532 194.352C136.302 194.582 136.01 194.739 135.692 194.804C135.373 194.868 135.043 194.836 134.742 194.712C134.442 194.589 134.184 194.379 134.003 194.109C133.822 193.839 133.725 193.522 133.724 193.197V193.189C133.725 192.754 133.897 192.338 134.205 192.031C134.512 191.723 134.929 191.551 135.363 191.55Z" fill="#00524C"/>
<path fill-rule="evenodd" clip-rule="evenodd" d="M248.491 121.403C248.1 121.403 247.718 121.519 247.393 121.735C247.068 121.952 246.814 122.261 246.664 122.622C246.515 122.983 246.475 123.38 246.551 123.764C246.627 124.147 246.816 124.499 247.092 124.776C247.368 125.052 247.72 125.24 248.103 125.317C248.486 125.393 248.884 125.354 249.245 125.205C249.606 125.056 249.915 124.802 250.132 124.478C250.349 124.153 250.465 123.771 250.466 123.38C250.466 123.121 250.415 122.864 250.316 122.624C250.217 122.384 250.071 122.167 249.888 121.983C249.705 121.8 249.487 121.654 249.247 121.555C249.008 121.455 248.751 121.404 248.492 121.404L248.491 121.403ZM248.491 122.303C248.778 122.304 249.053 122.419 249.255 122.623C249.458 122.826 249.571 123.102 249.571 123.389C249.57 123.676 249.456 123.951 249.252 124.154C249.049 124.357 248.774 124.471 248.487 124.471C248.2 124.471 247.924 124.357 247.721 124.154C247.518 123.951 247.403 123.676 247.403 123.389C247.402 123.102 247.516 122.826 247.718 122.623C247.921 122.419 248.196 122.304 248.483 122.303H248.491Z" fill="#000045"/>
<path fill-rule="evenodd" clip-rule="evenodd" d="M234.337 101.859L246.214 96.359C246.321 96.3061 246.403 96.2144 246.444 96.1029C246.485 95.9914 246.482 95.8683 246.435 95.759C246.411 95.7054 246.377 95.657 246.335 95.6165C246.292 95.5761 246.242 95.5445 246.187 95.5235C246.132 95.5025 246.074 95.4926 246.015 95.4942C245.957 95.4958 245.899 95.509 245.845 95.533H245.835L233.96 101.033C233.907 101.058 233.859 101.093 233.82 101.136C233.78 101.179 233.75 101.23 233.73 101.285C233.71 101.34 233.701 101.399 233.704 101.457C233.706 101.516 233.72 101.573 233.745 101.626V101.633C233.793 101.738 233.881 101.82 233.989 101.861C234.097 101.901 234.217 101.897 234.322 101.85H234.332" fill="#00524C"/>
<path fill-rule="evenodd" clip-rule="evenodd" d="M91.6708 168.031C91.5957 167.988 91.5095 167.968 91.423 167.974C91.3366 167.979 91.2537 168.01 91.1849 168.063C91.116 168.115 91.0642 168.187 91.0359 168.269C91.0076 168.351 91.0041 168.439 91.0258 168.523L96.7368 192.238C96.7541 192.305 96.7864 192.366 96.8313 192.418C96.8762 192.47 96.9325 192.511 96.9958 192.538C97.0595 192.567 97.1291 192.579 97.1987 192.575C97.2684 192.571 97.336 192.55 97.3958 192.514L107.587 186.635L117.426 182.967C117.506 182.937 117.575 182.885 117.626 182.816C117.676 182.748 117.706 182.666 117.711 182.581C117.718 182.496 117.701 182.41 117.661 182.334C117.621 182.258 117.56 182.196 117.485 182.154L91.6708 168.031ZM92.1318 169.303C92.1318 169.303 111.802 180.07 116.19 182.474L107.238 185.803C107.214 185.811 107.191 185.823 107.171 185.838L97.4708 191.438L92.1318 169.303Z" fill="#000045"/>
<path fill-rule="evenodd" clip-rule="evenodd" d="M241.236 48.465C241.257 48.3807 241.254 48.292 241.225 48.2098C241.197 48.1275 241.145 48.0554 241.076 48.0023C241.007 47.9491 240.924 47.9173 240.838 47.9107C240.751 47.9041 240.664 47.9229 240.588 47.965L218.869 59.849C218.795 59.8933 218.735 59.9565 218.694 60.0322C218.653 60.1079 218.634 60.1931 218.637 60.279C218.646 60.3654 218.678 60.4476 218.731 60.5162C218.784 60.5849 218.856 60.6371 218.937 60.667L227.207 63.745L235.772 68.69C235.832 68.7252 235.899 68.7461 235.969 68.7509C236.038 68.7558 236.108 68.7445 236.172 68.718C236.236 68.6903 236.292 68.6477 236.337 68.5938C236.381 68.5398 236.411 68.4762 236.426 68.408L241.236 48.465ZM240.13 49.24L235.693 67.612L227.62 62.949C227.598 62.933 227.574 62.9212 227.548 62.914L220.165 60.167L240.13 49.24Z" fill="#00524C"/>
<path fill-rule="evenodd" clip-rule="evenodd" d="M107.504 185.874L92.1777 168.567C92.1401 168.523 92.0941 168.487 92.0424 168.461C91.9908 168.434 91.9344 168.419 91.8767 168.414C91.8189 168.41 91.7608 168.417 91.7058 168.435C91.6507 168.453 91.5997 168.481 91.5557 168.519H91.5497C91.4601 168.598 91.4053 168.71 91.3975 168.829C91.3896 168.948 91.4292 169.066 91.5077 169.156L106.832 186.463C106.87 186.507 106.916 186.542 106.968 186.568C107.02 186.593 107.077 186.608 107.134 186.612C107.192 186.616 107.25 186.608 107.305 186.589C107.36 186.571 107.41 186.541 107.454 186.503L107.46 186.498C107.548 186.425 107.604 186.319 107.615 186.205C107.626 186.09 107.591 185.976 107.518 185.887L107.502 185.869" fill="#000045"/>
<path fill-rule="evenodd" clip-rule="evenodd" d="M227.921 63.582L240.806 49.021C240.885 48.9325 240.926 48.8163 240.92 48.6977C240.914 48.5791 240.861 48.4678 240.773 48.388C240.683 48.3106 240.566 48.2717 240.447 48.2795C240.328 48.2874 240.218 48.3414 240.138 48.43L227.238 62.991C227.16 63.0807 227.12 63.1978 227.128 63.3167C227.136 63.4356 227.191 63.5465 227.28 63.625C227.37 63.7035 227.487 63.7432 227.606 63.7353C227.725 63.7274 227.836 63.6727 227.914 63.583" fill="#00524C"/>
<path fill-rule="evenodd" clip-rule="evenodd" d="M106.599 186.268L103.977 191.627L102.034 189.275C101.958 189.183 101.849 189.125 101.73 189.113C101.611 189.1 101.492 189.134 101.398 189.208C101.353 189.246 101.315 189.292 101.287 189.344C101.259 189.396 101.242 189.454 101.236 189.513C101.231 189.571 101.237 189.631 101.254 189.687C101.272 189.744 101.3 189.797 101.338 189.842L103.724 192.732C103.773 192.789 103.835 192.833 103.905 192.861C103.974 192.888 104.05 192.898 104.124 192.89C104.199 192.882 104.27 192.856 104.331 192.814C104.393 192.771 104.443 192.714 104.476 192.647L107.398 186.66C107.45 186.555 107.458 186.433 107.421 186.322C107.383 186.211 107.303 186.119 107.198 186.066C107.092 186.014 106.97 186.006 106.857 186.043C106.745 186.081 106.652 186.161 106.598 186.266" fill="#000045"/>
<path fill-rule="evenodd" clip-rule="evenodd" d="M227.317 63.737L229.782 68.767C229.817 68.8335 229.867 68.8907 229.928 68.9335C229.99 68.9764 230.061 69.0036 230.135 69.013C230.21 69.0228 230.286 69.013 230.356 68.9846C230.427 68.9562 230.488 68.9102 230.535 68.851L232.542 66.421C232.617 66.3298 232.652 66.2126 232.641 66.0952C232.629 65.9778 232.571 65.8698 232.48 65.795C232.436 65.7575 232.386 65.729 232.331 65.7112C232.276 65.6933 232.218 65.6864 232.161 65.6908C232.103 65.6953 232.047 65.711 231.996 65.7371C231.944 65.7632 231.899 65.7992 231.861 65.843L231.854 65.851L230.282 67.751L228.127 63.351C228.104 63.296 228.069 63.2461 228.026 63.2045C227.983 63.1629 227.932 63.1303 227.876 63.1085C227.82 63.0868 227.761 63.0765 227.701 63.0781C227.641 63.0797 227.582 63.0932 227.527 63.1178C227.473 63.1425 227.423 63.1778 227.383 63.2217C227.342 63.2655 227.31 63.3171 227.289 63.3733C227.269 63.4296 227.259 63.4894 227.262 63.5493C227.265 63.6091 227.279 63.6679 227.305 63.722L227.316 63.745" fill="#00524C"/>
<path fill-rule="evenodd" clip-rule="evenodd" d="M271.511 140.948C271.422 140.614 271.268 140.301 271.057 140.027C270.847 139.753 270.585 139.522 270.286 139.35C269.987 139.177 269.656 139.064 269.314 139.019C268.971 138.974 268.623 138.997 268.289 139.086H268.283L245.645 145.151C245.311 145.24 244.998 145.395 244.724 145.605C244.449 145.815 244.219 146.078 244.046 146.377C243.873 146.677 243.761 147.007 243.716 147.35C243.671 147.693 243.694 148.041 243.783 148.375L247.392 161.847C247.574 162.521 248.015 163.096 248.62 163.445C249.225 163.794 249.943 163.889 250.618 163.709C255.899 162.293 267.979 159.057 273.256 157.641C273.59 157.552 273.903 157.398 274.178 157.188C274.452 156.977 274.682 156.715 274.855 156.416C275.029 156.117 275.141 155.787 275.186 155.444C275.232 155.101 275.209 154.753 275.12 154.419C274.171 150.873 272.46 144.491 271.511 140.944" fill="#000045"/>
<path fill-rule="evenodd" clip-rule="evenodd" d="M243.735 146.564C243.735 146.564 253.55 150.535 257.743 152.228C258.369 152.483 259.062 152.526 259.714 152.351C260.367 152.176 260.945 151.793 261.359 151.259C264.134 147.708 270.615 139.406 270.615 139.406C270.688 139.313 270.721 139.196 270.707 139.079C270.693 138.962 270.633 138.856 270.54 138.783C270.446 138.71 270.327 138.677 270.208 138.692C270.09 138.706 269.982 138.766 269.907 138.859L260.657 150.71C260.362 151.09 259.95 151.362 259.486 151.487C259.021 151.611 258.528 151.58 258.082 151.399L244.077 145.734C243.967 145.69 243.844 145.692 243.735 145.738C243.626 145.784 243.54 145.872 243.494 145.981C243.472 146.035 243.461 146.093 243.461 146.151C243.461 146.21 243.473 146.268 243.495 146.322C243.518 146.376 243.55 146.425 243.592 146.466C243.633 146.507 243.682 146.54 243.736 146.562H243.741" fill="white"/>
<path fill-rule="evenodd" clip-rule="evenodd" d="M164.309 90.168C164.309 90.168 165.493 96.983 166.834 100.01C166.834 100.01 164.647 106.71 169.262 105.321C169.262 105.321 173.01 116.001 183.005 110.999L184.774 116.281L203.818 112.881L199.563 102.441L189.935 85.483L164.309 90.168Z" fill="white"/>
<path fill-rule="evenodd" clip-rule="evenodd" d="M164.22 89.725C164.104 89.7485 164.002 89.816 163.935 89.9132C163.869 90.0104 163.842 90.1297 163.862 90.246C163.862 90.246 165.035 96.907 166.362 100.04C166.057 101.064 165.893 102.124 165.874 103.192C165.794 103.602 165.824 104.026 165.961 104.421C166.099 104.816 166.339 105.167 166.657 105.439C166.974 105.71 167.359 105.893 167.77 105.967C168.181 106.041 168.605 106.005 168.998 105.862C169.536 107.125 171.534 111.162 175.498 112.407C177.922 113.085 180.514 112.805 182.738 111.626L184.349 116.426C184.383 116.528 184.453 116.615 184.546 116.67C184.64 116.725 184.749 116.745 184.856 116.726L203.9 113.314C203.966 113.304 204.03 113.278 204.085 113.24C204.14 113.201 204.186 113.151 204.219 113.092C204.249 113.033 204.266 112.968 204.27 112.901C204.273 112.835 204.263 112.768 204.239 112.706L199.982 102.266C199.97 102.251 199.961 102.235 199.954 102.218L190.327 85.262C190.281 85.1816 190.211 85.1172 190.128 85.0775C190.044 85.0378 189.95 85.0247 189.859 85.04L164.22 89.725ZM164.827 90.525L189.706 85.985C189.706 85.985 198.745 101.919 199.155 102.633L203.191 112.533L185.077 115.771L183.436 110.855C183.415 110.794 183.381 110.738 183.337 110.691C183.292 110.645 183.238 110.608 183.178 110.585C183.119 110.56 183.056 110.549 182.992 110.55C182.929 110.552 182.866 110.567 182.809 110.595C179.945 112.031 177.617 112.137 175.768 111.549C171.432 110.19 169.692 105.177 169.692 105.177C169.655 105.066 169.575 104.975 169.471 104.923C169.366 104.87 169.246 104.862 169.135 104.898C168.871 105.01 168.587 105.068 168.3 105.07C168.013 105.072 167.729 105.017 167.464 104.908C167.209 104.705 167.011 104.439 166.888 104.137C166.765 103.835 166.723 103.506 166.764 103.183C166.789 102.152 166.957 101.13 167.264 100.146C167.299 100.042 167.295 99.9292 167.253 99.828C166.169 96.8064 165.357 93.6941 164.827 90.528" fill="#000045"/>
<path fill-rule="evenodd" clip-rule="evenodd" d="M189.154 91.069C187.415 92.0828 185.88 93.413 184.628 94.991C184.554 95.0838 184.519 95.2025 184.532 95.3209C184.545 95.4394 184.604 95.5478 184.697 95.6225C184.79 95.6972 184.908 95.7319 185.027 95.719C185.145 95.7062 185.254 95.6468 185.328 95.554C186.504 94.07 187.946 92.8192 189.581 91.866C189.686 91.8111 189.764 91.7173 189.8 91.605C189.835 91.4927 189.825 91.3709 189.771 91.266C189.715 91.1603 189.619 91.081 189.505 91.0455C189.391 91.0099 189.267 91.0209 189.16 91.076" fill="#000045"/>
<path fill-rule="evenodd" clip-rule="evenodd" d="M189.105 94.503C188.308 94.0121 187.465 93.5989 186.588 93.269C186.532 93.2504 186.474 93.243 186.415 93.2472C186.356 93.2514 186.299 93.2671 186.246 93.2935C186.194 93.3199 186.147 93.3564 186.108 93.4009C186.07 93.4455 186.041 93.4971 186.022 93.553V93.559C185.987 93.6728 185.998 93.7959 186.053 93.9016C186.108 94.0074 186.202 94.0873 186.315 94.124C187.123 94.4281 187.899 94.8109 188.632 95.267C188.682 95.2982 188.738 95.3192 188.796 95.3289C188.855 95.3385 188.914 95.3366 188.972 95.3232C189.029 95.3099 189.083 95.2853 189.131 95.2509C189.179 95.2166 189.22 95.1731 189.251 95.123C189.282 95.0729 189.303 95.0172 189.313 94.959C189.323 94.9007 189.321 94.8412 189.307 94.7837C189.294 94.7262 189.27 94.6719 189.235 94.624C189.201 94.576 189.157 94.5352 189.107 94.504" fill="#000045"/>
<path fill-rule="evenodd" clip-rule="evenodd" d="M182.778 91.267C183.076 92.9689 183.185 94.6982 183.105 96.424C183.102 96.4651 183.088 96.5046 183.064 96.5385C183.041 96.5723 183.009 96.5994 182.971 96.617C182.933 96.6347 182.891 96.6404 182.849 96.6335C182.808 96.6265 182.77 96.6072 182.739 96.578C181.346 95.1961 180.166 93.614 179.239 91.884C179.239 91.884 169.56 93.272 164.431 90.65L164.76 92.27C163.532 91.5617 162.56 90.4824 161.983 89.187C161.406 87.8917 161.254 86.4469 161.549 85.06L159.611 87.103C159.611 87.103 161.153 68.325 179.238 64.681C193.778 61.761 199.799 70.703 199.799 70.703C199.799 70.703 211.178 76.192 207.625 87.721C204.579 97.602 203.144 99.105 200.625 104.754L198.214 105.217L190.235 97.187C191.176 96.4065 191.787 95.2992 191.946 94.087C192.105 92.8749 191.8 91.6475 191.091 90.651C189.751 88.501 185.702 87.634 182.773 91.268" fill="#000045"/>
<path fill-rule="evenodd" clip-rule="evenodd" d="M168.41 94.151C169.111 93.4131 169.994 92.8727 170.97 92.584C171.083 92.5453 171.175 92.4639 171.228 92.3574C171.281 92.2509 171.289 92.1279 171.252 92.015C171.234 91.9597 171.205 91.9085 171.167 91.8644C171.129 91.8203 171.083 91.7841 171.031 91.7579C170.979 91.7317 170.922 91.716 170.864 91.7118C170.806 91.7075 170.747 91.7147 170.692 91.733H170.684C169.546 92.0711 168.52 92.7111 167.716 93.585C167.642 93.6783 167.607 93.7974 167.62 93.9163C167.633 94.0351 167.692 94.1439 167.785 94.219C167.831 94.2554 167.883 94.2824 167.939 94.2986C167.995 94.3148 168.054 94.3198 168.112 94.3133C168.17 94.3068 168.226 94.2889 168.277 94.2607C168.328 94.2325 168.373 94.1946 168.409 94.149" fill="#000045"/>
<path fill-rule="evenodd" clip-rule="evenodd" d="M177.877 102.762C177.74 103.739 177.258 104.636 176.518 105.288C175.778 105.941 174.828 106.306 173.841 106.319C173.725 106.332 173.617 106.387 173.54 106.474C173.462 106.561 173.419 106.674 173.42 106.791C173.424 106.907 173.474 107.017 173.559 107.097C173.644 107.176 173.758 107.219 173.874 107.215H173.899C175.098 107.195 176.249 106.744 177.144 105.946C178.038 105.147 178.616 104.054 178.772 102.865C178.783 102.746 178.748 102.627 178.673 102.534C178.598 102.441 178.49 102.38 178.372 102.365C178.254 102.354 178.136 102.389 178.044 102.464C177.952 102.539 177.893 102.647 177.88 102.765" fill="#000045"/>
<path d="M170.849 97.956C171.098 97.9221 171.331 97.8152 171.519 97.6488C171.707 97.4823 171.842 97.2637 171.906 97.0208C171.97 96.7778 171.961 96.5212 171.879 96.2836C171.798 96.0459 171.647 95.8378 171.447 95.6855C171.247 95.5333 171.007 95.4437 170.756 95.4281C170.505 95.4125 170.256 95.4716 170.038 95.5979C169.821 95.7243 169.646 95.9122 169.536 96.1379C169.425 96.3636 169.384 96.617 169.418 96.866C169.44 97.0316 169.495 97.1912 169.579 97.3356C169.663 97.48 169.774 97.6065 169.907 97.7077C170.04 97.809 170.192 97.883 170.353 97.9256C170.515 97.9682 170.683 97.9785 170.849 97.956Z" fill="#000045"/>
<path fill-rule="evenodd" clip-rule="evenodd" d="M177.852 220.556L173.098 159.098V130.562L204.764 126.321L224.891 134.833C228.526 135.199 240.306 180.88 244.44 220.556H177.852Z" fill="white"/>
<path fill-rule="evenodd" clip-rule="evenodd" d="M177.399 220.586C177.41 220.699 177.462 220.803 177.546 220.88C177.63 220.956 177.738 220.999 177.852 221H244.441C244.504 221.001 244.567 220.989 244.625 220.964C244.683 220.939 244.735 220.902 244.778 220.856C244.821 220.809 244.853 220.754 244.873 220.694C244.893 220.634 244.9 220.571 244.894 220.508C241.58 188.718 233.355 153.089 228.343 139.922C227.774 138.212 226.976 136.587 225.971 135.092C225.742 134.758 225.405 134.513 225.017 134.398L204.937 125.905C204.864 125.876 204.785 125.866 204.707 125.876L173.041 130.117C172.932 130.131 172.831 130.183 172.758 130.265C172.685 130.346 172.643 130.451 172.641 130.561V159.095C172.641 159.105 172.645 159.115 172.652 159.123L177.399 220.586ZM178.266 220.103C177.852 214.792 173.629 160.185 173.551 159.077V130.957C177.032 130.485 202.722 127.044 204.708 126.784C206.316 127.468 224.708 135.238 224.708 135.238C224.751 135.255 224.796 135.268 224.842 135.275C224.925 135.302 224.998 135.353 225.054 135.42C225.236 135.597 225.397 135.794 225.535 136.008C226.327 137.351 226.986 138.77 227.501 140.242C232.476 153.303 240.601 188.535 243.945 220.104L178.266 220.103Z" fill="#000045"/>
<path fill-rule="evenodd" clip-rule="evenodd" d="M175.335 123.361C175.289 121.925 175.599 120.499 176.237 119.211C176.874 117.923 177.82 116.812 178.99 115.977C182.99 113.268 207.639 106.299 218.781 110.502C222.954 112.073 223.899 116.112 225.462 121.983C226.281 125.077 225.75 126.051 228.162 130.456C230.574 134.861 226.736 138.737 221.722 138.717C211.266 138.575 200.907 136.696 191.068 133.155C178.315 128.345 175.588 130.697 172.744 132.162C172.744 132.162 170.672 126.031 175.337 123.362" fill="#00524C"/>
<path fill-rule="evenodd" clip-rule="evenodd" d="M177.262 123.539C179.409 123.078 181.623 123.023 183.789 123.377C183.904 123.402 184.024 123.382 184.123 123.319C184.222 123.256 184.292 123.157 184.318 123.043C184.348 122.931 184.332 122.813 184.275 122.713C184.217 122.613 184.122 122.54 184.01 122.51L183.982 122.504C181.688 122.126 179.343 122.177 177.067 122.655C176.952 122.684 176.853 122.756 176.791 122.857C176.728 122.957 176.708 123.078 176.733 123.194C176.757 123.309 176.824 123.41 176.922 123.475C177.019 123.54 177.138 123.564 177.253 123.541H177.262" fill="#000045"/>
<path fill-rule="evenodd" clip-rule="evenodd" d="M224.732 126.577C224.732 126.577 219.982 129.151 208.617 126.544C208.562 126.53 208.504 126.526 208.447 126.534C208.39 126.542 208.335 126.561 208.286 126.59C208.236 126.619 208.193 126.658 208.159 126.704C208.124 126.749 208.099 126.801 208.084 126.857L208.079 126.878C208.053 126.994 208.074 127.115 208.136 127.215C208.199 127.316 208.298 127.388 208.413 127.416C220.229 130.116 225.163 127.362 225.163 127.362C225.26 127.301 225.33 127.206 225.359 127.095C225.388 126.984 225.373 126.866 225.318 126.766C225.263 126.666 225.172 126.59 225.063 126.555C224.954 126.519 224.836 126.528 224.732 126.577Z" fill="#000045"/>
<path fill-rule="evenodd" clip-rule="evenodd" d="M49.1375 221.003H283.195C283.314 221.003 283.428 220.956 283.513 220.871C283.597 220.787 283.645 220.672 283.645 220.553C283.645 220.434 283.597 220.319 283.513 220.235C283.428 220.15 283.314 220.103 283.195 220.103H49.1375C49.0182 220.103 48.9037 220.15 48.8193 220.235C48.7349 220.319 48.6875 220.434 48.6875 220.553C48.6875 220.672 48.7349 220.787 48.8193 220.871C48.9037 220.956 49.0182 221.003 49.1375 221.003Z" fill="#000045"/>
<path fill-rule="evenodd" clip-rule="evenodd" d="M136.485 132.069C135.61 130.205 134.927 128.258 134.446 126.256C134.056 124.181 133.114 122.25 131.721 120.664C130.752 119.695 129.137 120.664 129.137 120.664C129.137 120.664 124.221 114.002 122.162 111.206C121.923 110.887 121.568 110.674 121.173 110.614C120.779 110.553 120.376 110.65 120.053 110.883C119.723 111.128 119.496 111.487 119.416 111.89C119.336 112.292 119.408 112.71 119.619 113.063C121.244 115.778 124.898 121.845 124.898 121.845C124.281 122.07 123.716 122.415 123.234 122.86C122.752 123.306 122.364 123.842 122.092 124.439C122.092 124.439 119.902 125.59 119.792 127.649C119.351 128.131 119.035 128.712 118.869 129.343C118.704 129.974 118.695 130.636 118.843 131.272C119.343 133.472 122.093 135.36 123.638 136.28C124.767 137.04 125.777 137.962 126.638 139.016L131.352 137.603L136.485 132.069Z" fill="white"/>
<path fill-rule="evenodd" clip-rule="evenodd" d="M136.81 132.372C136.873 132.308 136.915 132.227 136.929 132.138C136.944 132.049 136.93 131.959 136.891 131.878C136.031 130.054 135.361 128.146 134.891 126.184C134.482 124.014 133.495 121.995 132.034 120.34C131.814 120.126 131.547 119.965 131.255 119.871C130.963 119.776 130.653 119.75 130.349 119.795C129.979 119.838 129.619 119.937 129.279 120.088L122.516 110.943C122.212 110.527 121.756 110.249 121.247 110.17C120.739 110.091 120.22 110.217 119.804 110.52L119.791 110.529C119.369 110.837 119.078 111.292 118.976 111.804C118.873 112.316 118.966 112.848 119.236 113.295L124.253 121.643C123.149 122.152 122.257 123.03 121.73 124.126C121.118 124.479 120.589 124.959 120.178 125.533C119.767 126.108 119.484 126.764 119.348 127.457C118.899 127.993 118.58 128.625 118.417 129.305C118.254 129.985 118.252 130.693 118.409 131.374C118.691 132.382 119.234 133.297 119.984 134.027C121.004 135.054 122.154 135.944 123.406 136.672C124.494 137.398 125.467 138.283 126.293 139.297C126.348 139.366 126.423 139.418 126.507 139.445C126.592 139.472 126.682 139.473 126.768 139.449L131.482 138.036C131.556 138.009 131.624 137.968 131.682 137.915L136.81 132.372ZM135.952 131.972L131.11 137.203L126.8 138.495C125.949 137.497 124.964 136.622 123.873 135.895C122.69 135.211 121.601 134.376 120.633 133.411C119.997 132.795 119.535 132.023 119.291 131.172C119.161 130.611 119.168 130.026 119.31 129.468C119.452 128.909 119.726 128.393 120.109 127.962C120.186 127.883 120.232 127.779 120.24 127.669C120.34 127.068 120.579 126.498 120.938 126.006C121.298 125.514 121.767 125.112 122.309 124.833C122.36 124.808 122.405 124.773 122.442 124.73C122.478 124.686 122.505 124.636 122.521 124.581C122.767 124.047 123.116 123.568 123.55 123.171C123.983 122.775 124.491 122.468 125.044 122.27C125.106 122.247 125.163 122.211 125.211 122.164C125.258 122.117 125.294 122.061 125.317 121.998C125.342 121.936 125.353 121.869 125.348 121.802C125.343 121.736 125.322 121.671 125.287 121.614L120.008 112.832C119.853 112.576 119.8 112.272 119.858 111.979C119.915 111.686 120.081 111.425 120.321 111.247C120.548 111.082 120.831 111.013 121.108 111.054C121.386 111.096 121.636 111.245 121.805 111.469L128.78 120.927C128.845 121.02 128.944 121.084 129.056 121.107C129.167 121.129 129.283 121.108 129.38 121.048C129.709 120.858 130.073 120.735 130.45 120.685C130.621 120.657 130.797 120.669 130.963 120.719C131.13 120.77 131.282 120.858 131.409 120.977C132.741 122.494 133.639 124.342 134.009 126.327C134.461 128.273 135.114 130.167 135.957 131.979" fill="#000045"/>
<path fill-rule="evenodd" clip-rule="evenodd" d="M141.529 135.932C142.129 135.927 142.723 136.047 143.274 136.284C143.825 136.522 144.321 136.871 144.729 137.311C147.496 139.962 153.048 145.889 162.061 158.065C162.061 158.065 168.172 137.253 172.616 132.365C177.06 127.477 194.508 134.535 190.17 153.565C185.832 172.595 178.707 190.156 166.726 190.436C154.745 190.716 146.338 179.554 137.577 167.203C128.816 154.852 127.417 147.49 128.294 144.956C128.325 144.857 128.364 144.761 128.41 144.668C128.169 144.176 127.34 142.856 126.655 141.568C126.35 140.984 126.237 140.319 126.331 139.667C126.424 139.015 126.72 138.409 127.177 137.934C129.694 135.362 132.699 133.317 136.016 131.919C136.459 131.736 136.948 131.698 137.414 131.81C137.88 131.923 138.298 132.18 138.609 132.545C139.785 133.904 141.53 135.94 141.53 135.94" fill="white"/>
<path fill-rule="evenodd" clip-rule="evenodd" d="M141.742 135.488C141.318 134.996 139.942 133.377 138.942 132.241C138.567 131.809 138.067 131.505 137.511 131.372C136.955 131.238 136.372 131.282 135.842 131.497C132.467 132.92 129.409 135.001 126.848 137.619C126.325 138.16 125.987 138.852 125.881 139.596C125.775 140.341 125.908 141.099 126.26 141.764C126.867 142.93 127.6 144.107 127.918 144.684C127.889 144.762 127.87 144.801 127.87 144.81C127.504 145.881 127.494 147.752 128.227 150.45C129.287 154.335 131.909 159.992 137.211 167.462C141.611 173.67 145.925 179.569 150.639 183.889C155.42 188.263 160.626 191.021 166.739 190.889C171.666 190.774 175.811 187.843 179.271 183.081C184.361 176.103 188.005 165.152 190.617 153.671C193.717 140.012 185.837 132.397 179.301 130.771C176.379 130.039 173.708 130.511 172.282 132.071C170.934 133.554 169.41 136.504 167.964 139.897C165.217 146.357 162.681 154.464 161.891 157.085C153.167 145.364 147.77 139.6 145.041 136.997C144.617 136.541 144.107 136.174 143.541 135.917C142.974 135.66 142.363 135.517 141.741 135.497M141.192 136.23C141.232 136.277 141.283 136.316 141.339 136.342C141.396 136.369 141.457 136.383 141.52 136.384C142.064 136.383 142.603 136.495 143.102 136.713C143.601 136.93 144.05 137.249 144.42 137.648C147.177 140.288 152.71 146.208 161.694 158.348C161.745 158.415 161.813 158.466 161.892 158.497C161.97 158.527 162.055 158.536 162.138 158.521C162.22 158.506 162.295 158.468 162.357 158.411C162.418 158.355 162.462 158.282 162.484 158.202C162.484 158.202 165.473 148.033 168.79 140.264C170.19 136.978 171.632 134.123 172.943 132.688C174.187 131.318 176.528 131.01 179.073 131.647C185.301 133.197 192.695 140.485 189.736 153.48C187.152 164.835 183.575 175.66 178.544 182.571C175.266 187.071 171.371 189.887 166.706 190.002C160.836 190.139 155.842 187.448 151.244 183.236C146.569 178.955 142.299 173.104 137.944 166.954C132.729 159.61 130.136 154.047 129.095 150.221C128.42 147.782 128.382 146.074 128.719 145.112C128.748 145.023 128.783 144.936 128.825 144.852C128.87 144.733 128.866 144.602 128.815 144.486C128.574 143.986 127.745 142.663 127.051 141.362C126.792 140.864 126.696 140.297 126.775 139.741C126.855 139.185 127.106 138.668 127.495 138.262C129.969 135.729 132.926 133.717 136.19 132.344C136.545 132.198 136.938 132.168 137.312 132.258C137.685 132.347 138.021 132.553 138.272 132.844C139.448 134.203 141.193 136.236 141.193 136.236" fill="#000045"/>
<path fill-rule="evenodd" clip-rule="evenodd" d="M161.677 158.29C163.932 162.331 165.577 166.683 166.557 171.205C166.569 171.262 166.591 171.317 166.624 171.366C166.656 171.414 166.698 171.456 166.747 171.489C166.795 171.521 166.85 171.544 166.907 171.555C166.965 171.567 167.024 171.567 167.081 171.556C167.138 171.544 167.193 171.522 167.242 171.489C167.29 171.457 167.332 171.415 167.365 171.366C167.397 171.318 167.42 171.263 167.431 171.206C167.443 171.148 167.443 171.089 167.431 171.032C166.437 166.409 164.76 161.96 162.454 157.832C162.425 157.781 162.385 157.736 162.338 157.701C162.291 157.665 162.238 157.639 162.181 157.624C162.065 157.594 161.943 157.61 161.84 157.671C161.737 157.731 161.662 157.829 161.632 157.944C161.602 158.06 161.618 158.182 161.678 158.285" fill="#000045"/>
<path fill-rule="evenodd" clip-rule="evenodd" d="M130.607 143.974C130.607 143.974 136.079 138.706 139.707 137.596C139.821 137.562 139.917 137.483 139.973 137.379C140.029 137.274 140.042 137.151 140.007 137.037C139.971 136.924 139.893 136.829 139.788 136.773C139.684 136.717 139.561 136.704 139.447 136.737C135.677 137.888 129.978 143.329 129.978 143.329C129.894 143.413 129.846 143.526 129.844 143.644C129.842 143.763 129.886 143.878 129.967 143.964C130.008 144.006 130.056 144.041 130.11 144.064C130.164 144.088 130.222 144.101 130.28 144.102C130.339 144.104 130.397 144.094 130.452 144.072C130.507 144.051 130.557 144.02 130.599 143.979" fill="#000045"/>
</g>
<defs>
<clipPath id="clip0_246_876">
<rect width="339" height="221" fill="white"/>
</clipPath>
</defs>
</svg>
