<svg width="255" height="255" viewBox="0 0 255 255" fill="none" xmlns="http://www.w3.org/2000/svg">
<g clip-path="url(#clip0_246_926)">
<mask id="mask0_246_926" style="mask-type:luminance" maskUnits="userSpaceOnUse" x="0" y="0" width="255" height="255">
<path d="M255 0H0V255H255V0Z" fill="white"/>
</mask>
<g mask="url(#mask0_246_926)">
<path d="M254.92 127.378C254.936 141.743 252.504 156.006 247.73 169.555C247.33 170.688 246.916 171.812 246.487 172.925C242.745 182.631 237.818 191.837 231.819 200.335L231.713 200.485L231.569 200.685L231.562 200.695C219.861 217.207 204.371 230.671 186.39 239.958C168.41 249.246 148.464 254.085 128.227 254.07C111.589 254.073 95.1128 250.798 79.7402 244.433C64.3677 238.067 50.3999 228.735 38.6347 216.97C26.8695 205.205 17.5373 191.237 11.1714 175.865C4.80539 160.492 1.53031 144.016 1.53321 127.378C1.53321 93.7769 14.8811 61.5519 38.6407 37.7922C62.4002 14.0325 94.625 0.684286 128.226 0.684021C144.864 0.684021 161.339 3.96106 176.71 10.328C192.081 16.695 206.048 26.0272 217.812 37.7918C229.577 49.5565 238.909 63.5231 245.276 78.8943C251.643 94.2655 254.92 110.74 254.92 127.378Z" fill="url(#paint0_linear_246_926)"/>
<path d="M66.1039 161.409C60.0323 161.414 54.0763 159.749 48.8869 156.597C43.3606 152.927 39.1918 147.545 37.0209 141.276C36.8843 140.907 36.7536 140.536 36.6289 140.163C35.2413 139.875 33.8931 139.421 32.6129 138.813C31.7696 138.414 30.966 137.935 30.2129 137.384C28.4756 136.093 27.0342 134.446 25.9856 132.553C24.937 130.66 24.3053 128.564 24.1329 126.407C23.0749 117.2 28.0679 105.888 33.5469 99.473C40.0049 91.912 48.3229 86.783 58.9779 83.792C69.3779 80.872 80.5189 80.462 89.0579 80.432C111.476 80.351 131.698 79.807 152.158 73.932C171.563 68.3886 189.577 58.8073 205.021 45.816C205.033 45.8054 205.048 45.7973 205.064 45.7923C205.079 45.7873 205.096 45.7854 205.112 45.7867C205.129 45.7881 205.145 45.7926 205.159 45.8001C205.174 45.8076 205.187 45.818 205.197 45.8305C205.208 45.8431 205.216 45.8576 205.221 45.8732C205.226 45.8889 205.228 45.9054 205.227 45.9218C205.225 45.9382 205.221 45.9541 205.213 45.9687C205.206 45.9834 205.195 45.9964 205.183 46.007C189.714 59.0209 171.669 68.6195 152.232 74.174C131.737 80.057 111.496 80.603 89.0599 80.684C69.6489 80.754 47.8969 83.06 33.7389 99.637C28.2939 106.011 23.3319 117.243 24.3819 126.382C24.5516 128.504 25.1729 130.566 26.2043 132.429C27.2356 134.291 28.6532 135.912 30.3619 137.182C31.1018 137.722 31.8909 138.191 32.7189 138.582C33.9374 139.161 35.2186 139.597 36.5369 139.882C34.5897 134.069 34.2245 127.842 35.4789 121.841C37.1269 114.495 41.9789 108.241 48.1339 105.511C55.3859 102.3 66.1919 104.277 70.1049 112.244C72.9659 118.067 69.3669 123.997 66.9679 127.013C60.9589 134.565 48.0099 142.351 36.9309 140.213C39.2389 146.965 43.4849 152.913 49.0179 156.374C54.4761 159.69 60.7822 161.342 67.1649 161.13C67.1981 161.13 67.2299 161.143 67.2533 161.167C67.2768 161.19 67.2899 161.222 67.2899 161.255C67.2899 161.288 67.2768 161.32 67.2533 161.343C67.2299 161.367 67.1981 161.38 67.1649 161.38C66.8083 161.391 66.4513 161.397 66.0939 161.398L66.1039 161.409ZM36.8399 139.951C47.8479 142.168 60.7799 134.395 66.7719 126.864C69.1349 123.894 72.6799 118.064 69.8809 112.364C66.0299 104.523 55.3809 102.585 48.2359 105.749C42.1519 108.441 37.3519 114.632 35.7239 121.902C34.4669 127.909 34.8525 134.144 36.8399 139.951Z" fill="#011721"/>
<path d="M214.956 108.65H167.673C167.278 108.65 166.888 108.732 166.526 108.892C166.165 109.051 165.84 109.283 165.573 109.574L159.856 115.8C159.466 116.226 158.955 116.523 158.392 116.652C157.829 116.781 157.241 116.736 156.704 116.524C156.167 116.311 155.707 115.941 155.385 115.461C155.063 114.981 154.894 114.416 154.901 113.838L154.927 111.538C154.931 111.161 154.861 110.786 154.719 110.436C154.578 110.086 154.368 109.768 154.103 109.5C153.838 109.231 153.522 109.018 153.173 108.873C152.825 108.727 152.452 108.652 152.074 108.652H151.564C150.175 108.652 148.844 108.1 147.862 107.118C146.88 106.136 146.328 104.805 146.328 103.416V58.176C146.328 56.7873 146.88 55.4555 147.862 54.4736C148.844 53.4917 150.175 52.94 151.564 52.94H214.956C216.345 52.94 217.677 53.4917 218.659 54.4736C219.64 55.4555 220.192 56.7873 220.192 58.176V103.415C220.192 104.804 219.64 106.135 218.659 107.117C217.677 108.099 216.345 108.65 214.956 108.65Z" fill="url(#paint1_linear_246_926)"/>
<path d="M213.453 59.265C213.075 59.1976 212.686 59.232 212.326 59.3647C211.965 59.4974 211.647 59.7236 211.403 60.02C211.159 59.7235 210.841 59.4972 210.48 59.3645C210.12 59.2318 209.731 59.1975 209.353 59.265C208.86 59.4259 208.441 59.7565 208.17 60.1979C207.898 60.6393 207.792 61.1628 207.871 61.675C208.018 62.789 208.756 64.299 211.403 65.275C214.05 64.297 214.788 62.787 214.935 61.675C215.014 61.1628 214.908 60.6393 214.637 60.1979C214.365 59.7565 213.946 59.4259 213.453 59.265Z" fill="#5AA7A7"/>
<path opacity="0.2" d="M183.811 90.571C189.018 90.571 193.239 86.3499 193.239 81.143C193.239 75.9361 189.018 71.715 183.811 71.715C178.604 71.715 174.383 75.9361 174.383 81.143C174.383 86.3499 178.604 90.571 183.811 90.571Z" fill="#FF6902"/>
<path d="M186.103 85.905L179.047 78.849C178.72 78.5209 178.537 78.0769 178.537 77.614C178.537 77.1512 178.72 76.7071 179.047 76.379C179.375 76.0526 179.819 75.8693 180.282 75.8693C180.745 75.8693 181.189 76.0526 181.517 76.379L188.573 83.435C188.899 83.7631 189.083 84.2072 189.083 84.67C189.083 85.1329 188.899 85.5769 188.573 85.905C188.245 86.2315 187.801 86.4147 187.338 86.4147C186.875 86.4147 186.431 86.2315 186.103 85.905Z" fill="white"/>
<path d="M188.573 78.849L181.517 85.905C181.189 86.2315 180.745 86.4147 180.282 86.4147C179.819 86.4147 179.375 86.2315 179.047 85.905C178.72 85.5769 178.537 85.1329 178.537 84.67C178.537 84.2072 178.72 83.7631 179.047 83.435L186.103 76.383C186.431 76.0566 186.875 75.8733 187.338 75.8733C187.801 75.8733 188.245 76.0566 188.573 76.383C188.898 76.711 189.081 77.1541 189.081 77.616C189.081 78.0779 188.898 78.5211 188.573 78.849Z" fill="white"/>
<path d="M173.569 61.914C170.419 63.5914 167.721 66.0053 165.705 68.9501C163.689 71.8948 162.415 75.2832 161.991 78.8266C161.567 82.3699 162.005 85.9633 163.269 89.3007C164.533 92.6381 166.585 95.6205 169.25 97.994L172.012 95.314C170.09 93.6539 168.534 91.612 167.444 89.3182C166.354 87.0244 165.753 84.5288 165.68 81.9902C165.606 79.4516 166.061 76.9254 167.017 74.5723C167.972 72.2192 169.407 70.0907 171.23 68.322C173.052 66.5533 175.223 65.1832 177.603 64.2988C179.984 63.4143 182.523 63.0349 185.058 63.1847C187.593 63.3344 190.07 64.01 192.33 65.1685C194.59 66.327 196.584 67.9431 198.186 69.914L200.949 67.233C197.687 63.341 193.186 60.6883 188.201 59.7192C183.216 58.7501 178.05 59.5236 173.567 61.91L173.569 61.914Z" fill="black"/>
<path opacity="0.7" d="M173.569 61.914C170.419 63.5914 167.721 66.0053 165.705 68.9501C163.689 71.8948 162.415 75.2832 161.991 78.8266C161.567 82.3699 162.005 85.9633 163.269 89.3007C164.533 92.6381 166.585 95.6205 169.25 97.994L172.012 95.314C170.09 93.6539 168.534 91.612 167.444 89.3182C166.354 87.0244 165.753 84.5288 165.68 81.9902C165.606 79.4516 166.061 76.9254 167.017 74.5723C167.972 72.2192 169.407 70.0907 171.23 68.322C173.052 66.5533 175.223 65.1832 177.603 64.2988C179.984 63.4143 182.523 63.0349 185.058 63.1847C187.593 63.3344 190.07 64.01 192.33 65.1685C194.59 66.327 196.584 67.9431 198.186 69.914L200.949 67.233C197.687 63.341 193.186 60.6883 188.201 59.7192C183.216 58.7501 178.05 59.5236 173.567 61.91L173.569 61.914Z" fill="#FF6902"/>
<path d="M200.725 72.536C198.961 69.2233 196.255 66.508 192.947 64.7336C189.64 62.9592 185.881 62.2054 182.146 62.5674C178.41 62.9294 174.866 64.391 171.961 66.7675C169.056 69.1439 166.921 72.3284 165.826 75.9182C164.731 79.508 164.725 83.3419 165.809 86.9351C166.892 90.5283 169.018 93.7194 171.915 96.1049C174.813 98.4903 178.352 99.963 182.087 100.337C185.821 100.71 189.583 99.9681 192.895 98.204C197.337 95.8385 200.658 91.8053 202.126 86.9916C203.595 82.178 203.091 76.9781 200.725 72.536ZM192.58 97.611C189.385 99.3129 185.756 100.029 182.153 99.6684C178.55 99.308 175.135 97.8872 172.34 95.5858C169.544 93.2845 167.494 90.2059 166.449 86.7394C165.403 83.2728 165.409 79.5741 166.465 76.1108C167.522 72.6475 169.581 69.5754 172.384 67.2827C175.186 64.9901 178.606 63.58 182.21 63.2307C185.814 62.8815 189.44 63.6088 192.631 65.3207C195.821 67.0325 198.433 69.6521 200.134 72.848C202.416 77.1335 202.902 82.15 201.486 86.794C200.069 91.4379 196.866 95.3289 192.58 97.611Z" fill="#FF6902"/>
<path opacity="0.1" d="M183.977 99.764C194.088 99.764 202.284 91.5677 202.284 81.457C202.284 71.3463 194.088 63.15 183.977 63.15C173.866 63.15 165.67 71.3463 165.67 81.457C165.67 91.5677 173.866 99.764 183.977 99.764Z" fill="#FF6902"/>
<path opacity="0.1" d="M110.57 109.911C110.053 104.723 108.089 99.7842 104.902 95.658C101.714 91.5319 97.4318 88.3842 92.5424 86.5739C87.6529 84.7636 82.3531 84.3633 77.2472 85.4189C72.1413 86.4745 67.4347 88.9433 63.6639 92.544C59.8931 96.1448 57.2097 100.732 55.9198 105.784C54.6298 110.836 54.7851 116.149 56.368 121.116C57.9509 126.084 60.8976 130.507 64.8723 133.882C68.8471 137.256 73.6899 139.446 78.8487 140.201C79.2855 140.262 79.7046 140.414 80.0789 140.647C80.4532 140.88 80.7744 141.189 81.0217 141.554L83.3317 145.004C83.6454 145.472 84.0805 145.847 84.5904 146.087C85.1002 146.328 85.6659 146.426 86.2269 146.37C86.7879 146.314 87.3233 146.107 87.7759 145.771C88.2285 145.435 88.5813 144.982 88.7967 144.461L90.3817 140.624C90.5531 140.218 90.8078 139.852 91.1294 139.55C91.451 139.248 91.8323 139.017 92.2487 138.872C98.0953 136.78 103.074 132.793 106.394 127.545C109.714 122.297 111.184 116.09 110.57 109.911Z" fill="#FF6902"/>
<path d="M76.8425 111.82C75.9467 110.268 73.9627 109.736 72.4111 110.632C70.8595 111.528 70.3279 113.512 71.2237 115.064C72.1195 116.615 74.1035 117.147 75.6551 116.251C77.2067 115.355 77.7383 113.371 76.8425 111.82Z" fill="#FF6902"/>
<path d="M82.2712 116.14C84.0628 116.131 85.5073 114.67 85.4976 112.879C85.488 111.087 84.0277 109.643 82.2361 109.652C80.4446 109.662 79 111.122 79.0097 112.914C79.0194 114.706 80.4797 116.15 82.2712 116.14Z" fill="#FF6902"/>
<path d="M90.4686 115.599C92.2602 115.599 93.7126 114.147 93.7126 112.355C93.7126 110.563 92.2602 109.111 90.4686 109.111C88.677 109.111 87.2246 110.563 87.2246 112.355C87.2246 114.147 88.677 115.599 90.4686 115.599Z" fill="#FF6902"/>
<path d="M249.892 200.437H0.836466C0.742561 200.452 0.646569 200.446 0.555096 200.42C0.463624 200.394 0.378843 200.349 0.306589 200.287C0.234334 200.225 0.176323 200.149 0.136546 200.062C0.0967691 199.976 0.0761719 199.882 0.0761719 199.787C0.0761719 199.692 0.0967691 199.598 0.136546 199.512C0.176323 199.425 0.234334 199.349 0.306589 199.287C0.378843 199.225 0.463624 199.18 0.555096 199.154C0.646569 199.128 0.742561 199.122 0.836466 199.137H249.892C249.986 199.122 250.082 199.128 250.174 199.154C250.265 199.18 250.35 199.225 250.422 199.287C250.495 199.349 250.553 199.425 250.592 199.512C250.632 199.598 250.653 199.692 250.653 199.787C250.653 199.882 250.632 199.976 250.592 200.062C250.553 200.149 250.495 200.225 250.422 200.287C250.35 200.349 250.265 200.394 250.174 200.42C250.082 200.446 249.986 200.452 249.892 200.437Z" fill="#011721"/>
<path d="M96.1535 121.543L98.6365 121.7L98.5365 133.859L95.9785 134.251L96.1535 121.543Z" fill="#011721"/>
<path d="M98.2865 122.16L96.5345 122.008L96.3945 133.665L98.1945 133.48L98.2865 122.16Z" fill="white"/>
<path d="M188.723 123.268L186.238 123.154L185.006 135.254L187.506 135.922L188.723 123.268Z" fill="#011721"/>
<path d="M186.535 123.649L188.293 123.689L187.158 135.289L185.393 134.909L186.535 123.649Z" fill="white"/>
<path d="M99.5901 184.143L20.0521 194.982C19.5486 195.051 19.0898 195.308 18.7676 195.701C18.4453 196.094 18.2834 196.594 18.3143 197.102C18.3451 197.609 18.5664 198.086 18.9339 198.437C19.3014 198.788 19.7879 198.987 20.2961 198.995L118.24 200.364L127.625 196.515L99.5901 184.143Z" fill="#011721"/>
<path d="M27.4691 193.975L20.0521 194.986C19.5486 195.055 19.0898 195.312 18.7676 195.705C18.4453 196.098 18.2834 196.598 18.3143 197.106C18.3451 197.613 18.5664 198.09 18.9339 198.441C19.3014 198.792 19.7879 198.991 20.2961 198.999L29.9631 199.134L27.4691 193.975Z" fill="#FFD2B3"/>
<path d="M99.5898 184.143L27.4688 193.974L28.4977 196.103L106.257 190.527L110.709 189.051L99.5898 184.143Z" fill="#05293C"/>
<path d="M138.281 129.535C138.281 131.46 137.516 133.306 136.155 134.666C134.794 136.027 132.948 136.792 131.024 136.792C129.524 136.792 129.79 134.283 128.632 133.501C126.702 132.201 123.768 132.041 123.768 129.536C123.768 127.611 124.532 125.766 125.893 124.405C127.254 123.044 129.1 122.28 131.024 122.28C132.949 122.28 134.794 123.044 136.155 124.405C137.516 125.766 138.281 127.61 138.281 129.535Z" fill="#011721"/>
<path d="M137.377 124.456C138.579 123.254 138.579 121.306 137.377 120.104C136.175 118.902 134.226 118.902 133.024 120.104C131.822 121.306 131.822 123.254 133.024 124.456C134.226 125.659 136.175 125.659 137.377 124.456Z" fill="#011721"/>
<path d="M128.342 136.8V135.522H125.17L122.449 132.101L125.87 128.284C125.87 128.284 126.181 132.517 129.37 132.542L130.847 130.468C130.847 130.468 132.947 132.101 130.847 133.578C130.567 134.121 130.465 134.739 130.557 135.343C130.649 135.947 130.929 136.507 131.357 136.942L129.681 137.853L128.342 136.8Z" fill="#FFD2B3"/>
<path d="M123.594 200.901C133.08 199.271 135.046 187.116 135.427 183.401C132.446 187.494 116.758 173.383 116.758 173.383C101.508 159.36 92.5676 153.083 92.5676 153.083C80.0826 167.254 66.1886 188.898 59.5436 199.641C59.3435 199.965 59.2623 200.348 59.314 200.726C59.3657 201.103 59.5471 201.45 59.827 201.708C60.1069 201.967 60.4679 202.119 60.848 202.14C61.2282 202.161 61.6039 202.05 61.9106 201.824C76.2356 191.329 93.1556 175.059 93.1556 175.059L105.539 192.136C113.602 201.952 123.594 200.901 123.594 200.901Z" fill="#05293C"/>
<path d="M135.388 142.66C134.824 136.693 128.807 134.748 123.982 138.304L106.561 149.296L95.7206 127.658C95.6019 127.424 95.4004 127.242 95.1552 127.147C94.91 127.053 94.6385 127.053 94.3934 127.148C94.1483 127.242 93.947 127.425 93.8286 127.659C93.7102 127.894 93.6831 128.164 93.7526 128.417L102.778 161.117L116.928 154.859L116.753 173.385C116.753 173.385 132.441 187.495 135.422 183.403C135.492 182.724 135.509 182.325 135.509 182.325V151.525C135.509 150.548 135.465 143.504 135.385 142.659L135.388 142.66Z" fill="#FF6902"/>
<path d="M116.932 154.855L127.624 150.87L119.386 175.632L116.756 173.382L116.932 154.855Z" fill="black"/>
<path opacity="0.8" d="M116.932 154.855L127.624 150.87L119.386 175.632L116.756 173.382L116.932 154.855Z" fill="#FF6902"/>
<path d="M64.2436 192.17C62.4436 194.988 60.8496 197.528 59.5436 199.642C59.3435 199.966 59.2623 200.349 59.314 200.727C59.3657 201.104 59.5471 201.451 59.827 201.709C60.1069 201.968 60.4679 202.12 60.848 202.141C61.2282 202.162 61.6039 202.051 61.9106 201.825C63.7636 200.468 65.6606 199.012 67.5576 197.509L64.2446 192.171L64.2436 192.17Z" fill="#FFD2B3"/>
<path d="M98.7385 133.671L95.7245 127.654C95.6058 127.42 95.4043 127.238 95.1591 127.143C94.9139 127.049 94.6424 127.049 94.3973 127.144C94.1522 127.238 93.9509 127.421 93.8325 127.655C93.7141 127.89 93.687 128.16 93.7565 128.413L95.0365 133.051L98.7385 133.671Z" fill="#FFD2B3"/>
<path d="M123.593 200.901C128.193 200.11 131.023 196.842 132.763 193.263C132.763 193.263 120.981 197.539 107.484 181.063L93.1986 166.251L67.5566 197.508C80.3286 187.391 93.1566 175.059 93.1566 175.059L105.541 192.137C113.604 201.953 123.595 200.901 123.595 200.901H123.593Z" fill="#011721"/>
<path d="M148.696 132.124L192.647 100.668C192.883 100.498 193.173 100.423 193.462 100.455C193.751 100.488 194.017 100.627 194.208 100.845C194.4 101.063 194.504 101.345 194.499 101.635C194.494 101.926 194.382 102.204 194.183 102.416L158.72 140.453L149.958 139.627L148.695 132.127L148.696 132.124Z" fill="#FF6902"/>
<path d="M188.26 103.808L148.695 132.125L149.131 134.711L153.231 132.268L188.26 103.808Z" fill="black"/>
<path opacity="0.8" d="M188.26 103.808L148.695 132.125L149.131 134.711L153.231 132.268L188.26 103.808Z" fill="#FF6902"/>
<path d="M151.572 121.374L151.23 114.42C147.947 115.777 144.75 117.331 141.655 119.074C140.673 119.605 139.889 120.439 139.418 121.45C138.947 122.462 138.815 123.599 139.041 124.692C139.45 126.532 140.714 128.727 143.857 130.838L145.874 133.068L147.274 129.534L150.867 125.758L151.572 121.374Z" fill="#011721"/>
<path d="M148.737 130.792L148.524 129.273L152.293 128.743L154.954 124.224L150.254 120.261C150.254 120.261 150.592 125.342 146.809 125.904L144.709 123.687C144.709 123.687 142.488 125.977 145.229 127.382C145.652 127.98 145.876 128.697 145.868 129.43C145.861 130.163 145.622 130.875 145.186 131.464L147.329 132.264L148.741 130.789L148.737 130.792Z" fill="#FFD2B3"/>
<path d="M173.95 185.335L189.026 172.449L227.55 198.078C227.912 198.329 228.354 198.438 228.791 198.386C229.228 198.333 229.631 198.122 229.923 197.792C230.215 197.462 230.376 197.037 230.375 196.596C230.375 196.156 230.213 195.731 229.92 195.402C220.303 184.221 204.133 166.167 192.32 156.84L173.949 167.565L173.95 185.335Z" fill="#011721"/>
<path d="M192.325 156.835L183.262 162.126L186.891 163.245L191.891 160.637L222.653 192.251L227.733 192.86C217.985 181.641 203.284 165.486 192.333 156.835H192.325Z" fill="#05293C"/>
<path d="M227.551 198.078C227.913 198.329 228.354 198.438 228.792 198.386C229.229 198.333 229.632 198.122 229.924 197.792C230.216 197.462 230.377 197.037 230.376 196.596C230.376 196.156 230.214 195.731 229.921 195.402C228.675 193.953 227.321 192.387 225.874 190.741L222.647 192.256L220.539 193.413L227.551 198.078Z" fill="#FFD2B3"/>
<path d="M218.15 198.368C210.144 186.135 196.091 167.827 181.787 155.156C174.03 159.569 166.721 164.727 159.964 170.556C159.964 170.556 149.213 183.003 135.512 183.391V183.9C135.512 183.9 137.966 201.779 152.865 200.9C154.65 200.738 156.403 200.314 158.065 199.641C163.179 197.724 167.658 194.419 171 190.099L182.944 174.799L215.19 201.035C215.562 201.339 216.031 201.5 216.512 201.489C216.993 201.477 217.454 201.294 217.811 200.972C218.168 200.65 218.399 200.211 218.461 199.735C218.523 199.258 218.412 198.774 218.149 198.372L218.15 198.368Z" fill="#05293C"/>
<path d="M159.966 170.561L158.34 149.591L169.779 158.938C170.304 159.367 170.92 159.672 171.58 159.829C172.24 159.987 172.927 159.993 173.589 159.847C174.252 159.702 174.873 159.408 175.406 158.989C175.94 158.569 176.371 158.035 176.669 157.425L189.597 130.895C189.712 130.684 189.747 130.439 189.694 130.204C189.641 129.97 189.505 129.762 189.31 129.621C189.116 129.48 188.876 129.415 188.637 129.438C188.398 129.461 188.175 129.571 188.011 129.746L172.034 148.832L158.993 135.443C157.78 134.11 156.362 132.979 154.793 132.093C147.348 128 138.893 130.706 136.293 138.864C135.905 140.101 135.645 141.374 135.516 142.664V183.398C149.216 183.011 159.968 170.563 159.968 170.563L159.966 170.561Z" fill="black"/>
<path opacity="0.8" d="M159.966 170.561L158.34 149.591L169.779 158.938C170.304 159.367 170.92 159.672 171.58 159.829C172.24 159.987 172.927 159.993 173.589 159.847C174.252 159.702 174.873 159.408 175.406 158.989C175.94 158.569 176.371 158.035 176.669 157.425L189.597 130.895C189.712 130.684 189.747 130.439 189.694 130.204C189.641 129.97 189.505 129.762 189.31 129.621C189.116 129.48 188.876 129.415 188.637 129.438C188.398 129.461 188.175 129.571 188.011 129.746L172.034 148.832L158.993 135.443C157.78 134.11 156.362 132.979 154.793 132.093C147.348 128 138.893 130.706 136.293 138.864C135.905 140.101 135.645 141.374 135.516 142.664V183.398C149.216 183.011 159.968 170.563 159.968 170.563L159.966 170.561Z" fill="#FF6902"/>
<path d="M209.422 196.339L215.19 201.031C215.562 201.335 216.031 201.496 216.512 201.485C216.993 201.473 217.454 201.29 217.811 200.968C218.169 200.646 218.399 200.207 218.461 199.731C218.523 199.254 218.412 198.77 218.149 198.368C217.124 196.802 215.998 195.135 214.787 193.394L209.422 196.339Z" fill="#FFD2B3"/>
<path d="M159.965 170.561L158.339 149.591L151.831 144.604C151.831 144.604 150.131 172.804 135.512 183.395C149.212 183.008 159.964 170.56 159.964 170.56L159.965 170.561Z" fill="black"/>
<path d="M159.965 170.561L158.339 149.591L151.831 144.604C151.831 144.604 150.131 172.804 135.512 183.395C149.212 183.008 159.964 170.56 159.964 170.56L159.965 170.561Z" fill="#FF6902"/>
<path d="M152.867 200.907C154.652 200.745 156.405 200.321 158.067 199.648C163.182 197.729 167.661 194.423 171.002 190.1L182.946 174.8L209.424 196.339L182.332 165.375L159.966 185.708C143.034 196.751 135.514 183.395 135.514 183.395V183.904C135.514 183.904 137.968 201.783 152.867 200.904V200.907Z" fill="#011721"/>
<path d="M192.649 100.667L188.904 103.347L190.135 106.759L194.185 102.415C194.384 102.203 194.496 101.925 194.501 101.634C194.506 101.344 194.402 101.062 194.21 100.844C194.019 100.626 193.753 100.487 193.464 100.454C193.175 100.422 192.885 100.497 192.649 100.667Z" fill="#FFD2B3"/>
<path d="M188.01 129.746L184.66 133.746L187.03 136.159L189.596 130.894C189.711 130.683 189.745 130.438 189.692 130.204C189.639 129.97 189.502 129.763 189.308 129.622C189.114 129.482 188.875 129.417 188.636 129.439C188.397 129.462 188.175 129.571 188.01 129.746Z" fill="#FFD2B3"/>
<path d="M230.371 112.481H198.346C198.313 112.481 198.281 112.468 198.257 112.444C198.234 112.421 198.221 112.389 198.221 112.356C198.221 112.322 198.234 112.29 198.257 112.267C198.281 112.243 198.313 112.23 198.346 112.23H230.371C230.404 112.23 230.436 112.243 230.46 112.267C230.483 112.29 230.497 112.322 230.497 112.356C230.497 112.389 230.483 112.421 230.46 112.444C230.436 112.468 230.404 112.481 230.371 112.481Z" fill="#011721"/>
<path d="M230.372 189.013C230.356 189.013 230.339 189.01 230.324 189.004C230.309 188.997 230.295 188.988 230.283 188.976L207.76 166.34C207.739 166.316 207.728 166.285 207.729 166.253C207.73 166.221 207.743 166.191 207.765 166.168C207.788 166.146 207.818 166.133 207.85 166.132C207.882 166.131 207.913 166.143 207.937 166.164L230.46 188.8C230.477 188.818 230.489 188.84 230.494 188.864C230.499 188.888 230.496 188.913 230.487 188.936C230.477 188.959 230.461 188.978 230.441 188.992C230.42 189.006 230.396 189.013 230.371 189.013H230.372Z" fill="#011721"/>
<path d="M66.4226 198.524C66.397 198.524 66.372 198.516 66.3509 198.502C66.3298 198.487 66.3137 198.467 66.3047 198.443C66.2958 198.419 66.2944 198.392 66.3009 198.368C66.3073 198.343 66.3212 198.321 66.3406 198.304L88.7356 179.034C88.7481 179.023 88.7626 179.015 88.7782 179.01C88.7938 179.005 88.8103 179.003 88.8267 179.004C88.8431 179.005 88.8591 179.01 88.8737 179.017C88.8884 179.025 88.9014 179.035 88.9121 179.048C88.9228 179.06 88.931 179.074 88.9361 179.09C88.9412 179.106 88.9432 179.122 88.9419 179.139C88.9407 179.155 88.9362 179.171 88.9288 179.186C88.9214 179.2 88.9111 179.213 88.8986 179.224L66.5036 198.494C66.4811 198.514 66.4519 198.525 66.4216 198.525L66.4226 198.524Z" fill="white"/>
<path d="M105.709 66.439C103.385 66.4388 101.114 65.7496 99.1818 64.4585C97.2498 63.1673 95.7441 61.3323 94.855 59.1855C93.9659 57.0386 93.7334 54.6763 94.1868 52.3973C94.6403 50.1183 95.7593 48.0249 97.4025 46.3819C99.0457 44.7388 101.139 43.62 103.418 43.1667C105.697 42.7134 108.06 42.9462 110.206 43.8354C112.353 44.7247 114.188 46.2306 115.479 48.1627C116.77 50.0948 117.459 52.3663 117.459 54.69C117.456 57.8052 116.216 60.7917 114.014 62.9944C111.811 65.197 108.824 66.4358 105.709 66.439ZM105.709 43.565C103.509 43.565 101.358 44.2174 99.5288 45.4397C97.6994 46.6621 96.2737 48.3994 95.4317 50.432C94.5898 52.4647 94.3695 54.7014 94.7987 56.8592C95.2279 59.017 96.2874 60.9992 97.8431 62.5549C99.3988 64.1106 101.381 65.17 103.539 65.5993C105.697 66.0285 107.933 65.8082 109.966 64.9663C111.999 64.1243 113.736 62.6985 114.958 60.8692C116.181 59.0398 116.833 56.8891 116.833 54.689C116.83 51.7398 115.656 48.9124 113.571 46.827C111.486 44.7415 108.658 43.5685 105.709 43.565Z" fill="black"/>
<path opacity="0.3" d="M108.004 59.4501L105.711 57.1571L103.416 59.4501C103.089 59.7772 102.644 59.9608 102.182 59.9608C101.719 59.9608 101.276 59.7772 100.949 59.4501C100.622 59.123 100.438 58.6794 100.438 58.2167C100.438 57.7541 100.622 57.31 100.949 56.9828L103.242 54.6889L100.949 52.3959C100.783 52.2347 100.651 52.0422 100.561 51.8295C100.47 51.6168 100.422 51.3884 100.42 51.1571C100.418 50.9259 100.463 50.6968 100.551 50.4828C100.638 50.2688 100.766 50.0742 100.93 49.9106C101.093 49.7469 101.288 49.6176 101.502 49.5297C101.716 49.4417 101.945 49.397 102.176 49.3983C102.407 49.3997 102.635 49.4471 102.848 49.5375C103.061 49.6279 103.255 49.7597 103.416 49.9252L105.711 52.2191L108.004 49.9252C108.332 49.5975 108.775 49.4135 109.238 49.4135C109.702 49.4135 110.147 49.5975 110.475 49.9252C110.802 50.2529 110.986 50.6971 110.986 51.1606C110.986 51.624 110.802 52.0682 110.475 52.3959L108.18 54.6889L110.475 56.9828C110.795 57.312 110.972 57.7542 110.969 58.2133C110.965 58.6723 110.782 59.1116 110.457 59.4359C110.132 59.7603 109.692 59.9435 109.232 59.9462C108.773 59.9489 108.333 59.7707 108.004 59.4501Z" fill="#FF6902"/>
</g>
</g>
<defs>
<linearGradient id="paint0_linear_246_926" x1="125.186" y1="-2.10323" x2="131.267" y2="264.459" gradientUnits="userSpaceOnUse">
<stop stop-color="#FFFCFA"/>
<stop offset="0.55" stop-color="#FFFBFA"/>
<stop offset="1" stop-color="#FAE9E3"/>
</linearGradient>
<linearGradient id="paint1_linear_246_926" x1="180.823" y1="45.0308" x2="184.847" y2="124.511" gradientUnits="userSpaceOnUse">
<stop stop-color="#F4F5F9"/>
<stop offset="1" stop-color="#D2D4E0"/>
</linearGradient>
<clipPath id="clip0_246_926">
<rect width="255" height="255" fill="white"/>
</clipPath>
</defs>
</svg>
