<svg width="255" height="255" viewBox="0 0 255 255" fill="none" xmlns="http://www.w3.org/2000/svg">
<g clip-path="url(#clip0_246_1001)">
<mask id="mask0_246_1001" style="mask-type:luminance" maskUnits="userSpaceOnUse" x="0" y="0" width="255" height="255">
<path d="M255 0H0V255H255V0Z" fill="white"/>
</mask>
<g mask="url(#mask0_246_1001)">
<path d="M254.877 127.377C254.892 141.818 252.448 156.157 247.648 169.777C247.248 170.91 246.832 172.04 246.398 173.165C245.412 175.724 244.346 178.242 243.198 180.719C241.911 183.508 240.526 186.242 239.044 188.919C236.795 192.984 234.324 196.924 231.644 200.719L231.538 200.87L231.394 201.07L231.387 201.08L231.287 201.218C231.105 201.475 230.921 201.731 230.735 201.986C226.67 207.602 222.155 212.878 217.235 217.763C216.976 218.02 216.716 218.276 216.454 218.531L216.417 218.567C192.654 241.798 160.729 254.786 127.497 254.742C97.1312 254.787 67.7561 243.94 44.7072 224.17C42.6032 222.37 40.5595 220.503 38.5762 218.57L38.5392 218.534C38.2779 218.279 38.0175 218.023 37.7582 217.766C32.8395 212.884 28.325 207.612 24.2592 202C24.1092 201.794 23.9602 201.587 23.8122 201.38L23.7062 201.232C8.32668 179.68 0.0800261 153.854 0.123216 127.377C0.123216 93.5945 13.5433 61.1957 37.4311 37.3079C61.3189 13.42 93.7177 0 127.5 0C161.283 0 193.682 13.42 217.569 37.3079C241.457 61.1957 254.877 93.5945 254.877 127.377Z" fill="url(#paint0_linear_246_1001)"/>
<path d="M197.429 209.1C199.604 209.1 215.795 200.4 220.76 196.569C235.212 185.401 244.247 169.124 244.231 150.649C244.211 127.464 232.21 103.049 208.276 96.729C199.967 94.534 192.205 100.392 184.411 102.173C179.744 103.239 174.438 103.26 170.174 100.839C166.597 98.809 163.983 94.779 164.456 90.693C164.936 86.548 168.356 83.28 172.116 81.471C175.876 79.662 180.058 78.959 184.016 77.65C189.191 75.941 194.156 72.503 195.108 66.824C196.231 59.9388 195.169 52.8749 192.072 46.624C180.458 23.324 151.378 25.301 129.749 29.514C119.934 31.426 111.049 37.721 103.896 44.474C96.4083 51.5333 90.7833 60.3351 87.522 70.0952C84.2606 79.8553 83.4642 90.2705 85.2038 100.413C86.1318 105.863 88.3988 111.062 85.2038 116.168C80.1408 124.268 69.2968 127.182 60.2508 126.733C54.0703 126.475 47.9181 127.703 42.3098 130.313C36.7016 132.922 31.8006 136.839 28.0178 141.733C19.5858 152.833 20.1038 166.007 25.4428 178.333C25.5801 178.648 25.7194 178.963 25.8608 179.277C28.1233 184.162 30.8421 188.822 33.9808 193.195C35.8428 195.838 37.8188 198.395 39.8748 200.895C40.9478 202.195 45.5748 209.102 47.1218 209.102H197.423L197.429 209.1Z" fill="white"/>
<path d="M250.06 209.1H15.7115C15.6907 209.105 15.6689 209.106 15.6478 209.102C15.6267 209.097 15.6069 209.088 15.5898 209.075C15.5728 209.062 15.559 209.045 15.5496 209.026C15.5401 209.006 15.5352 208.985 15.5352 208.964C15.5352 208.942 15.5401 208.921 15.5496 208.901C15.559 208.882 15.5728 208.865 15.5898 208.852C15.6069 208.839 15.6267 208.83 15.6478 208.825C15.6689 208.821 15.6907 208.822 15.7115 208.827H250.06C250.081 208.822 250.103 208.821 250.124 208.825C250.145 208.83 250.165 208.839 250.182 208.852C250.199 208.865 250.213 208.882 250.222 208.901C250.232 208.921 250.237 208.942 250.237 208.964C250.237 208.985 250.232 209.006 250.222 209.026C250.213 209.045 250.199 209.062 250.182 209.075C250.165 209.088 250.145 209.097 250.124 209.102C250.103 209.106 250.081 209.105 250.06 209.1Z" fill="#011721"/>
<path d="M242.641 48.853C242.788 48.5147 242.808 48.1347 242.696 47.7833C242.584 47.432 242.349 47.133 242.033 46.9418C241.718 46.7506 241.344 46.6801 240.981 46.7434C240.618 46.8067 240.29 46.9994 240.057 47.286C225.936 64.633 212.737 76 202.723 78.814C202.522 78.8691 202.31 78.8739 202.107 78.8279C201.903 78.7818 201.714 78.6865 201.556 78.5501C201.398 78.4138 201.276 78.2407 201.2 78.0461C201.125 77.8514 201.099 77.6412 201.123 77.434L201.385 75.11C201.509 74.8097 201.519 74.4748 201.414 74.1676C201.309 73.8604 201.096 73.6018 200.814 73.44L199.929 74.672C198.029 75.003 196.492 72.103 196.492 72.103L194.442 75.577L196.255 77.822L197.639 77.977C197.722 77.9847 197.802 78.009 197.875 78.0485C197.948 78.088 198.013 78.1418 198.064 78.2068C198.116 78.2717 198.154 78.3464 198.176 78.4265C198.198 78.5065 198.204 78.5901 198.193 78.6724C198.182 78.7547 198.154 78.8339 198.112 78.9052C198.069 78.9766 198.013 79.0386 197.946 79.0876C197.879 79.1366 197.803 79.1715 197.722 79.1903C197.641 79.2091 197.557 79.2114 197.475 79.197C194.605 78.6723 191.842 77.6708 189.302 76.234C186.747 74.7889 184.278 73.1962 181.908 71.464C179.884 64.22 177.938 53.554 175.741 46.539C175.645 46.2264 175.438 45.9595 175.159 45.7882C174.881 45.6169 174.549 45.5528 174.227 45.6079C173.904 45.6629 173.613 45.8334 173.406 46.0875C173.2 46.3417 173.094 46.6621 173.106 46.989C173.723 63.9 174.643 72.422 175.106 75.21C175.259 76.1266 175.722 76.9631 176.417 77.579C181.607 82.179 183.39 84.379 186.782 86.879C187.888 87.6899 188.812 88.7223 189.495 89.9104C190.179 91.0985 190.608 92.416 190.753 93.779L193.065 115.758C193.065 115.758 198.155 123.49 217.132 115.242C216.926 114.006 216.805 113.342 216.805 113.342C215.131 105.473 214.359 94.587 214.069 89.442C214.022 88.6681 214.149 87.8934 214.442 87.1752C214.734 86.4571 215.184 85.8138 215.758 85.293C229.234 73.211 238.505 58.326 242.644 48.852L242.641 48.853Z" fill="#00524C"/>
<path d="M174.724 53.329C174.724 53.329 174.005 52.757 173.324 52.238C173.924 65.446 174.69 72.704 175.099 75.196C175.251 76.1191 175.716 76.9618 176.416 77.582C181.607 82.182 183.392 84.382 186.782 86.882L177.538 75.839C176.438 74.7042 175.783 73.2111 175.694 71.633L174.726 53.326L174.724 53.329Z" fill="black"/>
<path opacity="0.75" d="M174.724 53.329C174.724 53.329 174.005 52.757 173.324 52.238C173.924 65.446 174.69 72.704 175.099 75.196C175.251 76.1191 175.716 76.9618 176.416 77.582C181.607 82.182 183.392 84.382 186.782 86.882L177.538 75.839C176.438 74.7042 175.783 73.2111 175.694 71.633L174.726 53.326L174.724 53.329Z" fill="#00524C"/>
<path d="M196.03 72.894L195.045 69.757C195.045 69.757 201.27 69.039 204.095 70.045C204.095 70.045 205.484 74.594 201.318 79.045L201.029 80.163L199.878 78.857L196.752 75.197L196.031 72.897L196.03 72.894Z" fill="#011721"/>
<path d="M201.128 77.434L201.39 75.11C201.514 74.8097 201.524 74.4748 201.419 74.1676C201.314 73.8604 201.101 73.6018 200.819 73.44L199.934 74.672C198.034 75.003 196.497 72.103 196.497 72.103L194.447 75.577L196.26 77.822L197.643 77.977C197.726 77.9847 197.806 78.009 197.879 78.0485C197.952 78.088 198.016 78.1418 198.068 78.2068C198.12 78.2717 198.158 78.3464 198.18 78.4265C198.202 78.5065 198.208 78.5901 198.197 78.6724C198.186 78.7547 198.158 78.8339 198.116 78.9052C198.073 78.9766 198.017 79.0386 197.95 79.0876C197.883 79.1366 197.807 79.1715 197.726 79.1903C197.645 79.2091 197.561 79.2114 197.479 79.197C197.427 81.021 199.719 82.471 199.719 82.471C200.987 81.4967 202.016 80.2455 202.727 78.813C202.526 78.8675 202.315 78.8719 202.112 78.8258C201.908 78.7797 201.72 78.6845 201.562 78.5485C201.404 78.4125 201.282 78.2399 201.206 78.0458C201.13 77.8517 201.103 77.642 201.127 77.435L201.128 77.434Z" fill="#FFD2B3"/>
<path d="M193.063 115.763C189.078 121.208 185.53 126.959 182.451 132.963C179.96 137.696 178.057 142.717 176.785 147.912C179.33 158.28 187.585 182.888 193.313 195.594C193.513 196.038 193.862 196.398 194.3 196.61C194.738 196.823 195.236 196.875 195.708 196.758C196.181 196.641 196.597 196.361 196.884 195.968C197.172 195.575 197.312 195.094 197.28 194.608C196 175.249 192.98 148.491 192.98 148.491C196.924 143.355 203.749 132.107 203.749 132.107C203.393 139.564 212.337 185.699 215.882 207.355C215.959 207.842 216.206 208.286 216.58 208.608C216.953 208.929 217.429 209.107 217.922 209.11C218.415 209.113 218.893 208.94 219.271 208.623C219.648 208.305 219.9 207.864 219.982 207.378C225.992 172.261 218.798 125.207 217.136 115.247C198.159 123.494 193.069 115.763 193.069 115.763H193.063Z" fill="#05293C"/>
<path d="M240.06 47.285C238.905 48.7037 237.757 50.0807 236.615 51.416C236.749 52.2241 237.196 52.9469 237.859 53.4275C238.523 53.9081 239.349 54.1077 240.158 53.983C241.125 52.147 241.958 50.421 242.645 48.846C242.792 48.5077 242.811 48.1277 242.698 47.7766C242.586 47.4254 242.35 47.1268 242.035 46.9362C241.719 46.7455 241.345 46.6757 240.982 46.7396C240.619 46.8036 240.292 46.998 240.06 47.285Z" fill="#FFD2B3"/>
<path d="M214.949 201.639C215.282 203.691 215.595 205.609 215.88 207.355C215.957 207.842 216.204 208.286 216.578 208.608C216.951 208.929 217.427 209.107 217.92 209.11C218.413 209.113 218.891 208.94 219.269 208.623C219.646 208.305 219.898 207.864 219.98 207.378C220.33 205.333 220.634 203.245 220.898 201.129C220.087 201.83 219.076 202.256 218.009 202.348C216.941 202.44 215.872 202.192 214.953 201.64L214.949 201.639Z" fill="#FFD2B3"/>
<path d="M194.123 195.178L194.333 190.778L176.787 147.906C179.297 158.133 187.317 182.272 193.076 195.058L194.123 195.178Z" fill="#011721"/>
<path d="M197.282 194.608C197.153 192.656 196.991 190.653 196.804 188.628C196.272 189.594 195.419 190.344 194.392 190.747C193.366 191.149 192.231 191.18 191.184 190.834C191.936 192.525 192.653 194.125 193.315 195.594C193.514 196.038 193.863 196.398 194.301 196.61C194.739 196.823 195.238 196.875 195.71 196.758C196.182 196.641 196.598 196.361 196.886 195.968C197.173 195.575 197.313 195.094 197.282 194.608Z" fill="#D39266"/>
<path d="M192.924 147.732L192.983 148.491C196.927 143.355 203.752 132.107 203.752 132.107C203.425 138.963 211.152 178.237 214.952 201.639L204.368 124.994L192.924 147.732Z" fill="#011721"/>
<path d="M240.158 53.982C240.158 53.982 239.727 52.331 238.595 53.837C234.263 59.6 222.723 76.7 214.36 82.982C212.914 84.0768 211.726 85.4755 210.879 87.0794C210.032 88.6834 209.548 90.4535 209.46 92.265C208.946 100.675 209.727 109.114 211.775 117.287C213.425 116.754 215.207 116.087 217.134 115.246C216.928 114.01 216.807 113.346 216.807 113.346C215.123 105.454 214.352 94.53 214.065 89.4C214.023 88.6271 214.155 87.8548 214.452 87.14C214.749 86.4253 215.203 85.7865 215.781 85.271C225.634 76.3106 233.879 65.7277 240.158 53.982Z" fill="black"/>
<path opacity="0.75" d="M240.158 53.982C240.158 53.982 239.727 52.331 238.595 53.837C234.263 59.6 222.723 76.7 214.36 82.982C212.914 84.0768 211.726 85.4755 210.879 87.0794C210.032 88.6834 209.548 90.4535 209.46 92.265C208.946 100.675 209.727 109.114 211.775 117.287C213.425 116.754 215.207 116.087 217.134 115.246C216.928 114.01 216.807 113.346 216.807 113.346C215.123 105.454 214.352 94.53 214.065 89.4C214.023 88.6271 214.155 87.8548 214.452 87.14C214.749 86.4253 215.203 85.7865 215.781 85.271C225.634 76.3106 233.879 65.7277 240.158 53.982Z" fill="#00524C"/>
<path d="M199.314 82.4C199.314 82.4 197.033 106.965 218.576 112.575L222.547 110.63L219.868 107.218C219.868 107.218 200.496 102.046 199.855 82.426L199.313 82.399L199.314 82.4Z" fill="#FF6902"/>
<path d="M199.718 78.888C199.605 78.6714 199.441 78.4855 199.24 78.3461C199.039 78.2068 198.808 78.1182 198.565 78.088L197.652 77.976C197.733 77.9865 197.811 78.0129 197.881 78.0537C197.951 78.0944 198.013 78.1487 198.062 78.2133C198.111 78.278 198.147 78.3517 198.168 78.4304C198.188 78.509 198.193 78.5909 198.182 78.6713C198.17 78.7518 198.143 78.8292 198.102 78.8991C198.06 78.969 198.006 79.0301 197.94 79.0787C197.875 79.1273 197.801 79.1625 197.722 79.1823C197.644 79.2021 197.562 79.2061 197.481 79.194C197.429 81.018 199.721 82.468 199.721 82.468C200.198 82.1478 200.631 81.7673 201.009 81.336L199.717 78.885L199.718 78.888Z" fill="#D39266"/>
<path d="M242.674 47.674L238.594 53.838C239.097 54.0058 239.632 54.0554 240.157 53.983C241.124 52.147 241.957 50.421 242.644 48.846C242.729 48.6632 242.776 48.4648 242.781 48.2631C242.786 48.0615 242.75 47.8609 242.674 47.674Z" fill="#D39266"/>
<path d="M194.334 190.778L197.006 195.805C197.219 195.443 197.316 195.024 197.283 194.605C197.154 192.653 196.992 190.65 196.805 188.625C196.273 189.62 195.394 190.385 194.335 190.775L194.334 190.778Z" fill="#FFD2B3"/>
<path d="M217.502 202.365C216.61 202.308 215.74 202.06 214.951 201.639C215.284 203.691 215.596 205.609 215.882 207.355C215.946 207.816 216.169 208.241 216.512 208.556C216.855 208.872 217.297 209.058 217.762 209.083L217.502 202.365Z" fill="#D39266"/>
<path d="M177.433 52.511C176.873 50.364 176.302 48.305 175.712 46.433C175.611 46.1292 175.405 45.8717 175.13 45.7073C174.856 45.543 174.531 45.4829 174.216 45.538C173.901 45.593 173.616 45.7596 173.413 46.0072C173.21 46.2549 173.103 46.5671 173.112 46.887C173.193 49.116 173.279 51.174 173.369 53.087C173.369 53.087 176.494 53.987 177.438 52.514L177.433 52.511Z" fill="#FFD2B3"/>
<path d="M173.812 45.662C173.054 46.043 173.098 46.626 173.122 47.279C173.198 49.357 173.28 51.286 173.364 53.079C173.811 53.1989 174.267 53.2808 174.728 53.324L173.812 45.657V45.662Z" fill="#D39266"/>
<path d="M167.143 198.873L173.107 135.981H97.0664V209.1H159.735C166.466 209.1 166.727 202.582 167.142 198.876L167.143 198.873Z" fill="white"/>
<path opacity="0.7" d="M167.143 198.873L173.107 135.981H97.0664V209.1H159.735C166.466 209.1 166.727 202.582 167.142 198.876L167.143 198.873Z" fill="#00524C"/>
<path d="M166.763 153.594L131.107 151.221L134.438 101.163L163.95 103.127L169.65 110.133L166.763 153.594Z" fill="#FF6902"/>
<path d="M147.656 131.6L147.743 130.292C148.063 125.482 154.228 125.714 154.487 121.824C154.609 119.985 153.31 118.691 151.224 118.552C149.031 118.406 147.53 119.621 147.407 121.46L147.367 122.06C147.371 122.135 147.357 122.211 147.326 122.28C147.296 122.349 147.25 122.41 147.191 122.458C147.133 122.506 147.064 122.54 146.99 122.556C146.917 122.573 146.84 122.572 146.767 122.553L143.805 122.214C143.659 122.208 143.522 122.145 143.422 122.039C143.323 121.933 143.27 121.792 143.274 121.646L143.305 121.186C143.578 117.086 146.947 114.501 151.58 114.809C156.142 115.109 158.937 117.963 158.67 121.959C158.277 127.866 152.047 127.522 151.829 130.811L151.758 131.872C151.759 131.948 151.744 132.024 151.714 132.093C151.683 132.163 151.638 132.225 151.581 132.276C151.523 132.326 151.456 132.363 151.383 132.385C151.31 132.406 151.233 132.411 151.158 132.4L148.187 132.2C148.111 132.202 148.035 132.187 147.965 132.156C147.895 132.126 147.833 132.08 147.783 132.023C147.733 131.966 147.695 131.898 147.674 131.825C147.652 131.752 147.647 131.675 147.659 131.6H147.656ZM146.856 137.194C146.887 136.851 146.987 136.517 147.147 136.212C147.308 135.907 147.528 135.637 147.793 135.417C148.059 135.197 148.365 135.032 148.695 134.931C149.024 134.83 149.37 134.794 149.714 134.827C150.063 134.83 150.408 134.906 150.727 135.048C151.047 135.19 151.333 135.395 151.57 135.653C151.807 135.91 151.988 136.213 152.103 136.543C152.218 136.873 152.264 137.223 152.238 137.571C152.213 137.92 152.116 138.259 151.954 138.569C151.792 138.879 151.568 139.152 151.297 139.372C151.025 139.591 150.711 139.753 150.375 139.847C150.038 139.941 149.686 139.965 149.34 139.917C148.997 139.903 148.661 139.822 148.35 139.677C148.039 139.533 147.76 139.328 147.529 139.075C147.298 138.822 147.12 138.525 147.005 138.202C146.889 137.88 146.839 137.537 146.857 137.195L146.856 137.194Z" fill="white"/>
<path d="M163.95 103.127L163.514 109.677L169.655 110.133L163.95 103.127Z" fill="#05293C"/>
<path opacity="0.8" d="M163.95 103.127L163.514 109.677L169.655 110.133L163.95 103.127Z" fill="#FF6902"/>
<path d="M159.699 209.1H43.3962C41.2568 209.118 39.1881 208.335 37.5981 206.903C36.008 205.472 35.0119 203.497 34.8062 201.367L28.2502 136.567C28.2058 136.221 28.2366 135.869 28.3405 135.536C28.4443 135.203 28.6189 134.897 28.8521 134.637C29.0853 134.378 29.3718 134.172 29.692 134.033C30.0121 133.894 30.3584 133.827 30.7072 133.834H96.9392C97.3738 133.842 97.8026 133.733 98.1809 133.519C98.5593 133.305 98.8733 132.994 99.0902 132.617L101.362 128.599C101.579 128.222 101.893 127.911 102.271 127.697C102.65 127.483 103.079 127.374 103.513 127.382H142.323C143.07 127.399 143.785 127.684 144.338 128.187C144.891 128.689 145.244 129.373 145.332 130.115L152.288 198.876C152.703 202.582 152.964 209.1 159.695 209.1H159.699Z" fill="#00524C"/>
<path d="M146.73 143.892L145.336 130.112C145.248 129.37 144.895 128.686 144.342 128.184C143.789 127.681 143.074 127.396 142.327 127.379H103.512C103.077 127.371 102.649 127.48 102.27 127.694C101.892 127.908 101.578 128.219 101.361 128.596L99.089 132.614C98.8721 132.991 98.5581 133.302 98.1798 133.516C97.8015 133.73 97.3727 133.839 96.938 133.831H30.707C30.3583 133.824 30.0121 133.892 29.692 134.03C29.372 134.169 29.0856 134.375 28.8524 134.635C28.6191 134.894 28.4446 135.201 28.3407 135.534C28.2367 135.867 28.2058 136.218 28.25 136.564L33.038 183.888C75.577 143.267 146.73 143.892 146.73 143.892Z" fill="white"/>
<path opacity="0.4" d="M146.73 143.892L145.336 130.112C145.248 129.37 144.895 128.686 144.342 128.184C143.789 127.681 143.074 127.396 142.327 127.379H103.512C103.077 127.371 102.649 127.48 102.27 127.694C101.892 127.908 101.578 128.219 101.361 128.596L99.089 132.614C98.8721 132.991 98.5581 133.302 98.1798 133.516C97.8015 133.73 97.3727 133.839 96.938 133.831H30.707C30.3583 133.824 30.0121 133.892 29.692 134.03C29.372 134.169 29.0856 134.375 28.8524 134.635C28.6191 134.894 28.4446 135.201 28.3407 135.534C28.2367 135.867 28.2058 136.218 28.25 136.564L33.038 183.888C75.577 143.267 146.73 143.892 146.73 143.892Z" fill="#00524C"/>
<path d="M43.3978 209.1H159.698C154.798 209.1 153.327 205.644 152.729 202.334H34.9648C35.3758 204.261 36.4395 205.986 37.9761 207.219C39.5127 208.452 41.4279 209.116 43.3978 209.1Z" fill="white"/>
<path opacity="0.83" d="M43.3978 209.1H159.698C154.798 209.1 153.327 205.644 152.729 202.334H34.9648C35.3758 204.261 36.4395 205.986 37.9761 207.219C39.5127 208.452 41.4279 209.116 43.3978 209.1Z" fill="#00524C"/>
<path opacity="0.5" d="M107.712 208.6C109.016 207.9 109.989 206.713 110.42 205.297C110.851 203.882 110.704 202.354 110.012 201.046L81.0232 146.607C80.8387 146.261 80.5245 146.002 80.1494 145.888C79.7744 145.774 79.3693 145.813 79.0232 145.997L78.4112 146.323L75.6112 141.074C78.5553 139.095 81.1563 136.649 83.3112 133.831H31.2852C31.3332 133.893 31.3792 133.958 31.4282 134.02C31.4952 134.106 31.5602 134.195 31.6282 134.28C31.8852 134.605 32.1492 134.922 32.4182 135.235C32.4592 135.282 32.4982 135.335 32.5392 135.378C32.8298 135.711 33.1265 136.04 33.4292 136.363L33.4872 136.426C33.8052 136.759 34.1292 137.088 34.4592 137.411L34.4762 137.428C34.8135 137.755 35.1572 138.075 35.5072 138.386C40.0739 142.45 45.686 145.156 51.7096 146.198C57.7331 147.241 63.9282 146.579 69.5952 144.286L72.3952 149.535L71.7832 149.861C71.6116 149.952 71.4596 150.076 71.336 150.226C71.2124 150.376 71.1195 150.549 71.0628 150.734C71.006 150.92 70.9864 151.115 71.0052 151.309C71.024 151.502 71.0807 151.69 71.1722 151.861L100.162 206.302C100.598 207.121 101.233 207.818 102.008 208.328C102.159 208.427 102.313 208.519 102.472 208.602C102.897 208.825 103.349 208.993 103.816 209.102H106.416C106.869 208.99 107.305 208.822 107.716 208.602L107.712 208.6Z" fill="black"/>
<path opacity="0.7" d="M107.712 208.6C109.016 207.9 109.989 206.713 110.42 205.297C110.851 203.882 110.704 202.354 110.012 201.046L81.0232 146.607C80.8387 146.261 80.5245 146.002 80.1494 145.888C79.7744 145.774 79.3693 145.813 79.0232 145.997L78.4112 146.323L75.6112 141.074C78.5553 139.095 81.1563 136.649 83.3112 133.831H31.2852C31.3332 133.893 31.3792 133.958 31.4282 134.02C31.4952 134.106 31.5602 134.195 31.6282 134.28C31.8852 134.605 32.1492 134.922 32.4182 135.235C32.4592 135.282 32.4982 135.335 32.5392 135.378C32.8298 135.711 33.1265 136.04 33.4292 136.363L33.4872 136.426C33.8052 136.759 34.1292 137.088 34.4592 137.411L34.4762 137.428C34.8135 137.755 35.1572 138.075 35.5072 138.386C40.0739 142.45 45.686 145.156 51.7096 146.198C57.7331 147.241 63.9282 146.579 69.5952 144.286L72.3952 149.535L71.7832 149.861C71.6116 149.952 71.4596 150.076 71.336 150.226C71.2124 150.376 71.1195 150.549 71.0628 150.734C71.006 150.92 70.9864 151.115 71.0052 151.309C71.024 151.502 71.0807 151.69 71.1722 151.861L100.162 206.302C100.598 207.121 101.233 207.818 102.008 208.328C102.159 208.427 102.313 208.519 102.472 208.602C102.897 208.825 103.349 208.993 103.816 209.102H106.416C106.869 208.99 107.305 208.822 107.716 208.602L107.712 208.6Z" fill="#00524C"/>
<path d="M64.324 124.682C72.0278 124.682 78.273 118.437 78.273 110.733C78.273 103.029 72.0278 96.784 64.324 96.784C56.6202 96.784 50.375 103.029 50.375 110.733C50.375 118.437 56.6202 124.682 64.324 124.682Z" fill="white"/>
<path d="M64.324 124.682C72.0278 124.682 78.273 118.437 78.273 110.733C78.273 103.029 72.0278 96.784 64.324 96.784C56.6202 96.784 50.375 103.029 50.375 110.733C50.375 118.437 56.6202 124.682 64.324 124.682Z" fill="#FF6902"/>
<path d="M67.7172 117.78L57.2772 107.34C56.7944 106.855 56.5234 106.198 56.5234 105.513C56.5234 104.828 56.7944 104.171 57.2772 103.686C57.7627 103.203 58.4196 102.932 59.1042 102.932C59.7889 102.932 60.4457 103.203 60.9312 103.686L71.3702 114.125C71.853 114.61 72.124 115.267 72.124 115.952C72.124 116.637 71.853 117.294 71.3702 117.779C70.8848 118.261 70.2282 118.532 69.5437 118.532C68.8593 118.532 68.2027 118.262 67.7172 117.78Z" fill="white"/>
<path d="M71.3702 107.34L60.9312 117.78C60.4457 118.263 59.7889 118.534 59.1042 118.534C58.4196 118.534 57.7627 118.263 57.2772 117.78C56.7944 117.295 56.5234 116.638 56.5234 115.953C56.5234 115.268 56.7944 114.611 57.2772 114.126L67.7162 103.687C68.2017 103.204 68.8586 102.933 69.5432 102.933C70.2279 102.933 70.8847 103.204 71.3702 103.687C71.8527 104.172 72.1235 104.829 72.1235 105.514C72.1235 106.198 71.8527 106.855 71.3702 107.34Z" fill="white"/>
<path d="M93.4866 95.8C90.5096 90.2093 85.9758 85.6015 80.434 82.5344C74.8922 79.4673 68.5801 78.0725 62.2619 78.5188C55.9437 78.9652 49.8904 81.2336 44.8349 85.0493C39.7793 88.8651 35.9383 94.0646 33.777 100.018C31.6156 105.972 31.2264 112.425 32.6567 118.595C34.087 124.765 37.2753 130.389 41.8357 134.784C46.3961 139.18 52.1329 142.159 58.3517 143.362C64.5704 144.564 71.0044 143.938 76.8746 141.559L81.0096 149.323L87.0336 146.115L82.8986 138.351C89.6095 133.82 94.4051 126.965 96.3603 119.108C98.3155 111.25 97.2917 102.947 93.4866 95.8ZM77.3016 135.1C72.5731 137.618 67.204 138.678 61.8733 138.145C56.5426 137.611 51.4897 135.509 47.3538 132.104C43.2178 128.699 40.1845 124.144 38.6374 119.015C37.0903 113.886 37.099 108.413 38.6623 103.289C40.2257 98.1649 43.2734 93.6194 47.4202 90.2275C51.5669 86.8356 56.6264 84.7495 61.9587 84.2332C67.2911 83.7168 72.6568 84.7933 77.3774 87.3266C82.0979 89.8598 85.9611 93.736 88.4786 98.465C91.8539 104.805 92.5726 112.227 90.4765 119.097C88.3805 125.967 83.6414 131.724 77.3016 135.1Z" fill="#00524C"/>
<path d="M49.174 82.28C44.5135 84.762 40.522 88.3337 37.5395 92.6908C34.557 97.0479 32.6718 102.061 32.0445 107.304C31.4172 112.547 32.0665 117.864 33.9369 122.801C35.8074 127.739 38.8436 132.152 42.787 135.663L46.873 131.698C44.0272 129.242 41.7236 126.221 40.1088 122.827C38.4941 119.433 37.6035 115.74 37.4938 111.982C37.384 108.225 38.0575 104.486 39.4714 101.004C40.8853 97.5208 43.0086 94.3704 45.7063 91.753C48.404 89.1355 51.6169 87.1081 55.1407 85.7999C58.6645 84.4918 62.4221 83.9313 66.1743 84.1544C69.9264 84.3774 73.5911 85.379 76.9352 87.0954C80.2792 88.8118 83.2294 91.2054 85.598 94.124L89.686 90.157C84.8595 84.3986 78.2007 80.4736 70.8252 79.0398C63.4496 77.6059 55.8054 78.7502 49.173 82.281L49.174 82.28Z" fill="black"/>
<path opacity="0.71" d="M49.174 82.28C44.5135 84.762 40.522 88.3337 37.5395 92.6908C34.557 97.0479 32.6718 102.061 32.0445 107.304C31.4172 112.547 32.0665 117.864 33.9369 122.801C35.8074 127.739 38.8436 132.152 42.787 135.663L46.873 131.698C44.0272 129.242 41.7236 126.221 40.1088 122.827C38.4941 119.433 37.6035 115.74 37.4938 111.982C37.384 108.225 38.0575 104.486 39.4714 101.004C40.8853 97.5208 43.0086 94.3704 45.7063 91.753C48.404 89.1355 51.6169 87.1081 55.1407 85.7999C58.6645 84.4918 62.4221 83.9313 66.1743 84.1544C69.9264 84.3774 73.5911 85.379 76.9352 87.0954C80.2792 88.8118 83.2294 91.2054 85.598 94.124L89.686 90.157C84.8595 84.3986 78.2007 80.4736 70.8252 79.0398C63.4496 77.6059 55.8054 78.7502 49.173 82.281L49.174 82.28Z" fill="#00524C"/>
<path d="M114.991 205.88C113.683 206.572 112.155 206.719 110.739 206.288C109.324 205.857 108.137 204.884 107.437 203.58L78.4468 149.139C78.2626 148.793 78.2234 148.388 78.3378 148.013C78.4522 147.638 78.7108 147.323 79.0568 147.139L86.3038 143.279C86.6499 143.095 87.055 143.056 87.4301 143.17C87.8051 143.284 88.1194 143.543 88.3038 143.889L117.294 198.33C117.986 199.638 118.133 201.166 117.702 202.581C117.271 203.997 116.297 205.184 114.994 205.884L114.991 205.88Z" fill="#011721"/>
<path d="M79.0568 147.135C78.7108 147.319 78.4522 147.634 78.3378 148.009C78.2234 148.384 78.2626 148.789 78.4468 149.135L107.437 203.576C108.137 204.88 109.324 205.853 110.739 206.284C112.155 206.715 113.683 206.568 114.991 205.876L82.6808 145.2L79.0568 147.135Z" fill="#05293C"/>
<path d="M89.3518 98C86.7419 93.0986 82.7372 89.0812 77.8441 86.4559C72.9509 83.8305 67.3892 82.7151 61.8621 83.2507C56.3351 83.7863 51.0909 85.9489 46.7929 89.4649C42.4949 92.9809 39.3361 97.6925 37.7158 103.004C36.0956 108.315 36.0868 113.988 37.6904 119.304C39.2941 124.62 42.4382 129.342 46.7252 132.871C51.0123 136.401 56.2496 138.579 61.775 139.132C67.3003 139.685 72.8655 138.587 77.7668 135.977C84.3391 132.477 89.2518 126.51 91.4244 119.388C93.597 112.266 92.8515 104.572 89.3518 98ZM77.3018 135.1C72.5734 137.618 67.2043 138.678 61.8736 138.145C56.5428 137.612 51.4899 135.51 47.3538 132.105C43.2177 128.7 40.1843 124.145 38.6371 119.016C37.0899 113.887 37.0984 108.414 38.6616 103.29C40.2248 98.1659 43.2725 93.6204 47.4191 90.2283C51.5658 86.8363 56.6253 84.7501 61.9576 84.2336C67.29 83.7172 72.6558 84.7936 77.3764 87.3267C82.0969 89.8599 85.9603 93.7361 88.4778 98.465C91.8532 104.805 92.572 112.227 90.4762 119.097C88.3804 125.967 83.6415 131.723 77.3018 135.1Z" fill="black"/>
<path opacity="0.7" d="M89.3518 98C86.7419 93.0986 82.7372 89.0812 77.8441 86.4559C72.9509 83.8305 67.3892 82.7151 61.8621 83.2507C56.3351 83.7863 51.0909 85.9489 46.7929 89.4649C42.4949 92.9809 39.3361 97.6925 37.7158 103.004C36.0956 108.315 36.0868 113.988 37.6904 119.304C39.2941 124.62 42.4382 129.342 46.7252 132.871C51.0123 136.401 56.2496 138.579 61.775 139.132C67.3003 139.685 72.8655 138.587 77.7668 135.977C84.3391 132.477 89.2518 126.51 91.4244 119.388C93.597 112.266 92.8515 104.572 89.3518 98ZM77.3018 135.1C72.5734 137.618 67.2043 138.678 61.8736 138.145C56.5428 137.612 51.4899 135.51 47.3538 132.105C43.2177 128.7 40.1843 124.145 38.6371 119.016C37.0899 113.887 37.0984 108.414 38.6616 103.29C40.2248 98.1659 43.2725 93.6204 47.4191 90.2283C51.5658 86.8363 56.6253 84.7501 61.9576 84.2336C67.29 83.7172 72.6558 84.7936 77.3764 87.3267C82.0969 89.8599 85.9603 93.7361 88.4778 98.465C91.8532 104.805 92.572 112.227 90.4762 119.097C88.3804 125.967 83.6415 131.723 77.3018 135.1Z" fill="#00524C"/>
<path opacity="0.35" d="M64.5723 138.283C79.5315 138.283 91.6583 126.156 91.6583 111.197C91.6583 96.2378 79.5315 84.111 64.5723 84.111C49.6131 84.111 37.4863 96.2378 37.4863 111.197C37.4863 126.156 49.6131 138.283 64.5723 138.283Z" fill="white"/>
<path opacity="0.7" d="M51.3751 86.415C47.3555 88.5557 43.9168 91.642 41.3559 95.4079C38.7949 99.1737 37.1884 103.506 36.6751 108.031C36.1617 112.556 36.7568 117.138 38.4091 121.382C40.0613 125.626 42.7212 129.404 46.1591 132.391L46.8731 131.698C44.0273 129.242 41.7237 126.221 40.109 122.827C38.4942 119.433 37.6036 115.74 37.4939 111.982C37.3842 108.225 38.0577 104.486 39.4716 101.003C40.8854 97.5207 43.0088 94.3704 45.7064 91.7529C48.4041 89.1354 51.617 87.1081 55.1409 85.7999C58.6647 84.4917 62.4222 83.9313 66.1744 84.1543C69.9266 84.3774 73.5913 85.3789 76.9353 87.0953C80.2794 88.8117 83.2295 91.2054 85.5981 94.124L86.3121 93.431C82.1996 88.4001 76.4697 84.951 70.099 83.6717C63.7283 82.3923 57.1111 83.3618 51.3751 86.415Z" fill="#00524C"/>
<path d="M190.154 64.5857L189.674 64.992L192.631 68.485L193.111 68.0787L190.154 64.5857Z" fill="#011721"/>
<path d="M197.01 60.9699L196.385 61.041L196.883 65.4246L197.508 65.3535L197.01 60.9699Z" fill="#011721"/>
<path d="M210.026 66.2613L207.197 67.787L207.495 68.3397L210.324 66.8141L210.026 66.2613Z" fill="#011721"/>
<path d="M27.5962 110.212H27.5852C27.5647 110.209 27.5463 110.198 27.5337 110.182C27.5212 110.165 27.5156 110.145 27.5182 110.124C28.8022 100.853 32.0012 93.081 37.0242 87.024C41.17 82.0817 46.468 78.2354 52.4512 75.824C59.0189 73.1556 66.064 71.8623 73.1512 72.024C73.1705 72.0262 73.1883 72.0354 73.2012 72.0499C73.2142 72.0643 73.2213 72.0831 73.2213 72.1025C73.2213 72.1219 73.2142 72.1406 73.2012 72.1551C73.1883 72.1696 73.1705 72.1788 73.1512 72.181C66.0842 72.0215 59.0595 73.3128 52.5112 75.975C42.7832 80.014 30.5772 89.221 27.6802 110.143C27.6775 110.162 27.6682 110.179 27.6539 110.192C27.6395 110.204 27.6212 110.211 27.6022 110.211L27.5962 110.212Z" fill="#011721"/>
<path d="M115.976 201.207C115.962 201.207 115.949 201.203 115.937 201.197C115.925 201.19 115.915 201.18 115.908 201.168L96.9988 168.278C96.9936 168.269 96.9903 168.259 96.9889 168.249C96.9876 168.239 96.9883 168.228 96.991 168.218C96.9937 168.208 96.9983 168.199 97.0047 168.191C97.011 168.183 97.0188 168.176 97.0278 168.171C97.0367 168.166 97.0466 168.162 97.0568 168.161C97.0671 168.159 97.0775 168.16 97.0875 168.163C97.0975 168.165 97.1068 168.17 97.1149 168.177C97.1231 168.183 97.1298 168.191 97.1348 168.2L116.044 201.09C116.049 201.099 116.052 201.109 116.054 201.119C116.055 201.129 116.054 201.14 116.052 201.15C116.049 201.159 116.044 201.169 116.038 201.177C116.032 201.185 116.024 201.192 116.015 201.197C116.003 201.204 115.989 201.207 115.976 201.207Z" fill="#FFF2E6"/>
<path d="M168.17 159.961C168.149 159.96 168.13 159.95 168.116 159.935C168.102 159.919 168.095 159.899 168.096 159.878L168.983 143.609C168.985 143.588 168.994 143.569 169.01 143.556C169.025 143.542 169.045 143.535 169.066 143.535C169.087 143.536 169.106 143.546 169.12 143.561C169.134 143.577 169.141 143.597 169.14 143.618L168.253 159.887C168.252 159.907 168.243 159.926 168.228 159.94C168.213 159.953 168.194 159.961 168.174 159.961H168.17Z" fill="#011721"/>
<path d="M212.543 203.357C212.524 203.357 212.506 203.351 212.492 203.339C212.478 203.328 212.468 203.311 212.465 203.293L203.265 152.393C203.261 152.373 203.266 152.352 203.278 152.335C203.289 152.318 203.307 152.306 203.328 152.302C203.338 152.3 203.348 152.3 203.359 152.302C203.369 152.304 203.378 152.308 203.387 152.314C203.395 152.32 203.403 152.327 203.408 152.336C203.414 152.345 203.417 152.355 203.419 152.365L212.619 203.265C212.622 203.285 212.618 203.306 212.606 203.323C212.594 203.34 212.576 203.352 212.556 203.356H212.542L212.543 203.357Z" fill="#011721"/>
</g>
</g>
<defs>
<linearGradient id="paint0_linear_246_1001" x1="124.443" y1="-2.80216" x2="130.557" y2="265.187" gradientUnits="userSpaceOnUse">
<stop stop-color="#FAFFFC"/>
<stop offset="0.55" stop-color="#FAFFFF"/>
<stop offset="1" stop-color="#E3FAF8"/>
</linearGradient>
<clipPath id="clip0_246_1001">
<rect width="255" height="255" fill="white"/>
</clipPath>
</defs>
</svg>
