<svg width="255" height="255" viewBox="0 0 255 255" fill="none" xmlns="http://www.w3.org/2000/svg">
<g clip-path="url(#clip0_246_1073)">
<path d="M254.877 127.377C254.892 141.818 252.448 156.157 247.648 169.777C247.248 170.91 246.832 172.04 246.398 173.165C245.412 175.724 244.346 178.242 243.198 180.719C241.911 183.508 240.526 186.242 239.044 188.919C236.795 192.984 234.324 196.924 231.644 200.719L231.538 200.87L231.394 201.07L231.387 201.08L231.287 201.218C231.105 201.475 230.921 201.731 230.735 201.986C226.67 207.602 222.155 212.878 217.235 217.763C216.976 218.02 216.716 218.276 216.454 218.531L216.417 218.567C192.654 241.798 160.729 254.786 127.497 254.742C97.1312 254.787 67.7561 243.94 44.7072 224.17C42.6032 222.37 40.5595 220.503 38.5762 218.57L38.5392 218.534C38.2779 218.279 38.0175 218.023 37.7582 217.766C32.8395 212.884 28.325 207.612 24.2592 202C24.1092 201.794 23.9602 201.587 23.8122 201.38L23.7062 201.232C8.32668 179.68 0.0800261 153.854 0.123216 127.377C0.123216 93.5945 13.5433 61.1957 37.4311 37.3079C61.3189 13.42 93.7177 0 127.5 0C161.283 0 193.682 13.42 217.569 37.3079C241.457 61.1957 254.877 93.5945 254.877 127.377Z" fill="url(#paint0_linear_246_1073)"/>
<path d="M85.8756 213.669H180.987C197.244 203.368 209.717 188.067 216.529 170.067C223.342 152.067 224.126 132.341 218.763 113.857C213.4 95.3737 202.18 79.131 186.792 67.5725C171.403 56.0141 152.677 49.7649 133.431 49.7649C114.185 49.7649 95.4593 56.0141 80.0706 67.5725C64.6818 79.131 53.4622 95.3737 48.0992 113.857C42.7363 132.341 43.5201 152.067 50.3327 170.067C57.1453 188.067 69.6183 203.368 85.8756 213.669Z" fill="white"/>
<path opacity="0.1" d="M83.379 175.443C83.3616 188.67 86.3099 201.733 92.007 213.67H181.002C200.138 201.54 213.919 182.561 219.53 160.61C225.141 138.66 222.159 115.395 211.192 95.57C197.644 88.9683 182.64 85.9201 167.589 86.7119C152.539 87.5037 137.938 92.1095 125.157 100.096C112.376 108.083 101.837 119.189 94.5283 132.369C87.2201 145.55 83.3834 160.372 83.379 175.443Z" fill="#00524C"/>
<mask id="mask0_246_1073" style="mask-type:luminance" maskUnits="userSpaceOnUse" x="0" y="0" width="255" height="255">
<path d="M255 0H0V255H255V0Z" fill="white"/>
</mask>
<g mask="url(#mask0_246_1073)">
<path d="M234.206 213.739H24.8225C24.6775 213.739 24.5605 213.663 24.5605 213.57C24.5605 213.477 24.6785 213.401 24.8225 213.401H234.206C234.351 213.401 234.468 213.477 234.468 213.57C234.468 213.663 234.35 213.739 234.206 213.739Z" fill="#011721"/>
<path d="M158.377 136.11L144.532 137.488C144.156 137.531 143.807 137.707 143.548 137.983C143.289 138.26 143.136 138.619 143.117 138.998C143.098 139.376 143.214 139.749 143.445 140.05C143.675 140.351 144.005 140.561 144.375 140.641C149.625 141.578 154.953 142.002 160.284 141.905L166.947 140.269L158.377 136.11Z" fill="black"/>
<g opacity="0.75">
<mask id="mask1_246_1073" style="mask-type:luminance" maskUnits="userSpaceOnUse" x="143" y="136" width="24" height="6">
<path d="M166.947 136.11H143.115V141.918H166.947V136.11Z" fill="white"/>
</mask>
<g mask="url(#mask1_246_1073)">
<path d="M158.377 136.11L144.532 137.488C144.156 137.531 143.807 137.707 143.548 137.983C143.289 138.26 143.136 138.619 143.117 138.998C143.098 139.376 143.214 139.749 143.445 140.05C143.675 140.351 144.005 140.561 144.375 140.641C149.625 141.578 154.953 142.002 160.284 141.905L166.947 140.269L158.377 136.11Z" fill="#00524C"/>
</g>
</g>
<path d="M151.122 141.555C148.882 140.115 150.079 136.936 150.079 136.936L144.53 137.489C144.154 137.532 143.805 137.708 143.546 137.984C143.287 138.261 143.134 138.62 143.115 138.999C143.096 139.377 143.213 139.75 143.443 140.051C143.673 140.352 144.003 140.561 144.373 140.642C146.604 141.075 148.858 141.38 151.123 141.556L151.122 141.555Z" fill="#FFD2B3"/>
<path d="M143.2 139.657C143.292 139.91 143.449 140.135 143.655 140.308C143.862 140.481 144.111 140.596 144.376 140.641C149.626 141.578 154.954 142.002 160.285 141.905L166.812 140.305L166.612 140.105L164.936 139.291L159.263 139.63C155.535 140.178 145.538 139.761 143.199 139.654L143.2 139.657Z" fill="#00524C"/>
<path d="M144.375 140.641C146.606 141.074 148.86 141.379 151.125 141.555C150.519 141.171 150.082 140.571 149.901 139.877C146.951 139.821 144.272 139.706 143.201 139.657C143.293 139.91 143.45 140.135 143.656 140.308C143.863 140.481 144.112 140.596 144.377 140.641H144.375Z" fill="#D39266"/>
<path d="M175.446 113.22L173.527 110.135L180.543 106.335C181.163 106.106 181.846 106.12 182.456 106.373C183.066 106.627 183.559 107.101 183.834 107.701C184.501 109.036 185.425 111.501 185.81 116.423L178.661 115.544L175.447 113.221L175.446 113.22Z" fill="#011721"/>
<path d="M175.449 117.155L178.805 118.981L180.58 117.474C180.716 117.385 180.88 117.351 181.04 117.378C181.2 117.405 181.343 117.492 181.441 117.621C181.557 117.755 181.621 117.926 181.621 118.104C181.621 118.281 181.557 118.452 181.441 118.586C181.441 118.586 184.369 116.349 185.941 116.449C185.254 116.212 184.591 115.91 183.96 115.549C181.714 114.549 182.947 111.949 181.56 111.505C181.127 111.365 180.912 113.112 179.688 112.967C178.707 112.851 175.439 111.849 175.439 111.849V117.149L175.449 117.155Z" fill="#FFD2B3"/>
<path d="M181.446 118.585C181.869 118.164 182.324 117.777 182.807 117.427L182.043 116.987C181.89 116.894 181.712 116.851 181.534 116.865C181.356 116.879 181.186 116.949 181.05 117.065L180.58 117.474C180.716 117.385 180.88 117.351 181.04 117.378C181.199 117.405 181.343 117.492 181.441 117.621C181.557 117.755 181.62 117.926 181.62 118.104C181.62 118.281 181.557 118.452 181.441 118.586L181.446 118.585Z" fill="#D39266"/>
<path d="M173.461 112.942C169.512 116.519 163.411 124.042 157.819 137.427C157.609 137.934 157.529 138.486 157.587 139.031C157.645 139.577 157.84 140.1 158.153 140.551C158.466 141.002 158.887 141.367 159.378 141.612C159.869 141.858 160.414 141.976 160.962 141.956C166.905 141.731 176.262 139.756 181.362 136.041L189.915 155.648C189.915 155.648 202.785 160.573 211.523 154.854C211.523 154.854 204.016 132.207 195.663 120.224C194.458 118.461 192.697 117.154 190.66 116.511C188.624 115.869 186.431 115.929 184.432 116.681C182.893 117.278 181.508 118.216 180.381 119.423L168.147 133.087C168.147 133.087 172.869 121.422 175.669 114.487C175.787 114.197 175.802 113.875 175.713 113.575C175.624 113.275 175.436 113.014 175.179 112.835C174.923 112.656 174.613 112.569 174.3 112.588C173.988 112.608 173.691 112.733 173.459 112.943L173.461 112.942Z" fill="#00524C"/>
<path d="M168.149 133.085C168.149 133.085 172.871 121.42 175.671 114.485C175.79 114.207 175.811 113.896 175.732 113.604C175.652 113.312 175.477 113.055 175.233 112.875C175.233 112.875 168.077 129.975 168.149 133.084V133.085Z" fill="#606060"/>
<path d="M173.854 118.98C174.5 117.38 175.122 115.843 175.67 114.48C175.787 114.19 175.803 113.868 175.714 113.568C175.625 113.268 175.436 113.007 175.18 112.828C174.923 112.649 174.613 112.562 174.301 112.581C173.988 112.601 173.692 112.726 173.46 112.936C172.358 113.945 171.317 115.019 170.342 116.152C170.342 116.172 170.32 119.291 173.854 118.98Z" fill="#FFD2B3"/>
<path d="M172.772 118.957C173.131 119.007 173.494 119.014 173.854 118.98L175.67 114.48C175.789 114.202 175.811 113.891 175.731 113.599C175.652 113.307 175.476 113.05 175.232 112.87C175.232 112.87 174.116 115.536 172.771 118.952L172.772 118.957Z" fill="#D39266"/>
<path d="M181.693 130.379C178.493 138.602 161.441 141.703 160.285 141.905C160.508 141.945 160.735 141.962 160.961 141.955C166.904 141.73 176.261 139.755 181.361 136.04L189.914 155.647C189.914 155.647 190.094 155.715 190.414 155.824L202.05 151.194C186.579 146.232 181.69 130.379 181.69 130.379H181.693Z" fill="black"/>
<g opacity="0.75">
<mask id="mask2_246_1073" style="mask-type:luminance" maskUnits="userSpaceOnUse" x="160" y="130" width="43" height="26">
<path d="M202.05 130.379H160.285V155.824H202.05V130.379Z" fill="white"/>
</mask>
<g mask="url(#mask2_246_1073)">
<path d="M181.693 130.379C178.493 138.602 161.441 141.703 160.285 141.905C160.508 141.945 160.735 141.962 160.961 141.955C166.904 141.73 176.261 139.755 181.361 136.04L189.914 155.647C189.914 155.647 190.094 155.715 190.414 155.824L202.05 151.194C186.579 146.232 181.69 130.379 181.69 130.379H181.693Z" fill="#00524C"/>
</g>
</g>
<path d="M185.088 169.411H203.4V171.87C203.4 172.369 203.201 172.847 202.849 173.2C202.496 173.552 202.018 173.751 201.519 173.751H186.969C186.47 173.751 185.992 173.552 185.639 173.2C185.286 172.847 185.088 172.369 185.088 171.87V169.411Z" fill="#00524C"/>
<path d="M203.4 169.411H193.99L194.245 170.32V173.751H201.267C201.833 173.751 202.375 173.526 202.775 173.126C203.175 172.726 203.4 172.184 203.4 171.618V169.411Z" fill="#00524C"/>
<path d="M214.89 208.032V208.446C214.89 208.577 214.864 208.707 214.814 208.828C214.764 208.949 214.69 209.059 214.597 209.152C214.504 209.244 214.394 209.317 214.272 209.367C214.151 209.417 214.021 209.442 213.89 209.441H174.59C174.458 209.442 174.328 209.416 174.206 209.367C174.085 209.317 173.974 209.243 173.881 209.15C173.788 209.057 173.714 208.946 173.664 208.825C173.614 208.703 173.589 208.573 173.59 208.441V208.027C173.589 207.895 173.614 207.765 173.664 207.643C173.714 207.522 173.788 207.411 173.881 207.318C173.974 207.225 174.085 207.151 174.206 207.102C174.328 207.052 174.458 207.026 174.59 207.027H213.899C214.03 207.026 214.16 207.051 214.281 207.101C214.403 207.151 214.513 207.224 214.606 207.316C214.699 207.409 214.773 207.519 214.823 207.64C214.873 207.761 214.899 207.891 214.899 208.022" fill="#00524C"/>
<path d="M178.044 207.494C178.661 207.494 179.265 207.677 179.778 208.02C180.292 208.363 180.692 208.851 180.928 209.421C181.165 209.992 181.226 210.619 181.106 211.225C180.985 211.831 180.688 212.387 180.251 212.824C179.815 213.26 179.259 213.558 178.653 213.678C178.047 213.798 177.42 213.737 176.849 213.5C176.279 213.264 175.791 212.864 175.448 212.35C175.105 211.837 174.922 211.233 174.922 210.616C174.922 210.206 175.003 209.8 175.16 209.421C175.316 209.042 175.546 208.698 175.836 208.408C176.126 208.119 176.47 207.889 176.849 207.732C177.228 207.575 177.634 207.494 178.044 207.494Z" fill="#00524C"/>
<path d="M210.44 207.494C211.058 207.494 211.661 207.677 212.175 208.02C212.688 208.363 213.088 208.851 213.325 209.421C213.561 209.992 213.623 210.619 213.502 211.225C213.382 211.831 213.085 212.387 212.648 212.824C212.211 213.26 211.655 213.558 211.049 213.678C210.444 213.798 209.816 213.737 209.246 213.5C208.675 213.264 208.188 212.864 207.845 212.35C207.501 211.837 207.318 211.233 207.318 210.616C207.318 209.788 207.647 208.994 208.233 208.408C208.818 207.823 209.612 207.494 210.44 207.494Z" fill="#00524C"/>
<path d="M160.923 164.475C160.923 164.475 144.584 186.761 127.84 210.816C127.61 211.145 127.502 211.545 127.535 211.945C127.568 212.345 127.739 212.721 128.02 213.009C128.3 213.296 128.672 213.477 129.072 213.52C129.471 213.563 129.873 213.465 130.208 213.243C137.927 208.111 151.419 198.043 167.721 181.23L173.021 171.895L160.921 164.475H160.923Z" fill="#05293C"/>
<path d="M167.717 181.229L173.017 171.894L170.289 170.221L160.919 164.474L137.584 208.026C148.324 199.907 158.399 190.945 167.716 181.226L167.717 181.229Z" fill="#011721"/>
<path d="M207.587 156.515C204.143 149.631 191.728 147.537 191.728 147.537C185.318 151.226 176.328 155.652 169.697 159.245C164.622 161.997 160.92 164.473 160.92 164.473C166.378 184.444 182.806 204.892 190.104 213.273C190.302 213.499 190.571 213.651 190.866 213.706C191.162 213.76 191.467 213.714 191.733 213.574C191.999 213.433 192.209 213.207 192.331 212.933C192.453 212.658 192.479 212.35 192.404 212.059C188.17 195.743 179.467 169.635 179.467 169.635C191.893 166.469 199.29 163.101 203.688 160.267C205.219 159.281 206.543 158.007 207.587 156.515Z" fill="#05293C"/>
<path d="M179.468 169.636C191.894 166.47 199.291 163.102 203.689 160.268C205.243 159.268 207.613 159.959 208.642 158.489L207.585 156.516C206.296 154.243 204.374 152.394 202.052 151.195C202.052 151.195 181.532 159.654 169.168 167.35C172.039 184.15 179.456 200.442 186.576 209.104L187.502 208.95L190.858 206.35C186.358 190.3 179.467 169.632 179.467 169.632L179.468 169.636Z" fill="#011721"/>
<path d="M132.355 204.353C130.86 206.486 129.354 208.641 127.838 210.816C127.608 211.145 127.5 211.545 127.533 211.945C127.566 212.345 127.737 212.721 128.018 213.009C128.298 213.296 128.67 213.477 129.07 213.52C129.469 213.563 129.871 213.465 130.206 213.243C132.271 211.87 134.752 210.143 137.586 208.027C136.437 208.049 135.311 207.705 134.37 207.045C133.43 206.384 132.724 205.441 132.355 204.353Z" fill="#FFD2B3"/>
<path d="M192.405 212.06C191.692 209.314 191.205 207.509 190.305 204.38C189.834 205.105 189.294 205.782 188.692 206.402C187.789 207.134 186.728 207.644 185.592 207.89C187.3 210.001 188.842 211.822 190.107 213.274C190.305 213.5 190.574 213.652 190.869 213.707C191.165 213.761 191.47 213.715 191.736 213.575C192.002 213.434 192.212 213.208 192.334 212.934C192.456 212.659 192.481 212.351 192.407 212.06H192.405Z" fill="#FFD2B3"/>
<path d="M134.306 207L128.041 213.031C128.317 213.318 128.687 213.498 129.084 213.537C129.481 213.576 129.879 213.472 130.206 213.244C132.271 211.871 134.752 210.144 137.586 208.028C136.427 207.946 135.304 207.594 134.306 207Z" fill="#D39266"/>
<path d="M188.499 206.58C187.627 207.209 186.637 207.655 185.588 207.891C187.296 210.002 188.838 211.823 190.103 213.275C190.288 213.495 190.54 213.647 190.821 213.709C191.102 213.77 191.395 213.736 191.655 213.613L188.499 206.58Z" fill="#D39266"/>
<path d="M220.408 111.479C220.717 110.591 221.283 109.814 222.034 109.247C222.786 108.681 223.688 108.35 224.627 108.296C225.566 108.242 226.5 108.467 227.311 108.944C228.122 109.421 228.774 110.128 229.183 110.975C229.592 111.822 229.741 112.772 229.611 113.704C229.48 114.635 229.077 115.508 228.451 116.21C227.825 116.912 227.005 117.413 226.094 117.649C225.183 117.886 224.223 117.847 223.335 117.537C222.745 117.331 222.201 117.012 221.735 116.596C221.268 116.18 220.888 115.677 220.616 115.114C220.345 114.552 220.186 113.941 220.15 113.317C220.115 112.694 220.202 112.069 220.408 111.479Z" fill="black"/>
<path d="M226 108.441L223.537 117.589C224.738 117.96 226.038 117.838 227.149 117.25C228.261 116.663 229.093 115.658 229.464 114.457C229.835 113.256 229.713 111.956 229.126 110.845C228.538 109.733 227.533 108.901 226.332 108.53C226.222 108.497 226.112 108.467 226 108.441Z" fill="#00524C"/>
<path d="M198.978 170.32H177.578C176.394 170.32 175.257 169.849 174.42 169.012C173.582 168.174 173.111 167.038 173.111 165.853C173.111 164.668 173.582 163.532 174.42 162.694C175.257 161.857 176.394 161.386 177.578 161.386H198.978C201.238 161.383 203.434 160.637 205.229 159.264C207.023 157.891 208.317 155.966 208.911 153.786L218.653 118.721C218.81 118.156 219.077 117.627 219.438 117.165C219.8 116.702 220.249 116.316 220.759 116.027C221.27 115.739 221.833 115.553 222.415 115.482C222.997 115.411 223.588 115.455 224.153 115.612C224.719 115.769 225.247 116.036 225.71 116.397C226.172 116.758 226.558 117.207 226.847 117.718C227.136 118.229 227.321 118.791 227.392 119.374C227.464 119.956 227.419 120.547 227.262 121.112L217.524 156.154C216.41 160.22 213.992 163.807 210.642 166.366C207.291 168.925 203.194 170.313 198.978 170.318V170.32Z" fill="#00524C"/>
<path d="M213.776 152.278L223.511 117.239C223.665 116.683 223.709 116.103 223.64 115.53C222.561 115.358 221.457 115.589 220.537 116.18C219.617 116.77 218.947 117.677 218.653 118.73L208.911 153.795C208.317 155.975 207.023 157.9 205.229 159.273C203.434 160.646 201.238 161.392 198.978 161.395H177.578C176.992 161.395 176.411 161.51 175.869 161.735C175.327 161.959 174.835 162.288 174.42 162.703C174.005 163.117 173.676 163.61 173.451 164.152C173.227 164.694 173.111 165.274 173.111 165.861C173.118 166.036 173.135 166.21 173.163 166.382C173.383 166.421 173.606 166.444 173.829 166.449H195.229C199.445 166.444 203.543 165.056 206.893 162.497C210.243 159.938 212.661 156.351 213.775 152.285L213.776 152.278Z" fill="black"/>
<path d="M181.632 168.771C181.336 168.771 181.044 168.701 180.78 168.566C180.516 168.432 180.288 168.237 180.115 167.997C179.941 167.757 179.826 167.48 179.78 167.187C179.735 166.895 179.759 166.595 179.851 166.314L184.366 152.543C185.13 150.2 186.617 148.159 188.612 146.714C190.608 145.268 193.01 144.491 195.475 144.495H222.081C222.578 144.495 223.054 144.692 223.405 145.044C223.756 145.395 223.954 145.871 223.954 146.368C223.954 146.865 223.756 147.341 223.405 147.692C223.054 148.044 222.578 148.241 222.081 148.241H195.475C193.8 148.238 192.168 148.766 190.812 149.748C189.456 150.731 188.445 152.117 187.926 153.709L183.411 167.48C183.288 167.855 183.05 168.181 182.73 168.413C182.411 168.645 182.026 168.77 181.632 168.771Z" fill="#00524C"/>
<path d="M197.619 173.751H190.867V182.842H197.619V173.751Z" fill="#00524C"/>
<path d="M195.961 182.842H192.523V208.027H195.961V182.842Z" fill="#00524C"/>
<path d="M195.961 182.842H194.242V208.027H195.961V182.842Z" fill="black"/>
<path d="M197.618 173.751H194.242V182.842H197.618V173.751Z" fill="black"/>
<path d="M213.762 207.038H194.242V208.238H214.891V208.164C214.89 207.865 214.771 207.579 214.559 207.368C214.348 207.157 214.061 207.038 213.762 207.038Z" fill="black"/>
<path d="M222.081 144.5H195.475C193.01 144.496 190.608 145.273 188.612 146.719C186.616 148.164 185.13 150.205 184.366 152.548L184.102 153.354C184.965 151.465 186.323 149.845 188.033 148.666C190.29 147.138 192.961 146.339 195.687 146.378H223.955C223.954 145.881 223.757 145.405 223.406 145.054C223.054 144.703 222.578 144.505 222.082 144.505L222.081 144.5Z" fill="black"/>
<g opacity="0.38">
<mask id="mask3_246_1073" style="mask-type:luminance" maskUnits="userSpaceOnUse" x="209" y="148" width="11" height="3">
<path d="M219.723 148.242H209.883V150.288H219.723V148.242Z" fill="white"/>
</mask>
<g mask="url(#mask3_246_1073)">
<path d="M219.723 148.242L219.336 149.635L209.883 150.288L210.452 148.242H219.723Z" fill="#011721"/>
</g>
</g>
<path d="M84.7134 142.887H82.7734V213.739H84.7134V142.887Z" fill="#00524C"/>
<path d="M174.253 142.887H172.312V213.739H174.253V142.887Z" fill="#00524C"/>
<path d="M69.8005 141.978H185.221C185.416 141.979 185.603 142.056 185.742 142.195C185.88 142.333 185.958 142.52 185.958 142.716V143.058C185.958 143.254 185.88 143.441 185.742 143.579C185.603 143.718 185.416 143.795 185.221 143.796H69.8005C69.6049 143.795 69.4175 143.718 69.2792 143.579C69.141 143.441 69.063 143.254 69.0625 143.058V142.716C69.063 142.52 69.141 142.333 69.2792 142.195C69.4175 142.056 69.6049 141.979 69.8005 141.978Z" fill="#00524C"/>
<path d="M106.922 141.978H144.37C144.576 141.978 144.773 141.896 144.918 141.751C145.063 141.606 145.144 141.409 145.144 141.204C145.144 140.999 145.063 140.802 144.918 140.657C144.773 140.512 144.576 140.43 144.37 140.43H106.922C106.717 140.43 106.52 140.512 106.375 140.657C106.23 140.802 106.148 140.999 106.148 141.204C106.148 141.409 106.23 141.606 106.375 141.751C106.52 141.896 106.717 141.978 106.922 141.978Z" fill="#011721"/>
<path d="M106.95 140.678H135.1L127.291 120.078H99.1406L106.95 140.678Z" fill="#00524C"/>
<path d="M117.305 129.855C118.105 129.65 118.973 130.346 119.245 131.409C119.413 131.841 119.408 132.321 119.23 132.749C119.052 133.176 118.715 133.519 118.29 133.704C117.49 133.904 116.622 133.213 116.35 132.15C116.181 131.718 116.186 131.236 116.364 130.807C116.542 130.378 116.879 130.035 117.305 129.85" fill="#05293C"/>
<path d="M137.099 60.757C136.427 60.7579 135.766 60.5846 135.18 60.2539C134.595 59.9231 134.105 59.4463 133.759 58.87C133.115 57.7869 132.2 56.8899 131.104 56.2669C130.008 55.644 128.77 55.3164 127.509 55.3164C126.249 55.3164 125.01 55.644 123.914 56.2669C122.819 56.8899 121.904 57.7869 121.259 58.87C120.727 59.7549 119.865 60.3921 118.863 60.6416C117.861 60.891 116.801 60.7322 115.916 60.2C115.031 59.6678 114.394 58.806 114.145 57.804C113.895 56.8019 114.054 55.7419 114.586 54.857C115.923 52.6235 117.817 50.7747 120.081 49.491C122.346 48.2073 124.905 47.5325 127.508 47.5325C130.111 47.5325 132.67 48.2073 134.934 49.491C137.199 50.7747 139.092 52.6235 140.429 54.857C140.784 55.4475 140.976 56.1216 140.985 56.8105C140.995 57.4994 140.821 58.1784 140.482 58.7783C140.143 59.3782 139.651 59.8774 139.056 60.225C138.462 60.5726 137.785 60.7562 137.096 60.757H137.099Z" fill="black"/>
<path d="M146.763 54.96C146.09 54.9609 145.429 54.7876 144.844 54.4568C144.259 54.1261 143.769 53.6493 143.423 53.073C141.774 50.3253 139.443 48.0513 136.654 46.4725C133.866 44.8937 130.717 44.0639 127.513 44.0639C124.309 44.0639 121.159 44.8937 118.371 46.4725C115.583 48.0513 113.251 50.3253 111.603 53.073C111.071 53.9579 110.209 54.5952 109.207 54.8447C108.205 55.0942 107.145 54.9355 106.26 54.4035C105.375 53.8715 104.738 53.0097 104.488 52.0078C104.239 51.0059 104.398 49.9459 104.93 49.061C107.27 45.162 110.58 41.9353 114.538 39.6951C118.495 37.455 122.966 36.2776 127.513 36.2776C132.061 36.2776 136.531 37.455 140.488 39.6951C144.446 41.9353 147.756 45.162 150.097 49.061C150.452 49.6515 150.643 50.3256 150.653 51.0145C150.662 51.7034 150.488 52.3824 150.15 52.9823C149.811 53.5822 149.319 54.0814 148.724 54.429C148.129 54.7766 147.453 54.9602 146.764 54.961L146.763 54.96Z" fill="black"/>
<path d="M98.0392 48.826C97.351 48.8233 96.6757 48.6386 96.082 48.2905C95.4882 47.9425 94.9972 47.4435 94.6587 46.8443C94.3202 46.245 94.1462 45.5669 94.1546 44.8787C94.1629 44.1906 94.3532 43.5168 94.7062 42.926C98.1062 37.2616 102.915 32.5741 108.664 29.3196C114.413 26.0652 120.907 24.3547 127.514 24.3547C134.12 24.3547 140.614 26.0652 146.363 29.3196C152.112 32.5741 156.921 37.2616 160.321 42.926C160.585 43.3642 160.759 43.8499 160.835 44.3555C160.911 44.8611 160.886 45.3767 160.762 45.8728C160.639 46.3689 160.419 46.8358 160.115 47.2469C159.811 47.6579 159.429 48.0051 158.991 48.2685C158.553 48.5319 158.067 48.7065 157.561 48.7822C157.056 48.8579 156.54 48.8333 156.044 48.7097C155.548 48.5862 155.081 48.3661 154.67 48.0621C154.259 47.7581 153.912 47.3762 153.648 46.938C150.94 42.4248 147.11 38.6896 142.53 36.0964C137.95 33.5031 132.777 32.1401 127.514 32.1401C122.251 32.1401 117.077 33.5031 112.497 36.0964C107.917 38.6896 104.087 42.4248 101.379 46.938C101.033 47.5141 100.543 47.9908 99.9577 48.3215C99.3724 48.6521 98.7115 48.8266 98.0392 48.826Z" fill="black"/>
<path d="M127.513 58.46C128.581 58.46 129.625 58.7767 130.513 59.3701C131.401 59.9634 132.094 60.8068 132.502 61.7935C132.911 62.7802 133.018 63.866 132.81 64.9135C132.601 65.961 132.087 66.9232 131.332 67.6784C130.576 68.4336 129.614 68.9479 128.567 69.1562C127.519 69.3646 126.434 69.2577 125.447 68.8489C124.46 68.4402 123.617 67.7481 123.023 66.8601C122.43 65.972 122.113 64.928 122.113 63.86C122.113 63.1509 122.253 62.4487 122.524 61.7935C122.796 61.1383 123.193 60.5431 123.695 60.0416C124.196 59.5402 124.792 59.1424 125.447 58.871C126.102 58.5997 126.804 58.46 127.513 58.46Z" fill="black"/>
<g opacity="0.75">
<mask id="mask4_246_1073" style="mask-type:luminance" maskUnits="userSpaceOnUse" x="114" y="47" width="27" height="14">
<path d="M140.99 47.53H114.033V60.757H140.99V47.53Z" fill="white"/>
</mask>
<g mask="url(#mask4_246_1073)">
<path d="M137.101 60.757C136.429 60.7579 135.768 60.5846 135.182 60.2539C134.597 59.9231 134.107 59.4463 133.761 58.87C133.117 57.7869 132.202 56.8899 131.106 56.2669C130.01 55.644 128.772 55.3164 127.511 55.3164C126.251 55.3164 125.012 55.644 123.916 56.2669C122.821 56.8899 121.906 57.7869 121.261 58.87C120.729 59.7549 119.867 60.3921 118.865 60.6416C117.863 60.891 116.803 60.7322 115.918 60.2C115.033 59.6678 114.396 58.806 114.147 57.804C113.897 56.8019 114.056 55.7419 114.588 54.857C115.925 52.6235 117.818 50.7747 120.083 49.491C122.348 48.2073 124.906 47.5325 127.51 47.5325C130.113 47.5325 132.672 48.2073 134.936 49.491C137.201 50.7747 139.094 52.6235 140.431 54.857C140.786 55.4475 140.978 56.1216 140.987 56.8105C140.997 57.4994 140.823 58.1784 140.484 58.7783C140.145 59.3782 139.653 59.8774 139.058 60.225C138.463 60.5726 137.787 60.7562 137.098 60.757H137.101Z" fill="#00524C"/>
</g>
</g>
<g opacity="0.75">
<mask id="mask5_246_1073" style="mask-type:luminance" maskUnits="userSpaceOnUse" x="104" y="36" width="47" height="19">
<path d="M150.654 36.274H104.373V54.961H150.654V36.274Z" fill="white"/>
</mask>
<g mask="url(#mask5_246_1073)">
<path d="M146.763 54.96C146.09 54.9609 145.429 54.7876 144.844 54.4568C144.259 54.1261 143.769 53.6493 143.423 53.073C141.774 50.3253 139.443 48.0513 136.654 46.4725C133.866 44.8937 130.717 44.0639 127.513 44.0639C124.309 44.0639 121.159 44.8937 118.371 46.4725C115.583 48.0513 113.251 50.3253 111.603 53.073C111.071 53.9579 110.209 54.5952 109.207 54.8447C108.205 55.0942 107.145 54.9355 106.26 54.4035C105.375 53.8715 104.738 53.0097 104.488 52.0078C104.239 51.0059 104.398 49.9459 104.93 49.061C107.27 45.162 110.58 41.9353 114.538 39.6951C118.495 37.455 122.966 36.2776 127.513 36.2776C132.061 36.2776 136.531 37.455 140.488 39.6951C144.446 41.9353 147.756 45.162 150.097 49.061C150.452 49.6515 150.643 50.3256 150.653 51.0145C150.662 51.7034 150.488 52.3824 150.15 52.9823C149.811 53.5822 149.319 54.0814 148.724 54.429C148.129 54.7766 147.453 54.9602 146.764 54.961L146.763 54.96Z" fill="#00524C"/>
</g>
</g>
<g opacity="0.75">
<mask id="mask6_246_1073" style="mask-type:luminance" maskUnits="userSpaceOnUse" x="94" y="24" width="67" height="25">
<path d="M160.878 24.349H94.1504V48.826H160.878V24.349Z" fill="white"/>
</mask>
<g mask="url(#mask6_246_1073)">
<path d="M98.0392 48.826C97.351 48.8233 96.6757 48.6386 96.082 48.2905C95.4882 47.9425 94.9972 47.4435 94.6587 46.8443C94.3202 46.245 94.1462 45.5669 94.1546 44.8787C94.1629 44.1906 94.3532 43.5168 94.7062 42.926C98.1062 37.2616 102.915 32.5741 108.664 29.3196C114.413 26.0652 120.907 24.3547 127.514 24.3547C134.12 24.3547 140.614 26.0652 146.363 29.3196C152.112 32.5741 156.921 37.2616 160.321 42.926C160.585 43.3642 160.759 43.8499 160.835 44.3555C160.911 44.8611 160.886 45.3767 160.762 45.8728C160.639 46.3689 160.419 46.8358 160.115 47.2469C159.811 47.6579 159.429 48.0051 158.991 48.2685C158.553 48.5319 158.067 48.7065 157.561 48.7822C157.056 48.8579 156.54 48.8333 156.044 48.7097C155.548 48.5862 155.081 48.3661 154.67 48.0621C154.259 47.7581 153.912 47.3762 153.648 46.938C150.94 42.4248 147.11 38.6896 142.53 36.0964C137.95 33.5031 132.777 32.1401 127.514 32.1401C122.251 32.1401 117.077 33.5031 112.497 36.0964C107.917 38.6896 104.087 42.4248 101.379 46.938C101.033 47.5141 100.543 47.9908 99.9577 48.3215C99.3724 48.6521 98.7115 48.8266 98.0392 48.826Z" fill="#00524C"/>
</g>
</g>
<g opacity="0.75">
<mask id="mask7_246_1073" style="mask-type:luminance" maskUnits="userSpaceOnUse" x="122" y="58" width="11" height="12">
<path d="M132.911 58.46H122.115V69.256H132.911V58.46Z" fill="white"/>
</mask>
<g mask="url(#mask7_246_1073)">
<path d="M127.513 58.46C128.581 58.46 129.625 58.7767 130.513 59.3701C131.401 59.9634 132.094 60.8068 132.502 61.7935C132.911 62.7802 133.018 63.866 132.81 64.9135C132.601 65.961 132.087 66.9232 131.332 67.6784C130.576 68.4336 129.614 68.9479 128.567 69.1562C127.519 69.3646 126.434 69.2577 125.447 68.8489C124.46 68.4402 123.617 67.7481 123.023 66.8601C122.43 65.972 122.113 64.928 122.113 63.86C122.113 63.1509 122.253 62.4487 122.524 61.7935C122.796 61.1383 123.193 60.5431 123.695 60.0416C124.196 59.5402 124.792 59.1424 125.447 58.871C126.102 58.5997 126.804 58.46 127.513 58.46Z" fill="#00524C"/>
</g>
</g>
<path d="M127.513 63.858L129.113 58.7C127.764 58.315 126.318 58.4699 125.082 59.1319C123.845 59.7939 122.915 60.911 122.487 62.2468C122.06 63.5826 122.169 65.0324 122.791 66.2892C123.414 67.5461 124.501 68.5115 125.823 68.981L127.517 63.858H127.513Z" fill="#00524C"/>
<path d="M130.014 55.771L132.322 48.309C130.771 47.7922 129.147 47.5298 127.512 47.532C124.907 47.5232 122.345 48.1943 120.079 49.4789C117.812 50.7636 115.921 52.6173 114.59 54.857C114.058 55.7419 113.899 56.802 114.149 57.804C114.398 58.806 115.035 59.6678 115.92 60.2C116.805 60.7322 117.865 60.891 118.867 60.6416C119.869 60.3922 120.731 59.7549 121.263 58.87C122.128 57.4104 123.478 56.3007 125.077 55.7342C126.676 55.1677 128.423 55.1813 130.014 55.771Z" fill="#00524C"/>
<path d="M133.349 44.992L135.64 37.584C133.017 36.7213 130.274 36.2798 127.513 36.276C122.968 36.2916 118.504 37.4755 114.549 39.7141C110.595 41.9527 107.282 45.1707 104.93 49.059C104.398 49.9439 104.239 51.0039 104.488 52.0058C104.738 53.0077 105.375 53.8695 106.26 54.4015C107.145 54.9335 108.205 55.0922 109.207 54.8427C110.209 54.5932 111.071 53.9559 111.603 53.071C113.241 50.3147 115.571 48.0338 118.361 46.4538C121.152 44.8738 124.306 44.0494 127.513 44.062C129.495 44.0603 131.465 44.3748 133.349 44.992Z" fill="#00524C"/>
<path d="M136.873 33.6L139.16 26.207C135.398 24.9864 131.468 24.3615 127.513 24.355C120.911 24.3768 114.426 26.0963 108.681 29.3485C102.935 32.6006 98.1228 37.2759 94.7062 42.925C94.4304 43.3584 94.2432 43.842 94.1552 44.3481C94.0672 44.8542 94.0802 45.3727 94.1935 45.8737C94.3067 46.3747 94.518 46.8484 94.8151 47.2674C95.1122 47.6865 95.4893 48.0426 95.9246 48.3152C96.3599 48.5879 96.8449 48.7717 97.3516 48.8562C97.8583 48.9406 98.3766 48.924 98.8769 48.8072C99.3771 48.6904 99.8492 48.4758 100.266 48.1758C100.683 47.8758 101.037 47.4962 101.306 47.059C101.331 47.019 101.355 46.979 101.379 46.938C104.071 42.4101 107.897 38.6631 112.481 36.0674C117.064 33.4717 122.246 32.1173 127.513 32.138C130.69 32.137 133.847 32.6289 136.873 33.596V33.6Z" fill="#00524C"/>
<path d="M123.611 110.131L108.582 105.731C108.305 105.65 108.054 105.497 107.854 105.287C107.654 105.078 107.513 104.82 107.445 104.539C107.377 104.258 107.384 103.964 107.465 103.686C107.546 103.409 107.699 103.158 107.908 102.958L119.236 92.14L130.565 81.326C130.774 81.1266 131.032 80.9856 131.313 80.9173C131.594 80.849 131.887 80.8556 132.165 80.9367C132.442 81.0177 132.693 81.1703 132.893 81.379C133.093 81.5878 133.234 81.8454 133.303 82.126L137 97.344L140.7 112.562C140.769 112.843 140.762 113.137 140.681 113.415C140.599 113.692 140.446 113.943 140.237 114.143C140.028 114.343 139.77 114.484 139.489 114.552C139.208 114.62 138.914 114.613 138.636 114.532L123.607 110.132L123.611 110.131Z" fill="#011721"/>
<path opacity="0.8" d="M123.611 110.131L108.582 105.731C108.305 105.65 108.054 105.497 107.854 105.287C107.654 105.078 107.513 104.82 107.445 104.539C107.377 104.258 107.384 103.964 107.465 103.686C107.546 103.409 107.699 103.158 107.908 102.958L119.236 92.14L130.565 81.326C130.774 81.1266 131.032 80.9856 131.313 80.9173C131.594 80.849 131.887 80.8556 132.165 80.9367C132.442 81.0177 132.693 81.1703 132.893 81.379C133.093 81.5878 133.234 81.8454 133.303 82.126L137 97.344L140.7 112.562C140.769 112.843 140.762 113.137 140.681 113.415C140.599 113.692 140.446 113.943 140.237 114.143C140.028 114.343 139.77 114.484 139.489 114.552C139.208 114.62 138.914 114.613 138.636 114.532L123.607 110.132L123.611 110.131Z" fill="#FF6902"/>
<path d="M124.032 108.695L109.838 104.535C109.743 104.507 109.656 104.454 109.587 104.382C109.518 104.31 109.469 104.221 109.446 104.124C109.422 104.027 109.425 103.926 109.453 103.83C109.481 103.735 109.533 103.648 109.605 103.579L120.305 93.367L131 83.155C131.073 83.0862 131.162 83.0376 131.258 83.014C131.355 82.9905 131.457 82.9929 131.552 83.021C131.648 83.0491 131.735 83.1018 131.803 83.174C131.872 83.2461 131.921 83.3351 131.944 83.432L135.441 97.8L138.935 112.172C138.959 112.269 138.957 112.37 138.928 112.466C138.9 112.562 138.848 112.648 138.775 112.717C138.703 112.786 138.614 112.834 138.517 112.858C138.42 112.882 138.319 112.879 138.223 112.851L124.029 108.691L124.032 108.695Z" fill="#FF6902"/>
<path d="M127.399 101.28L125.199 100.635L127.313 91.029L130.806 92.053L127.399 101.28Z" fill="white"/>
<path d="M124.299 102.1C124.553 101.846 124.878 101.672 125.231 101.602C125.584 101.532 125.95 101.568 126.282 101.706C126.615 101.843 126.899 102.077 127.099 102.376C127.299 102.675 127.406 103.027 127.406 103.387C127.406 103.747 127.299 104.099 127.099 104.398C126.899 104.697 126.615 104.931 126.282 105.068C125.95 105.206 125.584 105.242 125.231 105.172C124.878 105.102 124.553 104.929 124.299 104.674C124.13 104.505 123.996 104.304 123.904 104.084C123.813 103.863 123.766 103.626 123.766 103.387C123.766 103.148 123.813 102.911 123.904 102.69C123.996 102.47 124.13 102.269 124.299 102.1Z" fill="white"/>
<path d="M67.7891 198.623H118.415V200.433C118.414 204.009 116.992 207.439 114.464 209.968C111.935 212.496 108.505 213.918 104.929 213.919H81.2751C77.6988 213.918 74.2693 212.496 71.7405 209.968C69.2117 207.439 67.7904 204.009 67.7891 200.433V198.623Z" fill="#00524C"/>
<path d="M83.0864 209.939H103.123C106.487 209.938 109.756 208.83 112.425 206.784C115.095 204.739 117.016 201.871 117.892 198.624H68.3164C69.192 201.872 71.1134 204.74 73.7833 206.786C76.4532 208.832 79.7229 209.94 83.0864 209.941" fill="black"/>
<g opacity="0.75">
<mask id="mask8_246_1073" style="mask-type:luminance" maskUnits="userSpaceOnUse" x="68" y="198" width="50" height="12">
<path d="M117.893 198.622H68.3164V209.939H117.893V198.622Z" fill="white"/>
</mask>
<g mask="url(#mask8_246_1073)">
<path d="M83.0864 209.939H103.123C106.487 209.938 109.756 208.83 112.425 206.784C115.095 204.739 117.016 201.871 117.892 198.624H68.3164C69.192 201.872 71.1134 204.74 73.7833 206.786C76.4532 208.832 79.7229 209.94 83.0864 209.941" fill="#00524C"/>
</g>
</g>
<path d="M88.4867 194.644C88.4867 194.644 76.8997 169.812 99.8867 153.35C99.8867 153.35 116.166 166.225 96.5757 194.644H88.4867Z" fill="black"/>
<g opacity="0.75">
<mask id="mask9_246_1073" style="mask-type:luminance" maskUnits="userSpaceOnUse" x="85" y="153" width="22" height="42">
<path d="M106.233 153.35H85.5664V194.644H106.233V153.35Z" fill="white"/>
</mask>
<g mask="url(#mask9_246_1073)">
<path d="M88.4867 194.644C88.4867 194.644 76.8997 169.812 99.8867 153.35C99.8867 153.35 116.166 166.225 96.5757 194.644H88.4867Z" fill="#00524C"/>
</g>
</g>
<path d="M99.8915 153.349C99.8915 153.349 104.178 184.315 91.8555 194.643H96.5805C116.169 166.224 99.8915 153.349 99.8915 153.349Z" fill="#00524C"/>
<path d="M105.923 173.3C105.923 173.3 92.6537 173.21 88.5137 186.1L91.8597 189.545L105.923 173.3Z" fill="#00524C"/>
<path d="M86.7996 198.623C86.7996 198.623 86.1556 164.778 121.1 175.079C121.1 175.079 117.973 190.346 96.8196 198.623H86.7996Z" fill="black"/>
<g opacity="0.75">
<mask id="mask10_246_1073" style="mask-type:luminance" maskUnits="userSpaceOnUse" x="86" y="173" width="36" height="26">
<path d="M121.098 173.128H86.7969V198.623H121.098V173.128Z" fill="white"/>
</mask>
<g mask="url(#mask10_246_1073)">
<path d="M86.7996 198.623C86.7996 198.623 86.1556 164.778 121.1 175.079C121.1 175.079 117.973 190.346 96.8196 198.623H86.7996Z" fill="#00524C"/>
</g>
</g>
<path d="M121.1 175.078C121.1 175.078 102.613 176.546 91.4844 198.622H96.8204C117.973 190.345 121.1 175.078 121.1 175.078Z" fill="#00524C"/>
<path d="M85.9235 185.193L85.8715 184.806C85.8715 184.806 98.0205 186.839 97.9775 198.156L97.2105 198.404L92.7235 197.019L85.5625 187.306L85.9215 185.192L85.9235 185.193Z" fill="#00524C"/>
<path d="M97.1904 198.623C97.1904 198.623 99.5814 183.172 72.8184 183.816C72.9752 186.816 73.8612 189.732 75.3997 192.313C76.9382 194.893 79.0827 197.059 81.6474 198.623H97.1904Z" fill="black"/>
<g opacity="0.75">
<mask id="mask11_246_1073" style="mask-type:luminance" maskUnits="userSpaceOnUse" x="72" y="183" width="26" height="16">
<path d="M97.2454 183.796H72.8184V198.623H97.2454V183.796Z" fill="white"/>
</mask>
<g mask="url(#mask11_246_1073)">
<path d="M97.1904 198.623C97.1904 198.623 99.5814 183.172 72.8184 183.816C72.9752 186.816 73.8612 189.732 75.3997 192.313C76.9382 194.893 79.0827 197.059 81.6474 198.623H97.1904Z" fill="#00524C"/>
</g>
</g>
<path d="M72.8184 183.815C72.9752 186.815 73.8612 189.731 75.3997 192.312C76.9382 194.892 79.0827 197.058 81.6474 198.622H87.9004C79.0714 193.79 72.8224 183.815 72.8224 183.815H72.8184Z" fill="#00524C"/>
<path d="M95.5801 191.854C95.5681 191.855 95.5562 191.852 95.5458 191.846C95.5354 191.84 95.527 191.831 95.5217 191.821C95.5165 191.81 95.5145 191.798 95.5162 191.786C95.5179 191.774 95.523 191.763 95.531 191.754C95.606 191.654 103.131 181.388 111.731 177.874C111.746 177.869 111.761 177.87 111.775 177.876C111.789 177.883 111.8 177.894 111.806 177.908C111.811 177.923 111.812 177.938 111.806 177.953C111.801 177.967 111.79 177.978 111.776 177.985C103.211 181.485 95.703 191.721 95.628 191.825C95.6225 191.833 95.6151 191.839 95.6066 191.843C95.5981 191.848 95.5886 191.85 95.5791 191.85L95.5801 191.854Z" fill="#00524C"/>
<path d="M100.115 174.81H100.108C100.092 174.808 100.078 174.8 100.068 174.788C100.058 174.776 100.053 174.76 100.055 174.744C100.469 170.864 100.626 166.96 100.524 163.059C100.524 163.043 100.53 163.028 100.542 163.017C100.553 163.005 100.568 162.999 100.584 162.999C100.6 162.999 100.615 163.005 100.626 163.017C100.638 163.028 100.644 163.043 100.644 163.059C100.746 166.965 100.589 170.874 100.174 174.759C100.173 174.774 100.166 174.788 100.154 174.798C100.143 174.808 100.129 174.813 100.114 174.813L100.115 174.81Z" fill="#00524C"/>
<path d="M87.8992 198.682C87.8891 198.682 87.8791 198.68 87.8702 198.675C85.4933 197.375 83.2941 195.774 81.3272 193.911C81.3217 193.905 81.3174 193.899 81.3146 193.891C81.3118 193.884 81.3104 193.876 81.3106 193.868C81.3107 193.86 81.3125 193.852 81.3157 193.845C81.3189 193.838 81.3235 193.831 81.3292 193.826C81.3349 193.821 81.3416 193.816 81.349 193.813C81.3563 193.811 81.3642 193.809 81.3721 193.809C81.38 193.81 81.3878 193.811 81.395 193.815C81.4022 193.818 81.4087 193.822 81.4142 193.828C83.3723 195.682 85.5614 197.275 87.9272 198.568C87.9391 198.574 87.9485 198.584 87.9539 198.597C87.9594 198.609 87.9605 198.623 87.9572 198.636C87.9538 198.649 87.9462 198.661 87.9355 198.669C87.9248 198.677 87.9116 198.681 87.8982 198.681L87.8992 198.682Z" fill="#00524C"/>
<path d="M83.7751 83.066L81.1621 82.555L82.1621 74.77L84.8251 74.35L83.7751 83.066Z" fill="#05293C"/>
<path d="M84.8224 74.349L85.1564 74.455L84.0624 83.065H83.7734L84.8224 74.349Z" fill="#011721"/>
<path d="M82.3233 74.958L84.5313 74.669L83.5943 82.747L81.4453 82.425L82.3233 74.958Z" fill="#00524C"/>
<path d="M57.6228 127.046L66.0228 163.405L53.5078 206.839C53.3583 207.32 53.0426 207.732 52.6171 208.001C52.1916 208.27 51.6841 208.379 51.1856 208.309C50.6871 208.238 50.23 207.992 49.8962 207.615C49.5624 207.238 49.3737 206.754 49.3638 206.251L48.4238 160.337L57.6228 127.046Z" fill="#011721"/>
<path d="M61.9534 164.028L54.0154 198.781L51.4824 208.326C51.9374 208.339 52.3837 208.2 52.7505 207.931C53.1174 207.661 53.3837 207.277 53.5074 206.839L66.0234 163.4L57.6234 127.041L61.9534 164.028Z" fill="#05293C"/>
<path d="M49.1856 197.63L49.3616 206.252C49.3714 206.755 49.5601 207.239 49.8939 207.616C50.2277 207.993 50.6848 208.239 51.1834 208.31C51.6819 208.38 52.1893 208.271 52.6148 208.002C53.0403 207.733 53.3561 207.321 53.5056 206.84L55.8836 198.588C55.8836 198.588 54.0396 199.457 49.1836 197.631L49.1856 197.63Z" fill="#D39266"/>
<path d="M56.9752 87.769C56.9752 87.769 69.1812 82.369 72.1652 75.497C65.7178 71.3491 58.2312 69.1038 50.5652 69.019C50.3186 69.0261 50.0809 69.1126 49.8874 69.2658C49.694 69.4189 49.5552 69.6304 49.4917 69.8688C49.4282 70.1072 49.4434 70.3597 49.535 70.5888C49.6266 70.8178 49.7898 71.0112 50.0002 71.14C52.7412 72.84 57.0732 74.619 63.1072 76.831L50.1482 81.093L56.9752 87.769Z" fill="black"/>
<g opacity="0.75">
<mask id="mask12_246_1073" style="mask-type:luminance" maskUnits="userSpaceOnUse" x="49" y="69" width="24" height="19">
<path d="M72.1651 69.019H49.4551V87.769H72.1651V69.019Z" fill="white"/>
</mask>
<g mask="url(#mask12_246_1073)">
<path d="M56.9752 87.769C56.9752 87.769 69.1812 82.369 72.1652 75.497C65.7178 71.3491 58.2312 69.1038 50.5652 69.019C50.3186 69.0261 50.0809 69.1126 49.8874 69.2658C49.694 69.4189 49.5552 69.6304 49.4917 69.8688C49.4282 70.1072 49.4434 70.3597 49.535 70.5888C49.6266 70.8178 49.7898 71.0112 50.0002 71.14C52.7412 72.84 57.0732 74.619 63.1072 76.831L50.1482 81.093L56.9752 87.769Z" fill="#00524C"/>
</g>
</g>
<path d="M49.4743 70.078C49.4535 70.2864 49.4917 70.4965 49.5848 70.6841C49.6778 70.8718 49.8218 71.0294 50.0003 71.139C52.7413 72.839 57.0733 74.618 63.1073 76.83L64.7423 76.53L64.3903 76.278C60.7253 73.496 51.6353 70.715 49.4723 70.078H49.4743Z" fill="#00524C"/>
<path d="M56.975 87.769C56.975 87.769 69.181 82.369 72.165 75.497C67.7702 79.9294 62.0502 82.8081 55.872 83.697L54.123 84.973L56.978 87.765L56.975 87.769Z" fill="#00524C"/>
<path d="M50.0003 71.14C51.4745 72.0173 53.006 72.7947 54.5843 73.467C55.1769 73.1027 55.6005 72.5179 55.762 71.8413C55.9234 71.1647 55.8095 70.4516 55.4453 69.859C55.315 69.6461 55.1547 69.4531 54.9693 69.286C53.5073 69.1091 52.036 69.0199 50.5633 69.019C50.3168 69.0265 50.0794 69.1133 49.8863 69.2666C49.6932 69.4199 49.5547 69.6314 49.4914 69.8697C49.4282 70.108 49.4435 70.3603 49.5352 70.5892C49.6269 70.8181 49.79 71.0113 50.0003 71.14Z" fill="#FFD2B3"/>
<path d="M49.4743 70.078C49.4535 70.2864 49.4917 70.4965 49.5848 70.6841C49.6778 70.8717 49.8218 71.0294 50.0003 71.139C51.4745 72.0163 53.006 72.7937 54.5843 73.466C55.052 73.1131 55.4234 72.6481 55.6643 72.114C52.9343 71.12 50.4643 70.371 49.4723 70.077L49.4743 70.078Z" fill="#D39266"/>
<path d="M52.8386 73.251L53.3386 70.144C53.3386 70.144 47.6636 70.599 44.9316 71.16C44.9316 71.16 41.2536 74.453 47.5216 81.46L51.3416 76.445L52.8416 73.245L52.8386 73.251Z" fill="#011721"/>
<path d="M51.167 81.074L51.023 79.357H53.314L55.3 76.484L52.24 72.467C52.24 72.467 51.24 75.573 48.398 75.959L47.423 74.242C47.423 74.242 46.162 75.573 47.633 77.78C47.9 78.3608 48.0293 78.9955 48.0107 79.6345C47.9922 80.2736 47.8263 80.8996 47.526 81.464L51.17 81.073L51.167 81.074Z" fill="#FFD2B3"/>
<path d="M85.8895 79.805C86.026 79.5588 86.0711 79.2722 86.0167 78.996C85.9623 78.7198 85.812 78.4717 85.5924 78.2956C85.3727 78.1196 85.0979 78.0268 84.8164 78.0338C84.535 78.0409 84.2651 78.1472 84.0545 78.334C78.3295 83.482 69.4355 91.3 67.1875 92.247L53.4605 81.882C52.7589 81.3522 51.9423 80.995 51.077 80.8394C50.2117 80.6838 49.3218 80.7341 48.4796 80.9863C47.6373 81.2385 46.8662 81.6855 46.2288 82.291C45.5914 82.8966 45.1055 83.6437 44.8105 84.472C42.3365 91.462 39.0485 104.224 37.8535 124.647C40.629 126.785 43.929 128.136 47.4068 128.558C50.8847 128.981 54.412 128.458 57.6185 127.047C57.9815 117.186 58.0795 106.981 57.7925 96.628L67.3645 99.744C67.3645 99.744 74.7335 99.813 85.8895 79.805Z" fill="#00524C"/>
<path d="M37.8526 124.646C38.8976 106.777 41.5466 94.773 43.8526 87.368C38.8526 103.434 32.2256 141.143 43.9006 213.503C43.9735 213.969 44.2085 214.394 44.5641 214.703C44.9198 215.012 45.3733 215.186 45.8446 215.193C46.3158 215.201 46.7746 215.042 47.14 214.744C47.5054 214.446 47.7539 214.029 47.8416 213.566C53.1993 185.002 56.468 156.085 57.6216 127.045C54.4151 128.456 50.8877 128.978 47.4099 128.556C43.932 128.134 40.6321 126.783 37.8566 124.645L37.8526 124.646Z" fill="#011721"/>
<path d="M85.8887 79.805C86.0261 79.5715 86.077 79.2971 86.0326 79.0299C85.9882 78.7626 85.8512 78.5195 85.6457 78.343C85.6207 78.387 78.2697 91.225 68.1117 97.75C63.7765 96.9083 59.4974 95.7999 55.2987 94.431C55.2987 94.431 57.3497 116.058 44.2207 127.9C48.6446 129.213 53.3911 128.91 57.6127 127.047C57.9757 117.186 58.0737 106.981 57.7867 96.628L67.3587 99.744C67.3587 99.744 74.7277 99.814 85.8837 79.806L85.8887 79.805Z" fill="black"/>
<g opacity="0.75">
<mask id="mask13_246_1073" style="mask-type:luminance" maskUnits="userSpaceOnUse" x="44" y="78" width="43" height="51">
<path d="M86.0497 78.343H44.2227V128.704H86.0497V78.343Z" fill="white"/>
</mask>
<g mask="url(#mask13_246_1073)">
<path d="M85.8887 79.805C86.0261 79.5715 86.077 79.2971 86.0326 79.0299C85.9882 78.7626 85.8512 78.5195 85.6457 78.343C85.6207 78.387 78.2697 91.225 68.1117 97.75C63.7765 96.9083 59.4974 95.7999 55.2987 94.431C55.2987 94.431 57.3497 116.058 44.2207 127.9C48.6446 129.213 53.3911 128.91 57.6127 127.047C57.9757 117.186 58.0737 106.981 57.7867 96.628L67.3587 99.744C67.3587 99.744 74.7277 99.814 85.8837 79.806L85.8887 79.805Z" fill="#00524C"/>
</g>
</g>
<path d="M84.0549 78.334C83.0749 79.215 81.9979 80.177 80.8809 81.168C80.8809 81.168 81.2869 83.707 83.6099 83.703C84.3519 82.494 85.1099 81.203 85.8899 79.803C86.0264 79.5568 86.0714 79.2703 86.017 78.994C85.9627 78.7178 85.8124 78.4697 85.5927 78.2937C85.3731 78.1176 85.0982 78.0248 84.8168 78.0319C84.5354 78.0389 84.2655 78.1452 84.0549 78.332V78.334Z" fill="#FFD2B3"/>
<path d="M82.3398 83.384C82.7282 83.6 83.1665 83.71 83.6108 83.703C84.3528 82.494 85.1108 81.203 85.8908 79.803C86.0282 79.5695 86.0792 79.2951 86.0348 79.0279C85.9903 78.7606 85.8534 78.5175 85.6479 78.341C85.6369 78.361 84.4358 80.458 82.3398 83.384Z" fill="#D39266"/>
<path d="M47.8393 213.567C53.197 185.003 56.4657 156.086 57.6193 127.046C55.553 127.932 53.355 128.473 51.1133 128.646V128.704C53.0283 156.026 46.6033 210.404 46.0293 215.179C46.4709 215.159 46.8922 214.988 47.2227 214.695C47.5532 214.401 47.7727 214.003 47.8443 213.567H47.8393Z" fill="#05293C"/>
<path d="M49.3369 204.984C48.275 205.459 47.1248 205.705 45.9614 205.705C44.7981 205.705 43.6478 205.459 42.5859 204.984C42.9959 207.771 43.4333 210.611 43.8979 213.503C43.9708 213.969 44.2058 214.394 44.5615 214.703C44.9172 215.012 45.3706 215.186 45.8419 215.193C46.3132 215.201 46.772 215.042 47.1374 214.744C47.5027 214.446 47.7512 214.029 47.8389 213.566C48.3059 211.106 48.8269 208.251 49.3809 205.048L49.3369 204.982V204.984Z" fill="#D39266"/>
<path d="M47.8394 213.567C48.3064 211.107 48.8274 208.252 49.3814 205.049L49.3374 204.983C48.6329 205.323 47.8782 205.547 47.1024 205.647C46.5614 210.681 46.1524 214.13 46.0254 215.18C46.467 215.16 46.8883 214.989 47.2188 214.696C47.5493 214.402 47.7688 214.004 47.8404 213.568L47.8394 213.567Z" fill="#FFD2B3"/>
<path d="M53.5065 206.839L55.8845 198.587C55.2823 198.787 54.6438 198.853 54.0135 198.781L51.4805 208.326C51.9356 208.34 52.3822 208.201 52.7493 207.931C53.1164 207.662 53.3829 207.277 53.5065 206.839Z" fill="#FFD2B3"/>
<path d="M89.511 67.829C90.4283 66.9117 91.597 66.2871 92.8693 66.034C94.1416 65.7809 95.4604 65.9108 96.6589 66.4073C97.8574 66.9037 98.8818 67.7444 99.6025 68.823C100.323 69.9017 100.708 71.1698 100.708 72.467C100.708 73.7642 100.323 75.0323 99.6025 76.111C98.8818 77.1896 97.8574 78.0303 96.6589 78.5267C95.4604 79.0231 94.1416 79.153 92.8693 78.9C91.597 78.6469 90.4283 78.0223 89.511 77.105C88.9019 76.4959 88.4188 75.7729 88.0891 74.9771C87.7595 74.1813 87.5898 73.3284 87.5898 72.467C87.5898 71.6056 87.7595 70.7527 88.0891 69.9569C88.4188 69.1611 88.9019 68.4381 89.511 67.829Z" fill="#FF6902"/>
<path d="M90.8529 75.763C90.6594 75.5683 90.5508 75.305 90.5508 75.0305C90.5508 74.756 90.6594 74.4927 90.8529 74.298L95.9779 69.173C96.0736 69.0747 96.1879 68.9965 96.3142 68.9427C96.4404 68.889 96.576 68.8608 96.7132 68.8599C96.8504 68.859 96.9864 68.8854 97.1133 68.9375C97.2402 68.9896 97.3556 69.0664 97.4526 69.1634C97.5496 69.2604 97.6263 69.3757 97.6784 69.5026C97.7305 69.6295 97.7569 69.7655 97.756 69.9027C97.7551 70.0399 97.7269 70.1755 97.6732 70.3017C97.6195 70.428 97.5412 70.5423 97.4429 70.638L92.3219 75.763C92.2255 75.8595 92.111 75.9361 91.985 75.9884C91.859 76.0407 91.7239 76.0675 91.5874 76.0675C91.451 76.0675 91.3159 76.0407 91.1898 75.9884C91.0638 75.9361 90.9493 75.8595 90.8529 75.763Z" fill="white"/>
<path d="M97.4441 75.763C97.2494 75.9565 96.9861 76.0651 96.7116 76.0651C96.4371 76.0651 96.1738 75.9565 95.9791 75.763L90.8541 70.638C90.7558 70.5423 90.6775 70.428 90.6238 70.3017C90.5701 70.1755 90.5419 70.0399 90.541 69.9027C90.5401 69.7655 90.5665 69.6295 90.6186 69.5026C90.6707 69.3757 90.7474 69.2604 90.8445 69.1634C90.9415 69.0664 91.0568 68.9896 91.1837 68.9375C91.3106 68.8854 91.4466 68.859 91.5838 68.8599C91.721 68.8608 91.8566 68.889 91.9828 68.9427C92.1091 68.9965 92.2234 69.0747 92.3191 69.173L97.4441 74.3C97.6372 74.4945 97.7456 74.7574 97.7456 75.0315C97.7456 75.3056 97.6372 75.5685 97.4441 75.763Z" fill="white"/>
<path d="M141.387 106.249C141.369 106.249 141.351 106.243 141.337 106.232C141.323 106.22 141.313 106.205 141.309 106.187L136.056 84.253C136.053 84.2428 136.052 84.2322 136.053 84.2216C136.054 84.211 136.058 84.2008 136.063 84.1915C136.068 84.1822 136.075 84.174 136.083 84.1674C136.091 84.1608 136.101 84.1559 136.111 84.153C136.122 84.1503 136.132 84.1497 136.143 84.1512C136.154 84.1527 136.164 84.1563 136.173 84.1618C136.183 84.1672 136.191 84.1745 136.197 84.1831C136.204 84.1917 136.208 84.2016 136.211 84.212L141.464 106.146C141.467 106.156 141.468 106.167 141.467 106.177C141.466 106.188 141.463 106.198 141.458 106.208C141.452 106.217 141.446 106.225 141.437 106.232C141.429 106.238 141.419 106.243 141.409 106.246H141.386L141.387 106.249Z" fill="#00524C"/>
<path d="M114.627 109.971C114.619 109.973 114.61 109.973 114.601 109.971L105.123 106.771C105.103 106.764 105.087 106.75 105.077 106.731C105.068 106.713 105.066 106.691 105.072 106.671C105.079 106.651 105.093 106.635 105.112 106.626C105.131 106.616 105.152 106.614 105.172 106.62L114.65 109.82C114.669 109.827 114.685 109.842 114.694 109.86C114.703 109.879 114.705 109.9 114.698 109.92C114.692 109.935 114.682 109.948 114.669 109.958C114.656 109.967 114.64 109.973 114.624 109.973L114.627 109.971Z" fill="#00524C"/>
<path d="M164.072 33.918C164.059 33.9181 164.046 33.9149 164.034 33.9086C164.023 33.9023 164.013 33.8931 164.005 33.882C161.341 30.3119 158.096 27.215 154.405 24.721C145.859 18.8478 135.537 16.1261 125.205 17.021C125.185 17.0239 125.165 17.0187 125.149 17.0067C125.133 16.9947 125.122 16.9769 125.119 16.957V16.946C125.119 16.9354 125.12 16.9247 125.123 16.9145C125.127 16.9044 125.132 16.895 125.139 16.8869C125.146 16.8788 125.154 16.8722 125.164 16.8674C125.173 16.8626 125.184 16.8598 125.194 16.859C135.567 15.9581 145.931 18.693 154.508 24.595C158.213 27.1001 161.469 30.2101 164.142 33.795C164.148 33.8036 164.153 33.8134 164.155 33.8237C164.157 33.8339 164.157 33.8446 164.155 33.8549C164.153 33.8653 164.149 33.8751 164.143 33.8839C164.138 33.8926 164.13 33.9002 164.121 33.906C164.108 33.9151 164.092 33.92 164.076 33.92L164.072 33.918Z" fill="#011721"/>
</g>
</g>
<defs>
<linearGradient id="paint0_linear_246_1073" x1="124.443" y1="-2.80216" x2="130.557" y2="265.187" gradientUnits="userSpaceOnUse">
<stop stop-color="#FAFFFC"/>
<stop offset="0.55" stop-color="#FAFFFF"/>
<stop offset="1" stop-color="#E3FAF8"/>
</linearGradient>
<clipPath id="clip0_246_1073">
<rect width="255" height="255" fill="white"/>
</clipPath>
</defs>
</svg>
