<svg width="339" height="222" viewBox="0 0 339 222" fill="none" xmlns="http://www.w3.org/2000/svg">
<g clip-path="url(#clip0_246_1272)">
<mask id="mask0_246_1272" style="mask-type:luminance" maskUnits="userSpaceOnUse" x="0" y="0" width="339" height="222">
<path d="M339 0H0V221.201H339V0Z" fill="white"/>
</mask>
<g mask="url(#mask0_246_1272)">
<mask id="mask1_246_1272" style="mask-type:luminance" maskUnits="userSpaceOnUse" x="0" y="0" width="339" height="222">
<path d="M338.999 0H0V221.201H338.999V0Z" fill="white"/>
</mask>
<g mask="url(#mask1_246_1272)">
<g opacity="0.59">
<mask id="mask2_246_1272" style="mask-type:luminance" maskUnits="userSpaceOnUse" x="3" y="0" width="336" height="176">
<path d="M339 0H3.58789V175.939H339V0Z" fill="white"/>
</mask>
<g mask="url(#mask2_246_1272)">
<path d="M5.75015 105.022C-10.1768 17.8 65.9762 -9.251 100.171 2.659C114.899 7.789 111.657 24.449 127.684 39.026C173.458 80.656 261.216 0.534996 310.184 36.893C334.348 54.835 346.332 99.114 334.232 126.149C297.912 207.3 19.6882 181.361 5.75015 105.022Z" fill="#F6F5FA"/>
</g>
</g>
</g>
<mask id="mask3_246_1272" style="mask-type:luminance" maskUnits="userSpaceOnUse" x="115" y="2" width="103" height="207">
<path d="M129.793 2.946C126.022 2.94573 122.404 4.44373 119.737 7.11047C117.07 9.7772 115.571 13.3943 115.57 17.166V194.182C115.57 196.05 115.938 197.899 116.653 199.625C117.367 201.351 118.415 202.919 119.736 204.239C121.057 205.56 122.625 206.608 124.35 207.323C126.076 208.037 127.925 208.405 129.793 208.405H203.28C205.148 208.405 206.998 208.038 208.724 207.323C210.449 206.608 212.017 205.561 213.338 204.24C214.659 202.919 215.706 201.351 216.421 199.625C217.135 197.9 217.503 196.05 217.502 194.182V17.166C217.501 13.3945 216.003 9.77777 213.336 7.11111C210.669 4.44446 207.052 2.94626 203.28 2.946H129.793Z" fill="white"/>
</mask>
<g mask="url(#mask3_246_1272)">
<path d="M170.032 -47.9005L13.084 98.63L163.043 259.25L319.991 112.72L170.032 -47.9005Z" fill="url(#paint0_linear_246_1272)"/>
</g>
<mask id="mask4_246_1272" style="mask-type:luminance" maskUnits="userSpaceOnUse" x="0" y="0" width="339" height="222">
<path d="M338.999 0H0V221.201H338.999V0Z" fill="white"/>
</mask>
<g mask="url(#mask4_246_1272)">
<path d="M200.934 8.501H131.134C129.854 8.50087 128.587 8.75284 127.404 9.24253C126.222 9.73221 125.148 10.45 124.243 11.3549C123.338 12.2599 122.62 13.3342 122.13 14.5166C121.641 15.699 121.389 16.9662 121.389 18.246V191.595C121.389 192.875 121.641 194.142 122.13 195.324C122.62 196.507 123.338 197.581 124.243 198.486C125.148 199.391 126.222 200.109 127.404 200.598C128.587 201.088 129.854 201.34 131.134 201.34H200.934C202.213 201.34 203.481 201.088 204.663 200.598C205.845 200.109 206.92 199.391 207.825 198.486C208.73 197.581 209.448 196.507 209.937 195.324C210.427 194.142 210.679 192.875 210.679 191.595V18.246C210.679 16.9662 210.427 15.699 209.937 14.5166C209.448 13.3342 208.73 12.2599 207.825 11.3549C206.92 10.45 205.845 9.73221 204.663 9.24253C203.481 8.75284 202.213 8.50087 200.934 8.501Z" fill="white"/>
<path d="M137.341 16.292H128.487C128.103 16.292 127.734 16.1392 127.462 15.8673C127.19 15.5954 127.037 15.2266 127.037 14.842C127.037 14.4574 127.19 14.0886 127.462 13.8167C127.734 13.5448 128.103 13.392 128.487 13.392H137.341C137.726 13.392 138.094 13.5448 138.366 13.8167C138.638 14.0886 138.791 14.4574 138.791 14.842C138.791 15.2266 138.638 15.5954 138.366 15.8673C138.094 16.1392 137.726 16.292 137.341 16.292Z" fill="#510394"/>
<path d="M195.766 16.292H195.374C194.989 16.292 194.62 16.1392 194.349 15.8673C194.077 15.5954 193.924 15.2266 193.924 14.842C193.924 14.4574 194.077 14.0886 194.349 13.8167C194.62 13.5448 194.989 13.392 195.374 13.392H195.766C196.15 13.392 196.519 13.5448 196.791 13.8167C197.063 14.0886 197.216 14.4574 197.216 14.842C197.216 15.2266 197.063 15.5954 196.791 15.8673C196.519 16.1392 196.15 16.292 195.766 16.292Z" fill="#510394"/>
<path d="M204.228 16.292H200.35C199.966 16.292 199.597 16.1392 199.325 15.8673C199.053 15.5954 198.9 15.2266 198.9 14.842C198.9 14.4574 199.053 14.0886 199.325 13.8167C199.597 13.5448 199.966 13.392 200.35 13.392H204.228C204.613 13.392 204.982 13.5448 205.254 13.8167C205.526 14.0886 205.678 14.4574 205.678 14.842C205.678 15.2266 205.526 15.5954 205.254 15.8673C204.982 16.1392 204.613 16.292 204.228 16.292Z" fill="#510394"/>
<path d="M168.994 14.842C168.994 15.3283 168.85 15.8038 168.58 16.2081C168.31 16.6125 167.926 16.9277 167.476 17.1138C167.027 17.2999 166.532 17.3486 166.055 17.2537C165.578 17.1589 165.14 16.9247 164.796 16.5808C164.452 16.2369 164.218 15.7987 164.123 15.3217C164.029 14.8447 164.077 14.3503 164.263 13.901C164.449 13.4517 164.765 13.0676 165.169 12.7974C165.573 12.5272 166.049 12.383 166.535 12.383C167.187 12.383 167.813 12.6421 168.274 13.1032C168.735 13.5644 168.994 14.1898 168.994 14.842Z" fill="#510394"/>
<g opacity="0.3">
<mask id="mask5_246_1272" style="mask-type:luminance" maskUnits="userSpaceOnUse" x="0" y="199" width="311" height="23">
<path d="M310.666 199.405H0V221.201H310.666V199.405Z" fill="white"/>
</mask>
<g mask="url(#mask5_246_1272)">
<mask id="mask6_246_1272" style="mask-type:luminance" maskUnits="userSpaceOnUse" x="0" y="199" width="311" height="23">
<path d="M15.2103 207.585C9.43829 208.26 0.060288 209.498 0.000288023 211.285C-0.053712 212.893 7.50029 214.211 10.1403 214.672C40.3653 219.947 46.9303 211.103 86.9213 214.921C107.896 216.921 104.732 220.245 123.333 221.08C148.784 222.223 187.576 215.28 219.393 215.596C232.968 215.729 233.182 216.853 251.657 217.752C258.914 218.105 309.749 220.524 310.657 216.828C310.821 216.16 309.595 214.298 287.612 209.745C287.612 209.745 182.659 188.008 15.2123 207.589" fill="white"/>
</mask>
<g mask="url(#mask6_246_1272)">
<path d="M310.817 188.001H-0.0546875V222.217H310.817V188.001Z" fill="url(#paint1_linear_246_1272)"/>
</g>
</g>
</g>
<path d="M252.086 207.686H229.072C228.701 207.685 228.343 207.548 228.067 207.301C227.79 207.054 227.614 206.714 227.572 206.345L223.943 174.414H257.215L253.587 206.345C253.545 206.714 253.369 207.054 253.093 207.301C252.816 207.548 252.457 207.685 252.086 207.686Z" fill="#00524C"/>
<path d="M257.215 174.792C257.215 175.836 249.767 176.682 240.579 176.682C231.391 176.682 223.943 175.836 223.943 174.792C223.943 173.748 231.391 172.902 240.579 172.902C249.767 172.902 257.215 173.748 257.215 174.792Z" fill="#1C2B6B"/>
<path d="M239.073 113.163C229.999 113.919 233.023 141.142 233.023 141.142C235.291 164.584 238.316 175.17 240.585 175.927C242.854 176.684 247.391 142.655 247.391 134.337C247.391 134.337 248.147 112.408 239.073 113.164" fill="#1E3286"/>
<path d="M240.204 172.143C240.15 172.143 240.097 172.132 240.048 172.111C239.999 172.089 239.955 172.057 239.92 172.017C239.884 171.977 239.858 171.93 239.842 171.878C239.826 171.827 239.821 171.773 239.828 171.72C242.812 147.096 239.109 116.163 239.072 115.854C239.063 115.756 239.093 115.659 239.154 115.582C239.216 115.506 239.305 115.457 239.402 115.445C239.5 115.433 239.598 115.459 239.676 115.518C239.755 115.578 239.807 115.665 239.822 115.762C239.86 116.072 243.574 147.097 240.578 171.811C240.567 171.903 240.523 171.987 240.454 172.049C240.385 172.11 240.296 172.143 240.204 172.143Z" fill="white"/>
<path d="M211.846 100.308C211.09 104.089 215.627 104.845 216.383 110.138C217.139 115.431 214.871 116.944 215.627 119.969C216.383 122.994 220.92 123.75 221.676 131.312C222.432 138.874 219.407 138.118 220.164 142.655C220.921 147.192 225.457 147.192 226.213 150.973C226.969 154.754 226.969 160.047 228.482 164.584C229.995 169.121 234.531 175.927 236.8 175.927C239.069 175.927 245.118 163.072 243.606 159.291C242.094 155.51 239.825 154.754 239.825 151.729C239.825 148.704 242.85 141.142 242.093 135.849C241.336 130.556 234.531 128.287 233.775 124.506C233.019 120.725 235.287 110.895 229.994 106.358C224.701 101.821 212.602 96.527 211.846 100.309" fill="#FF6902"/>
<path d="M283.683 108.626C286.357 111.3 277.633 112.407 276.877 117.7C276.121 122.993 276.121 125.262 273.096 128.287C270.071 131.312 265.534 132.068 266.29 136.605C267.046 141.142 268.558 145.679 266.29 147.948C264.022 150.217 258.728 150.217 257.216 153.998C255.704 157.779 256.46 162.316 253.435 166.098C250.41 169.88 245.873 177.441 242.092 175.929C238.311 174.417 240.58 157.029 242.092 154C243.604 150.971 245.117 148.707 245.117 146.438C245.117 144.169 244.361 140.389 245.873 136.607C247.385 132.825 255.704 131.314 256.46 129.045C257.216 126.776 257.973 114.678 262.511 111.653C267.049 108.628 279.146 104.091 283.683 108.628" fill="#40CD8A"/>
<path d="M243.267 174.624C243.2 174.624 243.134 174.606 243.076 174.573C243.018 174.539 242.971 174.49 242.938 174.432C242.905 174.374 242.888 174.308 242.889 174.241C242.89 174.174 242.908 174.108 242.943 174.051C242.973 174 246.002 168.937 246.643 166.377C246.808 165.718 247.007 164.719 247.237 163.563C248.073 159.363 249.337 153.022 251.28 151.078C254.102 148.256 258.611 139.615 261.77 128.556C265.662 114.931 278.532 110.944 278.661 110.905C278.756 110.879 278.858 110.891 278.944 110.939C279.031 110.986 279.095 111.066 279.124 111.161C279.152 111.255 279.142 111.358 279.096 111.445C279.05 111.533 278.972 111.599 278.878 111.629C278.752 111.667 266.278 115.546 262.497 128.763C259.302 139.945 254.704 148.722 251.814 151.612C250.032 153.394 248.746 159.852 247.979 163.712C247.746 164.878 247.546 165.885 247.379 166.562C246.712 169.231 243.721 174.23 243.594 174.442C243.56 174.498 243.513 174.544 243.456 174.576C243.399 174.608 243.335 174.625 243.27 174.625" fill="white"/>
<path d="M236.756 172.974C236.656 172.974 236.56 172.934 236.489 172.864C236.419 172.793 236.379 172.697 236.378 172.597C236.378 172.497 236.313 162.673 233.433 159.797C230.511 156.875 228.845 147.936 228.033 130.813C227.291 115.254 216.14 102.438 216.028 102.313C215.995 102.276 215.969 102.232 215.953 102.185C215.936 102.138 215.929 102.088 215.932 102.038C215.935 101.989 215.948 101.94 215.97 101.895C215.992 101.85 216.022 101.81 216.06 101.777C216.097 101.744 216.141 101.719 216.188 101.703C216.235 101.686 216.285 101.68 216.335 101.683C216.385 101.687 216.433 101.7 216.478 101.722C216.523 101.744 216.563 101.775 216.595 101.813C216.71 101.942 228.035 114.95 228.788 130.78C229.588 147.473 231.23 156.524 233.971 159.265C237.071 162.365 237.136 172.185 237.138 172.602C237.139 172.652 237.129 172.701 237.11 172.747C237.091 172.793 237.063 172.834 237.028 172.87C236.993 172.905 236.952 172.933 236.906 172.952C236.86 172.971 236.811 172.981 236.761 172.981L236.756 172.974Z" fill="white"/>
<path d="M126.219 64.258L120.03 62.958C119.872 62.925 119.723 62.8614 119.59 62.7708C119.458 62.6801 119.344 62.5642 119.256 62.4296C119.168 62.2951 119.108 62.1445 119.078 61.9866C119.048 61.8286 119.05 61.6663 119.083 61.509L122.208 46.6C122.241 46.4427 122.304 46.2934 122.395 46.1607C122.486 46.0279 122.601 45.9143 122.736 45.8264C122.871 45.7385 123.021 45.6779 123.179 45.6481C123.337 45.6184 123.499 45.62 123.657 45.653L129.846 46.953C130.003 46.986 130.152 47.0496 130.285 47.1402C130.418 47.2309 130.531 47.3468 130.619 47.4814C130.707 47.6159 130.768 47.7665 130.797 47.9244C130.827 48.0824 130.826 48.2447 130.793 48.402L127.668 63.311C127.635 63.4684 127.571 63.6178 127.481 63.7506C127.39 63.8834 127.274 63.997 127.14 64.085C127.005 64.1729 126.854 64.2335 126.696 64.2632C126.538 64.2929 126.376 64.2911 126.219 64.258Z" fill="white"/>
<path d="M126.47 64.638C126.361 64.6378 126.252 64.6264 126.146 64.604L119.956 63.304C119.753 63.2615 119.56 63.1795 119.389 63.0626C119.218 62.9458 119.072 62.7963 118.958 62.6229C118.845 62.4494 118.767 62.2553 118.728 62.0517C118.69 61.848 118.692 61.6388 118.735 61.436L121.859 46.53C121.901 46.3272 121.983 46.1347 122.1 45.9636C122.217 45.7924 122.366 45.646 122.54 45.5326C122.713 45.4192 122.907 45.3411 123.111 45.3028C123.315 45.2644 123.524 45.2665 123.727 45.309L129.916 46.609C130.119 46.6512 130.312 46.7332 130.483 46.8501C130.655 46.967 130.802 47.1166 130.915 47.2903C131.029 47.464 131.107 47.6584 131.145 47.8624C131.184 48.0663 131.181 48.2759 131.139 48.479L128.014 63.379C127.94 63.7335 127.746 64.0518 127.464 64.2801C127.183 64.5085 126.832 64.6331 126.47 64.633M126.291 63.906C126.403 63.9296 126.518 63.9309 126.63 63.9098C126.743 63.8887 126.85 63.8457 126.945 63.7832C127.041 63.7207 127.123 63.6399 127.188 63.5455C127.252 63.4511 127.297 63.3449 127.321 63.233L130.446 48.324C130.469 48.2122 130.471 48.0968 130.449 47.9845C130.428 47.8721 130.385 47.7651 130.323 47.6694C130.26 47.5737 130.18 47.4913 130.085 47.4269C129.991 47.3625 129.885 47.3173 129.773 47.294L123.584 45.994C123.472 45.9706 123.357 45.9694 123.244 45.9905C123.132 46.0116 123.025 46.0547 122.929 46.1172C122.834 46.1797 122.751 46.2604 122.687 46.3547C122.622 46.4491 122.577 46.5552 122.554 46.667L119.429 61.579C119.405 61.6908 119.404 61.8062 119.425 61.9185C119.446 62.0309 119.489 62.1379 119.552 62.2336C119.614 62.3293 119.695 62.4117 119.789 62.4761C119.884 62.5405 119.99 62.5857 120.102 62.609L126.291 63.906Z" fill="#510394"/>
<path d="M117.445 69.957C117.445 69.957 119.821 64.857 119.963 62.431C120.105 60.005 122.012 54.701 122.012 54.701V59.773C122.656 60.8994 123.027 62.1613 123.093 63.457L126.574 64.187C126.574 64.187 122.952 71.128 122.326 73.637L117.445 69.957Z" fill="white"/>
<path d="M122.328 73.988C122.251 73.9881 122.176 73.9632 122.115 73.917L117.233 70.241C117.168 70.1921 117.122 70.1226 117.102 70.044C117.083 69.9655 117.091 69.8825 117.125 69.809C117.149 69.759 119.474 64.741 119.61 62.409C119.753 59.962 121.6 54.799 121.679 54.58C121.707 54.5016 121.762 54.4358 121.834 54.3939C121.906 54.3521 121.99 54.3371 122.072 54.3514C122.155 54.3657 122.229 54.4085 122.283 54.4723C122.336 54.5361 122.366 54.6167 122.366 54.7V59.678C122.965 60.7532 123.336 61.9407 123.456 63.166L126.647 63.835C126.7 63.8463 126.75 63.8697 126.793 63.9036C126.836 63.9374 126.87 63.9808 126.894 64.0302C126.917 64.0796 126.929 64.1337 126.928 64.1883C126.926 64.2429 126.913 64.2966 126.888 64.345C126.852 64.414 123.278 71.277 122.67 73.717C122.65 73.7937 122.606 73.8617 122.544 73.9103C122.481 73.9588 122.405 73.9851 122.326 73.985M117.885 69.843L122.128 73.043C123.259 70.098 124.567 67.2238 126.045 64.436L123.019 63.802C122.934 63.7843 122.859 63.7362 122.807 63.667C122.756 63.5978 122.731 63.512 122.739 63.426C122.665 62.2014 122.31 61.0101 121.702 59.945C121.672 59.8918 121.656 59.8319 121.657 59.771V56.871C121.025 58.6827 120.575 60.553 120.316 62.454C120.189 64.627 118.378 68.759 117.885 69.847" fill="#510394"/>
<path d="M86.0814 203.366C85.8634 203.966 88.0454 213.966 90.9814 213.895C93.9174 213.824 95.2254 205.084 94.7944 203.148C94.4474 201.588 86.3024 202.761 86.0854 203.366" fill="#00524C"/>
<path d="M40.6843 205.658C40.6843 205.658 38.0393 210.409 37.3103 212.19C36.5813 213.971 44.2743 211.11 45.5163 210.975C46.7583 210.84 51.0503 205.118 51.1583 204.443C51.2663 203.768 51.9413 203.903 51.9413 204.143L51.7093 210.873C51.7104 210.929 51.7323 210.984 51.7707 211.025C51.8091 211.066 51.8614 211.092 51.9176 211.097C51.9739 211.103 52.0301 211.087 52.0756 211.054C52.1211 211.02 52.1527 210.971 52.1643 210.916C52.5193 209.027 53.2353 204.386 53.5643 203.944C54.1313 203.174 55.0943 198.597 53.0153 196.17C50.9363 193.743 40.6893 205.654 40.6893 205.654" fill="#00524C"/>
<path d="M83.0781 160.019C83.6711 162.811 84.0968 165.635 84.3531 168.478C84.3531 170.678 83.4261 181.225 84.3531 184.47C85.2801 187.715 87.3661 194.088 87.1341 196.87C86.9021 199.652 86.0911 202.896 86.4341 203.591C86.7771 204.286 90.9531 206.372 90.9531 206.372C90.9531 206.372 94.4291 204.75 94.5451 203.359C94.6611 201.968 92.6911 197.565 92.6911 195.943C92.6911 194.321 92.6911 185.843 92.9231 181.159C93.1551 176.475 91.6481 170.797 91.6481 167.088C91.6481 163.379 92.1121 158.165 92.1121 158.165L83.0781 160.019Z" fill="white"/>
<path d="M90.9577 206.724C90.9029 206.724 90.8488 206.711 90.7997 206.687C89.7997 206.187 86.4937 204.487 86.1217 203.748C85.8737 203.248 86.0217 202.184 86.3387 200.181C86.5027 199.13 86.6887 197.939 86.7807 196.84C86.9707 194.558 85.4937 189.581 84.5167 186.287C84.3297 185.655 84.1567 185.073 84.0167 184.567C83.3027 182.067 83.6478 175.635 83.8768 171.379C83.9478 170.057 84.0037 169.013 84.0037 168.479C83.7466 165.66 83.3232 162.86 82.7357 160.091C82.7264 160.045 82.7261 159.999 82.7349 159.953C82.7437 159.907 82.7615 159.864 82.7871 159.825C82.8127 159.786 82.8458 159.753 82.8843 159.727C82.9229 159.701 82.9661 159.682 83.0117 159.673L92.0507 157.819C92.1048 157.808 92.1607 157.81 92.214 157.824C92.2673 157.838 92.3165 157.865 92.3577 157.902C92.3989 157.938 92.4309 157.984 92.4512 158.035C92.4716 158.087 92.4796 158.142 92.4747 158.197C92.4747 158.249 92.0127 163.439 92.0127 167.088C92.0838 168.982 92.2785 170.869 92.5957 172.738C93.0874 175.523 93.319 178.348 93.2877 181.176C93.0877 185.244 93.0567 192.176 93.0567 195.942C93.2284 197.173 93.539 198.381 93.9827 199.542C94.4764 200.771 94.7887 202.066 94.9097 203.385C94.7807 204.935 91.4888 206.514 91.1098 206.685C91.0628 206.707 91.0115 206.718 90.9597 206.718M83.4937 160.294C84.0716 162.993 84.4765 165.726 84.7057 168.477C84.7057 169.03 84.6487 170.083 84.5777 171.415C84.3657 175.368 84.0108 181.984 84.6918 184.371C84.8358 184.871 85.0078 185.454 85.1918 186.083C86.2438 189.627 87.6837 194.483 87.4827 196.897C87.3887 198.022 87.2007 199.226 87.0347 200.289C86.796 201.318 86.7005 202.375 86.7507 203.43C88.0433 204.448 89.4562 205.303 90.9577 205.976C92.2337 205.356 94.1237 204.157 94.1927 203.328C94.0507 202.106 93.7502 200.907 93.2987 199.762C92.8237 198.532 92.501 197.249 92.3377 195.941C92.3377 192.166 92.3677 185.223 92.5697 181.141C92.5978 178.359 92.3685 175.581 91.8847 172.841C91.5621 170.939 91.365 169.018 91.2948 167.09C91.2948 164.058 91.6067 159.982 91.7197 158.609L83.4937 160.294Z" fill="#510394"/>
<path d="M58.8198 157.042C58.8198 157.042 52.6778 169.789 51.4038 176.162C50.1298 182.535 48.1988 192.001 46.3448 195.478C44.4908 198.955 40.5508 206.371 40.5508 206.371C40.5508 206.371 47.1508 204.981 49.3578 202.315C51.5648 199.649 53.4208 198.259 53.0118 196.173C52.6028 194.087 53.9928 190.379 56.5428 185.86C59.0928 181.341 65.4658 162.452 65.8128 158.16C66.1598 153.868 58.8208 157.038 58.8208 157.038" fill="white"/>
<path d="M40.5496 206.725C40.4885 206.725 40.4285 206.709 40.3753 206.679C40.3221 206.649 40.2775 206.606 40.246 206.554C40.2145 206.501 40.1971 206.442 40.1954 206.381C40.1938 206.319 40.208 206.259 40.2366 206.205C40.2366 206.205 44.1766 198.788 46.0306 195.312C47.9196 191.77 49.9596 181.572 51.0556 176.094C52.3246 169.75 58.2486 157.411 58.4996 156.894C58.5368 156.817 58.6003 156.757 58.6786 156.723C58.8726 156.64 63.4416 154.694 65.3446 156.059C65.6627 156.308 65.907 156.638 66.0513 157.015C66.1956 157.392 66.2344 157.802 66.1636 158.199C65.8226 162.399 59.4636 181.399 56.8486 186.04C54.1946 190.74 52.9876 194.227 53.3566 196.111C53.7116 197.92 52.5647 199.211 50.9777 200.99C50.5457 201.475 50.0987 201.977 49.6287 202.547C47.3737 205.276 40.8966 206.666 40.6216 206.724C40.5977 206.729 40.5732 206.732 40.5487 206.732M59.0796 157.323C58.4526 158.637 52.9346 170.31 51.7486 176.239C50.2216 183.873 48.4426 192.298 46.6546 195.652C45.1446 198.484 42.2546 203.93 41.2286 205.852C43.0026 205.402 47.4156 204.114 49.0816 202.097C49.5606 201.517 50.0317 200.988 50.4477 200.521C51.9537 198.83 52.9477 197.713 52.6607 196.249C52.2527 194.168 53.4536 190.616 56.2306 185.694C58.8256 181.094 65.1196 162.294 65.4566 158.144C65.5141 157.869 65.4955 157.583 65.4029 157.317C65.3102 157.052 65.1469 156.817 64.9306 156.637C63.6616 155.726 60.3886 156.78 59.0786 157.324" fill="#510394"/>
<path d="M61.5549 104.864C61.1369 112.047 59.4649 138.664 56.8169 145.907C54.1689 153.15 51.3829 157.333 54.1699 159.144C56.9569 160.955 68.6609 159.283 72.9809 160.537C77.3009 161.791 85.2429 164.578 95.4149 160.537C105.587 156.496 107.398 158.145 104.472 144.78C100.723 128.587 98.1072 112.152 96.6439 95.595C94.5919 73.252 95.5038 60.256 87.7518 57.976C79.9998 55.696 74.0719 56.347 71.3359 59.898C68.5999 63.449 61.5549 104.865 61.5549 104.865" fill="#3A3E3F"/>
<path d="M81.2305 53.393C83.0135 54.187 88.4045 54.226 89.3655 55.379C90.3265 56.532 95.3865 56.788 96.9885 58.646C98.5905 60.504 108.4 78.794 108.461 79.656C108.522 80.518 115.052 68.507 116.284 67.891C117.516 67.275 123.121 70.971 123.368 73.004C123.615 75.037 116.715 93.085 110.925 92.904C105.135 92.723 99.2825 82.555 99.2825 83.233C99.2825 83.911 104.018 113.391 104.383 116.395C104.748 119.399 104.53 122.55 98.7405 122.55C92.9515 122.55 92.1455 118.45 91.1935 112.072C90.2415 105.694 84.5395 60.615 82.8155 57.95C81.84 56.6268 81.2868 55.0399 81.2285 53.397" fill="#00524C"/>
<path d="M75.3126 54.226C71.9676 54.226 70.7656 56.208 68.0926 56.686C65.1616 57.211 61.2476 57.138 58.6926 61.533C56.1376 65.928 57.4166 100.983 56.2826 104.865C55.1486 108.747 51.8826 113.851 53.7306 115.694C55.5786 117.537 58.8676 125.902 72.2496 123.776C85.6316 121.65 81.6616 110.732 81.6616 105.486C81.6616 100.24 80.8796 69.177 79.2426 64.68C77.6056 60.183 75.3096 54.226 75.3096 54.226" fill="#00524C"/>
<path d="M78.0288 52.432C70.4288 52.232 66.6778 53.374 64.0808 47.699C61.4838 42.024 65.5238 42.599 66.5808 36.445C67.6378 30.291 70.9088 28.173 76.1998 27.788C81.4908 27.403 86.4918 29.231 87.6468 31.251C88.8018 33.271 91.6368 44.46 91.1098 47.796C90.5328 51.451 84.5688 52.603 78.0278 52.433" fill="#510394"/>
<path d="M76.6157 43.646C76.6157 43.646 75.9717 51.978 75.1427 53.359C74.3137 54.74 75.3727 60.034 79.6997 59.896C80.3866 59.9474 81.074 59.8043 81.6833 59.4832C82.2926 59.1621 82.7992 58.6759 83.1451 58.0803C83.491 57.4847 83.6622 56.8038 83.6392 56.1154C83.6161 55.4271 83.3997 54.7591 83.0147 54.188C81.9147 52.669 81.8147 47.651 81.9557 46.224C82.0967 44.797 76.6157 43.646 76.6157 43.646Z" fill="white"/>
<path d="M79.5381 60.252C78.6967 60.2598 77.869 60.0386 77.1438 59.6119C76.4185 59.1852 75.823 58.5693 75.4211 57.83C74.4211 56.13 74.3121 54.051 74.8371 53.176C75.4811 52.102 76.0831 45.912 76.2601 43.618C76.264 43.5678 76.2786 43.519 76.3029 43.4748C76.3271 43.4307 76.3606 43.3922 76.4009 43.362C76.4412 43.3318 76.4875 43.3106 76.5367 43.2997C76.5859 43.2889 76.6368 43.2886 76.6861 43.299C78.0441 43.584 82.4621 44.641 82.3051 46.257C82.1651 47.699 82.2901 52.593 83.2971 53.978C83.6832 54.5874 83.9088 55.2845 83.9529 56.0046C83.997 56.7246 83.8581 57.4441 83.5491 58.096C83.1862 58.7885 82.6299 59.3606 81.9478 59.7427C81.2657 60.1247 80.4872 60.3003 79.7071 60.248H79.5351M76.9351 44.074C76.7861 45.89 76.2131 52.256 75.4451 53.537C75.2529 54.1957 75.2058 54.8883 75.3071 55.5669C75.4084 56.2456 75.6558 56.8942 76.0321 57.468C76.3836 58.1231 76.9135 58.6651 77.5603 59.0315C78.2072 59.3978 78.9446 59.5735 79.6871 59.538C80.3364 59.5822 80.9849 59.4406 81.5566 59.1296C82.1283 58.8186 82.5995 58.3511 82.9151 57.782C83.1674 57.2456 83.2821 56.6549 83.2491 56.0631C83.2161 55.4713 83.0364 54.897 82.7261 54.392C81.5421 52.764 81.4641 47.603 81.6011 46.186C81.6511 45.673 79.8011 44.725 76.9341 44.075" fill="#510394"/>
<path d="M84.4179 31.824C87.8959 31.877 87.4759 37.557 87.5709 40.042C87.5934 41.4563 88.0616 42.8274 88.9089 43.96L86.6629 44.438C86.6629 44.438 86.6029 48.868 85.6629 49.502C84.7229 50.136 77.8859 47.952 76.3979 45.912C75.5899 44.629 75.1047 43.1694 74.9839 41.658C74.9839 41.658 71.2839 39.67 72.5019 38.047C74.2789 35.678 74.3919 38.16 76.1079 38.225C80.1199 38.377 78.1149 31.725 84.4219 31.825" fill="white"/>
<path d="M85.0631 49.96C82.8291 49.96 77.4241 47.925 76.1091 46.123C75.2862 44.8465 74.7836 43.3903 74.6441 41.878C74.0441 41.532 72.2221 40.391 71.9371 39.097C71.8867 38.8795 71.8856 38.6536 71.9337 38.4356C71.9818 38.2176 72.0779 38.0131 72.2151 37.837C72.7801 37.083 73.2381 36.726 73.7011 36.678C73.93 36.6812 74.1556 36.7334 74.3626 36.8312C74.5696 36.929 74.7532 37.0701 74.9011 37.245C75.2157 37.5947 75.6469 37.8179 76.1141 37.873C77.6661 37.931 78.1751 36.83 78.8231 35.434C79.6541 33.643 80.6901 31.421 84.4231 31.47C87.8231 31.522 87.8731 36.203 87.9051 39C87.9051 39.38 87.9131 39.728 87.9251 40.029C87.9501 41.3621 88.3874 42.6547 89.1771 43.729C89.2168 43.7757 89.2438 43.8319 89.2554 43.8922C89.2669 43.9524 89.2627 44.0146 89.243 44.0728C89.2234 44.1309 89.189 44.1829 89.1433 44.2238C89.0976 44.2646 89.042 44.293 88.9821 44.306L87.0101 44.726C86.9971 45.134 86.9611 45.926 86.8671 46.772C86.6121 49.045 86.1671 49.587 85.8581 49.796C85.6133 49.9229 85.3381 49.9794 85.0631 49.959M73.8031 37.38H73.7731C73.6081 37.397 73.3021 37.563 72.7811 38.259C72.7047 38.3532 72.6511 38.4637 72.6246 38.5821C72.598 38.7004 72.5992 38.8232 72.6281 38.941C72.8441 39.918 74.5201 41.007 75.1481 41.341C75.2009 41.3693 75.2457 41.4106 75.2782 41.461C75.3108 41.5114 75.33 41.5692 75.3341 41.629C75.4522 43.0733 75.914 44.4685 76.681 45.698C78.173 47.741 84.7671 49.657 85.4631 49.198C85.9501 48.87 86.2821 46.464 86.3101 44.422C86.3113 44.3419 86.3396 44.2645 86.3904 44.2025C86.4413 44.1406 86.5117 44.0978 86.5901 44.081L88.3091 43.715C87.6317 42.6077 87.2556 41.3425 87.2181 40.045C87.2061 39.738 87.2021 39.384 87.1981 38.997C87.1591 35.562 86.9121 32.205 84.4131 32.168C81.1461 32.117 80.2921 33.95 79.4701 35.722C78.8021 37.16 78.1161 38.645 76.0921 38.571C75.461 38.5172 74.872 38.2323 74.4381 37.771C74.1621 37.528 73.9781 37.371 73.8051 37.371" fill="#510394"/>
<path d="M58.0946 113.27C57.4942 115.108 57.0536 116.994 56.7776 118.907C56.7666 119.507 57.1985 122.121 57.1985 122.121L57.8305 118.855L58.5675 124.655L59.3056 119.176L60.0115 125.462L60.2176 121.262L62.3085 124.862L61.2375 121.362L62.3085 119.124L63.4676 122.97V117.754L62.7785 113.57L58.0946 113.27Z" fill="white"/>
<path d="M60.012 125.811C59.925 125.811 59.8411 125.779 59.7761 125.721C59.7112 125.663 59.6699 125.583 59.6601 125.497L59.275 122.062L58.9201 124.698C58.9087 124.783 58.8668 124.861 58.8022 124.917C58.7377 124.974 58.6548 125.005 58.5691 125.005C58.4832 125.005 58.4003 124.973 58.3359 124.916C58.2715 124.86 58.23 124.781 58.219 124.696L57.7611 121.096L57.5491 122.196C57.5317 122.277 57.4873 122.349 57.4231 122.402C57.3589 122.454 57.2788 122.483 57.1961 122.483C57.1125 122.482 57.0322 122.451 56.9692 122.396C56.9063 122.341 56.8648 122.266 56.8521 122.183C56.8071 121.912 56.4141 119.519 56.4261 118.905C56.7046 116.942 57.1567 115.007 57.777 113.124C57.8077 113.06 57.8567 113.007 57.9179 112.971C57.979 112.936 58.0494 112.919 58.1201 112.924L62.805 113.218C62.8856 113.223 62.9619 113.256 63.0214 113.31C63.0809 113.365 63.1199 113.438 63.1321 113.518L63.8211 117.701C63.8226 117.72 63.8226 117.74 63.8211 117.759V122.975C63.8206 123.06 63.7897 123.142 63.734 123.206C63.6783 123.269 63.6015 123.311 63.5176 123.323C63.4337 123.336 63.3482 123.317 63.2767 123.272C63.2052 123.226 63.1525 123.156 63.1281 123.075L62.2281 120.105L61.611 121.394L62.6411 124.767C62.6667 124.85 62.6607 124.94 62.6244 125.019C62.5881 125.098 62.5239 125.161 62.4441 125.196C62.3643 125.23 62.2745 125.235 62.1919 125.207C62.1092 125.18 62.0395 125.123 61.9961 125.048L60.5061 122.483L60.3581 125.483C60.3538 125.572 60.3161 125.656 60.2526 125.719C60.189 125.781 60.1042 125.817 60.0151 125.82H60.0041M60.2101 120.92C60.272 120.92 60.3329 120.936 60.3866 120.967C60.4403 120.998 60.4849 121.042 60.5161 121.096L61.0651 122.041L60.8911 121.472C60.8651 121.387 60.8719 121.296 60.9101 121.216L61.9811 118.978C62.0118 118.913 62.0614 118.86 62.1234 118.824C62.1853 118.788 62.2567 118.772 62.3281 118.777C62.3995 118.783 62.4675 118.81 62.5232 118.855C62.5789 118.9 62.6196 118.96 62.6401 119.029L63.1061 120.575V117.781L62.4671 113.904L58.318 113.643C57.793 115.37 57.3936 117.132 57.1231 118.917C57.1397 119.292 57.1768 119.665 57.234 120.036L57.4751 118.79C57.4902 118.706 57.5349 118.631 57.601 118.578C57.6671 118.525 57.7501 118.497 57.835 118.499C57.9199 118.502 58.0009 118.535 58.0633 118.593C58.1257 118.651 58.1654 118.729 58.1751 118.813L58.5751 121.925L58.9521 119.125C58.9634 119.04 59.0053 118.962 59.0699 118.906C59.1344 118.849 59.2173 118.818 59.303 118.818C59.3895 118.819 59.4727 118.852 59.5368 118.91C59.6009 118.968 59.6415 119.047 59.6511 119.133L59.8771 121.145C59.8964 121.089 59.9295 121.039 59.9732 121C60.0168 120.96 60.0697 120.932 60.1271 120.918C60.1546 120.911 60.1828 120.908 60.2111 120.908" fill="#510394"/>
<path d="M60.2196 121.615C60.167 121.615 60.115 121.603 60.0675 121.581C60.0199 121.558 59.978 121.525 59.9448 121.485C59.9115 121.444 59.8878 121.396 59.8753 121.345C59.8629 121.294 59.8619 121.241 59.8726 121.189L60.3016 119.108C60.311 119.062 60.3293 119.019 60.3554 118.981C60.3815 118.942 60.415 118.909 60.4538 118.884C60.4927 118.858 60.5362 118.84 60.5819 118.832C60.6276 118.823 60.6746 118.823 60.7201 118.832C60.7657 118.842 60.809 118.86 60.8475 118.886C60.886 118.912 60.919 118.946 60.9446 118.985C60.9701 119.024 60.9878 119.067 60.9966 119.113C61.0053 119.158 61.005 119.205 60.9956 119.251L60.5676 121.332C60.5513 121.412 60.5078 121.484 60.4446 121.535C60.3813 121.587 60.3022 121.615 60.2206 121.615" fill="#510394"/>
<path d="M63.6623 113.939C63.1383 113.939 62.7883 113.921 62.7623 113.919L58.0743 113.624C58.0325 113.621 57.9915 113.611 57.9533 113.594L56.6363 113.01C56.5773 112.984 56.5265 112.942 56.4895 112.889C56.4525 112.836 56.4306 112.774 56.4263 112.71L55.9343 104.888C55.9314 104.842 55.9376 104.795 55.9526 104.751C55.9676 104.707 55.9912 104.666 56.0219 104.631C56.0527 104.597 56.09 104.568 56.1317 104.548C56.1735 104.527 56.2189 104.515 56.2653 104.512C56.3117 104.509 56.3583 104.515 56.4023 104.53C56.4463 104.545 56.4869 104.569 56.5219 104.6C56.5568 104.63 56.5853 104.668 56.6058 104.709C56.6263 104.751 56.6384 104.797 56.6413 104.843L57.1203 112.451L58.1833 112.922L62.8043 113.212C64.7373 113.312 68.0043 113.096 68.5163 112.064C68.8793 111.237 68.5013 101.146 68.1683 92.243C67.7913 82.188 67.4353 72.69 67.8163 70.978C67.8387 70.8886 67.8951 70.8114 67.9735 70.7629C68.052 70.7144 68.1462 70.6984 68.2362 70.7183C68.3263 70.7383 68.405 70.7925 68.4556 70.8696C68.5062 70.9467 68.5248 71.0405 68.5073 71.131C68.1463 72.754 68.5173 82.648 68.8763 92.216C69.3243 104.162 69.5763 111.528 69.1513 112.38C68.7513 113.171 67.5393 113.667 65.5373 113.856C64.8373 113.921 64.1723 113.938 63.6663 113.938" fill="#510394"/>
<path d="M129.063 56.645L130.942 57.445L129.092 58.045L130.358 59.081L128.832 58.881L129.897 60.32L128.277 60.411L129.063 56.645Z" fill="white"/>
<path d="M128.278 60.77C128.226 60.7701 128.174 60.7584 128.126 60.7358C128.079 60.7133 128.037 60.6804 128.003 60.6396C127.97 60.5988 127.946 60.5511 127.934 60.4999C127.921 60.4488 127.921 60.3955 127.931 60.344L128.716 56.573C128.727 56.5216 128.749 56.4732 128.78 56.4313C128.812 56.3894 128.852 56.355 128.899 56.3307C128.946 56.3064 128.997 56.2927 129.049 56.2907C129.102 56.2887 129.154 56.2984 129.202 56.319L131.081 57.119C131.147 57.1473 131.203 57.1951 131.242 57.256C131.28 57.3169 131.299 57.3881 131.296 57.46C131.293 57.532 131.268 57.6012 131.224 57.6586C131.181 57.7159 131.121 57.7586 131.052 57.781L129.817 58.181L130.583 58.807C130.643 58.8558 130.685 58.9227 130.703 58.9976C130.721 59.0725 130.715 59.1513 130.684 59.222C130.653 59.2927 130.601 59.3515 130.533 59.3894C130.466 59.4273 130.389 59.4422 130.312 59.432L129.612 59.34L130.181 60.108C130.219 60.1594 130.243 60.22 130.249 60.2836C130.255 60.3472 130.244 60.4113 130.217 60.4691C130.19 60.5269 130.148 60.5763 130.095 60.612C130.042 60.6477 129.98 60.6685 129.916 60.672L128.296 60.763H128.276M128.832 59.476L128.717 60.03L129.217 60.002L128.832 59.476ZM129.025 58.548L129.169 58.567L129.043 58.467L129.025 58.548ZM129.319 57.134L129.219 57.634L129.938 57.4L129.319 57.134Z" fill="#510394"/>
<path d="M127.651 48.813C127.624 48.813 127.597 48.81 127.571 48.804L124.794 48.162C124.748 48.1515 124.706 48.1322 124.668 48.1051C124.63 48.0781 124.598 48.0438 124.573 48.0044C124.523 47.9247 124.507 47.8285 124.529 47.737C124.55 47.6455 124.607 47.5662 124.686 47.5165C124.766 47.4668 124.862 47.4508 124.954 47.472L127.731 48.114C127.816 48.1325 127.892 48.1822 127.943 48.2535C127.995 48.3248 128.018 48.4125 128.008 48.4997C127.998 48.5869 127.956 48.6674 127.89 48.7254C127.824 48.7835 127.739 48.8151 127.652 48.814" fill="#510394"/>
<path d="M79.3727 88.774C79.2991 88.7741 79.2272 88.7512 79.1672 88.7086C79.1071 88.6659 79.0619 88.6056 79.0377 88.536L68.6777 58.71C68.6625 58.6661 68.6561 58.6196 68.6588 58.5732C68.6616 58.5268 68.6734 58.4813 68.6937 58.4395C68.714 58.3977 68.7423 58.3602 68.777 58.3294C68.8118 58.2985 68.8523 58.2747 68.8962 58.2595C68.9402 58.2443 68.9867 58.2378 69.0331 58.2406C69.0795 58.2433 69.1249 58.2552 69.1668 58.2755C69.2086 58.2957 69.246 58.3241 69.2769 58.3588C69.3078 58.3936 69.3315 58.4341 69.3467 58.478L79.7107 88.304C79.7292 88.3573 79.7347 88.4143 79.7267 88.4701C79.7187 88.526 79.6975 88.5791 79.6648 88.6251C79.6321 88.6711 79.589 88.7086 79.5389 88.7345C79.4887 88.7604 79.4332 88.7739 79.3767 88.774" fill="#510394"/>
<path d="M88.9108 87.335H88.9018C88.8553 87.3338 88.8095 87.3235 88.767 87.3046C88.7245 87.2858 88.6861 87.2587 88.654 87.225C88.622 87.1913 88.5969 87.1516 88.5802 87.1082C88.5635 87.0648 88.5556 87.0185 88.5568 86.972L89.3198 57.629C89.3241 57.5358 89.3643 57.4479 89.432 57.3836C89.4996 57.3193 89.5895 57.2836 89.6828 57.284C89.7293 57.2852 89.7751 57.2955 89.8176 57.3144C89.8601 57.3332 89.8984 57.3603 89.9305 57.394C89.9625 57.4277 89.9876 57.4674 90.0043 57.5108C90.021 57.5542 90.029 57.6005 90.0278 57.647L89.2608 86.993C89.2584 87.0853 89.2201 87.1731 89.154 87.2375C89.0878 87.302 88.9991 87.338 88.9068 87.338" fill="#510394"/>
<path d="M93.2753 99.009C93.1896 99.0041 93.1085 98.9682 93.0473 98.908C92.986 98.8478 92.9487 98.7674 92.9424 98.6818C92.936 98.5961 92.961 98.5111 93.0127 98.4425C93.0644 98.3739 93.1392 98.3265 93.2233 98.309L99.1413 97.429C99.2317 97.4207 99.3219 97.4474 99.3931 97.5037C99.4644 97.56 99.5113 97.6415 99.5241 97.7314C99.537 97.8213 99.5148 97.9127 99.4621 97.9867C99.4095 98.0607 99.3304 98.1116 99.2413 98.129L93.3243 99.009C93.3066 99.0103 93.2889 99.0103 93.2713 99.009" fill="#510394"/>
<path d="M76.9633 99.329C76.9479 99.33 76.9325 99.33 76.9172 99.329L71.0802 98.569C70.993 98.5507 70.9158 98.5002 70.8642 98.4275C70.8126 98.3548 70.7903 98.2653 70.8018 98.1769C70.8133 98.0884 70.8577 98.0077 70.9262 97.9506C70.9947 97.8935 71.0822 97.8644 71.1712 97.869L77.0082 98.629C77.0973 98.6406 77.1786 98.6858 77.2357 98.7551C77.2927 98.8245 77.3213 98.9129 77.3155 99.0025C77.3098 99.0922 77.2702 99.1763 77.2048 99.2378C77.1394 99.2994 77.0531 99.3338 76.9633 99.334" fill="#510394"/>
<path d="M187.807 94.716C186.446 93.041 190.722 86.423 191.074 85C191.574 82.975 189.133 80.943 189.974 77.694C190.053 77.388 190.393 75.679 190.393 75.679C190.438 75.5043 190.412 75.3189 190.321 75.1634C190.229 75.008 190.08 74.8952 189.905 74.85C189.73 74.8048 189.545 74.8308 189.389 74.9223C189.234 75.0138 189.121 75.1633 189.076 75.338L188.576 77.266C187.346 78.4499 185.865 79.3418 184.243 79.8758C182.621 80.4098 180.9 80.5722 179.207 80.351C176.573 80.093 176.069 79.084 176.02 78.451L176.738 75.676C176.783 75.5014 176.757 75.3159 176.666 75.1604C176.574 75.0049 176.425 74.8922 176.25 74.847C176.075 74.8018 175.89 74.8278 175.734 74.9193C175.579 75.0108 175.466 75.1604 175.421 75.335C175.421 75.335 172.63 82.946 173.568 85.788C174.311 88.038 175.679 87.64 176.023 89.019C176.367 90.398 177.213 93.028 176.023 95.658C174.833 98.288 158.455 132.728 158.455 132.728C158.455 132.728 173.455 141.759 180.343 141.912C187.231 142.065 206.517 135.177 207.282 131.657C208.047 128.137 189.171 96.388 187.81 94.713" fill="#BE73FF"/>
<path d="M197.092 75.493L184.228 67.084V66.349C184.719 66.2259 185.165 65.9675 185.516 65.6032C185.867 65.2389 186.108 64.7833 186.213 64.2884C186.317 63.7935 186.281 63.2792 186.108 62.8041C185.934 62.329 185.631 61.9121 185.232 61.6011C184.833 61.29 184.355 61.0972 183.852 61.0447C183.348 60.9922 182.841 61.0821 182.386 61.3041C181.932 61.5261 181.549 61.8713 181.281 62.3004C181.013 62.7295 180.871 63.2252 180.871 63.731C180.871 63.9055 180.941 64.0729 181.064 64.1963C181.187 64.3197 181.355 64.389 181.529 64.389C181.704 64.389 181.871 64.3197 181.995 64.1963C182.118 64.0729 182.187 63.9055 182.187 63.731C182.187 63.4575 182.268 63.1901 182.42 62.9626C182.572 62.7352 182.788 62.5579 183.041 62.4533C183.294 62.3486 183.572 62.3212 183.84 62.3746C184.108 62.4279 184.355 62.5597 184.548 62.7531C184.742 62.9465 184.873 63.1929 184.927 63.4612C184.98 63.7295 184.953 64.0075 184.848 64.2602C184.743 64.513 184.566 64.7289 184.339 64.8809C184.111 65.0329 183.844 65.114 183.57 65.114C183.396 65.114 183.228 65.1833 183.105 65.3067C182.982 65.4301 182.912 65.5975 182.912 65.772V67.084L170.052 75.492C169.934 75.5695 169.843 75.6833 169.794 75.8164C169.745 75.9495 169.741 76.0949 169.781 76.2308C169.822 76.3667 169.905 76.4859 170.019 76.5706C170.132 76.6553 170.27 76.7011 170.412 76.701H196.728C196.87 76.7011 197.008 76.6553 197.122 76.5706C197.235 76.4859 197.319 76.3667 197.359 76.2308C197.4 76.0949 197.395 75.9495 197.346 75.8164C197.298 75.6833 197.207 75.5695 197.088 75.492M172.628 75.384L183.577 68.226L194.526 75.384H172.628Z" fill="#BE73FF"/>
<path d="M174.573 94.716C173.212 93.041 177.487 86.423 177.84 85C178.34 82.975 175.899 80.943 176.735 77.694C176.814 77.388 177.154 75.679 177.154 75.679C177.199 75.5043 177.173 75.3189 177.081 75.1634C176.99 75.008 176.84 74.8952 176.666 74.85C176.491 74.8048 176.306 74.8308 176.15 74.9223C175.995 75.0138 175.882 75.1633 175.837 75.338L175.337 77.266C174.106 78.4499 172.626 79.3418 171.004 79.8758C169.382 80.4098 167.661 80.5722 165.968 80.351C163.334 80.093 162.83 79.084 162.781 78.451L163.499 75.676C163.544 75.5014 163.518 75.3159 163.426 75.1604C163.335 75.0049 163.185 74.8922 163.011 74.847C162.836 74.8018 162.651 74.8278 162.495 74.9193C162.34 75.0108 162.227 75.1604 162.182 75.335C162.182 75.335 159.391 82.946 160.329 85.788C161.072 88.038 162.44 87.64 162.785 89.019C163.13 90.398 163.975 93.028 162.785 95.658C161.595 98.288 145.217 132.728 145.217 132.728C145.217 132.728 160.217 141.759 167.105 141.912C173.993 142.065 193.279 135.177 194.044 131.657C194.809 128.137 175.933 96.388 174.572 94.713" fill="#D19CFF"/>
<path d="M183.862 75.493L171.002 67.085V66.35C171.492 66.2269 171.938 65.9685 172.289 65.6042C172.64 65.2399 172.882 64.7843 172.986 64.2894C173.091 63.7945 173.054 63.2802 172.881 62.8051C172.707 62.33 172.404 61.9131 172.005 61.602C171.606 61.291 171.128 61.0982 170.625 61.0457C170.122 60.9932 169.614 61.0831 169.16 61.3051C168.705 61.5271 168.322 61.8723 168.054 62.3014C167.786 62.7305 167.645 63.2262 167.645 63.732C167.645 63.9065 167.714 64.0739 167.837 64.1973C167.961 64.3207 168.128 64.39 168.303 64.39C168.477 64.39 168.645 64.3207 168.768 64.1973C168.891 64.0739 168.961 63.9065 168.961 63.732C168.961 63.4585 169.042 63.1911 169.194 62.9636C169.346 62.7362 169.562 62.559 169.814 62.4543C170.067 62.3496 170.345 62.3222 170.613 62.3756C170.882 62.4289 171.128 62.5607 171.322 62.7541C171.515 62.9475 171.647 63.1939 171.7 63.4622C171.753 63.7305 171.726 64.0085 171.621 64.2613C171.517 64.514 171.339 64.73 171.112 64.8819C170.885 65.0339 170.617 65.115 170.344 65.115C170.169 65.115 170.002 65.1843 169.878 65.3077C169.755 65.4311 169.686 65.5985 169.686 65.773V67.084L156.826 75.492C156.707 75.5695 156.616 75.6833 156.568 75.8164C156.519 75.9496 156.514 76.0949 156.555 76.2308C156.595 76.3667 156.678 76.4859 156.792 76.5706C156.906 76.6553 157.044 76.7011 157.186 76.701H183.503C183.645 76.7011 183.783 76.6553 183.896 76.5706C184.01 76.4859 184.093 76.3667 184.134 76.2308C184.174 76.0949 184.17 75.9496 184.121 75.8164C184.072 75.6833 183.981 75.5695 183.863 75.492M159.392 75.384L170.341 68.226L181.29 75.384H159.392Z" fill="#D19CFF"/>
<path d="M161.338 94.716C159.977 93.041 164.253 86.423 164.605 85C165.105 82.975 162.664 80.943 163.505 77.694C163.584 77.388 163.924 75.679 163.924 75.679C163.97 75.5043 163.944 75.3189 163.852 75.1634C163.76 75.008 163.611 74.8952 163.436 74.85C163.262 74.8048 163.076 74.8308 162.921 74.9223C162.765 75.0138 162.653 75.1633 162.607 75.338L162.107 77.266C160.877 78.4499 159.396 79.3418 157.774 79.8758C156.153 80.4098 154.431 80.5722 152.738 80.351C150.103 80.093 149.6 79.084 149.551 78.451L150.269 75.676C150.315 75.5014 150.289 75.3159 150.197 75.1604C150.106 75.0049 149.956 74.8922 149.781 74.847C149.607 74.8018 149.421 74.8278 149.266 74.9193C149.11 75.0108 148.998 75.1604 148.952 75.335C148.952 75.335 146.161 82.946 147.099 85.788C147.842 88.038 149.21 87.64 149.554 89.019C149.898 90.398 150.744 93.028 149.554 95.658C148.364 98.288 131.986 132.728 131.986 132.728C131.986 132.728 146.986 141.759 153.874 141.912C160.762 142.065 180.048 135.177 180.813 131.657C181.578 128.137 162.702 96.388 161.341 94.713" fill="#DFBAFF"/>
<path d="M170.621 75.493L157.761 67.085V66.35C158.252 66.2269 158.698 65.9685 159.049 65.6042C159.4 65.2399 159.641 64.7843 159.746 64.2894C159.851 63.7945 159.814 63.2802 159.641 62.8051C159.467 62.33 159.164 61.9131 158.765 61.602C158.366 61.291 157.888 61.0982 157.385 61.0457C156.882 60.9932 156.374 61.0831 155.919 61.3051C155.465 61.5271 155.082 61.8723 154.814 62.3014C154.546 62.7305 154.404 63.2262 154.404 63.732C154.404 63.9065 154.474 64.0739 154.597 64.1973C154.721 64.3207 154.888 64.39 155.062 64.39C155.237 64.39 155.404 64.3207 155.528 64.1973C155.651 64.0739 155.72 63.9065 155.72 63.732C155.72 63.4585 155.802 63.1911 155.954 62.9636C156.105 62.7362 156.321 62.559 156.574 62.4543C156.827 62.3496 157.105 62.3222 157.373 62.3756C157.642 62.4289 157.888 62.5607 158.081 62.7541C158.275 62.9475 158.406 63.1939 158.46 63.4622C158.513 63.7305 158.486 64.0085 158.381 64.2613C158.276 64.514 158.099 64.73 157.872 64.8819C157.644 65.0339 157.377 65.115 157.103 65.115C156.929 65.115 156.762 65.1843 156.638 65.3077C156.515 65.4311 156.445 65.5985 156.445 65.773V67.084L143.585 75.492C143.467 75.5695 143.376 75.6833 143.327 75.8164C143.279 75.9496 143.274 76.0949 143.314 76.2308C143.355 76.3667 143.438 76.4859 143.552 76.5706C143.666 76.6553 143.804 76.7011 143.945 76.701H170.262C170.404 76.7011 170.542 76.6553 170.656 76.5706C170.77 76.4859 170.853 76.3667 170.893 76.2308C170.934 76.0949 170.929 75.9496 170.881 75.8164C170.832 75.6833 170.741 75.5695 170.622 75.492M146.155 75.385L157.104 68.227L168.053 75.385H146.155Z" fill="#DFBAFF"/>
<path d="M201.709 63.376H129.949C129.466 63.376 129.002 63.5679 128.661 63.9096C128.319 64.2513 128.127 64.7148 128.127 65.198V194.664H138.013C138.255 194.664 138.486 194.568 138.657 194.397C138.828 194.226 138.924 193.995 138.924 193.753C138.924 193.511 138.828 193.28 138.657 193.109C138.486 192.938 138.255 192.842 138.013 192.842H129.949V66.042C129.949 65.8189 130.038 65.605 130.195 65.4473C130.353 65.2896 130.567 65.201 130.79 65.201H200.864C201.087 65.201 201.301 65.2896 201.459 65.4473C201.616 65.605 201.705 65.8189 201.705 66.042V192.842H193.649C193.407 192.842 193.176 192.938 193.005 193.109C192.834 193.28 192.738 193.511 192.738 193.753C192.738 193.995 192.834 194.226 193.005 194.397C193.176 194.568 193.407 194.664 193.649 194.664H203.535V65.201C203.535 64.9617 203.488 64.7248 203.396 64.5038C203.305 64.2827 203.17 64.0818 203.001 63.9127C202.832 63.7435 202.631 63.6093 202.41 63.5177C202.189 63.4261 201.952 63.379 201.713 63.379" fill="#BE73FF"/>
</g>
</g>
</g>
<defs>
<linearGradient id="paint0_linear_246_1272" x1="123.624" y1="303.869" x2="123.781" y2="303.722" gradientUnits="userSpaceOnUse">
<stop stop-color="#510394"/>
<stop offset="0.141" stop-color="#4A0387"/>
<stop offset="0.397" stop-color="#380368"/>
<stop offset="0.736" stop-color="#1B0334"/>
<stop offset="1" stop-color="#030408"/>
</linearGradient>
<linearGradient id="paint1_linear_246_1272" x1="-0.0546875" y1="221.191" x2="0.256185" y2="221.191" gradientUnits="userSpaceOnUse">
<stop stop-color="#D3D6DB"/>
<stop offset="0.999" stop-color="#7A869B"/>
<stop offset="1" stop-color="#7A869B"/>
</linearGradient>
<clipPath id="clip0_246_1272">
<rect width="339" height="221.201" fill="white"/>
</clipPath>
</defs>
</svg>
