<svg width="339" height="194" viewBox="0 0 339 194" fill="none" xmlns="http://www.w3.org/2000/svg">
<g clip-path="url(#clip0_246_1516)">
<mask id="mask0_246_1516" style="mask-type:luminance" maskUnits="userSpaceOnUse" x="0" y="0" width="339" height="194">
<path d="M339 0H0V193.244H339V0Z" fill="white"/>
</mask>
<g mask="url(#mask0_246_1516)">
<mask id="mask1_246_1516" style="mask-type:luminance" maskUnits="userSpaceOnUse" x="0" y="0" width="339" height="194">
<path d="M339 0H0V193.244H339V0Z" fill="white"/>
</mask>
<g mask="url(#mask1_246_1516)">
<g opacity="0.59">
<mask id="mask2_246_1516" style="mask-type:luminance" maskUnits="userSpaceOnUse" x="110" y="0" width="109" height="88">
<path d="M218.294 0H110.395V87.863H218.294V0Z" fill="white"/>
</mask>
<g mask="url(#mask2_246_1516)">
<path d="M212.539 87.863H116.149C115.393 87.863 114.645 87.7142 113.947 87.425C113.248 87.1358 112.614 86.712 112.08 86.1777C111.546 85.6434 111.122 85.0091 110.833 84.311C110.543 83.6129 110.395 82.8646 110.395 82.109V5.754C110.395 4.22794 111.001 2.76439 112.08 1.68531C113.159 0.606223 114.622 0 116.149 0L212.54 0C213.295 0 214.043 0.148832 214.742 0.437997C215.44 0.727163 216.074 1.151 216.608 1.68531C217.143 2.21962 217.566 2.85393 217.856 3.55204C218.145 4.25015 218.294 4.99837 218.294 5.754V82.109C218.294 82.8646 218.145 83.6129 217.856 84.311C217.566 85.0091 217.143 85.6434 216.608 86.1777C216.074 86.712 215.44 87.1358 214.742 87.425C214.043 87.7142 213.295 87.863 212.54 87.863" fill="white"/>
</g>
</g>
<path d="M204.105 63.16H124.583C124.249 63.1589 123.928 63.0255 123.691 62.7889C123.455 62.5523 123.321 62.2316 123.32 61.897V60.433C123.321 60.0984 123.455 59.7777 123.691 59.5411C123.928 59.3045 124.249 59.1711 124.583 59.17H204.105C204.44 59.1711 204.761 59.3045 204.997 59.5411C205.234 59.7777 205.367 60.0984 205.368 60.433V61.9C205.367 62.2346 205.234 62.5553 204.997 62.7919C204.761 63.0286 204.44 63.1619 204.105 63.163" fill="#BB88FC"/>
<path d="M170.952 73.748H124.583C124.249 73.7469 123.928 73.6136 123.691 73.3769C123.455 73.1403 123.321 72.8196 123.32 72.485V71.013C123.321 70.6784 123.455 70.3577 123.691 70.1211C123.928 69.8845 124.249 69.7511 124.583 69.75H170.952C171.287 69.7511 171.608 69.8845 171.844 70.1211C172.081 70.3577 172.214 70.6784 172.215 71.013V72.48C172.214 72.8147 172.081 73.1353 171.844 73.3719C171.608 73.6085 171.287 73.742 170.952 73.743" fill="#BB88FC"/>
<path d="M130.428 46.345C130.428 47.0479 130.22 47.735 129.829 48.3195C129.439 48.9039 128.884 49.3595 128.234 49.6285C127.585 49.8975 126.87 49.9678 126.181 49.8307C125.492 49.6936 124.858 49.3551 124.361 48.8581C123.864 48.361 123.526 47.7278 123.389 47.0384C123.251 46.3489 123.322 45.6344 123.591 44.9849C123.86 44.3355 124.315 43.7805 124.9 43.39C125.484 42.9994 126.171 42.791 126.874 42.791C127.817 42.791 128.721 43.1654 129.387 43.8319C130.054 44.4985 130.428 45.4024 130.428 46.345Z" fill="#BB88FC"/>
<path d="M148.653 46.345C148.653 47.0479 148.444 47.735 148.054 48.3195C147.663 48.9039 147.108 49.3595 146.459 49.6285C145.81 49.8975 145.095 49.9678 144.406 49.8307C143.716 49.6936 143.083 49.3551 142.586 48.8581C142.089 48.361 141.75 47.7278 141.613 47.0384C141.476 46.3489 141.546 45.6344 141.815 44.9849C142.084 44.3355 142.54 43.7805 143.124 43.39C143.709 42.9994 144.396 42.791 145.099 42.791C146.042 42.791 146.945 43.1654 147.612 43.8319C148.278 44.4985 148.653 45.4024 148.653 46.345Z" fill="#BB88FC"/>
<path d="M190.794 29.275H187.794C187.51 29.275 187.237 29.1621 187.036 28.9612C186.836 28.7602 186.723 28.4877 186.723 28.2035C186.723 27.9193 186.836 27.6468 187.036 27.4458C187.237 27.2449 187.51 27.132 187.794 27.132H189.963L192.697 16.332L189.945 15.014C189.689 14.8912 189.492 14.6716 189.397 14.4035C189.303 14.1354 189.319 13.8408 189.442 13.5845C189.564 13.3282 189.784 13.1311 190.052 13.0367C190.32 12.9423 190.615 12.9582 190.871 13.081L194.414 14.781C194.637 14.8878 194.817 15.0686 194.922 15.2926C195.027 15.5167 195.051 15.7701 194.99 16.01L191.836 28.474C191.778 28.7053 191.644 28.9105 191.456 29.057C191.267 29.2036 191.036 29.2831 190.797 29.283" fill="#BB88FC"/>
<path d="M193.711 49.411C193.014 49.4093 192.317 49.3524 191.628 49.241C191.49 49.2189 191.356 49.1696 191.236 49.096C191.117 49.0224 191.012 48.9259 190.93 48.812C190.763 48.582 190.694 48.2951 190.739 48.0145C190.784 47.7339 190.938 47.4825 191.168 47.3157C191.398 47.1489 191.685 47.0803 191.965 47.125C193.307 47.4224 194.702 47.3716 196.018 46.9772C197.334 46.5828 198.527 45.8581 199.483 44.872C197.247 43.217 191.97 38.387 189.747 28.438C189.692 28.1632 189.747 27.8778 189.9 27.6428C190.053 27.4079 190.291 27.2421 190.565 27.1811C190.839 27.12 191.125 27.1685 191.363 27.3161C191.602 27.4638 191.772 27.6989 191.839 27.971C192.779 32.4555 194.78 36.6497 197.672 40.203C198.777 41.56 200.087 42.7356 201.555 43.687C201.678 43.7569 201.786 43.8505 201.873 43.9623C201.96 44.0741 202.024 44.2019 202.061 44.3384C202.098 44.4749 202.108 44.6174 202.09 44.7577C202.072 44.898 202.026 45.0334 201.955 45.156C201.057 46.5085 199.829 47.6092 198.386 48.354C196.944 49.0988 195.335 49.463 193.713 49.412" fill="#BB88FC"/>
<path d="M183.3 29.275H180.3C180.061 29.2751 179.829 29.1956 179.641 29.0491C179.453 28.9025 179.319 28.6973 179.261 28.466L176.107 16.002C176.046 15.7621 176.071 15.5087 176.176 15.2847C176.281 15.0607 176.46 14.8799 176.683 14.773L180.226 13.073C180.482 12.9502 180.777 12.9343 181.045 13.0287C181.313 13.1231 181.532 13.3202 181.655 13.5765C181.778 13.8328 181.794 14.1274 181.7 14.3955C181.605 14.6636 181.408 14.8832 181.152 15.006L178.4 16.324L181.134 27.124H183.303C183.587 27.124 183.859 27.2369 184.06 27.4378C184.261 27.6388 184.374 27.9113 184.374 28.1955C184.374 28.4797 184.261 28.7522 184.06 28.9532C183.859 29.1541 183.587 29.267 183.303 29.267" fill="#BB88FC"/>
<path d="M170.061 45.69C169.826 45.6881 169.598 45.6089 169.412 45.4647C169.227 45.3204 169.094 45.1191 169.034 44.8917C168.974 44.6643 168.99 44.4234 169.08 44.2063C169.171 43.9891 169.33 43.8077 169.533 43.69C171.001 42.7388 172.311 41.5636 173.415 40.207C176.327 36.6658 178.33 32.4667 179.248 27.975C179.279 27.8377 179.337 27.7078 179.417 27.5927C179.498 27.4776 179.601 27.3795 179.72 27.3041C179.839 27.2287 179.971 27.1774 180.11 27.1532C180.248 27.129 180.39 27.1323 180.527 27.163C180.665 27.1937 180.795 27.2511 180.91 27.3319C181.025 27.4128 181.123 27.5156 181.198 27.6343C181.274 27.7531 181.325 27.8856 181.349 28.0241C181.373 28.1627 181.37 28.3047 181.339 28.442C178.539 40.963 170.907 45.375 170.584 45.557C170.424 45.647 170.244 45.6942 170.06 45.694" fill="#BB88FC"/>
<path d="M185.544 19.351C184.137 19.354 182.774 18.8591 181.696 17.954C180.619 17.0488 179.896 15.7917 179.655 14.405C179.626 14.2643 179.625 14.1191 179.653 13.9781C179.681 13.8371 179.737 13.7031 179.818 13.5842C179.899 13.4652 180.002 13.3637 180.123 13.2857C180.244 13.2077 180.379 13.1548 180.521 13.1301C180.662 13.1054 180.807 13.1095 180.947 13.142C181.087 13.1746 181.22 13.2349 181.336 13.3196C181.452 13.4042 181.55 13.5113 181.624 13.6345C181.698 13.7578 181.746 13.8947 181.766 14.037C181.925 14.9368 182.4 15.7503 183.106 16.3311C183.811 16.9118 184.701 17.2216 185.615 17.2047C186.528 17.1879 187.406 16.8454 188.089 16.239C188.773 15.6326 189.218 14.8021 189.343 13.897C189.362 13.7576 189.409 13.6233 189.479 13.5018C189.55 13.3803 189.644 13.2739 189.756 13.1887C189.868 13.1036 189.996 13.0413 190.132 13.0055C190.268 12.9697 190.41 12.961 190.549 12.98C190.689 12.999 190.823 13.0452 190.945 13.1161C191.066 13.187 191.172 13.2811 191.258 13.3931C191.343 13.5051 191.405 13.6327 191.441 13.7688C191.477 13.9048 191.485 14.0466 191.466 14.186C191.265 15.6152 190.556 16.9241 189.468 17.8725C188.38 18.821 186.987 19.3456 185.543 19.35" fill="#BB88FC"/>
<path d="M178.222 49.898C176.366 49.9011 174.541 49.4269 172.922 48.521C171.446 47.7041 170.167 46.5744 169.175 45.211C169.096 45.094 169.042 44.9627 169.015 44.8247C168.987 44.6867 168.987 44.5447 169.015 44.4067C169.042 44.2687 169.097 44.1375 169.175 44.0205C169.253 43.9036 169.354 43.8031 169.471 43.725C169.588 43.6469 169.719 43.5925 169.857 43.5651C169.995 43.5377 170.137 43.5378 170.275 43.5652C170.413 43.5927 170.544 43.6471 170.661 43.7253C170.778 43.8035 170.878 43.904 170.957 44.021C171.131 44.279 175.192 50.106 182.868 46.678C183.127 46.5621 183.422 46.554 183.687 46.6556C183.953 46.7571 184.167 46.96 184.283 47.2195C184.399 47.479 184.407 47.7739 184.305 48.0394C184.204 48.3049 184.001 48.5191 183.742 48.635C182.014 49.4422 180.134 49.8727 178.227 49.898" fill="#BB88FC"/>
<path d="M185.801 48.885C185.702 48.8849 185.603 48.8711 185.508 48.844C184.699 48.615 180.597 47.418 179.299 46.377C179.189 46.2889 179.098 46.18 179.03 46.0566C178.963 45.9332 178.92 45.7977 178.905 45.6578C178.889 45.5179 178.902 45.3764 178.941 45.2413C178.981 45.1062 179.046 44.9802 179.135 44.8705C179.223 44.7608 179.331 44.6695 179.455 44.6018C179.578 44.5342 179.714 44.4915 179.854 44.4762C179.994 44.461 180.135 44.4734 180.27 44.5128C180.405 44.5522 180.531 44.6179 180.641 44.706C182.371 45.6079 184.2 46.305 186.092 46.783C186.338 46.8557 186.55 47.0143 186.689 47.2299C186.828 47.4456 186.885 47.704 186.85 47.9582C186.815 48.2124 186.69 48.4456 186.497 48.6152C186.305 48.7849 186.058 48.88 185.801 48.883" fill="#BB88FC"/>
<g opacity="0.59">
<mask id="mask3_246_1516" style="mask-type:luminance" maskUnits="userSpaceOnUse" x="0" y="15" width="101" height="57">
<path d="M100.186 15.959H0V71.904H100.186V15.959Z" fill="white"/>
</mask>
<g mask="url(#mask3_246_1516)">
<path d="M94.431 71.904H5.754C4.22794 71.904 2.76439 71.2978 1.68531 70.2187C0.606223 69.1396 0 67.6761 0 66.15L0 21.709C0.00106038 20.1836 0.607752 18.7211 1.68672 17.6429C2.76569 16.5647 4.22864 15.959 5.754 15.959H94.431C95.9571 15.959 97.4206 16.5652 98.4997 17.6443C99.5788 18.7234 100.185 20.1869 100.185 21.713V66.149C100.185 67.6751 99.5788 69.1386 98.4997 70.2177C97.4206 71.2968 95.9571 71.904 94.431 71.904Z" fill="white"/>
</g>
</g>
<path d="M86.9215 34.1H57.0755C56.7409 34.099 56.4202 33.9655 56.1836 33.7289C55.947 33.4923 55.8136 33.1716 55.8125 32.837V31.655C55.8136 31.3204 55.947 30.9997 56.1836 30.7631C56.4202 30.5265 56.7409 30.3931 57.0755 30.392H86.9215C87.2558 30.3938 87.5758 30.5277 87.8118 30.7645C88.0479 31.0013 88.1807 31.3217 88.1815 31.656V32.838C88.1804 33.1726 88.047 33.4933 87.8104 33.7299C87.5738 33.9665 87.2531 34.0999 86.9185 34.101" fill="#BB88FC"/>
<path d="M73.8405 43.931H57.0755C56.7409 43.9299 56.4202 43.7965 56.1836 43.5599C55.947 43.3233 55.8136 43.0026 55.8125 42.668V41.486C55.8136 41.1513 55.947 40.8307 56.1836 40.5941C56.4202 40.3575 56.7409 40.224 57.0755 40.223H73.8415C74.1762 40.224 74.4968 40.3575 74.7334 40.5941C74.97 40.8307 75.1035 41.1513 75.1045 41.486V42.668C75.1035 43.0026 74.97 43.3233 74.7334 43.5599C74.4968 43.7965 74.1762 43.9299 73.8415 43.931" fill="#BB88FC"/>
<path d="M32.2488 41.926H29.4598C29.196 41.926 28.9429 41.8212 28.7563 41.6346C28.5697 41.448 28.4648 41.1949 28.4648 40.931C28.4648 40.6671 28.5697 40.414 28.7563 40.2274C28.9429 40.0408 29.196 39.936 29.4598 39.936H31.4738L34.0118 29.903L31.4568 28.679C31.2251 28.5613 31.0485 28.3576 30.965 28.1114C30.8816 27.8652 30.8977 27.5961 31.0101 27.3617C31.1225 27.1273 31.3221 26.9462 31.5663 26.8571C31.8105 26.768 32.0799 26.778 32.3168 26.885L35.6059 28.461C35.8124 28.5609 35.9783 28.7289 36.0757 28.9366C36.1731 29.1444 36.1961 29.3793 36.1408 29.602L33.2128 41.176C33.1577 41.3903 33.0331 41.5803 32.8585 41.7162C32.6839 41.8521 32.4691 41.9262 32.2478 41.927" fill="#BB88FC"/>
<path d="M34.9587 60.622C34.3106 60.6205 33.6636 60.5677 33.0237 60.464C32.7664 60.419 32.537 60.2746 32.3852 60.0619C32.2334 59.8492 32.1714 59.5854 32.2125 59.3273C32.2536 59.0693 32.3945 58.8378 32.6049 58.6828C32.8152 58.5278 33.0781 58.4618 33.3367 58.499C34.5822 58.7752 35.8776 58.728 37.0996 58.3618C38.3216 57.9956 39.4295 57.3226 40.3177 56.407C38.2417 54.87 33.3417 50.386 31.2777 41.148C31.2231 40.8916 31.2718 40.6239 31.4134 40.4032C31.555 40.1825 31.778 40.0267 32.0339 39.9695C32.2897 39.9123 32.5579 39.9584 32.7799 40.0978C33.002 40.2372 33.16 40.4587 33.2197 40.714C34.0926 44.8777 35.9497 48.7719 38.6357 52.071C39.661 53.3307 40.8775 54.422 42.2407 55.305C42.4707 55.4368 42.639 55.6545 42.7085 55.9102C42.7781 56.166 42.7433 56.4389 42.6117 56.669C41.778 57.925 40.6374 58.9472 39.2979 59.6388C37.9584 60.3304 36.4645 60.6685 34.9577 60.621" fill="#BB88FC"/>
<path d="M25.2886 41.926H22.5006C22.2793 41.9252 22.0645 41.8511 21.8899 41.7152C21.7153 41.5793 21.5907 41.3893 21.5356 41.175L18.6076 29.602C18.5523 29.3793 18.5753 29.1444 18.6727 28.9366C18.7701 28.7289 18.936 28.5609 19.1426 28.461L22.4316 26.885C22.6685 26.778 22.9379 26.768 23.1821 26.8571C23.4263 26.9462 23.6259 27.1273 23.7383 27.3617C23.8507 27.5961 23.8669 27.8652 23.7834 28.1114C23.6999 28.3576 23.5234 28.5613 23.2916 28.679L20.7366 29.903L23.2746 39.936H25.2886C25.5525 39.936 25.8055 40.0408 25.9921 40.2274C26.1787 40.414 26.2836 40.6671 26.2836 40.931C26.2836 41.1949 26.1787 41.448 25.9921 41.6346C25.8055 41.8212 25.5525 41.926 25.2886 41.926Z" fill="#BB88FC"/>
<path d="M12.9989 57.168C12.7792 57.168 12.5656 57.0952 12.3915 56.9611C12.2174 56.8269 12.0927 56.6389 12.0367 56.4263C11.9807 56.2138 11.9967 55.9887 12.0822 55.7862C12.1676 55.5837 12.3177 55.4152 12.5089 55.307C13.87 54.4231 15.0847 53.3319 16.1089 52.073C18.8125 48.7851 20.6718 44.8864 21.5249 40.716C21.5524 40.5874 21.605 40.4655 21.6798 40.3574C21.7546 40.2493 21.8501 40.157 21.9608 40.086C22.0714 40.015 22.1951 39.9667 22.3246 39.9437C22.454 39.9208 22.5868 39.9238 22.7151 39.9524C22.8434 39.9811 22.9648 40.0349 23.0722 40.1108C23.1795 40.1867 23.2708 40.2831 23.3407 40.3944C23.4107 40.5058 23.4578 40.6299 23.4795 40.7596C23.5011 40.8893 23.4969 41.022 23.4669 41.15C20.8669 52.776 13.7809 56.873 13.4799 57.042C13.3316 57.1258 13.1643 57.1698 12.9939 57.17" fill="#BB88FC"/>
<path d="M27.3731 32.712C26.0664 32.7147 24.8008 32.2553 23.8002 31.4149C22.7996 30.5746 22.1283 29.4075 21.9051 28.12C21.8798 27.9901 21.8806 27.8565 21.9076 27.727C21.9345 27.5974 21.9871 27.4746 22.0621 27.3656C22.1371 27.2566 22.2331 27.1637 22.3445 27.0922C22.4558 27.0208 22.5803 26.9723 22.7107 26.9495C22.841 26.9268 22.9746 26.9302 23.1036 26.9598C23.2326 26.9893 23.3544 27.0442 23.4619 27.1213C23.5694 27.1985 23.6604 27.2963 23.7296 27.4091C23.7989 27.5218 23.8449 27.6472 23.8651 27.778C24.0119 28.6141 24.4527 29.3703 25.1078 29.9102C25.763 30.45 26.5894 30.7381 27.4382 30.7224C28.287 30.7067 29.1022 30.3883 29.737 29.8246C30.3717 29.2609 30.7842 28.489 30.9001 27.648C30.9358 27.3865 31.0739 27.1499 31.284 26.9902C31.4941 26.8305 31.7591 26.7608 32.0206 26.7965C32.2821 26.8322 32.5187 26.9703 32.6784 27.1804C32.8381 27.3905 32.9078 27.6555 32.8721 27.917C32.6871 29.2453 32.0289 30.4622 31.0185 31.3441C30.008 32.2259 28.7132 32.7134 27.3721 32.717" fill="#BB88FC"/>
<path d="M20.5737 61.075C18.8491 61.0786 17.1527 60.6381 15.6477 59.796C14.2775 59.0376 13.0898 57.9888 12.1677 56.723C12.0381 56.5036 11.9975 56.2429 12.0544 55.9946C12.1113 55.7462 12.2613 55.5292 12.4735 55.3882C12.6857 55.2471 12.9439 55.1929 13.1949 55.2366C13.4459 55.2803 13.6706 55.4186 13.8227 55.623C13.9847 55.862 17.7557 61.273 24.8817 58.09C25.1226 57.9823 25.3965 57.9748 25.643 58.069C25.8895 58.1632 26.0885 58.3516 26.1962 58.5925C26.3039 58.8335 26.3114 59.1073 26.2172 59.3538C26.1229 59.6003 25.9346 59.7993 25.6937 59.907C24.0894 60.6564 22.3442 61.0563 20.5737 61.08" fill="#BB88FC"/>
<path d="M27.6114 60.131C27.5195 60.1309 27.4279 60.1181 27.3394 60.093C26.5884 59.88 22.7794 58.769 21.5744 57.802C21.4698 57.7212 21.3823 57.6203 21.317 57.5053C21.2518 57.3903 21.2101 57.2635 21.1945 57.1322C21.1788 57.0009 21.1895 56.8678 21.2259 56.7407C21.2623 56.6135 21.3236 56.4949 21.4064 56.3918C21.4891 56.2887 21.5916 56.2031 21.7078 56.14C21.824 56.0769 21.9516 56.0376 22.0831 56.0244C22.2147 56.0112 22.3476 56.0243 22.474 56.0631C22.6004 56.1018 22.7179 56.1654 22.8194 56.25C24.4261 57.0873 26.1249 57.7343 27.8814 58.178C28.1059 58.2497 28.2979 58.3984 28.4234 58.5979C28.5489 58.7973 28.6 59.0346 28.5676 59.2681C28.5352 59.5015 28.4214 59.716 28.2463 59.8737C28.0712 60.0314 27.846 60.1221 27.6104 60.13" fill="#BB88FC"/>
<g opacity="0.59">
<path d="M322.798 71.903H234.121C232.595 71.903 231.132 71.2968 230.052 70.2177C228.973 69.1386 228.367 67.6751 228.367 66.149V21.708C228.367 20.1819 228.973 18.7184 230.052 17.6393C231.132 16.5602 232.595 15.954 234.121 15.954H322.798C324.324 15.954 325.788 16.5602 326.867 17.6393C327.946 18.7184 328.552 20.1819 328.552 21.708V66.144C328.552 67.6701 327.946 69.1336 326.867 70.2127C325.788 71.2918 324.324 71.898 322.798 71.898" fill="white"/>
</g>
<path d="M315.289 34.1H285.443C285.108 34.099 284.787 33.9655 284.551 33.7289C284.314 33.4923 284.181 33.1716 284.18 32.837V31.655C284.181 31.3204 284.314 30.9997 284.551 30.7631C284.787 30.5265 285.108 30.3931 285.443 30.392H315.289C315.623 30.3931 315.944 30.5265 316.181 30.7631C316.417 30.9997 316.551 31.3204 316.552 31.655V32.837C316.551 33.1716 316.417 33.4923 316.181 33.7289C315.944 33.9655 315.623 34.099 315.289 34.1Z" fill="#BB88FC"/>
<path d="M302.207 43.931H285.441C285.106 43.9299 284.785 43.7965 284.549 43.5599C284.312 43.3233 284.179 43.0026 284.178 42.668V41.486C284.179 41.1513 284.312 40.8307 284.549 40.5941C284.785 40.3575 285.106 40.224 285.441 40.223H302.207C302.541 40.224 302.862 40.3575 303.099 40.5941C303.335 40.8307 303.469 41.1513 303.47 41.486V42.668C303.469 43.0026 303.335 43.3233 303.099 43.5599C302.862 43.7965 302.541 43.9299 302.207 43.931Z" fill="#BB88FC"/>
<path d="M260.614 41.926H257.825C257.561 41.926 257.308 41.8212 257.122 41.6346C256.935 41.448 256.83 41.1949 256.83 40.931C256.83 40.6671 256.935 40.414 257.122 40.2274C257.308 40.0408 257.561 39.936 257.825 39.936H259.839L262.377 29.903L259.822 28.679C259.59 28.5613 259.414 28.3576 259.33 28.1114C259.247 27.8652 259.263 27.5961 259.375 27.3617C259.488 27.1273 259.687 26.9462 259.932 26.8571C260.176 26.768 260.445 26.778 260.682 26.885L263.971 28.461C264.178 28.5609 264.344 28.7289 264.441 28.9366C264.538 29.1444 264.561 29.3793 264.506 29.602L261.578 41.175C261.523 41.3893 261.398 41.5793 261.224 41.7152C261.049 41.8511 260.835 41.9252 260.614 41.926Z" fill="#BB88FC"/>
<path d="M263.325 60.622C262.677 60.6205 262.031 60.5676 261.391 60.464C261.261 60.4452 261.135 60.4007 261.022 60.3329C260.909 60.2651 260.81 60.1756 260.732 60.0693C260.654 59.9631 260.597 59.8424 260.566 59.7142C260.535 59.586 260.529 59.4529 260.55 59.3226C260.571 59.1923 260.618 59.0675 260.687 58.9553C260.756 58.8431 260.848 58.7459 260.955 58.6693C261.062 58.5926 261.184 58.5381 261.312 58.5089C261.441 58.4796 261.574 58.4763 261.704 58.499C262.95 58.7752 264.245 58.728 265.467 58.3618C266.689 57.9956 267.797 57.3226 268.685 56.407C266.609 54.87 261.709 50.386 259.645 41.148C259.615 41.02 259.611 40.8873 259.633 40.7576C259.654 40.6279 259.702 40.5038 259.771 40.3924C259.841 40.2811 259.933 40.1847 260.04 40.1088C260.147 40.0329 260.269 39.9791 260.397 39.9504C260.525 39.9218 260.658 39.9188 260.788 39.9417C260.917 39.9647 261.041 40.013 261.151 40.084C261.262 40.155 261.358 40.2473 261.432 40.3554C261.507 40.4635 261.56 40.5854 261.587 40.714C262.46 44.8777 264.317 48.772 267.003 52.071C268.029 53.3306 269.245 54.4218 270.608 55.305C270.838 55.4366 271.007 55.6542 271.077 55.91C271.146 56.1658 271.112 56.4388 270.98 56.669C270.147 57.9249 269.006 58.9471 267.666 59.6387C266.327 60.3303 264.833 60.6684 263.326 60.621" fill="#BB88FC"/>
<path d="M253.656 41.926H250.868C250.647 41.9252 250.432 41.8511 250.257 41.7152C250.082 41.5793 249.958 41.3893 249.903 41.175L246.975 29.602C246.919 29.3793 246.943 29.1444 247.04 28.9366C247.137 28.7289 247.303 28.5609 247.51 28.461L250.799 26.885C251.036 26.778 251.305 26.768 251.549 26.8571C251.794 26.9462 251.993 27.1273 252.105 27.3617C252.218 27.5961 252.234 27.8652 252.151 28.1114C252.067 28.3576 251.89 28.5613 251.659 28.679L249.104 29.903L251.642 39.936H253.656C253.92 39.936 254.173 40.0408 254.359 40.2274C254.546 40.414 254.651 40.6671 254.651 40.931C254.651 41.1949 254.546 41.448 254.359 41.6346C254.173 41.8212 253.92 41.926 253.656 41.926Z" fill="#BB88FC"/>
<path d="M241.364 57.168C241.147 57.164 240.936 57.0891 240.765 56.9546C240.594 56.8201 240.471 56.6334 240.416 56.4228C240.36 56.2122 240.375 55.9893 240.458 55.7879C240.541 55.5865 240.687 55.4177 240.874 55.307C242.236 54.4231 243.45 53.3319 244.474 52.073C247.178 48.7851 249.037 44.8864 249.89 40.716C249.969 40.4808 250.131 40.2829 250.347 40.1608C250.563 40.0386 250.816 40.001 251.058 40.055C251.3 40.1091 251.513 40.251 251.656 40.4533C251.799 40.6556 251.862 40.9039 251.832 41.15C249.232 52.776 242.147 56.873 241.846 57.042C241.697 57.1258 241.53 57.1698 241.359 57.17" fill="#BB88FC"/>
<path d="M255.739 32.712C254.433 32.7147 253.167 32.2553 252.167 31.4149C251.166 30.5746 250.495 29.4075 250.271 28.12C250.232 27.8626 250.295 27.5998 250.446 27.3882C250.598 27.1765 250.827 27.0329 251.084 26.9881C251.34 26.9433 251.604 27.001 251.819 27.1487C252.033 27.2964 252.182 27.5223 252.231 27.778C252.378 28.6141 252.819 29.3703 253.474 29.9102C254.129 30.45 254.956 30.7381 255.805 30.7224C256.653 30.7067 257.469 30.3883 258.103 29.8246C258.738 29.2609 259.151 28.489 259.266 27.648C259.324 27.4066 259.469 27.1953 259.674 27.0551C259.879 26.9149 260.128 26.8558 260.374 26.8893C260.62 26.9229 260.845 27.0466 261.005 27.2366C261.164 27.4265 261.248 27.669 261.238 27.917C261.053 29.2453 260.395 30.4622 259.385 31.3441C258.374 32.2259 257.08 32.7134 255.738 32.717" fill="#BB88FC"/>
<path d="M248.942 61.075C247.217 61.0785 245.521 60.638 244.016 59.796C242.646 59.0374 241.459 57.9886 240.537 56.723C240.407 56.5036 240.367 56.2429 240.424 55.9946C240.48 55.7462 240.63 55.5292 240.843 55.3882C241.055 55.2471 241.313 55.1929 241.564 55.2366C241.815 55.2803 242.04 55.4186 242.192 55.623C242.354 55.862 246.125 61.273 253.251 58.09C253.37 58.0367 253.499 58.0074 253.629 58.0038C253.76 58.0002 253.89 58.0223 254.012 58.069C254.134 58.1157 254.246 58.1859 254.341 58.2757C254.436 58.3656 254.512 58.4732 254.565 58.5925C254.619 58.7118 254.648 58.8404 254.651 58.9711C254.655 59.1017 254.633 59.2318 254.586 59.3538C254.54 59.4759 254.469 59.5876 254.38 59.6825C254.29 59.7774 254.182 59.8537 254.063 59.907C252.458 60.6562 250.713 61.0561 248.943 61.08" fill="#BB88FC"/>
<path d="M255.979 60.131C255.887 60.1309 255.795 60.1181 255.707 60.093C254.956 59.88 251.147 58.769 249.942 57.802C249.742 57.6351 249.615 57.3963 249.589 57.1369C249.563 56.8776 249.64 56.6183 249.803 56.415C249.966 56.2116 250.202 56.0804 250.461 56.0496C250.72 56.0187 250.981 56.0907 251.187 56.25C252.794 57.0873 254.492 57.7343 256.249 58.178C256.473 58.2497 256.665 58.3984 256.791 58.5979C256.917 58.7973 256.968 59.0347 256.935 59.2681C256.903 59.5015 256.789 59.716 256.614 59.8737C256.439 60.0314 256.214 60.1222 255.978 60.13" fill="#BB88FC"/>
<g opacity="0.3">
<mask id="mask4_246_1516" style="mask-type:luminance" maskUnits="userSpaceOnUse" x="14" y="166" width="309" height="28">
<path d="M322.959 166.861H14.6953V193.243H322.959V166.861Z" fill="white"/>
</mask>
<g mask="url(#mask4_246_1516)">
<mask id="mask5_246_1516" style="mask-type:luminance" maskUnits="userSpaceOnUse" x="14" y="166" width="309" height="28">
<path d="M29.7847 176.759C24.0567 177.576 14.7517 179.074 14.6917 181.232C14.6377 183.179 22.1307 184.774 24.7537 185.332C54.7447 191.717 61.2597 181.012 100.942 185.632C121.755 188.056 118.615 192.076 137.072 193.087C162.326 194.471 200.818 186.071 232.389 186.449C245.859 186.61 246.071 187.971 264.403 189.058C271.603 189.485 322.046 192.413 322.943 187.94C323.105 187.131 321.889 184.878 300.076 179.366C300.076 179.366 195.935 153.055 29.7847 176.757" fill="white"/>
</mask>
<g mask="url(#mask5_246_1516)">
<path d="M323.11 153.057H14.6426V194.473H323.11V153.057Z" fill="url(#paint0_linear_246_1516)"/>
</g>
</g>
</g>
<path d="M304.53 183.811H279.83C279.431 183.811 279.046 183.664 278.749 183.399C278.451 183.133 278.262 182.767 278.216 182.371L274.316 148.089H310.038L306.138 182.371C306.093 182.767 305.904 183.133 305.606 183.399C305.308 183.664 304.923 183.811 304.524 183.811" fill="#FF6902"/>
<path d="M310.04 148.496C310.04 149.617 302.04 150.526 292.179 150.526C282.318 150.526 274.318 149.617 274.318 148.496C274.318 147.375 282.318 146.466 292.179 146.466C302.04 146.466 310.04 147.375 310.04 148.496Z" fill="#1C2B6B"/>
<path d="M290.557 82.327C280.815 83.139 284.057 112.366 284.057 112.366C286.493 137.534 289.74 148.9 292.176 149.712C294.612 150.524 299.483 113.99 299.483 105.059C299.483 105.059 300.295 81.515 290.552 82.327" fill="#1E3286"/>
<path d="M291.774 145.652C291.716 145.653 291.659 145.641 291.607 145.617C291.554 145.594 291.507 145.559 291.47 145.516C291.432 145.473 291.403 145.422 291.387 145.367C291.37 145.312 291.366 145.254 291.374 145.197C294.574 118.76 290.603 85.549 290.562 85.216C290.554 85.1118 290.586 85.0084 290.652 84.9274C290.718 84.8464 290.813 84.794 290.917 84.7811C291.02 84.7682 291.125 84.7958 291.209 84.8582C291.293 84.9206 291.349 85.0129 291.367 85.116C291.408 85.45 295.395 118.759 292.179 145.293C292.167 145.391 292.12 145.481 292.046 145.547C291.973 145.613 291.878 145.649 291.779 145.65" fill="white"/>
<path d="M261.327 68.525C260.515 72.584 265.387 73.396 266.198 79.079C267.009 84.762 264.574 86.386 265.386 89.633C266.198 92.88 271.069 93.692 271.881 101.811C272.693 109.93 269.445 109.118 270.257 113.989C271.069 118.86 275.94 118.86 276.752 122.919C277.564 126.978 277.564 132.661 279.187 137.533C280.81 142.405 285.682 149.711 288.118 149.711C290.554 149.711 297.049 135.911 295.425 131.85C293.801 127.789 291.366 126.979 291.366 123.731C291.366 120.483 294.614 112.365 293.802 106.682C292.99 100.999 285.683 98.563 284.871 94.504C284.059 90.445 286.495 79.89 280.812 75.019C275.129 70.148 262.139 64.465 261.327 68.524" fill="#FF6902"/>
<path d="M338.455 77.455C341.325 80.325 331.96 81.514 331.148 87.197C330.336 92.88 330.336 95.316 327.089 98.563C323.842 101.81 318.97 102.622 319.782 107.494C320.594 112.366 322.218 117.236 319.782 119.672C317.346 122.108 311.663 122.108 310.039 126.167C308.415 130.226 309.227 135.097 305.98 139.157C302.733 143.217 297.861 151.335 293.802 149.711C289.743 148.087 292.178 129.411 293.802 126.167C295.426 122.923 297.049 120.484 297.049 118.048C297.049 115.612 296.237 111.553 297.861 107.494C299.485 103.435 308.415 101.811 309.227 99.375C310.039 96.939 310.851 83.949 315.722 80.702C320.593 77.455 333.584 72.583 338.455 77.455Z" fill="#40CD8A"/>
<path d="M295.062 148.322C294.99 148.322 294.92 148.303 294.858 148.267C294.796 148.231 294.744 148.179 294.709 148.116C294.674 148.053 294.655 147.983 294.656 147.911C294.657 147.839 294.677 147.769 294.714 147.707C294.747 147.652 297.999 142.216 298.685 139.468C298.862 138.76 299.076 137.688 299.322 136.446C300.222 131.939 301.576 125.129 303.663 123.046C306.693 120.017 311.534 110.739 314.926 98.866C319.105 84.238 332.926 79.957 333.061 79.915C333.164 79.8841 333.276 79.8955 333.37 79.9466C333.465 79.9977 333.536 80.0844 333.567 80.1875C333.598 80.2907 333.586 80.4019 333.535 80.4967C333.484 80.5915 333.397 80.6621 333.294 80.693C333.159 80.733 319.761 84.898 315.706 99.093C312.276 111.099 307.34 120.522 304.237 123.625C302.324 125.538 300.944 132.472 300.119 136.614C299.869 137.866 299.654 138.947 299.473 139.674C298.757 142.54 295.546 147.907 295.41 148.134C295.374 148.195 295.324 148.245 295.263 148.28C295.202 148.315 295.133 148.334 295.062 148.334" fill="white"/>
<path d="M288.073 146.543C287.966 146.543 287.864 146.501 287.788 146.426C287.712 146.351 287.668 146.25 287.667 146.143C287.667 146.037 287.597 135.488 284.505 132.396C281.369 129.259 279.579 119.662 278.705 101.277C277.905 84.577 265.936 70.812 265.816 70.677C265.78 70.6372 265.752 70.5905 265.734 70.5398C265.716 70.4892 265.709 70.4355 265.712 70.3818C265.715 70.3282 265.728 70.2757 265.752 70.2274C265.775 70.1791 265.808 70.1359 265.848 70.1004C265.889 70.0648 265.936 70.0376 265.987 70.0204C266.037 70.0031 266.091 69.9961 266.145 69.9998C266.198 70.0035 266.251 70.0178 266.299 70.0419C266.347 70.0659 266.39 70.0993 266.425 70.14C266.548 70.279 278.707 84.245 279.515 101.24C280.369 119.162 282.137 128.88 285.08 131.824C288.408 135.152 288.48 145.696 288.48 146.143C288.48 146.25 288.438 146.352 288.363 146.429C288.288 146.505 288.186 146.548 288.08 146.55L288.073 146.543Z" fill="white"/>
<path d="M138.873 101.713L127.668 99.343C126.736 99.1459 125.921 98.5868 125.402 97.7886C124.882 96.9905 124.701 96.0187 124.898 95.087L128.462 78.238C128.659 77.3063 129.218 76.4911 130.016 75.9717C130.814 75.4522 131.786 75.271 132.718 75.468L143.923 77.838C144.854 78.0354 145.67 78.5945 146.189 79.3926C146.708 80.1907 146.89 81.1623 146.693 82.094L143.129 98.943C143.032 99.4046 142.845 99.8425 142.578 100.232C142.311 100.621 141.971 100.953 141.575 101.211C141.18 101.468 140.738 101.645 140.274 101.731C139.811 101.817 139.334 101.811 138.873 101.713Z" fill="white"/>
<path d="M139.622 102.134C139.347 102.134 139.072 102.105 138.804 102.048L127.604 99.678C127.098 99.5711 126.619 99.3657 126.193 99.0736C125.767 98.7815 125.403 98.4083 125.121 97.9754C124.839 97.5425 124.646 97.0583 124.551 96.5505C124.456 96.0428 124.463 95.5213 124.57 95.016L128.134 78.167C128.35 77.1466 128.962 76.2537 129.836 75.6848C130.711 75.1158 131.775 74.9173 132.796 75.133L143.996 77.503C144.501 77.6099 144.98 77.8152 145.406 78.1074C145.832 78.3995 146.196 78.7727 146.478 79.2056C146.76 79.6385 146.954 80.1227 147.048 80.6305C147.143 81.1382 147.136 81.6596 147.03 82.165L143.466 99.015C143.28 99.8969 142.796 100.688 142.096 101.256C141.397 101.824 140.523 102.133 139.622 102.134ZM131.968 75.735C131.224 75.7376 130.504 75.9949 129.927 76.464C129.35 76.9331 128.952 77.5856 128.798 78.313L125.234 95.162C125.056 96.0048 125.219 96.8839 125.689 97.6058C126.159 98.3278 126.897 98.8336 127.74 99.012L138.94 101.382C139.357 101.471 139.788 101.476 140.207 101.398C140.627 101.32 141.027 101.16 141.384 100.927C141.742 100.695 142.05 100.394 142.291 100.042C142.532 99.6897 142.702 99.2936 142.79 98.876L146.354 82.027C146.442 81.6096 146.447 81.179 146.369 80.7596C146.291 80.3403 146.131 79.9404 145.898 79.5829C145.665 79.2254 145.364 78.9172 145.013 78.676C144.661 78.4348 144.265 78.2652 143.848 78.177L132.648 75.807C132.424 75.7593 132.196 75.7352 131.968 75.735Z" fill="#510394"/>
<g opacity="0.59">
<mask id="mask6_246_1516" style="mask-type:luminance" maskUnits="userSpaceOnUse" x="128" y="77" width="18" height="11">
<path d="M145.085 77.847H128.996V87.562H145.085V77.847Z" fill="white"/>
</mask>
<g mask="url(#mask6_246_1516)">
<path d="M142.512 87.532L130.083 84.903C129.907 84.8658 129.74 84.7942 129.591 84.6925C129.443 84.5907 129.316 84.4608 129.218 84.3099C129.12 84.1591 129.052 83.9905 129.019 83.8136C128.986 83.6367 128.989 83.455 129.026 83.279L129.945 78.933C129.982 78.7569 130.054 78.5899 130.155 78.4415C130.257 78.2931 130.387 78.1662 130.538 78.0681C130.689 77.9699 130.857 77.9024 131.034 77.8695C131.211 77.8365 131.393 77.8387 131.569 77.876L143.998 80.505C144.174 80.5421 144.341 80.6135 144.489 80.7153C144.638 80.817 144.765 80.947 144.863 81.0978C144.961 81.2487 145.029 81.4174 145.062 81.5943C145.094 81.7712 145.092 81.9529 145.055 82.129L144.136 86.475C144.099 86.651 144.027 86.818 143.925 86.9664C143.824 87.1148 143.694 87.2417 143.543 87.3399C143.392 87.438 143.223 87.5055 143.046 87.5385C142.869 87.5715 142.688 87.5692 142.512 87.532Z" fill="#F6EEFF"/>
</g>
</g>
<g opacity="0.59">
<mask id="mask7_246_1516" style="mask-type:luminance" maskUnits="userSpaceOnUse" x="127" y="86" width="17" height="10">
<path d="M143.122 86.223H127.033V95.938H143.122V86.223Z" fill="white"/>
</mask>
<g mask="url(#mask7_246_1516)">
<path d="M140.549 95.908L128.12 93.279C127.944 93.2418 127.777 93.1703 127.628 93.0685C127.48 92.9667 127.353 92.8367 127.255 92.6859C127.157 92.5351 127.089 92.3664 127.056 92.1896C127.023 92.0127 127.026 91.831 127.063 91.655L127.982 87.309C128.019 87.1329 128.091 86.9659 128.192 86.8175C128.294 86.6691 128.424 86.5423 128.575 86.4441C128.726 86.346 128.894 86.2785 129.071 86.2455C129.248 86.2125 129.43 86.2147 129.606 86.252L142.035 88.881C142.211 88.9181 142.378 88.9895 142.527 89.0913C142.675 89.193 142.802 89.323 142.9 89.4738C142.998 89.6247 143.066 89.7934 143.099 89.9703C143.132 90.1473 143.129 90.3289 143.092 90.505L142.173 94.851C142.136 95.027 142.064 95.194 141.962 95.3424C141.861 95.4908 141.731 95.6177 141.58 95.7159C141.429 95.814 141.26 95.8815 141.083 95.9145C140.907 95.9474 140.725 95.9452 140.549 95.908Z" fill="#F6EEFF"/>
</g>
</g>
<path d="M135.079 98.101C135.079 98.2922 135.022 98.4792 134.916 98.6383C134.809 98.7973 134.658 98.9212 134.482 98.9944C134.305 99.0676 134.11 99.0867 133.923 99.0494C133.735 99.0121 133.563 98.92 133.428 98.7848C133.293 98.6495 133.2 98.4772 133.163 98.2896C133.126 98.1021 133.145 97.9076 133.218 97.7309C133.291 97.5542 133.415 97.4032 133.574 97.297C133.733 97.1907 133.92 97.134 134.112 97.134C134.368 97.134 134.614 97.2359 134.795 97.4172C134.977 97.5986 135.079 97.8445 135.079 98.101Z" fill="#510394"/>
<path d="M254.456 174.434H186.128V137.199C186.128 137.199 185.34 125.475 220.292 125.475C255.244 125.475 254.456 137.199 254.456 137.199V174.434Z" fill="#FFAC00"/>
<path d="M252.045 170.052C251.559 169.847 251.036 169.741 250.508 169.742H190.075C189.027 169.742 188.023 170.158 187.282 170.899C186.541 171.64 186.125 172.644 186.125 173.692C186.125 174.74 186.541 175.744 187.282 176.485C188.023 177.226 189.027 177.642 190.075 177.642H192.256V181.621H198.634V177.642H241.949V181.621H248.327V177.642H250.508C251.419 177.641 252.301 177.325 253.006 176.749C253.711 176.172 254.194 175.369 254.375 174.476C254.556 173.584 254.423 172.656 253.998 171.85C253.574 171.045 252.884 170.41 252.045 170.055" fill="#FF7F00"/>
<path d="M126.689 174.434H58.3608V137.199C58.3608 137.199 57.5728 125.475 92.5248 125.475C127.477 125.475 126.689 137.199 126.689 137.199V174.434Z" fill="#FFAC00"/>
<path d="M124.277 170.052C123.791 169.847 123.268 169.741 122.74 169.742H62.3074C61.2598 169.742 60.2551 170.158 59.5143 170.899C58.7736 171.64 58.3574 172.644 58.3574 173.692C58.3574 174.74 58.7736 175.744 59.5143 176.485C60.2551 177.226 61.2598 177.642 62.3074 177.642H64.4884V181.621H70.8684V177.642H114.183V181.621H120.561V177.642H122.742C123.653 177.641 124.536 177.325 125.24 176.749C125.945 176.172 126.429 175.369 126.61 174.476C126.791 173.584 126.657 172.656 126.233 171.85C125.808 171.045 125.118 170.41 124.279 170.055" fill="#FF7F00"/>
<path d="M108.19 89.385C108.19 89.385 119.175 88.613 121.748 86.833C124.321 85.053 123.694 84.233 125.891 84.233C128.043 84.4269 130.168 84.8476 132.231 85.488L126.645 86.053C126.645 86.053 126.896 91.263 125.076 91.702C123.256 92.141 123.067 91.514 121.376 92.141C119.685 92.768 111.207 97.79 105.244 97.916C99.2812 98.042 108.194 89.379 108.194 89.379" fill="white"/>
<path d="M105.118 98.266C103.965 98.266 103.24 97.93 102.962 97.266C102.015 95.002 107.342 89.733 107.953 89.14C108.01 89.0823 108.086 89.0469 108.167 89.04C108.276 89.032 119.087 88.254 121.555 86.548C122.232 86.0888 122.854 85.5518 123.406 84.948C123.692 84.5699 124.072 84.2735 124.509 84.0884C124.945 83.9032 125.422 83.8359 125.893 83.893C128.079 84.0832 130.238 84.509 132.332 85.163C132.408 85.1857 132.474 85.2342 132.518 85.3C132.562 85.3658 132.582 85.4449 132.574 85.5237C132.567 85.6026 132.532 85.6764 132.476 85.7324C132.42 85.7885 132.346 85.8233 132.267 85.831L126.999 86.364C127.028 87.618 126.974 91.599 125.157 92.038C124.54 92.1963 123.902 92.2517 123.267 92.202C122.663 92.143 122.053 92.2337 121.492 92.466C121.142 92.596 120.445 92.944 119.562 93.385C116.219 95.055 109.995 98.162 105.249 98.262H105.119M108.342 89.714C106.167 91.847 103.024 95.634 103.595 96.999C103.764 97.399 104.316 97.599 105.235 97.577C109.828 97.477 115.962 94.417 119.257 92.772C120.194 92.304 120.87 91.966 121.257 91.824C121.906 91.5587 122.608 91.4537 123.306 91.518C123.875 91.5636 124.447 91.5142 125 91.372C126.125 91.1 126.4 87.972 126.308 86.072C126.304 85.9845 126.333 85.8987 126.39 85.8322C126.447 85.7658 126.528 85.7239 126.615 85.715L130.373 85.335C128.912 84.9259 127.412 84.6718 125.897 84.577C125.52 84.5197 125.135 84.5679 124.784 84.7162C124.433 84.8644 124.13 85.107 123.908 85.417C123.323 86.0559 122.665 86.6247 121.949 87.112C119.449 88.84 109.636 89.619 108.349 89.712" fill="#510394"/>
<path d="M145.789 167.173C144.889 168.42 144.619 171.316 146.189 172.361C147.759 173.406 147.781 173.042 148.754 174.202C149.727 175.362 155.332 181.617 155.332 181.617L156.232 180.18C156.232 180.18 149.912 173.843 150.583 173.136C151.254 172.429 154.883 173.892 156.918 175.65C158.953 177.408 159.845 178.969 162.079 177.912C164.313 176.855 167.466 173.731 167.233 173.37C166.65 172.47 160.969 172.288 160.406 171.719C159.843 171.15 154.376 167.063 150.642 166.559C146.908 166.055 145.789 167.172 145.789 167.172" fill="#510394"/>
<path d="M120.199 131.896C120.199 131.896 136.983 148.85 141.86 156.245C146.737 163.64 146.265 167.101 146.265 167.101C146.265 167.101 148.465 166.629 149.726 167.494C150.987 168.359 156.334 173.079 160.346 171.978C158.581 170.379 157.139 168.456 156.098 166.314C153.898 162.223 148.546 151.839 145.163 146.333C141.78 140.827 123.663 115.069 121.414 113.122C119.165 111.175 120.199 131.896 120.199 131.896Z" fill="white"/>
<path d="M159.072 172.485C155.71 172.485 151.945 169.608 150.217 168.285C149.923 168.06 149.691 167.885 149.532 167.774C148.412 167.004 146.357 167.429 146.332 167.433C146.278 167.444 146.222 167.443 146.169 167.428C146.116 167.413 146.068 167.386 146.027 167.349C145.987 167.312 145.957 167.265 145.938 167.214C145.919 167.162 145.913 167.106 145.921 167.052C145.921 167.02 146.288 163.586 141.569 156.431C136.769 149.149 120.118 132.303 119.95 132.131C119.89 132.071 119.854 131.991 119.85 131.907C119.85 131.862 119.625 127.335 119.614 122.765C119.591 113.321 120.473 112.892 120.85 112.708C120.979 112.648 121.124 112.63 121.265 112.657C121.405 112.683 121.533 112.753 121.632 112.857C123.855 114.784 141.96 140.469 145.449 146.148C148.07 150.415 151.92 157.701 154.469 162.522C155.234 163.969 155.894 165.222 156.393 166.146C157.418 168.242 158.827 170.126 160.549 171.701C160.599 171.74 160.637 171.792 160.66 171.851C160.682 171.911 160.687 171.975 160.675 172.037C160.663 172.1 160.633 172.157 160.59 172.204C160.547 172.25 160.492 172.284 160.431 172.301C159.986 172.42 159.527 172.48 159.067 172.477M147.605 166.622C148.415 166.586 149.218 166.788 149.914 167.204C150.087 167.323 150.325 167.504 150.627 167.736C152.392 169.085 156.376 172.127 159.597 171.764C158.069 170.199 156.786 168.412 155.791 166.464C155.291 165.535 154.63 164.284 153.864 162.835C151.32 158.021 147.475 150.747 144.864 146.499C141.387 140.839 123.381 115.273 121.182 113.367C121.166 113.352 121.148 113.339 121.13 113.328C120.408 113.838 119.989 120.806 120.53 131.735C121.88 133.105 137.489 148.989 142.142 156.043C146.107 162.054 146.587 165.511 146.616 166.683C146.945 166.639 147.276 166.617 147.608 166.617" fill="#510394"/>
<path d="M122.147 169.203C120.71 169.758 118.913 172.045 119.665 173.776C120.417 175.507 120.631 175.213 120.818 176.716C121.005 178.219 122.311 186.516 122.311 186.516L123.846 185.798C123.846 185.798 121.984 177.044 122.931 176.815C123.878 176.586 126.131 179.787 126.884 182.368C127.637 184.949 127.537 186.745 129.984 187.068C132.431 187.391 136.778 186.485 136.778 186.056C136.778 184.982 132.107 181.744 131.944 180.956C131.781 180.168 129.412 173.77 126.552 171.319C123.692 168.868 122.145 169.197 122.145 169.197" fill="#510394"/>
<path d="M109.248 106.774C109.248 106.774 115.532 102.204 118.981 103.412C122.43 104.62 125.266 121.712 125.952 135.988C126.638 150.264 127.873 167.363 128.6 169.326C129.327 171.289 131.144 179.688 131.144 179.688C131.144 179.688 128.018 173.688 125.838 172.379C123.658 171.07 121.404 170.925 121.404 169.762C121.404 168.599 117.825 146.462 117.004 141.283C116.183 136.104 113.604 124.883 112.729 124.876C111.616 125.132 110.546 125.55 109.554 126.116L109.248 106.774Z" fill="white"/>
<path d="M131.146 180.028C131.084 180.027 131.024 180.01 130.971 179.978C130.918 179.945 130.875 179.899 130.846 179.844C130.815 179.785 127.74 173.914 125.667 172.671C124.909 172.236 124.115 171.868 123.294 171.571C122.05 171.087 121.067 170.704 121.067 169.756C121.067 168.832 118.567 153.162 117.359 145.632C117.064 143.787 116.823 142.276 116.673 141.332C115.801 135.811 113.455 126.098 112.659 125.217C111.63 125.48 110.642 125.884 109.723 126.417C109.671 126.445 109.613 126.459 109.553 126.458C109.494 126.457 109.436 126.441 109.386 126.41C109.335 126.38 109.292 126.337 109.263 126.286C109.234 126.234 109.218 126.176 109.218 126.117L108.91 106.775C108.909 106.72 108.922 106.666 108.946 106.617C108.971 106.568 109.007 106.525 109.051 106.493C109.314 106.302 115.522 101.833 119.099 103.084C120.842 103.694 122.438 107.612 123.843 114.729C125.154 121.743 125.975 128.839 126.298 135.967C126.981 150.176 128.228 167.32 128.925 169.203C129.652 171.165 131.408 179.267 131.483 179.611C131.5 179.692 131.488 179.776 131.448 179.849C131.408 179.921 131.343 179.977 131.265 180.005C131.228 180.018 131.189 180.025 131.149 180.025M112.732 124.525H112.737C113.084 124.525 113.609 124.525 115.227 131.048C116.075 134.463 116.927 138.548 117.349 141.221C117.498 142.166 117.74 143.676 118.035 145.521C119.835 156.772 121.751 168.851 121.751 169.753C121.751 170.211 122.398 170.485 123.542 170.93C124.4 171.24 125.228 171.623 126.019 172.077C127.437 172.928 129.188 175.59 130.314 177.49C129.722 174.861 128.759 170.719 128.284 169.437C127.554 167.467 126.315 150.555 125.615 135.997C125.293 128.903 124.477 121.84 123.172 114.859C121.872 108.287 120.308 104.23 118.872 103.728C115.909 102.69 110.543 106.285 109.597 106.943L109.897 125.55C110.779 125.051 111.738 124.706 112.735 124.527" fill="#510394"/>
<path d="M98.8409 68.329C98.8409 68.329 101.976 68.801 102.375 69.842C104.82 76.212 94.6109 106.797 96.6819 108.764C98.7529 110.731 111.174 102.864 112.934 102.864C114.694 102.864 114.59 107.833 115.315 110.11C116.04 112.387 115.108 117.874 112.624 122.325C110.14 126.776 114.901 126.259 110.243 129.675C105.585 133.091 96.9929 139.405 81.8799 138.475C66.7669 137.545 64.7998 128.227 65.3178 120.049C65.8358 111.871 78.6719 64.565 85.9129 66.738L98.8409 68.329Z" fill="#FF6902"/>
<path d="M107.722 91.292C107.722 91.292 102.643 111.958 102.468 115.373C102.293 118.788 99.3178 136.564 99.3178 136.564C99.3178 136.564 106.027 138.096 106.718 138.378C107.409 138.66 109.939 142.978 109.939 142.978H109.251L108.688 144.385L107.937 143.009L107.405 144.385L105.716 141.977C105.716 141.977 99.8358 143.447 97.3658 143.416C94.8958 143.385 93.2998 142.853 93.4248 140.382C93.5498 137.911 94.5598 111.503 95.1478 106.922C95.7358 102.341 99.9598 90.474 99.9598 90.474L107.722 91.292Z" fill="white"/>
<path d="M108.685 144.725C108.624 144.725 108.563 144.708 108.511 144.677C108.458 144.645 108.414 144.6 108.385 144.546L107.985 143.818L107.719 144.506C107.697 144.564 107.659 144.615 107.61 144.653C107.561 144.691 107.503 144.716 107.441 144.723C107.379 144.731 107.317 144.721 107.26 144.696C107.203 144.67 107.155 144.63 107.119 144.579L105.565 142.363C102.875 143.067 100.128 143.533 97.3561 143.756C96.0491 143.739 94.6011 143.603 93.7691 142.717C93.4969 142.394 93.2949 142.018 93.176 141.613C93.057 141.207 93.0237 140.782 93.0781 140.363C93.1021 139.894 93.1581 138.542 93.2361 136.67C93.5621 128.87 94.3251 110.601 94.8031 106.876C95.3881 102.311 99.4631 90.845 99.6361 90.359C99.6619 90.2867 99.7112 90.2252 99.7761 90.1842C99.841 90.1432 99.9178 90.1252 99.9941 90.133L107.754 90.952C107.803 90.9566 107.85 90.9717 107.893 90.9963C107.935 91.0209 107.972 91.0543 108.001 91.0944C108.029 91.1344 108.049 91.1801 108.058 91.2284C108.067 91.2766 108.066 91.3263 108.054 91.374C108.003 91.58 102.981 112.047 102.81 115.391C102.647 118.576 100.122 133.821 99.7101 136.303C101.146 136.632 106.216 137.803 106.847 138.062C107.585 138.362 109.626 141.767 110.234 142.803C110.265 142.855 110.282 142.915 110.282 142.976C110.282 143.037 110.266 143.096 110.235 143.149C110.205 143.202 110.161 143.245 110.108 143.275C110.055 143.305 109.995 143.32 109.934 143.319H109.478L109.001 144.511C108.977 144.572 108.936 144.624 108.883 144.662C108.829 144.701 108.766 144.723 108.701 144.726H108.681M105.71 141.633C105.765 141.633 105.819 141.646 105.868 141.672C105.917 141.697 105.959 141.734 105.99 141.779L107.311 143.662L107.611 142.884C107.635 142.823 107.675 142.77 107.728 142.731C107.78 142.693 107.843 142.67 107.908 142.665C107.974 142.661 108.039 142.676 108.096 142.707C108.153 142.739 108.2 142.787 108.231 142.844L108.631 143.582L108.924 142.85C108.95 142.786 108.993 142.732 109.05 142.694C109.107 142.655 109.174 142.635 109.242 142.635H109.329C108.566 141.221 107.643 139.899 106.578 138.696C106.037 138.474 101.094 137.324 99.2361 136.896C99.1511 136.877 99.0767 136.825 99.0282 136.753C98.9797 136.68 98.9607 136.592 98.9751 136.506C99.0051 136.328 101.949 118.706 102.121 115.354C102.285 112.161 106.577 94.508 107.291 91.59L100.191 90.841C99.5771 92.587 96.0101 102.841 95.4821 106.962C95.0081 110.657 94.2461 128.905 93.9201 136.697C93.8421 138.571 93.7851 139.924 93.7611 140.397C93.7143 140.724 93.7351 141.057 93.8221 141.375C93.9092 141.693 94.0606 141.991 94.2671 142.248C94.7821 142.797 95.7371 143.048 97.3671 143.071C99.7671 143.109 105.567 141.657 105.63 141.643C105.657 141.636 105.685 141.633 105.713 141.633" fill="#510394"/>
<path d="M95.2078 59.44C95.2078 59.44 92.9358 63.415 93.0078 65.261C93.0798 67.107 99.8228 68.171 100.462 69.161C101.101 70.151 97.0508 71.504 93.0068 70.652C90.6973 70.2947 88.4675 69.5388 86.4168 68.418C85.2808 67.779 85.9938 56.506 89.2588 55.654C92.5238 54.802 95.2088 59.435 95.2088 59.435" fill="white"/>
<path d="M95.6715 71.273C94.7524 71.2746 93.8355 71.1815 92.9355 70.995C90.5931 70.6261 88.3314 69.8583 86.2485 68.725C85.3165 68.2 85.5355 64.457 85.7825 62.55C86.0375 60.579 86.8825 55.93 89.1725 55.331C92.6505 54.424 95.3905 59.074 95.5045 59.272C95.5344 59.324 95.5502 59.383 95.5502 59.443C95.5502 59.503 95.5344 59.562 95.5045 59.614C95.4825 59.653 93.2825 63.525 93.3485 65.252C93.3825 66.132 96.0025 67.008 97.7365 67.589C99.4705 68.17 100.446 68.513 100.749 68.989C100.833 69.119 100.874 69.2717 100.868 69.4264C100.862 69.581 100.809 69.73 100.715 69.853C100.161 70.653 98.0725 71.277 95.6705 71.277M90.0645 55.903C89.8215 55.9031 89.5795 55.9344 89.3445 55.996C88.3595 56.253 87.4595 57.833 86.8735 60.331C86.0315 63.923 86.1735 67.768 86.5925 68.136C87.5785 68.69 88.9415 69.456 93.0765 70.327C96.4005 71.027 99.6535 70.184 100.151 69.462C100.197 69.395 100.186 69.378 100.174 69.356C99.3525 68.8483 98.4574 68.4715 97.5205 68.239C95.1595 67.449 92.7205 66.632 92.6655 65.28C92.5995 63.566 94.3655 60.266 94.8115 59.454C94.3535 58.736 92.3985 55.903 90.0655 55.903" fill="#510394"/>
<path d="M100.19 46.825L102.717 54.912H100.84C100.84 54.912 101.562 59.894 100.407 60.978C99.2518 62.062 96.6478 62.241 93.4708 59.641C91.0218 57.641 91.1598 54.514 91.3768 52.204C91.5938 49.894 95.4958 46.104 100.19 46.825Z" fill="white"/>
<path d="M98.268 62.071C96.3979 61.943 94.6279 61.179 93.252 59.906C90.519 57.669 90.852 54.093 91.034 52.172C91.37 50.6014 92.2956 49.2196 93.62 48.311C94.5409 47.5718 95.6031 47.0286 96.7415 46.7148C97.8799 46.401 99.0704 46.3231 100.24 46.486C100.303 46.4956 100.363 46.5228 100.411 46.5646C100.46 46.6063 100.496 46.6608 100.515 46.722L103.042 54.809C103.058 54.8602 103.061 54.9145 103.052 54.9673C103.043 55.0202 103.022 55.0702 102.99 55.1134C102.959 55.1566 102.917 55.1917 102.869 55.2159C102.821 55.2402 102.769 55.2529 102.715 55.253H101.229C101.386 56.529 101.729 60.205 100.639 61.226C99.9856 61.7999 99.1371 62.1016 98.268 62.069M98.994 47.069C97.1924 47.0987 95.4511 47.7231 94.041 48.845C92.8716 49.6445 92.0425 50.8515 91.716 52.23C91.466 54.897 91.532 57.608 93.686 59.371C95.725 61.039 98.624 62.171 100.172 60.723C100.919 60.023 100.772 56.814 100.501 54.956C100.494 54.9074 100.497 54.8579 100.511 54.8108C100.525 54.7636 100.549 54.7201 100.581 54.683C100.613 54.6459 100.653 54.6161 100.698 54.5958C100.742 54.5754 100.791 54.5649 100.84 54.565H102.252L99.928 47.129C99.6189 47.0899 99.3076 47.0702 98.996 47.07" fill="#510394"/>
<path d="M100.696 44.123C95.6865 40.523 83.6235 40.905 82.9955 51.631C82.5955 58.507 85.5875 60.552 85.5875 61.767C85.5875 62.982 79.4205 65.932 79.8675 72.993C80.3145 80.054 82.6815 88.545 79.8445 93.372C77.0075 98.199 76.2845 103.635 79.3315 103.919C89.8785 104.902 90.6315 66.473 88.5735 62.356C87.4935 60.194 92.8205 62.056 98.7275 52.883C101.867 48.007 101.977 45.046 100.694 44.124" fill="#510394"/>
<path d="M101.769 69.233C101.769 69.233 108.721 71.625 109.575 77.905C110.429 84.185 110.185 92.05 108.904 92.355C107.623 92.66 99.4535 93.331 97.8035 91.867C96.1535 90.403 98.4035 71.839 101.765 69.233" fill="#FF6902"/>
<path d="M105.452 93.012C102.867 92.9765 100.29 92.7087 97.7523 92.212C97.1343 92.099 96.6143 91.306 96.9903 86.32C97.1903 83.656 97.5713 80.99 97.5753 80.964C97.5886 80.8741 97.637 80.7931 97.7099 80.7389C97.7829 80.6847 97.8744 80.6617 97.9643 80.675C98.0542 80.6883 98.1351 80.7367 98.1893 80.8096C98.2435 80.8826 98.2665 80.9741 98.2533 81.064C97.4893 86.392 97.3233 91.192 97.8903 91.546C104.19 92.702 107.335 92.24 107.366 92.235C107.456 92.2209 107.547 92.2431 107.621 92.2965C107.694 92.35 107.743 92.4304 107.757 92.52C107.771 92.6096 107.749 92.7012 107.696 92.7745C107.642 92.8479 107.562 92.897 107.472 92.911C106.804 92.9946 106.131 93.0307 105.458 93.019" fill="#510394"/>
<path d="M109.251 143.318C109.202 143.318 109.153 143.308 109.109 143.288C109.064 143.267 109.025 143.238 108.993 143.201L106.45 140.295L101.609 139.289C101.565 139.28 101.523 139.262 101.486 139.237C101.449 139.212 101.417 139.179 101.392 139.142C101.342 139.066 101.325 138.973 101.343 138.884C101.362 138.796 101.414 138.718 101.49 138.668C101.566 138.618 101.659 138.601 101.748 138.619L106.701 139.648C106.774 139.663 106.84 139.702 106.889 139.758L109.508 142.75C109.551 142.799 109.579 142.86 109.589 142.925C109.599 142.991 109.59 143.057 109.562 143.117C109.535 143.177 109.491 143.228 109.436 143.264C109.381 143.299 109.316 143.318 109.251 143.318Z" fill="#510394"/>
<path d="M107.936 143.35C107.889 143.35 107.841 143.34 107.797 143.321C107.754 143.302 107.715 143.273 107.682 143.238L105.802 141.164L101.822 140.347C101.733 140.329 101.655 140.276 101.605 140.2C101.555 140.124 101.538 140.032 101.556 139.943C101.574 139.854 101.627 139.775 101.703 139.725C101.779 139.676 101.871 139.658 101.96 139.676L106.049 140.516C106.121 140.531 106.185 140.567 106.234 140.621L108.189 142.778C108.234 142.827 108.263 142.888 108.274 142.953C108.284 143.019 108.276 143.086 108.249 143.146C108.222 143.207 108.178 143.258 108.123 143.295C108.067 143.331 108.003 143.35 107.936 143.35Z" fill="#510394"/>
<path d="M172.397 176.903C172.397 176.903 164.53 182.379 165.117 183.377C165.704 184.375 171.323 187.342 173.997 185.49C176.671 183.638 178.692 178.222 178.692 178.222L177.103 184.856L179.182 185.046C179.182 185.046 178.976 180.4 180.094 179.155C181.212 177.91 183.458 176.485 182.548 174.423C181.638 172.361 180.48 168.278 179.079 169.23C177.678 170.182 172.392 176.903 172.392 176.903" fill="#510394"/>
<path d="M173.742 162.503C173.742 162.503 173.552 169.295 173.034 170.754C172.516 172.213 167.498 181.444 167.498 181.444C167.498 181.444 176.298 177.131 177.881 174.552C179.464 171.973 180.369 169.687 179.081 169.23C177.793 168.773 178.668 163.866 178.668 163.866L173.742 162.503Z" fill="white"/>
<path d="M167.494 181.786C167.435 181.786 167.377 181.771 167.325 181.741C167.274 181.712 167.23 181.669 167.2 181.618C167.17 181.567 167.153 181.509 167.152 181.45C167.151 181.391 167.166 181.332 167.194 181.28C167.244 181.188 172.205 172.055 172.708 170.638C173.108 169.525 173.331 164.823 173.397 162.492C173.399 162.44 173.412 162.389 173.436 162.343C173.46 162.297 173.494 162.257 173.536 162.227C173.578 162.196 173.626 162.175 173.677 162.165C173.728 162.156 173.78 162.158 173.83 162.172L178.756 163.535C178.838 163.558 178.909 163.61 178.954 163.683C179 163.755 179.016 163.841 179.001 163.925C178.601 166.157 178.586 168.692 179.192 168.907C179.366 168.965 179.523 169.061 179.653 169.19C179.783 169.318 179.882 169.474 179.941 169.647C180.271 170.581 179.691 172.247 178.169 174.73C176.556 177.364 168.008 181.572 167.645 181.75C167.598 181.773 167.547 181.786 167.494 181.786ZM174.067 162.948C174.015 164.49 173.811 169.578 173.352 170.867C172.926 172.067 169.623 178.224 168.316 180.643C170.635 179.443 176.38 176.343 177.585 174.373C179.406 171.4 179.438 170.279 179.296 169.873C179.271 169.796 179.228 169.727 179.17 169.67C179.112 169.614 179.042 169.572 178.964 169.549C178.264 169.3 177.964 168.256 178.047 166.358C178.085 165.606 178.162 164.856 178.277 164.111L174.067 162.948Z" fill="#510394"/>
<path d="M211.715 112.073C211.715 112.073 182.966 104.66 178.597 108C174.228 111.34 173.255 123.641 173.733 130.678C174.211 137.715 173.008 160.829 172.558 162.491C172.108 164.153 179.927 165.809 179.927 165.809C179.927 165.809 184.927 144.232 186.615 139.482C188.303 134.732 187.768 123.612 187.768 123.612C187.768 123.612 204.448 132.412 213.646 132.018C224.96 131.528 231.469 126.339 230.946 118.902C230.423 111.465 211.719 112.073 211.719 112.073" fill="#3A3E3F"/>
<path d="M200.413 87.922C200.413 87.922 197.977 91.892 196.44 92.299C194.903 92.706 183.24 87.171 182.264 85.799C181.288 84.427 180.299 80.192 179.064 79.753C177.829 79.314 171.051 76.321 171.051 76.321L175.13 79.895C175.13 79.895 173.692 80.85 173.66 81.351C173.628 81.852 173.933 86.357 175.3 86.843C176.667 87.329 180.805 87.843 182.717 89.477C184.629 91.111 194.475 100.467 197.544 99.877C200.613 99.287 205.51 91.622 205.51 91.622L200.413 87.922Z" fill="white"/>
<path d="M197.253 100.24C194.591 100.24 188.925 95.491 183.675 90.783C183.16 90.321 182.753 89.956 182.496 89.737C181.17 88.605 178.679 88.025 176.861 87.602C176.172 87.442 175.578 87.302 175.187 87.165C173.44 86.544 173.317 81.38 173.32 81.33C173.35 80.851 174.051 80.251 174.577 79.865L170.826 76.579C170.764 76.5254 170.723 76.451 170.711 76.3696C170.699 76.2881 170.716 76.205 170.761 76.1356C170.805 76.0662 170.873 76.015 170.952 75.9916C171.031 75.9682 171.115 75.974 171.19 76.008C171.258 76.038 177.969 79.001 179.179 79.431C180.079 79.751 180.73 81.403 181.42 83.152C181.713 84.0035 182.09 84.8239 182.545 85.601C182.945 86.168 185.845 87.801 189.289 89.407C193.273 91.263 195.858 92.101 196.355 91.969C197.506 91.669 199.466 88.816 200.123 87.744C200.148 87.7036 200.18 87.6686 200.219 87.6414C200.258 87.6142 200.302 87.5953 200.348 87.5859C200.394 87.5765 200.442 87.5768 200.488 87.5868C200.534 87.5968 200.578 87.6163 200.616 87.644L205.716 91.338C205.787 91.3894 205.835 91.4659 205.851 91.5517C205.868 91.6376 205.85 91.7264 205.803 91.8C205.603 92.118 200.79 99.59 197.613 100.206C197.496 100.228 197.376 100.239 197.256 100.238M172.956 77.527L175.363 79.636C175.403 79.6706 175.434 79.7139 175.454 79.7626C175.475 79.8112 175.483 79.8638 175.48 79.9164C175.476 79.969 175.461 80.02 175.434 80.0656C175.408 80.1111 175.371 80.1499 175.327 80.179C174.808 80.4806 174.358 80.8897 174.009 81.379C173.96 82.157 174.409 86.161 175.422 86.522C175.777 86.648 176.354 86.782 177.022 86.938C178.909 87.377 181.493 87.979 182.946 89.219C183.209 89.444 183.619 89.811 184.138 90.276C187.109 92.941 194.999 100.022 197.486 99.538C198.66 99.31 200.364 97.849 202.415 95.313C203.644 93.793 204.658 92.3 205.052 91.705L200.516 88.417C199.872 89.417 197.948 92.259 196.536 92.633C194.784 93.095 183.002 87.417 181.993 86C181.505 85.1786 181.103 84.309 180.793 83.405C180.246 82.019 179.566 80.293 178.96 80.078C178.151 79.791 175.066 78.452 172.96 77.531" fill="#510394"/>
<path d="M212.766 68.016C210.674 69.275 206.137 72.886 206.492 75.509C206.847 78.132 203.474 83.368 203.492 86.097C203.51 88.826 209.275 90.271 209.029 94.797C208.783 99.323 209.948 112.444 209.05 114.971C208.152 117.498 215.924 124.997 223.54 123.958C231.156 122.919 235.774 116.858 234.524 110.987C233.274 105.116 229.069 74.367 224.275 70.473C219.481 66.579 212.775 68.012 212.775 68.012" fill="#FF6902"/>
<path d="M213.053 62.106C213.053 62.106 213.123 67.283 212.767 68.016C212.411 68.749 218.667 68.871 219.478 66.583C220.289 64.295 215.251 60.216 215.251 60.216L213.053 62.106Z" fill="white"/>
<path d="M214.563 68.83C213.63 68.83 212.763 68.704 212.504 68.356C212.452 68.2866 212.42 68.2042 212.412 68.1179C212.404 68.0316 212.42 67.9447 212.459 67.867C212.711 65.9594 212.795 64.0334 212.711 62.111C212.71 62.061 212.72 62.0114 212.741 61.9658C212.762 61.9202 212.792 61.8797 212.83 61.847L215.03 59.956C215.091 59.9037 215.168 59.8743 215.248 59.8731C215.328 59.8718 215.406 59.8987 215.469 59.949C216.345 60.676 217.167 61.4665 217.928 62.314C219.554 64.147 220.185 65.622 219.803 66.697C219.318 68.063 217.346 68.545 216.213 68.711C215.667 68.7888 215.117 68.8282 214.566 68.829M213.141 67.984C214.486 68.2476 215.874 68.1873 217.191 67.808C217.946 67.595 218.901 67.19 219.157 66.467C219.726 64.867 216.718 61.894 215.257 60.667L213.399 62.267C213.463 64.1789 213.376 66.0928 213.14 67.991" fill="#510394"/>
<path d="M207.453 54.401C207.453 54.401 206.919 62.694 210.564 63.901C214.209 65.108 216.442 61.165 216.625 60.648C216.808 60.131 215.565 54.034 207.453 54.396" fill="white"/>
<path d="M211.93 64.475C211.429 64.4728 210.932 64.3897 210.458 64.229C206.607 62.949 207.091 54.729 207.113 54.378C207.118 54.2939 207.154 54.2148 207.215 54.1558C207.275 54.0968 207.354 54.062 207.439 54.058C212.104 53.85 214.511 55.731 215.706 57.347C216.508 58.306 216.948 59.5165 216.949 60.767C216.514 61.6923 215.891 62.5161 215.118 63.185C214.249 63.9925 213.114 64.4521 211.929 64.476M207.781 54.732C207.737 56.0446 207.804 57.3586 207.981 58.66C208.262 60.59 208.956 63.011 210.671 63.581C214.245 64.769 216.286 60.581 216.302 60.539C216.152 59.3287 215.623 58.1969 214.79 57.306C213.701 56.071 211.609 54.643 207.779 54.733" fill="#510394"/>
<path d="M204.472 47.957C201.423 52.735 207.813 56.575 210.5 57.088C213.187 57.601 215.4 64.64 215.311 66.743C215.222 68.846 215.069 72.396 220.882 73.431C226.695 74.466 234.561 64.972 230.176 63.009C224.208 60.338 223.137 47.817 218.146 45.087C211.819 41.627 207.458 43.277 204.471 47.956" fill="#510394"/>
<path d="M207.695 72.417C207.695 72.417 198.609 84.977 197.738 86.917C196.867 88.857 203.375 93.694 205.45 94.792C207.525 95.89 212.985 85.845 213.804 83.792C214.623 81.739 212.543 73.304 207.694 72.412" fill="#FF6902"/>
<path d="M208.612 92.907C208.547 92.9066 208.483 92.8873 208.427 92.8515C208.372 92.8156 208.329 92.7647 208.302 92.7047C208.275 92.6448 208.266 92.5783 208.275 92.5133C208.285 92.4483 208.313 92.3875 208.356 92.338C209.533 91.004 213.462 83.708 213.502 83.638C213.549 83.5657 213.621 83.5137 213.705 83.4923C213.788 83.471 213.877 83.4818 213.952 83.5227C214.028 83.5636 214.085 83.6315 214.113 83.7129C214.141 83.7944 214.137 83.8833 214.102 83.962C213.939 84.262 210.096 91.402 208.867 92.795C208.835 92.8315 208.796 92.8607 208.752 92.8807C208.707 92.9007 208.659 92.911 208.611 92.911" fill="#510394"/>
</g>
</g>
</g>
<defs>
<linearGradient id="paint0_linear_246_1516" x1="0.144629" y1="193.231" x2="0.144629" y2="193.231" gradientUnits="userSpaceOnUse">
<stop stop-color="#D3D6DB"/>
<stop offset="0.999" stop-color="#7A869B"/>
<stop offset="1" stop-color="#7A869B"/>
</linearGradient>
<clipPath id="clip0_246_1516">
<rect width="339" height="193.244" fill="white"/>
</clipPath>
</defs>
</svg>
