<svg width="339" height="225" viewBox="0 0 339 225" fill="none" xmlns="http://www.w3.org/2000/svg">
<g clip-path="url(#clip0_246_1361)">
<mask id="mask0_246_1361" style="mask-type:luminance" maskUnits="userSpaceOnUse" x="0" y="0" width="339" height="225">
<path d="M339 0H0V224.415H339V0Z" fill="white"/>
</mask>
<g mask="url(#mask0_246_1361)">
<mask id="mask1_246_1361" style="mask-type:luminance" maskUnits="userSpaceOnUse" x="0" y="0" width="339" height="225">
<path d="M338.999 0H0V224.415H338.999V0Z" fill="white"/>
</mask>
<g mask="url(#mask1_246_1361)">
<g opacity="0.59">
<mask id="mask2_246_1361" style="mask-type:luminance" maskUnits="userSpaceOnUse" x="0" y="14" width="339" height="178">
<path d="M339 14.037H0V191.935H339V14.037Z" fill="white"/>
</mask>
<g mask="url(#mask2_246_1361)">
<path d="M0.133526 96.449C-3.73647 16.849 77.5425 4.242 110.64 19.88C124.895 26.615 119.24 40.88 133.483 56.18C174.155 99.855 287.264 61.753 316.983 96.058C336.247 118.292 347.371 141.942 331.242 164.076C282.836 230.507 3.52153 166.114 0.133526 96.449Z" fill="#F6F5FA"/>
</g>
</g>
</g>
<mask id="mask3_246_1361" style="mask-type:luminance" maskUnits="userSpaceOnUse" x="112" y="0" width="106" height="212">
<path d="M127.208 3.41982e-08C125.287 -0.000131304 123.386 0.37804 121.611 1.11292C119.837 1.8478 118.225 2.92499 116.867 4.28298C115.509 5.64097 114.432 7.25316 113.697 9.02748C112.962 10.8018 112.584 12.7035 112.584 14.624V196.633C112.584 200.512 114.125 204.231 116.867 206.974C119.61 209.716 123.329 211.257 127.208 211.257H202.769C204.69 211.258 206.591 210.88 208.366 210.145C210.14 209.41 211.753 208.333 213.111 206.975C214.469 205.617 215.546 204.004 216.281 202.23C217.016 200.455 217.394 198.554 217.393 196.633V14.624C217.393 10.7455 215.852 7.0258 213.11 4.28327C210.367 1.54074 206.647 3.41982e-08 202.769 3.41982e-08H127.208Z" fill="white"/>
</mask>
<g mask="url(#mask3_246_1361)">
<path d="M168.581 -52.282L7.20312 98.384L161.395 263.538L322.772 112.872L168.581 -52.282Z" fill="url(#paint0_linear_246_1361)"/>
</g>
<mask id="mask4_246_1361" style="mask-type:luminance" maskUnits="userSpaceOnUse" x="0" y="0" width="339" height="225">
<path d="M338.999 0H0V224.415H338.999V0Z" fill="white"/>
</mask>
<g mask="url(#mask4_246_1361)">
<path d="M200.358 5.712H128.584C127.269 5.71187 125.966 5.97095 124.75 6.47446C123.534 6.97796 122.429 7.71602 121.499 8.64649C120.568 9.57696 119.83 10.6816 119.327 11.8974C118.823 13.1131 118.564 14.4161 118.564 15.732V193.973C118.564 195.289 118.823 196.592 119.327 197.808C119.83 199.023 120.568 200.128 121.499 201.058C122.429 201.989 123.534 202.727 124.75 203.231C125.966 203.734 127.269 203.993 128.584 203.993H200.359C201.675 203.993 202.978 203.734 204.194 203.231C205.41 202.727 206.515 201.989 207.445 201.058C208.375 200.128 209.114 199.023 209.617 197.808C210.121 196.592 210.38 195.289 210.379 193.973V15.732C210.38 14.4161 210.121 13.1131 209.617 11.8974C209.114 10.6816 208.375 9.57696 207.445 8.64649C206.515 7.71602 205.41 6.97796 204.194 6.47446C202.978 5.97095 201.674 5.71187 200.358 5.712Z" fill="white"/>
<path d="M134.972 13.723H125.872C125.476 13.723 125.097 13.5659 124.818 13.2863C124.538 13.0067 124.381 12.6274 124.381 12.232C124.381 11.8366 124.538 11.4573 124.818 11.1777C125.097 10.8981 125.476 10.741 125.872 10.741H134.972C135.367 10.741 135.747 10.8981 136.026 11.1777C136.306 11.4573 136.463 11.8366 136.463 12.232C136.463 12.6274 136.306 13.0067 136.026 13.2863C135.747 13.5659 135.367 13.723 134.972 13.723Z" fill="#510394"/>
<path d="M195.043 13.723H194.643C194.248 13.723 193.869 13.5659 193.589 13.2863C193.309 13.0067 193.152 12.6274 193.152 12.232C193.152 11.8366 193.309 11.4573 193.589 11.1777C193.869 10.8981 194.248 10.741 194.643 10.741H195.043C195.439 10.741 195.818 10.8981 196.098 11.1777C196.377 11.4573 196.534 11.8366 196.534 12.232C196.534 12.6274 196.377 13.0067 196.098 13.2863C195.818 13.5659 195.439 13.723 195.043 13.723Z" fill="#510394"/>
<path d="M203.746 13.723H199.759C199.363 13.723 198.984 13.5659 198.704 13.2863C198.425 13.0067 198.268 12.6274 198.268 12.232C198.268 11.8366 198.425 11.4573 198.704 11.1777C198.984 10.8981 199.363 10.741 199.759 10.741H203.746C204.141 10.741 204.52 10.8981 204.8 11.1777C205.079 11.4573 205.237 11.8366 205.237 12.232C205.237 12.6274 205.079 13.0067 204.8 13.2863C204.52 13.5659 204.141 13.723 203.746 13.723Z" fill="#510394"/>
<path d="M167.519 12.232C167.519 12.732 167.371 13.2207 167.093 13.6365C166.815 14.0522 166.42 14.3762 165.958 14.5676C165.496 14.7589 164.988 14.809 164.498 14.7114C164.007 14.6139 163.557 14.3731 163.203 14.0196C162.85 13.666 162.609 13.2156 162.511 12.7252C162.414 12.2348 162.464 11.7265 162.655 11.2646C162.847 10.8026 163.171 10.4078 163.586 10.13C164.002 9.85226 164.491 9.70399 164.991 9.70399C165.323 9.70399 165.652 9.76938 165.958 9.89643C166.265 10.0235 166.544 10.2097 166.778 10.4444C167.013 10.6792 167.199 10.9579 167.326 11.2646C167.454 11.5713 167.519 11.9 167.519 12.232Z" fill="#510394"/>
<g opacity="0.3">
<mask id="mask5_246_1361" style="mask-type:luminance" maskUnits="userSpaceOnUse" x="15" y="202" width="320" height="23">
<path d="M334.853 202.004H15.418V224.415H334.853V202.004Z" fill="white"/>
</mask>
<g mask="url(#mask5_246_1361)">
<mask id="mask6_246_1361" style="mask-type:luminance" maskUnits="userSpaceOnUse" x="15" y="202" width="320" height="23">
<path d="M31.0573 210.412C25.1223 211.106 15.4793 212.378 15.4183 214.212C15.3623 215.866 23.1273 217.221 25.8443 217.695C56.9223 223.119 63.6723 214.025 104.793 217.951C126.36 220.01 123.106 223.425 142.233 224.284C168.403 225.459 208.289 218.324 241.004 218.645C254.962 218.782 255.182 219.938 274.178 220.862C281.64 221.225 333.91 223.712 334.84 219.912C335.008 219.225 333.748 217.312 311.14 212.629C311.14 212.629 203.225 190.279 31.0533 210.413" fill="white"/>
</mask>
<g mask="url(#mask6_246_1361)">
<path d="M335.007 190.278H15.3613V225.459H335.007V190.278Z" fill="url(#paint1_linear_246_1361)"/>
</g>
</g>
</g>
<path d="M89.4783 192.586C89.4783 192.586 89.5604 195.686 88.8244 197.08C88.0884 198.474 87.4353 198.755 87.7623 199.245C88.0893 199.735 91.2204 205.845 94.3254 205.272C95.5502 204.937 96.6886 204.343 97.663 203.529C98.6375 202.715 99.4251 201.701 99.9724 200.555C100.054 199.861 96.4664 196.501 96.7084 193.444C96.8084 192.144 89.4783 192.586 89.4783 192.586Z" fill="white"/>
<path d="M93.9079 205.672C92.0079 205.672 89.908 203.679 87.631 199.737C87.548 199.593 87.49 199.492 87.459 199.445C87.119 198.935 87.415 198.532 87.759 198.066C88.0376 197.7 88.2867 197.312 88.5039 196.907C89.1859 195.619 89.1159 192.623 89.1149 192.593C89.1124 192.499 89.1467 192.407 89.2105 192.337C89.2743 192.268 89.3627 192.226 89.4569 192.22C90.5169 192.155 95.8569 191.886 96.8569 192.9C96.9333 192.973 96.9926 193.062 97.0305 193.16C97.0683 193.259 97.0839 193.365 97.0759 193.47C96.9239 195.392 98.4339 197.504 99.4339 198.902C100.091 199.821 100.38 200.242 100.334 200.595C100.223 201.538 97.5339 205.049 94.3909 205.627C94.2316 205.656 94.0699 205.671 93.9079 205.671M89.8449 192.927C89.8952 194.399 89.6574 195.866 89.1449 197.247C88.9115 197.684 88.644 198.101 88.3449 198.496C88.0229 198.934 88.021 198.973 88.066 199.04C88.111 199.107 88.1659 199.208 88.2659 199.372C89.8449 202.112 92.1659 205.296 94.2659 204.91C97.1269 204.383 99.5019 201.153 99.6149 200.526C99.3986 200.101 99.1403 199.699 98.8439 199.326C97.7829 197.842 96.1789 195.6 96.3529 193.412C96.1279 192.98 93.1329 192.754 89.8529 192.927" fill="#510394"/>
<path d="M61.6288 196.408C59.1438 196.494 56.3228 198.632 56.0518 200.74C55.7808 202.848 56.2768 211.749 57.6278 212.559C58.9788 213.369 63.1958 213.478 64.4938 212.559C65.7918 211.64 66.6618 206.197 66.4408 203.02C66.2198 199.843 64.3858 196.313 61.6288 196.408Z" fill="#00524C"/>
<path d="M59.0217 197.238C59.0217 197.238 58.7447 201.113 58.5377 203.051C58.3307 204.989 59.5757 207.895 62.4817 207.618C65.3877 207.341 65.8917 203.763 65.6817 202.667C65.3117 200.773 64.4227 196.408 64.4227 196.408L59.0217 197.238Z" fill="white"/>
<path d="M62.1045 208.001C61.6208 208.007 61.1409 207.915 60.6939 207.73C60.247 207.545 59.8423 207.271 59.5045 206.925C59.0223 206.402 58.6552 205.783 58.427 205.11C58.1988 204.436 58.1145 203.721 58.1795 203.013C58.3795 201.104 58.6605 197.252 58.6625 197.213C58.6684 197.131 58.702 197.053 58.758 196.992C58.814 196.931 58.8889 196.891 58.9705 196.879L64.3705 196.049C64.4629 196.034 64.5574 196.056 64.6341 196.11C64.7109 196.163 64.764 196.244 64.7825 196.336C64.7915 196.38 65.6765 200.724 66.0415 202.598C66.2013 203.994 65.8457 205.401 65.0415 206.553C64.7506 206.96 64.3745 207.298 63.9395 207.545C63.5045 207.791 63.0209 207.94 62.5225 207.981C62.3832 207.994 62.2458 208.001 62.1105 208.001M59.3645 197.559C59.2955 198.497 59.0725 201.481 58.9005 203.095C58.8441 203.696 58.9145 204.303 59.1071 204.875C59.2996 205.447 59.6101 205.973 60.0185 206.418C60.3302 206.737 60.7119 206.98 61.1335 207.126C61.5551 207.272 62.005 207.319 62.4475 207.261C62.8435 207.227 63.2275 207.108 63.5728 206.911C63.9181 206.715 64.2166 206.445 64.4475 206.122C65.1245 205.132 65.4321 203.936 65.3165 202.742C65.0115 201.178 64.3445 197.89 64.1275 196.826L59.3645 197.559Z" fill="#510394"/>
<path d="M52.8198 105.629C52.8198 105.629 48.2498 129.187 50.5338 151.401C52.8178 173.615 55.1628 193.124 55.7808 195.949C56.3988 198.774 59.8418 199.127 62.6668 198.597C65.4918 198.067 67.4339 195.949 67.5219 194.536C67.6099 193.123 70.4328 136.398 70.4328 132.441C70.4328 128.484 82.3888 147.214 84.3808 158.373C86.3728 169.532 88.3658 192.447 88.3658 192.447C88.8303 193.395 89.5795 194.173 90.5086 194.673C91.4377 195.174 92.5001 195.371 93.5468 195.237C97.3328 194.837 100.322 192.846 100.322 190.654C100.322 188.462 101.717 153.392 98.7278 143.827C95.7388 134.262 84.9788 107.561 81.1928 104.572C77.4068 101.583 52.8208 105.629 52.8208 105.629" fill="#3A3E3F"/>
<path d="M49.7535 86.525C49.7535 86.525 47.3165 98.475 47.9455 99.575C48.5745 100.675 52.8195 105.628 52.8195 105.628L55.8065 87.468L49.7535 86.525Z" fill="white"/>
<path d="M52.8198 105.993C52.7674 105.993 52.7156 105.981 52.6679 105.96C52.6203 105.938 52.578 105.906 52.5438 105.866C52.3698 105.666 48.2688 100.874 47.6298 99.756C46.9908 98.638 48.8188 89.287 49.3978 86.456C49.4162 86.3641 49.4695 86.2829 49.5465 86.2294C49.6235 86.1759 49.7182 86.1542 49.8108 86.169L55.8638 87.112C55.911 87.1198 55.9563 87.1368 55.9969 87.162C56.0376 87.1873 56.0728 87.2204 56.1007 87.2593C56.1286 87.2982 56.1485 87.3422 56.1593 87.3889C56.1701 87.4355 56.1716 87.4838 56.1638 87.531L53.1768 105.691C53.1655 105.759 53.1349 105.823 53.0887 105.875C53.0424 105.926 52.9825 105.963 52.9158 105.982C52.8833 105.991 52.8496 105.996 52.8158 105.996M50.0378 86.942C48.8938 92.605 47.9278 98.731 48.2588 99.4C48.7348 100.233 51.4418 103.452 52.5838 104.8L55.3838 87.777L50.0378 86.942Z" fill="#510394"/>
<path d="M89.4589 79.994L96.2939 87.405C96.2939 87.405 109.245 78.627 110.615 76.034C111.985 73.441 116.371 69.127 116.371 69.127L115.004 72.727L120.904 67.691L118.458 71.864L123.782 67.331L119.897 73.159L123.782 70.497L120.4 75.03L123.494 73.015L119.537 77.692C117.694 78.4086 115.891 79.2252 114.137 80.138C111.907 81.361 101.043 95.247 96.2219 95.679C91.4009 96.111 84.4219 84.023 84.4219 84.023L89.4589 79.994Z" fill="white"/>
<path d="M95.9724 96.053C91.0054 96.053 84.3903 84.697 84.1053 84.204C84.0618 84.1285 84.0468 84.0399 84.063 83.9542C84.0791 83.8686 84.1253 83.7915 84.1934 83.737L89.2303 79.708C89.3022 79.6504 89.3933 79.6221 89.4851 79.629C89.577 79.6359 89.6629 79.6773 89.7254 79.745L96.3484 86.925C100.871 83.847 109.261 77.812 110.289 75.865C111.667 73.255 115.93 69.046 116.112 68.865C116.171 68.8038 116.249 68.765 116.333 68.7552C116.417 68.7454 116.502 68.7653 116.573 68.8114C116.644 68.8575 116.697 68.9269 116.722 69.0076C116.748 69.0884 116.744 69.1755 116.712 69.254L115.85 71.522L120.668 67.409C120.734 67.3526 120.817 67.3213 120.903 67.3206C120.99 67.32 121.073 67.3501 121.14 67.4055C121.206 67.4609 121.25 67.538 121.265 67.6231C121.279 67.7082 121.263 67.7957 121.219 67.87L119.861 70.187L123.547 67.049C123.614 66.992 123.699 66.961 123.787 66.9619C123.875 66.9628 123.96 66.9954 124.025 67.0538C124.091 67.1122 124.133 67.1923 124.145 67.2795C124.156 67.3666 124.135 67.4549 124.086 67.528L121.245 71.79L123.578 70.19C123.649 70.1394 123.736 70.116 123.823 70.124C123.91 70.1321 123.991 70.171 124.051 70.2337C124.112 70.2964 124.148 70.3788 124.153 70.4658C124.158 70.5529 124.131 70.6388 124.078 70.708L121.919 73.608L123.301 72.708C123.375 72.6608 123.462 72.6414 123.549 72.6534C123.635 72.6653 123.714 72.7079 123.772 72.7732C123.829 72.8386 123.862 72.9224 123.863 73.0095C123.864 73.0967 123.833 73.1812 123.777 73.248L119.82 77.925C119.78 77.97 119.73 78.0043 119.673 78.025C117.847 78.7366 116.06 79.5464 114.321 80.451C112.724 81.7759 111.242 83.2345 109.891 84.811C105.559 89.421 99.6264 95.734 96.2644 96.035C96.1714 96.043 96.0774 96.047 95.9834 96.047M84.8954 84.109C86.0817 86.0808 87.3867 87.9786 88.8033 89.792C91.7923 93.57 94.3464 95.484 96.1884 95.315C99.2754 95.039 105.338 88.587 109.35 84.315C110.74 82.6708 112.284 81.1639 113.961 79.815C115.7 78.9078 117.487 78.0956 119.314 77.382L121.608 74.67L120.594 75.33C120.523 75.3772 120.437 75.3976 120.352 75.3876C120.266 75.3775 120.187 75.3377 120.129 75.2752C120.07 75.2126 120.035 75.1314 120.031 75.0457C120.026 74.96 120.052 74.8755 120.103 74.807L122.173 72.032L120.097 73.455C120.028 73.502 119.944 73.5236 119.86 73.5159C119.777 73.5083 119.698 73.472 119.638 73.4131C119.579 73.3542 119.541 73.2765 119.532 73.193C119.523 73.1095 119.543 73.0254 119.588 72.955L122.027 69.296L118.688 72.139C118.623 72.1954 118.54 72.2267 118.453 72.2273C118.367 72.228 118.283 72.1979 118.217 72.1425C118.151 72.0871 118.106 72.01 118.092 71.9249C118.077 71.8398 118.093 71.7523 118.137 71.678L119.491 69.368L115.234 73.002C115.173 73.0547 115.096 73.0853 115.015 73.0892C114.934 73.093 114.854 73.0698 114.788 73.0233C114.722 72.9767 114.673 72.9094 114.649 72.832C114.626 72.7547 114.629 72.6716 114.657 72.596L115.403 70.634C113.712 72.3204 112.212 74.1888 110.931 76.205C109.537 78.845 97.0314 87.344 96.4954 87.705C96.4233 87.754 96.3359 87.7755 96.2493 87.7656C96.1627 87.7557 96.0825 87.715 96.0233 87.651L89.4184 80.49L84.8954 84.109Z" fill="#510394"/>
<path d="M64.7925 64.457C57.6745 65.319 53.2335 72.235 50.0355 79.431C46.8375 86.627 46.2355 86.631 46.8355 87.726C47.4355 88.821 52.4355 90.126 53.1355 89.626C53.1355 89.626 51.5355 102.718 51.0355 106.315C50.5355 109.912 56.4025 112.215 67.9595 111.515C79.5165 110.815 83.7145 110.015 84.9135 105.215C86.1125 100.415 81.7135 86.227 82.0135 86.227C82.3135 86.227 85.1135 87.427 88.7135 84.027C92.3135 80.627 91.4135 78.327 91.4135 78.327C91.4135 78.327 87.7435 73.991 85.9135 71.727C81.7585 66.586 77.4605 63.533 71.1275 63.991L64.7925 64.457Z" fill="#00524C"/>
<path d="M70.438 57.822L71.125 64.003C70.2176 64.7214 69.0746 65.0752 67.92 64.995C65.707 64.995 64.791 64.69 64.791 64.461C64.791 64.232 66.317 57.135 66.317 57.135L70.438 57.822Z" fill="white"/>
<path d="M67.9207 65.359C64.4277 65.359 64.4277 64.683 64.4277 64.459C64.4277 64.235 65.3887 59.721 65.9617 57.059C65.9815 56.9675 66.0358 56.8871 66.1132 56.8344C66.1906 56.7817 66.2853 56.7608 66.3777 56.776L70.4987 57.463C70.5766 57.4764 70.648 57.5148 70.7021 57.5723C70.7562 57.6299 70.7901 57.7035 70.7987 57.782L71.4857 63.963C71.4928 64.0173 71.4874 64.0725 71.4701 64.1245C71.4528 64.1764 71.424 64.2238 71.3857 64.263C70.4115 65.0527 69.1751 65.4456 67.9237 65.363M65.1817 64.342C66.0728 64.5928 66.9998 64.6915 67.9237 64.634C68.9234 64.6784 69.9114 64.4039 70.7448 63.85L70.1097 58.138L66.6037 57.554C66.0617 60.076 65.3237 63.554 65.1817 64.341" fill="#510394"/>
<path d="M68.1321 59.089C67.4201 62.054 67.0131 62.776 64.6771 62.733C62.3411 62.69 59.8581 59.482 57.7821 58.727C55.7061 57.972 54.5061 48.995 58.6711 46.619C62.8361 44.243 65.9371 39.184 70.0461 41.569C74.1551 43.954 69.2551 53.686 68.4181 54.587C67.5811 55.488 68.1321 59.087 68.1321 59.087" fill="#510394"/>
<path d="M69.6418 45.361C69.6418 45.361 75.5108 48.208 75.2358 49.116C74.9608 50.024 74.5948 50.536 74.8128 51.24C75.0308 51.944 77.5448 57.332 75.1438 58.685C72.7428 60.038 67.4968 60.138 67.0588 59.716C66.706 59.3146 66.4077 58.8684 66.1718 58.389C66.1718 58.389 63.5328 58.651 63.1378 57.422C62.7428 56.193 63.3758 54.99 64.0378 55.132C64.6998 55.274 64.7788 56.106 65.1968 55.932C65.6148 55.758 64.5157 54.557 64.7637 54.154C65.0117 53.751 69.4768 52.17 69.6438 45.362" fill="white"/>
<path d="M68.7491 60.304C68.084 60.3739 67.4124 60.263 66.8051 59.983C66.4706 59.6194 66.1861 59.2128 65.9591 58.774C65.2161 58.813 63.1961 58.801 62.7901 57.537C62.6494 57.1372 62.6099 56.7087 62.6751 56.2899C62.7404 55.8711 62.9084 55.475 63.1641 55.137C63.2756 54.9983 63.4223 54.8922 63.589 54.8298C63.7556 54.7673 63.9359 54.7508 64.1111 54.782C64.2702 54.8162 64.4206 54.8825 64.5531 54.977C64.4541 54.8308 64.3932 54.6623 64.3757 54.4867C64.3582 54.311 64.3848 54.1338 64.4531 53.971C64.5963 53.7962 64.7749 53.6538 64.9771 53.553C66.1171 52.823 69.1451 50.883 69.2771 45.36C69.2785 45.299 69.2952 45.2394 69.3256 45.1866C69.3561 45.1337 69.3994 45.0894 69.4514 45.0576C69.5035 45.0259 69.5627 45.0077 69.6236 45.0048C69.6846 45.0019 69.7452 45.0143 69.8001 45.041C69.8151 45.048 71.3001 45.768 72.7231 46.59C75.3091 48.08 75.7371 48.722 75.5841 49.229C75.5071 49.482 75.4241 49.706 75.3501 49.904C75.1438 50.2806 75.0768 50.7179 75.1611 51.139C75.1841 51.212 75.2451 51.368 75.3221 51.566C75.9741 53.234 77.7071 57.666 75.3221 59.009C73.7723 59.7262 72.1003 60.1422 70.3951 60.235C70.2431 60.248 69.5171 60.306 68.7501 60.306M67.2951 59.445C67.8461 59.712 72.6621 59.672 74.9641 58.374C76.7971 57.342 75.1761 53.194 74.6431 51.831C74.5571 51.612 74.4951 51.454 74.4651 51.355C74.3231 50.7809 74.3942 50.1747 74.6651 49.649C74.7351 49.462 74.8071 49.27 74.8741 49.049C74.6991 48.549 72.3101 47.105 69.9801 45.938C69.6491 51.417 66.5551 53.4 65.3661 54.161C65.2661 54.226 65.1541 54.297 65.0901 54.343C65.1554 54.5487 65.2419 54.7471 65.3481 54.935C65.5481 55.335 65.7291 55.675 65.6181 55.975C65.5941 56.0424 65.5562 56.104 65.5067 56.1557C65.4572 56.2074 65.3974 56.2481 65.3311 56.275C64.8631 56.468 64.5711 56.084 64.4141 55.875C64.313 55.6963 64.1507 55.5603 63.9571 55.492C63.8571 55.471 63.7571 55.565 63.7021 55.623C63.5307 55.8659 63.421 56.1469 63.3827 56.4418C63.3443 56.7366 63.3785 57.0363 63.4821 57.315C63.7301 58.088 65.5251 58.091 66.1331 58.032C66.2065 58.0249 66.2805 58.0403 66.3451 58.076C66.4097 58.1117 66.4619 58.166 66.4951 58.232C66.7091 58.6681 66.978 59.075 67.2951 59.443" fill="#510394"/>
<path d="M86.809 198.804C84.618 199.781 86.387 201.414 85.924 202.89C85.461 204.366 84.448 206.09 85.545 208.708C86.642 211.326 92.5581 211.051 97.9011 211.121C103.244 211.191 111.117 211.473 112.101 209.153C113.085 206.833 108.094 205.287 107.18 204.232C106.266 203.177 101.81 199.957 100.855 198.803C99.9 197.649 96.886 196.033 96.299 198.311C95.712 200.589 97.0881 201.911 98.6411 202.022C98.6411 202.022 95.821 204.557 94.278 204.337C92.735 204.117 92.7351 201.137 91.8531 200.993C90.9711 200.849 90.753 201.581 89.575 200.919C88.397 200.257 87.6841 198.413 86.8101 198.802" fill="#00524C"/>
<path d="M62.0108 203.762C60.9248 203.762 60.3368 205.496 58.5108 205.583C56.6848 205.67 59.3428 209.019 61.8658 208.932C64.3888 208.845 67.5148 205.31 65.4118 205.332C63.5478 205.354 63.1118 203.759 62.0068 203.759" fill="#00524C"/>
<path d="M266.33 210.518H242.671C242.289 210.518 241.92 210.377 241.635 210.123C241.35 209.869 241.169 209.518 241.126 209.139L237.395 176.307H271.606L267.875 209.136C267.831 209.515 267.65 209.866 267.365 210.12C267.08 210.374 266.711 210.515 266.33 210.515" fill="#00524C"/>
<path d="M271.606 176.696C271.606 177.77 263.948 178.64 254.501 178.64C245.054 178.64 237.395 177.77 237.395 176.696C237.395 175.622 245.053 174.752 254.501 174.752C263.949 174.752 271.606 175.622 271.606 176.696Z" fill="#1C2B6B"/>
<path d="M252.944 113.328C243.614 114.105 246.724 142.096 246.724 142.096C249.057 166.196 252.167 177.085 254.499 177.862C256.831 178.639 261.499 143.651 261.499 135.098C261.499 135.098 262.276 112.55 252.946 113.327" fill="#1E3286"/>
<path d="M254.112 173.975C254.096 173.976 254.08 173.976 254.064 173.975C253.962 173.963 253.868 173.91 253.805 173.829C253.741 173.748 253.713 173.644 253.725 173.542C256.793 148.223 252.986 116.417 252.947 116.099C252.938 115.998 252.968 115.898 253.031 115.819C253.095 115.74 253.187 115.689 253.287 115.677C253.388 115.664 253.489 115.692 253.57 115.753C253.65 115.814 253.704 115.905 253.719 116.005C253.758 116.324 257.577 148.224 254.496 173.635C254.485 173.729 254.439 173.816 254.368 173.879C254.297 173.942 254.206 173.977 254.111 173.977" fill="white"/>
<path d="M224.954 100.11C224.177 103.998 228.842 104.775 229.619 110.218C230.396 115.661 228.064 117.218 228.842 120.326C229.62 123.434 234.285 124.213 235.062 131.989C235.839 139.765 232.729 138.989 233.507 143.652C234.285 148.315 238.95 148.317 239.727 152.205C240.504 156.093 240.505 161.535 242.06 166.205C243.615 170.875 248.28 177.868 250.613 177.868C252.946 177.868 259.166 164.65 257.613 160.763C256.06 156.876 253.725 156.098 253.725 152.988C253.725 149.878 256.835 142.103 256.058 136.66C255.281 131.217 248.283 128.885 247.505 124.997C246.727 121.109 249.06 110.997 243.617 106.336C238.174 101.675 225.734 96.228 224.956 100.116" fill="#FF6902"/>
<path d="M298.82 108.662C301.569 111.411 292.6 112.55 291.82 117.992C291.04 123.434 291.042 125.767 287.931 128.877C284.82 131.987 280.157 132.764 280.932 137.43C281.707 142.096 283.265 146.76 280.932 149.093C278.599 151.426 273.157 151.426 271.602 155.313C270.047 159.2 270.825 163.866 267.715 167.753C264.605 171.64 259.939 179.416 256.051 177.861C252.163 176.306 254.496 158.423 256.051 155.313C257.606 152.203 259.161 149.87 259.161 147.538C259.161 145.206 258.385 141.318 259.939 137.43C261.493 133.542 270.047 131.987 270.824 129.655C271.601 127.323 272.379 114.882 277.044 111.772C281.709 108.662 294.149 103.997 298.815 108.662" fill="#40CD8A"/>
<path d="M257.26 176.529C257.191 176.529 257.124 176.511 257.064 176.476C257.004 176.442 256.955 176.392 256.921 176.332C256.887 176.272 256.87 176.204 256.871 176.135C256.872 176.066 256.891 175.999 256.927 175.94C256.958 175.888 260.073 170.681 260.727 168.049C260.896 167.371 261.101 166.349 261.337 165.155C262.196 160.839 263.495 154.316 265.494 152.318C268.394 149.418 273.032 140.531 276.281 129.16C280.281 115.15 293.516 111.051 293.649 111.011C293.747 110.985 293.851 110.998 293.939 111.047C294.028 111.097 294.093 111.178 294.122 111.275C294.151 111.372 294.141 111.477 294.095 111.566C294.048 111.656 293.968 111.724 293.872 111.756C293.743 111.795 280.912 115.783 277.029 129.373C273.744 140.873 269.016 149.895 266.045 152.867C264.213 154.699 262.891 161.339 262.101 165.307C261.862 166.507 261.656 167.541 261.482 168.237C260.796 170.981 257.721 176.122 257.59 176.337C257.556 176.395 257.507 176.442 257.449 176.475C257.39 176.509 257.324 176.526 257.257 176.526" fill="white"/>
<path d="M250.568 174.827C250.466 174.827 250.367 174.786 250.294 174.713C250.221 174.641 250.18 174.542 250.18 174.439C250.18 174.339 250.113 164.239 247.152 161.273C244.152 158.273 242.434 149.073 241.596 131.473C240.834 115.473 229.368 102.297 229.252 102.165C229.215 102.127 229.187 102.082 229.168 102.033C229.149 101.984 229.141 101.932 229.143 101.879C229.145 101.827 229.158 101.775 229.18 101.728C229.203 101.68 229.235 101.638 229.274 101.603C229.314 101.568 229.36 101.542 229.41 101.526C229.46 101.509 229.512 101.503 229.565 101.507C229.617 101.512 229.668 101.527 229.714 101.552C229.761 101.576 229.802 101.61 229.834 101.651C229.952 101.784 241.597 115.159 242.372 131.435C243.19 148.599 244.882 157.906 247.701 160.724C250.888 163.911 250.956 174.009 250.958 174.437C250.958 174.54 250.917 174.639 250.845 174.712C250.772 174.785 250.674 174.826 250.571 174.827H250.568Z" fill="white"/>
<g opacity="0.59">
<mask id="mask7_246_1361" style="mask-type:luminance" maskUnits="userSpaceOnUse" x="128" y="76" width="74" height="60">
<path d="M201.297 76.257H128.682V135.388H201.297V76.257Z" fill="white"/>
</mask>
<g mask="url(#mask7_246_1361)">
<path d="M195.175 135.386H134.803C133.179 135.386 131.622 134.741 130.474 133.593C129.326 132.444 128.682 130.887 128.682 129.264V82.379C128.682 80.7555 129.326 79.1985 130.474 78.0505C131.622 76.9024 133.179 76.2573 134.803 76.257H195.175C196.798 76.257 198.355 76.902 199.504 78.0501C200.652 79.1982 201.297 80.7553 201.297 82.379V129.266C201.297 130.89 200.652 132.447 199.504 133.595C198.355 134.743 196.798 135.388 195.175 135.388" fill="#F6EEFF"/>
</g>
</g>
<g opacity="0.59">
<mask id="mask8_246_1361" style="mask-type:luminance" maskUnits="userSpaceOnUse" x="128" y="27" width="74" height="41">
<path d="M201.297 27.32H128.682V67.869H201.297V27.32Z" fill="white"/>
</mask>
<g mask="url(#mask8_246_1361)">
<path d="M195.175 67.869H134.803C133.179 67.8687 131.622 67.2236 130.474 66.0756C129.326 64.9275 128.682 63.3705 128.682 61.747V33.442C128.682 31.8185 129.326 30.2615 130.474 29.1134C131.622 27.9654 133.179 27.3203 134.803 27.32H195.175C196.798 27.32 198.355 27.965 199.504 29.1131C200.652 30.2612 201.297 31.8183 201.297 33.442V61.748C201.297 63.3716 200.652 64.9288 199.504 66.0769C198.355 67.225 196.798 67.87 195.175 67.87" fill="#F6EEFF"/>
</g>
</g>
<g opacity="0.59">
<mask id="mask9_246_1361" style="mask-type:luminance" maskUnits="userSpaceOnUse" x="128" y="144" width="74" height="41">
<path d="M201.297 144.005H128.682V184.554H201.297V144.005Z" fill="white"/>
</mask>
<g mask="url(#mask9_246_1361)">
<path d="M195.175 184.554H134.803C133.179 184.554 131.622 183.909 130.474 182.761C129.326 181.613 128.682 180.056 128.682 178.432V150.127C128.682 148.503 129.326 146.946 130.474 145.798C131.622 144.65 133.179 144.005 134.803 144.005H195.175C196.798 144.005 198.355 144.65 199.504 145.798C200.652 146.946 201.297 148.503 201.297 150.127V178.433C201.297 180.057 200.652 181.614 199.504 182.762C198.355 183.91 196.798 184.555 195.175 184.555" fill="#F6EEFF"/>
</g>
</g>
<g opacity="0.59">
<mask id="mask10_246_1361" style="mask-type:luminance" maskUnits="userSpaceOnUse" x="137" y="35" width="25" height="25">
<path d="M161.91 35.297H137.381V59.892H161.91V35.297Z" fill="white"/>
</mask>
<g mask="url(#mask10_246_1361)">
<path d="M161.877 45.375L159.742 38.464C159.713 38.3702 159.665 38.2832 159.602 38.2082C159.538 38.1333 159.46 38.072 159.373 38.028L154.073 35.377C153.957 35.3196 153.828 35.294 153.7 35.303C153.69 35.303 153.68 35.303 153.669 35.303C153.259 36.0081 152.671 36.5933 151.964 37C151.258 37.4068 150.457 37.6209 149.641 37.6209C148.826 37.6209 148.024 37.4068 147.318 37C146.611 36.5933 146.023 36.0081 145.614 35.303C145.603 35.303 145.593 35.303 145.583 35.303C145.454 35.294 145.325 35.3196 145.21 35.377L139.91 38.028C139.822 38.072 139.744 38.1333 139.68 38.2082C139.617 38.2832 139.569 38.3702 139.541 38.464L137.406 45.375C137.356 45.5358 137.363 45.7088 137.427 45.8647C137.49 46.0206 137.606 46.1497 137.754 46.23L141.415 48.219V55.459C141.411 56.1678 141.622 56.8611 142.02 57.4477C142.418 58.0342 142.985 58.4865 143.645 58.745C145.554 59.4972 147.586 59.8872 149.639 59.895C151.717 59.8836 153.776 59.4911 155.713 58.737C156.374 58.476 156.943 58.0225 157.344 57.4351C157.746 56.8477 157.962 56.1534 157.965 55.442V48.163L161.523 46.229C161.67 46.1487 161.786 46.0196 161.849 45.8637C161.913 45.7078 161.92 45.5348 161.871 45.374" fill="#BB88FC"/>
</g>
</g>
<path d="M191.255 40.47H170.478C170.122 40.47 169.78 40.3285 169.528 40.0765C169.276 39.8245 169.135 39.4828 169.135 39.1265C169.135 38.7702 169.276 38.4285 169.528 38.1765C169.78 37.9245 170.122 37.783 170.478 37.783H191.254C191.611 37.783 191.952 37.9245 192.204 38.1765C192.456 38.4285 192.598 38.7702 192.598 39.1265C192.598 39.4828 192.456 39.8245 192.204 40.0765C191.952 40.3285 191.611 40.47 191.254 40.47" fill="#BB88FC"/>
<path d="M181.774 47.59H170.474C170.118 47.59 169.776 47.4485 169.524 47.1965C169.272 46.9445 169.131 46.6028 169.131 46.2465C169.131 45.8902 169.272 45.5485 169.524 45.2965C169.776 45.0445 170.118 44.903 170.474 44.903H181.774C182.131 44.903 182.472 45.0445 182.724 45.2965C182.976 45.5485 183.118 45.8902 183.118 46.2465C183.118 46.6028 182.976 46.9445 182.724 47.1965C182.472 47.4485 182.131 47.59 181.774 47.59Z" fill="#BB88FC"/>
<path d="M191.255 157.154H170.478C170.122 157.154 169.78 157.012 169.528 156.761C169.276 156.509 169.135 156.167 169.135 155.81C169.135 155.454 169.276 155.112 169.528 154.86C169.78 154.609 170.122 154.467 170.478 154.467H191.254C191.611 154.467 191.952 154.609 192.204 154.86C192.456 155.112 192.598 155.454 192.598 155.81C192.598 156.167 192.456 156.509 192.204 156.761C191.952 157.012 191.611 157.154 191.254 157.154" fill="#BB88FC"/>
<path d="M181.774 164.28H170.474C170.118 164.28 169.776 164.138 169.524 163.886C169.272 163.635 169.131 163.293 169.131 162.936C169.131 162.58 169.272 162.238 169.524 161.986C169.776 161.735 170.118 161.593 170.474 161.593H181.774C182.131 161.593 182.472 161.735 182.724 161.986C182.976 162.238 183.118 162.58 183.118 162.936C183.118 163.293 182.976 163.635 182.724 163.886C182.472 164.138 182.131 164.28 181.774 164.28Z" fill="#BB88FC"/>
<path d="M191.255 118.763H138.724C138.368 118.763 138.026 118.621 137.774 118.369C137.522 118.118 137.381 117.776 137.381 117.419C137.381 117.063 137.522 116.721 137.774 116.47C138.026 116.218 138.368 116.076 138.724 116.076H191.255C191.612 116.076 191.953 116.218 192.205 116.47C192.457 116.721 192.599 117.063 192.599 117.419C192.599 117.776 192.457 118.118 192.205 118.369C191.953 118.621 191.612 118.763 191.255 118.763Z" fill="#BB88FC"/>
<path d="M168.943 125.888H138.724C138.368 125.888 138.026 125.746 137.774 125.494C137.522 125.243 137.381 124.901 137.381 124.544C137.381 124.188 137.522 123.846 137.774 123.595C138.026 123.343 138.368 123.201 138.724 123.201H168.943C169.3 123.201 169.641 123.343 169.893 123.595C170.145 123.846 170.287 124.188 170.287 124.544C170.287 124.901 170.145 125.243 169.893 125.494C169.641 125.746 169.3 125.888 168.943 125.888Z" fill="#BB88FC"/>
<path d="M142.165 107.446C142.165 107.919 142.025 108.382 141.762 108.775C141.499 109.168 141.125 109.475 140.688 109.656C140.251 109.837 139.77 109.884 139.306 109.792C138.842 109.7 138.416 109.472 138.081 109.137C137.747 108.803 137.519 108.377 137.427 107.913C137.335 107.449 137.382 106.968 137.563 106.531C137.744 106.094 138.051 105.72 138.444 105.457C138.837 105.194 139.3 105.054 139.773 105.054C140.407 105.054 141.016 105.306 141.464 105.755C141.913 106.203 142.165 106.812 142.165 107.446Z" fill="#BB88FC"/>
<path d="M154.429 107.446C154.429 107.919 154.288 108.382 154.025 108.775C153.763 109.168 153.389 109.475 152.952 109.656C152.515 109.837 152.034 109.884 151.57 109.792C151.106 109.7 150.68 109.472 150.345 109.137C150.011 108.803 149.783 108.377 149.69 107.913C149.598 107.449 149.646 106.968 149.827 106.531C150.008 106.094 150.314 105.72 150.708 105.457C151.101 105.194 151.563 105.054 152.037 105.054C152.671 105.054 153.279 105.306 153.728 105.755C154.176 106.203 154.429 106.812 154.429 107.446Z" fill="#BB88FC"/>
<g opacity="0.59">
<mask id="mask11_246_1361" style="mask-type:luminance" maskUnits="userSpaceOnUse" x="214" y="27" width="74" height="41">
<path d="M287.263 27.32H214.648V67.869H287.263V27.32Z" fill="white"/>
</mask>
<g mask="url(#mask11_246_1361)">
<path d="M281.142 67.869H220.769C219.146 67.8687 217.589 67.2236 216.441 66.0756C215.293 64.9275 214.648 63.3705 214.648 61.747V33.442C214.648 31.8185 215.293 30.2615 216.441 29.1134C217.589 27.9654 219.146 27.3203 220.769 27.32H281.141C282.765 27.32 284.322 27.965 285.47 29.1131C286.618 30.2612 287.263 31.8183 287.263 33.442V61.748C287.263 63.3716 286.618 64.9288 285.47 66.0769C284.322 67.225 282.765 67.87 281.141 67.87" fill="white"/>
</g>
</g>
<path d="M277.222 40.47H256.445C256.089 40.47 255.747 40.3285 255.495 40.0765C255.243 39.8245 255.102 39.4828 255.102 39.1265C255.102 38.7702 255.243 38.4285 255.495 38.1765C255.747 37.9245 256.089 37.783 256.445 37.783H277.221C277.577 37.783 277.919 37.9245 278.171 38.1765C278.423 38.4285 278.565 38.7702 278.565 39.1265C278.565 39.4828 278.423 39.8245 278.171 40.0765C277.919 40.3285 277.578 40.47 277.222 40.47Z" fill="#BB88FC"/>
<path d="M267.741 47.59H256.441C256.085 47.59 255.743 47.4485 255.491 47.1965C255.239 46.9445 255.098 46.6028 255.098 46.2465C255.098 45.8902 255.239 45.5485 255.491 45.2965C255.743 45.0445 256.085 44.903 256.441 44.903H267.741C268.097 44.903 268.439 45.0445 268.691 45.2965C268.943 45.5485 269.085 45.8902 269.085 46.2465C269.085 46.6028 268.943 46.9445 268.691 47.1965C268.439 47.4485 268.097 47.59 267.741 47.59Z" fill="#BB88FC"/>
<g opacity="0.59">
<path d="M189.17 83.291H193.089C193.093 83.2911 193.097 83.2927 193.1 83.2954C193.103 83.2981 193.106 83.3019 193.107 83.306L193.376 84.601C193.376 84.6038 193.376 84.6067 193.375 84.6095C193.375 84.6123 193.373 84.6149 193.372 84.6171C193.37 84.6193 193.368 84.6211 193.365 84.6223C193.362 84.6235 193.359 84.6241 193.357 84.624H188.888C188.885 84.6239 188.882 84.6232 188.88 84.622C188.877 84.6207 188.875 84.6189 188.873 84.6167C188.871 84.6145 188.87 84.612 188.87 84.6093C188.869 84.6065 188.869 84.6037 188.87 84.601L189.151 83.306C189.152 83.3017 189.154 83.2978 189.157 83.2951C189.161 83.2923 189.165 83.2909 189.17 83.291Z" fill="#BB88FC"/>
<path d="M188.782 85.079H193.46C193.464 85.0789 193.469 85.0804 193.472 85.0831C193.476 85.0858 193.478 85.0897 193.479 85.094L194.228 88.714C194.229 88.7168 194.229 88.7197 194.228 88.7225C194.227 88.7253 194.226 88.7279 194.224 88.7301C194.222 88.7323 194.22 88.7341 194.217 88.7353C194.215 88.7365 194.212 88.7371 194.209 88.737H187.996C187.993 88.7371 187.99 88.7365 187.988 88.7353C187.985 88.7341 187.983 88.7323 187.981 88.7301C187.979 88.7279 187.978 88.7253 187.977 88.7225C187.976 88.7197 187.976 88.7168 187.977 88.714L188.763 85.094C188.764 85.0897 188.766 85.0858 188.77 85.0831C188.773 85.0804 188.778 85.0789 188.782 85.079Z" fill="#BB88FC"/>
<path d="M191.531 108.291C191.993 108.295 192.455 108.295 192.917 108.291C193.184 108.275 193.451 108.301 193.71 108.368C193.847 108.425 193.97 108.512 194.068 108.623C194.167 108.733 194.239 108.865 194.28 109.008C194.282 109.011 194.283 109.015 194.283 109.019C194.283 109.022 194.282 109.026 194.28 109.029C194.278 109.032 194.275 109.035 194.272 109.036C194.268 109.038 194.265 109.039 194.261 109.039H188.011C187.986 109.039 187.978 109.027 187.985 109.004C188.024 108.866 188.093 108.738 188.187 108.63C188.281 108.521 188.398 108.435 188.529 108.377C188.751 108.308 188.983 108.279 189.215 108.292H190.731C190.735 108.292 190.739 108.292 190.742 108.291C190.746 108.29 190.749 108.288 190.752 108.285C190.755 108.282 190.757 108.279 190.758 108.275C190.759 108.272 190.759 108.268 190.759 108.264V89.214C190.759 89.2086 190.761 89.2034 190.765 89.1995C190.768 89.1956 190.774 89.1933 190.779 89.193H191.479C191.483 89.1923 191.488 89.1927 191.492 89.194C191.496 89.1954 191.5 89.1978 191.503 89.2009C191.506 89.204 191.509 89.2078 191.51 89.212C191.511 89.2162 191.512 89.2207 191.511 89.225V108.265C191.51 108.271 191.512 108.277 191.516 108.282C191.52 108.287 191.525 108.29 191.531 108.291Z" fill="#BB88FC"/>
<path d="M181.517 93.498C182.079 93.4853 182.628 93.6684 183.069 94.016C183.511 94.3635 183.818 94.8539 183.938 95.403C183.995 95.7782 184.017 96.1578 184.004 96.537C184.004 97.3483 184.004 98.1603 184.004 98.973C184.005 99.1324 183.986 99.2912 183.948 99.446C183.807 100.019 183.663 100.592 183.515 101.163C183.514 101.171 183.509 101.178 183.503 101.183C183.497 101.187 183.489 101.19 183.481 101.189H171.028C171.024 101.189 171.019 101.187 171.016 101.185C171.013 101.182 171.01 101.178 171.009 101.174C170.867 100.601 170.724 100.026 170.581 99.449C170.542 99.2916 170.522 99.1301 170.522 98.968C170.519 97.8913 170.519 96.815 170.522 95.739C170.529 95.55 170.567 95.3634 170.632 95.186C170.762 94.782 170.997 94.4193 171.311 94.1342C171.626 93.8492 172.01 93.6519 172.425 93.562C172.8 93.5066 173.18 93.4849 173.559 93.497C177.735 93.4997 180.388 93.5 181.517 93.498ZM172.511 95.272C172.511 95.2153 172.488 95.1608 172.448 95.1207C172.408 95.0806 172.354 95.058 172.297 95.058H171.911C171.854 95.058 171.8 95.0806 171.76 95.1207C171.72 95.1608 171.697 95.2153 171.697 95.272V95.298C171.697 95.3548 171.72 95.4092 171.76 95.4493C171.8 95.4895 171.854 95.512 171.911 95.512H172.294C172.351 95.512 172.405 95.4895 172.445 95.4493C172.485 95.4092 172.508 95.3548 172.508 95.298L172.511 95.272ZM177.743 95.272C177.743 95.2147 177.72 95.1598 177.68 95.1193C177.639 95.0788 177.584 95.056 177.527 95.056H173.477C173.42 95.056 173.365 95.0788 173.324 95.1193C173.284 95.1598 173.261 95.2147 173.261 95.272V95.294C173.261 95.3513 173.284 95.4062 173.324 95.4467C173.365 95.4872 173.42 95.51 173.477 95.51H177.527C177.584 95.51 177.639 95.4872 177.68 95.4467C177.72 95.4062 177.743 95.3513 177.743 95.294V95.272Z" fill="#BB88FC"/>
<path d="M171.232 103.694C171.349 103.855 171.502 103.985 171.68 104.074C171.857 104.163 172.053 104.208 172.252 104.205C175.545 104.2 178.839 104.197 182.133 104.196C182.362 104.226 182.594 104.19 182.804 104.094C183.013 103.997 183.191 103.844 183.318 103.651C183.427 103.439 183.505 103.213 183.55 102.979L184.312 99.813C184.346 99.6194 184.414 99.4333 184.512 99.263C184.579 99.1745 184.666 99.1038 184.767 99.0571C184.868 99.0104 184.978 98.989 185.089 98.995C185.479 98.995 185.869 98.995 186.258 98.995C186.903 98.995 187.177 99.409 187.029 100.02C186.696 101.403 186.362 102.786 186.029 104.169C185.96 104.495 185.856 104.813 185.72 105.118C185.541 105.497 185.276 105.829 184.946 106.088C184.616 106.347 184.231 106.525 183.82 106.609C183.52 106.667 183.215 106.692 182.91 106.684H171.299C170.771 106.681 170.255 106.529 169.81 106.246C169.365 105.963 169.008 105.56 168.781 105.084C168.639 104.732 168.528 104.368 168.451 103.997C168.133 102.671 167.814 101.345 167.493 100.019C167.441 99.8981 167.423 99.7655 167.44 99.6351C167.456 99.5047 167.507 99.381 167.588 99.277C167.668 99.1729 167.775 99.0922 167.897 99.0432C168.019 98.9941 168.152 98.9785 168.282 98.998C168.861 98.994 169.241 98.994 169.421 98.998C169.906 99.005 170.085 99.288 170.195 99.741C170.466 100.862 170.737 101.984 171.009 103.106C171.049 103.313 171.124 103.512 171.232 103.694Z" fill="#BB88FC"/>
<path d="M172.237 103.742C172.097 103.748 171.957 103.714 171.836 103.643C171.714 103.572 171.616 103.468 171.552 103.342C171.5 103.199 171.458 103.053 171.426 102.905C171.325 102.498 171.227 102.088 171.132 101.675C171.128 101.655 171.135 101.645 171.155 101.645H183.368C183.388 101.645 183.396 101.655 183.391 101.675C183.289 102.127 183.181 102.576 183.068 103.021C183.035 103.199 182.962 103.366 182.855 103.512C182.785 103.589 182.699 103.649 182.603 103.689C182.507 103.729 182.404 103.748 182.3 103.743L172.237 103.742Z" fill="#BB88FC"/>
<path d="M172.293 109.041H171.319C171.317 109.041 171.314 109.041 171.311 109.039C171.309 109.038 171.306 109.036 171.305 109.034C171.303 109.032 171.302 109.029 171.301 109.026C171.301 109.024 171.301 109.021 171.301 109.018L171.801 107.155C171.802 107.151 171.805 107.148 171.808 107.145C171.811 107.143 171.815 107.141 171.818 107.141H173.271C173.275 107.141 173.278 107.142 173.281 107.143C173.283 107.145 173.286 107.147 173.287 107.15C173.289 107.153 173.29 107.156 173.29 107.159C173.29 107.162 173.289 107.165 173.287 107.168L172.304 109.031C172.303 109.033 172.302 109.035 172.3 109.037C172.298 109.039 172.296 109.04 172.293 109.041Z" fill="#BB88FC"/>
<path d="M181.246 107.142H182.702C182.706 107.142 182.71 107.143 182.713 107.146C182.716 107.148 182.718 107.151 182.719 107.155L183.219 109.019C183.22 109.022 183.22 109.024 183.219 109.027C183.219 109.029 183.218 109.032 183.216 109.034C183.215 109.036 183.212 109.038 183.21 109.039C183.208 109.04 183.205 109.041 183.202 109.041H182.228C182.225 109.041 182.222 109.04 182.219 109.038C182.216 109.037 182.214 109.034 182.212 109.031L181.228 107.167C181.227 107.164 181.226 107.161 181.227 107.158C181.227 107.155 181.227 107.153 181.229 107.15C181.23 107.147 181.233 107.145 181.235 107.144C181.238 107.142 181.241 107.141 181.243 107.141L181.246 107.142Z" fill="#BB88FC"/>
</g>
<g opacity="0.59">
<path d="M155.768 154.161L152.344 151.777C152.33 151.768 152.321 151.754 152.318 151.738C152.277 151.632 152.274 151.515 152.311 151.408C152.347 151.3 152.421 151.209 152.518 151.15C152.645 151.092 152.786 151.066 152.926 151.076C153.692 151.076 154.456 151.076 155.219 151.076C155.61 151.076 155.799 151.201 155.799 151.598C155.799 152.453 155.799 153.301 155.799 154.144C155.797 154.166 155.787 154.172 155.768 154.161Z" fill="#BB88FC"/>
<path d="M149.653 154.329C147.273 155.98 144.896 157.636 142.521 159.295C142.221 159.505 141.995 159.354 141.806 159.082L140.839 157.692C140.606 157.357 140.831 157.145 141.113 156.948L149.357 151.207C149.435 151.132 149.536 151.088 149.643 151.081C149.75 151.073 149.857 151.104 149.943 151.168L158.23 156.937C158.558 157.165 158.746 157.359 158.481 157.737C158.167 158.19 157.852 158.642 157.535 159.093C157.505 159.166 157.456 159.23 157.395 159.279C157.333 159.329 157.26 159.362 157.182 159.376C157.104 159.39 157.024 159.384 156.95 159.359C156.875 159.334 156.807 159.291 156.753 159.233C154.406 157.591 152.056 155.955 149.702 154.324C149.694 154.32 149.686 154.318 149.677 154.319C149.668 154.319 149.66 154.323 149.653 154.329Z" fill="#BB88FC"/>
<path d="M147.479 158.95C147.419 158.953 147.361 158.968 147.307 158.994C147.254 159.02 147.206 159.056 147.166 159.101C147.126 159.145 147.096 159.197 147.076 159.254C147.057 159.31 147.048 159.369 147.052 159.429C147.056 161.006 147.056 162.586 147.052 164.17C147.052 164.177 147.049 164.184 147.044 164.189C147.039 164.194 147.033 164.197 147.026 164.197H143.578C143.575 164.197 143.572 164.197 143.569 164.196C143.566 164.195 143.563 164.193 143.561 164.191C143.559 164.189 143.557 164.186 143.556 164.183C143.555 164.18 143.554 164.177 143.555 164.174V159.663C143.554 159.654 143.556 159.645 143.56 159.638C143.564 159.63 143.57 159.623 143.578 159.618L149.653 155.388C149.659 155.383 149.667 155.381 149.675 155.381C149.683 155.381 149.69 155.383 149.697 155.388L155.77 159.616C155.777 159.621 155.783 159.628 155.787 159.636C155.791 159.643 155.793 159.652 155.793 159.661V164.061C155.793 164.07 155.791 164.079 155.787 164.088C155.784 164.096 155.779 164.104 155.772 164.11L155.059 164.824C155.056 164.827 155.052 164.83 155.048 164.832C155.044 164.833 155.04 164.834 155.035 164.834C155.031 164.834 155.027 164.833 155.022 164.832C155.018 164.83 155.015 164.827 155.012 164.824C154.22 164.288 153.259 164.063 152.312 164.193C152.309 164.193 152.307 164.193 152.305 164.192C152.302 164.191 152.3 164.189 152.298 164.187C152.297 164.186 152.295 164.184 152.294 164.181C152.293 164.179 152.293 164.176 152.293 164.174V159.524C152.293 159.14 152.173 158.945 151.779 158.945L147.479 158.95Z" fill="#BB88FC"/>
<path d="M155.163 166.376C155.291 166.661 155.356 166.971 155.353 167.284C155.35 167.597 155.28 167.906 155.147 168.189C155.014 168.472 154.822 168.723 154.583 168.925C154.344 169.127 154.064 169.275 153.763 169.359C153.483 169.419 153.198 169.445 152.913 169.437C151.457 169.437 150 169.437 148.544 169.437C148.401 169.426 148.258 169.45 148.126 169.505C148.067 169.549 148.019 169.607 147.987 169.673C147.955 169.739 147.939 169.812 147.94 169.885C147.942 169.959 147.961 170.031 147.996 170.096C148.032 170.16 148.082 170.216 148.143 170.257C148.246 170.3 148.357 170.318 148.469 170.311C149.856 170.311 151.243 170.311 152.631 170.311C152.994 170.321 153.358 170.301 153.719 170.251C154.225 170.161 154.7 169.944 155.1 169.622C155.499 169.299 155.811 168.88 156.006 168.405C156.201 167.929 156.273 167.412 156.215 166.902C156.157 166.391 155.971 165.903 155.674 165.484C155.671 165.481 155.668 165.478 155.667 165.474C155.665 165.47 155.664 165.466 155.664 165.462C155.664 165.458 155.665 165.454 155.667 165.45C155.668 165.446 155.671 165.443 155.674 165.44C156.584 164.529 157.494 163.621 158.404 162.714C158.619 162.493 158.882 162.324 159.172 162.217C159.461 162.111 159.771 162.071 160.079 162.1C160.386 162.128 160.683 162.225 160.948 162.384C161.213 162.542 161.439 162.757 161.611 163.014C161.79 163.316 161.892 163.656 161.91 164.007C161.927 164.357 161.859 164.706 161.711 165.024C161.58 165.286 161.428 165.536 161.255 165.771C160.065 167.48 158.881 169.193 157.703 170.909C157.233 171.611 156.585 172.176 155.826 172.544C155.157 172.838 154.428 172.969 153.699 172.926C151.339 172.926 148.979 172.926 146.62 172.926C146.572 172.926 146.481 172.933 146.345 172.948C146.335 172.949 146.325 172.948 146.316 172.945C146.307 172.942 146.299 172.936 146.293 172.929L140.263 166.908C140.26 166.906 140.259 166.904 140.258 166.902C140.256 166.9 140.256 166.897 140.256 166.894C140.256 166.892 140.256 166.889 140.258 166.887C140.259 166.885 140.26 166.883 140.263 166.881C140.716 166.332 141.282 165.887 141.922 165.574C142.562 165.262 143.261 165.089 143.973 165.069C146.859 165.074 149.746 165.074 152.632 165.069C152.987 165.057 153.343 165.083 153.693 165.147C154.018 165.22 154.321 165.369 154.577 165.583C154.832 165.797 155.033 166.069 155.163 166.376Z" fill="#BB88FC"/>
<path d="M146.362 174.248L138.75 166.636L135.509 169.877L143.121 177.489L146.362 174.248Z" fill="#BB88FC"/>
</g>
<g opacity="0.59">
<path d="M232.18 36.515C231.659 37.5528 231.445 38.7178 231.563 39.873C231.582 40.0549 231.628 40.2329 231.7 40.401C231.747 40.4992 231.771 40.607 231.77 40.716C231.753 40.8435 231.698 40.9631 231.613 41.0597C231.528 41.1563 231.416 41.2257 231.292 41.259C231.284 41.2608 231.275 41.2606 231.267 41.2583C231.259 41.2561 231.251 41.2518 231.245 41.246L231.064 41.079C231.056 41.0721 231.05 41.0638 231.046 41.0545C231.042 41.0452 231.039 41.0352 231.039 41.025C231.027 40.707 230.983 40.3911 230.908 40.082C230.903 40.0637 230.903 40.0443 230.908 40.026C230.972 39.8431 231.006 39.6509 231.008 39.457C230.902 38.2922 231.142 37.1221 231.697 36.0927C232.252 35.0633 233.099 34.2203 234.13 33.669C234.998 33.2511 235.971 33.1039 236.924 33.2466C237.876 33.3893 238.764 33.8152 239.471 34.469C240.635 35.5464 241.327 37.0388 241.398 38.623C241.41 38.8323 241.415 39.2937 241.412 40.007C241.412 40.207 241.565 40.491 241.571 40.69C241.571 40.7659 241.556 40.841 241.526 40.9108C241.496 40.9805 241.452 41.0434 241.397 41.0955C241.342 41.1477 241.277 41.188 241.205 41.2139C241.134 41.2399 241.058 41.251 240.982 41.2466C240.907 41.2422 240.833 41.2222 240.765 41.1881C240.697 41.154 240.637 41.1063 240.588 41.0481C240.54 40.9898 240.503 40.9223 240.482 40.8495C240.46 40.7767 240.454 40.7003 240.463 40.625C240.484 40.5205 240.525 40.4212 240.585 40.333C240.748 40.0598 240.842 39.7508 240.858 39.433C240.929 38.5055 240.753 37.5758 240.35 36.7378C239.946 35.8999 239.328 35.1835 238.558 34.661C238.027 34.325 237.431 34.1057 236.809 34.0176C236.188 33.9295 235.554 33.9746 234.951 34.1499C234.348 34.3252 233.789 34.6268 233.311 35.0345C232.833 35.4423 232.448 35.9469 232.18 36.515Z" fill="#BB88FC"/>
<path d="M228.913 38.718C229.113 38.626 229.32 38.513 229.484 38.657C230.109 39.2632 230.469 40.0929 230.484 40.964C230.484 40.973 230.483 40.9821 230.478 40.9901C230.474 40.9981 230.468 41.0047 230.46 41.009L229.395 41.639C229.387 41.644 229.378 41.6467 229.369 41.6467C229.36 41.6467 229.351 41.644 229.344 41.639C228.506 41.1918 227.871 40.4402 227.571 39.539C227.534 39.383 227.671 39.277 227.812 39.214L228.913 38.718Z" fill="#BB88FC"/>
<path d="M230.449 43.379L229.494 42.386C229.483 42.3738 229.474 42.3591 229.469 42.343C229.463 42.3269 229.462 42.3098 229.464 42.293C229.466 42.2762 229.472 42.2601 229.481 42.2459C229.491 42.2317 229.503 42.2198 229.517 42.211L230.638 41.543C230.661 41.5295 230.687 41.5242 230.713 41.528C230.739 41.5319 230.763 41.5446 230.78 41.564L231.717 42.607C231.729 42.6196 231.737 42.6346 231.742 42.6509C231.746 42.6671 231.747 42.6843 231.745 42.701C231.742 42.7177 231.735 42.7335 231.726 42.7474C231.716 42.7612 231.703 42.7727 231.688 42.781L230.588 43.4C230.566 43.4127 230.54 43.4176 230.515 43.4137C230.49 43.4099 230.467 43.3977 230.449 43.379Z" fill="#BB88FC"/>
<path d="M226.745 45.527C226.731 45.5463 226.726 45.5443 226.729 45.521C226.808 44.8337 226.899 44.142 227.001 43.446C227.086 42.873 227.112 42.446 227.685 42.31C228.064 42.2956 228.441 42.3554 228.796 42.486C228.816 42.4913 228.82 42.502 228.808 42.518L226.745 45.527Z" fill="#BB88FC"/>
<path d="M223.678 51.779C224.241 50.671 224.849 49.5877 225.501 48.529C226.677 46.6217 227.914 44.753 229.213 42.923C229.214 42.9209 229.216 42.9192 229.218 42.918C229.22 42.9168 229.222 42.9162 229.225 42.9162C229.227 42.9162 229.229 42.9168 229.232 42.918C229.234 42.9192 229.235 42.9209 229.237 42.923C229.526 43.2283 229.819 43.5313 230.116 43.832C230.216 43.9159 230.341 43.9629 230.472 43.965C230.479 43.9656 230.487 43.969 230.493 43.9745C230.498 43.9799 230.502 43.9872 230.503 43.995L230.63 45.014C230.631 45.0208 230.63 45.0276 230.628 45.0341C230.625 45.0405 230.622 45.0463 230.617 45.051C229.345 46.3312 228.274 47.796 227.44 49.396C226.194 51.636 224.937 53.8737 223.671 56.109C223.666 56.117 223.659 56.1235 223.651 56.1277C223.643 56.132 223.634 56.1338 223.625 56.133C223.612 56.1325 223.6 56.1289 223.589 56.1226C223.578 56.1164 223.569 56.1076 223.563 56.097C223.229 55.6644 223.012 55.1536 222.931 54.6132C222.851 54.0729 222.91 53.5209 223.104 53.01C223.203 52.746 223.394 52.3357 223.678 51.779Z" fill="#BB88FC"/>
<path d="M231.881 43.334C233.242 43.64 234.14 45.234 234.581 46.46C234.633 46.5724 234.653 46.6967 234.64 46.8198C234.628 46.943 234.582 47.0604 234.509 47.16C234.36 47.3051 234.183 47.4175 233.989 47.49L233.324 47.79C233.157 47.8797 232.973 47.9342 232.784 47.95C232.678 47.9462 232.574 47.9181 232.481 47.8678C232.387 47.8175 232.306 47.7464 232.245 47.66C231.479 46.519 231.066 45.1773 231.059 43.803C231.058 43.7933 231.06 43.7836 231.065 43.775C231.069 43.7665 231.076 43.7595 231.085 43.755L231.825 43.338C231.842 43.3295 231.862 43.328 231.881 43.334Z" fill="#BB88FC"/>
<path d="M230.774 45.712C230.93 46.5139 231.262 47.271 231.747 47.928C231.762 47.9453 231.769 47.9675 231.767 47.99L231.353 54.284C231.353 54.2869 231.352 54.2897 231.35 54.292C231.349 54.2943 231.346 54.2962 231.344 54.2973C231.341 54.2984 231.338 54.2988 231.335 54.2984C231.332 54.298 231.33 54.2968 231.327 54.295L229.474 52.566C229.468 52.56 229.463 52.5525 229.459 52.5442C229.456 52.5359 229.455 52.5269 229.455 52.518L229.931 46.607C229.932 46.6 229.935 46.5934 229.939 46.588L230.725 45.701C230.751 45.673 230.767 45.6767 230.774 45.712Z" fill="#BB88FC"/>
<path d="M243.744 56.902H240.98V57.358H243.744V56.902Z" fill="#BB88FC"/>
</g>
</g>
</g>
</g>
<defs>
<linearGradient id="paint0_linear_246_1361" x1="125.543" y1="305.046" x2="125.705" y2="304.895" gradientUnits="userSpaceOnUse">
<stop stop-color="#510394"/>
<stop offset="0.141" stop-color="#4A0387"/>
<stop offset="0.397" stop-color="#380368"/>
<stop offset="0.736" stop-color="#1B0334"/>
<stop offset="1" stop-color="#030408"/>
</linearGradient>
<linearGradient id="paint1_linear_246_1361" x1="0.0183203" y1="224.404" x2="0.337966" y2="224.404" gradientUnits="userSpaceOnUse">
<stop stop-color="#D3D6DB"/>
<stop offset="0.999" stop-color="#7A869B"/>
<stop offset="1" stop-color="#7A869B"/>
</linearGradient>
<clipPath id="clip0_246_1361">
<rect width="339" height="224.415" fill="white"/>
</clipPath>
</defs>
</svg>
