<svg width="111" height="127" viewBox="0 0 111 127" fill="none" xmlns="http://www.w3.org/2000/svg">
<g clip-path="url(#clip0_246_1502)">
<path d="M108.467 29.8169L57.983 0.669873C57.2229 0.231031 56.3607 0 55.483 0C54.6053 0 53.7431 0.231031 52.983 0.669873L2.5 29.8169C1.73992 30.2557 1.10875 30.8869 0.669905 31.6469C0.231064 32.407 2.23723e-05 33.2692 7.6224e-08 34.1469V92.4399C-0.000153182 93.3177 0.230805 94.1801 0.669655 94.9404C1.1085 95.7006 1.73978 96.332 2.5 96.7709L52.983 125.917C53.7431 126.356 54.6053 126.587 55.483 126.587C56.3607 126.587 57.2229 126.356 57.983 125.917L108.467 96.7709C109.227 96.332 109.858 95.7006 110.297 94.9404C110.736 94.1801 110.967 93.3177 110.967 92.4399V34.1469C110.967 33.2692 110.736 32.407 110.297 31.6469C109.858 30.8869 109.227 30.2557 108.467 29.8169Z" fill="#F6F5FA"/>
<path d="M56.5359 25.225V21.275C56.538 21.136 56.5121 20.9981 56.4598 20.8693C56.4076 20.7405 56.33 20.6235 56.2317 20.5252C56.1334 20.4269 56.0164 20.3494 55.8877 20.2971C55.7589 20.2449 55.6209 20.219 55.4819 20.221C55.3402 20.2079 55.1974 20.2262 55.0636 20.2745C54.9298 20.3229 54.8082 20.4001 54.7076 20.5007C54.607 20.6013 54.5298 20.7229 54.4815 20.8567C54.4331 20.9905 54.4148 21.1333 54.4279 21.275V25.357C54.4946 25.5967 54.6299 25.8117 54.8172 25.9755C55.0044 26.1393 55.2355 26.2448 55.4819 26.279C55.7554 26.2605 56.0129 26.1435 56.2067 25.9497C56.4005 25.7559 56.5174 25.4985 56.5359 25.225Z" fill="#FF6902"/>
<path d="M41.6514 29.967C41.7674 29.9102 41.8704 29.8301 41.954 29.7318C42.0377 29.6335 42.1002 29.519 42.1378 29.3955C42.1753 29.2719 42.187 29.142 42.1721 29.0138C42.1573 28.8855 42.1162 28.7617 42.0514 28.65L40.0704 25.093C39.9482 24.866 39.7407 24.6968 39.4937 24.6227C39.2468 24.5487 38.9805 24.5757 38.7534 24.698C38.5264 24.8203 38.3572 25.0277 38.2832 25.2747C38.2091 25.5217 38.2362 25.788 38.3584 26.015L40.3344 29.575C40.392 29.6903 40.4726 29.7925 40.5712 29.8753C40.6698 29.9582 40.7845 30.0199 40.9079 30.0566C41.0314 30.0934 41.1611 30.1044 41.289 30.089C41.4169 30.0735 41.5402 30.032 41.6514 29.967Z" fill="#FF6902"/>
<path d="M30.3231 40.375C30.5501 40.4973 30.8164 40.5243 31.0634 40.4503C31.3104 40.3762 31.5178 40.207 31.6401 39.98C31.7624 39.753 31.7894 39.4867 31.7154 39.2397C31.6413 38.9927 31.4721 38.7853 31.2451 38.663L27.6891 36.685C27.4621 36.5627 27.1958 36.5357 26.9488 36.6097C26.7018 36.6838 26.4944 36.853 26.3721 37.08C26.2498 37.307 26.2228 37.5733 26.2968 37.8203C26.3709 38.0673 26.5401 38.2747 26.7671 38.397L30.3231 40.375Z" fill="#FF6902"/>
<path d="M79.72 68.958L83.277 70.934C83.3894 70.9945 83.5127 71.0323 83.6397 71.0453C83.7667 71.0582 83.895 71.0459 84.0173 71.0093C84.1396 70.9726 84.2535 70.9122 84.3524 70.8315C84.4514 70.7508 84.5335 70.6514 84.594 70.539C84.6546 70.4266 84.6924 70.3034 84.7053 70.1763C84.7182 70.0493 84.706 69.921 84.6693 69.7987C84.6326 69.6764 84.5722 69.5625 84.4915 69.4636C84.4108 69.3646 84.3114 69.2825 84.199 69.222L80.642 67.246C80.5315 67.1768 80.4073 67.1322 80.2781 67.115C80.1488 67.0978 80.0173 67.1086 79.8925 67.1465C79.7678 67.1844 79.6525 67.2486 79.5546 67.3347C79.4568 67.4209 79.3784 67.527 79.325 67.646C79.2609 67.7572 79.2202 67.8803 79.2055 68.0078C79.1907 68.1353 79.2022 68.2644 79.2392 68.3873C79.2762 68.5102 79.3379 68.6242 79.4206 68.7224C79.5033 68.8205 79.6052 68.9007 79.72 68.958Z" fill="#FF6902"/>
<path d="M21.8956 53.81C21.8936 53.949 21.9194 54.0869 21.9717 54.2157C22.0239 54.3445 22.1015 54.4615 22.1998 54.5598C22.2981 54.6581 22.4151 54.7356 22.5439 54.7879C22.6726 54.8401 22.8106 54.866 22.9496 54.864H27.0336C27.1725 54.866 27.3105 54.8401 27.4393 54.7879C27.5681 54.7356 27.6851 54.6581 27.7834 54.5598C27.8817 54.4615 27.9592 54.3445 28.0115 54.2157C28.0637 54.0869 28.0896 53.949 28.0876 53.81C28.1007 53.6683 28.0824 53.5255 28.034 53.3917C27.9857 53.2579 27.9085 53.1363 27.8079 53.0357C27.7073 52.9351 27.5857 52.8579 27.4519 52.8095C27.3181 52.7612 27.1753 52.7429 27.0336 52.756H22.9466C22.2876 52.888 21.8926 53.283 21.8926 53.81H21.8956Z" fill="#FF6902"/>
<path d="M89.0719 53.81C89.0739 53.671 89.048 53.5331 88.9958 53.4043C88.9435 53.2755 88.8659 53.1585 88.7677 53.0602C88.6694 52.9619 88.5524 52.8844 88.4236 52.8321C88.2948 52.7799 88.1568 52.754 88.0179 52.756H83.9349C83.6553 52.756 83.3872 52.867 83.1896 53.0647C82.9919 53.2624 82.8809 53.5305 82.8809 53.81C82.8809 54.0895 82.9919 54.3576 83.1896 54.5553C83.3872 54.753 83.6553 54.864 83.9349 54.864H88.0189C88.1577 54.8659 88.2956 54.8399 88.4243 54.7876C88.553 54.7353 88.6698 54.6577 88.768 54.5594C88.8662 54.4612 88.9437 54.3442 88.9958 54.2155C89.048 54.0868 89.0739 53.9489 89.0719 53.81Z" fill="#FF6902"/>
<path d="M27.6891 70.934L31.2461 68.958C31.4731 68.8357 31.6423 68.6283 31.7164 68.3813C31.7904 68.1343 31.7634 67.868 31.6411 67.641C31.5188 67.414 31.3114 67.2448 31.0644 67.1707C30.8174 67.0967 30.5511 67.1237 30.3241 67.246L26.7671 69.222C26.5401 69.3443 26.3709 69.5517 26.2968 69.7987C26.2228 70.0457 26.2498 70.312 26.3721 70.539C26.4944 70.766 26.7018 70.9352 26.9488 71.0093C27.1958 71.0833 27.4621 71.0563 27.6891 70.934Z" fill="#FF6902"/>
<path d="M80.6422 40.375L84.1952 38.397C84.4222 38.2747 84.5913 38.0673 84.6654 37.8203C84.7395 37.5733 84.7124 37.307 84.5901 37.08C84.4679 36.853 84.2604 36.6838 84.0135 36.6097C83.7665 36.5357 83.5002 36.5627 83.2732 36.685L79.7162 38.661C79.4889 38.7838 79.3197 38.9919 79.2458 39.2394C79.1719 39.4869 79.1994 39.7537 79.3222 39.981C79.4449 40.2083 79.653 40.3775 79.9006 40.4514C80.1481 40.5253 80.4149 40.4978 80.6422 40.375Z" fill="#FF6902"/>
<path d="M70.6322 29.575L72.6082 26.15C72.7308 25.923 72.7583 25.6565 72.6845 25.4093C72.6107 25.162 72.4417 24.9542 72.2147 24.8315C71.9877 24.7088 71.7212 24.6814 71.4739 24.7552C71.2267 24.829 71.0189 24.998 70.8962 25.225L68.9202 28.782C68.851 28.8926 68.8064 29.0167 68.7892 29.146C68.772 29.2752 68.7828 29.4067 68.8207 29.5315C68.8586 29.6563 68.9227 29.7715 69.0089 29.8694C69.0951 29.9673 69.2012 30.0456 69.3202 30.099C69.5669 30.1736 69.8317 30.1621 70.0711 30.0663C70.3104 29.9706 70.51 29.7962 70.6372 29.572L70.6322 29.575Z" fill="#FF6902"/>
<path d="M69.3141 84.107C70.3758 79.0293 72.4847 74.2288 75.5061 70.012C78.5361 65.402 81.6971 60.659 81.1701 52.097C80.3791 38.924 69.0511 28.255 56.1421 28.255C51.319 28.1321 46.5597 29.3765 42.4141 31.8446C38.2685 34.3126 34.906 37.9034 32.7152 42.2019C30.5244 46.5005 29.5948 51.3312 30.0338 56.1358C30.4728 60.9404 32.2625 65.5227 35.1961 69.353C38.5194 73.6363 40.7775 78.6479 41.7841 83.975C41.8884 84.5367 42.121 85.0667 42.4638 85.5237C42.8065 85.9808 43.2501 86.3525 43.7601 86.61V89.64H42.5741C42.2946 89.64 42.0265 89.751 41.8288 89.9487C41.6311 90.1464 41.5201 90.4145 41.5201 90.694C41.5201 90.9735 41.6311 91.2416 41.8288 91.4393C42.0265 91.637 42.2946 91.748 42.5741 91.748H43.6281V94.248H42.4421C42.3031 94.246 42.1652 94.2719 42.0364 94.3241C41.9076 94.3764 41.7906 94.4539 41.6923 94.5522C41.594 94.6505 41.5165 94.7675 41.4642 94.8963C41.412 95.0251 41.3861 95.163 41.3881 95.302C41.375 95.4437 41.3933 95.5865 41.4416 95.7203C41.49 95.8542 41.5672 95.9757 41.6678 96.0763C41.7684 96.1769 41.89 96.2541 42.0238 96.3025C42.1576 96.3508 42.3004 96.3691 42.4421 96.356H43.6281V96.488C43.6273 97.1456 43.7563 97.7969 44.0075 98.4047C44.2588 99.0124 44.6276 99.5645 45.0926 100.03C45.5576 100.495 46.1097 100.863 46.7175 101.115C47.3252 101.366 47.9765 101.495 48.6341 101.494H49.6881C49.9255 102.859 50.637 104.096 51.6973 104.988C52.7576 105.88 54.0986 106.369 55.4841 106.369C56.8696 106.369 58.2106 105.88 59.2709 104.988C60.3312 104.096 61.0427 102.859 61.2801 101.494H62.3341C62.9917 101.495 63.643 101.366 64.2507 101.115C64.8585 100.863 65.4106 100.495 65.8756 100.03C66.3406 99.5645 66.7094 99.0124 66.9606 98.4047C67.2119 97.7969 67.3409 97.1456 67.3401 96.488V96.088H68.3961C68.5351 96.09 68.673 96.0641 68.8018 96.0119C68.9306 95.9596 69.0476 95.8821 69.1459 95.7838C69.2442 95.6855 69.3217 95.5685 69.374 95.4397C69.4262 95.3109 69.4521 95.173 69.4501 95.034C69.4622 94.8928 69.4433 94.7506 69.3945 94.6176C69.3458 94.4845 69.2684 94.3637 69.1679 94.2638C69.0674 94.1639 68.9462 94.0872 68.8128 94.0392C68.6795 93.9912 68.5372 93.973 68.3961 93.986H67.3391V91.486H68.3961C68.676 91.486 68.9445 91.3748 69.1424 91.1769C69.3404 90.9789 69.4516 90.7104 69.4516 90.4305C69.4516 90.1506 69.3404 89.8821 69.1424 89.6842C68.9445 89.4862 68.676 89.375 68.3961 89.375H67.3391V86.345C67.8411 86.187 68.2904 85.895 68.6386 85.5004C68.9868 85.1058 69.2207 84.6237 69.3151 84.106L69.3141 84.107ZM36.7781 68.299C34.1126 64.8156 32.4669 60.6602 32.0246 56.2963C31.5822 51.9324 32.3606 47.5314 34.2729 43.5839C36.1852 39.6364 39.1563 36.2977 42.8549 33.9398C46.5535 31.5819 50.8343 30.2976 55.2201 30.23H55.8791C67.8661 30.23 78.1411 40.11 78.9311 52.23C79.4581 60.13 76.6921 64.349 73.6621 68.959C70.5098 73.3753 68.3115 78.3996 67.2071 83.712C67.1473 84.0855 66.9541 84.4247 66.6635 84.6669C66.3728 84.909 66.0043 85.0376 65.6261 85.029H45.2081C44.8299 85.0376 44.4614 84.909 44.1707 84.6669C43.8801 84.4247 43.6869 84.0855 43.6271 83.712C42.5919 78.1061 40.2446 72.8248 36.7771 68.3L36.7781 68.299ZM55.4831 104.129C54.6165 104.131 53.7731 103.849 53.0829 103.325C52.3926 102.801 51.8938 102.064 51.6631 101.229H59.1711C58.9651 102.053 58.4909 102.785 57.8233 103.31C57.1556 103.835 56.3324 104.123 55.4831 104.129Z" fill="black"/>
<path d="M54.4277 70.934C54.7553 71.0984 55.1153 71.1882 55.4817 71.197C55.8458 71.1721 56.2026 71.083 56.5357 70.934C66.9417 65.928 68.7867 54.334 68.9177 47.882C68.941 47.3121 68.7516 46.754 68.3865 46.3158C68.0214 45.8777 67.5065 45.5909 66.9417 45.511C63.3302 44.9584 59.8741 43.6572 56.7947 41.691C56.4286 41.434 55.9921 41.2961 55.5447 41.2961C55.0974 41.2961 54.6609 41.434 54.2947 41.691C51.2166 43.6567 47.7618 44.9578 44.1517 45.511C43.587 45.5909 43.0721 45.8777 42.707 46.3158C42.3418 46.754 42.1525 47.3121 42.1757 47.882C42.3077 59.082 46.7857 67.246 54.4267 70.934H54.4277ZM50.8717 54.863C51.0651 54.6731 51.3252 54.5667 51.5962 54.5667C51.8672 54.5667 52.1274 54.6731 52.3207 54.863L54.2947 56.839L58.9047 52.229C59.0989 52.0486 59.3554 51.9504 59.6204 51.955C59.8854 51.9596 60.1383 52.0667 60.326 52.2538C60.5138 52.4409 60.6217 52.6934 60.6273 52.9584C60.6328 53.2234 60.5355 53.4802 60.3557 53.675L55.0867 58.944C54.7936 59.0754 54.4831 59.164 54.1647 59.207C53.9204 59.2023 53.6862 59.1088 53.5057 58.944L50.8707 56.309C50.6809 56.1157 50.5745 55.8555 50.5745 55.5845C50.5745 55.3135 50.6809 55.0533 50.8707 54.86L50.8717 54.863Z" fill="#FF6902"/>
</g>
<defs>
<clipPath id="clip0_246_1502">
<rect width="110.967" height="126.586" fill="white"/>
</clipPath>
</defs>
</svg>
