<svg width="339" height="200" viewBox="0 0 339 200" fill="none" xmlns="http://www.w3.org/2000/svg">
<g clip-path="url(#clip0_246_1836)">
<path d="M209.53 133.917C159.462 102.649 175.485 39.699 175.485 39.699C197.547 29.365 227.86 21.599 227.86 21.599C227.86 21.599 254.131 38.599 271.76 55.415C271.76 55.415 266.938 120.193 209.527 133.921" fill="white"/>
<path d="M209.531 134.287C209.461 134.288 209.391 134.268 209.332 134.231C198.158 127.384 188.992 117.707 182.76 106.18C177.681 96.5197 174.491 85.98 173.36 75.125C172.016 63.2688 172.611 51.273 175.121 39.608C175.135 39.5551 175.16 39.5058 175.194 39.4636C175.229 39.4214 175.272 39.3874 175.322 39.364C197.173 29.129 227.468 21.315 227.771 21.237C227.821 21.2245 227.872 21.2223 227.922 21.2305C227.973 21.2388 228.021 21.2573 228.063 21.285C228.326 21.455 254.564 38.5 272.021 55.143C272.061 55.1813 272.092 55.2282 272.111 55.2801C272.131 55.3321 272.138 55.3877 272.134 55.443C270.805 67.3007 267.556 78.8632 262.513 89.677C257.99 99.6075 251.616 108.585 243.732 116.129C234.158 125.077 222.391 131.337 209.62 134.277C209.592 134.284 209.564 134.287 209.535 134.287M175.807 39.959C173.36 51.4939 172.786 63.3476 174.108 75.065C176.154 92.871 183.974 117.451 209.599 133.522C238.999 126.432 254.235 105.613 261.836 89.382C266.813 78.6926 270.038 67.2715 271.385 55.557C254.632 39.619 229.86 23.34 227.798 21.994C225.415 22.615 196.757 30.174 175.806 39.958" fill="black"/>
<path d="M211.447 122.19C203.38 116.821 196.746 109.564 192.12 101.049C187.965 93.1816 185.344 84.5957 184.397 75.749C183.359 66.5825 183.673 57.3134 185.328 48.238C201.085 41.638 221.839 32.848 226.028 32.824C229.99 34.178 246.876 49.113 259.719 60.38C258.402 69.5104 255.752 78.398 251.855 86.759C248.144 94.8465 242.929 102.154 236.488 108.293C229.395 114.895 220.797 119.667 211.442 122.193" fill="#FF6902"/>
<path d="M214.461 103.711C209.73 100.562 205.839 96.3052 203.126 91.311C200.689 86.6966 199.152 81.6607 198.597 76.472C197.988 71.0962 198.172 65.6603 199.143 60.338C208.384 56.469 220.556 51.312 223.015 51.298C225.339 52.092 235.242 60.851 242.774 67.459C242.002 72.8138 240.448 78.0264 238.162 82.93C235.986 87.673 232.927 91.9589 229.15 95.559C224.99 99.4312 219.948 102.23 214.461 103.711Z" fill="white"/>
<path d="M215.286 101.168C211.75 98.1852 208.851 94.5211 206.762 90.394C204.302 85.3947 202.773 79.9892 202.249 74.442C201.747 69.5412 201.793 64.5997 202.386 59.709C208.816 57.5186 215.527 56.2605 222.314 55.973C228.693 58.3083 234.705 61.5451 240.166 65.585C239.246 70.4248 237.789 75.1469 235.822 79.664C233.639 84.7901 230.541 89.4759 226.679 93.492C223.435 96.7897 219.561 99.4006 215.286 101.169" fill="white"/>
<path d="M214.086 83.124L213.986 83.106C213.749 83.0557 213.524 82.9582 213.326 82.8192C213.128 82.6801 212.96 82.5025 212.832 82.297L209.908 77.61C209.782 77.4094 209.698 77.186 209.659 76.9527C209.62 76.7195 209.628 76.4808 209.681 76.2504C209.735 76.02 209.833 75.8024 209.97 75.61C210.108 75.4176 210.282 75.2541 210.483 75.129C210.683 75.0038 210.907 74.9195 211.14 74.8806C211.373 74.8418 211.612 74.8493 211.842 74.9027C212.073 74.9561 212.29 75.0543 212.483 75.1918C212.675 75.3293 212.838 75.5034 212.964 75.704L214.898 78.804L228.898 69.32C229.093 69.1874 229.313 69.0946 229.545 69.047C229.777 68.9994 230.015 68.9979 230.248 69.0425C230.48 69.0872 230.701 69.1772 230.899 69.3073C231.096 69.4375 231.266 69.6052 231.399 69.801C231.531 69.9968 231.624 70.2168 231.672 70.4485C231.719 70.6801 231.721 70.9189 231.676 71.1511C231.631 71.3834 231.541 71.6045 231.411 71.802C231.281 71.9995 231.113 72.1694 230.918 72.302L215.365 82.835C214.988 83.0904 214.528 83.1933 214.078 83.123" fill="#FF6902"/>
<path d="M282.814 35.192V43.748C282.814 44.4861 282.669 45.217 282.387 45.899C282.104 46.5809 281.69 47.2006 281.168 47.7225C280.647 48.2444 280.027 48.6584 279.345 48.9407C278.663 49.2231 277.932 49.3683 277.194 49.368H231.042C230.304 49.3683 229.573 49.2231 228.891 48.9407C228.209 48.6584 227.589 48.2444 227.067 47.7225C226.545 47.2006 226.131 46.5809 225.849 45.899C225.567 45.217 225.422 44.4861 225.422 43.748V35.185C225.422 34.447 225.567 33.7162 225.85 33.0343C226.132 32.3525 226.546 31.7329 227.068 31.2111C227.59 30.6892 228.209 30.2752 228.891 29.9928C229.573 29.7104 230.304 29.565 231.042 29.565H277.19C278.681 29.5695 280.109 30.164 281.163 31.2186C282.217 32.2732 282.81 33.7021 282.814 35.193" fill="white"/>
<path d="M277.193 49.738H231.041C229.453 49.7353 227.931 49.1034 226.808 47.9806C225.685 46.8579 225.053 45.3358 225.051 43.748V35.185C225.053 33.5972 225.685 32.0751 226.808 30.9523C227.931 29.8296 229.453 29.1976 231.041 29.195H277.189C278.779 29.1966 280.304 29.8294 281.427 30.9545C282.551 32.0795 283.183 33.6047 283.183 35.195V43.749C283.18 45.3368 282.548 46.8589 281.425 47.9816C280.303 49.1044 278.781 49.7353 277.193 49.738ZM231.041 29.939C229.649 29.9406 228.314 30.4942 227.33 31.4784C226.346 32.4627 225.792 33.7971 225.791 35.189V43.749C225.792 45.1409 226.346 46.4753 227.33 47.4595C228.314 48.4438 229.649 48.9974 231.041 48.999H277.193C278.585 48.9974 279.919 48.4438 280.903 47.4595C281.888 46.4753 282.441 45.1409 282.443 43.749V35.192C282.442 33.7985 281.888 32.4623 280.903 31.4766C279.918 30.4909 278.582 29.9361 277.189 29.934L231.041 29.939Z" fill="black"/>
<path d="M245.874 40.46C245.966 40.4899 246.044 40.552 246.093 40.6349C246.143 40.7178 246.161 40.8159 246.144 40.911C246.07 41.2963 245.919 41.6627 245.7 41.988C245.529 42.3384 245.286 42.6485 244.987 42.898C244.912 42.9574 244.819 42.9892 244.724 42.988C244.628 42.9867 244.536 42.9524 244.463 42.891L241.563 40.577L242.146 44.229C242.171 44.3236 242.16 44.4244 242.114 44.5108C242.068 44.5973 241.991 44.6631 241.898 44.695C241.137 44.9087 240.331 44.9087 239.57 44.695C239.477 44.6633 239.4 44.5976 239.354 44.511C239.308 44.4245 239.296 44.3236 239.322 44.229L239.904 40.577L237.004 42.891C236.933 42.9521 236.843 42.9858 236.749 42.9858C236.656 42.9858 236.566 42.9521 236.495 42.891C236.194 42.6365 235.947 42.3248 235.767 41.974C235.546 41.6555 235.397 41.2928 235.33 40.911C235.314 40.8171 235.332 40.7205 235.379 40.6382C235.427 40.5558 235.502 40.4928 235.592 40.46L239.055 39.121L235.592 37.782C235.502 37.7492 235.427 37.6862 235.379 37.6038C235.332 37.5215 235.314 37.4249 235.33 37.331C235.52 36.5705 235.921 35.8792 236.487 35.337C236.56 35.2751 236.653 35.2424 236.748 35.2449C236.844 35.2475 236.935 35.2853 237.004 35.351L239.904 37.665L239.322 34.013C239.298 33.9193 239.31 33.8201 239.356 33.7351C239.402 33.65 239.478 33.5854 239.57 33.554C240.33 33.3308 241.138 33.3308 241.898 33.554C241.989 33.5856 242.065 33.6503 242.111 33.7352C242.157 33.8202 242.17 33.9193 242.146 34.013L241.563 37.665L244.463 35.351C244.533 35.2857 244.624 35.2488 244.72 35.2475C244.815 35.2462 244.908 35.2806 244.979 35.344C245.274 35.6051 245.518 35.9183 245.699 36.268C245.919 36.5878 246.07 36.9498 246.143 37.331C246.16 37.4261 246.142 37.5242 246.092 37.6071C246.043 37.69 245.965 37.7521 245.873 37.782L242.425 39.121L245.874 40.46Z" fill="#BB88FC"/>
<path d="M261.374 40.46C261.466 40.4899 261.544 40.552 261.593 40.6349C261.643 40.7178 261.661 40.8159 261.644 40.911C261.57 41.2963 261.419 41.6626 261.2 41.988C261.029 42.3384 260.786 42.6485 260.487 42.898C260.412 42.9573 260.319 42.9889 260.224 42.9877C260.128 42.9864 260.036 42.9522 259.963 42.891L257.063 40.577L257.645 44.229C257.67 44.3235 257.659 44.4241 257.613 44.5106C257.567 44.597 257.49 44.6629 257.398 44.695C256.637 44.9087 255.831 44.9087 255.07 44.695C254.977 44.6631 254.9 44.5973 254.854 44.5108C254.809 44.4242 254.797 44.3235 254.823 44.229L255.405 40.577L252.505 42.891C252.434 42.9522 252.344 42.9859 252.25 42.9859C252.156 42.9859 252.066 42.9522 251.995 42.891C251.694 42.6363 251.447 42.3247 251.267 41.974C251.046 41.6555 250.897 41.2928 250.83 40.911C250.814 40.8171 250.832 40.7205 250.879 40.6382C250.927 40.5558 251.002 40.4928 251.092 40.46L254.555 39.121L251.092 37.782C251.002 37.7492 250.927 37.6862 250.879 37.6038C250.832 37.5215 250.814 37.4249 250.83 37.331C251.02 36.5705 251.421 35.8792 251.987 35.337C252.06 35.2751 252.153 35.2424 252.248 35.2449C252.344 35.2475 252.435 35.2853 252.504 35.351L255.404 37.665L254.822 34.013C254.798 33.9194 254.81 33.8202 254.856 33.7352C254.901 33.6501 254.978 33.5854 255.069 33.554C255.829 33.3308 256.637 33.3308 257.397 33.554C257.488 33.5858 257.564 33.6505 257.61 33.7355C257.655 33.8205 257.668 33.9195 257.644 34.013L257.062 37.665L259.962 35.351C260.032 35.2854 260.123 35.2484 260.219 35.2471C260.315 35.2458 260.407 35.2804 260.479 35.344C260.774 35.6051 261.018 35.9183 261.199 36.268C261.419 36.5879 261.57 36.9498 261.643 37.331C261.66 37.4261 261.642 37.5242 261.592 37.6071C261.543 37.69 261.465 37.7521 261.373 37.782L257.925 39.121L261.374 40.46Z" fill="#BB88FC"/>
<path d="M276.874 40.46C276.966 40.4899 277.044 40.552 277.093 40.6349C277.143 40.7178 277.161 40.8159 277.144 40.911C277.07 41.2963 276.919 41.6626 276.7 41.988C276.529 42.3383 276.286 42.6485 275.987 42.898C275.912 42.9573 275.819 42.9889 275.724 42.9877C275.628 42.9864 275.536 42.9522 275.463 42.891L272.563 40.577L273.145 44.229C273.17 44.3235 273.159 44.4241 273.113 44.5106C273.067 44.597 272.99 44.6629 272.898 44.695C272.137 44.9087 271.331 44.9087 270.57 44.695C270.477 44.6633 270.4 44.5975 270.354 44.5109C270.308 44.4243 270.297 44.3235 270.323 44.229L270.905 40.577L268.005 42.891C267.934 42.9522 267.844 42.9859 267.75 42.9859C267.656 42.9859 267.566 42.9522 267.495 42.891C267.194 42.6364 266.947 42.3247 266.767 41.974C266.546 41.6555 266.397 41.2928 266.33 40.911C266.314 40.8171 266.332 40.7206 266.38 40.6383C266.428 40.556 266.503 40.4929 266.592 40.46L270.055 39.121L266.592 37.782C266.502 37.7492 266.427 37.6862 266.379 37.6038C266.332 37.5215 266.314 37.4249 266.33 37.331C266.52 36.5705 266.921 35.8792 267.487 35.337C267.56 35.2754 267.653 35.2427 267.748 35.2453C267.843 35.2479 267.934 35.2855 268.004 35.351L270.904 37.665L270.322 34.013C270.298 33.9194 270.31 33.8202 270.356 33.7352C270.401 33.6501 270.478 33.5854 270.569 33.554C271.329 33.3308 272.137 33.3308 272.897 33.554C272.988 33.5858 273.064 33.6505 273.11 33.7355C273.155 33.8205 273.168 33.9195 273.144 34.013L272.562 37.665L275.462 35.351C275.532 35.2854 275.623 35.2484 275.719 35.2471C275.815 35.2458 275.907 35.2804 275.979 35.344C276.274 35.6051 276.518 35.9183 276.699 36.268C276.919 36.5879 277.07 36.9498 277.143 37.331C277.16 37.4261 277.142 37.5242 277.092 37.6071C277.043 37.69 276.965 37.7521 276.873 37.782L273.425 39.121L276.874 40.46Z" fill="#BB88FC"/>
<path d="M133.88 97.231L150.639 107.355L153.048 81.36L166.642 85.07C166.642 85.07 173.802 123.137 158.842 128.046C147.342 131.818 119.164 109.237 119.164 109.237" fill="white"/>
<path d="M155.898 128.846C143.198 128.846 119.998 110.384 118.931 109.531C118.857 109.469 118.81 109.38 118.801 109.284C118.791 109.188 118.82 109.092 118.88 109.016C118.941 108.941 119.028 108.892 119.124 108.881C119.22 108.869 119.317 108.895 119.394 108.954C119.674 109.178 147.551 131.367 158.725 127.7C172.616 123.142 166.873 88.523 166.319 85.37L153.377 81.837L151.008 107.393C151.002 107.455 150.98 107.515 150.945 107.567C150.909 107.618 150.862 107.66 150.806 107.688C150.75 107.716 150.688 107.73 150.626 107.728C150.563 107.725 150.502 107.707 150.449 107.675L133.69 97.551C133.61 97.4982 133.554 97.4169 133.533 97.3238C133.512 97.2307 133.528 97.1331 133.577 97.0515C133.627 96.9698 133.705 96.9102 133.798 96.8854C133.89 96.8605 133.988 96.8722 134.072 96.918L150.326 106.737L152.677 81.331C152.682 81.2773 152.698 81.2253 152.725 81.1787C152.753 81.1321 152.79 81.0921 152.834 81.0613C152.878 81.0305 152.929 81.0098 152.982 81.0006C153.035 80.9914 153.09 80.9939 153.142 81.008L166.736 84.718C166.802 84.7362 166.863 84.7729 166.91 84.8239C166.957 84.8748 166.989 84.9379 167.002 85.006C168.129 91.5188 168.703 98.1153 168.718 104.725C168.61 118.345 165.325 126.312 158.953 128.402C157.963 128.711 156.932 128.861 155.896 128.846" fill="black"/>
<path d="M139.596 70.424L60.9407 86.724C60.1897 86.8495 59.471 87.1227 58.8263 87.5277C58.1815 87.9328 57.6235 88.4617 57.1844 89.0838C56.7454 89.706 56.4341 90.409 56.2686 91.1523C56.1031 91.8955 56.0866 92.6641 56.22 93.4138C56.3535 94.1634 56.6343 94.8792 57.0462 95.5196C57.4582 96.16 57.993 96.7124 58.6197 97.1448C59.2465 97.5771 59.9528 97.8809 60.6978 98.0385C61.4427 98.1961 62.2115 98.2045 62.9597 98.063L141.616 81.763C143.937 86.8109 148.019 90.8398 153.096 93.0956C158.174 95.3513 163.899 95.6793 169.201 94.0181C174.503 92.357 179.018 88.8205 181.901 84.0707C184.784 79.3209 185.836 73.6834 184.862 68.2133C183.888 62.7433 180.954 57.8156 176.609 54.3528C172.264 50.8899 166.806 49.1293 161.257 49.4003C155.707 49.6713 150.447 51.9555 146.46 55.8252C142.473 59.695 140.032 64.885 139.596 70.424ZM175.107 69.953C175.555 72.4703 175.246 75.064 174.221 77.4061C173.195 79.7481 171.497 81.7334 169.343 83.1108C167.189 84.4881 164.675 85.1958 162.118 85.1442C159.562 85.0926 157.078 84.2842 154.981 82.8211C152.884 81.358 151.268 79.3059 150.338 76.9244C149.407 74.5429 149.203 71.9389 149.753 69.4417C150.302 66.9444 151.579 64.6662 153.423 62.895C155.268 61.1238 157.595 59.9392 160.113 59.491C161.784 59.1934 163.498 59.2279 165.156 59.5927C166.814 59.9574 168.384 60.6451 169.777 61.6166C171.169 62.5881 172.356 63.8243 173.271 65.2547C174.185 66.685 174.809 68.2815 175.107 69.953Z" fill="#F6EEFF"/>
<path d="M61.9345 98.527C60.4037 98.5233 58.9296 97.9469 57.8024 96.9111C56.6752 95.8753 55.9764 94.4552 55.8435 92.9302C55.7106 91.4051 56.1532 89.8855 57.0842 88.6704C58.0153 87.4552 59.3674 86.6325 60.8745 86.364L139.249 70.118C139.758 64.5199 142.281 59.2965 146.349 55.4176C150.417 51.5386 155.755 49.2676 161.371 49.0261C166.987 48.7847 172.5 50.5891 176.886 54.1045C181.272 57.6199 184.234 62.6075 185.221 68.1412C186.209 73.675 185.155 79.3791 182.255 84.1945C179.355 89.0099 174.806 92.6095 169.453 94.3251C164.1 96.0407 158.307 95.7557 153.148 93.5231C147.989 91.2904 143.816 87.2618 141.402 82.185L63.0335 98.429C62.6705 98.4947 62.3024 98.5282 61.9335 98.529M162.423 49.738C161.087 49.7386 159.753 49.857 158.436 50.092C153.538 50.9615 149.066 53.4324 145.723 57.1171C142.38 60.8018 140.354 65.492 139.963 70.452C139.957 70.5317 139.925 70.6072 139.872 70.6673C139.82 70.7273 139.749 70.7686 139.67 70.785L61.0175 87.09C60.3206 87.2134 59.6549 87.4728 59.0583 87.8535C58.4617 88.2341 57.9459 88.7286 57.5404 89.3086C57.1349 89.8886 56.8476 90.5427 56.6949 91.2338C56.5422 91.9248 56.5271 92.6391 56.6505 93.336C56.7739 94.0329 57.0333 94.6986 57.414 95.2952C57.7946 95.8918 58.2891 96.4076 58.8691 96.8131C60.0404 97.6321 61.4891 97.9522 62.8965 97.703L141.541 81.403C141.623 81.3861 141.709 81.3975 141.783 81.4352C141.858 81.473 141.918 81.535 141.952 81.611C143.638 85.2723 146.277 88.4129 149.593 90.704C152.909 92.995 156.78 94.3522 160.801 94.6332C164.822 94.9143 168.844 94.1089 172.447 92.3015C176.049 90.494 179.1 87.751 181.278 84.3598C183.456 80.9686 184.683 77.054 184.828 73.0261C184.974 68.9982 184.034 65.0052 182.107 61.4653C180.179 57.9255 177.336 54.9691 173.873 52.9058C170.411 50.8426 166.457 49.7484 162.426 49.738M162.345 85.516C158.916 85.5146 155.619 84.1904 153.142 81.819C150.664 79.4477 149.197 76.212 149.046 72.7859C148.894 69.3598 150.07 66.0073 152.329 63.4267C154.588 60.8461 157.755 59.2362 161.171 58.9324C164.587 58.6285 167.988 59.6542 170.667 61.7956C173.346 63.9371 175.095 67.0294 175.551 70.4284C176.006 73.8275 175.133 77.2713 173.113 80.0427C171.093 82.8141 168.082 84.6994 164.706 85.306C163.927 85.4453 163.137 85.5155 162.345 85.516ZM162.382 59.659C159.805 59.658 157.289 60.4505 155.177 61.9288C153.065 63.4071 151.459 65.4996 150.577 67.9222C149.696 70.3447 149.581 72.9799 150.249 75.4698C150.917 77.9597 152.336 80.1837 154.311 81.8397C156.287 83.4957 158.725 84.5034 161.293 84.7261C163.861 84.9487 166.436 84.3755 168.667 83.0843C170.898 81.793 172.678 79.8463 173.765 77.5085C174.851 75.1707 175.192 72.5551 174.74 70.017C174.219 67.1171 172.696 64.4923 170.438 62.5996C168.18 60.7068 165.329 59.6662 162.382 59.659Z" fill="black"/>
<path d="M73.9719 70.249L81.0449 68.99L83.4889 82.714L63.8789 86.206L61.8789 74.946L68.5839 73.752L69.6089 79.562L75.4409 78.524L73.9719 70.249Z" fill="#BB88FC"/>
<path d="M63.5774 86.634L61.4434 74.646L68.8764 73.323L69.9114 79.133L75.0114 78.224L73.5384 69.95L81.3384 68.561L83.9114 83.013L63.5774 86.634ZM62.3004 75.244L64.1754 85.776L83.0574 82.414L80.7434 69.414L74.3984 70.544L75.8714 78.818L69.3114 79.986L68.2784 74.182L62.3004 75.244Z" fill="black"/>
<path d="M119.072 199.63C114.549 189.933 110.516 180.016 106.986 169.915L104.916 143.615L132.273 152.452C132.273 152.452 141.727 185.315 146.34 199.635L119.072 199.63Z" fill="white"/>
<path d="M146.341 200C146.263 200 146.187 199.975 146.123 199.929C146.06 199.883 146.013 199.818 145.989 199.744C141.608 186.144 132.753 155.444 131.973 152.739L105.329 144.133L107.352 169.84C107.675 170.776 112.992 186.081 119.406 199.471C119.429 199.515 119.444 199.563 119.448 199.613C119.452 199.663 119.446 199.713 119.43 199.76C119.415 199.808 119.39 199.851 119.357 199.889C119.324 199.926 119.284 199.957 119.239 199.978C119.194 200 119.145 200.012 119.095 200.014C119.045 200.016 118.995 200.008 118.949 199.991C118.902 199.973 118.859 199.946 118.823 199.912C118.787 199.877 118.759 199.836 118.739 199.79C112.134 186.001 106.691 170.19 106.639 170.035C106.629 170.006 106.622 169.975 106.62 169.944L104.55 143.644C104.545 143.583 104.556 143.523 104.58 143.467C104.604 143.412 104.642 143.363 104.689 143.325C104.737 143.287 104.793 143.262 104.853 143.251C104.913 143.24 104.974 143.244 105.032 143.263L132.389 152.1C132.447 152.119 132.499 152.151 132.541 152.195C132.583 152.238 132.614 152.292 132.631 152.35C132.726 152.679 142.136 185.371 146.695 199.522C146.71 199.568 146.716 199.617 146.712 199.665C146.708 199.714 146.694 199.761 146.672 199.804C146.65 199.847 146.62 199.885 146.583 199.917C146.546 199.948 146.503 199.972 146.457 199.987C146.42 199.999 146.382 200.005 146.344 200.005" fill="black"/>
<path d="M111.056 199.63H82.2754C84.4124 182.185 87.6294 156.23 88.1334 153.859C88.8984 150.259 120.351 157.759 120.351 157.759L116.32 175.918L111.056 199.63Z" fill="white"/>
<path d="M82.276 200H82.231C82.1337 199.988 82.0451 199.938 81.9847 199.861C81.9243 199.783 81.8971 199.685 81.909 199.588C84.309 179.964 87.283 156.088 87.773 153.788C87.8091 153.637 87.8761 153.494 87.9697 153.37C88.0633 153.245 88.1815 153.142 88.317 153.065C92.083 150.685 119.282 157.126 120.438 157.402C120.487 157.411 120.534 157.431 120.575 157.459C120.616 157.487 120.652 157.523 120.679 157.565C120.706 157.607 120.724 157.654 120.732 157.703C120.741 157.752 120.739 157.803 120.728 157.851C120.716 157.9 120.695 157.946 120.665 157.986C120.635 158.026 120.597 158.06 120.554 158.085C120.511 158.11 120.463 158.126 120.414 158.132C120.364 158.139 120.314 158.135 120.266 158.121C112.476 156.266 91.622 151.852 88.712 153.69C88.524 153.809 88.503 153.909 88.496 153.941C87.986 156.341 84.61 183.627 82.643 199.68C82.632 199.77 82.5886 199.852 82.521 199.912C82.4534 199.972 82.3663 200.005 82.276 200.005" fill="black"/>
<path d="M111.06 200C111.033 200 111.006 199.997 110.979 199.991C110.883 199.97 110.8 199.911 110.747 199.829C110.695 199.746 110.677 199.646 110.698 199.55L115.962 175.834C115.971 175.785 115.99 175.739 116.017 175.697C116.045 175.656 116.08 175.62 116.122 175.593C116.163 175.565 116.21 175.546 116.258 175.537C116.307 175.528 116.358 175.529 116.406 175.54C116.455 175.55 116.501 175.571 116.541 175.6C116.581 175.629 116.616 175.665 116.642 175.708C116.668 175.75 116.685 175.797 116.692 175.847C116.699 175.896 116.697 175.946 116.684 175.994L111.42 199.709C111.402 199.791 111.356 199.865 111.291 199.918C111.225 199.97 111.143 199.999 111.059 199.999" fill="black"/>
<path d="M130.992 146.183C132.946 147.506 133.992 151.169 134.945 154.297C135.056 154.65 135.067 155.026 134.979 155.385C134.891 155.744 134.706 156.073 134.445 156.334C131.254 159.453 120.651 162.804 107.568 161.424C95.8787 160.191 85.8357 155.824 85.1607 154.104C84.4857 152.384 86.9827 145.698 86.9827 145.698L130.992 146.183Z" fill="#00524C"/>
<path d="M113.652 162.113C111.608 162.112 109.565 162.003 107.532 161.788C96.3553 160.608 85.6323 156.31 84.8193 154.235C84.1133 152.435 86.3793 146.262 86.6393 145.565C86.665 145.493 86.7126 145.431 86.7754 145.388C86.8383 145.345 86.9131 145.323 86.9893 145.325L130.995 145.81C131.067 145.811 131.136 145.833 131.195 145.873C133.183 147.219 134.246 150.728 135.184 153.824L135.294 154.186C135.427 154.603 135.441 155.049 135.337 155.474C135.232 155.899 135.013 156.287 134.702 156.595C132.093 159.145 124.222 162.113 113.648 162.113M87.2383 146.067C86.5133 148.056 85.0133 152.714 85.5033 153.967C86.0823 155.446 95.9583 159.825 107.603 161.054C120.974 162.464 131.195 158.987 134.183 156.067C134.396 155.853 134.546 155.584 134.617 155.291C134.688 154.997 134.676 154.689 134.583 154.402L134.473 154.039C133.586 151.11 132.582 147.798 130.865 146.548L87.2383 146.067Z" fill="black"/>
<path d="M116.781 110.084L127.743 117.184L132.896 120.525C136.34 122.416 147.265 103.581 143.733 101.633C143.733 101.633 142.069 100.121 139.386 98.139C138.286 97.328 137.011 96.439 135.61 95.532C131.369 92.802 128.18 90.627 126.591 90.132C126.1 89.9643 125.594 89.8458 125.079 89.778L116.781 110.084Z" fill="#00524C"/>
<path d="M128.889 117.927L132.898 120.527C136.236 122.355 147.07 103.461 143.735 101.635C143.735 101.635 143.517 101.219 140.835 99.235C140.835 99.235 135.865 115.146 128.889 117.927Z" fill="#00524C"/>
<path d="M133.449 121.036C133.194 121.038 132.943 120.975 132.719 120.853L116.581 110.393C116.508 110.346 116.455 110.276 116.429 110.193C116.403 110.111 116.407 110.023 116.439 109.943L124.74 89.643C124.775 89.555 124.844 89.4842 124.93 89.4453C125.017 89.4064 125.115 89.4023 125.205 89.434C125.212 89.434 125.876 89.67 126.874 89.98C128.418 90.458 131.213 92.259 135.081 94.751L135.814 95.223C138.673 97.0578 141.392 99.0992 143.952 101.331C144.239 101.533 144.467 101.807 144.613 102.125C144.76 102.443 144.819 102.794 144.787 103.143C144.887 107.443 138.798 118.174 134.91 120.543C134.478 120.836 133.974 121.006 133.452 121.034M117.243 109.934L133.1 120.213C133.416 120.384 133.9 120.287 134.525 119.913C138.181 117.684 144.144 107.195 144.048 103.162C144.033 102.533 143.868 102.128 143.558 101.962C143.532 101.948 143.508 101.931 143.487 101.911C140.949 99.6941 138.251 97.6679 135.415 95.8491L134.681 95.376C130.862 92.916 128.102 91.1381 126.655 90.6901C126.064 90.5071 125.588 90.3491 125.293 90.2501L117.243 109.934Z" fill="black"/>
<path d="M126.288 90.597C116.426 86.142 89.9032 85.642 85.1952 96.982C82.9402 102.414 88.4572 125.847 88.1872 128.817C87.9172 131.787 85.7772 144.802 86.5752 146.41C90.4402 154.201 132.596 157.148 135.675 147.952C136.594 145.208 131.492 138.686 130.935 119.82C130.777 114.466 132.527 108.311 132.802 103.147" fill="#00524C"/>
<path d="M114.973 154.486C102.222 154.486 87.64 151.586 85.38 147.032C84.792 145.847 85.51 140.127 86.434 133.332C86.676 131.557 86.884 130.024 86.955 129.241C86.7523 126.501 86.3735 123.777 85.821 121.085C84.394 112.623 82.438 101.034 83.99 97.297C85.222 94.328 88.052 91.951 92.4 90.232C102.78 86.132 120.059 86.853 127.445 90.19C127.493 90.207 127.537 90.2338 127.574 90.2687C127.612 90.3036 127.641 90.3459 127.661 90.3927C127.681 90.4396 127.692 90.4901 127.691 90.5411C127.691 90.5921 127.68 90.6426 127.659 90.6892C127.639 90.7358 127.608 90.7776 127.571 90.812C127.533 90.8464 127.489 90.8726 127.44 90.889C127.392 90.9054 127.341 90.9117 127.29 90.9074C127.239 90.9031 127.19 90.8883 127.145 90.864C119.889 87.586 102.895 86.88 92.677 90.92C88.522 92.563 85.83 94.804 84.677 97.581C83.207 101.121 85.222 113.061 86.554 120.962C87.1325 123.713 87.5138 126.502 87.695 129.308C87.622 130.108 87.423 131.575 87.17 133.432C86.59 137.693 85.511 145.625 86.046 146.703C88.428 151.503 106.74 154.496 120.063 153.579C128.279 153.013 133.528 151.086 134.463 148.291C134.763 147.4 134.287 145.874 133.563 143.566C131.121 136.043 129.819 128.197 129.7 120.288C129.727 117.013 130.056 113.747 130.681 110.532C131.097 108.233 131.393 105.915 131.567 103.585C131.567 103.535 131.577 103.485 131.597 103.439C131.617 103.393 131.646 103.351 131.683 103.317C131.719 103.282 131.762 103.256 131.809 103.238C131.856 103.221 131.906 103.213 131.957 103.216C132.007 103.219 132.056 103.232 132.101 103.254C132.146 103.276 132.186 103.307 132.218 103.345C132.251 103.383 132.275 103.428 132.29 103.476C132.305 103.524 132.31 103.574 132.305 103.624C132.13 105.98 131.831 108.325 131.411 110.65C130.794 113.819 130.469 117.038 130.439 120.266C130.557 128.107 131.848 135.887 134.269 143.346C135.058 145.879 135.534 147.408 135.16 148.526C133.742 152.761 125.121 153.972 120.109 154.317C118.456 154.431 116.731 154.486 114.971 154.486" fill="black"/>
<path d="M130.993 158.895C130.914 158.895 130.838 158.87 130.775 158.824C130.712 158.778 130.665 158.713 130.641 158.639C130.021 156.703 129.207 154.836 128.211 153.065C128.182 153.024 128.163 152.979 128.152 152.93C128.142 152.882 128.142 152.832 128.151 152.783C128.161 152.735 128.18 152.689 128.207 152.648C128.235 152.607 128.271 152.571 128.312 152.544C128.353 152.517 128.4 152.499 128.448 152.49C128.497 152.481 128.547 152.482 128.595 152.493C128.643 152.504 128.689 152.524 128.729 152.553C128.77 152.581 128.804 152.618 128.83 152.66C129.866 154.485 130.709 156.413 131.345 158.413C131.374 158.506 131.366 158.608 131.321 158.695C131.276 158.782 131.199 158.848 131.106 158.878C131.069 158.89 131.031 158.895 130.993 158.895Z" fill="black"/>
<path d="M124.898 160.894H124.86C124.762 160.884 124.673 160.836 124.611 160.76C124.549 160.684 124.52 160.586 124.53 160.489C124.744 158.396 122.91 153.908 122.891 153.863C122.87 153.818 122.859 153.769 122.858 153.719C122.856 153.669 122.865 153.62 122.883 153.574C122.902 153.527 122.929 153.485 122.964 153.45C122.999 153.414 123.041 153.386 123.087 153.367C123.133 153.348 123.182 153.339 123.232 153.34C123.282 153.34 123.331 153.351 123.376 153.371C123.422 153.391 123.463 153.42 123.497 153.456C123.531 153.493 123.558 153.535 123.575 153.582C123.654 153.773 125.498 158.288 125.265 160.564C125.255 160.655 125.213 160.739 125.145 160.8C125.077 160.862 124.989 160.896 124.898 160.896" fill="black"/>
<path d="M118.107 161.93C118.051 161.93 117.996 161.917 117.946 161.893C117.896 161.869 117.852 161.834 117.818 161.79C117.783 161.747 117.759 161.696 117.746 161.642C117.734 161.587 117.734 161.531 117.747 161.477C118.338 158.917 117.154 154.211 117.142 154.164C117.118 154.069 117.133 153.969 117.183 153.885C117.233 153.801 117.315 153.74 117.409 153.716C117.504 153.692 117.604 153.706 117.689 153.756C117.773 153.806 117.834 153.887 117.859 153.981C117.91 154.181 119.1 158.907 118.468 161.643C118.449 161.724 118.403 161.797 118.338 161.849C118.272 161.901 118.191 161.929 118.108 161.929" fill="black"/>
<path d="M110.146 162.005C110.084 162.005 110.023 161.989 109.969 161.959C109.915 161.929 109.869 161.886 109.835 161.834C109.802 161.782 109.782 161.722 109.778 161.66C109.774 161.598 109.785 161.536 109.811 161.48C111.066 158.78 110.086 154.132 110.076 154.085C110.059 153.991 110.079 153.893 110.133 153.813C110.186 153.733 110.268 153.677 110.362 153.657C110.456 153.636 110.554 153.653 110.636 153.704C110.718 153.755 110.776 153.836 110.799 153.929C110.842 154.129 111.84 158.864 110.482 161.791C110.453 161.855 110.405 161.909 110.346 161.947C110.286 161.985 110.217 162.005 110.146 162.005Z" fill="black"/>
<path d="M101.655 160.895C101.58 160.895 101.506 160.872 101.444 160.829C101.382 160.786 101.334 160.724 101.308 160.653C101.282 160.582 101.278 160.505 101.297 160.432C101.316 160.359 101.357 160.293 101.414 160.244C102.727 159.118 103.384 155.007 103.527 153.518C103.541 153.423 103.59 153.338 103.664 153.279C103.739 153.219 103.834 153.191 103.929 153.2C104.024 153.209 104.112 153.255 104.174 153.327C104.236 153.399 104.268 153.493 104.263 153.588C104.241 153.819 103.702 159.255 101.895 160.805C101.829 160.862 101.744 160.895 101.655 160.895Z" fill="black"/>
<path d="M94.3086 159.016C94.2394 159.015 94.1719 158.995 94.1137 158.957C94.0554 158.92 94.0088 158.867 93.9792 158.805C93.9495 158.742 93.9379 158.673 93.9457 158.604C93.9536 158.535 93.9806 158.47 94.0236 158.416C95.3386 156.816 95.8926 152.494 95.8986 152.451C95.9034 152.402 95.9181 152.354 95.9417 152.311C95.9652 152.267 95.9973 152.229 96.0359 152.198C96.0745 152.167 96.1189 152.145 96.1665 152.131C96.214 152.118 96.2638 152.114 96.3128 152.12C96.3618 152.126 96.4091 152.142 96.4519 152.167C96.4947 152.192 96.5321 152.225 96.5619 152.264C96.5917 152.303 96.6133 152.348 96.6254 152.396C96.6376 152.444 96.64 152.494 96.6326 152.543C96.6096 152.729 96.0446 157.128 94.5946 158.887C94.56 158.929 94.5165 158.963 94.4672 158.986C94.4179 159.01 94.3641 159.022 94.3096 159.022" fill="black"/>
<path d="M89.1941 157.1C89.1189 157.1 89.0454 157.077 88.9836 157.034C88.9218 156.991 88.8745 156.931 88.848 156.86C88.8215 156.79 88.817 156.713 88.8353 156.64C88.8535 156.567 88.8935 156.502 88.95 156.452C89.581 155.897 90.382 152.935 90.739 151.198C90.7468 151.149 90.7645 151.101 90.7911 151.059C90.8177 151.016 90.8527 150.98 90.8938 150.951C90.9349 150.923 90.9815 150.903 91.0305 150.893C91.0796 150.883 91.1301 150.883 91.1792 150.893C91.2282 150.903 91.2747 150.923 91.3158 150.952C91.3569 150.98 91.3918 151.017 91.4183 151.059C91.4448 151.102 91.4625 151.149 91.4702 151.199C91.4779 151.248 91.4754 151.299 91.463 151.347C91.363 151.832 90.463 156.108 89.438 157.008C89.3707 157.068 89.2839 157.1 89.1941 157.1Z" fill="black"/>
<path d="M100.944 83.732C99.3964 85.4982 97.968 87.3654 96.668 89.321C96.668 89.321 101.509 98.51 112.213 98.51C111.487 95.9086 111.706 93.134 112.832 90.679L100.944 83.732Z" fill="#00524C"/>
<path d="M112.211 98.879C101.411 98.879 96.3881 89.587 96.3391 89.493C96.3085 89.4347 96.2941 89.3693 96.2973 89.3036C96.3005 89.2379 96.3211 89.1741 96.3571 89.119C97.6684 87.1484 99.1082 85.2663 100.667 83.485C100.724 83.4213 100.801 83.3793 100.885 83.366C100.969 83.3527 101.056 83.3689 101.129 83.412L113.017 90.359C113.095 90.4045 113.154 90.477 113.182 90.5629C113.21 90.6488 113.206 90.7421 113.17 90.825C112.088 93.2011 111.874 95.8812 112.564 98.399C112.581 98.4544 112.585 98.513 112.576 98.5702C112.566 98.6274 112.543 98.6815 112.509 98.7282C112.475 98.7749 112.43 98.8129 112.378 98.8391C112.326 98.8653 112.269 98.879 112.211 98.879ZM97.0991 89.335C97.8461 90.602 102.536 97.881 111.72 98.135C111.155 95.695 111.38 93.1383 112.364 90.835L101.019 84.205C99.6102 85.8345 98.3012 87.5476 97.0991 89.335Z" fill="black"/>
<path d="M112.832 90.678C112.832 90.678 115.918 92.302 117.122 97.234C117.122 97.234 119.716 93.934 119.057 90.585C118.241 86.436 116.018 85.42 116.018 85.42L112.832 90.678Z" fill="#00524C"/>
<path d="M117.121 97.604C117.095 97.6042 117.069 97.6015 117.043 97.596C116.976 97.5815 116.913 97.5482 116.864 97.4999C116.814 97.4516 116.779 97.3903 116.762 97.323C115.611 92.607 112.689 91.023 112.662 91.006C112.618 90.9825 112.578 90.9501 112.547 90.9108C112.515 90.8715 112.492 90.8262 112.478 90.7776C112.465 90.729 112.461 90.6781 112.468 90.6282C112.475 90.5782 112.492 90.5301 112.518 90.487L115.704 85.23C115.751 85.1525 115.825 85.0948 115.912 85.0681C115.998 85.0414 116.092 85.0474 116.174 85.085C116.274 85.13 118.579 86.229 119.422 90.515C120.106 93.994 117.522 97.324 117.415 97.464C117.381 97.5079 117.337 97.5433 117.287 97.5677C117.236 97.5922 117.181 97.6049 117.125 97.605M113.341 90.557C115.276 91.9884 116.662 94.0381 117.271 96.366C118.417 94.6959 118.923 92.6695 118.697 90.657C118.104 87.639 116.734 86.357 116.144 85.932L113.341 90.557Z" fill="black"/>
<path d="M101.542 70.374L100.914 84.407C100.914 87.907 115.964 95.707 116.014 85.587V74.018L101.542 70.374Z" fill="white"/>
<path d="M111.426 90.956H111.4C107.034 90.942 100.541 87.024 100.543 84.406L101.172 70.357C101.174 70.3022 101.189 70.2486 101.215 70.2002C101.241 70.1517 101.277 70.1096 101.321 70.0769C101.365 70.0441 101.416 70.0216 101.469 70.0109C101.523 70.0002 101.579 70.0016 101.632 70.015L116.108 73.663C116.188 73.6832 116.259 73.7295 116.309 73.7946C116.36 73.8596 116.387 73.9396 116.387 74.022V85.586C116.368 89.05 114.606 90.955 111.426 90.955M101.891 70.842L101.283 84.422C101.283 86.267 106.95 90.201 111.403 90.215H111.427C114.211 90.215 115.627 88.657 115.648 85.583V74.311L101.891 70.842Z" fill="black"/>
<path d="M101.581 70.414C101.581 70.414 95.1091 65.987 96.5811 62.026C98.0531 58.065 102.375 62.546 102.375 62.546C102.375 62.546 99.2071 48.311 111.227 45.981C112.95 45.5701 114.757 45.7001 116.403 46.3532C118.05 47.0063 119.455 48.1508 120.427 49.631C125.987 58.238 125.827 76.651 117.841 79.05C115.833 79.7577 113.67 79.9091 111.582 79.488C109.495 79.0669 107.56 78.089 105.983 76.658" fill="white"/>
<path d="M113.732 80.062C110.772 80.059 107.921 78.9424 105.746 76.934C105.675 76.8683 105.634 76.7777 105.629 76.6816C105.624 76.5854 105.657 76.4912 105.721 76.4189C105.784 76.3467 105.874 76.3021 105.97 76.2946C106.066 76.2872 106.161 76.3174 106.235 76.379C107.764 77.769 109.642 78.7184 111.668 79.1262C113.695 79.5341 115.794 79.385 117.742 78.695C119.834 78.066 121.51 76.185 122.589 73.255C125.081 66.484 123.952 55.755 120.124 49.83C119.192 48.4103 117.845 47.3132 116.266 46.689C114.687 46.0647 112.953 45.9439 111.303 46.343C109.913 46.5518 108.582 47.046 107.392 47.7945C106.202 48.5429 105.181 49.5295 104.391 50.692C101.244 55.492 102.727 62.392 102.742 62.464C102.759 62.5426 102.75 62.6247 102.717 62.6979C102.683 62.771 102.627 62.8312 102.556 62.8693C102.485 62.9074 102.403 62.9214 102.324 62.9091C102.244 62.8967 102.171 62.8588 102.115 62.801C101.484 62.148 99.5519 60.516 98.2149 60.793C97.6499 60.911 97.2309 61.356 96.9329 62.154C95.5749 65.798 101.733 70.065 101.791 70.108C101.833 70.1346 101.869 70.1693 101.898 70.2102C101.926 70.2512 101.946 70.2974 101.956 70.3461C101.966 70.3948 101.966 70.4451 101.956 70.4939C101.946 70.5427 101.927 70.589 101.899 70.63C101.87 70.6711 101.834 70.706 101.792 70.7328C101.75 70.7596 101.703 70.7776 101.654 70.7858C101.605 70.794 101.555 70.7922 101.507 70.7806C101.458 70.7689 101.413 70.7477 101.373 70.718C101.099 70.531 94.6809 66.079 96.2399 61.896C96.3556 61.4573 96.5855 61.057 96.9063 60.7361C97.2271 60.4151 97.6272 60.185 98.0659 60.069C99.3919 59.794 100.921 60.803 101.835 61.551C101.527 59.351 101.183 54.238 103.771 50.29C104.614 49.0429 105.705 47.9839 106.978 47.1797C108.25 46.3754 109.675 45.8434 111.163 45.617C112.958 45.1869 114.843 45.3223 116.558 46.0047C118.274 46.6871 119.736 47.8832 120.746 49.429C124.683 55.523 125.846 66.551 123.284 73.51C122.122 76.667 120.284 78.705 117.956 79.403C116.588 79.8276 115.166 80.0496 113.734 80.062" fill="black"/>
<path d="M123.911 46.003C120.163 55.55 104.697 50.329 105.757 52.472C107.314 55.621 104.309 64.054 103.535 64.152C102.761 64.25 102.379 62.545 102.379 62.545C102.379 62.545 98.0623 58.068 96.5853 62.025C95.1083 65.982 101.585 70.413 101.585 70.413C92.0683 70.736 87.3643 58.561 87.7243 51.423C88.0843 44.285 92.7243 44.046 92.7243 44.046C92.3483 40.029 96.7413 37.154 100.29 37.99C103.839 38.826 116.883 43.435 117.109 36.92C122.309 34.342 126.269 40.014 123.918 46.003" fill="black"/>
<path d="M101.203 70.79C99.6871 70.7796 98.1899 70.4572 96.8044 69.8428C95.4189 69.2285 94.1748 68.3353 93.1496 67.219C89.0286 63.03 87.1126 56.093 87.3496 51.405C87.6616 45.22 91.1656 43.976 92.3266 43.734C92.3093 42.876 92.4868 42.0252 92.8459 41.2457C93.205 40.4663 93.7362 39.7784 94.3996 39.234C95.2009 38.5207 96.1579 38.0046 97.1941 37.7268C98.2302 37.449 99.317 37.4172 100.368 37.634C100.842 37.745 101.483 37.923 102.225 38.129C105.982 39.17 112.975 41.108 115.657 39.141C116.001 38.8825 116.279 38.545 116.466 38.157C116.653 37.7689 116.744 37.3416 116.732 36.911C116.734 36.8444 116.754 36.7798 116.79 36.7238C116.826 36.6678 116.877 36.6227 116.937 36.593C117.867 36.0507 118.945 35.8178 120.016 35.9278C121.087 36.0378 122.096 36.485 122.897 37.205C125.037 39.168 125.582 42.76 124.254 46.142C121.598 52.908 113.283 52.528 108.815 52.322C107.913 52.2316 107.004 52.2397 106.105 52.346C107.466 55.18 105.525 61.56 104.391 63.672C104.085 64.242 103.851 64.488 103.582 64.522C102.613 64.649 102.167 63.222 102.044 62.734C101.351 62.042 99.5056 60.534 98.2146 60.797C97.6496 60.915 97.2296 61.36 96.9326 62.158C95.5746 65.802 101.733 70.069 101.791 70.112C101.855 70.1562 101.904 70.2198 101.93 70.2935C101.956 70.3672 101.958 70.4473 101.936 70.5222C101.914 70.5972 101.868 70.6632 101.806 70.7108C101.744 70.7584 101.669 70.785 101.591 70.787C101.457 70.7917 101.327 70.794 101.201 70.794M99.0166 38.222C97.4967 38.2404 96.0324 38.7966 94.8836 39.792C94.2628 40.2966 93.7743 40.9451 93.4607 41.6812C93.147 42.4172 93.0176 43.2186 93.0836 44.016C93.0877 44.0653 93.0819 44.115 93.0664 44.162C93.051 44.209 93.0263 44.2525 92.9937 44.2898C92.9612 44.3271 92.9214 44.3575 92.8769 44.3792C92.8325 44.4008 92.7841 44.4134 92.7346 44.416C92.5606 44.426 88.4246 44.75 88.0866 51.443C87.8586 55.969 89.7046 62.664 93.6756 66.701C95.4393 68.6129 97.8532 69.7976 100.445 70.023C98.6546 68.584 95.0206 65.159 96.2366 61.897C96.3524 61.4583 96.5823 61.058 96.9031 60.7371C97.2239 60.4162 97.624 60.186 98.0626 60.07C100.071 59.654 102.54 62.181 102.644 62.289C102.691 62.3379 102.724 62.3987 102.739 62.465C102.874 63.065 103.199 63.732 103.439 63.784C104.139 63.097 106.85 55.524 105.423 52.637C105.361 52.5333 105.33 52.4149 105.331 52.2945C105.332 52.1741 105.366 52.0564 105.43 51.954C105.753 51.454 106.656 51.48 108.847 51.58C113.43 51.79 121.101 52.141 123.564 45.868C124.97 42.288 123.99 39.209 122.395 37.746C121.731 37.1526 120.901 36.778 120.018 36.6731C119.134 36.5683 118.239 36.7383 117.456 37.16C117.435 37.6636 117.302 38.1562 117.066 38.6015C116.83 39.0468 116.497 39.4335 116.092 39.733C113.121 41.913 106.175 39.988 102.025 38.833C101.29 38.633 100.656 38.453 100.196 38.345C99.8088 38.2553 99.4128 38.2107 99.0156 38.212" fill="black"/>
<path d="M110.02 50.579L109.938 49.844C111.779 49.6955 113.603 49.3748 115.385 48.886C117.13 48.4031 118.704 47.437 119.924 46.099C120.51 45.4429 120.935 44.66 121.166 43.8119C121.398 42.9638 121.43 42.0735 121.26 41.211L121.979 41.036C122.176 42.012 122.144 43.0206 121.885 43.9823C121.627 44.9439 121.149 45.8325 120.488 46.578C119.182 48.0297 117.487 49.0761 115.604 49.593C113.778 50.0969 111.908 50.4274 110.021 50.58" fill="white"/>
<path d="M111.326 47.855C110.835 47.8553 110.345 47.802 109.865 47.696L110.025 46.974C111.272 47.2507 112.575 47.1256 113.747 46.6165C114.919 46.1074 115.899 45.2405 116.548 44.14L117.185 44.515C116.585 45.5342 115.728 46.3786 114.701 46.9644C113.673 47.5501 112.51 47.8568 111.327 47.854" fill="white"/>
<path d="M95.8894 44.279C95.728 43.5777 95.7932 42.8433 96.0757 42.1815C96.3582 41.5197 96.8433 40.9645 97.4614 40.596C98.1408 40.2338 98.9052 40.0611 99.6744 40.096L99.6614 40.835C99.0252 40.8013 98.3917 40.9394 97.8274 41.235C97.3477 41.5212 96.9712 41.9522 96.752 42.4659C96.5328 42.9796 96.4821 43.5497 96.6074 44.094L95.8894 44.279Z" fill="white"/>
<path d="M104.71 58.595L104.043 58.275C104.312 57.7058 104.457 57.086 104.468 56.4566C104.48 55.8272 104.357 55.2025 104.109 54.624L104.787 54.324C105.077 55.0001 105.22 55.7301 105.207 56.4658C105.194 57.2014 105.024 57.9258 104.71 58.591" fill="white"/>
<path d="M110.454 61.265C110.593 61.956 111.134 62.431 111.664 62.324C111.946 62.2217 112.177 62.014 112.309 61.7447C112.441 61.4754 112.463 61.1654 112.371 60.88C112.232 60.189 111.69 59.715 111.161 59.821C110.879 59.9233 110.648 60.131 110.516 60.4003C110.385 60.6696 110.362 60.9796 110.454 61.265Z" fill="black"/>
<path d="M119.386 59.651C119.477 59.8166 119.613 59.9534 119.778 60.0459C119.943 60.1383 120.131 60.1827 120.32 60.1741C120.509 60.1654 120.691 60.104 120.847 59.9968C121.003 59.8896 121.126 59.7409 121.202 59.5676C121.277 59.3943 121.303 59.2032 121.276 59.0161C121.248 58.8289 121.169 58.6531 121.047 58.5086C120.925 58.3641 120.765 58.2566 120.585 58.1984C120.405 58.1401 120.213 58.1334 120.029 58.179C119.752 58.2928 119.529 58.5099 119.408 58.7844C119.288 59.059 119.278 59.3696 119.382 59.651" fill="black"/>
<path d="M112.084 58.659C110.606 57.974 110.296 58.811 109.838 59.502Z" fill="white"/>
<path d="M109.838 59.868C109.771 59.8678 109.706 59.8497 109.649 59.8153C109.591 59.781 109.544 59.7318 109.513 59.6729C109.481 59.6141 109.466 59.5478 109.469 59.4811C109.472 59.4143 109.493 59.3497 109.53 59.294C109.575 59.227 109.618 59.158 109.661 59.089C109.756 58.8474 109.904 58.6305 110.095 58.4548C110.285 58.2792 110.514 58.1494 110.762 58.0752C111.011 58.0011 111.273 57.9846 111.529 58.027C111.785 58.0694 112.028 58.1696 112.239 58.32C112.285 58.3393 112.326 58.3676 112.361 58.4033C112.395 58.439 112.422 58.4812 112.44 58.5275C112.458 58.5738 112.466 58.6233 112.465 58.6729C112.463 58.7226 112.452 58.7713 112.431 58.8164C112.41 58.8614 112.38 58.9018 112.343 58.9351C112.306 58.9685 112.263 58.994 112.216 59.0103C112.17 59.0266 112.12 59.0333 112.07 59.03C112.021 59.0266 111.972 59.0134 111.928 58.991C110.896 58.513 110.679 58.857 110.287 59.482C110.241 59.556 110.194 59.63 110.146 59.703C110.112 59.7541 110.067 59.796 110.013 59.825C109.959 59.854 109.898 59.8691 109.837 59.869" fill="black"/>
<path d="M120.75 56.81C120.33 56.6856 119.881 56.7108 119.478 56.8814C119.075 57.0519 118.744 57.3572 118.541 57.745" fill="white"/>
<path d="M118.539 58.117C118.475 58.1169 118.412 58.1 118.356 58.068C118.3 58.036 118.254 57.99 118.221 57.9346C118.188 57.8792 118.171 57.8163 118.17 57.752C118.169 57.6877 118.185 57.6243 118.216 57.568C118.462 57.1016 118.864 56.7362 119.352 56.5352C119.839 56.3343 120.382 56.3105 120.885 56.468C120.932 56.4849 120.974 56.511 121.011 56.5447C121.047 56.5785 121.076 56.6191 121.097 56.6644C121.117 56.7096 121.128 56.7585 121.129 56.808C121.13 56.8576 121.121 56.9069 121.103 56.9529C121.084 56.999 121.057 57.0409 121.022 57.0761C120.987 57.1114 120.946 57.1392 120.9 57.1581C120.854 57.1769 120.805 57.1864 120.755 57.1858C120.706 57.1853 120.657 57.1748 120.611 57.155C120.275 57.0649 119.919 57.092 119.601 57.2321C119.283 57.3721 119.022 57.6166 118.862 57.925C118.83 57.9829 118.783 58.0311 118.726 58.0647C118.669 58.0983 118.604 58.116 118.538 58.116" fill="black"/>
<path d="M115.588 62.117C116.158 63.985 117.078 65.709 117.648 67.577C117.766 67.8774 117.81 68.202 117.776 68.523C117.724 68.7257 117.625 68.9136 117.488 69.0717C117.351 69.2298 117.179 69.3538 116.986 69.434C116.599 69.591 116.189 69.6862 115.772 69.716" fill="white"/>
<path d="M115.771 70.085C115.679 70.0828 115.59 70.046 115.523 69.9816C115.457 69.9173 115.416 69.8302 115.411 69.7377C115.405 69.6451 115.434 69.5538 115.493 69.4818C115.551 69.4098 115.635 69.3624 115.726 69.349C116.104 69.3222 116.475 69.2379 116.826 69.099C116.966 69.0428 117.092 68.9554 117.193 68.8435C117.294 68.7315 117.368 68.598 117.409 68.453C117.428 68.1913 117.387 67.9288 117.29 67.685C117.01 66.768 116.635 65.863 116.272 64.985C115.902 64.094 115.52 63.172 115.23 62.221C115.207 62.1287 115.219 62.0309 115.266 61.9478C115.313 61.8647 115.389 61.8028 115.481 61.775C115.572 61.7471 115.67 61.7555 115.755 61.7983C115.84 61.8412 115.906 61.9152 115.937 62.005C116.217 62.922 116.592 63.826 116.955 64.705C117.325 65.596 117.707 66.518 117.997 67.469C118.135 67.8263 118.183 68.212 118.135 68.592C118.073 68.8528 117.949 69.0953 117.776 69.2998C117.602 69.5042 117.383 69.6649 117.135 69.769C116.713 69.943 116.265 70.049 115.809 70.083C115.794 70.0839 115.779 70.0839 115.763 70.083" fill="black"/>
<path d="M116.934 72.867C116.626 73.1576 116.256 73.3746 115.853 73.5014C115.449 73.6282 115.021 73.6615 114.603 73.5989C114.184 73.5363 113.785 73.3794 113.436 73.14C113.087 72.9006 112.797 72.5849 112.588 72.217" fill="white"/>
<path d="M115.005 74C114.889 74.0002 114.772 73.9932 114.657 73.979C114.178 73.8976 113.721 73.7188 113.315 73.4537C112.908 73.1887 112.56 72.843 112.292 72.438C112.26 72.3993 112.236 72.3545 112.222 72.3064C112.208 72.2582 112.204 72.2076 112.21 72.1578C112.216 72.108 112.232 72.0599 112.257 72.0164C112.282 71.973 112.316 71.9352 112.356 71.9052C112.397 71.8752 112.442 71.8538 112.491 71.8422C112.54 71.8306 112.591 71.829 112.64 71.8376C112.69 71.8462 112.737 71.8647 112.779 71.8921C112.821 71.9195 112.857 71.9552 112.885 71.997C113.093 72.3221 113.365 72.6007 113.686 72.8155C114.006 73.0302 114.367 73.1764 114.747 73.245C115.101 73.2741 115.457 73.2302 115.792 73.116C116.128 73.0018 116.437 72.8196 116.7 72.581C116.776 72.5214 116.873 72.494 116.969 72.5048C117.065 72.5155 117.153 72.5635 117.214 72.6384C117.276 72.7134 117.305 72.8093 117.296 72.9057C117.288 73.0021 117.242 73.0912 117.168 73.154C116.567 73.6797 115.802 73.9793 115.004 74.001" fill="black"/>
<path d="M120.289 63.543C119.117 63.463 118.011 62.9673 117.172 62.1449C116.332 61.3225 115.814 60.2275 115.71 59.057C115.511 57.7569 115.784 56.4284 116.479 55.312C116.789 54.789 117.213 54.3424 117.719 54.0051C118.225 53.6679 118.8 53.4486 119.402 53.3636C120.004 53.2785 120.618 53.3298 121.198 53.5137C121.777 53.6976 122.308 54.0094 122.751 54.426C123.716 55.3156 124.343 56.5117 124.527 57.8113C124.71 59.1108 124.439 60.4339 123.758 61.556C123.443 62.0745 123.017 62.5176 122.512 62.8541C122.007 63.1907 121.435 63.4125 120.835 63.504C120.654 63.5298 120.472 63.5428 120.289 63.543ZM119.953 54.065C119.803 54.0648 119.654 54.0752 119.506 54.096C119.012 54.1739 118.542 54.3589 118.127 54.6378C117.713 54.9168 117.364 55.2831 117.106 55.711C116.506 56.6787 116.273 57.829 116.447 58.954C116.785 61.346 118.709 63.062 120.736 62.773C121.23 62.6951 121.7 62.5101 122.115 62.2311C122.529 61.9521 122.878 61.5859 123.136 61.158C123.721 60.1848 123.954 59.0398 123.796 57.9153C123.637 56.7907 123.096 55.755 122.264 54.982C121.632 54.404 120.809 54.0778 119.953 54.065Z" fill="#BB88FC"/>
<path d="M110.646 65.791C109.609 65.7803 108.612 65.3888 107.846 64.691C106.881 63.8014 106.253 62.6053 106.07 61.3057C105.886 60.0061 106.158 58.6831 106.839 57.561C107.154 57.0424 107.579 56.5993 108.085 56.2627C108.59 55.9262 109.162 55.7044 109.763 55.613C112.192 55.271 114.493 57.265 114.888 60.061C115.087 61.3611 114.814 62.6895 114.119 63.806C113.803 64.3245 113.378 64.7676 112.873 65.1042C112.368 65.4407 111.795 65.6625 111.196 65.754C111.012 65.7799 110.827 65.7929 110.642 65.793M110.311 56.314C110.162 56.3139 110.014 56.3242 109.867 56.345C109.373 56.4229 108.902 56.6078 108.488 56.8868C108.073 57.1658 107.725 57.5321 107.467 57.96C106.881 58.9332 106.648 60.0781 106.807 61.2027C106.966 62.3273 107.506 63.363 108.339 64.136C108.701 64.4822 109.138 64.7418 109.615 64.8952C110.093 65.0485 110.599 65.0918 111.096 65.0217C111.592 64.9515 112.066 64.7698 112.483 64.4901C112.899 64.2105 113.247 63.8402 113.5 63.407C114.099 62.4393 114.333 61.289 114.159 60.164C114.079 59.1704 113.648 58.2375 112.944 57.5322C112.239 56.8269 111.307 56.3951 110.314 56.314" fill="#BB88FC"/>
<path d="M114.445 60.048C114.38 60.0479 114.316 60.0308 114.26 59.9984C114.204 59.9659 114.158 59.9193 114.125 59.8631C114.093 59.807 114.076 59.7433 114.076 59.6785C114.076 59.6137 114.093 59.5501 114.126 59.494C114.335 59.1629 114.64 58.9038 115 58.7514C115.361 58.5991 115.759 58.5609 116.142 58.642C116.191 58.6495 116.238 58.6668 116.28 58.6929C116.322 58.719 116.359 58.7532 116.388 58.7937C116.416 58.8342 116.437 58.88 116.447 58.9284C116.458 58.9769 116.459 59.027 116.449 59.0757C116.44 59.1245 116.421 59.1709 116.394 59.2122C116.367 59.2536 116.331 59.289 116.29 59.3163C116.248 59.3437 116.202 59.3624 116.153 59.3715C116.104 59.3805 116.054 59.3797 116.006 59.369C115.772 59.3176 115.529 59.3378 115.307 59.427C115.085 59.5162 114.896 59.6703 114.763 59.869C114.73 59.9237 114.683 59.9689 114.627 60.0003C114.571 60.0316 114.508 60.0481 114.444 60.048" fill="#BB88FC"/>
<path d="M106.533 62.116C106.486 62.1159 106.44 62.1071 106.397 62.09C106.371 62.08 104.819 61.511 100.489 61.872C100.393 61.8764 100.299 61.8436 100.227 61.7804C100.155 61.7171 100.111 61.6284 100.103 61.5329C100.095 61.4374 100.124 61.3426 100.185 61.2683C100.246 61.1941 100.333 61.1463 100.428 61.135C104.994 60.755 106.604 61.376 106.671 61.403C106.75 61.4352 106.816 61.494 106.857 61.5694C106.898 61.6448 106.912 61.7321 106.895 61.8163C106.879 61.9005 106.834 61.9765 106.768 62.0312C106.702 62.0858 106.619 62.1158 106.533 62.116Z" fill="#BB88FC"/>
<path d="M132.104 134.893C132.104 134.893 135.524 128.418 132.874 128.066C130.224 127.714 126.264 133.891 126.264 133.891" fill="white"/>
<path d="M132.104 135.263C132.04 135.263 131.978 135.246 131.923 135.215C131.867 135.184 131.821 135.139 131.788 135.084C131.755 135.03 131.737 134.968 131.735 134.904C131.733 134.84 131.748 134.777 131.777 134.721C132.432 133.48 133.996 129.996 133.377 128.79C133.325 128.688 133.247 128.601 133.151 128.539C133.055 128.476 132.944 128.44 132.829 128.433C130.845 128.169 127.645 132.433 126.58 134.091C126.554 134.132 126.52 134.167 126.48 134.195C126.44 134.223 126.395 134.242 126.347 134.253C126.3 134.263 126.251 134.264 126.203 134.255C126.155 134.247 126.11 134.229 126.069 134.203C126.028 134.176 125.992 134.142 125.965 134.102C125.937 134.062 125.917 134.017 125.907 133.97C125.897 133.922 125.896 133.873 125.904 133.825C125.913 133.778 125.931 133.732 125.957 133.691C126.375 133.038 130.116 127.328 132.927 127.698C133.16 127.72 133.384 127.801 133.577 127.932C133.771 128.063 133.928 128.241 134.035 128.449C134.945 130.212 132.695 134.573 132.435 135.064C132.404 135.124 132.357 135.174 132.3 135.21C132.242 135.245 132.176 135.264 132.108 135.264" fill="black"/>
<path d="M134.99 147.764L144.566 147.604C145.732 147.554 146.844 147.094 147.706 146.305C148.568 145.517 149.124 144.45 149.277 143.292L151.37 124.792C151.449 124.262 151.41 123.72 151.256 123.207C151.101 122.694 150.835 122.221 150.477 121.822C150.118 121.423 149.676 121.109 149.182 120.901C148.687 120.694 148.153 120.598 147.618 120.621L138.042 120.781C136.875 120.831 135.763 121.291 134.901 122.08C134.039 122.868 133.483 123.935 133.329 125.093L131.238 143.593C131.158 144.123 131.197 144.665 131.351 145.178C131.505 145.692 131.771 146.165 132.13 146.563C132.488 146.962 132.931 147.276 133.425 147.484C133.92 147.692 134.454 147.787 134.99 147.764Z" fill="#BB88FC"/>
<path d="M134.921 148.137C134.351 148.147 133.785 148.037 133.261 147.813C132.737 147.589 132.266 147.256 131.879 146.837C131.485 146.395 131.192 145.873 131.018 145.306C130.845 144.74 130.796 144.143 130.874 143.556L132.966 125.056C133.133 123.81 133.733 122.663 134.66 121.815C135.588 120.966 136.784 120.471 138.039 120.416L147.616 120.256C148.199 120.235 148.78 120.34 149.319 120.564C149.857 120.789 150.341 121.127 150.736 121.556C151.13 121.998 151.424 122.52 151.598 123.087C151.771 123.653 151.82 124.25 151.741 124.837L149.649 143.337C149.483 144.583 148.883 145.73 147.956 146.579C147.028 147.427 145.832 147.922 144.576 147.977L134.999 148.137H134.921ZM147.693 120.999H147.628L138.052 121.159C136.975 121.208 135.95 121.633 135.154 122.361C134.359 123.089 133.845 124.073 133.701 125.142L131.609 143.642C131.543 144.124 131.582 144.615 131.723 145.081C131.865 145.547 132.105 145.977 132.427 146.342C132.752 146.693 133.149 146.97 133.592 147.153C134.034 147.336 134.51 147.42 134.988 147.401L144.565 147.241C145.642 147.192 146.668 146.766 147.463 146.038C148.258 145.31 148.772 144.326 148.915 143.258L151.007 124.758C151.074 124.276 151.035 123.785 150.894 123.319C150.752 122.853 150.512 122.423 150.189 122.058C149.871 121.715 149.484 121.443 149.053 121.26C148.622 121.078 148.157 120.989 147.689 120.999" fill="black"/>
<path d="M126.263 133.89L98.1746 129.899L93.0846 110.918L78.0566 115.561C78.0566 115.561 81.3306 138.279 87.6146 142.424C96.1626 148.065 126.842 144.65 126.842 144.65C126.842 144.65 141.285 145.81 144.524 143.106C146.597 141.374 144.858 140.542 144.858 140.542C147.115 138.578 144.322 137.469 144.322 137.469C145.381 136.98 146.115 135.533 144.899 134.769C143.749 134.046 139.126 135.724 138.631 135.905C139.165 135.694 144.463 133.937 143.34 132.439C141.765 130.339 132.103 134.889 132.103 134.889" fill="white"/>
<path d="M107.921 146.061C99.8363 146.061 91.3713 145.346 87.4123 142.734C81.0623 138.545 77.8262 116.549 77.6912 115.615C77.6787 115.528 77.6978 115.439 77.7449 115.365C77.792 115.29 77.8641 115.235 77.9482 115.209L92.9762 110.566C93.0238 110.551 93.0738 110.546 93.1233 110.551C93.1728 110.556 93.2207 110.571 93.2643 110.596C93.3078 110.62 93.346 110.652 93.3766 110.692C93.4072 110.731 93.4295 110.776 93.4423 110.824L98.4692 129.569L126.315 133.526C126.408 133.544 126.49 133.597 126.545 133.674C126.6 133.751 126.624 133.846 126.611 133.939C126.598 134.033 126.55 134.118 126.476 134.177C126.403 134.237 126.309 134.265 126.215 134.258L98.1272 130.267C98.0565 130.256 97.9905 130.224 97.9372 130.176C97.8839 130.129 97.8457 130.066 97.8272 129.997L92.8362 111.387L78.4793 115.823C78.9023 118.56 82.1473 138.371 87.8283 142.123C96.1673 147.623 126.504 144.323 126.81 144.29C126.834 144.287 126.857 144.287 126.88 144.29C127.023 144.301 141.209 145.407 144.296 142.83C144.915 142.313 145.219 141.845 145.176 141.477C145.146 141.35 145.088 141.231 145.006 141.128C144.925 141.025 144.822 140.942 144.705 140.883C144.651 140.856 144.603 140.816 144.568 140.766C144.533 140.717 144.51 140.659 144.502 140.599C144.494 140.539 144.501 140.477 144.522 140.42C144.543 140.363 144.579 140.312 144.624 140.272C145.184 139.785 145.434 139.339 145.367 138.948C145.249 138.259 144.205 137.826 144.194 137.822C144.127 137.795 144.07 137.749 144.028 137.69C143.987 137.631 143.964 137.561 143.962 137.488C143.96 137.416 143.979 137.345 144.018 137.284C144.056 137.222 144.111 137.173 144.176 137.143C144.434 137.03 144.659 136.855 144.832 136.633C145.005 136.412 145.121 136.151 145.168 135.874C145.175 135.714 145.136 135.555 145.055 135.417C144.974 135.279 144.855 135.166 144.712 135.094C144.012 134.654 141.141 135.394 138.767 136.264C138.676 136.296 138.577 136.291 138.489 136.25C138.402 136.21 138.334 136.137 138.299 136.047C138.265 135.957 138.267 135.857 138.305 135.769C138.343 135.68 138.414 135.61 138.503 135.573C138.55 135.554 138.633 135.524 138.745 135.483C142.289 134.189 143.007 133.362 143.119 132.983C143.136 132.93 143.139 132.873 143.128 132.818C143.116 132.763 143.09 132.712 143.053 132.67C142.038 131.314 135.9 133.522 132.269 135.233C132.181 135.27 132.082 135.272 131.993 135.238C131.903 135.204 131.831 135.137 131.79 135.05C131.749 134.963 131.744 134.864 131.774 134.774C131.805 134.683 131.869 134.608 131.954 134.564C133.613 133.782 141.973 129.994 143.645 132.227C143.752 132.361 143.824 132.519 143.856 132.687C143.888 132.856 143.878 133.029 143.828 133.193C143.639 133.668 143.301 134.07 142.865 134.338C143.606 134.141 144.391 134.186 145.105 134.465C145.362 134.608 145.572 134.82 145.714 135.077C145.855 135.334 145.922 135.625 145.905 135.918C145.872 136.216 145.78 136.505 145.634 136.768C145.489 137.03 145.293 137.261 145.057 137.448C145.314 137.595 145.538 137.793 145.717 138.029C145.895 138.264 146.024 138.534 146.096 138.821C146.13 139.134 146.088 139.451 145.974 139.744C145.86 140.038 145.678 140.3 145.442 140.509C145.696 140.735 145.861 141.043 145.909 141.379C145.989 142.019 145.609 142.697 144.77 143.396C141.503 146.124 127.833 145.105 126.857 145.028C125.957 145.128 117.193 146.066 107.93 146.067" fill="black"/>
<path d="M139.123 139.19C139.034 139.19 138.947 139.157 138.879 139.098C138.812 139.038 138.768 138.956 138.757 138.867C138.745 138.778 138.767 138.687 138.817 138.613C138.868 138.538 138.943 138.485 139.03 138.462L144.23 137.111C144.324 137.089 144.423 137.105 144.506 137.155C144.588 137.205 144.648 137.285 144.673 137.378C144.697 137.472 144.684 137.571 144.636 137.655C144.588 137.739 144.509 137.8 144.416 137.827L139.216 139.178C139.186 139.186 139.155 139.19 139.123 139.19Z" fill="black"/>
<path d="M139.596 142.134C139.506 142.133 139.418 142.1 139.351 142.039C139.284 141.979 139.241 141.896 139.231 141.806C139.221 141.716 139.244 141.625 139.296 141.551C139.348 141.477 139.425 141.425 139.513 141.404L144.775 140.184C144.823 140.17 144.874 140.167 144.924 140.173C144.973 140.179 145.021 140.196 145.064 140.221C145.107 140.247 145.145 140.281 145.175 140.321C145.204 140.361 145.225 140.407 145.237 140.456C145.248 140.505 145.249 140.556 145.24 140.605C145.232 140.654 145.213 140.701 145.185 140.743C145.158 140.785 145.122 140.821 145.08 140.849C145.038 140.876 144.991 140.895 144.942 140.904L139.68 142.124C139.653 142.131 139.624 142.134 139.596 142.134Z" fill="black"/>
<path d="M77.2538 126.302C80.7818 125.661 93.0538 124.346 96.7948 116.925L93.0088 104.748L89.2428 92.179C89.2428 92.179 80.9278 95.839 77.0638 103.141C73.5218 109.841 77.2528 126.301 77.2528 126.301" fill="#00524C"/>
<path d="M76.0391 119.811C76.5321 122.381 77.2541 126.304 77.2541 126.304C81.4151 125.316 93.4331 124.269 96.7971 116.927L95.1101 111.747C91.2561 117.118 80.7701 118.878 76.0391 119.811Z" fill="#00524C"/>
<path d="M77.2557 126.673C77.1719 126.673 77.0907 126.644 77.0253 126.592C76.9599 126.54 76.9142 126.467 76.8957 126.385C76.7417 125.707 73.1757 109.71 76.7407 102.97C80.6197 95.639 89.0126 91.879 89.0966 91.842C89.1864 91.8022 89.2883 91.7997 89.3799 91.8351C89.4715 91.8704 89.5454 91.9407 89.5852 92.0305C89.6249 92.1203 89.6274 92.2222 89.5921 92.3138C89.5567 92.4054 89.4864 92.4792 89.3966 92.519C89.3146 92.555 81.1526 96.219 77.3966 103.319C74.2336 109.299 77.0496 123.533 77.5476 125.892C81.8866 125.281 93.1757 123.665 96.4047 116.902L92.6616 104.862L91.4127 100.693C91.39 100.601 91.4037 100.504 91.4508 100.421C91.498 100.339 91.575 100.278 91.6659 100.25C91.7568 100.223 91.8547 100.232 91.9393 100.275C92.024 100.318 92.0889 100.392 92.1206 100.481L93.3686 104.646L97.1537 116.819C97.1806 116.906 97.1746 117 97.1367 117.083C93.8077 124.351 82.0297 126.008 77.5957 126.632L77.3106 126.672C77.2933 126.673 77.276 126.673 77.2586 126.672" fill="black"/>
<path d="M167.029 79.158C168.446 79.658 168.969 81.839 168.198 84.033C167.427 86.227 165.652 87.602 164.236 87.104C162.82 86.606 162.296 84.423 163.067 82.229C163.838 80.035 165.613 78.66 167.029 79.158Z" fill="white"/>
<path d="M164.844 87.577C164.594 87.5774 164.347 87.5355 164.112 87.453C163.685 87.2776 163.31 86.9958 163.022 86.6346C162.735 86.2733 162.545 85.8445 162.47 85.389C162.24 84.2936 162.326 83.1556 162.717 82.107C163.569 79.684 165.517 78.235 167.151 78.807C167.578 78.9823 167.953 79.264 168.24 79.6253C168.528 79.9866 168.718 80.4154 168.793 80.871C169.002 81.9682 168.917 83.1012 168.546 84.155C168.176 85.2087 167.533 86.1457 166.684 86.871C166.166 87.3043 165.518 87.5527 164.844 87.577ZM166.429 79.427C165.311 79.427 164.017 80.637 163.414 82.351C163.069 83.2655 162.991 84.2588 163.188 85.216C163.21 85.5588 163.333 85.8875 163.54 86.1612C163.748 86.435 164.031 86.6417 164.355 86.7557C164.679 86.8697 165.03 86.8859 165.363 86.8024C165.696 86.7189 165.998 86.5393 166.23 86.286C166.966 85.6483 167.523 84.8295 167.847 83.9106C168.17 82.9916 168.248 82.0043 168.073 81.046C168.024 80.7117 167.891 80.3952 167.687 80.1261C167.483 79.857 167.214 79.644 166.905 79.507C166.752 79.4535 166.591 79.4265 166.429 79.427Z" fill="black"/>
<path d="M163.986 78.185C165.403 78.685 165.853 81.073 164.992 83.523C164.131 85.973 162.284 87.555 160.867 87.057C159.45 86.559 159 84.169 159.861 81.719C160.722 79.269 162.57 77.687 163.986 78.185Z" fill="white"/>
<path d="M161.419 87.52C161.189 87.5205 160.962 87.4819 160.746 87.406C159.112 86.831 158.571 84.279 159.514 81.596C160.457 78.913 162.477 77.261 164.114 77.836C165.751 78.411 166.289 80.963 165.346 83.646C164.529 85.97 162.905 87.52 161.423 87.52M163.445 78.463C162.3 78.463 160.906 79.877 160.215 81.842C159.436 84.058 159.793 86.286 160.995 86.709C162.197 87.132 163.87 85.616 164.649 83.401C165.428 81.186 165.071 78.957 163.869 78.534C163.732 78.4865 163.589 78.4625 163.445 78.463Z" fill="black"/>
<path d="M160.312 77.119C161.876 77.669 162.373 80.308 161.422 83.013C160.471 85.718 158.432 87.465 156.867 86.913C155.302 86.361 154.806 83.724 155.757 81.019C156.708 78.314 158.747 76.567 160.312 77.119Z" fill="white"/>
<path d="M157.479 87.387C157.23 87.3875 156.983 87.3455 156.747 87.263C156.268 87.0521 155.853 86.7164 155.548 86.2909C155.242 85.8655 155.056 85.3659 155.008 84.844C154.828 83.5153 154.966 82.1629 155.411 80.8979C155.856 79.633 156.594 78.4917 157.566 77.568C157.93 77.1904 158.387 76.917 158.892 76.7763C159.397 76.6356 159.93 76.6327 160.436 76.768C162.22 77.395 162.807 80.191 161.773 83.133C160.873 85.683 159.098 87.385 157.479 87.385M159.709 77.385C159.085 77.4291 158.496 77.6922 158.047 78.128C157.174 78.9669 156.51 79.999 156.108 81.1413C155.707 82.2836 155.578 83.5042 155.734 84.705C155.762 85.098 155.893 85.4766 156.114 85.8028C156.335 86.129 156.638 86.3912 156.992 86.563C158.338 87.035 160.208 85.353 161.075 82.888C161.942 80.423 161.537 77.939 160.191 77.466C160.036 77.4118 159.873 77.3845 159.709 77.385Z" fill="black"/>
<path d="M156.39 76.32C157.807 76.82 158.257 79.208 157.396 81.658C156.535 84.108 154.687 85.69 153.271 85.192C151.855 84.694 151.404 82.304 152.265 79.854C153.126 77.404 154.973 75.822 156.39 76.32Z" fill="white"/>
<path d="M153.821 85.655C153.592 85.6555 153.365 85.6169 153.149 85.541C152.708 85.3484 152.327 85.0411 152.046 84.6511C151.764 84.2612 151.593 83.8029 151.549 83.324C151.384 82.1145 151.51 80.8832 151.915 79.7316C152.32 78.5801 152.992 77.5413 153.878 76.701C154.19 76.3251 154.61 76.0538 155.08 75.9236C155.551 75.7933 156.051 75.8104 156.512 75.9724C156.972 76.1345 157.373 76.4337 157.658 76.83C157.944 77.2263 158.102 77.7005 158.11 78.189C158.274 79.3984 158.148 80.6296 157.743 81.781C157.338 82.9323 156.665 83.9709 155.78 84.811C155.247 85.3168 154.551 85.6157 153.818 85.654M155.84 76.597C155.283 76.637 154.758 76.8721 154.358 77.261C153.572 78.0169 152.974 78.9465 152.612 79.9753C152.25 81.0042 152.135 82.1035 152.275 83.185C152.259 83.5442 152.359 83.8991 152.56 84.1972C152.761 84.4952 153.053 84.7205 153.392 84.8397C153.731 84.959 154.1 84.9659 154.443 84.8593C154.787 84.7527 155.087 84.5384 155.299 84.248C156.085 83.4922 156.683 82.5626 157.045 81.5337C157.407 80.5049 157.522 79.4055 157.382 78.324C157.357 77.9741 157.241 77.6368 157.045 77.346C156.849 77.0552 156.58 76.821 156.265 76.667C156.128 76.6194 155.984 76.5954 155.84 76.596" fill="black"/>
<path d="M198.336 142.7L201.674 159.33C201.938 160.642 201.669 162.004 200.928 163.118C200.186 164.232 199.033 165.006 197.721 165.269L181.095 168.607C179.783 168.87 178.42 168.602 177.306 167.86C176.193 167.119 175.419 165.965 175.155 164.653L171.817 148.023C171.554 146.711 171.823 145.348 172.565 144.235C173.306 143.121 174.46 142.347 175.771 142.084L192.397 138.746C193.709 138.483 195.071 138.752 196.185 139.493C197.299 140.234 198.073 141.388 198.336 142.7Z" fill="#04B5A4"/>
<path d="M177.379 166.94C176.129 166.937 174.919 166.502 173.953 165.709C172.987 164.916 172.325 163.814 172.079 162.589L168.741 145.959C168.458 144.551 168.747 143.088 169.542 141.893C170.338 140.697 171.576 139.867 172.985 139.584L189.611 136.246C191.019 135.963 192.481 136.251 193.677 137.047C194.872 137.843 195.703 139.081 195.986 140.489L199.323 157.119C199.606 158.527 199.318 159.99 198.522 161.185C197.727 162.381 196.489 163.211 195.081 163.494L178.454 166.832C178.099 166.904 177.738 166.94 177.377 166.94M190.686 136.879C190.373 136.879 190.062 136.91 189.755 136.972L173.13 140.31C171.915 140.555 170.848 141.272 170.161 142.303C169.474 143.334 169.224 144.595 169.466 145.81L172.804 162.44C173.049 163.654 173.766 164.722 174.796 165.408C175.827 166.095 177.089 166.345 178.304 166.104L194.931 162.766C196.145 162.522 197.213 161.805 197.9 160.774C198.587 159.743 198.836 158.481 198.593 157.266L195.255 140.636C195.043 139.579 194.471 138.627 193.638 137.943C192.804 137.258 191.76 136.882 190.682 136.879" fill="black"/>
<path d="M173.421 140.245C173.336 140.245 173.253 140.215 173.187 140.16C173.121 140.105 173.076 140.029 173.059 139.945L171.959 134.466C171.531 132.267 171.99 129.987 173.237 128.125C174.484 126.263 176.417 124.97 178.614 124.529C180.811 124.088 183.093 124.535 184.962 125.771C186.831 127.008 188.134 128.934 188.587 131.128L189.687 136.607C189.697 136.655 189.697 136.704 189.688 136.751C189.678 136.799 189.66 136.844 189.633 136.885C189.606 136.925 189.571 136.96 189.531 136.987C189.49 137.014 189.445 137.033 189.397 137.042L173.497 140.234C173.473 140.239 173.449 140.241 173.424 140.241M180.278 125.055C179.133 125.055 178.001 125.31 176.966 125.8C175.93 126.29 175.017 127.004 174.29 127.89C173.564 128.777 173.044 129.813 172.767 130.925C172.489 132.036 172.462 133.196 172.687 134.319L173.714 139.435L188.892 136.388L187.865 131.272C187.511 129.52 186.563 127.944 185.18 126.811C183.798 125.678 182.066 125.057 180.278 125.054" fill="black"/>
<path d="M185.265 153.126L187.565 156.964L182.925 157.895L183.564 153.468C182.956 153.382 182.399 153.083 181.991 152.626C181.582 152.168 181.349 151.581 181.331 150.968C181.314 150.355 181.513 149.756 181.895 149.276C182.277 148.796 182.816 148.466 183.417 148.345C184.019 148.224 184.643 148.32 185.181 148.615C185.719 148.91 186.135 149.385 186.356 149.957C186.576 150.53 186.588 151.161 186.388 151.741C186.188 152.321 185.79 152.812 185.264 153.126" fill="black"/>
<path fill-rule="evenodd" clip-rule="evenodd" d="M32.4715 199.635H306.528C306.648 199.635 306.762 199.588 306.847 199.503C306.931 199.419 306.978 199.304 306.978 199.185C306.978 199.066 306.931 198.951 306.847 198.867C306.762 198.782 306.648 198.735 306.528 198.735H32.4715C32.4124 198.735 32.3538 198.746 32.2991 198.769C32.2445 198.792 32.1948 198.825 32.153 198.866C32.1112 198.908 32.078 198.958 32.0555 199.013C32.0329 199.067 32.0214 199.126 32.0215 199.185C32.0214 199.244 32.0329 199.303 32.0555 199.357C32.078 199.412 32.1112 199.462 32.153 199.503C32.1948 199.545 32.2445 199.578 32.2991 199.601C32.3538 199.624 32.4124 199.635 32.4715 199.635Z" fill="black"/>
</g>
<defs>
<clipPath id="clip0_246_1836">
<rect width="339" height="200" fill="white"/>
</clipPath>
</defs>
</svg>
