<svg id="user_verification" xmlns="http://www.w3.org/2000/svg" width="339" height="200" viewBox="0 0 339 200">
  <rect id="back" width="339" height="200" fill="none"/>
  <g id="Group_5492" data-name="Group 5492" transform="translate(55.817 21.226)">
    <path id="Path_25879" data-name="Path 25879" d="M1089,115.638c-50.068-31.268-34.045-94.218-34.045-94.218,22.062-10.334,52.375-18.1,52.375-18.1s26.271,17,43.9,33.816c0,0-4.822,64.778-62.233,78.506" transform="translate(-935.287 -2.947)" fill="#fff"/>
    <path id="Path_25880" data-name="Path 25880" d="M1086.1,113.058a.369.369,0,0,1-.2-.056,74.393,74.393,0,0,1-26.572-28.051,85.871,85.871,0,0,1-9.4-31.055,109.96,109.96,0,0,1,1.762-35.517.37.37,0,0,1,.2-.244C1073.741,7.9,1104.037.086,1104.34.008a.37.37,0,0,1,.292.048c.263.17,26.5,17.215,43.957,33.858a.37.37,0,0,1,.113.3,109.962,109.962,0,0,1-9.621,34.234A85.875,85.875,0,0,1,1120.3,94.9a74.394,74.394,0,0,1-34.111,18.148.376.376,0,0,1-.086.01m-33.727-94.328a109.846,109.846,0,0,0-1.7,35.106c2.046,17.806,9.867,42.386,35.492,58.457,29.4-7.09,44.635-27.909,52.236-44.14a109.843,109.843,0,0,0,9.549-33.825C1131.2,18.39,1106.429,2.111,1104.367.765c-2.383.621-31.042,8.18-51.993,17.964" transform="translate(-932.386 0.003)"/>
    <path id="Path_25881" data-name="Path 25881" d="M1176.646,193.469a59.539,59.539,0,0,1-19.327-21.141,70.164,70.164,0,0,1-7.723-25.3,94.272,94.272,0,0,1,.931-27.511c15.757-6.6,36.511-15.39,40.7-15.414,3.962,1.354,20.848,16.289,33.691,27.556a94.284,94.284,0,0,1-7.864,26.379,70.164,70.164,0,0,1-15.367,21.534,59.541,59.541,0,0,1-25.046,13.9" transform="translate(-1021.017 -92.505)" fill="#fa6e53"/>
    <path id="Path_25882" data-name="Path 25882" d="M1294.956,322.415a34.919,34.919,0,0,1-11.335-12.4,41.15,41.15,0,0,1-4.529-14.839,55.289,55.289,0,0,1,.546-16.134c9.241-3.869,21.413-9.026,23.872-9.04,2.324.794,12.227,9.553,19.759,16.161a55.293,55.293,0,0,1-4.612,15.471,41.147,41.147,0,0,1-9.012,12.629,34.919,34.919,0,0,1-14.689,8.152" transform="translate(-1136.312 -239.93)" fill="#fff"/>
    <path id="Path_25883" data-name="Path 25883" d="M1324.963,357.154a34.457,34.457,0,0,1-8.524-10.774,45.893,45.893,0,0,1-4.513-15.952,66.3,66.3,0,0,1,.137-14.733,71.137,71.137,0,0,1,19.928-3.736,71.141,71.141,0,0,1,17.852,9.612,66.335,66.335,0,0,1-4.344,14.079,45.891,45.891,0,0,1-9.143,13.828,34.461,34.461,0,0,1-11.393,7.677" transform="translate(-1165.494 -277.212)" fill="#fff"/>
    <path id="Path_25884" data-name="Path 25884" d="M1385.485,443.132l-.1-.018a1.8,1.8,0,0,1-1.154-.809l-2.924-4.687a1.8,1.8,0,1,1,3.056-1.906l1.934,3.1,14-9.484a1.8,1.8,0,0,1,2.02,2.982l-15.553,10.533a1.8,1.8,0,0,1-1.287.288" transform="translate(-1227.216 -381.234)" fill="#fa6e53"/>
    <path id="Path_25885" data-name="Path 25885" d="M1580.138,80.493v8.556a5.618,5.618,0,0,1-5.62,5.62h-46.152a5.618,5.618,0,0,1-5.62-5.62V80.486a5.62,5.62,0,0,1,5.62-5.62h46.148a5.641,5.641,0,0,1,5.624,5.628" transform="translate(-1353.142 -66.527)" fill="#fff"/>
    <path id="Path_25886" data-name="Path 25886" d="M1571.567,92.089h-46.152a6,6,0,0,1-5.99-5.99V77.536a6,6,0,0,1,5.99-5.99h46.148a6,6,0,0,1,5.994,6V86.1a6,6,0,0,1-5.99,5.99m-46.152-19.8a5.256,5.256,0,0,0-5.25,5.25V86.1a5.256,5.256,0,0,0,5.25,5.25h46.152a5.256,5.256,0,0,0,5.25-5.25V77.543a5.262,5.262,0,0,0-5.254-5.258Z" transform="translate(-1350.191 -63.577)"/>
    <path id="Path_25887" data-name="Path 25887" d="M1622.32,116.265a.4.4,0,0,1,.27.451,2.9,2.9,0,0,1-.444,1.077,2.753,2.753,0,0,1-.713.91.414.414,0,0,1-.524-.007l-2.9-2.314.583,3.652a.387.387,0,0,1-.248.466,4.306,4.306,0,0,1-2.328,0,.386.386,0,0,1-.248-.466l.582-3.652-2.9,2.314a.389.389,0,0,1-.509,0,2.979,2.979,0,0,1-.728-.917,2.673,2.673,0,0,1-.437-1.063.408.408,0,0,1,.262-.451l3.463-1.339-3.463-1.339a.408.408,0,0,1-.262-.451,4.156,4.156,0,0,1,1.157-1.994.387.387,0,0,1,.517.014l2.9,2.314-.582-3.652a.385.385,0,0,1,.248-.459,4.13,4.13,0,0,1,2.328,0,.386.386,0,0,1,.248.459l-.583,3.652,2.9-2.314a.383.383,0,0,1,.516-.007,3.2,3.2,0,0,1,.72.924,2.806,2.806,0,0,1,.444,1.063.4.4,0,0,1-.27.451l-3.448,1.339Z" transform="translate(-1432.264 -97.031)" fill="#bb88fc"/>
    <path id="Path_25888" data-name="Path 25888" d="M1761.487,116.265a.4.4,0,0,1,.27.451,2.907,2.907,0,0,1-.444,1.077,2.754,2.754,0,0,1-.713.91.415.415,0,0,1-.524-.007l-2.9-2.314.582,3.652a.387.387,0,0,1-.247.466,4.306,4.306,0,0,1-2.328,0,.386.386,0,0,1-.247-.466l.582-3.652-2.9,2.314a.39.39,0,0,1-.51,0,2.987,2.987,0,0,1-.728-.917,2.673,2.673,0,0,1-.437-1.063.408.408,0,0,1,.262-.451l3.463-1.339-3.463-1.339a.408.408,0,0,1-.262-.451,4.155,4.155,0,0,1,1.157-1.994.387.387,0,0,1,.517.014l2.9,2.314-.582-3.652a.384.384,0,0,1,.247-.459,4.13,4.13,0,0,1,2.328,0,.386.386,0,0,1,.247.459l-.582,3.652,2.9-2.314a.383.383,0,0,1,.517-.007,3.2,3.2,0,0,1,.72.924,2.81,2.81,0,0,1,.444,1.063.4.4,0,0,1-.27.451l-3.448,1.339Z" transform="translate(-1555.93 -97.031)" fill="#bb88fc"/>
    <path id="Path_25889" data-name="Path 25889" d="M1900.653,116.265a.4.4,0,0,1,.27.451,2.908,2.908,0,0,1-.444,1.077,2.756,2.756,0,0,1-.713.91.415.415,0,0,1-.524-.007l-2.9-2.314.582,3.652a.387.387,0,0,1-.247.466,4.306,4.306,0,0,1-2.328,0,.385.385,0,0,1-.247-.466l.582-3.652-2.9,2.314a.39.39,0,0,1-.51,0,2.985,2.985,0,0,1-.728-.917,2.673,2.673,0,0,1-.437-1.063.409.409,0,0,1,.262-.451l3.463-1.339-3.463-1.339a.408.408,0,0,1-.262-.451,4.155,4.155,0,0,1,1.157-1.994.388.388,0,0,1,.517.014l2.9,2.314-.582-3.652a.384.384,0,0,1,.247-.459,4.13,4.13,0,0,1,2.328,0,.386.386,0,0,1,.247.459l-.582,3.652,2.9-2.314a.383.383,0,0,1,.517-.007,3.2,3.2,0,0,1,.72.924,2.811,2.811,0,0,1,.444,1.063.4.4,0,0,1-.27.451l-3.448,1.339Z" transform="translate(-1679.596 -97.031)" fill="#bb88fc"/>
    <path id="Path_25890" data-name="Path 25890" d="M583.451,555.8l16.759,10.124,2.409-25.995,13.594,3.71s7.16,38.067-7.8,42.976c-11.5,3.772-39.678-18.809-39.678-18.809" transform="translate(-505.389 -479.795)" fill="#fff"/>
    <path id="Path_25891" data-name="Path 25891" d="M602.521,584.465c-12.7,0-35.9-18.462-36.967-19.315a.37.37,0,0,1,.463-.577c.28.224,28.157,22.413,39.331,18.746,13.891-4.558,8.148-39.177,7.594-42.33L600,537.456l-2.369,25.556a.37.37,0,0,1-.559.282l-16.759-10.124a.37.37,0,0,1,.382-.633l16.254,9.819L599.3,536.95a.37.37,0,0,1,.465-.323l13.594,3.71a.37.37,0,0,1,.266.288,117.077,117.077,0,0,1,1.716,19.719c-.108,13.62-3.393,21.587-9.765,23.677a9.794,9.794,0,0,1-3.057.444" transform="translate(-502.44 -476.845)"/>
    <path id="Path_25892" data-name="Path 25892" d="M86.732,273.722l-78.655,16.3a5.759,5.759,0,1,0,2.019,11.339l78.656-16.3a22.845,22.845,0,1,0-2.019-11.339m35.51-.471a12.928,12.928,0,1,1-14.994-10.462,12.928,12.928,0,0,1,14.994,10.462" transform="translate(-2.954 -224.524)" fill="#f6eeff"/>
    <path id="Path_25893" data-name="Path 25893" d="M6.117,298.855a6.129,6.129,0,0,1-1.06-12.163l78.375-16.246a23.214,23.214,0,1,1,2.153,12.067L7.216,298.757a6.247,6.247,0,0,1-1.1.1m100.49-48.791a22.735,22.735,0,0,0-3.987.354A22.469,22.469,0,0,0,84.146,270.78a.37.37,0,0,1-.293.333L5.2,287.418a5.389,5.389,0,1,0,1.879,10.613l78.645-16.3a.37.37,0,0,1,.411.208,22.475,22.475,0,1,0,20.474-31.873M83.777,270.751h0Zm22.751,15.093a13.318,13.318,0,1,1,2.361-.21,13.464,13.464,0,0,1-2.361.21m.037-25.857a12.557,12.557,0,1,0,12.358,10.358,12.588,12.588,0,0,0-12.358-10.358" transform="translate(0 -221.554)"/>
    <path id="Path_25894" data-name="Path 25894" d="M66.463,430.087l7.073-1.259,2.444,13.724-19.61,3.492-2-11.26,6.705-1.194L62.1,439.4l5.832-1.038Z" transform="translate(-48.309 -381.064)" fill="#bb88fc"/>
    <path id="Path_25895" data-name="Path 25895" d="M52.649,443.052l-2.134-11.988,7.433-1.323,1.035,5.81,5.1-.909-1.473-8.274,7.8-1.389,2.573,14.452Zm-1.277-11.39,1.875,10.532,18.882-3.362-2.314-13-6.345,1.13,1.473,8.274-6.56,1.168L57.35,430.6Z" transform="translate(-44.889 -377.644)"/>
    <path id="Path_25896" data-name="Path 25896" d="M454.976,1154.809a320.212,320.212,0,0,1-12.086-29.715l-2.07-26.3,27.357,8.837s9.454,32.863,14.067,47.183Z" transform="translate(-391.721 -976.405)" fill="#fff"/>
    <path id="Path_25897" data-name="Path 25897" d="M479.294,1152.231a.37.37,0,0,1-.352-.256c-4.381-13.6-13.236-44.3-14.016-47.005l-26.644-8.606,2.023,25.707c.323.936,5.64,16.241,12.054,29.631a.37.37,0,1,1-.667.319c-6.605-13.789-12.048-29.6-12.1-29.755a.373.373,0,0,1-.019-.091l-2.07-26.3a.37.37,0,0,1,.482-.381l27.357,8.837a.37.37,0,0,1,.242.25c.095.329,9.505,33.021,14.064,47.172a.369.369,0,0,1-.238.465.364.364,0,0,1-.113.018" transform="translate(-388.771 -973.457)"/>
    <path id="Path_25898" data-name="Path 25898" d="M266.322,1228.785H237.541c2.137-17.445,5.354-43.4,5.858-45.771.765-3.6,32.218,3.9,32.218,3.9l-4.031,18.159Z" transform="translate(-211.084 -1050.381)" fill="#fff"/>
    <path id="Path_25899" data-name="Path 25899" d="M234.592,1226.364l-.045,0a.37.37,0,0,1-.322-.412c2.4-19.624,5.374-43.5,5.864-45.8a1.133,1.133,0,0,1,.544-.723c3.766-2.38,30.965,4.061,32.121,4.337a.37.37,0,1,1-.172.719c-7.79-1.855-28.644-6.269-31.554-4.431-.188.119-.209.219-.216.251-.51,2.4-3.886,29.686-5.853,45.739a.37.37,0,0,1-.367.325" transform="translate(-208.134 -1047.59)"/>
    <path id="Path_25900" data-name="Path 25900" d="M493,1409.959a.365.365,0,0,1-.081-.009.37.37,0,0,1-.281-.441l5.264-23.716a.37.37,0,1,1,.722.16l-5.264,23.715a.37.37,0,0,1-.361.29" transform="translate(-437.758 -1231.185)"/>
    <path id="Path_25901" data-name="Path 25901" d="M308.381,1118.019c1.954,1.323,3,4.986,3.953,8.114a2.023,2.023,0,0,1-.5,2.037c-3.191,3.119-13.794,6.47-26.877,5.09-11.689-1.233-21.732-5.6-22.407-7.32s1.822-8.406,1.822-8.406Z" transform="translate(-233.206 -993.062)" fill="#00b2ca"/>
    <path id="Path_25902" data-name="Path 25902" d="M288.134,1131a58.385,58.385,0,0,1-6.12-.325c-11.177-1.18-21.9-5.478-22.713-7.553-.706-1.8,1.56-7.973,1.82-8.67a.362.362,0,0,1,.35-.24l44.006.485a.37.37,0,0,1,.2.063c1.988,1.346,3.051,4.855,3.989,7.951l.11.362a2.381,2.381,0,0,1-.592,2.409c-2.609,2.55-10.48,5.518-21.054,5.518m-26.41-16.046c-.725,1.989-2.225,6.647-1.735,7.9.579,1.479,10.455,5.858,22.1,7.087,13.371,1.41,23.592-2.067,26.58-4.987a1.645,1.645,0,0,0,.4-1.665l-.11-.363c-.887-2.929-1.891-6.241-3.608-7.491Z" transform="translate(-230.299 -990.113)"/>
    <path id="Path_25903" data-name="Path 25903" d="M547.352,635.836l10.962,7.1,5.153,3.341c3.444,1.891,14.369-16.944,10.837-18.892,0,0-1.664-1.512-4.347-3.494-1.1-.811-2.375-1.7-3.776-2.607-4.241-2.73-7.43-4.905-9.019-5.4a7.853,7.853,0,0,0-1.512-.354Z" transform="translate(-486.388 -546.978)" fill="#00b2ca"/>
    <path id="Path_25904" data-name="Path 25904" d="M656.047,719.1l4.009,2.6c3.338,1.828,14.172-17.066,10.837-18.892,0,0-.218-.416-2.9-2.4,0,0-4.969,15.911-11.945,18.692" transform="translate(-582.976 -622.399)" fill="#00b2ca"/>
    <path id="Path_25905" data-name="Path 25905" d="M561.079,643.837a1.5,1.5,0,0,1-.731-.183l-16.138-10.46a.37.37,0,0,1-.141-.45l8.3-20.3a.369.369,0,0,1,.465-.209c.007,0,.671.236,1.669.546,1.544.478,4.339,2.279,8.207,4.771l.734.472a69.609,69.609,0,0,1,8.138,6.108,1.988,1.988,0,0,1,.834,1.812c.1,4.3-5.989,15.031-9.877,17.4a2.87,2.87,0,0,1-1.457.491m-16.21-11.1,15.857,10.279c.316.171.8.074,1.425-.3,3.656-2.229,9.619-12.718,9.523-16.751-.015-.629-.18-1.034-.49-1.2a.363.363,0,0,1-.071-.051,68.335,68.335,0,0,0-8.072-6.062l-.734-.473c-3.819-2.46-6.578-4.238-8.025-4.686-.591-.183-1.067-.341-1.362-.44Z" transform="translate(-483.446 -544.027)"/>
    <path id="Path_25906" data-name="Path 25906" d="M300.52,599.347c-9.862-4.455-36.385-4.955-41.093,6.385-2.255,5.432,3.262,28.865,2.992,31.835s-2.41,15.985-1.612,17.593c3.865,7.791,46.021,10.738,49.1,1.542.919-2.744-4.183-9.266-4.74-28.132-.158-5.354,1.592-11.509,1.867-16.673" transform="translate(-230.05 -529.976)" fill="#00b2ca"/>
    <path id="Path_25907" data-name="Path 25907" d="M279.378,661.33c-12.751,0-27.333-2.9-29.593-7.454-.588-1.185.13-6.905,1.054-13.7.242-1.775.45-3.308.521-4.091a64.054,64.054,0,0,0-1.134-8.156c-1.427-8.462-3.383-20.051-1.831-23.788,1.232-2.969,4.062-5.346,8.41-7.065,10.38-4.1,27.659-3.379,35.045-.042a.37.37,0,1,1-.3.674c-7.256-3.278-24.25-3.984-34.468.056-4.155,1.643-6.847,3.884-8,6.661-1.47,3.54.545,15.48,1.877,23.381a59.065,59.065,0,0,1,1.141,8.346c-.073.8-.272,2.267-.525,4.124-.58,4.261-1.659,12.193-1.124,13.271,2.382,4.8,20.694,7.793,34.017,6.876,8.216-.566,13.465-2.493,14.4-5.288.3-.891-.176-2.417-.9-4.725a79.242,79.242,0,0,1-3.863-23.278,53.442,53.442,0,0,1,.981-9.756,67.141,67.141,0,0,0,.886-6.947.37.37,0,1,1,.738.039,67.781,67.781,0,0,1-.894,7.026,52.9,52.9,0,0,0-.972,9.616,78.572,78.572,0,0,0,3.83,23.08c.789,2.533,1.265,4.062.891,5.18-1.418,4.235-10.039,5.446-15.051,5.791-1.653.114-3.378.169-5.138.169" transform="translate(-220.222 -528.07)"/>
    <path id="Path_25908" data-name="Path 25908" d="M652.258,1184.943a.37.37,0,0,1-.352-.256,30,30,0,0,0-2.43-5.574.37.37,0,1,1,.619-.405,30.1,30.1,0,0,1,2.515,5.753.37.37,0,0,1-.239.465.363.363,0,0,1-.113.018" transform="translate(-577.083 -1047.274)"/>
    <path id="Path_25909" data-name="Path 25909" d="M604,1193.785l-.038,0a.37.37,0,0,1-.33-.405c.214-2.093-1.62-6.581-1.639-6.626a.37.37,0,1,1,.684-.281c.079.191,1.923,4.706,1.69,6.982a.37.37,0,0,1-.367.332" transform="translate(-534.919 -1054.117)"/>
    <path id="Path_25910" data-name="Path 25910" d="M551.457,1197.625a.37.37,0,0,1-.36-.453c.591-2.56-.593-7.266-.605-7.313a.37.37,0,0,1,.717-.183c.051.2,1.241,4.926.609,7.662a.369.369,0,0,1-.36.286" transform="translate(-489.167 -1056.921)"/>
    <path id="Path_25911" data-name="Path 25911" d="M484.833,1197.2a.37.37,0,0,1-.335-.525c1.255-2.7.275-7.348.265-7.395a.37.37,0,0,1,.723-.156c.043.2,1.041,4.935-.317,7.862a.37.37,0,0,1-.336.214" transform="translate(-430.504 -1056.421)"/>
    <path id="Path_25912" data-name="Path 25912" d="M408.584,1192.452a.37.37,0,0,1-.241-.651c1.313-1.126,1.97-5.237,2.113-6.726a.37.37,0,0,1,.736.07c-.022.231-.561,5.667-2.368,7.217a.368.368,0,0,1-.24.089" transform="translate(-362.747 -1052.783)"/>
    <path id="Path_25913" data-name="Path 25913" d="M342.6,1182.107a.37.37,0,0,1-.285-.6c1.315-1.6,1.869-5.922,1.875-5.965a.37.37,0,1,1,.734.092c-.023.186-.588,4.585-2.038,6.344a.369.369,0,0,1-.285.135" transform="translate(-304.109 -1044.317)"/>
    <path id="Path_25914" data-name="Path 25914" d="M296.7,1170.465a.37.37,0,0,1-.244-.648c.631-.555,1.432-3.517,1.789-5.254a.37.37,0,1,1,.724.149c-.1.485-1,4.761-2.025,5.661a.368.368,0,0,1-.244.092" transform="translate(-263.323 -1034.591)"/>
    <path id="Path_25915" data-name="Path 25915" d="M371.033,561.186a53.017,53.017,0,0,0-4.276,5.589s4.841,9.189,15.545,9.189a11.42,11.42,0,0,1,.619-7.831Z" transform="translate(-325.907 -498.68)" fill="#00b2ca"/>
    <path id="Path_25916" data-name="Path 25916" d="M379.353,573.382c-10.8,0-15.823-9.292-15.872-9.386a.37.37,0,0,1,.018-.374,53.874,53.874,0,0,1,4.31-5.634.369.369,0,0,1,.462-.073l11.888,6.947a.369.369,0,0,1,.153.466,11.159,11.159,0,0,0-.606,7.574.37.37,0,0,1-.353.48m-15.112-9.544c.747,1.267,5.437,8.546,14.621,8.8a11.8,11.8,0,0,1,.644-7.3l-11.345-6.63a53.443,53.443,0,0,0-3.92,5.13" transform="translate(-322.959 -495.729)"/>
    <path id="Path_25917" data-name="Path 25917" d="M511.884,581.615s3.086,1.624,4.29,6.556c0,0,2.594-3.3,1.935-6.649-.816-4.149-3.039-5.165-3.039-5.165Z" transform="translate(-454.87 -512.163)" fill="#00b2ca"/>
    <path id="Path_25918" data-name="Path 25918" d="M513.225,585.592a.36.36,0,0,1-.078-.008.369.369,0,0,1-.281-.273c-1.151-4.716-4.073-6.3-4.1-6.317a.37.37,0,0,1-.144-.519l3.186-5.257a.37.37,0,0,1,.47-.145c.1.045,2.405,1.144,3.248,5.43.684,3.479-1.9,6.809-2.007,6.949a.37.37,0,0,1-.29.141m-3.784-7.048a10.549,10.549,0,0,1,3.93,5.809,8.434,8.434,0,0,0,1.426-5.709c-.593-3.018-1.963-4.3-2.553-4.725Z" transform="translate(-451.921 -509.214)"/>
    <path id="Path_25919" data-name="Path 25919" d="M405.506,441.256l-.628,14.033c0,3.5,15.05,11.3,15.1,1.18V444.9Z" transform="translate(-359.782 -392.108)" fill="#fff"/>
    <path id="Path_25920" data-name="Path 25920" d="M412.441,458.887h-.026c-4.366-.014-10.859-3.932-10.857-6.55l.629-14.049a.37.37,0,0,1,.46-.342l14.476,3.648a.37.37,0,0,1,.279.359v11.564c-.019,3.464-1.781,5.369-4.961,5.369m-9.535-20.113-.608,13.58c0,1.845,5.667,5.779,10.12,5.793h.024c2.784,0,4.2-1.558,4.221-4.632V442.242Z" transform="translate(-356.833 -389.157)"/>
    <path id="Path_25921" data-name="Path 25921" d="M369.275,245.143s-6.472-4.427-5-8.388,5.794.52,5.794.52-3.168-14.235,8.852-16.565a8.616,8.616,0,0,1,9.2,3.65c5.56,8.607,5.4,27.02-2.586,29.419a11.807,11.807,0,0,1-11.858-2.392" transform="translate(-323.511 -195.955)" fill="#fff"/>
    <path id="Path_25922" data-name="Path 25922" d="M378.462,251.81a11.789,11.789,0,0,1-7.986-3.128.37.37,0,0,1,.489-.555,11.434,11.434,0,0,0,11.507,2.316c2.092-.629,3.768-2.51,4.847-5.44,2.492-6.771,1.363-17.5-2.465-23.425a8.235,8.235,0,0,0-8.821-3.487,10.186,10.186,0,0,0-6.912,4.349c-3.147,4.8-1.664,11.7-1.649,11.772a.37.37,0,0,1-.627.337c-.631-.653-2.563-2.285-3.9-2.008-.565.118-.984.563-1.282,1.361-1.358,3.644,4.8,7.911,4.858,7.954a.37.37,0,1,1-.418.61c-.274-.187-6.692-4.639-5.133-8.822a2.567,2.567,0,0,1,1.826-1.827c1.326-.275,2.855.734,3.769,1.482-.308-2.2-.652-7.313,1.936-11.261a10.9,10.9,0,0,1,7.392-4.673,8.954,8.954,0,0,1,9.583,3.812c3.937,6.094,5.1,17.122,2.538,24.081-1.162,3.157-3,5.195-5.328,5.893a14.668,14.668,0,0,1-4.222.659" transform="translate(-320.548 -192.974)"/>
    <path id="Path_25923" data-name="Path 25923" d="M322.466,144.9c-3.748,9.547-19.214,4.326-18.154,6.469,1.557,3.149-1.448,11.582-2.222,11.68s-1.156-1.607-1.156-1.607-4.317-4.477-5.794-.52,5,8.388,5,8.388c-9.517.323-14.221-11.852-13.861-18.99s5-7.377,5-7.377c-.376-4.017,4.017-6.892,7.566-6.056s16.593,5.445,16.819-1.07c5.2-2.578,9.16,3.094,6.809,9.083" transform="translate(-254.372 -120.123)"/>
    <path id="Path_25924" data-name="Path 25924" d="M296.81,166.734a11.036,11.036,0,0,1-8.053-3.571c-4.121-4.189-6.037-11.126-5.8-15.814.312-6.185,3.816-7.429,4.977-7.671a5.673,5.673,0,0,1,2.073-4.5,6.884,6.884,0,0,1,5.968-1.6c.474.111,1.115.289,1.857.495,3.757,1.041,10.75,2.979,13.432,1.012a2.691,2.691,0,0,0,1.075-2.23.37.37,0,0,1,.205-.318,5.084,5.084,0,0,1,5.96.612c2.14,1.963,2.685,5.555,1.357,8.937-2.656,6.766-10.971,6.386-15.439,6.18a12.481,12.481,0,0,0-2.71.024c1.361,2.834-.58,9.214-1.714,11.326-.306.57-.54.816-.809.85-.969.127-1.415-1.3-1.538-1.788-.693-.692-2.538-2.2-3.829-1.937-.565.118-.985.563-1.282,1.361-1.358,3.644,4.8,7.911,4.858,7.954a.37.37,0,0,1-.2.675q-.2.007-.39.007m-2.184-32.572a6.43,6.43,0,0,0-4.133,1.57,4.92,4.92,0,0,0-1.8,4.224.37.37,0,0,1-.349.4c-.174.01-4.31.334-4.648,7.027-.228,4.526,1.618,11.221,5.589,15.258a10.44,10.44,0,0,0,6.769,3.322c-1.79-1.439-5.424-4.864-4.208-8.126a2.567,2.567,0,0,1,1.826-1.827c2.008-.416,4.477,2.111,4.581,2.219a.371.371,0,0,1,.095.176c.135.6.46,1.267.7,1.319.7-.687,3.411-8.26,1.984-11.147a.66.66,0,0,1,.007-.683c.323-.5,1.226-.474,3.417-.374,4.583.21,12.254.561,14.717-5.712,1.406-3.58.426-6.659-1.169-8.122a4.33,4.33,0,0,0-4.939-.586,3.369,3.369,0,0,1-1.364,2.573c-2.971,2.18-9.917.255-14.067-.9-.735-.2-1.369-.38-1.829-.488a5.149,5.149,0,0,0-1.18-.133m4.468,25.568h0" transform="translate(-251.424 -117.17)"/>
    <path id="Path_25925" data-name="Path 25925" d="M485.986,187.4l-.082-.735a29.569,29.569,0,0,0,5.447-.958,9.616,9.616,0,0,0,4.54-2.787,5.687,5.687,0,0,0,1.335-4.888l.719-.175a6.436,6.436,0,0,1-1.49,5.542,10.206,10.206,0,0,1-4.885,3.015,30.1,30.1,0,0,1-5.583.987" transform="translate(-431.784 -158.047)" fill="#fff"/>
    <path id="Path_25926" data-name="Path 25926" d="M486.709,209.435a6.748,6.748,0,0,1-1.461-.159l.16-.722a6.051,6.051,0,0,0,6.523-2.834l.637.375a6.78,6.78,0,0,1-5.858,3.339" transform="translate(-431.201 -182.806)" fill="#fff"/>
    <path id="Path_25927" data-name="Path 25927" d="M359.035,173.606a3.4,3.4,0,0,1,1.572-3.683,4.291,4.291,0,0,1,2.213-.5l-.013.739a3.548,3.548,0,0,0-1.834.4,2.64,2.64,0,0,0-1.22,2.859Z" transform="translate(-318.963 -150.553)" fill="#fff"/>
    <path id="Path_25928" data-name="Path 25928" d="M433.638,301.46l-.667-.32a4.445,4.445,0,0,0,.066-3.651l.678-.3a5.192,5.192,0,0,1-.077,4.267" transform="translate(-384.746 -264.091)" fill="#fff"/>
    <path id="Path_25929" data-name="Path 25929" d="M490.275,347.8c.139.691.68,1.166,1.21,1.059a1.158,1.158,0,0,0,.707-1.444c-.139-.691-.681-1.165-1.21-1.059a1.158,1.158,0,0,0-.707,1.444" transform="translate(-435.639 -307.761)"/>
    <path id="Path_25930" data-name="Path 25930" d="M570.357,333.072A1.013,1.013,0,1,0,571,331.6a1.158,1.158,0,0,0-.647,1.472" transform="translate(-506.789 -294.647)"/>
    <path id="Path_25931" data-name="Path 25931" d="M487.251,334.044c-1.478-.685-1.788.152-2.246.843" transform="translate(-430.985 -296.611)" fill="#fff"/>
    <path id="Path_25932" data-name="Path 25932" d="M482.054,332.3a.37.37,0,0,1-.308-.574c.045-.067.088-.136.131-.205a1.706,1.706,0,0,1,2.578-.769.37.37,0,1,1-.311.671c-1.032-.478-1.249-.134-1.641.491-.046.074-.093.148-.141.221a.369.369,0,0,1-.309.166" transform="translate(-428.034 -293.658)"/>
    <path id="Path_25933" data-name="Path 25933" d="M565.349,318.84a1.887,1.887,0,0,0-2.209.935" transform="translate(-500.417 -283.256)" fill="#fff"/>
    <path id="Path_25934" data-name="Path 25934" d="M560.19,317.2a.37.37,0,0,1-.323-.549,2.256,2.256,0,0,1,2.669-1.1.37.37,0,1,1-.274.687,1.525,1.525,0,0,0-1.749.77.37.37,0,0,1-.324.191" transform="translate(-497.468 -280.309)"/>
    <path id="Path_25935" data-name="Path 25935" d="M536.625,367.124c.57,1.868,1.49,3.592,2.06,5.46a2,2,0,0,1,.128.946,1.349,1.349,0,0,1-.79.911,3.99,3.99,0,0,1-1.214.282" transform="translate(-476.855 -326.233)" fill="#fff"/>
    <path id="Path_25936" data-name="Path 25936" d="M533.858,372.143a.37.37,0,0,1-.045-.736,3.709,3.709,0,0,0,1.1-.25.99.99,0,0,0,.583-.646,1.74,1.74,0,0,0-.119-.768c-.28-.917-.655-1.822-1.018-2.7-.37-.891-.752-1.813-1.042-2.764a.37.37,0,0,1,.707-.216c.28.917.655,1.821,1.018,2.7.37.891.752,1.813,1.042,2.764a2.324,2.324,0,0,1,.138,1.123,1.711,1.711,0,0,1-1,1.177,4.329,4.329,0,0,1-1.326.314.367.367,0,0,1-.046,0" transform="translate(-473.904 -323.284)"/>
    <path id="Path_25937" data-name="Path 25937" d="M514.051,458.456a2.793,2.793,0,0,1-4.346-.65" transform="translate(-452.934 -406.815)" fill="#fff"/>
    <path id="Path_25938" data-name="Path 25938" d="M509.173,456.637a2.8,2.8,0,0,1-.348-.021,3.549,3.549,0,0,1-2.365-1.541.37.37,0,1,1,.593-.441,2.8,2.8,0,0,0,1.862,1.248,2.588,2.588,0,0,0,1.953-.664.37.37,0,0,1,.468.573,3.427,3.427,0,0,1-2.164.847" transform="translate(-449.985 -403.863)"/>
    <path id="Path_25939" data-name="Path 25939" d="M541.83,298.41a4.934,4.934,0,0,1-4.579-4.486,5.508,5.508,0,0,1,.769-3.745,4.059,4.059,0,0,1,6.272-.886,5.686,5.686,0,0,1,1.007,7.13,4.154,4.154,0,0,1-2.923,1.948,3.9,3.9,0,0,1-.546.039m-.336-9.478a3.179,3.179,0,0,0-.447.031,3.427,3.427,0,0,0-2.4,1.615,4.77,4.77,0,0,0-.659,3.243c.338,2.392,2.262,4.108,4.289,3.819a3.427,3.427,0,0,0,2.4-1.615,4.948,4.948,0,0,0-.872-6.176,3.5,3.5,0,0,0-2.31-.917" transform="translate(-477.359 -256.093)" fill="#bb88fc"/>
    <path id="Path_25940" data-name="Path 25940" d="M455.316,318.591a4.225,4.225,0,0,1-2.8-1.1,5.686,5.686,0,0,1-1.007-7.13,4.155,4.155,0,0,1,2.924-1.948c2.429-.342,4.73,1.652,5.125,4.448a5.508,5.508,0,0,1-.769,3.745,4.154,4.154,0,0,1-2.923,1.948,3.975,3.975,0,0,1-.554.039m-.331-9.479a3.149,3.149,0,0,0-.444.031,3.426,3.426,0,0,0-2.4,1.615,4.948,4.948,0,0,0,.872,6.176,3.321,3.321,0,0,0,5.161-.729,4.77,4.77,0,0,0,.659-3.243h0a4.2,4.2,0,0,0-3.845-3.85" transform="translate(-400.488 -274.026)" fill="#bb88fc"/>
    <path id="Path_25941" data-name="Path 25941" d="M523.434,337.017a.369.369,0,0,1-.319-.554,1.914,1.914,0,0,1,2.016-.852.37.37,0,1,1-.136.727,1.188,1.188,0,0,0-1.243.5.373.373,0,0,1-.319.179" transform="translate(-464.806 -298.195)" fill="#bb88fc"/>
    <path id="Path_25942" data-name="Path 25942" d="M403.924,358.308a.372.372,0,0,1-.136-.026c-.026-.01-1.578-.579-5.908-.218a.37.37,0,0,1-.061-.737c4.566-.38,6.176.241,6.243.268a.37.37,0,0,1-.138.713" transform="translate(-353.209 -317.418)" fill="#bb88fc"/>
    <path id="Path_25943" data-name="Path 25943" d="M638.321,965.935s3.42-6.475.77-6.827-6.61,5.825-6.61,5.825" transform="translate(-562.035 -852.268)" fill="#fff"/>
    <path id="Path_25944" data-name="Path 25944" d="M635.37,963.359a.37.37,0,0,1-.327-.542c.655-1.241,2.219-4.725,1.6-5.931a.658.658,0,0,0-.548-.357c-1.984-.264-5.184,4-6.249,5.658a.37.37,0,1,1-.623-.4c.418-.653,4.159-6.363,6.97-5.993a1.394,1.394,0,0,1,1.108.751c.91,1.763-1.34,6.124-1.6,6.615a.37.37,0,0,1-.327.2" transform="translate(-559.084 -849.322)"/>
    <path id="Path_25945" data-name="Path 25945" d="M680.7,919.6l9.576-.16a4.969,4.969,0,0,0,4.712-4.312l2.092-18.5a3.636,3.636,0,0,0-3.752-4.171l-9.576.16a4.97,4.97,0,0,0-4.712,4.312l-2.092,18.5A3.635,3.635,0,0,0,680.7,919.6" transform="translate(-601.528 -793.062)" fill="#bb88fc"/>
    <path id="Path_25946" data-name="Path 25946" d="M677.678,917.023a4.038,4.038,0,0,1-3.042-1.3,4.11,4.11,0,0,1-1.005-3.281l2.092-18.5a5.356,5.356,0,0,1,5.073-4.64l9.577-.16a4.043,4.043,0,0,1,3.12,1.3,4.111,4.111,0,0,1,1.005,3.281l-2.092,18.5a5.355,5.355,0,0,1-5.073,4.64l-9.577.16h-.078m12.772-27.138h-.065l-9.576.16a4.6,4.6,0,0,0-4.351,3.983l-2.092,18.5a3.381,3.381,0,0,0,.818,2.7,3.307,3.307,0,0,0,2.561,1.059l9.577-.16a4.6,4.6,0,0,0,4.35-3.983l2.092-18.5a3.381,3.381,0,0,0-.818-2.7,3.31,3.31,0,0,0-2.5-1.059" transform="translate(-598.575 -790.112)"/>
    <path id="Path_25947" data-name="Path 25947" d="M247.881,828.247l-28.088-3.991-5.09-18.981-15.028,4.643s3.274,22.718,9.558,26.863c8.548,5.641,39.227,2.226,39.227,2.226s14.443,1.16,17.682-1.544c2.073-1.732.334-2.564.334-2.564,2.257-1.964-.536-3.073-.536-3.073,1.059-.489,1.793-1.936.577-2.7-1.15-.723-5.773.955-6.268,1.136.534-.211,5.832-1.968,4.709-3.466-1.575-2.1-11.237,2.45-11.237,2.45" transform="translate(-177.435 -715.583)" fill="#fff"/>
    <path id="Path_25948" data-name="Path 25948" d="M226.589,837.468c-8.085,0-16.55-.715-20.509-3.327-6.35-4.189-9.586-26.185-9.721-27.119a.37.37,0,0,1,.257-.406l15.028-4.643a.369.369,0,0,1,.466.258l5.027,18.745,27.846,3.957a.37.37,0,0,1-.1.732l-28.088-3.991a.37.37,0,0,1-.3-.27l-4.991-18.61-14.357,4.436c.423,2.737,3.668,22.548,9.349,26.3,8.339,5.5,38.676,2.2,38.982,2.167a.324.324,0,0,1,.07,0c.143.011,14.329,1.117,17.416-1.46.619-.517.923-.985.88-1.353a.9.9,0,0,0-.471-.594.371.371,0,0,1-.081-.611c.56-.487.81-.933.743-1.324-.118-.689-1.162-1.122-1.173-1.126a.37.37,0,0,1-.018-.679,1.7,1.7,0,0,0,.992-1.269.834.834,0,0,0-.456-.78c-.7-.44-3.571.3-5.945,1.17a.37.37,0,0,1-.264-.691c.047-.019.13-.049.242-.09,3.544-1.294,4.262-2.121,4.374-2.5a.323.323,0,0,0-.066-.313c-1.015-1.356-7.153.852-10.784,2.563a.37.37,0,0,1-.315-.669c1.659-.782,10.019-4.57,11.691-2.337a1.058,1.058,0,0,1,.183.966,2.381,2.381,0,0,1-.963,1.145,3.612,3.612,0,0,1,2.24.127,1.563,1.563,0,0,1,.8,1.453,2.275,2.275,0,0,1-.848,1.53,2.2,2.2,0,0,1,1.039,1.373,1.976,1.976,0,0,1-.654,1.688,1.439,1.439,0,0,1,.467.87c.08.64-.3,1.318-1.139,2.017-3.267,2.728-16.937,1.709-17.913,1.632-.9.1-9.664,1.038-18.927,1.039" transform="translate(-174.485 -712.633)"/>
    <path id="Path_25949" data-name="Path 25949" d="M744.986,1042.427a.37.37,0,0,1-.093-.728l5.2-1.351a.37.37,0,0,1,.186.716l-5.2,1.351a.366.366,0,0,1-.093.012" transform="translate(-661.68 -924.463)"/>
    <path id="Path_25950" data-name="Path 25950" d="M749.226,1069.9a.37.37,0,0,1-.083-.73l5.262-1.22a.37.37,0,1,1,.167.72l-5.262,1.22a.375.375,0,0,1-.084.01" transform="translate(-665.448 -948.992)"/>
    <path id="Path_25951" data-name="Path 25951" d="M178.8,671.165c3.528-.641,15.8-1.956,19.541-9.377l-3.786-12.177-3.766-12.569s-8.315,3.66-12.179,10.962c-3.542,6.7.189,23.16.189,23.16" transform="translate(-157.364 -566.089)" fill="#00b2ca"/>
    <path id="Path_25952" data-name="Path 25952" d="M181.558,820.777c.493,2.57,1.215,6.493,1.215,6.493,4.161-.988,16.179-2.035,19.543-9.377l-1.687-5.18c-3.854,5.371-14.34,7.131-19.071,8.064" transform="translate(-161.336 -722.192)" fill="#00b2ca"/>
    <path id="Path_25953" data-name="Path 25953" d="M175.783,668.584a.37.37,0,0,1-.36-.288c-.154-.678-3.72-16.675-.155-23.415,3.879-7.331,12.272-11.091,12.356-11.128a.37.37,0,0,1,.3.677c-.082.036-8.244,3.7-12,10.8-3.163,5.98-.347,20.214.151,22.573,4.339-.611,15.628-2.227,18.857-8.99l-3.743-12.04-1.249-4.169a.37.37,0,0,1,.708-.212l1.248,4.165,3.785,12.173a.371.371,0,0,1-.017.264c-3.329,7.268-15.107,8.925-19.541,9.549l-.285.04a.377.377,0,0,1-.052,0" transform="translate(-154.344 -563.137)"/>
    <path id="Path_25954" data-name="Path 25954" d="M964.024,519.31c1.417.5,1.94,2.681,1.169,4.875s-2.546,3.569-3.962,3.071-1.94-2.681-1.169-4.875,2.546-3.569,3.962-3.071" transform="translate(-852.813 -461.378)" fill="#fff"/>
    <path id="Path_25955" data-name="Path 25955" d="M958.886,524.759a2.2,2.2,0,0,1-.732-.124,2.706,2.706,0,0,1-1.642-2.064,5.918,5.918,0,0,1,.247-3.282c.852-2.423,2.8-3.872,4.434-3.3a2.705,2.705,0,0,1,1.642,2.064,6.332,6.332,0,0,1-2.109,6,3.037,3.037,0,0,1-1.84.706m1.585-8.15c-1.118,0-2.412,1.21-3.015,2.924a5.175,5.175,0,0,0-.226,2.865,1.753,1.753,0,0,0,3.042,1.07,5.6,5.6,0,0,0,1.843-5.24,2,2,0,0,0-1.168-1.539,1.428,1.428,0,0,0-.476-.08" transform="translate(-849.859 -458.408)"/>
    <path id="Path_25956" data-name="Path 25956" d="M934.754,510.655c1.417.5,1.867,2.888,1.006,5.338s-2.708,4.032-4.125,3.534-1.867-2.888-1.006-5.338,2.709-4.032,4.125-3.534" transform="translate(-826.586 -453.696)" fill="#fff"/>
    <path id="Path_25957" data-name="Path 25957" d="M929.2,517.028a2.018,2.018,0,0,1-.673-.114c-1.634-.575-2.175-3.127-1.232-5.81s2.963-4.335,4.6-3.76,2.175,3.127,1.232,5.81c-.817,2.324-2.441,3.874-3.923,3.874m2.022-9.057c-1.145,0-2.539,1.414-3.23,3.379-.779,2.216-.422,4.444.78,4.867s2.875-1.093,3.654-3.308.422-4.444-.78-4.867a1.277,1.277,0,0,0-.424-.071" transform="translate(-823.599 -450.734)"/>
    <path id="Path_25958" data-name="Path 25958" d="M897.988,501.011c1.564.55,2.061,3.189,1.11,5.894s-2.99,4.452-4.555,3.9-2.061-3.189-1.11-5.894,2.99-4.452,4.555-3.9" transform="translate(-793.493 -445.118)" fill="#fff"/>
    <path id="Path_25959" data-name="Path 25959" d="M892.2,508.321a2.2,2.2,0,0,1-.732-.124,2.931,2.931,0,0,1-1.739-2.419,8.469,8.469,0,0,1,2.558-7.276,2.932,2.932,0,0,1,2.87-.8c1.784.627,2.371,3.423,1.337,6.365-.9,2.55-2.675,4.252-4.294,4.252m2.23-10a2.655,2.655,0,0,0-1.662.743,7.739,7.739,0,0,0-2.313,6.577,2.241,2.241,0,0,0,1.258,1.858c1.346.472,3.216-1.21,4.083-3.675s.462-4.949-.884-5.422a1.445,1.445,0,0,0-.482-.081" transform="translate(-790.539 -442.16)"/>
    <path id="Path_25960" data-name="Path 25960" d="M866.566,493.907c1.417.5,1.867,2.888,1.006,5.338s-2.709,4.032-4.125,3.534-1.867-2.888-1.006-5.338,2.708-4.032,4.125-3.534" transform="translate(-765.993 -438.813)" fill="#fff"/>
    <path id="Path_25961" data-name="Path 25961" d="M861.041,500.284a2.014,2.014,0,0,1-.672-.114,2.688,2.688,0,0,1-1.6-2.217,7.7,7.7,0,0,1,2.329-6.623,2.392,2.392,0,0,1,4.232,1.488A7.7,7.7,0,0,1,863,499.44a3.083,3.083,0,0,1-1.962.843m2.022-9.057a2.371,2.371,0,0,0-1.482.664,6.975,6.975,0,0,0-2.083,5.924,1.674,1.674,0,0,0,3.024,1.063,6.974,6.974,0,0,0,2.083-5.924,2,2,0,0,0-1.117-1.657,1.278,1.278,0,0,0-.425-.071" transform="translate(-763.038 -435.855)"/>
    <path id="Path_25962" data-name="Path 25962" d="M1067.193,1058.283l3.338,16.63a5.045,5.045,0,0,1-3.953,5.939l-16.626,3.338a5.046,5.046,0,0,1-5.94-3.954l-3.338-16.63a5.046,5.046,0,0,1,3.954-5.939l16.626-3.338a5.046,5.046,0,0,1,5.939,3.953" transform="translate(-924.674 -936.809)" fill="#04b5a4"/>
    <path id="Path_25963" data-name="Path 25963" d="M1021.651,1062.52a5.42,5.42,0,0,1-5.3-4.351l-3.338-16.63a5.416,5.416,0,0,1,4.244-6.375l16.626-3.338a5.415,5.415,0,0,1,6.375,4.243l3.338,16.63a5.415,5.415,0,0,1-4.243,6.375l-16.627,3.338a5.465,5.465,0,0,1-1.077.108m13.309-30.061a4.727,4.727,0,0,0-.93.093l-16.626,3.338a4.681,4.681,0,0,0-3.664,5.5l3.338,16.63a4.681,4.681,0,0,0,5.5,3.664l16.627-3.338a4.676,4.676,0,0,0,3.663-5.5l-3.338-16.63a4.68,4.68,0,0,0-4.574-3.757" transform="translate(-900.089 -916.806)"/>
    <path id="Path_25964" data-name="Path 25964" d="M1042.874,941.52a.37.37,0,0,1-.362-.3l-1.1-5.479a8.48,8.48,0,0,1,16.628-3.338l1.1,5.479a.369.369,0,0,1-.29.435l-15.9,3.192a.368.368,0,0,1-.073.007m6.854-15.186a7.743,7.743,0,0,0-7.591,9.264l1.027,5.116,15.178-3.047-1.027-5.116a7.754,7.754,0,0,0-7.587-6.218" transform="translate(-925.27 -822.501)"/>
    <path id="Path_25965" data-name="Path 25965" d="M1130.831,1145.717l2.3,3.838-4.639.931.638-4.427a2.6,2.6,0,1,1,1.7-.342" transform="translate(-1001.384 -1013.817)"/>
    <path id="Path_24526" data-name="Path 24526" d="M-8.04,220.7H266.017a.45.45,0,0,0,0-.9H-8.04a.449.449,0,0,0-.45.45.449.449,0,0,0,.45.45" transform="translate(-15.306 -42.291)" fill-rule="evenodd"/>
  </g>
</svg>
