<svg width="20" height="20" viewBox="0 0 20 20" fill="none" xmlns="http://www.w3.org/2000/svg">
<g clip-path="url(#clip0_246_1933)">
<path d="M8.13107 19.375C7.77956 19.3735 7.4322 19.2989 7.11107 19.156C5.50136 18.4532 4.1104 17.3303 3.08407 15.905C2.066 14.4653 1.42513 12.7933 1.22007 11.042C1.02741 9.53531 1.14758 8.00509 1.57307 6.54697C1.96193 5.22303 2.68113 4.01974 3.66304 3.05026C4.64494 2.08077 5.85729 1.37695 7.18607 1.00497C9.23337 0.440129 11.4034 0.505295 13.4131 1.19197C14.5025 1.56917 15.4948 2.18292 16.3188 2.98915C17.1429 3.79538 17.7782 4.77408 18.1791 5.85497C18.4251 6.52644 18.6063 7.21994 18.7201 7.92597C18.9616 9.33748 18.9043 10.784 18.5521 12.172C18.2234 13.4865 17.5116 14.6737 16.5071 15.583C15.5103 16.4888 14.2542 17.0586 12.9161 17.212C12.5734 17.245 12.2293 17.2594 11.8851 17.255H11.4481H11.1311C11.0307 17.2545 10.9314 17.2763 10.8404 17.3188C10.7494 17.3614 10.6691 17.4236 10.6051 17.501L10.5971 17.511C10.5328 17.5935 10.48 17.6843 10.4401 17.781C10.2559 18.2453 9.93874 18.6448 9.5283 18.9295C9.11786 19.2142 8.63247 19.3712 8.13307 19.381L8.13107 19.375Z" fill="#FF6902"/>
<path d="M9.99374 1.25C11.0899 1.25474 12.1781 1.43572 13.2167 1.786C14.2179 2.13366 15.1296 2.69862 15.8865 3.44034C16.6435 4.18207 17.2268 5.08215 17.5947 6.076C17.8277 6.70946 17.9995 7.36378 18.1077 8.03C18.3344 9.35577 18.2805 10.7143 17.9497 12.018C17.6505 13.2128 17.0031 14.2917 16.0897 15.118C15.1894 15.9367 14.0547 16.452 12.8457 16.591C12.527 16.6211 12.2069 16.6341 11.8867 16.63H11.4547H11.1347H11.1297C10.9385 16.6304 10.7498 16.6731 10.5769 16.7548C10.4041 16.8366 10.2514 16.9555 10.1297 17.103L10.1217 17.113L10.1137 17.123C10.0149 17.2492 9.93353 17.3881 9.87174 17.536C9.73683 17.8895 9.49879 18.1942 9.18851 18.4107C8.87824 18.6272 8.51005 18.7454 8.13174 18.75C7.86626 18.7484 7.60402 18.6915 7.36174 18.583C6.59989 18.2505 5.88644 17.8165 5.24074 17.293C4.61567 16.7845 4.06112 16.195 3.59174 15.54C2.63487 14.1853 2.03286 12.6124 1.84074 10.965C1.6586 9.54321 1.77162 8.09914 2.17274 6.723C2.5312 5.50152 3.19443 4.39128 4.10006 3.49667C5.00569 2.60206 6.12397 1.95248 7.34974 1.609C8.21143 1.37347 9.10045 1.25276 9.99374 1.25ZM9.99374 0C8.9904 0.00133324 7.99168 0.135841 7.02374 0.4C5.59121 0.799015 4.28403 1.55658 3.22563 2.60116C2.16723 3.64573 1.39255 4.94284 0.97474 6.37C0.523387 7.90983 0.396042 9.52649 0.60074 11.118C0.79334 12.9775 1.47369 14.7531 2.57294 16.2652C3.6722 17.7773 5.15135 18.9722 6.86074 19.729C7.24399 19.9014 7.65835 19.9939 8.07853 20.0008C8.49871 20.0078 8.9159 19.929 9.30463 19.7694C9.69337 19.6097 10.0455 19.3725 10.3395 19.0723C10.6335 18.772 10.8633 18.415 11.0147 18.023C11.0329 17.9778 11.0567 17.9351 11.0857 17.896C11.0908 17.8897 11.0972 17.8847 11.1045 17.8812C11.1117 17.8778 11.1197 17.876 11.1277 17.876C11.3737 17.876 11.6277 17.876 11.8837 17.876C12.251 17.8804 12.6182 17.8644 12.9837 17.828C14.4499 17.6449 15.8255 17.0201 16.928 16.0364C18.0304 15.0527 18.8074 13.7569 19.1557 12.321C19.5305 10.8502 19.5914 9.31695 19.3347 7.821C19.2147 7.07534 19.0231 6.34296 18.7627 5.634C18.3292 4.46595 17.6419 3.4086 16.7505 2.53812C15.8591 1.66764 14.7858 1.00571 13.6077 0.6C12.4432 0.206887 11.2228 0.00428277 9.99374 0Z" fill="black"/>
<path d="M12.9269 6.91699H6.41992C6.25416 6.91699 6.09519 6.85114 5.97798 6.73393C5.86077 6.61672 5.79492 6.45775 5.79492 6.29199C5.79492 6.12623 5.86077 5.96726 5.97798 5.85005C6.09519 5.73284 6.25416 5.66699 6.41992 5.66699H12.9269C13.0927 5.66699 13.2517 5.73284 13.3689 5.85005C13.4861 5.96726 13.5519 6.12623 13.5519 6.29199C13.5519 6.45775 13.4861 6.61672 13.3689 6.73393C13.2517 6.85114 13.0927 6.91699 12.9269 6.91699Z" fill="black"/>
<path d="M10.6199 10.66H6.41992C6.25416 10.66 6.09519 10.5941 5.97798 10.4769C5.86077 10.3597 5.79492 10.2007 5.79492 10.035C5.79492 9.86921 5.86077 9.71024 5.97798 9.59303C6.09519 9.47582 6.25416 9.40997 6.41992 9.40997H10.6199C10.7857 9.40997 10.9447 9.47582 11.0619 9.59303C11.1791 9.71024 11.2449 9.86921 11.2449 10.035C11.2449 10.2007 11.1791 10.3597 11.0619 10.4769C10.9447 10.5941 10.7857 10.66 10.6199 10.66Z" fill="black"/>
</g>
<defs>
<clipPath id="clip0_246_1933">
<rect width="20" height="20" fill="white"/>
</clipPath>
</defs>
</svg>
