<svg width="20" height="20" viewBox="0 0 20 20" fill="none" xmlns="http://www.w3.org/2000/svg">
<g clip-path="url(#clip0_246_1944)">
<path d="M6.37275 -5.97793e-07H6.35975C6.07912 -0.00698599 5.79836 0.00671779 5.51975 0.0409994C5.02336 0.130509 4.56475 0.365444 4.20208 0.716C3.83942 1.06656 3.58906 1.51693 3.48275 2.01C3.43838 2.29071 3.41997 2.57491 3.42775 2.859V11.275C3.42765 11.2905 3.4243 11.3058 3.41793 11.3199C3.41156 11.334 3.4023 11.3467 3.39075 11.357C2.77589 11.9434 2.2509 12.6173 1.83275 13.357C1.82609 13.3693 1.81631 13.3797 1.80437 13.3871C1.79244 13.3945 1.77877 13.3986 1.76475 13.399C1.74804 13.3986 1.73193 13.3927 1.71892 13.3822C1.7059 13.3717 1.6967 13.3572 1.69275 13.341C1.67675 13.294 1.65975 13.241 1.64475 13.194C1.61002 13.0693 1.56208 12.9486 1.50175 12.834C1.4474 12.7455 1.371 12.6726 1.28002 12.6225C1.18905 12.5723 1.08662 12.5467 0.98275 12.548C0.82502 12.5427 0.671179 12.5976 0.552488 12.7016C0.433797 12.8056 0.359162 12.9509 0.34375 13.108C0.351721 13.284 0.389244 13.4574 0.45475 13.621C1.10675 15.56 1.76875 17.52 2.42275 19.454C2.45676 19.574 2.5116 19.687 2.58475 19.788C2.64111 19.8545 2.71128 19.9079 2.79038 19.9445C2.86947 19.9811 2.95559 20 3.04275 20C3.13499 19.9988 3.22602 19.9789 3.31039 19.9416C3.39476 19.9043 3.47074 19.8504 3.53375 19.783C3.59039 19.7218 3.63326 19.6491 3.65948 19.57C3.6857 19.4908 3.69466 19.4069 3.68575 19.324C3.66119 19.1767 3.62062 19.0325 3.56475 18.894C3.54475 18.837 3.52575 18.783 3.50775 18.73C3.50193 18.713 3.50224 18.6945 3.50863 18.6777C3.51502 18.6609 3.52709 18.6468 3.54275 18.638C4.09101 18.3193 4.6588 18.0354 5.24275 17.788C6.3678 17.3356 7.56722 17.0965 8.77975 17.083H9.05675C9.47175 17.083 9.90175 17.075 10.2567 17.044C12.0277 16.9009 13.7361 16.3235 15.2307 15.363C15.6857 15.072 16.7308 14.386 18.3418 13.324C18.5711 13.1816 18.7855 13.0164 18.9818 12.831C19.2472 12.5536 19.4426 12.2169 19.5518 11.8488C19.6609 11.4807 19.6806 11.0919 19.6092 10.7147C19.5378 10.3374 19.3774 9.98269 19.1413 9.67993C18.9052 9.37718 18.6002 9.13516 18.2518 8.974C17.9434 8.82847 17.6067 8.75267 17.2658 8.752C17.0273 8.75323 16.7901 8.78687 16.5608 8.852C16.5518 8.85308 16.5427 8.85308 16.5338 8.852C16.5227 8.85203 16.5118 8.84978 16.5017 8.84539C16.4916 8.841 16.4825 8.83456 16.475 8.82649C16.4674 8.81841 16.4617 8.80887 16.458 8.79846C16.4544 8.78805 16.4529 8.777 16.4538 8.766C16.4538 6.772 16.4538 4.757 16.4538 2.779C16.4603 2.51569 16.4405 2.25238 16.3948 1.993C16.2899 1.51846 16.0511 1.08395 15.7067 0.740999C15.3631 0.394316 14.9254 0.15584 14.4477 0.0549994C14.1674 0.0107212 13.8835 -0.00768963 13.5997 -5.97793e-07H6.37275ZM9.87275 1.26H13.7727C13.9487 1.25458 14.1245 1.27445 14.2947 1.319C14.4976 1.37524 14.6825 1.48297 14.8314 1.63173C14.9803 1.78048 15.0883 1.96522 15.1447 2.168C15.1895 2.3352 15.2097 2.508 15.2048 2.681V9.513C15.2037 9.53188 15.1973 9.55007 15.1863 9.56547C15.1754 9.58087 15.1603 9.59284 15.1427 9.6L12.9137 10.917C12.9045 10.923 12.8941 10.9271 12.8832 10.9289C12.8723 10.9307 12.8611 10.9302 12.8504 10.9275C12.8397 10.9248 12.8297 10.9198 12.8209 10.913C12.8122 10.9062 12.805 10.8977 12.7997 10.888C12.6661 10.6517 12.4857 10.445 12.2696 10.2807C12.0535 10.1163 11.8062 9.99768 11.5427 9.932C11.3257 9.88736 11.1042 9.8679 10.8827 9.874H8.62475C8.47275 9.874 8.25375 9.863 7.97375 9.841C7.80275 9.827 7.63075 9.821 7.46275 9.821C6.54261 9.82176 5.63411 10.0267 4.80275 10.421C4.79088 10.4267 4.77792 10.4298 4.76475 10.43C4.75446 10.4299 4.7443 10.4277 4.7349 10.4235C4.72551 10.4193 4.71708 10.4132 4.71014 10.4056C4.7032 10.398 4.69789 10.389 4.69456 10.3793C4.69122 10.3696 4.68993 10.3593 4.69075 10.349C4.69075 7.892 4.69075 5.405 4.69075 2.957C4.67749 2.67813 4.70103 2.39872 4.76075 2.126C4.84696 1.87331 5.01009 1.65394 5.22726 1.49864C5.44443 1.34334 5.70476 1.25989 5.97175 1.26H9.87275ZM10.4427 13.848H11.0247C11.4689 13.8551 11.9029 13.7146 12.2587 13.4486C12.6145 13.1826 12.8719 12.8061 12.9907 12.378C12.9994 12.3492 13.0187 12.3249 13.0447 12.31C14.2537 11.594 15.4817 10.867 16.6947 10.151C16.8561 10.053 17.041 10.0008 17.2297 10C17.4404 10.001 17.647 10.0581 17.8283 10.1653C18.0097 10.2725 18.1593 10.426 18.2618 10.61C18.348 10.7705 18.3935 10.9497 18.3944 11.1319C18.3953 11.3141 18.3514 11.4937 18.2668 11.655C18.1468 11.888 17.9625 12.0817 17.7358 12.213C16.7358 12.869 15.7287 13.532 14.7287 14.182C13.2999 15.1359 11.6436 15.6939 9.92875 15.799C9.66775 15.815 9.37675 15.817 9.06875 15.819C8.68275 15.819 8.28275 15.825 7.92875 15.857C6.2559 16.0187 4.63889 16.5454 3.19175 17.4L3.17675 17.407C3.16813 17.4083 3.15937 17.4083 3.15075 17.407C3.13365 17.407 3.11699 17.4016 3.10315 17.3915C3.08932 17.3814 3.07903 17.3673 3.07375 17.351L2.29075 15.06C2.28456 15.0436 2.28242 15.0259 2.28451 15.0085C2.2866 14.9911 2.29285 14.9745 2.30275 14.96C2.65375 14.411 3.01075 13.86 3.36275 13.31C3.80687 12.6225 4.41684 12.0578 5.13648 11.668C5.85612 11.2781 6.66229 11.0755 7.48075 11.079C7.60375 11.079 7.72875 11.079 7.85175 11.093C8.13675 11.113 8.34475 11.123 8.47075 11.123C9.29175 11.123 10.1257 11.123 10.9477 11.131C11.0949 11.1236 11.242 11.1467 11.3797 11.199C11.5051 11.2577 11.6106 11.3515 11.6838 11.469C11.7569 11.5865 11.7944 11.7226 11.7917 11.861C11.7935 11.9983 11.7553 12.1331 11.6818 12.249C11.6083 12.3649 11.5026 12.457 11.3777 12.514C11.2401 12.5654 11.0935 12.5882 10.9467 12.581H9.57875H9.17875C9.03664 12.5735 8.89435 12.5918 8.75875 12.635C8.64979 12.6821 8.55723 12.7604 8.49279 12.8601C8.42836 12.9598 8.39493 13.0763 8.39675 13.195C8.3934 13.3196 8.42716 13.4424 8.49375 13.5479C8.56034 13.6533 8.65676 13.7365 8.77075 13.787C8.8857 13.8269 9.0072 13.8446 9.12875 13.839H10.4387L10.4427 13.848Z" fill="black"/>
<path d="M12.6076 3.46302C12.5106 3.46247 12.415 3.48637 12.3297 3.53252C12.2445 3.57866 12.1722 3.64555 12.1196 3.72702C12.0573 3.84935 12.0048 3.97641 11.9626 4.10702C11.8405 4.45476 11.6308 4.7651 11.3536 5.00802C11.0765 5.25093 10.7413 5.41819 10.3806 5.49362C10.0198 5.56905 9.64575 5.55008 9.29449 5.43855C8.94324 5.32703 8.62672 5.12672 8.37556 4.85702C8.17947 4.64964 8.02862 4.40378 7.93256 4.13502C7.81756 3.81902 7.79156 3.76202 7.78556 3.75102C7.7322 3.66243 7.6566 3.58933 7.56626 3.53898C7.47591 3.48864 7.37398 3.4628 7.27056 3.46402C7.13309 3.46206 6.99872 3.50492 6.88776 3.58611C6.7768 3.6673 6.6953 3.7824 6.65556 3.91402C6.61615 4.10544 6.63892 4.30445 6.72056 4.48202C6.95014 5.1512 7.38091 5.73309 7.95391 6.14803C8.52692 6.56297 9.21416 6.79069 9.92156 6.80002C10.1695 6.79977 10.4167 6.77193 10.6586 6.71702C11.1841 6.60513 11.6756 6.37002 12.0926 6.03102C12.511 5.67471 12.8427 5.22772 13.0626 4.72402C13.1425 4.55685 13.2029 4.38102 13.2426 4.20002C13.2608 4.11367 13.2592 4.02429 13.2377 3.93868C13.2162 3.85307 13.1755 3.7735 13.1186 3.70602C13.0551 3.63113 12.9762 3.57077 12.8874 3.52902C12.7985 3.48726 12.7017 3.4651 12.6036 3.46402L12.6076 3.46302Z" fill="black"/>
</g>
<defs>
<clipPath id="clip0_246_1944">
<rect width="20" height="20" fill="white"/>
</clipPath>
</defs>
</svg>
