<svg width="20" height="20" viewBox="0 0 20 20" fill="none" xmlns="http://www.w3.org/2000/svg">
<g clip-path="url(#clip0_246_1954)">
<path d="M9.99995 8.871C12.277 8.871 14.123 7.02507 14.123 4.748C14.123 2.47093 12.277 0.625 9.99995 0.625C7.72288 0.625 5.87695 2.47093 5.87695 4.748C5.87695 7.02507 7.72288 8.871 9.99995 8.871Z" fill="#FF6902"/>
<path d="M10.0446 19.375C9.16242 19.3759 8.28396 19.2612 7.43157 19.034C6.73157 18.848 4.41557 18.099 3.74557 16.279C3.5969 15.8604 3.55379 15.4116 3.62007 14.9724C3.68636 14.5332 3.85999 14.1171 4.12557 13.761C5.04334 12.66 6.31652 11.9138 7.72557 11.651C8.48372 11.4753 9.25933 11.386 10.0376 11.385C11.4686 11.3713 12.8823 11.6975 14.1626 12.337C14.6607 12.5645 15.1082 12.8895 15.4787 13.2927C15.8491 13.696 16.1351 14.1694 16.3196 14.685C16.4815 15.2686 16.4316 15.8907 16.1786 16.441C15.9107 17.0191 15.4972 17.5178 14.9786 17.888C13.5317 18.8913 11.8049 19.4117 10.0446 19.375Z" fill="#FF6902"/>
<path d="M9.99996 1.25C10.6922 1.25 11.3689 1.45527 11.9445 1.83986C12.52 2.22444 12.9686 2.77107 13.2335 3.41061C13.4984 4.05015 13.5678 4.75388 13.4327 5.43282C13.2977 6.11175 12.9643 6.73539 12.4748 7.22487C11.9853 7.71436 11.3617 8.0477 10.6828 8.18275C10.0038 8.3178 9.3001 8.24848 8.66056 7.98358C8.02102 7.71867 7.4744 7.27007 7.08981 6.6945C6.70523 6.11892 6.49996 5.44223 6.49996 4.75C6.49996 3.82174 6.8687 2.9315 7.52508 2.27513C8.18146 1.61875 9.0717 1.25 9.99996 1.25ZM9.99996 0C9.06089 0 8.14291 0.278465 7.36211 0.800182C6.5813 1.3219 5.97274 2.06344 5.61338 2.93102C5.25401 3.7986 5.15998 4.75327 5.34319 5.67429C5.52639 6.59531 5.97859 7.44132 6.64261 8.10534C7.30663 8.76936 8.15264 9.22157 9.07367 9.40477C9.99469 9.58797 10.9494 9.49394 11.8169 9.13458C12.6845 8.77522 13.4261 8.16665 13.9478 7.38585C14.4695 6.60504 14.748 5.68707 14.748 4.748C14.748 3.48875 14.2477 2.28108 13.3573 1.39066C12.4669 0.500234 11.2592 0 9.99996 0Z" fill="black"/>
<path d="M10.0389 10.763V12.013C11.3701 11.9987 12.6856 12.301 13.8769 12.895C14.2976 13.0842 14.6767 13.3547 14.9925 13.6908C15.3082 14.027 15.5544 14.4223 15.7169 14.854C15.8393 15.299 15.8004 15.773 15.6069 16.192C15.3834 16.672 15.0388 17.0856 14.6069 17.392C13.2673 18.3131 11.6713 18.7883 10.0459 18.75C9.21846 18.7508 8.39445 18.6432 7.59493 18.43C6.31293 18.087 4.78393 17.285 4.33393 16.064C4.22062 15.7419 4.18872 15.3968 4.24106 15.0593C4.2934 14.7219 4.42836 14.4027 4.63393 14.13C5.46153 13.1521 6.60274 12.4915 7.86293 12.261C8.57495 12.097 9.30326 12.0141 10.0339 12.014V10.764M10.0339 10.764C9.20869 10.7643 8.38613 10.8579 7.58193 11.043C6.02866 11.3422 4.6283 12.1736 3.62193 13.394C3.29496 13.8324 3.08164 14.345 3.00102 14.8859C2.92041 15.4268 2.975 15.9793 3.15993 16.494C3.77893 18.176 5.63693 19.199 7.27093 19.637C8.17623 19.878 9.10909 20.0001 10.0459 20C11.9378 20.0383 13.7931 19.4764 15.3459 18.395C15.9742 17.9898 16.4624 17.401 16.7442 16.7086C17.026 16.0161 17.0877 15.2537 16.9209 14.525C16.7194 13.9229 16.3957 13.3688 15.9702 12.8975C15.5447 12.4262 15.0264 12.0478 14.4479 11.786C13.0794 11.1007 11.5674 10.7507 10.0369 10.765L10.0339 10.764Z" fill="black"/>
</g>
<defs>
<clipPath id="clip0_246_1954">
<rect width="20" height="20" fill="white"/>
</clipPath>
</defs>
</svg>
