<svg xmlns="http://www.w3.org/2000/svg" width="150.061" height="150" viewBox="0 0 150.061 150">
  <g id="splashlogo" transform="translate(-0.004)">
    <path id="back" d="M115.724,4.568l12.222,1.248a34.989,34.989,0,0,1,31.262,31.248l1.247,12.219a283.606,283.606,0,0,1,0,57.638l-1.247,12.216a34.993,34.993,0,0,1-31.262,31.25l-12.222,1.245a283.83,283.83,0,0,1-57.661,0L45.84,150.388a34.991,34.991,0,0,1-31.261-31.25l-1.248-12.216a283.756,283.756,0,0,1,0-57.638l1.248-12.219A34.988,34.988,0,0,1,45.84,5.816L58.062,4.568a283.84,283.84,0,0,1,57.662,0Z" transform="translate(-11.86 -3.1)" fill="#fff" fill-rule="evenodd"/>
    <g id="Logo_wiht_baseline_1" data-name="Logo wiht baseline 1" transform="translate(-149.87 115.35)">
      <g id="Group_5573" data-name="Group 5573" transform="translate(168.85 -29.645)">
        <path id="Path_28763" data-name="Path 28763" d="M184.3,69.723c0,3.048-1.42,4.468-4.473,4.468s-4.468-1.42-4.468-4.468v-.678H168.85v.678c0,7.289,3.7,10.98,10.98,10.98s10.98-3.7,10.98-10.98V43.29H184.3V69.723Z" transform="translate(-168.85 -42.365)" fill="#00524c"/>
        <path id="Path_28764" data-name="Path 28764" d="M232.423,68.338c.277,3.038-1.009,4.582-4.048,4.859s-4.582-1.009-4.859-4.048l-2.4-26.324-6.482.594,2.4,26.324c.663,7.259,4.681,10.6,11.935,9.936s10.6-4.681,9.936-11.935L236.5,41.42l-6.482.594Z" transform="translate(-191.977 -41.42)" fill="#00524c"/>
        <path id="Path_28765" data-name="Path 28765" d="M287.718,43.29a10.625,10.625,0,0,0-6.438,1.766,10.625,10.625,0,0,0-6.438-1.766c-6.344,0-9.693,3.35-9.693,9.693V80.708h6.512V52.983c0-2.2.98-3.182,3.182-3.182s3.182.98,3.182,3.182V80.708h6.512V52.983c0-2.2.98-3.182,3.182-3.182s3.182.98,3.182,3.182V80.708h6.512V52.983C297.412,46.64,294.062,43.29,287.718,43.29Z" transform="translate(-217.499 -42.365)" fill="#00524c"/>
        <path id="Path_28766" data-name="Path 28766" d="M340.622,43.29H334.11V80.708h21.965V74.2H340.622Z" transform="translate(-252.337 -42.365)" fill="#00524c"/>
        <rect id="Rectangle_18149" data-name="Rectangle 18149" width="6.512" height="37.418" transform="translate(105.598 0.925)" fill="#00524c"/>
      </g>
      <g id="Group_5574" data-name="Group 5574" transform="translate(193.952 -99.25)">
        <path id="Path_28767" data-name="Path 28767" d="M77.843,49.478l11.118-6.393L86.27,38.419l-.722.4c-.193.1-.366.2-.534.3L82.588,40.5C79.5,42.278,76.3,44.109,73.167,45.93a.657.657,0,0,1-.287.119.53.53,0,0,1-.247-.178c-3.592-3.622-7.289-7.318-10.985-10.985-.228-.228-.233-.247-.064-.534C63.4,31.224,65.23,28.033,67,24.945l1.475-2.573c.089-.153.173-.312.257-.465l.341-.623L64.9,18.755h-.767l-.114.317c-.025.064-.045.129-.064.193a1.123,1.123,0,0,1-.1.262q-2.9,5.069-5.819,10.134-2.932-5.1-5.859-10.2a1.2,1.2,0,0,1-.074-.208c-.015-.059-.035-.119-.054-.178l-.109-.327h-.8l-.129.1c-.069.054-.139.109-.2.163a3.166,3.166,0,0,1-.366.272c-.722.426-1.45.846-2.2,1.282L47,21.293l7.675,13.365-2.89,2.89c-2.776,2.776-5.641,5.641-8.451,8.476-.054.054-.089.074-.089.079a1.035,1.035,0,0,1-.218-.114l-.059-.035Q37.59,42.867,32.211,39.78l-.97-.559c-.218-.124-.435-.247-.668-.376l-.727-.411L27.159,43.12l11.079,6.368L27.08,55.91l2.7,4.681,13.281-7.625L54.547,64.451,46.922,77.742l4.7,2.687L58.04,69.256l6.418,11.153,4.671-2.692-.336-.614c-.064-.119-.119-.218-.173-.312l-1.544-2.7c-1.781-3.107-3.627-6.324-5.458-9.471-.163-.282-.163-.3.069-.529,2.751-2.726,5.532-5.512,8.224-8.2l2.771-2.771c.074-.074.153-.148.242-.228l13.38,7.68,2.682-4.7Zm-30.129.059L58.1,39.146,68.392,49.428,58.006,59.815Z" transform="translate(-27.08 -18.75)" fill="#00524c"/>
        <circle id="Ellipse_411" data-name="Ellipse 411" cx="4.142" cy="4.142" r="4.142" transform="translate(26.804 26.314)" fill="#00524c"/>
        <path id="Path_28768" data-name="Path 28768" d="M116.331,40.88a4.181,4.181,0,1,0,4.181,4.181A4.185,4.185,0,0,0,116.331,40.88Z" transform="translate(-70.056 -29.93)" fill="#ff6902"/>
        <circle id="Ellipse_412" data-name="Ellipse 412" cx="3.439" cy="3.439" r="3.439" transform="translate(42.836 42.015)" fill="#ff6902"/>
        <path id="Path_28769" data-name="Path 28769" d="M54.9,102.46a4.033,4.033,0,1,0,4.033,4.033A4.037,4.037,0,0,0,54.9,102.46Z" transform="translate(-39.098 -61.039)" fill="#ff6902"/>
        <circle id="Ellipse_413" data-name="Ellipse 413" cx="3.662" cy="3.662" r="3.662" transform="translate(12.143 11.465)" fill="#ff6902"/>
      </g>
      <g id="Group_5575" data-name="Group 5575" transform="translate(196.282 14.191)">
        <path id="Path_28770" data-name="Path 28770" d="M224.29,130.777v-.267h2.885v.267h-1.291v3.281h-.307v-3.281Z" transform="translate(-224.29 -130.263)" fill="#00524c"/>
        <path id="Path_28771" data-name="Path 28771" d="M229.06,133.681a1.349,1.349,0,1,1,2.7,0,1.348,1.348,0,0,1-2.7,0Zm2.39,0a1.046,1.046,0,1,0-2.088,0,1.045,1.045,0,1,0,2.088,0Z" transform="translate(-226.7 -131.172)" fill="#00524c"/>
        <path id="Path_28772" data-name="Path 28772" d="M237.93,132.43v1.425a1.2,1.2,0,1,1-2.4,0V132.43h.3v1.425c0,.619.3.97.91.97s.9-.351.9-.97V132.43Z" transform="translate(-229.968 -131.233)" fill="#00524c"/>
        <path id="Path_28773" data-name="Path 28773" d="M242.49,134.034a.825.825,0,0,1-.247.035c-.435,0-.668-.292-.668-.856v-1.479h-.564v-.247h.564v-.846l.292-.079v.93h.811v.247h-.811v1.45c0,.47.183.653.485.653a.545.545,0,0,0,.153-.02Z" transform="translate(-232.737 -130.288)" fill="#00524c"/>
        <path id="Path_28774" data-name="Path 28774" d="M249.454,134.25c0-.312-.272-.44-.876-.51-.722-.084-1.049-.282-1.049-.693,0-.455.4-.737,1.009-.737a1.376,1.376,0,0,1,1.173.544l-.228.173a1.051,1.051,0,0,0-.945-.455c-.455,0-.722.163-.722.475,0,.287.238.426.851.5.722.084,1.074.3,1.074.708s-.366.757-1.1.757a1.4,1.4,0,0,1-1.217-.554l.228-.173a1.178,1.178,0,0,0,1.019.47C249.182,134.754,249.454,134.566,249.454,134.25Z" transform="translate(-235.975 -131.172)" fill="#00524c"/>
        <path id="Path_28775" data-name="Path 28775" d="M252.44,130.667a.254.254,0,0,1,.252-.257.25.25,0,0,1,.247.257,1.171,1.171,0,0,1-.312.767l-.119-.114a.747.747,0,0,0,.238-.411.186.186,0,0,1-.054,0A.249.249,0,0,1,252.44,130.667Z" transform="translate(-238.511 -130.212)" fill="#00524c"/>
        <path id="Path_28776" data-name="Path 28776" d="M255.071,132.31a1.089,1.089,0,0,1,1.084.866v-.8h.287v2.588h-.3l.01-.787a1.123,1.123,0,0,1-1.1.831,1.259,1.259,0,0,1-1.277-1.326A1.3,1.3,0,0,1,255.071,132.31Zm1.1,1.371a1.046,1.046,0,1,0-2.088,0,1.045,1.045,0,1,0,2.088,0Z" transform="translate(-239.188 -131.172)" fill="#00524c"/>
        <path id="Path_28777" data-name="Path 28777" d="M262.586,133.334a.919.919,0,0,0-.935-.777,1.013,1.013,0,0,0-1.029,1.1,1,1,0,0,0,1.034,1.079.945.945,0,0,0,.96-.717l.272.084a1.214,1.214,0,0,1-1.237.891,1.267,1.267,0,0,1-1.331-1.341,1.294,1.294,0,0,1,1.336-1.366,1.154,1.154,0,0,1,1.2.95Z" transform="translate(-242.492 -131.162)" fill="#00524c"/>
        <path id="Path_28778" data-name="Path 28778" d="M266.52,133.805v-3.8h.292v1.969a1.11,1.11,0,0,1,1.029-.836,1.052,1.052,0,0,1,1.1,1.138v1.524h-.292v-1.5a.813.813,0,0,0-.851-.9c-.5,0-.985.3-.985,1.113V133.8h-.292Z" transform="translate(-245.624 -130.01)" fill="#00524c"/>
        <path id="Path_28779" data-name="Path 28779" d="M275.053,133.346a1.217,1.217,0,0,1-1.207.782,1.268,1.268,0,0,1-1.336-1.341,1.291,1.291,0,0,1,1.336-1.366,1.181,1.181,0,0,1,1.227,1.3v.139h-2.256a1.035,1.035,0,0,0,1.979.391Zm-2.237-.688h1.959c-.049-.614-.341-.98-.93-.98A.967.967,0,0,0,272.817,132.658Zm.609-2.1.2-.01.623.722-.158.02Z" transform="translate(-248.65 -130.283)" fill="#00524c"/>
        <path id="Path_28780" data-name="Path 28780" d="M279.43,134.034a.825.825,0,0,1-.247.035c-.435,0-.668-.292-.668-.856v-1.479h-.564v-.247h.564v-.846l.292-.079v.93h.811v.247h-.811v1.45c0,.47.183.653.485.653a.545.545,0,0,0,.153-.02Z" transform="translate(-251.398 -130.288)" fill="#00524c"/>
        <path id="Path_28781" data-name="Path 28781" d="M284.023,134.235a1.217,1.217,0,0,1-1.207.782,1.268,1.268,0,0,1-1.336-1.341,1.291,1.291,0,0,1,1.336-1.366,1.181,1.181,0,0,1,1.227,1.3v.139h-2.256a1.035,1.035,0,0,0,1.979.391Zm-2.237-.688h1.959c-.049-.614-.341-.98-.93-.98A.967.967,0,0,0,281.787,133.547Z" transform="translate(-253.182 -131.172)" fill="#00524c"/>
        <path id="Path_28782" data-name="Path 28782" d="M287.16,137.007a.254.254,0,0,1,.252-.257.25.25,0,0,1,.247.257,1.16,1.16,0,0,1-.312.767l-.119-.114a.738.738,0,0,0,.238-.416.2.2,0,0,1-.054,0A.242.242,0,0,1,287.16,137.007Z" transform="translate(-256.051 -133.415)" fill="#00524c"/>
        <path id="Path_28783" data-name="Path 28783" d="M292.779,134.034a.824.824,0,0,1-.247.035c-.435,0-.668-.292-.668-.856v-1.479H291.3v-.247h.564v-.846l.292-.079v.93h.811v.247h-.811v1.45c0,.47.183.653.485.653a.545.545,0,0,0,.153-.02Z" transform="translate(-258.143 -130.288)" fill="#00524c"/>
        <path id="Path_28784" data-name="Path 28784" d="M294.83,133.681a1.349,1.349,0,1,1,2.7,0,1.348,1.348,0,0,1-2.7,0Zm2.39,0a1.046,1.046,0,1,0-2.088,0,1.045,1.045,0,1,0,2.088,0Z" transform="translate(-259.926 -131.172)" fill="#00524c"/>
        <path id="Path_28785" data-name="Path 28785" d="M303.715,132.43v1.425a1.2,1.2,0,1,1-2.395,0V132.43h.3v1.425c0,.619.3.97.91.97s.9-.351.9-.97V132.43Z" transform="translate(-263.205 -131.233)" fill="#00524c"/>
        <path id="Path_28786" data-name="Path 28786" d="M308.269,134.034a.824.824,0,0,1-.247.035c-.435,0-.668-.292-.668-.856v-1.479h-.564v-.247h.564v-.846l.292-.079v.93h.812v.247h-.812v1.45c0,.47.183.653.485.653a.545.545,0,0,0,.153-.02Z" transform="translate(-265.968 -130.288)" fill="#00524c"/>
        <path id="Path_28787" data-name="Path 28787" d="M315.234,134.25c0-.312-.272-.44-.876-.51-.722-.084-1.049-.282-1.049-.693,0-.455.4-.737,1.009-.737a1.376,1.376,0,0,1,1.173.544l-.228.173a1.051,1.051,0,0,0-.945-.455c-.455,0-.722.163-.722.475,0,.287.238.426.851.5.722.084,1.074.3,1.074.708s-.366.757-1.1.757a1.4,1.4,0,0,1-1.217-.554l.228-.173a1.178,1.178,0,0,0,1.019.47C314.957,134.754,315.234,134.566,315.234,134.25Z" transform="translate(-269.206 -131.172)" fill="#00524c"/>
        <path id="Path_28788" data-name="Path 28788" d="M321.193,134.235a1.217,1.217,0,0,1-1.207.782,1.268,1.268,0,0,1-1.336-1.341,1.291,1.291,0,0,1,1.336-1.366,1.181,1.181,0,0,1,1.227,1.3v.139h-2.256a1.035,1.035,0,0,0,1.979.391Zm-2.237-.688h1.959c-.049-.614-.341-.98-.93-.98A.967.967,0,0,0,318.957,133.547Z" transform="translate(-271.959 -131.172)" fill="#00524c"/>
        <path id="Path_28789" data-name="Path 28789" d="M328.27,135.043h-.247l-1.173-2.613h.327l.97,2.246.98-2.246h.317Z" transform="translate(-276.102 -131.233)" fill="#00524c"/>
        <path id="Path_28790" data-name="Path 28790" d="M334.853,134.235a1.217,1.217,0,0,1-1.207.782,1.268,1.268,0,0,1-1.336-1.341,1.291,1.291,0,0,1,1.336-1.366,1.181,1.181,0,0,1,1.227,1.3v.139h-2.256a1.035,1.035,0,0,0,1.979.391Zm-2.237-.688h1.959c-.049-.614-.341-.98-.93-.98A.967.967,0,0,0,332.617,133.547Z" transform="translate(-278.86 -131.172)" fill="#00524c"/>
        <path id="Path_28791" data-name="Path 28791" d="M338.6,134.962v-2.6h.292v.772a1.076,1.076,0,0,1,1.034-.836,1.019,1.019,0,0,1,1.1,1.133v1.529h-.292v-1.445c0-.628-.3-.945-.861-.945a.954.954,0,0,0-.97.92v1.475h-.3Z" transform="translate(-282.038 -131.167)" fill="#00524c"/>
        <path id="Path_28792" data-name="Path 28792" d="M345.876,131.148a1.094,1.094,0,0,1,1.084.866v-2h.287v3.8h-.3l.01-.787a1.125,1.125,0,0,1-1.1.831,1.256,1.256,0,0,1-1.277-1.326A1.314,1.314,0,0,1,345.876,131.148Zm1.1,1.371a1.046,1.046,0,1,0-2.088,0,1.016,1.016,0,0,0,1.049,1.079A1,1,0,0,0,346.98,132.519Z" transform="translate(-285.059 -130.01)" fill="#00524c"/>
      </g>
    </g>
  </g>
</svg>
