<svg width="151" height="150" viewBox="0 0 151 150" fill="none" xmlns="http://www.w3.org/2000/svg">
<g clip-path="url(#clip0_7580_34400)">
<path fill-rule="evenodd" clip-rule="evenodd" d="M103.86 1.46805L116.082 2.71605C124.093 3.53196 131.577 7.08595 137.272 12.7785C142.967 18.471 146.524 25.9536 147.344 33.964L148.591 46.183C150.548 65.3459 150.548 84.6582 148.591 103.821L147.344 116.037C146.524 124.048 142.967 131.53 137.272 137.223C131.577 142.916 124.093 146.47 116.082 147.287L103.86 148.532C84.6893 150.489 65.3693 150.489 46.1988 148.532L33.9758 147.288C25.965 146.471 18.481 142.917 12.7861 137.224C7.09128 131.531 3.53416 124.049 2.71477 116.038L1.46677 103.822C-0.489575 84.6592 -0.489575 65.3469 1.46677 46.184L2.71477 33.965C3.53383 25.9545 7.09087 18.4717 12.7858 12.7789C18.4807 7.0862 25.9649 3.53203 33.9758 2.71605L46.1978 1.46805C65.3686 -0.489349 84.6889 -0.489349 103.86 1.46805Z" fill="white"/>
<g clip-path="url(#clip1_7580_34400)">
<path d="M110.902 74.7882L131.607 62.8791L126.597 54.1882L125.255 54.9228C124.898 55.1155 124.575 55.29 124.258 55.4719L119.742 58.0646C113.986 61.37 108.033 64.7846 102.197 68.1773C101.866 68.37 101.724 68.3991 101.666 68.3991C101.578 68.3991 101.411 68.2791 101.2 68.0682C94.5129 61.3191 87.6292 54.4355 80.742 47.61C80.3165 47.1882 80.3129 47.1519 80.6256 46.6137C84.011 40.7882 87.4147 34.8464 90.7092 29.0973L93.4547 24.3082C93.6183 24.021 93.7783 23.73 93.9383 23.4391L94.5783 22.2791L86.822 17.5664H85.3929L85.1783 18.1591C85.1347 18.2791 85.0983 18.3991 85.0583 18.5228C85.0001 18.7119 84.942 18.8937 84.8765 19.0137C81.2729 25.3082 77.6583 31.5955 74.0438 37.8828C70.4038 31.5555 66.7674 25.2246 63.1383 18.89C63.091 18.8064 63.0474 18.6573 63.0038 18.501C62.971 18.3919 62.942 18.2791 62.9056 18.1737L62.6983 17.5664H61.2038L60.9638 17.7482C60.8365 17.8464 60.7092 17.9482 60.5856 18.05C60.3492 18.2428 60.1238 18.4246 59.902 18.5555C58.5565 19.3519 57.2001 20.1337 55.8074 20.9373L53.4729 22.2864L67.7638 47.181L62.3747 52.57C57.2074 57.7373 51.8656 63.0755 46.6329 68.3555C46.5274 68.4609 46.4656 68.4973 46.4656 68.5046C46.3856 68.4864 46.1892 68.3737 46.0583 68.2937L45.942 68.2282C39.2692 64.3919 32.5929 60.5591 25.9201 56.7264L24.1129 55.69C23.7092 55.4573 23.302 55.2282 22.8729 54.9882L21.5201 54.221L16.5274 62.9446L37.1565 74.8064L16.3638 86.7664L21.4001 95.4864L46.131 81.29L67.5201 102.679L53.3165 127.428L62.0583 132.428L74.0183 111.625L85.9674 132.399L94.6692 127.388L94.0365 126.243C93.9165 126.025 93.8147 125.839 93.7129 125.657L90.8329 120.639C87.5129 114.85 84.0838 108.868 80.6692 102.999C80.3638 102.472 80.3674 102.435 80.7929 102.01C85.9129 96.9337 91.0947 91.7482 96.1056 86.7337L101.266 81.5737C101.407 81.4319 101.556 81.2937 101.713 81.1519L126.629 95.45L131.637 86.7082L110.902 74.7882ZM54.7929 74.8973L74.142 55.5482L93.2983 74.7009L73.9565 94.0391L54.7929 74.8973Z" fill="#00524C"/>
<path d="M74.0003 81.9997C78.2599 81.9997 81.7131 78.5466 81.7131 74.2869C81.7131 70.0273 78.2599 66.5742 74.0003 66.5742C69.7407 66.5742 66.2876 70.0273 66.2876 74.2869C66.2876 78.5466 69.7407 81.9997 74.0003 81.9997Z" fill="#00524C"/>
<path d="M102.549 37.9551C98.2585 37.9551 94.7676 41.446 94.7676 45.7369C94.7676 50.0278 98.2585 53.5187 102.549 53.5187C106.84 53.5187 110.331 50.0278 110.331 45.7369C110.331 41.446 106.84 37.9551 102.549 37.9551Z" fill="#FF6902"/>
<path d="M102.549 108.621C106.088 108.621 108.957 105.753 108.957 102.214C108.957 98.6753 106.088 95.8066 102.549 95.8066C99.0107 95.8066 96.1421 98.6753 96.1421 102.214C96.1421 105.753 99.0107 108.621 102.549 108.621Z" fill="#FF6902"/>
<path d="M45.7967 94.7051C41.6585 94.7051 38.2876 98.0723 38.2876 102.214C38.2876 106.352 41.6549 109.723 45.7967 109.723C49.9385 109.723 53.3058 106.356 53.3058 102.214C53.3058 98.0723 49.9385 94.7051 45.7967 94.7051Z" fill="#FF6902"/>
<path d="M45.7967 52.5563C49.5623 52.5563 52.6149 49.5037 52.6149 45.7381C52.6149 41.9725 49.5623 38.9199 45.7967 38.9199C42.0311 38.9199 38.9785 41.9725 38.9785 45.7381C38.9785 49.5037 42.0311 52.5563 45.7967 52.5563Z" fill="#FF6902"/>
</g>
</g>
<defs>
<clipPath id="clip0_7580_34400">
<rect width="150.061" height="150" fill="white"/>
</clipPath>
<clipPath id="clip1_7580_34400">
<rect width="133.455" height="120" fill="white" transform="translate(8 15)"/>
</clipPath>
</defs>
</svg>
